<svg width="41" height="41" viewBox="0 0 41 41" fill="none" xmlns="http://www.w3.org/2000/svg">
<path d="M23.8513 14.3402C24.0599 14.5488 24.0789 14.8753 23.9082 15.1053L23.8513 15.1712L18.7824 20.2405L23.8513 25.3097C24.0599 25.5183 24.0789 25.8448 23.9082 26.0748L23.8513 26.1407C23.6427 26.3494 23.3162 26.3683 23.0862 26.1976L23.0203 26.1407L17.5355 20.656C17.3269 20.4474 17.3079 20.1209 17.4786 19.8908L17.5355 19.8249L23.0203 14.3402C23.2497 14.1107 23.6218 14.1107 23.8513 14.3402Z" fill="#423D3D"/>
<path d="M2.9059 38.028L3.61301 37.3209L2.9059 38.028ZM38.481 38.028L37.7739 37.3209L38.481 38.028ZM38.481 2.4529L37.7739 3.16L38.481 2.4529ZM2.9059 2.4529L2.19879 1.74579L2.9059 2.4529ZM16.6638 1.09241H24.723V-0.907593H16.6638V1.09241ZM39.8415 16.2108V24.27H41.8415V16.2108H39.8415ZM24.723 39.3885H16.6638V41.3885H24.723V39.3885ZM1.54541 24.27V16.2108H-0.45459V24.27H1.54541ZM16.6638 39.3885C12.8364 39.3885 10.0665 39.3863 7.95394 39.1023C5.87019 38.8222 4.57648 38.2843 3.61301 37.3209L2.19879 38.7351C3.59581 40.1321 5.38192 40.7745 7.68744 41.0845C9.9642 41.3906 12.893 41.3885 16.6638 41.3885V39.3885ZM-0.45459 24.27C-0.45459 28.0409 -0.456714 30.9697 -0.150612 33.2464C0.159358 35.552 0.801779 37.3381 2.19879 38.7351L3.61301 37.3209C2.64953 36.3574 2.11171 35.0637 1.83155 32.9799C1.54753 30.8674 1.54541 28.0975 1.54541 24.27H-0.45459ZM39.8415 24.27C39.8415 28.0975 39.8393 30.8674 39.5553 32.9799C39.2752 35.0637 38.7374 36.3574 37.7739 37.3209L39.1881 38.7351C40.5851 37.3381 41.2275 35.552 41.5375 33.2464C41.8436 30.9697 41.8415 28.0409 41.8415 24.27H39.8415ZM24.723 41.3885C28.4939 41.3885 31.4227 41.3906 33.6994 41.0845C36.005 40.7745 37.7911 40.1321 39.1881 38.7351L37.7739 37.3209C36.8104 38.2843 35.5167 38.8222 33.4329 39.1023C31.3204 39.3863 28.5505 39.3885 24.723 39.3885V41.3885ZM24.723 1.09241C28.5505 1.09241 31.3204 1.09453 33.4329 1.37855C35.5167 1.6587 36.8104 2.19653 37.7739 3.16L39.1881 1.74579C37.7911 0.348776 36.005 -0.293645 33.6994 -0.603614C31.4227 -0.909716 28.4939 -0.907593 24.723 -0.907593V1.09241ZM41.8415 16.2108C41.8415 12.44 41.8436 9.51119 41.5375 7.23444C41.2275 4.92891 40.5851 3.1428 39.1881 1.74579L37.7739 3.16C38.7374 4.12348 39.2752 5.41719 39.5553 7.50093C39.8393 9.61345 39.8415 12.3834 39.8415 16.2108H41.8415ZM16.6638 -0.907593C12.893 -0.907593 9.9642 -0.909716 7.68744 -0.603614C5.38192 -0.293645 3.59581 0.348776 2.19879 1.74579L3.61301 3.16C4.57648 2.19653 5.87019 1.6587 7.95394 1.37855C10.0664 1.09453 12.8364 1.09241 16.6638 1.09241V-0.907593ZM1.54541 16.2108C1.54541 12.3834 1.54753 9.61345 1.83155 7.50093C2.11171 5.41719 2.64953 4.12348 3.61301 3.16L2.19879 1.74579C0.801779 3.1428 0.159358 4.92891 -0.150612 7.23444C-0.456714 9.5112 -0.45459 12.44 -0.45459 16.2108H1.54541Z" fill="#DCDCDC"/>
</svg>
