<svg width="54" height="54" viewBox="0 0 54 54" fill="none" xmlns="http://www.w3.org/2000/svg">
<g filter="url(#filter0_d_2_11195)">
<path d="M14.0518 37.5633H41.0909V40.2672H14.0518V37.5633ZM16.7557 26.7476H19.4596V36.2113H16.7557V26.7476ZM23.5155 26.7476H26.2194V36.2113H23.5155V26.7476ZM28.9233 26.7476H31.6272V36.2113H28.9233V26.7476ZM35.6831 26.7476H38.387V36.2113H35.6831V26.7476ZM14.0518 19.9878L27.5714 13.228L41.0909 19.9878V25.3957H14.0518V19.9878ZM27.5714 21.3398C27.9299 21.3398 28.2738 21.1973 28.5273 20.9438C28.7809 20.6903 28.9233 20.3464 28.9233 19.9878C28.9233 19.6293 28.7809 19.2854 28.5273 19.0318C28.2738 18.7783 27.9299 18.6359 27.5714 18.6359C27.2128 18.6359 26.8689 18.7783 26.6154 19.0318C26.3618 19.2854 26.2194 19.6293 26.2194 19.9878C26.2194 20.3464 26.3618 20.6903 26.6154 20.9438C26.8689 21.1973 27.2128 21.3398 27.5714 21.3398Z" fill="#BA79AD"/>
</g>
<defs>
<filter id="filter0_d_2_11195" x="11.5558" y="13.228" width="32.0312" height="32.031" filterUnits="userSpaceOnUse" color-interpolation-filters="sRGB">
<feFlood flood-opacity="0" result="BackgroundImageFix"/>
<feColorMatrix in="SourceAlpha" type="matrix" values="0 0 0 0 0 0 0 0 0 0 0 0 0 0 0 0 0 0 127 0" result="hardAlpha"/>
<feOffset dy="2.49592"/>
<feGaussianBlur stdDeviation="1.24796"/>
<feComposite in2="hardAlpha" operator="out"/>
<feColorMatrix type="matrix" values="0 0 0 0 0.816903 0 0 0 0 0.816903 0 0 0 0 0.816903 0 0 0 1 0"/>
<feBlend mode="normal" in2="BackgroundImageFix" result="effect1_dropShadow_2_11195"/>
<feBlend mode="normal" in="SourceGraphic" in2="effect1_dropShadow_2_11195" result="shape"/>
</filter>
</defs>
</svg>
