<svg width="189" height="41" viewBox="0 0 189 41" fill="none" xmlns="http://www.w3.org/2000/svg">
<g filter="url(#filter0_d_2_9728)">
<path d="M30.2101 19.116C30.3959 9.96536 22.5923 2.71919 13.4882 2.85854H3.96597V35.3734H13.4882C22.5923 35.5128 30.3959 28.2666 30.2101 19.116ZM27.2373 19.116C27.3767 26.6873 21.1524 32.6793 13.4882 32.54H6.93875V5.69198H13.4882C21.1524 5.55263 27.3767 11.5447 27.2373 19.116ZM36.0218 6.20293C36.0218 7.31772 36.8579 8.10737 37.9262 8.10737C38.9946 8.10737 39.8307 7.31772 39.8307 6.20293C39.8307 5.13458 38.9946 4.34493 37.9262 4.34493C36.8579 4.34493 36.0218 5.13458 36.0218 6.20293ZM36.4398 35.3734H39.4126V12.1485H36.4398V35.3734ZM45.3861 28.9633C45.3861 33.1438 49.1486 35.745 53.5149 35.745C58.3921 35.745 61.69 33.3296 61.69 29.1956C61.69 25.9905 60.1107 24.2255 58.1134 23.4358C57.1379 23.0178 55.8838 22.5533 54.2581 22.1352C50.7279 21.2062 49.0092 20.7882 48.8234 18.0476C48.8234 15.818 50.7279 14.4245 53.3755 14.4245C56.0232 14.4245 58.0205 15.818 58.0205 18.0941H60.9004C60.9004 14.1923 57.6953 11.7769 53.3755 11.7769C51.2388 11.7769 49.4273 12.3343 47.9873 13.4491C46.5474 14.5639 45.8506 16.0503 45.8506 17.8618C45.8506 20.7882 47.337 22.4604 49.2415 23.25C50.2169 23.6681 51.4246 24.0397 52.9575 24.4577C55.5587 25.1545 56.8592 25.619 57.9276 26.7802C58.4385 27.3376 58.7172 28.0808 58.7172 29.0562C58.7172 31.611 56.8592 33.0974 53.5613 33.0974C50.5421 33.0974 48.266 31.5181 48.266 28.9633H45.3861ZM67.2466 35.3734H70.2194V25.8976L73.4244 22.832L82.7608 35.3734H86.1052L75.5147 20.9275L84.5259 12.1485H80.6706L70.2194 22.2281V2.85854H67.2466V35.3734ZM111.698 23.761C111.837 17.3044 106.17 11.6376 99.7139 11.7769C93.2574 11.6376 87.5905 17.3044 87.7299 23.761C87.5905 30.2175 93.2574 35.8844 99.7139 35.745C106.17 35.8844 111.837 30.2175 111.698 23.761ZM90.7027 23.761C90.7027 18.6515 94.7438 14.6103 99.7604 14.6103C104.777 14.6103 108.725 18.6515 108.725 23.761C108.725 28.8704 104.777 32.9116 99.7604 32.9116C94.7438 32.9116 90.7027 28.7775 90.7027 23.761ZM117.523 23.761C117.384 30.2175 123.004 35.8844 129.461 35.745C135.871 35.8844 141.538 30.2175 141.445 23.761C141.538 17.3044 135.871 11.6376 129.461 11.7769C125.698 11.7769 122.4 13.7278 120.496 16.747V2.85854H117.523V23.761ZM120.449 23.761C120.449 18.6515 124.398 14.6103 129.461 14.6103C134.431 14.6103 138.472 18.7444 138.472 23.761C138.472 28.8704 134.524 32.9116 129.461 32.9116C124.351 32.9116 120.449 28.8704 120.449 23.761ZM147.265 35.3734H150.238V23.2965C150.238 17.7225 152.747 14.8426 156.788 14.8426C157.113 14.8426 157.345 14.8426 157.484 14.889V12.0556C157.345 12.0092 157.113 12.0092 156.788 12.0092C150.981 12.0092 147.265 15.818 147.265 23.2965V35.3734ZM173.242 11.7769C166.692 11.6376 161.351 17.3509 161.444 23.8074C161.444 30.3568 166.646 35.745 173.288 35.745C177.747 35.745 181.881 33.3296 184.065 29.5672H180.442C178.769 31.611 176.168 32.9116 173.242 32.9116C168.457 32.9116 164.742 29.2885 164.556 24.69H184.994C185.04 24.5042 185.04 24.2255 185.04 23.8539V23.4358C184.854 16.5612 179.513 11.7769 173.242 11.7769ZM164.556 22.1817C164.927 20.045 165.903 18.2334 167.528 16.7935C169.154 15.3535 171.059 14.6103 173.288 14.6103C175.471 14.6103 177.376 15.3535 178.955 16.7935C180.534 18.2334 181.51 19.9985 181.881 22.1817H164.556Z" fill="url(#paint0_linear_2_9728)"/>
</g>
<defs>
<filter id="filter0_d_2_9728" x="0.871007" y="0.655887" width="187.264" height="39.3551" filterUnits="userSpaceOnUse" color-interpolation-filters="sRGB">
<feFlood flood-opacity="0" result="BackgroundImageFix"/>
<feColorMatrix in="SourceAlpha" type="matrix" values="0 0 0 0 0 0 0 0 0 0 0 0 0 0 0 0 0 0 127 0" result="hardAlpha"/>
<feOffset dy="1.03165"/>
<feGaussianBlur stdDeviation="1.54747"/>
<feComposite in2="hardAlpha" operator="out"/>
<feColorMatrix type="matrix" values="0 0 0 0 0.696094 0 0 0 0 0.696094 0 0 0 0 0.696094 0 0 0 1 0"/>
<feBlend mode="normal" in2="BackgroundImageFix" result="effect1_dropShadow_2_9728"/>
<feBlend mode="normal" in="SourceGraphic" in2="effect1_dropShadow_2_9728" result="shape"/>
</filter>
<linearGradient id="paint0_linear_2_9728" x1="94.378" y1="-5.62659" x2="94.378" y2="45.9557" gradientUnits="userSpaceOnUse">
<stop stop-color="#33FFC2"/>
<stop offset="1" stop-color="#0573D9"/>
</linearGradient>
</defs>
</svg>
