<svg width="54" height="55" viewBox="0 0 54 55" fill="none" xmlns="http://www.w3.org/2000/svg">
<g filter="url(#filter0_d_2_11175)">
<path d="M16.3539 19.6159L11.9482 15.2115L13.8705 13.2892L18.2749 17.6949H38.9814C39.1931 17.6949 39.4019 17.7444 39.5912 17.8394C39.7804 17.9345 39.9448 18.0724 40.0712 18.2423C40.1976 18.4121 40.2826 18.6092 40.3194 18.8177C40.3561 19.0262 40.3436 19.2405 40.2828 19.4433L37.0224 30.3115C36.9385 30.5914 36.7666 30.8369 36.5321 31.0114C36.2977 31.1859 36.0132 31.2801 35.7209 31.2801H19.0709V33.9971H34.0146V36.7142H17.7124C17.3521 36.7142 17.0066 36.571 16.7518 36.3163C16.497 36.0615 16.3539 35.7159 16.3539 35.3556V19.6159ZM18.3917 42.1482C17.8512 42.1482 17.3329 41.9335 16.9508 41.5514C16.5686 41.1692 16.3539 40.6509 16.3539 40.1104C16.3539 39.57 16.5686 39.0517 16.9508 38.6695C17.3329 38.2874 17.8512 38.0727 18.3917 38.0727C18.9321 38.0727 19.4505 38.2874 19.8326 38.6695C20.2148 39.0517 20.4295 39.57 20.4295 40.1104C20.4295 40.6509 20.2148 41.1692 19.8326 41.5514C19.4505 41.9335 18.9321 42.1482 18.3917 42.1482ZM34.6939 42.1482C34.1534 42.1482 33.6351 41.9335 33.253 41.5514C32.8708 41.1692 32.6561 40.6509 32.6561 40.1104C32.6561 39.57 32.8708 39.0517 33.253 38.6695C33.6351 38.2874 34.1534 38.0727 34.6939 38.0727C35.2343 38.0727 35.7527 38.2874 36.1348 38.6695C36.517 39.0517 36.7317 39.57 36.7317 40.1104C36.7317 40.6509 36.517 41.1692 36.1348 41.5514C35.7527 41.9335 35.2343 42.1482 34.6939 42.1482Z" fill="#FCB0B3"/>
</g>
<defs>
<filter id="filter0_d_2_11175" x="9.44021" y="13.2892" width="33.4079" height="33.875" filterUnits="userSpaceOnUse" color-interpolation-filters="sRGB">
<feFlood flood-opacity="0" result="BackgroundImageFix"/>
<feColorMatrix in="SourceAlpha" type="matrix" values="0 0 0 0 0 0 0 0 0 0 0 0 0 0 0 0 0 0 127 0" result="hardAlpha"/>
<feOffset dy="2.50803"/>
<feGaussianBlur stdDeviation="1.25401"/>
<feComposite in2="hardAlpha" operator="out"/>
<feColorMatrix type="matrix" values="0 0 0 0 0.816903 0 0 0 0 0.816903 0 0 0 0 0.816903 0 0 0 1 0"/>
<feBlend mode="normal" in2="BackgroundImageFix" result="effect1_dropShadow_2_11175"/>
<feBlend mode="normal" in="SourceGraphic" in2="effect1_dropShadow_2_11175" result="shape"/>
</filter>
</defs>
</svg>
