<svg width="55" height="55" viewBox="0 0 55 55" fill="none" xmlns="http://www.w3.org/2000/svg">
<g filter="url(#filter0_d_2_11185)">
<path d="M14.8438 37.0361V16.6593C14.8438 16.299 14.9869 15.9535 15.2417 15.6987C15.4964 15.444 15.842 15.3008 16.2023 15.3008H28.4283C28.7886 15.3008 29.1341 15.444 29.3889 15.6987C29.6437 15.9535 29.7868 16.299 29.7868 16.6593V27.5269H32.5037C33.2243 27.5269 33.9153 27.8132 34.4248 28.3227C34.9344 28.8322 35.2206 29.5233 35.2206 30.2438V35.6776C35.2206 36.0379 35.3637 36.3834 35.6185 36.6382C35.8732 36.893 36.2188 37.0361 36.5791 37.0361C36.9393 37.0361 37.2849 36.893 37.5396 36.6382C37.7944 36.3834 37.9375 36.0379 37.9375 35.6776V26.1685H35.2206C34.8603 26.1685 34.5148 26.0253 34.26 25.7706C34.0053 25.5158 33.8621 25.1703 33.8621 24.81V19.9386L31.6112 17.6876L33.532 15.7668L40.2564 22.4911C40.3827 22.6171 40.4829 22.7668 40.5512 22.9316C40.6195 23.0965 40.6546 23.2731 40.6544 23.4516V35.6776C40.6544 36.7585 40.225 37.7951 39.4608 38.5593C38.6965 39.3236 37.6599 39.753 36.5791 39.753C35.4982 39.753 34.4616 39.3236 33.6973 38.5593C32.9331 37.7951 32.5037 36.7585 32.5037 35.6776V30.2438H29.7868V37.0361H31.1452V39.753H13.4854V37.0361H14.8438ZM17.5607 18.0177V26.1685H27.0699V18.0177H17.5607Z" fill="#428EFF"/>
</g>
<defs>
<filter id="filter0_d_2_11185" x="10.9774" y="15.3008" width="32.1848" height="29.468" filterUnits="userSpaceOnUse" color-interpolation-filters="sRGB">
<feFlood flood-opacity="0" result="BackgroundImageFix"/>
<feColorMatrix in="SourceAlpha" type="matrix" values="0 0 0 0 0 0 0 0 0 0 0 0 0 0 0 0 0 0 127 0" result="hardAlpha"/>
<feOffset dy="2.50791"/>
<feGaussianBlur stdDeviation="1.25396"/>
<feComposite in2="hardAlpha" operator="out"/>
<feColorMatrix type="matrix" values="0 0 0 0 0.816903 0 0 0 0 0.816903 0 0 0 0 0.816903 0 0 0 1 0"/>
<feBlend mode="normal" in2="BackgroundImageFix" result="effect1_dropShadow_2_11185"/>
<feBlend mode="normal" in="SourceGraphic" in2="effect1_dropShadow_2_11185" result="shape"/>
</filter>
</defs>
</svg>
