<svg width="32" height="31" viewBox="0 0 32 31" fill="none" xmlns="http://www.w3.org/2000/svg">
<path d="M29.2781 13.7439L29.1426 13.1874H16.6435V18.3069H24.1115C23.3362 21.8699 19.7383 23.7455 16.7994 23.7455C14.6611 23.7455 12.407 22.875 10.9151 21.4759C10.128 20.7259 9.50141 19.8331 9.07131 18.8485C8.6412 17.8639 8.416 16.8068 8.40858 15.7379C8.40858 13.5815 9.40999 11.4245 10.8671 10.0056C12.3243 8.58679 14.525 7.79293 16.7131 7.79293C19.219 7.79293 21.015 9.08063 21.6866 9.66789L25.4458 6.04912C24.343 5.11135 21.3136 2.74835 16.592 2.74835C12.9491 2.74835 9.45616 4.09872 6.90287 6.56153C4.38315 8.98662 3.07892 12.4934 3.07892 15.7472C3.07892 19.0009 4.31299 22.3324 6.75476 24.7767C9.36382 27.3834 13.0588 28.746 16.8636 28.746C20.3254 28.746 23.6066 27.4333 25.9453 25.0517C28.2443 22.7073 29.4334 19.4634 29.4334 16.0628C29.4334 14.6312 29.2847 13.7811 29.2781 13.7439Z" fill="white"/>
</svg>
