<svg width="337" height="59" viewBox="0 0 337 59" fill="none" xmlns="http://www.w3.org/2000/svg">
<g filter="url(#filter0_i_2_9700)">
<rect x="0.54541" y="0.571289" width="335.801" height="57.5658" rx="4.79715" fill="#EAF1F1"/>
<path fill-rule="evenodd" clip-rule="evenodd" d="M29.1577 38.9595C25.1209 38.9595 21.6735 38.3313 21.6735 35.8155C21.6735 33.2997 25.099 30.9772 29.1577 30.9772C33.1946 30.9772 36.6419 33.2772 36.6419 35.793C36.6419 38.3078 33.2164 38.9595 29.1577 38.9595Z" stroke="#1B9EC3" stroke-width="1.64018" stroke-linecap="round" stroke-linejoin="round"/>
<path fill-rule="evenodd" clip-rule="evenodd" d="M29.1498 27.491C31.7989 27.491 33.9461 25.3438 33.9461 22.6947C33.9461 20.0455 31.7989 17.8974 29.1498 17.8974C26.5007 17.8974 24.3525 20.0455 24.3525 22.6947C24.3436 25.3349 26.4758 27.482 29.116 27.491C29.1279 27.491 29.1389 27.491 29.1498 27.491Z" stroke="#1B9EC3" stroke-width="1.64018" stroke-linecap="round" stroke-linejoin="round"/>
<path d="M57.4623 27.317V33.2405C57.4623 34.0733 57.6637 34.6911 58.0667 35.0941C58.4786 35.4971 59.0472 35.6985 59.7726 35.6985C60.4889 35.6985 61.0486 35.4971 61.4516 35.0941C61.8635 34.6911 62.0694 34.0733 62.0694 33.2405V27.317H63.2918V33.227C63.2918 34.0061 63.135 34.6643 62.8216 35.2016C62.5082 35.7299 62.0829 36.1239 61.5456 36.3836C61.0173 36.6433 60.4218 36.7731 59.7591 36.7731C59.0965 36.7731 58.4965 36.6433 57.9592 36.3836C57.4309 36.1239 57.01 35.7299 56.6966 35.2016C56.3922 34.6643 56.2399 34.0061 56.2399 33.227V27.317H57.4623ZM67.9366 36.8C67.3725 36.8 66.8665 36.7059 66.4188 36.5179C65.9711 36.3209 65.6173 36.0522 65.3577 35.712C65.098 35.3627 64.9547 34.9643 64.9278 34.5165H66.1904C66.2263 34.8837 66.3964 35.1836 66.7009 35.4165C67.0143 35.6493 67.4217 35.7657 67.9232 35.7657C68.3888 35.7657 68.756 35.6627 69.0246 35.4568C69.2932 35.2508 69.4276 34.9911 69.4276 34.6777C69.4276 34.3553 69.2843 34.118 68.9977 33.9658C68.7112 33.8046 68.2679 33.6479 67.668 33.4957C67.1217 33.3524 66.674 33.2091 66.3248 33.0659C65.9845 32.9136 65.689 32.6942 65.4383 32.4077C65.1965 32.1122 65.0756 31.7271 65.0756 31.2525C65.0756 30.8764 65.1875 30.5317 65.4114 30.2183C65.6353 29.9049 65.9532 29.6586 66.3651 29.4795C66.777 29.2915 67.2471 29.1974 67.7754 29.1974C68.5903 29.1974 69.2485 29.4034 69.7499 29.8153C70.2514 30.2272 70.52 30.7914 70.5559 31.5077H69.3335C69.3067 31.1227 69.15 30.8138 68.8634 30.5809C68.5858 30.3481 68.2097 30.2317 67.7351 30.2317C67.2964 30.2317 66.9471 30.3257 66.6874 30.5138C66.4277 30.7018 66.2979 30.9481 66.2979 31.2525C66.2979 31.4943 66.374 31.6958 66.5263 31.857C66.6874 32.0092 66.8844 32.1346 67.1173 32.2331C67.359 32.3226 67.6904 32.4256 68.1112 32.542C68.6396 32.6853 69.0694 32.8286 69.4007 32.9718C69.732 33.1062 70.0141 33.3121 70.2469 33.5897C70.4887 33.8673 70.6141 34.23 70.623 34.6777C70.623 35.0807 70.5111 35.4433 70.2872 35.7657C70.0633 36.0881 69.7455 36.3433 69.3335 36.5313C68.9306 36.7104 68.4649 36.8 67.9366 36.8ZM79.0645 32.7166C79.0645 32.9495 79.0511 33.1957 79.0242 33.4554H73.141C73.1858 34.1807 73.432 34.7493 73.8798 35.1613C74.3364 35.5642 74.8872 35.7657 75.5319 35.7657C76.0602 35.7657 76.499 35.6448 76.8482 35.403C77.2064 35.1523 77.4572 34.821 77.6004 34.4091H78.9168C78.7198 35.1165 78.3258 35.6941 77.7347 36.1418C77.1437 36.5806 76.4095 36.8 75.5319 36.8C74.8334 36.8 74.2066 36.6433 73.6514 36.3298C73.1052 36.0164 72.6754 35.5732 72.3619 35.0001C72.0485 34.418 71.8918 33.7464 71.8918 32.9853C71.8918 32.2241 72.044 31.557 72.3485 30.9839C72.653 30.4108 73.0783 29.972 73.6245 29.6676C74.1797 29.3541 74.8155 29.1974 75.5319 29.1974C76.2304 29.1974 76.8482 29.3497 77.3855 29.6541C77.9228 29.9586 78.3347 30.3795 78.6213 30.9167C78.9168 31.4451 79.0645 32.045 79.0645 32.7166ZM77.8019 32.4614C77.8019 31.9958 77.6989 31.5973 77.493 31.266C77.287 30.9257 77.0049 30.6705 76.6468 30.5003C76.2975 30.3213 75.908 30.2317 75.4782 30.2317C74.8603 30.2317 74.332 30.4287 73.8932 30.8227C73.4634 31.2167 73.2171 31.763 73.1544 32.4614H77.8019ZM81.9002 30.5138C82.1152 30.0929 82.4196 29.7661 82.8136 29.5332C83.2166 29.3004 83.7046 29.184 84.2777 29.184V30.4466H83.9553C82.5853 30.4466 81.9002 31.1899 81.9002 32.6763V36.6791H80.6779V29.3183H81.9002V30.5138ZM89.2751 29.184C90.1705 29.184 90.8959 29.4571 91.451 30.0034C92.0062 30.5406 92.2838 31.3197 92.2838 32.3405V36.6791H91.0749V32.5152C91.0749 31.7809 90.8914 31.2212 90.5242 30.8361C90.1571 30.4421 89.6556 30.2451 89.0198 30.2451C88.3751 30.2451 87.8602 30.4466 87.4752 30.8496C87.0991 31.2525 86.911 31.8391 86.911 32.6092V36.6791H85.6887V29.3183H86.911V30.366C87.1528 29.9899 87.4796 29.6989 87.8916 29.4929C88.3124 29.287 88.7736 29.184 89.2751 29.184ZM93.8238 32.9718C93.8238 32.2196 93.976 31.5615 94.2805 30.9973C94.5849 30.4242 95.0013 29.981 95.5297 29.6676C96.0669 29.3541 96.6624 29.1974 97.3161 29.1974C97.9609 29.1974 98.5205 29.3362 98.9951 29.6138C99.4697 29.8914 99.8234 30.2407 100.056 30.6615V29.3183H101.292V36.6791H100.056V35.309C99.8145 35.7388 99.4518 36.097 98.9683 36.3836C98.4937 36.6612 97.9385 36.8 97.3027 36.8C96.649 36.8 96.058 36.6388 95.5297 36.3164C95.0013 35.994 94.5849 35.5418 94.2805 34.9598C93.976 34.3777 93.8238 33.7151 93.8238 32.9718ZM100.056 32.9853C100.056 32.4301 99.9443 31.9465 99.7204 31.5346C99.4966 31.1227 99.1921 30.8093 98.8071 30.5944C98.431 30.3705 98.0146 30.2586 97.5579 30.2586C97.1012 30.2586 96.6848 30.366 96.3087 30.5809C95.9326 30.7959 95.6326 31.1093 95.4088 31.5212C95.1849 31.9331 95.073 32.4166 95.073 32.9718C95.073 33.536 95.1849 34.0285 95.4088 34.4494C95.6326 34.8613 95.9326 35.1792 96.3087 35.403C96.6848 35.6179 97.1012 35.7254 97.5579 35.7254C98.0146 35.7254 98.431 35.6179 98.8071 35.403C99.1921 35.1792 99.4966 34.8613 99.7204 34.4494C99.9443 34.0285 100.056 33.5405 100.056 32.9853ZM112.209 29.184C112.782 29.184 113.293 29.3049 113.741 29.5467C114.188 29.7795 114.542 30.1332 114.802 30.6078C115.061 31.0824 115.191 31.66 115.191 32.3405V36.6791H113.982V32.5152C113.982 31.7809 113.799 31.2212 113.432 30.8361C113.073 30.4421 112.585 30.2451 111.968 30.2451C111.332 30.2451 110.826 30.4511 110.45 30.863C110.074 31.266 109.886 31.8525 109.886 32.6226V36.6791H108.677V32.5152C108.677 31.7809 108.493 31.2212 108.126 30.8361C107.768 30.4421 107.28 30.2451 106.662 30.2451C106.026 30.2451 105.52 30.4511 105.144 30.863C104.768 31.266 104.58 31.8525 104.58 32.6226V36.6791H103.358V29.3183H104.58V30.3795C104.822 29.9944 105.144 29.6989 105.547 29.4929C105.959 29.287 106.411 29.184 106.904 29.184C107.522 29.184 108.068 29.3228 108.542 29.6004C109.017 29.878 109.371 30.2854 109.603 30.8227C109.809 30.3033 110.15 29.9004 110.624 29.6138C111.099 29.3273 111.627 29.184 112.209 29.184ZM123.912 32.7166C123.912 32.9495 123.899 33.1957 123.872 33.4554H117.989C118.034 34.1807 118.28 34.7493 118.727 35.1613C119.184 35.5642 119.735 35.7657 120.38 35.7657C120.908 35.7657 121.347 35.6448 121.696 35.403C122.054 35.1523 122.305 34.821 122.448 34.4091H123.764C123.567 35.1165 123.173 35.6941 122.582 36.1418C121.991 36.5806 121.257 36.8 120.38 36.8C119.681 36.8 119.054 36.6433 118.499 36.3298C117.953 36.0164 117.523 35.5732 117.21 35.0001C116.896 34.418 116.74 33.7464 116.74 32.9853C116.74 32.2241 116.892 31.557 117.196 30.9839C117.501 30.4108 117.926 29.972 118.472 29.6676C119.027 29.3541 119.663 29.1974 120.38 29.1974C121.078 29.1974 121.696 29.3497 122.233 29.6541C122.771 29.9586 123.182 30.3795 123.469 30.9167C123.764 31.4451 123.912 32.045 123.912 32.7166ZM122.65 32.4614C122.65 31.9958 122.547 31.5973 122.341 31.266C122.135 30.9257 121.853 30.6705 121.494 30.5003C121.145 30.3213 120.756 30.2317 120.326 30.2317C119.708 30.2317 119.18 30.4287 118.741 30.8227C118.311 31.2167 118.065 31.763 118.002 32.4614H122.65Z" fill="#646A7C"/>
</g>
<defs>
<filter id="filter0_i_2_9700" x="0.54541" y="0.571289" width="335.801" height="61.4035" filterUnits="userSpaceOnUse" color-interpolation-filters="sRGB">
<feFlood flood-opacity="0" result="BackgroundImageFix"/>
<feBlend mode="normal" in="SourceGraphic" in2="BackgroundImageFix" result="shape"/>
<feColorMatrix in="SourceAlpha" type="matrix" values="0 0 0 0 0 0 0 0 0 0 0 0 0 0 0 0 0 0 127 0" result="hardAlpha"/>
<feOffset dy="3.83772"/>
<feGaussianBlur stdDeviation="1.91886"/>
<feComposite in2="hardAlpha" operator="arithmetic" k2="-1" k3="1"/>
<feColorMatrix type="matrix" values="0 0 0 0 0.904451 0 0 0 0 0.904397 0 0 0 0 0.904397 0 0 0 1 0"/>
<feBlend mode="normal" in2="shape" result="effect1_innerShadow_2_9700"/>
</filter>
</defs>
</svg>
