<svg width="108" height="180" viewBox="0 0 108 180" fill="none" xmlns="http://www.w3.org/2000/svg">
<g filter="url(#filter0_d_144_6850)">
<path d="M13.2722 174.785C16.6789 174.859 19.6445 171.869 19.571 168.462V157.433H18.8357V165.644C17.7818 163.56 15.6496 162.139 13.2722 162.139C9.86552 162.065 6.87546 165.055 6.94899 168.462C6.87546 171.869 9.86552 174.859 13.2722 174.785ZM7.68425 168.462C7.68425 165.35 10.2332 162.801 13.2967 162.801C16.3603 162.801 18.8602 165.35 18.8602 168.462C18.8602 171.575 16.4094 174.124 13.2967 174.124C10.1841 174.124 7.68425 171.575 7.68425 168.462ZM23.2435 159.247C23.2435 159.565 23.464 159.786 23.7826 159.786C24.1013 159.786 24.3218 159.565 24.3218 159.247C24.3218 158.928 24.1013 158.708 23.7826 158.708C23.464 158.708 23.2435 158.928 23.2435 159.247ZM23.415 174.589H24.1503V162.335H23.415V174.589ZM27.251 171.501C27.251 173.486 29.0401 174.785 31.0499 174.785C33.3047 174.785 34.8487 173.511 34.8487 171.55C34.8487 169.884 34.1134 168.977 33.1576 168.511C32.6919 168.291 32.0547 168.045 31.2704 167.825C29.3588 167.261 28.4029 166.943 28.3049 165.104C28.3049 163.658 29.4078 162.801 30.9763 162.801C32.5449 162.801 33.6478 163.658 33.6478 165.104H34.383C34.383 163.315 32.9125 162.139 30.9763 162.139C29.0401 162.139 27.5696 163.315 27.5696 165.104C27.6922 167.359 28.8196 167.776 30.9028 168.438C32.937 169.075 33.9909 169.467 34.1134 171.55C34.1134 173.217 32.986 174.124 31.0499 174.124C29.2852 174.124 27.9863 173.143 27.9863 171.501H27.251ZM37.7802 174.589H38.5154V169.173L40.4026 167.433L45.77 174.589H46.6033L40.9418 166.943L45.7455 162.335H44.7897L38.5154 168.315V157.433H37.7802V174.589ZM60.1095 168.462C60.1831 165.055 57.193 162.065 53.7863 162.139C50.3796 162.065 47.3895 165.055 47.463 168.462C47.3895 171.869 50.3796 174.859 53.7863 174.785C57.193 174.859 60.1831 171.869 60.1095 168.462ZM48.1983 168.462C48.1983 165.35 50.6982 162.801 53.8108 162.801C56.9234 162.801 59.3743 165.35 59.3743 168.462C59.3743 171.575 56.8744 174.124 53.8108 174.124C50.7472 174.124 48.1983 171.575 48.1983 168.462ZM63.1831 168.462C63.1096 171.869 66.0751 174.859 69.4818 174.785C72.864 174.859 75.8541 171.869 75.8051 168.462C75.8541 165.055 72.864 162.065 69.4818 162.139C67.1045 162.139 64.9722 163.56 63.9183 165.644V157.433H63.1831V168.462ZM63.8938 168.462C63.8938 165.35 66.3937 162.801 69.4573 162.801C72.5209 162.801 75.0698 165.35 75.0698 168.462C75.0698 171.575 72.5699 174.124 69.4573 174.124C66.3447 174.124 63.8938 171.575 63.8938 168.462ZM78.8763 174.589H79.6116V168.266C79.6116 164.761 81.2537 162.923 83.7781 162.923C83.9986 162.923 84.1457 162.923 84.2682 162.948V162.286C84.1457 162.261 83.9986 162.261 83.7781 162.261C80.7635 162.261 78.8763 164.271 78.8763 168.266V174.589ZM92.3431 162.139C88.8383 162.139 86.1179 164.982 86.1179 168.487C86.1179 171.942 88.8383 174.785 92.3431 174.785C94.5979 174.785 96.7547 173.658 97.9556 171.82H97.0243C95.9214 173.266 94.1322 174.124 92.3431 174.124C89.206 174.124 86.8531 171.624 86.8531 168.56H98.4948V168.34C98.3967 164.761 95.7988 162.139 92.3431 162.139ZM86.8531 167.874C87.1963 165.104 89.4511 162.801 92.3431 162.801C95.2596 162.801 97.3674 165.031 97.7105 167.874H86.8531Z" fill="url(#paint0_linear_144_6850)"/>
</g>
<g filter="url(#filter1_d_144_6850)">
<path d="M87.1416 81.4053C77.5572 95.8696 57.5344 130.334 54.1182 152.477" stroke="url(#paint1_linear_144_6850)" stroke-width="6.64056" stroke-linecap="round" stroke-linejoin="round"/>
<path d="M21.2726 81.4053C30.8049 95.8696 50.7188 130.334 54.1165 152.477" stroke="url(#paint2_linear_144_6850)" stroke-width="6.64056" stroke-linecap="round" stroke-linejoin="round"/>
<path fill-rule="evenodd" clip-rule="evenodd" d="M98.5047 69.7722C101.237 63.6801 102.756 56.9261 102.756 49.8171C102.756 22.8562 80.9002 1.00002 53.9393 1.00002C38.0669 1.00002 23.9638 8.5751 15.0479 20.3073C14.0156 21.6656 13.0529 23.0797 12.165 24.5442C12.0189 24.7852 11.8748 25.0276 11.7328 25.2712L17.3825 28.7682C17.3912 28.7532 17.3999 28.7381 17.4086 28.723L89.0172 71.7517L89.0328 71.7265L95.3696 75.6488C95.4066 75.5896 95.4434 75.5303 95.4801 75.471C96.6085 73.6477 97.6202 71.7447 98.5047 69.7722ZM14.9477 33.7097C12.8953 38.6726 11.7627 44.1126 11.7627 49.8171C11.7627 73.1105 30.6458 91.9936 53.9393 91.9936C67.0936 91.9936 78.8413 85.9716 86.5762 76.5341L92.2658 80.0558C83.3255 91.3719 69.4805 98.6342 53.9393 98.6342C26.9783 98.6342 5.12219 76.778 5.12219 49.8171C5.12219 42.8292 6.59043 36.1842 9.23525 30.1738L14.9477 33.7097ZM21.1844 23.2447C28.9175 13.7241 40.7179 7.64057 53.9393 7.64057C77.2327 7.64057 96.1158 26.5236 96.1158 49.8171C96.1158 55.654 94.9301 61.214 92.7864 66.2694L21.1844 23.2447Z" fill="url(#paint3_linear_144_6850)"/>
</g>
<defs>
<filter id="filter0_d_144_6850" x="3.99717" y="156.474" width="97.3759" height="23.1823" filterUnits="userSpaceOnUse" color-interpolation-filters="sRGB">
<feFlood flood-opacity="0" result="BackgroundImageFix"/>
<feColorMatrix in="SourceAlpha" type="matrix" values="0 0 0 0 0 0 0 0 0 0 0 0 0 0 0 0 0 0 127 0" result="hardAlpha"/>
<feOffset dy="1.91886"/>
<feGaussianBlur stdDeviation="1.43914"/>
<feComposite in2="hardAlpha" operator="out"/>
<feColorMatrix type="matrix" values="0 0 0 0 0.696094 0 0 0 0 0.696094 0 0 0 0 0.696094 0 0 0 1 0"/>
<feBlend mode="normal" in2="BackgroundImageFix" result="effect1_dropShadow_144_6850"/>
<feBlend mode="normal" in="SourceGraphic" in2="effect1_dropShadow_144_6850" result="shape"/>
</filter>
<filter id="filter1_d_144_6850" x="0.325043" y="0.0405858" width="107.228" height="164.392" filterUnits="userSpaceOnUse" color-interpolation-filters="sRGB">
<feFlood flood-opacity="0" result="BackgroundImageFix"/>
<feColorMatrix in="SourceAlpha" type="matrix" values="0 0 0 0 0 0 0 0 0 0 0 0 0 0 0 0 0 0 127 0" result="hardAlpha"/>
<feOffset dy="3.83772"/>
<feGaussianBlur stdDeviation="2.39857"/>
<feComposite in2="hardAlpha" operator="out"/>
<feColorMatrix type="matrix" values="0 0 0 0 0.696094 0 0 0 0 0.696094 0 0 0 0 0.696094 0 0 0 1 0"/>
<feBlend mode="normal" in2="BackgroundImageFix" result="effect1_dropShadow_144_6850"/>
<feBlend mode="normal" in="SourceGraphic" in2="effect1_dropShadow_144_6850" result="shape"/>
</filter>
<linearGradient id="paint0_linear_144_6850" x1="52.7181" y1="152.589" x2="52.7181" y2="179.655" gradientUnits="userSpaceOnUse">
<stop stop-color="#33FFC2"/>
<stop offset="1" stop-color="#0573D9"/>
</linearGradient>
<linearGradient id="paint1_linear_144_6850" x1="70.6299" y1="81.4053" x2="70.6299" y2="152.477" gradientUnits="userSpaceOnUse">
<stop stop-color="#18AED0"/>
<stop offset="1" stop-color="#1D9AD5"/>
</linearGradient>
<linearGradient id="paint2_linear_144_6850" x1="37.6945" y1="81.4053" x2="37.6945" y2="152.477" gradientUnits="userSpaceOnUse">
<stop stop-color="#18AED0"/>
<stop offset="1" stop-color="#1D9AD5"/>
</linearGradient>
<linearGradient id="paint3_linear_144_6850" x1="53.9393" y1="1.00002" x2="53.9393" y2="98.6342" gradientUnits="userSpaceOnUse">
<stop stop-color="#2FF4C4"/>
<stop offset="0.187008" stop-color="#2BE6C6"/>
<stop offset="1" stop-color="#16A7D1"/>
</linearGradient>
</defs>
</svg>
