<svg width="32" height="31" viewBox="0 0 32 31" fill="none" xmlns="http://www.w3.org/2000/svg">
<path d="M26.3304 5.44354H6.1823C5.29199 5.44445 4.43842 5.78168 3.80887 6.38125C3.17933 6.98082 2.82523 7.79375 2.82428 8.64166V22.3479C2.82523 23.1958 3.17933 24.0087 3.80887 24.6083C4.43842 25.2079 5.29199 25.5451 6.1823 25.546H26.3304C27.2208 25.5451 28.0743 25.2079 28.7039 24.6083C29.3334 24.0087 29.6875 23.1958 29.6885 22.3479V8.64166C29.6875 7.79375 29.3334 6.98082 28.7039 6.38125C28.0743 5.78168 27.2208 5.44445 26.3304 5.44354ZM25.4801 10.7336L16.8452 17.1298C16.6768 17.2545 16.4697 17.3222 16.2564 17.3222C16.0431 17.3222 15.8359 17.2545 15.6675 17.1298L7.0326 10.7336C6.93115 10.6606 6.84594 10.5692 6.78191 10.4646C6.71789 10.36 6.67633 10.2443 6.65965 10.1243C6.64298 10.0042 6.65151 9.88223 6.68477 9.76537C6.71802 9.64851 6.77533 9.53911 6.85337 9.44352C6.9314 9.34794 7.02861 9.26807 7.13933 9.20858C7.25005 9.14908 7.37208 9.11113 7.49834 9.09694C7.62459 9.08275 7.75255 9.0926 7.87478 9.12591C7.997 9.15922 8.11105 9.21534 8.21031 9.29099L16.2564 15.2509L24.3024 9.29099C24.5036 9.14629 24.7565 9.08283 25.0065 9.11432C25.2564 9.14582 25.4833 9.26975 25.6381 9.45931C25.7928 9.64887 25.863 9.88882 25.8335 10.1273C25.8039 10.3657 25.677 10.5835 25.4801 10.7336Z" fill="white"/>
</svg>
