<svg width="375" height="548" viewBox="0 0 375 548" fill="none" xmlns="http://www.w3.org/2000/svg">
<rect x="152.55" y="504.9" width="10.5537" height="10.5537" rx="5.27686" fill="#AAF5FF"/>
<rect x="169.819" y="504.898" width="10.5537" height="10.5537" rx="5.27686" fill="#AAF5FF"/>
<rect x="187.09" y="504.898" width="33.5801" height="10.5537" rx="5.27686" fill="#26D0D2"/>
<path d="M50.9063 14.772C50.939 15.5566 50.9145 16.4066 50.8327 17.322C50.6856 18.7114 50.2279 19.9782 49.4597 21.1225C48.7077 22.2503 47.6698 23.1494 46.3457 23.8196C45.038 24.4898 43.526 24.8249 41.8097 24.8249C40.0443 24.8249 38.4505 24.4162 37.0284 23.5989C35.6063 22.7816 34.4948 21.6701 33.6938 20.2643C32.8929 18.8422 32.4924 17.2729 32.4924 15.5566C32.4924 13.8403 32.8929 12.271 33.6938 10.8489C34.4948 9.4268 35.6063 8.30709 37.0284 7.48979C38.4505 6.67248 40.0443 6.26383 41.8097 6.26383C43.8529 6.26383 45.5529 6.72152 46.9097 7.6369C48.2664 8.53594 49.3125 9.64747 50.0481 10.9715L47.6698 12.0994C47.114 11.1513 46.3621 10.3422 45.414 9.67199C44.4659 9.0018 43.2645 8.66671 41.8097 8.66671C40.5674 8.66671 39.4313 8.96911 38.4015 9.57392C37.3717 10.1624 36.5544 10.9879 35.9496 12.0504C35.3611 13.0965 35.0669 14.2653 35.0669 15.5566C35.0669 16.8316 35.3693 18.0003 35.9741 19.0628C36.5789 20.109 37.3962 20.9345 38.426 21.5393C39.4558 22.1277 40.5837 22.422 41.8097 22.422C42.9703 22.422 44.0164 22.2013 44.9481 21.76C45.8799 21.3186 46.6236 20.6975 47.1794 19.8965C47.7351 19.0792 48.0539 18.1311 48.1356 17.0523H40.7308V14.772H50.9063ZM57.2022 7.19556C57.2022 7.62056 57.0469 7.98017 56.7363 8.2744C56.4421 8.56863 56.0825 8.71575 55.6575 8.71575C55.2161 8.71575 54.8402 8.56863 54.5296 8.2744C54.219 7.98017 54.0637 7.62056 54.0637 7.19556C54.0637 6.80325 54.219 6.45998 54.5296 6.16575C54.8402 5.87152 55.2161 5.7244 55.6575 5.7244C56.0825 5.7244 56.4421 5.87152 56.7363 6.16575C57.0469 6.44363 57.2022 6.7869 57.2022 7.19556ZM54.3825 10.6037H56.8589V24.5061H54.3825V10.6037ZM62.3253 10.6037L66.7633 21.3676L71.2258 10.6037H73.9474L68.0138 24.5061H65.5128L59.5792 10.6037H62.3253ZM79.4706 7.19556C79.4706 7.62056 79.3153 7.98017 79.0047 8.2744C78.7105 8.56863 78.3509 8.71575 77.9259 8.71575C77.4845 8.71575 77.1086 8.56863 76.798 8.2744C76.4874 7.98017 76.3321 7.62056 76.3321 7.19556C76.3321 6.80325 76.4874 6.45998 76.798 6.16575C77.1086 5.87152 77.4845 5.7244 77.9259 5.7244C78.3509 5.7244 78.7105 5.87152 79.0047 6.16575C79.3153 6.44363 79.4706 6.7869 79.4706 7.19556ZM76.6509 10.6037H79.1273V24.5061H76.6509V10.6037ZM91.263 10.3585C92.3091 10.3585 93.2245 10.5956 94.0091 11.0696C94.8101 11.5436 95.4312 12.222 95.8726 13.1047C96.3139 13.971 96.5346 14.9927 96.5346 16.1696V24.5061H94.0827V16.709C94.0827 15.385 93.7476 14.3715 93.0774 13.6686C92.4235 12.9657 91.5327 12.6143 90.4048 12.6143C89.5875 12.6143 88.8437 12.7941 88.1735 13.1537C87.5197 13.5133 87.0048 14.0119 86.6288 14.6494C86.2529 15.2705 86.0649 15.9653 86.0649 16.7335V24.5061H83.5885V10.6037H86.0649V12.933C86.686 12.1975 87.4298 11.5845 88.2961 11.0941C89.1788 10.6037 90.1678 10.3585 91.263 10.3585ZM113.463 10.6037V23.3782C113.463 27.9715 111.052 30.2681 106.23 30.2681C104.906 30.2681 103.729 30.0801 102.699 29.7042C101.67 29.3446 100.82 28.9196 100.149 28.4292L101.253 26.5412C102.724 27.5547 104.326 28.0614 106.059 28.0614C107.693 28.0614 108.919 27.6691 109.736 26.8845C110.57 26.0999 110.987 24.8821 110.987 23.2311V22.422C109.892 23.9912 108.216 24.7758 105.96 24.7758C104.767 24.7758 103.68 24.4816 102.699 23.8931C101.735 23.2883 100.967 22.4383 100.395 21.3431C99.8389 20.2479 99.561 18.9811 99.561 17.5427C99.561 16.1042 99.8389 14.8374 100.395 13.7422C100.95 12.647 101.71 11.8052 102.675 11.2167C103.656 10.6282 104.751 10.334 105.96 10.334C108.216 10.334 109.892 11.1186 110.987 12.6879V10.6037H113.463ZM106.672 22.4955C107.587 22.4955 108.372 22.2749 109.025 21.8335C109.679 21.3922 110.17 20.7955 110.497 20.0436C110.84 19.2917 111.011 18.458 111.011 17.5427C111.011 16.1042 110.627 14.9191 109.859 13.9874C109.091 13.0556 108.028 12.5898 106.672 12.5898C105.756 12.5898 104.947 12.8105 104.244 13.2518C103.558 13.6931 103.026 14.2898 102.65 15.0417C102.274 15.7936 102.086 16.6273 102.086 17.5427C102.086 18.4417 102.274 19.2753 102.65 20.0436C103.026 20.7955 103.558 21.3922 104.244 21.8335C104.947 22.2749 105.756 22.4955 106.672 22.4955ZM138.15 5.47921V24.5061H135.674V22.422C134.611 23.9912 132.944 24.7758 130.672 24.7758C129.462 24.7758 128.367 24.4816 127.386 23.8931C126.422 23.2883 125.654 22.4383 125.081 21.3431C124.526 20.2479 124.248 18.9811 124.248 17.5427C124.248 16.1042 124.526 14.8374 125.081 13.7422C125.654 12.647 126.422 11.8052 127.386 11.2167C128.367 10.6282 129.462 10.334 130.672 10.334C132.944 10.334 134.611 11.1186 135.674 12.6879V5.47921H138.15ZM131.358 22.4955C132.274 22.4955 133.058 22.2749 133.712 21.8335C134.366 21.3922 134.856 20.8037 135.183 20.0681C135.527 19.3162 135.698 18.4826 135.698 17.5672C135.698 16.1287 135.314 14.9436 134.546 14.0119C133.778 13.0802 132.715 12.6143 131.358 12.6143C130.443 12.6143 129.634 12.835 128.931 13.2763C128.244 13.7177 127.713 14.3143 127.337 15.0662C126.961 15.8181 126.773 16.6518 126.773 17.5672C126.773 18.4662 126.961 19.2917 127.337 20.0436C127.713 20.7955 128.244 21.3922 128.931 21.8335C129.634 22.2749 130.443 22.4955 131.358 22.4955ZM145.414 7.19556C145.414 7.62056 145.258 7.98017 144.948 8.2744C144.654 8.56863 144.294 8.71575 143.869 8.71575C143.428 8.71575 143.052 8.56863 142.741 8.2744C142.431 7.98017 142.275 7.62056 142.275 7.19556C142.275 6.80325 142.431 6.45998 142.741 6.16575C143.052 5.87152 143.428 5.7244 143.869 5.7244C144.294 5.7244 144.654 5.87152 144.948 6.16575C145.258 6.44363 145.414 6.7869 145.414 7.19556ZM142.594 10.6037H145.071V24.5061H142.594V10.6037ZM152.008 13.8403C153.185 11.5845 154.975 10.4566 157.378 10.4566V13.1292H157.035C156.168 13.1292 155.351 13.3172 154.583 13.6931C153.831 14.0691 153.21 14.6984 152.719 15.5811C152.245 16.4475 152.008 17.5753 152.008 18.9648V24.5061H149.532V10.6037H152.008V13.8403ZM166.614 24.7758C165.061 24.7758 163.721 24.4816 162.593 23.8931C161.465 23.3047 160.598 22.471 159.994 21.3922C159.405 20.3133 159.111 19.0465 159.111 17.5917C159.111 16.0388 159.438 14.7148 160.092 13.6196C160.762 12.5244 161.62 11.7071 162.666 11.1677C163.712 10.6119 164.824 10.334 166.001 10.334C167.341 10.334 168.526 10.6201 169.556 11.1922C170.602 11.748 171.411 12.5816 171.984 13.6931C172.572 14.7883 172.866 16.1287 172.866 17.7143C172.866 18.0085 172.85 18.3845 172.817 18.8422H161.661C161.792 19.8883 162.282 20.7792 163.132 21.5148C163.998 22.2503 165.175 22.6181 166.663 22.6181C167.464 22.6181 168.216 22.4874 168.919 22.2258C169.622 21.9479 170.202 21.621 170.66 21.2451L172.008 22.6426C171.452 23.2311 170.7 23.7378 169.752 24.1628C168.821 24.5715 167.774 24.7758 166.614 24.7758ZM166.001 12.6388C165.135 12.6388 164.366 12.835 163.696 13.2273C163.042 13.6032 162.536 14.1181 162.176 14.772C161.833 15.4095 161.661 16.096 161.661 16.8316H170.267C170.267 16.0797 170.096 15.385 169.752 14.7475C169.425 14.11 168.935 13.6032 168.281 13.2273C167.644 12.835 166.884 12.6388 166.001 12.6388ZM175.13 17.5917C175.13 16.2513 175.44 15.0254 176.062 13.9138C176.683 12.8023 177.533 11.9278 178.612 11.2903C179.707 10.6528 180.916 10.334 182.24 10.334C183.712 10.334 184.97 10.6773 186.016 11.3638C187.063 12.0504 187.814 12.8922 188.272 13.8893L186.139 14.8455C185.812 14.2244 185.314 13.7013 184.643 13.2763C183.989 12.835 183.197 12.6143 182.265 12.6143C181.366 12.6143 180.565 12.835 179.862 13.2763C179.159 13.7013 178.612 14.2979 178.219 15.0662C177.827 15.8181 177.631 16.6681 177.631 17.6162C177.631 18.5479 177.827 19.3898 178.219 20.1417C178.612 20.8773 179.159 21.4576 179.862 21.8826C180.565 22.2912 181.366 22.4955 182.265 22.4955C183.197 22.4955 183.998 22.283 184.668 21.858C185.338 21.4167 185.845 20.8936 186.188 20.2888L188.321 21.2451C187.847 22.2585 187.087 23.1003 186.041 23.7705C185.011 24.4407 183.752 24.7758 182.265 24.7758C180.925 24.7758 179.707 24.4652 178.612 23.8441C177.533 23.2229 176.683 22.3648 176.062 21.2696C175.44 20.1744 175.13 18.9484 175.13 17.5917ZM194.335 20.8037C194.335 21.4085 194.491 21.8662 194.801 22.1768C195.112 22.471 195.529 22.6181 196.052 22.6181C196.624 22.6181 197.13 22.5037 197.572 22.2749L198.087 24.1628C197.793 24.3263 197.417 24.4652 196.959 24.5797C196.501 24.7104 195.994 24.7758 195.439 24.7758C194.327 24.7758 193.453 24.4898 192.815 23.9176C192.178 23.3292 191.859 22.5037 191.859 21.4412V12.835H190.314V12.1239L194.213 7.85757H194.335V10.6037H197.621V12.835H194.335V20.8037ZM203.934 7.19556C203.934 7.62056 203.779 7.98017 203.468 8.2744C203.174 8.56863 202.814 8.71575 202.389 8.71575C201.948 8.71575 201.572 8.56863 201.262 8.2744C200.951 7.98017 200.796 7.62056 200.796 7.19556C200.796 6.80325 200.951 6.45998 201.262 6.16575C201.572 5.87152 201.948 5.7244 202.389 5.7244C202.814 5.7244 203.174 5.87152 203.468 6.16575C203.779 6.44363 203.934 6.7869 203.934 7.19556ZM201.114 10.6037H203.591V24.5061H201.114V10.6037ZM214.329 24.7758C212.923 24.7758 211.673 24.4571 210.578 23.8196C209.482 23.1657 208.624 22.2912 208.003 21.196C207.398 20.0845 207.096 18.8585 207.096 17.5181C207.096 16.1941 207.398 14.9845 208.003 13.8893C208.624 12.7941 209.482 11.9278 210.578 11.2903C211.673 10.6528 212.923 10.334 214.329 10.334C215.735 10.334 216.985 10.6528 218.08 11.2903C219.176 11.9278 220.026 12.7941 220.63 13.8893C221.252 14.9845 221.562 16.1941 221.562 17.5181C221.562 18.8585 221.252 20.0845 220.63 21.196C220.026 22.2912 219.176 23.1657 218.08 23.8196C216.985 24.4571 215.735 24.7758 214.329 24.7758ZM214.329 12.5898C213.381 12.5898 212.547 12.8023 211.828 13.2273C211.125 13.6523 210.578 14.2407 210.185 14.9927C209.809 15.7446 209.621 16.5864 209.621 17.5181C209.621 18.4499 209.809 19.2999 210.185 20.0681C210.578 20.8201 211.125 21.4167 211.828 21.858C212.547 22.2994 213.381 22.52 214.329 22.52C215.277 22.52 216.103 22.2994 216.805 21.858C217.525 21.4167 218.072 20.8201 218.448 20.0681C218.841 19.2999 219.037 18.4499 219.037 17.5181C219.037 16.5864 218.841 15.7446 218.448 14.9927C218.072 14.2407 217.525 13.6523 216.805 13.2273C216.103 12.8023 215.277 12.5898 214.329 12.5898ZM232.44 10.3585C233.486 10.3585 234.401 10.5956 235.186 11.0696C235.987 11.5436 236.608 12.222 237.049 13.1047C237.491 13.971 237.711 14.9927 237.711 16.1696V24.5061H235.26V16.709C235.26 15.385 234.924 14.3715 234.254 13.6686C233.6 12.9657 232.71 12.6143 231.582 12.6143C230.764 12.6143 230.021 12.7941 229.35 13.1537C228.697 13.5133 228.182 14.0119 227.806 14.6494C227.43 15.2705 227.242 15.9653 227.242 16.7335V24.5061H224.765V10.6037H227.242V12.933C227.863 12.1975 228.607 11.5845 229.473 11.0941C230.356 10.6037 231.345 10.3585 232.44 10.3585ZM246.5 24.8739C244.13 24.8739 242.185 24.2936 240.664 23.133L241.645 21.3922C242.234 21.8172 242.961 22.1604 243.827 22.422C244.71 22.6835 245.568 22.8143 246.402 22.8143C247.35 22.8143 248.069 22.6753 248.559 22.3975C249.066 22.1032 249.32 21.6292 249.32 20.9753C249.32 20.485 249.164 20.1008 248.854 19.8229C248.543 19.5287 248.151 19.308 247.677 19.1609C247.219 18.9975 246.573 18.8258 245.74 18.646C244.661 18.4172 243.786 18.1802 243.116 17.935C242.446 17.6734 241.874 17.2729 241.4 16.7335C240.926 16.1778 240.689 15.4258 240.689 14.4778C240.689 13.5624 240.934 12.7941 241.424 12.173C241.931 11.5518 242.585 11.1023 243.386 10.8244C244.187 10.5302 245.037 10.3831 245.936 10.3831C246.9 10.3831 247.808 10.5138 248.658 10.7754C249.508 11.0205 250.235 11.3556 250.84 11.7806L249.957 13.5705C249.369 13.2109 248.715 12.933 247.996 12.7369C247.293 12.5407 246.59 12.4427 245.887 12.4427C245.2 12.4427 244.563 12.5898 243.974 12.884C243.402 13.1619 243.116 13.6359 243.116 14.3061C243.116 14.7475 243.263 15.1071 243.558 15.385C243.852 15.6465 244.211 15.8427 244.636 15.9734C245.078 16.1042 245.707 16.2595 246.524 16.4393C247.62 16.6681 248.51 16.9133 249.197 17.1749C249.9 17.4364 250.497 17.8532 250.987 18.4253C251.477 18.9975 251.722 19.7902 251.722 20.8037C251.722 22.1114 251.24 23.1167 250.276 23.8196C249.328 24.5224 248.069 24.8739 246.5 24.8739ZM265.786 20.8037C265.786 21.4085 265.941 21.8662 266.252 22.1768C266.562 22.471 266.979 22.6181 267.502 22.6181C268.074 22.6181 268.581 22.5037 269.022 22.2749L269.537 24.1628C269.243 24.3263 268.867 24.4652 268.409 24.5797C267.952 24.7104 267.445 24.7758 266.889 24.7758C265.778 24.7758 264.903 24.4898 264.266 23.9176C263.628 23.3292 263.309 22.5037 263.309 21.4412V12.835H261.765V12.1239L265.663 7.85757H265.786V10.6037H269.071V12.835H265.786V20.8037ZM278.572 24.7758C277.166 24.7758 275.916 24.4571 274.821 23.8196C273.725 23.1657 272.867 22.2912 272.246 21.196C271.641 20.0845 271.339 18.8585 271.339 17.5181C271.339 16.1941 271.641 14.9845 272.246 13.8893C272.867 12.7941 273.725 11.9278 274.821 11.2903C275.916 10.6528 277.166 10.334 278.572 10.334C279.978 10.334 281.228 10.6528 282.324 11.2903C283.419 11.9278 284.269 12.7941 284.874 13.8893C285.495 14.9845 285.805 16.1941 285.805 17.5181C285.805 18.8585 285.495 20.0845 284.874 21.196C284.269 22.2912 283.419 23.1657 282.324 23.8196C281.228 24.4571 279.978 24.7758 278.572 24.7758ZM278.572 12.5898C277.624 12.5898 276.79 12.8023 276.071 13.2273C275.368 13.6523 274.821 14.2407 274.428 14.9927C274.052 15.7446 273.864 16.5864 273.864 17.5181C273.864 18.4499 274.052 19.2999 274.428 20.0681C274.821 20.8201 275.368 21.4167 276.071 21.858C276.79 22.2994 277.624 22.52 278.572 22.52C279.52 22.52 280.346 22.2994 281.049 21.858C281.768 21.4167 282.315 20.8201 282.691 20.0681C283.084 19.2999 283.28 18.4499 283.28 17.5181C283.28 16.5864 283.084 15.7446 282.691 14.9927C282.315 14.2407 281.768 13.6523 281.049 13.2273C280.346 12.8023 279.52 12.5898 278.572 12.5898ZM42.5207 51.6181C42.014 52.3537 41.3356 52.8931 40.4856 53.2364C39.6356 53.5633 38.7284 53.7268 37.764 53.7268C36.1784 53.7268 34.8871 53.3426 33.89 52.5744C32.9092 51.8061 32.4188 50.7354 32.4188 49.3624C32.4188 48.447 32.6804 47.646 33.2034 46.9595C33.7265 46.2729 34.4294 45.7417 35.3121 45.3657C36.2111 44.9898 37.2082 44.8018 38.3034 44.8018C39.6438 44.8018 41.0251 44.9979 42.4472 45.3903C42.4799 44.0826 42.1938 43.11 41.589 42.4725C40.9842 41.8186 40.0198 41.4917 38.6957 41.4917C37.9275 41.4917 37.1265 41.598 36.2929 41.8105C35.4592 42.0066 34.7155 42.26 34.0616 42.5705L33.3996 40.658C35.2304 39.759 37.0938 39.3095 38.99 39.3095C42.9457 39.3095 44.9236 41.3691 44.9236 45.4883V53.5061H42.5207V51.6181ZM38.3034 51.7898C38.9736 51.7898 39.6275 51.6753 40.265 51.4465C40.9025 51.2176 41.4255 50.858 41.8342 50.3676C42.2428 49.8773 42.4472 49.2643 42.4472 48.5287V47.1802C41.2049 46.7878 39.9707 46.5917 38.7448 46.5917C37.6496 46.5917 36.7424 46.8287 36.0231 47.3027C35.3039 47.7768 34.9443 48.4143 34.9443 49.2152C34.9443 50.0489 35.2549 50.6864 35.876 51.1277C36.5135 51.5691 37.3227 51.7898 38.3034 51.7898ZM51.3693 42.8403C52.5462 40.5845 54.3361 39.4566 56.739 39.4566V42.1292H56.3957C55.5294 42.1292 54.7121 42.3172 53.9438 42.6931C53.1919 43.0691 52.5707 43.6984 52.0803 44.5811C51.6063 45.4475 51.3693 46.5753 51.3693 47.9648V53.5061H48.8928V39.6037H51.3693V42.8403ZM62.2401 42.8403C63.417 40.5845 65.2069 39.4566 67.6098 39.4566V42.1292H67.2665C66.4002 42.1292 65.5829 42.3172 64.8146 42.6931C64.0627 43.0691 63.4415 43.6984 62.9512 44.5811C62.4771 45.4475 62.2401 46.5753 62.2401 47.9648V53.5061H59.7637V39.6037H62.2401V42.8403ZM73.7239 36.1956C73.7239 36.6206 73.5686 36.9802 73.258 37.2744C72.9638 37.5686 72.6042 37.7157 72.1792 37.7157C71.7378 37.7157 71.3619 37.5686 71.0513 37.2744C70.7407 36.9802 70.5854 36.6206 70.5854 36.1956C70.5854 35.8032 70.7407 35.46 71.0513 35.1658C71.3619 34.8715 71.7378 34.7244 72.1792 34.7244C72.6042 34.7244 72.9638 34.8715 73.258 35.1658C73.5686 35.4436 73.7239 35.7869 73.7239 36.1956ZM70.9042 39.6037H73.3806V53.5061H70.9042V39.6037ZM78.8471 39.6037L83.285 50.3676L87.7475 39.6037H90.4692L84.5355 53.5061H82.0346L76.1009 39.6037H78.8471ZM99.1622 53.7758C97.6093 53.7758 96.2689 53.4816 95.141 52.8931C94.0131 52.3047 93.1468 51.471 92.542 50.3922C91.9535 49.3133 91.6593 48.0465 91.6593 46.5917C91.6593 45.0388 91.9862 43.7148 92.6401 42.6196C93.3103 41.5244 94.1684 40.7071 95.2146 40.1677C96.2607 39.6119 97.3723 39.334 98.5492 39.334C99.8896 39.334 101.075 39.6201 102.104 40.1922C103.151 40.748 103.96 41.5816 104.532 42.6931C105.12 43.7883 105.415 45.1287 105.415 46.7143C105.415 47.0085 105.398 47.3845 105.366 47.8422H94.2093C94.3401 48.8883 94.8304 49.7792 95.6804 50.5148C96.5468 51.2503 97.7237 51.6181 99.2112 51.6181C100.012 51.6181 100.764 51.4874 101.467 51.2258C102.17 50.9479 102.75 50.621 103.208 50.2451L104.556 51.6426C104.001 52.2311 103.249 52.7378 102.301 53.1628C101.369 53.5715 100.323 53.7758 99.1622 53.7758ZM98.5492 41.6388C97.6828 41.6388 96.9146 41.835 96.2444 42.2273C95.5905 42.6032 95.0838 43.1181 94.7242 43.772C94.3809 44.4095 94.2093 45.096 94.2093 45.8316H102.816C102.816 45.0797 102.644 44.385 102.301 43.7475C101.974 43.11 101.483 42.6032 100.829 42.2273C100.192 41.835 99.4319 41.6388 98.5492 41.6388ZM125.273 51.6181C124.766 52.3537 124.088 52.8931 123.238 53.2364C122.388 53.5633 121.481 53.7268 120.516 53.7268C118.931 53.7268 117.639 53.3426 116.642 52.5744C115.661 51.8061 115.171 50.7354 115.171 49.3624C115.171 48.447 115.433 47.646 115.956 46.9595C116.479 46.2729 117.182 45.7417 118.064 45.3657C118.963 44.9898 119.961 44.8018 121.056 44.8018C122.396 44.8018 123.777 44.9979 125.199 45.3903C125.232 44.0826 124.946 43.11 124.341 42.4725C123.736 41.8186 122.772 41.4917 121.448 41.4917C120.68 41.4917 119.879 41.598 119.045 41.8105C118.211 42.0066 117.468 42.26 116.814 42.5705L116.152 40.658C117.983 39.759 119.846 39.3095 121.742 39.3095C125.698 39.3095 127.676 41.3691 127.676 45.4883V53.5061H125.273V51.6181ZM121.056 51.7898C121.726 51.7898 122.38 51.6753 123.017 51.4465C123.655 51.2176 124.178 50.858 124.586 50.3676C124.995 49.8773 125.199 49.2643 125.199 48.5287V47.1802C123.957 46.7878 122.723 46.5917 121.497 46.5917C120.402 46.5917 119.495 46.8287 118.775 47.3027C118.056 47.7768 117.697 48.4143 117.697 49.2152C117.697 50.0489 118.007 50.6864 118.628 51.1277C119.266 51.5691 120.075 51.7898 121.056 51.7898ZM134.857 49.8037C134.857 50.4085 135.012 50.8662 135.323 51.1768C135.634 51.471 136.05 51.6181 136.573 51.6181C137.146 51.6181 137.652 51.5037 138.094 51.2749L138.609 53.1628C138.314 53.3263 137.938 53.4652 137.481 53.5797C137.023 53.7104 136.516 53.7758 135.96 53.7758C134.849 53.7758 133.974 53.4898 133.337 52.9176C132.699 52.3292 132.381 51.5037 132.381 50.4412V41.835H130.836V41.1239L134.735 36.8576H134.857V39.6037H138.143V41.835H134.857V49.8037ZM161.879 39.6037L155.627 54.5359C154.973 56.1215 154.229 57.2412 153.396 57.895C152.562 58.5489 151.499 58.8758 150.208 58.8758C149.636 58.8758 149.105 58.8186 148.614 58.7042C148.14 58.5897 147.642 58.4099 147.119 58.1647L147.879 56.1542C148.287 56.3176 148.639 56.4402 148.933 56.522C149.244 56.62 149.587 56.6691 149.963 56.6691C150.797 56.6691 151.467 56.4239 151.973 55.9335C152.497 55.4595 153.003 54.6095 153.494 53.3835L153.518 53.31L147.413 39.6037H150.233L154.744 50.2941L159.133 39.6037H161.879ZM170.463 53.7758C169.057 53.7758 167.806 53.4571 166.711 52.8196C165.616 52.1657 164.758 51.2912 164.137 50.196C163.532 49.0845 163.229 47.8585 163.229 46.5181C163.229 45.1941 163.532 43.9845 164.137 42.8893C164.758 41.7941 165.616 40.9278 166.711 40.2903C167.806 39.6528 169.057 39.334 170.463 39.334C171.868 39.334 173.119 39.6528 174.214 40.2903C175.309 40.9278 176.159 41.7941 176.764 42.8893C177.385 43.9845 177.696 45.1941 177.696 46.5181C177.696 47.8585 177.385 49.0845 176.764 50.196C176.159 51.2912 175.309 52.1657 174.214 52.8196C173.119 53.4571 171.868 53.7758 170.463 53.7758ZM170.463 41.5898C169.515 41.5898 168.681 41.8023 167.962 42.2273C167.259 42.6523 166.711 43.2407 166.319 43.9927C165.943 44.7446 165.755 45.5864 165.755 46.5181C165.755 47.4499 165.943 48.2999 166.319 49.0681C166.711 49.8201 167.259 50.4167 167.962 50.858C168.681 51.2994 169.515 51.52 170.463 51.52C171.411 51.52 172.236 51.2994 172.939 50.858C173.658 50.4167 174.206 49.8201 174.582 49.0681C174.974 48.2999 175.17 47.4499 175.17 46.5181C175.17 45.5864 174.974 44.7446 174.582 43.9927C174.206 43.2407 173.658 42.6523 172.939 42.2273C172.236 41.8023 171.411 41.5898 170.463 41.5898ZM193.821 39.6037V53.5061H191.344V51.1277C190.723 51.8633 189.971 52.4845 189.088 52.9912C188.206 53.4979 187.217 53.7513 186.122 53.7513C185.092 53.7513 184.176 53.5143 183.375 53.0402C182.591 52.5662 181.978 51.8878 181.536 51.0051C181.095 50.1225 180.874 49.0926 180.874 47.9157V39.6037H183.326V47.4008C183.326 48.7412 183.653 49.7628 184.307 50.4657C184.961 51.1523 185.86 51.4955 187.004 51.4955C187.822 51.4955 188.557 51.3157 189.211 50.9561C189.881 50.5965 190.404 50.1061 190.78 49.485C191.156 48.8475 191.344 48.1446 191.344 47.3763V39.6037H193.821ZM200.472 42.8403C201.649 40.5845 203.439 39.4566 205.842 39.4566V42.1292H205.498C204.632 42.1292 203.815 42.3172 203.046 42.6931C202.294 43.0691 201.673 43.6984 201.183 44.5811C200.709 45.4475 200.472 46.5753 200.472 47.9648V53.5061H197.995V39.6037H200.472V42.8403ZM46.3948 63.4792V82.5061H43.9183V80.422C42.8558 81.9912 41.1885 82.7758 38.9164 82.7758C37.7068 82.7758 36.6116 82.4816 35.6308 81.8931C34.6664 81.2883 33.8982 80.4383 33.326 79.3431C32.7703 78.2479 32.4924 76.9811 32.4924 75.5427C32.4924 74.1042 32.7703 72.8374 33.326 71.7422C33.8982 70.647 34.6664 69.8052 35.6308 69.2167C36.6116 68.6282 37.7068 68.334 38.9164 68.334C41.1885 68.334 42.8558 69.1186 43.9183 70.6879V63.4792H46.3948ZM39.6029 80.4955C40.5183 80.4955 41.3029 80.2749 41.9568 79.8335C42.6106 79.3922 43.101 78.8037 43.4279 78.0681C43.7712 77.3162 43.9428 76.4826 43.9428 75.5672C43.9428 74.1287 43.5587 72.9436 42.7904 72.0119C42.0222 71.0802 40.9597 70.6143 39.6029 70.6143C38.6876 70.6143 37.8784 70.835 37.1755 71.2763C36.489 71.7177 35.9578 72.3143 35.5818 73.0662C35.2058 73.8181 35.0179 74.6518 35.0179 75.5672C35.0179 76.4662 35.2058 77.2917 35.5818 78.0436C35.9578 78.7955 36.489 79.3922 37.1755 79.8335C37.8784 80.2749 38.6876 80.4955 39.6029 80.4955ZM57.1156 82.7758C55.5627 82.7758 54.2223 82.4816 53.0944 81.8931C51.9666 81.3047 51.1002 80.471 50.4954 79.3922C49.9069 78.3133 49.6127 77.0465 49.6127 75.5917C49.6127 74.0388 49.9396 72.7148 50.5935 71.6196C51.2637 70.5244 52.1218 69.7071 53.168 69.1677C54.2142 68.6119 55.3257 68.334 56.5026 68.334C57.843 68.334 59.0281 68.6201 60.0579 69.1922C61.104 69.748 61.9132 70.5816 62.4853 71.6931C63.0738 72.7883 63.368 74.1287 63.368 75.7143C63.368 76.0085 63.3516 76.3845 63.3189 76.8422H52.1627C52.2935 77.8883 52.7839 78.7792 53.6339 79.5148C54.5002 80.2503 55.6771 80.6181 57.1646 80.6181C57.9656 80.6181 58.7175 80.4874 59.4204 80.2258C60.1233 79.9479 60.7036 79.621 61.1613 79.2451L62.5098 80.6426C61.954 81.2311 61.2021 81.7378 60.254 82.1628C59.3223 82.5715 58.2762 82.7758 57.1156 82.7758ZM56.5026 70.6388C55.6363 70.6388 54.868 70.835 54.1978 71.2273C53.544 71.6032 53.0372 72.1181 52.6776 72.772C52.3343 73.4095 52.1627 74.096 52.1627 74.8316H60.7689C60.7689 74.0797 60.5973 73.385 60.254 72.7475C59.9271 72.11 59.4367 71.6032 58.7829 71.2273C58.1454 70.835 57.3853 70.6388 56.5026 70.6388ZM71.3936 82.8739C69.0234 82.8739 67.0782 82.2936 65.558 81.133L66.5388 79.3922C67.1273 79.8172 67.8547 80.1604 68.721 80.422C69.6037 80.6835 70.4619 80.8143 71.2955 80.8143C72.2436 80.8143 72.9628 80.6753 73.4532 80.3975C73.9599 80.1032 74.2133 79.6292 74.2133 78.9753C74.2133 78.485 74.058 78.1008 73.7474 77.8229C73.4369 77.5287 73.0446 77.308 72.5705 77.1609C72.1128 76.9975 71.4672 76.8258 70.6335 76.646C69.5547 76.4172 68.6802 76.1802 68.01 75.935C67.3398 75.6734 66.7677 75.2729 66.2936 74.7335C65.8196 74.1778 65.5826 73.4258 65.5826 72.4778C65.5826 71.5624 65.8278 70.7941 66.3181 70.173C66.8249 69.5518 67.4787 69.1023 68.2797 68.8244C69.0806 68.5302 69.9306 68.3831 70.8297 68.3831C71.7941 68.3831 72.7013 68.5138 73.5513 68.7754C74.4013 69.0205 75.1287 69.3556 75.7335 69.7806L74.8508 71.5705C74.2624 71.2109 73.6085 70.933 72.8893 70.7369C72.1864 70.5407 71.4835 70.4427 70.7806 70.4427C70.0941 70.4427 69.4566 70.5898 68.8681 70.884C68.296 71.1619 68.01 71.6359 68.01 72.3061C68.01 72.7475 68.1571 73.1071 68.4513 73.385C68.7455 73.6465 69.1051 73.8427 69.5301 73.9734C69.9715 74.1042 70.6008 74.2595 71.4181 74.4393C72.5133 74.6681 73.4042 74.9133 74.0907 75.1749C74.7936 75.4364 75.3902 75.8532 75.8806 76.4253C76.371 76.9975 76.6162 77.7902 76.6162 78.8037C76.6162 80.1114 76.134 81.1167 75.1696 81.8196C74.2215 82.5224 72.9628 82.8739 71.3936 82.8739ZM83.113 78.8037C83.113 79.4085 83.2683 79.8662 83.5789 80.1768C83.8895 80.471 84.3063 80.6181 84.8294 80.6181C85.4015 80.6181 85.9082 80.5037 86.3495 80.2749L86.8644 82.1628C86.5702 82.3263 86.1943 82.4652 85.7366 82.5797C85.2789 82.7104 84.7721 82.7758 84.2164 82.7758C83.1048 82.7758 82.2303 82.4898 81.5928 81.9176C80.9553 81.3292 80.6366 80.5037 80.6366 79.4412V70.835H79.0919V70.1239L82.9904 65.8576H83.113V68.6037H86.3986V70.835H83.113V78.8037ZM92.7119 65.1956C92.7119 65.6206 92.5566 65.9802 92.246 66.2744C91.9518 66.5686 91.5922 66.7157 91.1672 66.7157C90.7258 66.7157 90.3499 66.5686 90.0393 66.2744C89.7287 65.9802 89.5734 65.6206 89.5734 65.1956C89.5734 64.8032 89.7287 64.46 90.0393 64.1658C90.3499 63.8715 90.7258 63.7244 91.1672 63.7244C91.5922 63.7244 91.9518 63.8715 92.246 64.1658C92.5566 64.4436 92.7119 64.7869 92.7119 65.1956ZM89.8922 68.6037H92.3686V82.5061H89.8922V68.6037ZM104.504 68.3585C105.55 68.3585 106.466 68.5956 107.25 69.0696C108.051 69.5436 108.673 70.222 109.114 71.1047C109.555 71.971 109.776 72.9927 109.776 74.1696V82.5061H107.324V74.709C107.324 73.385 106.989 72.3715 106.319 71.6686C105.665 70.9657 104.774 70.6143 103.646 70.6143C102.829 70.6143 102.085 70.7941 101.415 71.1537C100.761 71.5133 100.246 72.0119 99.8702 72.6494C99.4942 73.2705 99.3062 73.9653 99.3062 74.7335V82.5061H96.8298V68.6037H99.3062V70.933C99.9274 70.1975 100.671 69.5845 101.537 69.0941C102.42 68.6037 103.409 68.3585 104.504 68.3585ZM122.831 80.6181C122.324 81.3537 121.646 81.8931 120.796 82.2364C119.946 82.5633 119.038 82.7268 118.074 82.7268C116.488 82.7268 115.197 82.3426 114.2 81.5744C113.219 80.8061 112.729 79.7354 112.729 78.3624C112.729 77.447 112.99 76.646 113.513 75.9595C114.036 75.2729 114.739 74.7417 115.622 74.3657C116.521 73.9898 117.518 73.8018 118.613 73.8018C119.954 73.8018 121.335 73.9979 122.757 74.3903C122.79 73.0826 122.504 72.11 121.899 71.4725C121.294 70.8186 120.33 70.4917 119.006 70.4917C118.237 70.4917 117.436 70.598 116.603 70.8105C115.769 71.0066 115.025 71.26 114.372 71.5705L113.71 69.658C115.54 68.759 117.404 68.3095 119.3 68.3095C123.256 68.3095 125.234 70.3691 125.234 74.4883V82.5061H122.831V80.6181ZM118.613 80.7898C119.284 80.7898 119.937 80.6753 120.575 80.4465C121.212 80.2176 121.735 79.858 122.144 79.3676C122.553 78.8773 122.757 78.2643 122.757 77.5287V76.1802C121.515 75.7878 120.281 75.5917 119.055 75.5917C117.96 75.5917 117.052 75.8287 116.333 76.3027C115.614 76.7768 115.254 77.4143 115.254 78.2152C115.254 79.0489 115.565 79.6864 116.186 80.1277C116.823 80.5691 117.633 80.7898 118.613 80.7898ZM132.415 78.8037C132.415 79.4085 132.57 79.8662 132.881 80.1768C133.191 80.471 133.608 80.6181 134.131 80.6181C134.703 80.6181 135.21 80.5037 135.651 80.2749L136.166 82.1628C135.872 82.3263 135.496 82.4652 135.038 82.5797C134.581 82.7104 134.074 82.7758 133.518 82.7758C132.407 82.7758 131.532 82.4898 130.895 81.9176C130.257 81.3292 129.938 80.5037 129.938 79.4412V70.835H128.394V70.1239L132.292 65.8576H132.415V68.6037H135.7V70.835H132.415V78.8037ZM142.014 65.1956C142.014 65.6206 141.858 65.9802 141.548 66.2744C141.254 66.5686 140.894 66.7157 140.469 66.7157C140.028 66.7157 139.652 66.5686 139.341 66.2744C139.03 65.9802 138.875 65.6206 138.875 65.1956C138.875 64.8032 139.03 64.46 139.341 64.1658C139.652 63.8715 140.028 63.7244 140.469 63.7244C140.894 63.7244 141.254 63.8715 141.548 64.1658C141.858 64.4436 142.014 64.7869 142.014 65.1956ZM139.194 68.6037H141.67V82.5061H139.194V68.6037ZM152.408 82.7758C151.003 82.7758 149.752 82.4571 148.657 81.8196C147.562 81.1657 146.704 80.2912 146.083 79.196C145.478 78.0845 145.175 76.8585 145.175 75.5181C145.175 74.1941 145.478 72.9845 146.083 71.8893C146.704 70.7941 147.562 69.9278 148.657 69.2903C149.752 68.6528 151.003 68.334 152.408 68.334C153.814 68.334 155.065 68.6528 156.16 69.2903C157.255 69.9278 158.105 70.7941 158.71 71.8893C159.331 72.9845 159.642 74.1941 159.642 75.5181C159.642 76.8585 159.331 78.0845 158.71 79.196C158.105 80.2912 157.255 81.1657 156.16 81.8196C155.065 82.4571 153.814 82.7758 152.408 82.7758ZM152.408 70.5898C151.46 70.5898 150.627 70.8023 149.907 71.2273C149.205 71.6523 148.657 72.2407 148.265 72.9927C147.889 73.7446 147.701 74.5864 147.701 75.5181C147.701 76.4499 147.889 77.2999 148.265 78.0681C148.657 78.8201 149.205 79.4167 149.907 79.858C150.627 80.2994 151.46 80.52 152.408 80.52C153.357 80.52 154.182 80.2994 154.885 79.858C155.604 79.4167 156.152 78.8201 156.528 78.0681C156.92 77.2999 157.116 76.4499 157.116 75.5181C157.116 74.5864 156.92 73.7446 156.528 72.9927C156.152 72.2407 155.604 71.6523 154.885 71.2273C154.182 70.8023 153.357 70.5898 152.408 70.5898ZM170.519 68.3585C171.565 68.3585 172.481 68.5956 173.265 69.0696C174.066 69.5436 174.688 70.222 175.129 71.1047C175.57 71.971 175.791 72.9927 175.791 74.1696V82.5061H173.339V74.709C173.339 73.385 173.004 72.3715 172.334 71.6686C171.68 70.9657 170.789 70.6143 169.661 70.6143C168.844 70.6143 168.1 70.7941 167.43 71.1537C166.776 71.5133 166.261 72.0119 165.885 72.6494C165.509 73.2705 165.321 73.9653 165.321 74.7335V82.5061H162.845V68.6037H165.321V70.933C165.942 70.1975 166.686 69.5845 167.552 69.0941C168.435 68.6037 169.424 68.3585 170.519 68.3585Z" fill="#22181C"/>
<path d="M68.0701 293.16C65.6718 293.462 64.2196 291.685 62.4529 290.668C62.1941 290.518 61.9917 289.838 62.0899 289.509C62.6707 287.567 63.2459 285.608 64.0308 283.751C64.5012 282.637 65.4754 282.484 66.4958 283.236C67.1633 283.728 67.8794 284.147 68.5662 284.612C70.7783 286.107 71.0404 287.007 69.9221 289.474C69.3748 290.681 68.7624 291.857 68.0701 293.16ZM65.1189 286.206C64.7491 287.341 64.3792 288.475 64.0094 289.609C65.0887 289.863 66.521 290.671 67.1574 290.23C67.942 289.686 68.586 287.947 68.3303 287.01C68.0558 286.004 66.8161 284.813 65.1189 286.206Z" fill="#FFB61D"/>
<path d="M308.158 203.818C305.76 204.12 304.308 202.343 302.541 201.325C302.282 201.176 302.08 200.496 302.178 200.167C302.759 198.224 303.334 196.266 304.119 194.409C304.589 193.295 305.563 193.142 306.584 193.894C307.251 194.385 307.967 194.805 308.654 195.27C310.866 196.765 311.128 197.665 310.01 200.132C309.463 201.339 308.85 202.514 308.158 203.818ZM305.207 196.864C304.837 197.999 304.467 199.133 304.097 200.267C305.177 200.521 306.609 201.329 307.245 200.887C308.03 200.343 308.674 198.605 308.418 197.668C308.144 196.661 306.904 195.471 305.207 196.864Z" fill="#FFB61D"/>
<path d="M136.39 433.651C102.45 432.11 61.42 358.961 99.0899 333.547C136.76 308.132 125.628 234.708 125.628 234.708C130.281 204.719 133.484 175.273 166.323 160.299C184.303 152.1 210.346 164.876 226.269 158.033C262.936 142.275 272.978 136.582 287.795 159.988C330.79 227.904 263.09 281.545 278.078 337.052C286.153 366.957 296.159 396.705 285.442 418.961C274.725 441.217 270.131 429.552 240.303 437.483C225.416 441.441 209.011 450.103 191.42 451.145C173.829 452.186 178.776 444.212 163.154 437.38C153.374 433.102 144.348 442.022 136.39 433.651Z" fill="url(#paint0_linear_163_7157)"/>
<path fill-rule="evenodd" clip-rule="evenodd" d="M166.853 394.449C163.727 392.836 161.176 389.456 160.779 385.905C160.397 382.494 162.739 378.732 164.478 375.96C164.899 375.287 165.358 374.653 165.816 374.021C166.526 373.039 167.233 372.062 167.792 370.953C167.901 370.736 168.013 370.511 168.128 370.279C168.826 368.874 169.625 367.265 170.552 366.115C171.696 364.696 172.681 363.222 173.684 361.72L173.687 361.716L173.693 361.707C173.863 361.453 174.034 361.197 174.206 360.941C174.667 360.254 175.182 359.591 175.697 358.928C176.483 357.917 177.27 356.903 177.871 355.8C178.731 354.221 180.062 352.615 181.23 351.253C182.029 350.323 182.695 349.312 183.361 348.3C183.941 347.419 184.521 346.537 185.19 345.708C185.915 344.809 186.495 343.81 187.074 342.812C187.502 342.076 187.929 341.34 188.413 340.646C189.358 339.292 190.377 337.353 190.744 335.752C190.903 335.055 191.137 334.409 191.37 333.769C191.712 332.825 192.05 331.893 192.135 330.835C192.294 328.868 192.137 327.517 191.422 325.694C191.316 325.424 191.228 325.139 191.14 324.853C190.993 324.379 190.845 323.9 190.612 323.471C190.488 322.943 190.129 323.253 189.606 323.704C188.517 324.643 186.719 326.195 184.86 322.044C184.44 321.21 184.206 320.22 183.983 319.284C183.929 319.055 183.876 318.829 183.82 318.61C183.24 316.305 183.237 313.573 183.788 311.264C183.976 310.477 184.11 309.658 184.243 308.844C184.312 308.425 184.38 308.007 184.456 307.595C184.654 306.516 184.97 304.218 184.86 303.121C184.374 300.348 182.647 296.402 180.828 292.244C178.904 287.845 176.875 283.208 176.1 279.469C175.433 276.952 174.399 274.876 173.224 272.545C170.221 271.338 167.177 270.321 164.108 269.306C160.194 268.011 157.424 265.945 154.992 262.593C153.077 259.953 151.711 256.53 150.991 253.385C150.744 252.311 150.651 251.232 150.558 250.152C150.493 249.411 150.429 248.668 150.315 247.925C150.132 246.732 150.507 245.271 150.852 243.929C150.991 243.389 151.125 242.868 151.216 242.391C151.828 239.168 153.644 236.255 155.39 233.453C155.787 232.817 156.18 232.186 156.555 231.558C158.079 229.007 160.28 226.691 162.408 224.453C163.104 223.721 163.792 222.997 164.446 222.276C164.814 221.87 165.123 221.418 165.432 220.965C165.724 220.539 166.016 220.111 166.359 219.72C166.928 219.071 167.525 218.507 168.129 217.935C168.434 217.646 168.741 217.356 169.047 217.052C169.786 216.319 170.448 215.519 171.111 214.718C171.818 213.863 172.525 213.009 173.324 212.237C175.089 210.534 183.359 198.889 184.777 194.847C185.433 193.401 186.141 191.969 186.848 190.538C187.701 188.814 188.554 187.09 189.315 185.341C189.611 184.661 190.032 184.042 190.453 183.423C190.941 182.706 191.429 181.988 191.722 181.175C192.1 180.13 192.666 179.176 193.231 178.223C193.572 177.648 193.913 177.073 194.213 176.478C196.032 172.867 198.447 169.518 200.993 166.359C203.466 163.292 207.576 161.099 211.355 160.161C212.468 159.885 212.913 159.894 213.853 159.913C214.137 159.919 214.465 159.926 214.871 159.926C217.103 159.447 218.274 159.813 219.311 160.138C219.668 160.25 220.01 160.357 220.373 160.422C221.789 160.678 223.437 161.557 224.624 162.407C227.059 164.152 231.513 169.935 230.877 176.801C230.422 181.704 226.451 193.844 225.375 196.407C225.083 197.103 224.926 198.22 224.786 199.223C224.712 199.747 224.643 200.241 224.561 200.626C224.393 201.421 224.215 202.547 224.124 203.356C223.921 205.168 224.134 206.294 224.561 208.086C224.642 208.423 224.726 208.76 224.81 209.098L224.81 209.1C224.942 209.628 225.073 210.157 225.192 210.687C225.326 211.284 225.676 211.936 226 212.537L226 212.538C226.103 212.729 226.203 212.915 226.292 213.093C226.324 213.156 226.357 213.221 226.39 213.287C226.413 213.334 226.436 213.381 226.46 213.429L226.517 213.545C227.237 214.996 228.142 216.824 229.509 217.599C230.092 217.743 230.533 217.898 230.98 218.054C231.4 218.201 231.825 218.35 232.377 218.494L232.634 218.561C233.63 218.82 234.601 219.072 235.514 219.533C238.319 220.951 240.376 223.226 242.073 225.816C242.376 226.279 242.633 226.841 242.84 227.357C243.117 228.042 243.397 228.426 243.916 228.96C243.984 229.03 244.055 229.101 244.127 229.173C244.558 229.603 245.026 230.071 245.173 230.664C245.286 231.123 245.48 231.46 245.695 231.834L245.696 231.835L245.697 231.836C245.749 231.926 245.802 232.018 245.855 232.115C245.989 232.357 246.054 232.596 246.118 232.833C246.203 233.145 246.286 233.453 246.526 233.757C246.888 234.216 246.991 234.685 247.111 235.225C247.12 235.27 247.13 235.315 247.141 235.36C247.256 235.877 247.431 236.388 247.605 236.901C247.764 237.366 247.923 237.834 248.039 238.307C248.179 238.876 248.442 239.394 248.705 239.91C248.978 240.447 249.251 240.983 249.383 241.575C249.437 241.812 250.039 243.2 250.463 242.664C250.691 242.376 250.79 241.902 250.881 241.463C250.927 241.238 250.972 241.023 251.031 240.847C251.099 240.647 251.198 240.456 251.296 240.265C251.451 239.966 251.605 239.668 251.634 239.341C251.803 238.643 252.053 238.118 252.297 237.606C252.414 237.36 252.53 237.117 252.635 236.859C252.9 236.204 253.084 235.793 253.366 235.163L253.385 235.122C253.7 234.419 254.072 233.698 254.436 232.992C254.589 232.697 254.74 232.403 254.885 232.115C255.012 231.863 255.144 231.598 255.278 231.328L255.278 231.328C255.64 230.601 256.02 229.835 256.386 229.166C256.676 228.634 256.983 228.144 257.293 227.649C257.491 227.333 257.69 227.015 257.886 226.684C258.09 226.341 258.195 225.88 258.291 225.454C258.321 225.323 258.35 225.196 258.381 225.076C258.544 224.836 258.614 224.631 258.681 224.438C258.719 224.328 258.756 224.222 258.808 224.115C259.166 223.377 259.483 222.643 259.797 221.886C260.396 220.443 261.116 219.097 261.853 217.72C261.936 217.565 262.019 217.41 262.102 217.254C262.184 217.1 262.269 216.954 262.353 216.81C262.596 216.391 262.829 215.99 262.944 215.487C262.988 215.298 263.014 215.109 263.039 214.923C263.099 214.491 263.156 214.075 263.42 213.719C262.567 213.855 261.309 213.799 260.445 213.714C259.754 213.645 255.804 213.192 255.135 213.035C255.014 213.006 254.907 212.995 254.812 212.986C254.688 212.973 254.585 212.963 254.501 212.918C254.1 212.703 254.125 211.703 254.273 205.921C254.329 203.707 254.403 200.793 254.478 196.955C254.942 196.399 255.634 196.252 256.306 196.109C256.475 196.073 256.643 196.037 256.805 195.996C257.724 195.759 258.008 195.81 258.433 195.887C258.706 195.936 259.039 195.996 259.637 195.996C260.067 195.996 260.515 196.037 260.961 196.078C261.36 196.115 261.757 196.152 262.138 196.159C262.908 196.173 265.067 197.315 265.389 197.896L276.041 198.889C277.452 199.169 280.895 202.363 279.374 207.511C279.106 208.169 278.69 208.724 278.246 209.275C277.97 209.617 277.641 209.897 277.311 210.178C277.071 210.382 276.831 210.587 276.612 210.815C276.259 211.181 275.968 211.592 275.677 212.004C275.516 212.233 275.354 212.462 275.182 212.683C274.142 214.524 269.842 219.978 269.141 220.728C268.872 221.276 267.879 222.945 266.995 224.433L266.994 224.434L266.994 224.434C266.225 225.727 265.538 226.882 265.478 227.046C265.248 227.675 264.852 228.284 264.472 228.868C264.344 229.064 264.218 229.258 264.1 229.45C264.051 229.53 263.998 229.612 263.944 229.696L263.944 229.697C263.661 230.138 263.349 230.624 263.326 231.138C263.308 231.542 263.201 231.973 263.083 232.358C262.909 232.922 262.656 233.458 262.403 233.994C262.116 234.6 261.83 235.207 261.657 235.856C261.529 236.334 261.315 236.76 261.098 237.191L261.098 237.191C260.986 237.414 260.873 237.638 260.771 237.871C260.561 238.353 260.434 238.85 260.306 239.352C260.274 239.475 260.243 239.599 260.21 239.722C260.087 240.184 259.935 240.646 259.783 241.106L259.783 241.107C259.688 241.396 259.592 241.685 259.505 241.974C259.397 242.327 259.33 242.684 259.262 243.041C259.205 243.345 259.147 243.649 259.065 243.951C258.544 245.86 258.12 247.828 257.793 249.779C257.551 251.217 257.422 252.668 257.293 254.118C257.133 255.914 256.973 257.709 256.6 259.479C256.417 260.345 256.196 261.186 255.937 262.03C255.829 262.382 255.668 262.591 255.474 262.843C255.416 262.919 255.354 262.998 255.291 263.087C255.177 263.244 255.075 263.407 254.973 263.569C254.712 263.985 254.456 264.393 254.029 264.681C253.99 264.707 253.954 264.732 253.919 264.756C253.875 264.786 253.834 264.815 253.795 264.843C253.519 265.038 253.332 265.169 252.927 265.296C252.777 265.343 252.628 265.395 252.478 265.448C252.184 265.551 251.889 265.655 251.586 265.717C251.17 265.802 250.721 265.789 250.288 265.777L250.286 265.777C250.179 265.774 250.073 265.771 249.969 265.769C248.057 265.43 246.124 262.253 245.414 261.086C245.349 260.98 245.295 260.891 245.251 260.822C244.772 260.057 244.377 259.238 243.981 258.417C243.451 257.318 242.92 256.217 242.185 255.245C241.31 254.088 240.625 252.803 239.939 251.517C239.195 250.122 238.451 248.727 237.465 247.493C236.566 246.368 235.82 244.824 235.078 243.288C234.382 241.848 233.689 240.415 232.877 239.341C231.721 240.35 231.037 242.982 230.818 244.475C230.652 245.612 230.384 246.655 229.944 247.726C229.426 248.988 229.068 250.4 228.74 251.718C228.586 252.337 228.376 252.949 228.166 253.56C228.017 253.993 227.868 254.426 227.739 254.861C227.596 255.345 227.486 255.833 227.376 256.322C227.256 256.855 227.136 257.388 226.973 257.917C226.295 260.11 225.754 262.219 225.667 264.531C225.651 264.959 225.623 265.395 225.595 265.835C225.491 267.461 225.383 269.141 225.864 270.667C226.041 271.231 226.117 271.864 226.117 272.453C226.117 272.983 226.227 273.5 226.337 274.018C226.402 274.327 226.468 274.637 226.51 274.949C226.73 276.567 227.124 279.286 227.41 280.307C227.44 280.414 227.472 280.524 227.504 280.635C227.681 281.246 227.875 281.916 227.875 282.523C227.875 283.433 228.005 284.293 228.134 285.149C228.238 285.84 228.341 286.529 228.376 287.238C228.539 288.064 228.643 288.934 228.748 289.803C228.845 290.614 228.943 291.425 229.088 292.202C229.203 292.819 229.202 293.437 229.201 294.053C229.2 294.763 229.199 295.471 229.376 296.172C229.615 297.12 229.911 304.138 230.134 309.442C230.233 311.777 230.317 313.78 230.376 314.785C230.442 315.891 230.311 316.84 230.186 317.748C230.091 318.438 230 319.105 230 319.798V330.895C230 335.432 229.995 339.947 229.783 344.474C229.739 345.406 229.65 346.335 229.56 347.263C229.435 348.56 229.31 349.857 229.31 351.163C229.31 353.012 229.178 354.862 228.851 356.686C228.178 360.444 228.161 364.103 228.161 367.909C228.161 369.31 228.104 370.704 228.047 372.099C227.989 373.494 227.932 374.89 227.932 376.295L227.922 393.292C227.885 393.658 227.866 394.037 227.847 394.419C227.8 395.335 227.753 396.265 227.46 397.051C227.453 397.34 227.428 397.625 227.403 397.91C227.373 398.24 227.344 398.57 227.344 398.905C227.344 399.02 227.348 399.137 227.352 399.255C227.365 399.604 227.377 399.963 227.286 400.288C227.199 400.599 227.129 400.898 227.062 401.19C226.87 402.011 226.693 402.77 226.182 403.563C226.08 403.721 225.981 403.877 225.885 404.03C225.234 405.059 224.674 405.946 223.624 406.609C221.268 408.097 218.241 408.298 215.42 408.113C215.93 408.943 215.806 411.434 215.704 413.465C215.611 415.339 215.537 416.821 215.999 416.245C216.128 416.084 216.269 415.928 216.411 415.772L216.412 415.771C216.655 415.504 216.9 415.234 217.086 414.934C217.33 414.539 217.563 414.171 217.951 413.89C218.885 413.214 219.977 413.905 220.371 414.829C220.531 415.206 220.765 415.551 220.999 415.895C221.285 416.316 221.569 416.735 221.715 417.207C221.971 418.04 222.738 418.961 223.34 419.585C224.872 421.173 226.48 422.431 228.471 423.419C229.966 424.161 231.619 424.566 233.25 424.967C233.691 425.075 234.132 425.184 234.567 425.298C234.984 425.407 235.398 425.548 235.811 425.688L235.812 425.689C236.375 425.88 236.938 426.071 237.512 426.185C238.388 426.359 238.991 426.933 238.991 427.855C238.991 429.601 237.639 431.494 236.151 432.339C234.861 433.07 233.442 433.292 232.011 433.516L232.008 433.517C231.678 433.569 231.348 433.62 231.019 433.678C229.347 433.973 227.587 433.948 225.862 433.924C225.388 433.917 224.916 433.91 224.45 433.91C223.937 433.91 223.421 433.906 222.904 433.902C220.733 433.886 218.531 433.869 216.396 434.142C213.725 434.484 211.065 434.244 208.4 434.003C207.622 433.932 206.843 433.862 206.063 433.806C205.93 433.839 205.857 433.868 205.821 433.89C205.795 433.861 205.73 433.818 205.596 433.759C205.396 433.672 205.192 433.637 204.988 433.602C204.782 433.566 204.576 433.53 204.374 433.44L204.29 433.403C203.795 433.183 203.292 432.959 202.919 432.547C202.749 432.36 202.61 432.105 202.473 431.853C202.377 431.677 202.282 431.502 202.177 431.353C201.232 430.005 201.434 428.291 201.624 426.679C201.678 426.223 201.731 425.774 201.756 425.344C201.827 424.15 202.268 422.815 202.744 421.743C202.932 421.318 202.987 420.867 203.041 420.414C203.089 420.017 203.137 419.619 203.276 419.237C203.565 418.438 204.284 416.658 205.117 416.245C207.49 417.788 207.089 413.391 206.829 410.547C206.705 409.194 206.614 408.192 206.868 408.346C208.118 407.85 210.164 407.281 211.119 407.85C211.528 407.85 211.977 407.855 212.437 407.861C212.627 407.863 212.82 407.865 213.011 407.867C212.379 407.776 211.751 407.667 211.122 407.557C210.444 407.439 209.766 407.32 209.084 407.226C207.801 407.05 206.448 407.052 205.141 407.054H205.139C204.998 407.054 204.858 407.054 204.718 407.054C204.221 407.054 203.751 407.098 203.269 407.142L203.268 407.142C203.147 407.153 203.024 407.165 202.901 407.175C202.806 407.184 202.651 407.261 202.483 407.345C202.127 407.524 201.712 407.731 201.687 407.373C201.621 406.427 201.643 405.409 201.666 404.415C201.676 403.927 201.687 403.444 201.687 402.979C201.687 399.709 201.687 396.397 201.315 393.152C201.062 390.953 200.818 388.788 200.641 386.589C200.448 384.194 200.231 381.769 199.722 379.415C198.12 380.324 196.944 381.29 195.767 382.68C195.223 383.323 194.655 383.954 194.086 384.586C193.157 385.617 192.226 386.652 191.392 387.746C188.951 390.947 186.468 393.815 183.328 396.365C183.064 396.58 182.784 396.82 182.491 397.071C181.197 398.181 179.652 399.507 178.116 399.771C177.124 399.941 175.802 399.832 174.667 399.546C173.563 400.499 172.475 401.469 171.388 402.436L171.384 402.44C170.777 402.98 170.171 403.519 169.564 404.055C169.51 404.103 169.418 404.175 169.303 404.266C168.619 404.809 167.115 406 167.895 406.409C168.384 406.666 168.992 406.692 169.589 406.717C169.967 406.733 170.341 406.749 170.677 406.823C171.654 407.039 171.934 407.896 172.207 408.729C172.271 408.926 172.335 409.122 172.408 409.308C173.131 411.152 172.62 413.124 172.144 414.962C172.095 415.152 172.046 415.341 171.999 415.528C171.733 416.584 171.512 417.885 171.512 418.971C171.512 419.767 171.887 420.565 172.244 421.324C172.381 421.615 172.515 421.9 172.625 422.177C173.147 423.5 173.822 424.75 174.499 426C174.945 426.824 175.391 427.649 175.793 428.496C176.252 429.46 176.659 430.739 176.659 431.809C176.659 433.118 176.442 433.909 175.407 434.708C173.841 435.917 170.677 435.204 169.294 433.908C167.446 433.575 165.818 432.204 164.272 430.901C163.569 430.309 162.882 429.731 162.199 429.271C161.643 427.952 160.507 426.942 159.254 426.164C157.877 425.311 156.817 424.112 155.766 422.925C155.544 422.674 155.323 422.423 155.099 422.177C154.733 421.774 154.311 421.121 153.896 420.478C153.527 419.907 153.163 419.343 152.848 418.971C152.552 418.621 152.285 418.032 152.011 417.427C151.673 416.68 151.324 415.908 150.893 415.528C150.499 415.18 150.213 414.77 149.926 414.357C149.675 413.996 149.423 413.634 149.097 413.31C148.722 412.938 148.594 412.635 148.447 412.287C148.357 412.074 148.261 411.845 148.096 411.573C147.946 411.324 147.876 411.25 147.795 411.165C147.659 411.021 147.49 410.843 146.846 409.73C146.648 409.388 146.456 409.296 146.29 409.216C146.094 409.122 145.935 409.046 145.845 408.595C145.474 407.795 145.251 407.464 145.139 407.298C145.077 407.207 145.05 407.166 145.049 407.124C145.048 407.089 145.067 407.053 145.101 406.988C145.152 406.892 145.237 406.731 145.345 406.409C145.635 405.548 146.091 405.432 146.668 405.287C147.087 405.182 147.569 405.06 148.096 404.624C148.409 404.365 148.661 404.117 148.894 403.888C149.462 403.327 149.922 402.874 150.893 402.639C151.105 402.587 151.301 402.54 151.482 402.497L151.492 402.495L151.493 402.495C153.39 402.043 153.598 401.994 153.598 400.901C154.6 400.901 154.705 400.423 154.792 400.021C154.843 399.788 154.888 399.58 155.099 399.507C155.536 399.355 155.832 399.328 156.103 399.303C156.454 399.271 156.765 399.243 157.292 398.955C157.576 398.8 157.875 398.572 158.186 398.335C158.83 397.844 159.527 397.314 160.244 397.314C160.511 397.314 160.729 397.475 160.952 397.64C161.163 397.796 161.378 397.955 161.643 397.981C162.213 398.038 162.588 397.636 162.948 397.25C163.023 397.17 163.098 397.09 163.173 397.015C163.763 396.429 164.497 395.933 165.214 395.448L165.215 395.448C165.512 395.246 165.807 395.047 166.087 394.844C166.38 394.632 166.667 394.53 166.948 394.506C166.914 394.483 166.883 394.464 166.853 394.449ZM185.604 284.547C184.996 282.803 184.526 281.455 184.36 281.034C183.945 280.264 183.72 279.187 183.505 278.154C183.363 277.472 183.225 276.81 183.038 276.266C182.66 275.16 184.195 275.387 185.197 275.536C185.471 275.576 185.706 275.611 185.85 275.611C187.307 275.611 188.726 275.322 190.147 275.033C191.161 274.827 192.175 274.621 193.206 274.518C193.779 274.462 194.347 274.338 194.911 274.213C195.149 274.161 195.397 274.133 195.645 274.106C195.944 274.073 196.242 274.04 196.521 273.964C196.818 273.882 197.156 273.633 197.493 273.385C198.263 272.82 199.024 272.261 199.26 273.714C199.424 274.727 199.392 275.654 199.359 276.628C199.351 276.859 199.343 277.093 199.338 277.331C199.319 278.154 199.112 278.905 198.901 279.669C198.807 280.008 198.713 280.351 198.634 280.703C198.455 281.501 198.07 282.176 197.683 282.855C197.469 283.23 197.255 283.605 197.074 284.003C196.822 284.559 196.48 285.033 196.132 285.515C196.028 285.659 195.924 285.803 195.822 285.95C195.579 286.3 195.361 286.668 195.144 287.035C194.932 287.393 194.721 287.751 194.486 288.091C194.323 288.328 194.144 288.565 193.963 288.805C193.624 289.255 193.279 289.713 193.022 290.188C192.957 290.308 192.891 290.43 192.826 290.552C192.558 291.05 192.286 291.558 191.993 292.035C191.905 292.179 191.811 292.323 191.716 292.468C191.413 292.933 191.102 293.411 190.942 293.932C190.899 294.073 190.835 294.277 190.761 294.513C190.537 295.228 190.221 296.237 190.112 296.669C189.402 295.436 187.091 288.809 185.604 284.547Z" fill="white"/>
<path fill-rule="evenodd" clip-rule="evenodd" d="M167.273 438.126C152.627 438.126 138.081 438.126 123.535 438.127C122.781 438.127 122.011 438.11 121.636 437.421C121.375 436.942 122.195 436.106 122.827 436.143C123.346 436.173 123.865 436.22 124.383 436.22C161.015 436.224 257.668 436.223 294.299 436.234C294.623 436.234 295.075 436.302 295.241 436.489C295.486 436.765 295.739 437.409 295.62 437.49C295.178 437.792 294.586 438.099 294.048 438.101C284.085 438.135 214.1 438.126 204.137 438.126C191.882 438.126 179.627 438.126 167.273 438.126Z" fill="black"/>
<path fill-rule="evenodd" clip-rule="evenodd" d="M93.9515 438.617C84.9168 438.617 75.9817 438.618 67.0467 438.613C66.486 438.613 65.8649 438.751 65.6381 438.016C65.4113 437.281 65.7223 436.747 66.5486 436.651C66.7773 436.625 67.013 436.647 67.2456 436.647C82.7241 436.647 98.2027 436.648 113.681 436.644C114.396 436.644 115.114 436.58 115.083 437.534C115.06 438.278 114.615 438.616 113.582 438.616C107.072 438.617 100.561 438.617 93.9515 438.617Z" fill="black"/>
<path d="M209.164 182.247C208.517 182.586 207.869 182.925 207.222 183.265C206.948 183.408 206.6 183.136 206.567 182.831C206.534 182.525 206.716 182.239 206.921 182.009C207.502 181.358 208.344 180.941 209.218 180.871C209.416 180.856 209.635 180.863 209.787 180.991C210 181.17 209.983 181.52 209.826 181.75C209.669 181.979 209.412 182.117 209.164 182.247Z" fill="black"/>
<path d="M212.49 192.832C212.853 192.474 213.559 192.716 213.912 192.348C214.214 192.033 214.034 191.505 213.764 191.163C213.493 190.821 213.131 190.503 213.082 190.07C213.034 189.638 213.611 189.189 213.899 189.517C214.363 190.046 214.785 190.644 214.927 191.331C215.069 192.018 214.873 192.811 214.299 193.22C213.724 193.63 212.771 193.475 212.49 192.832Z" fill="black"/>
<path d="M218.486 186.466C218.349 186.187 218.332 185.853 218.439 185.561C218.507 185.375 218.624 185.208 218.776 185.079C219.266 184.661 220.111 184.761 220.488 185.281C220.866 185.802 220.693 186.628 220.138 186.956C219.583 187.285 218.768 187.043 218.486 186.466Z" fill="black"/>
<path d="M209.939 184.532C210.337 184.437 210.774 184.522 211.106 184.758C211.371 184.946 211.568 185.227 211.653 185.539C211.849 186.259 211.362 187.092 210.634 187.28C209.906 187.468 209.072 186.977 208.889 186.254C208.706 185.53 209.208 184.707 209.939 184.532Z" fill="black"/>
<path d="M269.22 203.001C269.23 202.647 269.242 202.282 269.391 201.959C269.539 201.637 269.86 201.366 270.216 201.386C270.573 201.406 270.881 201.818 270.715 202.131C270.146 203.201 270.061 204.513 270.487 205.646C270.655 206.093 269.894 206.403 269.532 206.09C269.17 205.777 269.156 205.233 269.169 204.757C269.186 204.172 269.203 203.586 269.22 203.001Z" fill="black"/>
<path d="M214.223 199.43C213.048 200.583 211.187 200.989 209.632 200.431C208.078 199.874 206.908 198.382 206.748 196.751C206.69 196.16 206.808 195.469 207.322 195.167C208.033 194.748 208.886 195.334 209.581 195.777C210.621 196.441 211.839 196.827 213.074 196.885C213.623 196.911 214.243 196.9 214.626 197.29C215.194 197.868 214.802 198.862 214.223 199.43ZM214.144 198.194C213.885 197.834 213.37 197.801 212.925 197.768C211.389 197.652 209.887 197.109 208.635 196.217C208.376 196.032 207.98 196.213 207.849 196.502C207.717 196.791 207.783 197.129 207.892 197.427C208.333 198.636 209.494 199.554 210.78 199.712C212.067 199.87 213.419 199.26 214.144 198.194Z" fill="black"/>
<path d="M232.949 240.054C230.398 248.447 227.829 256.931 227.281 265.68C226.727 274.515 228.249 283.328 229.226 292.127C232.885 325.092 228.892 358.363 228.51 391.525C228.463 395.638 228.429 399.932 226.521 403.584C224.614 407.236 220.173 409.954 216.293 408.504C216.193 410.622 216.093 412.74 215.993 414.858C216.728 413.85 217.929 413.19 219.181 413.106C222.332 419.855 229.245 424.725 236.708 425.453C239.184 425.695 239.785 429.441 238.112 431.268C236.439 433.094 233.715 433.436 231.234 433.63C223.28 434.25 215.298 434.526 207.319 434.459C204.026 434.431 201.47 431.245 200.998 428.013C200.526 424.78 201.606 421.545 202.67 418.454C203.308 416.6 206.11 414.68 206.626 416.571C206.382 413.835 206.138 411.099 205.894 408.363C204.479 408.231 203.063 408.1 201.648 407.969C201.072 398.793 200.495 389.618 199.918 380.442C192.667 385.212 188.513 393.828 180.901 398.009C176.547 400.401 170.946 401.488 168.49 405.782C171.708 405.933 173.388 409.785 173.298 412.98C173.209 416.174 172.14 419.44 173.071 422.499C174.277 426.463 178.663 430.328 176.491 433.864C174.359 437.334 168.94 435.362 165.744 432.82C156.814 425.719 149.425 416.721 144.222 406.61C149.251 402.505 154.894 399.143 160.91 396.668C162.772 397.634 165.409 396.121 165.491 394.038C161.624 391.989 160.16 386.99 160.934 382.709C161.707 378.429 164.231 374.691 166.694 371.094C172.747 362.258 178.8 353.421 184.852 344.584C189.208 338.225 193.728 330.25 190.389 323.312C162.423 359.106 134.458 394.9 106.493 430.694C104.468 433.286 99.5242 431.635 99.0222 428.394C98.5202 425.153 101.906 422.146 105.2 422.439C98.411 417.413 91.6222 412.388 84.8334 407.363C83.517 406.388 82.1002 405.258 81.822 403.652C81.5297 401.965 82.5976 400.37 83.6185 398.99C92.7942 386.577 102.483 374.538 112.652 362.912C115.614 359.525 118.714 356.098 122.727 354.035C126.741 351.972 131.919 351.536 135.628 354.099C141.133 357.904 146.638 361.709 152.143 365.514C163.02 351.495 173.897 337.477 184.774 323.458C180.748 317.431 184.862 309.366 183.989 302.188C183.036 294.349 176.135 288.064 175.628 280.184C175.381 276.334 172.158 273.302 168.735 271.471C165.311 269.64 161.473 268.571 158.279 266.368C151.069 261.396 148.714 251.437 150.651 242.942C152.589 234.447 158.031 227.175 163.878 220.677C169.726 214.179 176.167 208.102 180.797 200.702C185.046 193.91 187.621 186.237 191.224 179.088C194.827 171.939 199.808 165.015 207.096 161.601C214.383 158.188 224.336 159.437 228.807 166.087C232.411 171.449 231.639 178.6 229.703 184.752C227.767 190.904 224.793 196.852 224.362 203.283C223.93 209.713 227.022 217.051 233.277 218.798C242.842 221.469 246.966 232.376 249.706 241.849C254.192 232.658 258.677 223.467 263.163 214.275C260.013 213.973 256.863 213.67 253.714 213.367C253.755 208.112 254.026 202.91 254.113 197.666C254.13 196.664 254.9 195.817 255.907 195.737C266.751 194.866 263.301 199.088 274.339 197.887C275.871 198.124 277.607 199.553 278.79 200.547C282.411 203.589 278.986 209.244 275.873 212.796C265.487 224.648 258.936 239.755 257.406 255.384C257.164 257.865 257.021 260.439 255.866 262.652C254.711 264.865 252.196 266.615 249.758 266.01C247.586 265.47 246.256 263.359 245.153 261.427C241.085 254.303 237.017 247.179 232.949 240.054ZM173.952 397.816C175.142 398.381 176.435 398.893 177.743 398.729C179.384 398.523 180.688 397.312 181.865 396.16C185.32 392.78 188.754 389.38 192.167 385.96C202.417 375.69 212.91 364.459 215.953 350.327C216.765 346.558 217.013 342.696 217.258 338.85C217.804 330.295 218.35 321.694 217.502 313.163C217.071 308.819 216.348 304.122 218.549 300.341C218.614 307.983 218.679 315.624 218.744 323.266C218.815 331.659 218.882 340.109 217.389 348.371C215.896 356.633 212.733 364.786 207.06 371.014C204.045 374.325 200.054 377.899 200.807 382.297C202.141 390.088 202.554 398.033 202.035 405.919C201.991 406.58 202.848 406.876 203.512 406.949C209.243 407.577 215.044 407.581 220.776 406.961C222.764 406.746 225.237 405.976 225.414 404C228.467 369.903 229.738 335.649 229.221 301.422C229.129 295.356 228.972 289.222 227.393 283.361C227.233 282.767 226.774 282.024 226.199 282.255C217.567 285.725 207.416 285.259 199.144 281.013C196.705 285.03 194.403 289.13 192.243 293.301C191.027 295.651 189.836 298.405 190.872 300.838C192.833 305.446 193.176 310.714 191.828 315.534C190.986 318.546 189.593 322.061 191.531 324.527C193.486 327.015 193.607 330.547 192.649 333.556C191.691 336.564 189.801 339.179 187.969 341.758C178.352 355.296 169.535 369.394 161.579 383.955C160.305 386.287 162.116 389.082 164.029 390.936C166.928 393.746 170.295 396.081 173.952 397.816ZM200.018 218.556C199.53 218.152 199.011 217.73 198.384 217.624C197.804 217.526 197.217 217.714 196.659 217.9C194.823 218.51 192.987 219.121 191.151 219.731C189.562 220.259 187.942 220.803 186.602 221.802C185.014 222.988 183.946 224.718 182.944 226.421C181.516 228.845 180.144 231.301 178.828 233.787C178.579 234.258 178.325 234.757 178.346 235.289C178.367 235.832 178.672 236.319 178.978 236.77C181.587 240.623 184.961 243.963 188.85 246.544C188.993 246.64 189.146 246.737 189.317 246.749C189.551 246.767 189.765 246.626 189.95 246.483C192.432 244.556 193.316 240.859 191.971 238.032C192.498 237.679 193.046 238.455 193.204 239.066C196.628 252.325 198.853 265.888 199.844 279.54C199.924 280.649 201.225 281.182 202.31 281.462C206.279 282.484 210.312 283.406 214.411 283.494C218.511 283.582 222.722 282.783 226.175 280.589C226.479 280.396 226.817 280.087 226.709 279.745C224.556 272.986 224.53 265.698 225.642 258.696C226.753 251.693 228.965 244.915 231.234 238.192C231.394 237.719 231.767 237.133 232.24 237.306C232.983 239.449 234.544 241.302 236.539 242.408C239.576 239.918 243.239 238.184 247.101 237.409C245.65 234.201 244.199 230.993 242.748 227.785C241.861 225.826 240.925 223.798 239.276 222.406C237.591 220.983 235.366 220.395 233.222 219.848C229.062 218.786 224.902 217.725 220.742 216.663C219.896 216.447 218.897 216.262 218.23 216.822C217.505 217.432 217.603 218.544 217.706 219.481C218.078 222.857 217.68 226.314 216.549 229.519C216.473 229.734 216.379 229.967 216.177 230.076C215.872 230.241 215.503 230.044 215.215 229.852C209.957 226.351 204.882 222.579 200.018 218.556ZM172.828 271.607C169.238 258.078 172.959 243.613 178.916 230.932C180.507 227.543 182.294 224.177 184.901 221.478C187.509 218.779 191.058 216.788 194.827 216.756C199.679 216.715 202.913 211.472 203.337 206.678C203.761 201.884 202.399 197.065 202.829 192.272C203.057 189.724 203.785 187.251 204.294 184.744C204.706 182.715 204.975 180.658 205.099 178.592C205.124 178.169 205.13 177.704 204.861 177.374C204.446 176.864 203.659 176.967 202.998 176.944C202.337 176.921 201.516 176.414 201.764 175.807C209.264 177.136 217.303 175.11 223.253 170.392C223.831 172.063 220.242 172.99 220.77 174.677C222.444 180.021 223.605 185.631 223.038 191.199C222.47 196.767 219.993 202.322 215.494 205.701C215.037 206.045 214.533 206.402 214.36 206.945C214.227 207.362 214.318 207.814 214.41 208.242C215.085 211.387 216.39 215.164 219.589 215.685C222.225 216.114 224.861 216.544 227.498 216.973C225.328 215.059 223.812 212.427 223.254 209.601C222.793 207.274 222.969 204.864 223.377 202.527C224.313 197.169 226.439 192.099 227.999 186.887C229.559 181.674 230.551 176.082 229.167 170.821C227.783 165.559 223.571 161.026 218.122 160.422C216.297 160.22 214.383 160.207 212.615 160.7C203.819 163.151 197.519 170.861 193.318 178.908C189.117 186.955 186.382 195.758 181.432 203.375C177.22 209.856 171.553 215.25 166.246 220.884C160.938 226.519 155.85 232.612 153.189 239.857C150.528 247.102 150.665 255.755 155.269 261.968C159.322 267.437 166.127 270.225 172.828 271.607ZM128.044 353.982C123.259 355.293 118.823 357.832 115.284 361.284C113.54 362.985 112.019 364.894 110.503 366.797C101.808 377.711 93.1126 388.626 84.4176 399.54C83.6691 400.48 82.8835 401.521 82.8947 402.719C82.9101 404.381 84.4129 405.599 85.7761 406.566C86.8683 407.34 87.9606 408.115 89.0529 408.889C89.523 409.222 90.2378 409.533 90.6058 409.091C105.169 391.603 119.731 374.116 134.294 356.628C134.662 356.187 135.251 355.701 135.741 356.004C136.323 356.363 135.93 357.25 135.494 357.773C120.978 375.184 106.461 392.594 91.9451 410.005C91.5179 410.517 92.106 411.237 92.6425 411.636C94.1788 412.777 95.7151 413.918 97.2513 415.059C97.507 415.249 97.8024 415.45 98.1174 415.397C98.3987 415.35 98.6036 415.116 98.7834 414.896C113.533 396.882 128.282 378.868 143.031 360.854C139.984 358.681 136.937 356.508 133.89 354.335C132.249 353.165 129.992 353.448 128.044 353.982ZM100.139 417.222C103.004 419.386 105.869 421.551 108.733 423.715C108.941 423.872 109.175 424.037 109.435 424.017C109.742 423.994 109.964 423.727 110.147 423.482C124.192 404.737 138.237 385.991 152.282 367.246C149.879 365.559 147.475 363.873 145.072 362.186C144.886 362.056 144.674 361.919 144.45 361.958C144.247 361.993 144.099 362.162 143.969 362.321C129.311 380.205 114.654 398.088 99.9965 415.972C99.8335 416.171 99.6607 416.402 99.6956 416.656C99.7291 416.899 99.9417 417.073 100.139 417.222ZM182.551 260.005C183.252 257.816 184.283 255.745 185.38 253.722C186.45 251.751 187.587 249.816 188.788 247.921C184.586 244.576 180.297 241.133 177.505 236.563C175.434 242.417 173.487 248.373 172.829 254.543C171.348 268.433 176.486 282.153 182.523 294.773C183.859 297.566 185.272 300.441 185.388 303.531C185.499 306.474 184.421 309.323 184.043 312.244C183.561 315.975 184.257 319.847 186.01 323.183C186.301 323.738 186.66 324.313 187.241 324.556C187.822 324.799 188.656 324.504 188.718 323.881C188.961 321.447 189.938 319.153 190.546 316.783C192.156 310.5 191.129 303.83 189.281 297.612C187.433 291.394 184.781 285.428 183.056 279.175C181.331 272.922 180.57 266.183 182.551 260.005ZM216.036 203.944C217.484 202.952 218.399 201.37 219.137 199.786C220.898 196.008 221.932 191.9 222.168 187.745C222.219 186.86 222.229 185.949 221.923 185.116C221.618 184.283 220.931 183.535 220.05 183.389C219.548 183.306 219.609 182.468 220.067 182.248C220.525 182.028 221.066 182.219 221.537 182.411C221.392 180.057 220.864 177.727 219.98 175.537C219.76 174.991 219.265 174.345 218.723 174.582C215.102 176.16 211.175 177.042 207.223 177.167C206.506 177.19 206.39 178.186 206.437 178.896C206.831 184.796 202.565 190.509 203.849 196.283C205.315 202.879 204.757 210.263 200.676 215.672C200.41 216.023 200.115 216.446 200.251 216.864C200.33 217.11 200.543 217.286 200.746 217.447C205.594 221.303 210.522 225.06 215.525 228.717C216.594 225.891 216.647 222.803 216.687 219.785C216.712 217.906 216.717 215.937 215.836 214.272C215.282 213.224 214.399 212.351 213.989 211.238C213.649 210.316 213.664 209.306 213.459 208.346C213.255 207.385 212.728 206.381 211.786 206.079C210.321 205.61 208.93 204.916 207.678 204.029C207.253 203.727 206.805 203.332 206.796 202.814C206.787 202.295 207.562 201.875 207.844 202.311C209.521 204.906 213.478 205.695 216.036 203.944ZM247.843 251.936C247.083 251.113 247.59 249.815 248.038 248.792C249.407 245.67 249.813 241.836 247.909 239.004C247.747 238.762 247.548 238.515 247.265 238.438C247.037 238.376 246.795 238.437 246.567 238.5C243.459 239.363 240.5 240.756 237.861 242.599C237.47 242.871 237.04 243.336 237.274 243.749C240.442 249.348 243.378 255.077 246.07 260.916C246.597 262.058 247.132 263.23 248.016 264.129C248.901 265.028 250.225 265.613 251.446 265.281C253.243 264.792 253.985 262.717 254.455 260.93C256.688 252.44 258.92 243.95 261.153 235.46C262.029 232.127 262.913 228.774 264.369 225.647C265.824 222.52 267.899 219.599 270.753 217.637C272.963 216.118 274.506 213.678 274.923 211.043C271.898 210.382 268.637 210.841 265.917 212.311C265.271 212.66 264.629 213.092 264.289 213.738C263.979 214.329 263.96 215.02 263.891 215.682C263.358 220.774 259.627 224.857 256.907 229.208C253.483 234.686 251.546 240.93 249.731 247.118C249.244 248.778 248.754 250.462 247.843 251.936ZM198.048 271.577C196.91 262.639 195.766 253.668 193.414 244.967C190.69 249.118 187.953 253.292 185.937 257.823C183.921 262.355 182.641 267.301 182.985 272.242C183.036 272.974 183.168 273.788 183.758 274.232C184.12 274.504 184.59 274.582 185.04 274.639C189.155 275.157 193.405 274.57 197.221 272.958C197.525 272.83 197.85 272.673 197.994 272.377C198.114 272.133 198.082 271.846 198.048 271.577ZM167.82 411.355C166.209 410.378 165.769 407.667 163.884 407.563C161.965 407.456 160.693 405.45 160.416 403.564C160.139 401.678 160.51 399.739 160.201 397.858C160.18 397.734 160.149 397.597 160.045 397.526C159.885 397.418 159.671 397.527 159.511 397.636C156.385 399.752 153.26 401.868 150.134 403.985C153.844 405.334 155.729 409.3 157.541 412.783C159.305 416.173 161.338 419.426 163.615 422.501C164.024 423.053 164.623 423.667 165.288 423.478C167.499 422.851 169.923 422.987 172.05 423.858C171.96 422.192 170.401 420.739 168.718 420.754C168.272 420.758 168.268 419.989 168.671 419.797C169.073 419.604 169.545 419.79 169.961 419.95C170.378 420.111 170.892 420.233 171.237 419.951C171.212 419.466 171.188 418.98 171.163 418.495C169.908 418.434 168.681 417.908 167.777 417.041C168.401 415.823 170.886 418.074 171.467 416.835C170.706 415.769 169.44 415.074 168.124 415.001C167.857 414.473 168.721 414.049 169.287 414.233C169.854 414.417 170.405 414.852 170.977 414.687C171.959 414.405 171.607 412.814 170.712 412.325C169.817 411.836 168.692 411.884 167.82 411.355ZM224.646 421.804C224.491 421.055 223.426 420.68 222.829 421.163C222.483 421.443 222.32 421.912 221.945 422.151C221.57 422.391 220.877 422.039 221.117 421.666C221.838 421.426 222.222 420.568 222.085 419.826C221.948 419.084 221.396 418.472 220.752 418.071C219.729 418.841 218.395 419.193 217.122 419.029C215.928 418.875 214.979 419.927 213.962 420.567C212.197 421.679 209.718 421.529 208.103 420.212C206.801 419.151 206.075 417.474 204.655 416.575C203.565 419.753 202.853 423.057 202.538 426.399C202.503 426.778 202.653 427.328 203.027 427.24C209.322 425.766 215.865 427.562 222.134 429.141C223.156 429.398 224.518 429.509 224.99 428.574C225.812 426.95 227.292 425.665 229.024 425.072C228.995 424.398 227.985 424.254 227.402 424.601C226.818 424.948 226.388 425.557 225.735 425.746C225.306 425.609 225.446 424.94 225.791 424.652C226.135 424.365 226.619 424.172 226.748 423.744C226.95 423.073 226.135 422.572 225.469 422.338C225.16 423.263 224.138 423.898 223.163 423.77C223.658 423.115 224.152 422.459 224.646 421.804ZM183.379 275.624C183.556 277.759 184.272 279.809 184.981 281.831C186.656 286.604 188.33 291.376 190.004 296.148C191.001 292.159 193.533 288.756 195.613 285.201C197.692 281.646 199.396 277.519 198.494 273.508C193.78 275.571 188.485 276.312 183.379 275.624ZM173.41 434.653C173.961 434.732 174.721 434.626 174.779 434.077C169.725 431.858 165.964 427.511 162.756 423.047C159.959 419.156 157.441 415.068 155.228 410.823C154.241 408.931 153.238 406.918 151.454 405.73C149.671 404.542 146.837 404.608 145.751 406.447C145.568 406.756 145.773 407.142 145.973 407.441C150.293 413.902 154.636 420.392 159.903 426.122C163.573 430.115 168.018 433.883 173.41 434.653ZM262.837 212.308C262.926 212.304 263.018 212.299 263.098 212.26C263.323 212.149 263.343 211.843 263.331 211.594C263.114 207.025 262.896 202.456 262.678 197.887C262.66 197.506 262.205 197.601 261.839 197.484C261.473 197.367 261.115 197.414 260.732 197.448C259.128 197.594 257.524 197.741 255.92 197.887C255.454 197.929 255.401 198.113 255.384 198.576C255.235 202.806 255.085 207.035 254.936 211.264C254.926 211.549 254.92 211.851 255.06 212.1C255.346 212.605 256.052 212.64 256.635 212.611C258.703 212.51 260.77 212.409 262.837 212.308ZM236.108 430.789C233.539 429.747 230.639 430.481 227.868 430.645C220.228 431.097 212.784 427.077 205.175 427.892C204.273 427.989 203.295 428.202 202.739 428.911C201.884 430.003 202.564 431.72 203.75 432.447C204.935 433.174 206.413 433.188 207.807 433.181C214.195 433.146 220.584 433.11 226.973 433.075C230.188 433.058 233.72 432.925 236.108 430.789ZM167.015 394.971C166.931 394.923 166.842 394.873 166.745 394.871C166.578 394.866 166.442 394.998 166.329 395.121C165.107 396.44 163.884 397.76 162.662 399.079C162.384 399.379 162.104 399.683 161.913 400.043C161.689 400.466 161.6 400.945 161.548 401.42C161.411 402.662 161.522 403.976 162.16 405.053C162.797 406.13 164.048 406.908 165.294 406.729C166.847 406.507 167.822 405.023 168.906 403.898C170.555 402.186 172.854 401.05 174.034 398.991C171.694 397.651 169.355 396.311 167.015 394.971ZM214.611 418.496C214.852 418.188 215.052 417.84 215.144 417.461C215.297 416.833 215.147 416.178 215.046 415.541C214.737 413.59 214.885 411.601 214.997 409.63C215.027 409.116 214.867 408.403 214.349 408.435C212.183 408.571 210.002 408.465 207.86 408.12C207.558 408.071 207.282 408.345 207.213 408.64C207.145 408.936 207.227 409.243 207.301 409.537C207.897 411.879 208.072 414.326 207.814 416.728C207.771 417.122 207.718 417.524 207.797 417.912C207.93 418.556 208.416 419.08 208.972 419.439C210.727 420.572 213.327 420.137 214.611 418.496ZM274.339 209.791C274.849 209.881 275.454 209.978 275.816 209.612C274.299 208.827 273.174 207.333 272.847 205.667C272.52 204.001 272.997 202.198 274.107 200.906C274.208 200.789 274.319 200.664 274.338 200.511C274.357 200.357 274.228 200.178 274.076 200.212C271.934 200.69 269.736 200.918 267.54 200.891C267.214 200.887 266.863 200.884 266.593 201.066C266.109 201.392 266.143 202.098 266.231 202.671C266.599 205.076 266.467 206.985 266.835 209.39C266.848 209.476 266.862 209.564 266.902 209.642C267.09 210.012 267.641 209.908 268.034 209.769C269.885 209.118 272.407 209.449 274.339 209.791ZM175.932 432.066C175.712 429.88 174.928 427.751 173.676 425.938C173.515 425.706 173.344 425.476 173.126 425.297C172.859 425.078 172.534 424.945 172.209 424.828C170.379 424.169 168.388 423.954 166.458 424.207C166.069 424.258 165.579 424.447 165.601 424.835C165.61 424.986 165.701 425.119 165.791 425.241C168.114 428.427 171.168 431.087 174.654 432.96C174.947 433.117 175.304 433.27 175.598 433.116C175.946 432.933 175.971 432.455 175.932 432.066ZM102.947 431.077C104.887 431.592 107.12 430.232 107.535 428.283C107.949 426.335 106.461 424.196 104.477 423.889C103.69 423.767 102.864 423.906 102.161 424.277C100.906 424.941 100.107 426.371 100.205 427.778C100.311 429.295 101.466 430.684 102.947 431.077ZM238.529 428.023C238.487 427.694 238.417 427.358 238.231 427.083C237.697 426.294 236.539 426.353 235.582 426.396C233.972 426.47 232.348 426.247 230.819 425.742C229.913 425.443 228.95 425.953 228.17 426.5C227.189 427.188 226.234 428.016 225.809 429.13C226.811 429.586 227.972 429.43 229.068 429.312C230.859 429.118 232.664 429.05 234.465 429.108C235.334 429.135 236.221 429.197 237.019 429.537C237.211 429.618 237.403 429.717 237.611 429.726C237.982 429.741 238.314 429.453 238.453 429.112C238.592 428.771 238.576 428.388 238.529 428.023ZM277.714 208.819C278.415 208.628 278.779 207.868 278.969 207.172C279.438 205.451 279.364 203.525 278.445 201.993C277.944 201.158 277.02 200.411 276.069 200.642C275.46 200.79 275.002 201.318 274.78 201.9C274.559 202.481 274.536 203.117 274.529 203.739C274.518 204.7 274.541 205.679 274.845 206.591C275.15 207.504 275.777 208.354 276.675 208.716C277.003 208.849 277.372 208.912 277.714 208.819ZM171.886 409.019C171.89 408.802 171.892 408.577 171.796 408.382C171.609 408.001 171.131 407.879 170.712 407.799C169.83 407.63 168.947 407.461 168.065 407.292C167.424 407.169 166.536 407.193 166.388 407.824C166.309 408.162 166.515 408.496 166.73 408.77C167.687 409.988 169.03 410.902 170.519 411.351C170.946 411.48 171.507 411.525 171.742 411.149C171.846 410.984 171.852 410.779 171.856 410.585C171.866 410.063 171.876 409.541 171.886 409.019ZM219.885 417.634C220.021 417.569 220.16 417.497 220.25 417.377C220.461 417.096 220.323 416.698 220.16 416.388C219.764 415.636 219.254 414.943 218.654 414.34C218.567 414.252 218.464 414.161 218.34 414.163C218.19 414.165 218.082 414.301 217.999 414.425C217.372 415.362 216.876 416.386 216.53 417.458C216.423 417.791 216.366 418.233 216.664 418.42C217.777 418.383 218.881 418.113 219.885 417.634Z" fill="black"/>
<path d="M104.872 193.138C105.985 191.886 107.024 190.674 108.113 189.508C108.315 189.292 108.722 189.265 109.034 189.151C108.925 189.434 108.874 189.762 108.696 189.994C107.847 191.098 106.916 192.144 106.125 193.286C105.933 193.564 105.989 194.306 106.224 194.526C106.913 195.17 107.73 195.691 108.54 196.191C108.787 196.344 109.282 196.423 109.477 196.281C110.209 195.751 110.881 195.13 111.528 194.497C111.599 194.428 111.435 193.981 111.268 193.838C110.619 193.281 109.9 192.803 109.26 192.237C109.047 192.049 108.992 191.685 108.864 191.401C109.172 191.419 109.55 191.33 109.775 191.475C110.462 191.918 111.102 192.436 111.739 192.952C112.95 193.932 112.919 194.735 111.667 195.74C111.16 196.148 110.644 196.55 110.181 197.003C109.585 197.586 109.004 197.6 108.338 197.14C107.443 196.521 106.495 195.973 105.633 195.314C104.962 194.801 104.423 194.151 104.872 193.138Z" fill="#FFB61D"/>
<path d="M307.904 314.304C307.046 314.195 305.669 313.045 305.494 312.281C305.121 310.651 305.563 309.315 306.892 308.721C307.639 308.387 308.537 308.324 309.374 308.283C309.637 308.27 309.925 308.724 310.201 308.965C309.833 309.063 309.425 309.313 309.105 309.23C308.344 309.033 307.732 309.137 307.117 309.621C306.214 310.331 306.23 311.692 306.615 312.449C307.149 313.498 308.146 313.427 309.06 313.332C309.778 313.257 310.81 312.22 310.678 311.22C310.638 310.918 310.942 310.571 311.088 310.245C311.24 310.565 311.514 310.88 311.526 311.205C311.602 313.188 309.944 314.63 307.904 314.304Z" fill="#FFB61D"/>
<path d="M225.03 295.924C224.53 280.786 229.817 313.283 229.876 314.289C229.941 315.395 229.811 316.344 229.686 317.252L229.686 317.252L229.686 317.252C229.591 317.942 229.499 318.608 229.499 319.301V330.398C229.499 334.936 229.494 339.451 229.282 343.978C229.239 344.91 229.149 345.838 229.06 346.767L229.06 346.767C228.935 348.064 228.81 349.361 228.81 350.666C228.81 352.515 228.677 354.366 228.35 356.189C227.677 359.947 227.661 363.607 227.661 367.413C227.661 368.814 227.604 370.208 227.546 371.602L227.546 371.602C227.489 372.998 227.431 374.394 227.431 375.799L227.422 392.796C227.385 393.161 227.365 393.541 227.346 393.922C227.3 394.839 227.253 395.769 226.959 396.555C226.953 396.843 226.928 397.128 226.902 397.413L226.902 397.413L226.902 397.414C226.873 397.744 226.844 398.074 226.844 398.409C226.844 398.523 226.848 398.64 226.852 398.759C226.864 399.107 226.877 399.466 226.786 399.792C226.699 400.103 226.629 400.402 226.561 400.693C226.37 401.515 226.193 402.274 225.682 403.066C225.579 403.225 225.481 403.381 225.384 403.534C224.734 404.563 224.173 405.45 223.123 406.113C220.767 407.601 218.113 406.953 214.871 407.106C192.432 408.161 223.874 399.164 220.623 363.427C227.346 353.749 225.274 303.322 225.03 295.924Z" fill="#E7EAEE"/>
<defs>
<linearGradient id="paint0_linear_163_7157" x1="193.191" y1="144.291" x2="193.191" y2="451.237" gradientUnits="userSpaceOnUse">
<stop stop-color="#49FCC6"/>
<stop offset="1" stop-color="#1095D4"/>
</linearGradient>
</defs>
</svg>
