<svg width="375" height="548" viewBox="0 0 375 548" fill="none" xmlns="http://www.w3.org/2000/svg">
<rect x="145.55" y="507.9" width="10.5537" height="10.5537" rx="5.27686" fill="#AAF5FF"/>
<rect x="162.82" y="507.898" width="33.5801" height="10.5537" rx="5.27686" fill="#26D0D2"/>
<rect x="203.115" y="507.898" width="10.5537" height="10.5537" rx="5.27686" fill="#AAF5FF"/>
<path d="M40.1473 20.0716C39.5262 21.3793 38.5291 22.4745 37.156 23.3572C35.7993 24.2399 34.132 24.6812 32.1541 24.6812C30.3887 24.6812 28.795 24.2807 27.3728 23.4798C25.9507 22.6788 24.831 21.5673 24.0137 20.1452C23.2128 18.723 22.8123 17.1375 22.8123 15.3884C22.8123 13.6394 23.2128 12.062 24.0137 10.6562C24.831 9.25046 25.9507 8.1471 27.3728 7.34614C28.8113 6.52883 30.4051 6.12018 32.1541 6.12018C34.132 6.12018 35.7993 6.56153 37.156 7.44422C38.5127 8.32691 39.5098 9.43027 40.1473 10.7543L37.7445 11.8086C37.2377 10.9259 36.494 10.1658 35.5132 9.52835C34.5488 8.8745 33.4291 8.54758 32.1541 8.54758C30.9118 8.54758 29.7757 8.84998 28.7459 9.45479C27.7325 10.0433 26.9233 10.8606 26.3185 11.9067C25.7301 12.9365 25.4358 14.0889 25.4358 15.3639C25.4358 16.6389 25.7301 17.8077 26.3185 18.8702C26.9233 19.9163 27.7406 20.7418 28.7704 21.3466C29.8002 21.9514 30.9281 22.2538 32.1541 22.2538C33.4618 22.2538 34.6142 21.9351 35.6113 21.2976C36.6084 20.6437 37.3276 19.8754 37.769 18.9928L40.1473 20.0716ZM49.2752 24.6322C47.8694 24.6322 46.6189 24.3134 45.5238 23.6759C44.4286 23.0221 43.5704 22.1476 42.9492 21.0524C42.3444 19.9408 42.042 18.7149 42.042 17.3745C42.042 16.0505 42.3444 14.8408 42.9492 13.7456C43.5704 12.6505 44.4286 11.7841 45.5238 11.1466C46.6189 10.5091 47.8694 10.1904 49.2752 10.1904C50.681 10.1904 51.9314 10.5091 53.0266 11.1466C54.1218 11.7841 54.9718 12.6505 55.5766 13.7456C56.1978 14.8408 56.5083 16.0505 56.5083 17.3745C56.5083 18.7149 56.1978 19.9408 55.5766 21.0524C54.9718 22.1476 54.1218 23.0221 53.0266 23.6759C51.9314 24.3134 50.681 24.6322 49.2752 24.6322ZM49.2752 12.4461C48.3271 12.4461 47.4935 12.6586 46.7742 13.0836C46.0713 13.5086 45.5238 14.0971 45.1314 14.849C44.7555 15.6009 44.5675 16.4428 44.5675 17.3745C44.5675 18.3062 44.7555 19.1562 45.1314 19.9245C45.5238 20.6764 46.0713 21.273 46.7742 21.7144C47.4935 22.1557 48.3271 22.3764 49.2752 22.3764C50.2233 22.3764 51.0487 22.1557 51.7516 21.7144C52.4709 21.273 53.0184 20.6764 53.3944 19.9245C53.7867 19.1562 53.9829 18.3062 53.9829 17.3745C53.9829 16.4428 53.7867 15.6009 53.3944 14.849C53.0184 14.0971 52.4709 13.5086 51.7516 13.0836C51.0487 12.6586 50.2233 12.4461 49.2752 12.4461ZM76.1394 10.2149C77.1365 10.2149 78.0192 10.4519 78.7875 10.9259C79.5557 11.3836 80.1442 12.0375 80.5529 12.8875C80.9779 13.7211 81.1904 14.6856 81.1904 15.7807V24.3625H78.7139V16.173C78.7139 15.0288 78.3952 14.1298 77.7577 13.4759C77.1365 12.8057 76.3192 12.4707 75.3058 12.4707C74.6356 12.4707 74.0226 12.6505 73.4668 13.0101C72.9274 13.3533 72.4942 13.8437 72.1673 14.4812C71.8567 15.1024 71.7014 15.8134 71.7014 16.6144V24.3625H69.2005V16.2711C69.2005 15.0942 68.8981 14.1706 68.2933 13.5005C67.7048 12.8139 66.9284 12.4707 65.9639 12.4707C65.2284 12.4707 64.5745 12.6913 64.0024 13.1327C63.4303 13.5577 62.9808 14.1053 62.6539 14.7755C62.3433 15.4293 62.188 16.0831 62.188 16.737V24.3625H59.7115V10.4601H62.188V12.7404C63.4957 11.0567 65.0077 10.2149 66.724 10.2149C67.7048 10.2149 68.5793 10.4601 69.3476 10.9505C70.1159 11.4245 70.7043 12.0865 71.113 12.9365C72.486 11.1221 74.1615 10.2149 76.1394 10.2149ZM101.592 10.2149C102.59 10.2149 103.472 10.4519 104.241 10.9259C105.009 11.3836 105.597 12.0375 106.006 12.8875C106.431 13.7211 106.643 14.6856 106.643 15.7807V24.3625H104.167V16.173C104.167 15.0288 103.848 14.1298 103.211 13.4759C102.59 12.8057 101.772 12.4707 100.759 12.4707C100.089 12.4707 99.4756 12.6505 98.9198 13.0101C98.3804 13.3533 97.9472 13.8437 97.6203 14.4812C97.3097 15.1024 97.1545 15.8134 97.1545 16.6144V24.3625H94.6535V16.2711C94.6535 15.0942 94.3511 14.1706 93.7463 13.5005C93.1578 12.8139 92.3814 12.4707 91.417 12.4707C90.6814 12.4707 90.0275 12.6913 89.4554 13.1327C88.8833 13.5577 88.4338 14.1053 88.1069 14.7755C87.7963 15.4293 87.641 16.0831 87.641 16.737V24.3625H85.1646V10.4601H87.641V12.7404C88.9487 11.0567 90.4607 10.2149 92.1771 10.2149C93.1578 10.2149 94.0323 10.4601 94.8006 10.9505C95.5689 11.4245 96.1573 12.0865 96.566 12.9365C97.9391 11.1221 99.6145 10.2149 101.592 10.2149ZM123.539 10.4601V24.3625H121.063V21.9841C120.442 22.7197 119.69 23.3408 118.807 23.8476C117.924 24.3543 116.935 24.6076 115.84 24.6076C114.81 24.6076 113.895 24.3706 113.094 23.8966C112.309 23.4226 111.696 22.7442 111.255 21.8615C110.814 20.9788 110.593 19.949 110.593 18.7721V10.4601H113.045V18.2572C113.045 19.5976 113.372 20.6192 114.026 21.3221C114.68 22.0086 115.579 22.3519 116.723 22.3519C117.54 22.3519 118.276 22.1721 118.93 21.8125C119.6 21.4528 120.123 20.9625 120.499 20.3413C120.875 19.7038 121.063 19.0009 121.063 18.2327V10.4601H123.539ZM135.388 10.2149C136.435 10.2149 137.35 10.4519 138.135 10.9259C138.936 11.4 139.557 12.0783 139.998 12.961C140.439 13.8274 140.66 14.849 140.66 16.0259V24.3625H138.208V16.5654C138.208 15.2413 137.873 14.2279 137.203 13.525C136.549 12.8221 135.658 12.4707 134.53 12.4707C133.713 12.4707 132.969 12.6505 132.299 13.0101C131.645 13.3697 131.13 13.8682 130.754 14.5057C130.378 15.1269 130.19 15.8216 130.19 16.5899V24.3625H127.714V10.4601H130.19V12.7894C130.812 12.0538 131.555 11.4408 132.422 10.9505C133.304 10.4601 134.293 10.2149 135.388 10.2149ZM147.732 7.05191C147.732 7.47691 147.577 7.83652 147.266 8.13075C146.972 8.42498 146.612 8.5721 146.187 8.5721C145.746 8.5721 145.37 8.42498 145.06 8.13075C144.749 7.83652 144.594 7.47691 144.594 7.05191C144.594 6.6596 144.749 6.31633 145.06 6.0221C145.37 5.72787 145.746 5.58076 146.187 5.58076C146.612 5.58076 146.972 5.72787 147.266 6.0221C147.577 6.29999 147.732 6.64326 147.732 7.05191ZM144.912 10.4601H147.389V24.3625H144.912V10.4601ZM150.894 17.448C150.894 16.1077 151.204 14.8817 151.826 13.7702C152.447 12.6586 153.297 11.7841 154.376 11.1466C155.471 10.5091 156.68 10.1904 158.004 10.1904C159.476 10.1904 160.734 10.5336 161.78 11.2202C162.826 11.9067 163.578 12.7485 164.036 13.7456L161.903 14.7019C161.576 14.0807 161.077 13.5577 160.407 13.1327C159.753 12.6913 158.961 12.4707 158.029 12.4707C157.13 12.4707 156.329 12.6913 155.626 13.1327C154.923 13.5577 154.376 14.1543 153.983 14.9226C153.591 15.6745 153.395 16.5245 153.395 17.4726C153.395 18.4043 153.591 19.2461 153.983 19.998C154.376 20.7336 154.923 21.3139 155.626 21.7389C156.329 22.1476 157.13 22.3519 158.029 22.3519C158.961 22.3519 159.762 22.1394 160.432 21.7144C161.102 21.273 161.609 20.75 161.952 20.1452L164.085 21.1014C163.611 22.1149 162.851 22.9567 161.805 23.6269C160.775 24.2971 159.516 24.6322 158.029 24.6322C156.689 24.6322 155.471 24.3216 154.376 23.7004C153.297 23.0793 152.447 22.2211 151.826 21.1259C151.204 20.0307 150.894 18.8048 150.894 17.448ZM175.792 22.4745C175.285 23.2101 174.607 23.7495 173.757 24.0927C172.907 24.4197 171.999 24.5831 171.035 24.5831C169.449 24.5831 168.158 24.199 167.161 23.4307C166.18 22.6625 165.69 21.5918 165.69 20.2187C165.69 19.3033 165.951 18.5024 166.474 17.8158C166.997 17.1293 167.7 16.598 168.583 16.2221C169.482 15.8461 170.479 15.6581 171.574 15.6581C172.915 15.6581 174.296 15.8543 175.718 16.2466C175.751 14.9389 175.465 13.9663 174.86 13.3288C174.255 12.675 173.291 12.3481 171.967 12.3481C171.198 12.3481 170.397 12.4543 169.564 12.6668C168.73 12.863 167.986 13.1163 167.333 13.4269L166.671 11.5144C168.501 10.6154 170.365 10.1658 172.261 10.1658C176.217 10.1658 178.195 12.2255 178.195 16.3447V24.3625H175.792V22.4745ZM171.574 22.6461C172.245 22.6461 172.898 22.5317 173.536 22.3028C174.173 22.074 174.697 21.7144 175.105 21.224C175.514 20.7336 175.718 20.1206 175.718 19.3851V18.0365C174.476 17.6442 173.242 17.448 172.016 17.448C170.921 17.448 170.013 17.6851 169.294 18.1591C168.575 18.6331 168.215 19.2706 168.215 20.0716C168.215 20.9053 168.526 21.5428 169.147 21.9841C169.784 22.4254 170.594 22.6461 171.574 22.6461ZM185.376 20.6601C185.376 21.2649 185.531 21.7226 185.842 22.0331C186.152 22.3274 186.569 22.4745 187.092 22.4745C187.664 22.4745 188.171 22.3601 188.612 22.1312L189.127 24.0192C188.833 24.1826 188.457 24.3216 187.999 24.436C187.542 24.5668 187.035 24.6322 186.479 24.6322C185.368 24.6322 184.493 24.3461 183.856 23.774C183.218 23.1855 182.899 22.3601 182.899 21.2976V12.6913H181.355V11.9803L185.253 7.71393H185.376V10.4601H188.661V12.6913H185.376V20.6601ZM198.432 24.6322C196.879 24.6322 195.539 24.3379 194.411 23.7495C193.283 23.161 192.417 22.3274 191.812 21.2485C191.223 20.1697 190.929 18.9029 190.929 17.448C190.929 15.8952 191.256 14.5711 191.91 13.4759C192.58 12.3807 193.438 11.5634 194.484 11.024C195.53 10.4683 196.642 10.1904 197.819 10.1904C199.159 10.1904 200.344 10.4764 201.374 11.0485C202.42 11.6043 203.23 12.438 203.802 13.5495C204.39 14.6447 204.684 15.9851 204.684 17.5706C204.684 17.8649 204.668 18.2408 204.635 18.6985H193.479C193.61 19.7447 194.1 20.6355 194.95 21.3711C195.817 22.1067 196.993 22.4745 198.481 22.4745C199.282 22.4745 200.034 22.3437 200.737 22.0822C201.44 21.8043 202.02 21.4774 202.478 21.1014L203.826 22.499C203.27 23.0875 202.518 23.5942 201.57 24.0192C200.639 24.4278 199.592 24.6322 198.432 24.6322ZM197.819 12.4952C196.953 12.4952 196.184 12.6913 195.514 13.0836C194.86 13.4596 194.354 13.9745 193.994 14.6283C193.651 15.2658 193.479 15.9524 193.479 16.688H202.085C202.085 15.936 201.914 15.2413 201.57 14.6038C201.243 13.9663 200.753 13.4596 200.099 13.0836C199.462 12.6913 198.702 12.4952 197.819 12.4952ZM216.525 10.4601L219.933 20.9788L223.268 10.4601H225.401L228.736 20.9788L232.144 10.4601H234.743L230.158 24.3625H227.51L224.347 14.187L221.135 24.3625H218.487L213.901 10.4601H216.525ZM240.421 7.05191C240.421 7.47691 240.266 7.83652 239.956 8.13075C239.661 8.42498 239.302 8.5721 238.877 8.5721C238.435 8.5721 238.059 8.42498 237.749 8.13075C237.438 7.83652 237.283 7.47691 237.283 7.05191C237.283 6.6596 237.438 6.31633 237.749 6.0221C238.059 5.72787 238.435 5.58076 238.877 5.58076C239.302 5.58076 239.661 5.72787 239.956 6.0221C240.266 6.29999 240.421 6.64326 240.421 7.05191ZM237.602 10.4601H240.078V24.3625H237.602V10.4601ZM247.751 20.6601C247.751 21.2649 247.907 21.7226 248.217 22.0331C248.528 22.3274 248.945 22.4745 249.468 22.4745C250.04 22.4745 250.546 22.3601 250.988 22.1312L251.503 24.0192C251.209 24.1826 250.833 24.3216 250.375 24.436C249.917 24.5668 249.41 24.6322 248.855 24.6322C247.743 24.6322 246.869 24.3461 246.231 23.774C245.594 23.1855 245.275 22.3601 245.275 21.2976V12.6913H243.73V11.9803L247.629 7.71393H247.751V10.4601H251.037V12.6913H247.751V20.6601ZM261.935 10.2149C262.981 10.2149 263.897 10.4519 264.681 10.9259C265.482 11.4 266.104 12.0783 266.545 12.961C266.986 13.8274 267.207 14.849 267.207 16.0259V24.3625H264.73V16.5654C264.73 15.2413 264.404 14.2279 263.75 13.525C263.096 12.8221 262.205 12.4707 261.077 12.4707C260.26 12.4707 259.516 12.6505 258.846 13.0101C258.192 13.3697 257.677 13.8682 257.301 14.5057C256.925 15.1269 256.737 15.8216 256.737 16.5899V24.3625H254.261V5.33557H256.737V12.7894C257.358 12.0538 258.102 11.4408 258.968 10.9505C259.851 10.4601 260.84 10.2149 261.935 10.2149ZM30.4132 53.6322C28.8603 53.6322 27.52 53.3379 26.3921 52.7495C25.2642 52.161 24.3979 51.3274 23.793 50.2485C23.2046 49.1697 22.9104 47.9029 22.9104 46.448C22.9104 44.8952 23.2373 43.5711 23.8911 42.4759C24.5613 41.3807 25.4195 40.5634 26.4656 40.024C27.5118 39.4683 28.6233 39.1904 29.8002 39.1904C31.1406 39.1904 32.3257 39.4764 33.3555 40.0485C34.4017 40.6043 35.2108 41.438 35.7829 42.5495C36.3714 43.6447 36.6656 44.9851 36.6656 46.5706C36.6656 46.8649 36.6493 47.2408 36.6166 47.6985H25.4603C25.5911 48.7447 26.0815 49.6355 26.9315 50.3711C27.7978 51.1067 28.9748 51.4745 30.4623 51.4745C31.2632 51.4745 32.0151 51.3437 32.718 51.0822C33.4209 50.8043 34.0012 50.4774 34.4589 50.1014L35.8074 51.499C35.2517 52.0875 34.4998 52.5942 33.5517 53.0192C32.62 53.4278 31.5738 53.6322 30.4132 53.6322ZM29.8002 41.4952C28.9339 41.4952 28.1656 41.6913 27.4954 42.0836C26.8416 42.4596 26.3349 42.9745 25.9753 43.6283C25.632 44.2658 25.4603 44.9524 25.4603 45.688H34.0666C34.0666 44.936 33.895 44.2413 33.5517 43.6038C33.2248 42.9663 32.7344 42.4596 32.0805 42.0836C31.443 41.6913 30.6829 41.4952 29.8002 41.4952ZM44.6912 53.7302C42.3211 53.7302 40.3759 53.15 38.8557 51.9894L39.8364 50.2485C40.4249 50.6735 41.1523 51.0168 42.0187 51.2783C42.9013 51.5399 43.7595 51.6706 44.5932 51.6706C45.5412 51.6706 46.2605 51.5317 46.7509 51.2538C47.2576 50.9596 47.511 50.4855 47.511 49.8317C47.511 49.3413 47.3557 48.9572 47.0451 48.6793C46.7345 48.3851 46.3422 48.1644 45.8682 48.0173C45.4105 47.8538 44.7648 47.6822 43.9312 47.5024C42.8523 47.2735 41.9778 47.0365 41.3076 46.7913C40.6374 46.5298 40.0653 46.1293 39.5913 45.5899C39.1172 45.0341 38.8802 44.2822 38.8802 43.3341C38.8802 42.4187 39.1254 41.6505 39.6158 41.0293C40.1225 40.4082 40.7763 39.9586 41.5773 39.6807C42.3783 39.3865 43.2283 39.2394 44.1273 39.2394C45.0917 39.2394 45.9989 39.3702 46.8489 39.6317C47.6989 39.8769 48.4263 40.212 49.0311 40.637L48.1485 42.4269C47.56 42.0673 46.9061 41.7894 46.1869 41.5932C45.484 41.3971 44.7811 41.299 44.0783 41.299C43.3917 41.299 42.7542 41.4461 42.1658 41.7404C41.5937 42.0182 41.3076 42.4923 41.3076 43.1625C41.3076 43.6038 41.4547 43.9634 41.7489 44.2413C42.0432 44.5029 42.4028 44.699 42.8278 44.8298C43.2691 44.9605 43.8985 45.1158 44.7158 45.2956C45.811 45.5245 46.7018 45.7697 47.3884 46.0312C48.0912 46.2928 48.6879 46.7096 49.1783 47.2817C49.6686 47.8538 49.9138 48.6466 49.9138 49.6601C49.9138 50.9677 49.4316 51.973 48.4672 52.6759C47.5191 53.3788 46.2605 53.7302 44.6912 53.7302ZM56.4107 49.6601C56.4107 50.2649 56.5659 50.7226 56.8765 51.0331C57.1871 51.3274 57.6039 51.4745 58.127 51.4745C58.6991 51.4745 59.2058 51.3601 59.6472 51.1312L60.1621 53.0192C59.8679 53.1826 59.4919 53.3216 59.0342 53.436C58.5765 53.5668 58.0698 53.6322 57.514 53.6322C56.4025 53.6322 55.528 53.3461 54.8905 52.774C54.253 52.1855 53.9342 51.3601 53.9342 50.2976V41.6913H52.3895V40.9803L56.2881 36.7139H56.4107V39.4601H59.6962V41.6913H56.4107V49.6601ZM71.9922 51.4745C71.4855 52.2101 70.8071 52.7495 69.9571 53.0927C69.1071 53.4197 68.1999 53.5831 67.2355 53.5831C65.6499 53.5831 64.3586 53.199 63.3615 52.4307C62.3807 51.6625 61.8903 50.5918 61.8903 49.2187C61.8903 48.3033 62.1518 47.5024 62.6749 46.8158C63.198 46.1293 63.9009 45.598 64.7836 45.2221C65.6826 44.8461 66.6797 44.6581 67.7749 44.6581C69.1153 44.6581 70.4965 44.8543 71.9187 45.2466C71.9513 43.9389 71.6653 42.9663 71.0605 42.3288C70.4557 41.675 69.4913 41.3481 68.1672 41.3481C67.399 41.3481 66.598 41.4543 65.7643 41.6668C64.9307 41.863 64.1869 42.1163 63.5331 42.4269L62.8711 40.5144C64.7018 39.6154 66.5653 39.1658 68.4615 39.1658C72.4172 39.1658 74.3951 41.2255 74.3951 45.3447V53.3625H71.9922V51.4745ZM67.7749 51.6461C68.4451 51.6461 69.0989 51.5317 69.7364 51.3028C70.3739 51.074 70.897 50.7144 71.3057 50.224C71.7143 49.7336 71.9187 49.1206 71.9187 48.3851V47.0365C70.6764 46.6442 69.4422 46.448 68.2163 46.448C67.1211 46.448 66.2139 46.6851 65.4946 47.1591C64.7754 47.6331 64.4158 48.2706 64.4158 49.0716C64.4158 49.9053 64.7264 50.5428 65.3475 50.9841C65.985 51.4254 66.7941 51.6461 67.7749 51.6461ZM85.8427 39.1904C87.0523 39.1904 88.1393 39.4846 89.1037 40.0731C90.0845 40.6615 90.8528 41.5033 91.4085 42.5985C91.9807 43.6937 92.2667 44.9605 92.2667 46.399C92.2667 47.8375 91.9807 49.1043 91.4085 50.1995C90.8528 51.2947 90.0845 52.1447 89.1037 52.7495C88.1393 53.3379 87.0523 53.6322 85.8427 53.6322C83.5706 53.6322 81.9033 52.8476 80.8408 51.2783V53.3625H78.3643V34.3356H80.8408V41.5442C81.9033 39.975 83.5706 39.1904 85.8427 39.1904ZM85.1561 51.3519C86.0715 51.3519 86.8725 51.1312 87.559 50.6899C88.2619 50.2485 88.8013 49.6519 89.1773 48.9C89.5533 48.148 89.7412 47.3226 89.7412 46.4235C89.7412 45.5081 89.5533 44.6745 89.1773 43.9226C88.8013 43.1706 88.2619 42.574 87.559 42.1327C86.8725 41.6913 86.0715 41.4707 85.1561 41.4707C83.7994 41.4707 82.7369 41.9365 81.9686 42.8682C81.2004 43.8 80.8162 44.9851 80.8162 46.4235C80.8162 47.3389 80.9797 48.1726 81.3066 48.9245C81.6499 49.6601 82.1485 50.2485 82.8023 50.6899C83.4561 51.1312 84.2408 51.3519 85.1561 51.3519ZM95.4847 34.3356H97.9611V53.3625H95.4847V34.3356ZM105.231 36.0519C105.231 36.4769 105.075 36.8365 104.765 37.1308C104.471 37.425 104.111 37.5721 103.686 37.5721C103.245 37.5721 102.869 37.425 102.558 37.1308C102.247 36.8365 102.092 36.4769 102.092 36.0519C102.092 35.6596 102.247 35.3163 102.558 35.0221C102.869 34.7279 103.245 34.5808 103.686 34.5808C104.111 34.5808 104.471 34.7279 104.765 35.0221C105.075 35.3 105.231 35.6433 105.231 36.0519ZM102.411 39.4601H104.887V53.3625H102.411V39.4601ZM114.154 53.7302C111.784 53.7302 109.839 53.15 108.319 51.9894L109.299 50.2485C109.888 50.6735 110.615 51.0168 111.482 51.2783C112.364 51.5399 113.223 51.6706 114.056 51.6706C115.004 51.6706 115.724 51.5317 116.214 51.2538C116.721 50.9596 116.974 50.4855 116.974 49.8317C116.974 49.3413 116.819 48.9572 116.508 48.6793C116.198 48.3851 115.805 48.1644 115.331 48.0173C114.874 47.8538 114.228 47.6822 113.394 47.5024C112.315 47.2735 111.441 47.0365 110.771 46.7913C110.1 46.5298 109.528 46.1293 109.054 45.5899C108.58 45.0341 108.343 44.2822 108.343 43.3341C108.343 42.4187 108.588 41.6505 109.079 41.0293C109.586 40.4082 110.239 39.9586 111.04 39.6807C111.841 39.3865 112.691 39.2394 113.59 39.2394C114.555 39.2394 115.462 39.3702 116.312 39.6317C117.162 39.8769 117.889 40.212 118.494 40.637L117.612 42.4269C117.023 42.0673 116.369 41.7894 115.65 41.5932C114.947 41.3971 114.244 41.299 113.541 41.299C112.855 41.299 112.217 41.4461 111.629 41.7404C111.057 42.0182 110.771 42.4923 110.771 43.1625C110.771 43.6038 110.918 43.9634 111.212 44.2413C111.506 44.5029 111.866 44.699 112.291 44.8298C112.732 44.9605 113.362 45.1158 114.179 45.2956C115.274 45.5245 116.165 45.7697 116.851 46.0312C117.554 46.2928 118.151 46.7096 118.641 47.2817C119.132 47.8538 119.377 48.6466 119.377 49.6601C119.377 50.9677 118.895 51.973 117.93 52.6759C116.982 53.3788 115.724 53.7302 114.154 53.7302ZM130.336 39.2149C131.382 39.2149 132.298 39.4519 133.082 39.9259C133.883 40.4 134.504 41.0783 134.946 41.961C135.387 42.8274 135.608 43.849 135.608 45.0259V53.3625H133.131V45.5654C133.131 44.2413 132.804 43.2279 132.151 42.525C131.497 41.8221 130.606 41.4707 129.478 41.4707C128.661 41.4707 127.917 41.6505 127.247 42.0101C126.593 42.3697 126.078 42.8682 125.702 43.5057C125.326 44.1269 125.138 44.8216 125.138 45.5899V53.3625H122.662V34.3356H125.138V41.7894C125.759 41.0538 126.503 40.4408 127.369 39.9505C128.252 39.4601 129.241 39.2149 130.336 39.2149ZM156.018 39.2149C157.015 39.2149 157.898 39.4519 158.666 39.9259C159.435 40.3836 160.023 41.0375 160.432 41.8875C160.857 42.7211 161.069 43.6856 161.069 44.7807V53.3625H158.593V45.173C158.593 44.0288 158.274 43.1298 157.637 42.4759C157.015 41.8057 156.198 41.4707 155.185 41.4707C154.514 41.4707 153.901 41.6505 153.346 42.0101C152.806 42.3533 152.373 42.8437 152.046 43.4812C151.736 44.1024 151.58 44.8134 151.58 45.6144V53.3625H149.079V45.2711C149.079 44.0942 148.777 43.1706 148.172 42.5005C147.584 41.8139 146.807 41.4707 145.843 41.4707C145.107 41.4707 144.453 41.6913 143.881 42.1327C143.309 42.5577 142.86 43.1053 142.533 43.7755C142.222 44.4293 142.067 45.0831 142.067 45.737V53.3625H139.59V39.4601H142.067V41.7404C143.375 40.0567 144.887 39.2149 146.603 39.2149C147.584 39.2149 148.458 39.4601 149.227 39.9505C149.995 40.4245 150.583 41.0865 150.992 41.9365C152.365 40.1221 154.04 39.2149 156.018 39.2149ZM171.59 53.6322C170.037 53.6322 168.697 53.3379 167.569 52.7495C166.441 52.161 165.575 51.3274 164.97 50.2485C164.381 49.1697 164.087 47.9029 164.087 46.448C164.087 44.8952 164.414 43.5711 165.068 42.4759C165.738 41.3807 166.596 40.5634 167.643 40.024C168.689 39.4683 169.8 39.1904 170.977 39.1904C172.318 39.1904 173.503 39.4764 174.532 40.0485C175.579 40.6043 176.388 41.438 176.96 42.5495C177.548 43.6447 177.842 44.9851 177.842 46.5706C177.842 46.8649 177.826 47.2408 177.793 47.6985H166.637C166.768 48.7447 167.258 49.6355 168.108 50.3711C168.975 51.1067 170.152 51.4745 171.639 51.4745C172.44 51.4745 173.192 51.3437 173.895 51.0822C174.598 50.8043 175.178 50.4774 175.636 50.1014L176.984 51.499C176.429 52.0875 175.677 52.5942 174.729 53.0192C173.797 53.4278 172.751 53.6322 171.59 53.6322ZM170.977 41.4952C170.111 41.4952 169.343 41.6913 168.672 42.0836C168.018 42.4596 167.512 42.9745 167.152 43.6283C166.809 44.2658 166.637 44.9524 166.637 45.688H175.243C175.243 44.936 175.072 44.2413 174.729 43.6038C174.402 42.9663 173.911 42.4596 173.257 42.0836C172.62 41.6913 171.86 41.4952 170.977 41.4952ZM188.737 39.2149C189.783 39.2149 190.698 39.4519 191.483 39.9259C192.284 40.4 192.905 41.0783 193.346 41.961C193.788 42.8274 194.009 43.849 194.009 45.0259V53.3625H191.557V45.5654C191.557 44.2413 191.221 43.2279 190.551 42.525C189.897 41.8221 189.007 41.4707 187.879 41.4707C187.061 41.4707 186.318 41.6505 185.647 42.0101C184.994 42.3697 184.479 42.8682 184.103 43.5057C183.727 44.1269 183.539 44.8216 183.539 45.5899V53.3625H181.062V39.4601H183.539V41.7894C184.16 41.0538 184.904 40.4408 185.77 39.9505C186.653 39.4601 187.642 39.2149 188.737 39.2149ZM201.203 49.6601C201.203 50.2649 201.358 50.7226 201.669 51.0331C201.98 51.3274 202.396 51.4745 202.92 51.4745C203.492 51.4745 203.998 51.3601 204.44 51.1312L204.955 53.0192C204.66 53.1826 204.284 53.3216 203.827 53.436C203.369 53.5668 202.862 53.6322 202.307 53.6322C201.195 53.6322 200.32 53.3461 199.683 52.774C199.045 52.1855 198.727 51.3601 198.727 50.2976V41.6913H197.182V40.9803L201.081 36.7139H201.203V39.4601H204.489V41.6913H201.203V49.6601ZM212.518 53.7302C210.148 53.7302 208.203 53.15 206.683 51.9894L207.664 50.2485C208.252 50.6735 208.979 51.0168 209.846 51.2783C210.728 51.5399 211.587 51.6706 212.42 51.6706C213.368 51.6706 214.088 51.5317 214.578 51.2538C215.085 50.9596 215.338 50.4855 215.338 49.8317C215.338 49.3413 215.183 48.9572 214.872 48.6793C214.562 48.3851 214.169 48.1644 213.695 48.0173C213.238 47.8538 212.592 47.6822 211.758 47.5024C210.679 47.2735 209.805 47.0365 209.135 46.7913C208.465 46.5298 207.892 46.1293 207.418 45.5899C206.944 45.0341 206.707 44.2822 206.707 43.3341C206.707 42.4187 206.953 41.6505 207.443 41.0293C207.95 40.4082 208.603 39.9586 209.404 39.6807C210.205 39.3865 211.055 39.2394 211.954 39.2394C212.919 39.2394 213.826 39.3702 214.676 39.6317C215.526 39.8769 216.253 40.212 216.858 40.637L215.976 42.4269C215.387 42.0673 214.733 41.7894 214.014 41.5932C213.311 41.3971 212.608 41.299 211.905 41.299C211.219 41.299 210.581 41.4461 209.993 41.7404C209.421 42.0182 209.135 42.4923 209.135 43.1625C209.135 43.6038 209.282 43.9634 209.576 44.2413C209.87 44.5029 210.23 44.699 210.655 44.8298C211.096 44.9605 211.726 45.1158 212.543 45.2956C213.638 45.5245 214.529 45.7697 215.215 46.0312C215.918 46.2928 216.515 46.7096 217.005 47.2817C217.496 47.8538 217.741 48.6466 217.741 49.6601C217.741 50.9677 217.259 51.973 216.294 52.6759C215.346 53.3788 214.088 53.7302 212.518 53.7302ZM231.927 53.3625H229.45V41.8139H227.661V39.5582H229.475V38.5529C229.475 37.2125 229.81 36.15 230.48 35.3654C231.167 34.5644 232.139 34.1639 233.398 34.1639C234.085 34.1639 234.714 34.2947 235.286 34.5562C235.874 34.8014 236.365 35.1038 236.757 35.4634L235.605 36.9836C235.392 36.7711 235.131 36.5913 234.82 36.4442C234.51 36.2971 234.174 36.2235 233.815 36.2235C233.21 36.2235 232.744 36.4524 232.417 36.9101C232.09 37.3678 231.927 37.9726 231.927 38.7245V39.5582H235.482V41.8139H231.927V53.3625ZM244.471 53.6322C243.065 53.6322 241.815 53.3134 240.719 52.6759C239.624 52.0221 238.766 51.1476 238.145 50.0524C237.54 48.9408 237.238 47.7149 237.238 46.3745C237.238 45.0505 237.54 43.8408 238.145 42.7456C238.766 41.6505 239.624 40.7841 240.719 40.1466C241.815 39.5091 243.065 39.1904 244.471 39.1904C245.877 39.1904 247.127 39.5091 248.222 40.1466C249.318 40.7841 250.168 41.6505 250.772 42.7456C251.393 43.8408 251.704 45.0505 251.704 46.3745C251.704 47.7149 251.393 48.9408 250.772 50.0524C250.168 51.1476 249.318 52.0221 248.222 52.6759C247.127 53.3134 245.877 53.6322 244.471 53.6322ZM244.471 41.4461C243.523 41.4461 242.689 41.6586 241.97 42.0836C241.267 42.5086 240.719 43.0971 240.327 43.849C239.951 44.6009 239.763 45.4428 239.763 46.3745C239.763 47.3062 239.951 48.1562 240.327 48.9245C240.719 49.6764 241.267 50.273 241.97 50.7144C242.689 51.1557 243.523 51.3764 244.471 51.3764C245.419 51.3764 246.244 51.1557 246.947 50.7144C247.667 50.273 248.214 49.6764 248.59 48.9245C248.982 48.1562 249.179 47.3062 249.179 46.3745C249.179 45.4428 248.982 44.6009 248.59 43.849C248.214 43.0971 247.667 42.5086 246.947 42.0836C246.244 41.6586 245.419 41.4461 244.471 41.4461ZM257.384 42.6966C258.561 40.4408 260.351 39.313 262.753 39.313V41.9856H262.41C261.544 41.9856 260.726 42.1735 259.958 42.5495C259.206 42.9255 258.585 43.5548 258.095 44.4375C257.621 45.3038 257.384 46.4317 257.384 47.8211V53.3625H254.907V39.4601H257.384V42.6966ZM279.891 53.6322C278.338 53.6322 276.998 53.3379 275.87 52.7495C274.742 52.161 273.876 51.3274 273.271 50.2485C272.683 49.1697 272.388 47.9029 272.388 46.448C272.388 44.8952 272.715 43.5711 273.369 42.4759C274.039 41.3807 274.897 40.5634 275.944 40.024C276.99 39.4683 278.101 39.1904 279.278 39.1904C280.619 39.1904 281.804 39.4764 282.833 40.0485C283.88 40.6043 284.689 41.438 285.261 42.5495C285.849 43.6447 286.144 44.9851 286.144 46.5706C286.144 46.8649 286.127 47.2408 286.095 47.6985H274.938C275.069 48.7447 275.559 49.6355 276.409 50.3711C277.276 51.1067 278.453 51.4745 279.94 51.4745C280.741 51.4745 281.493 51.3437 282.196 51.0822C282.899 50.8043 283.479 50.4774 283.937 50.1014L285.285 51.499C284.73 52.0875 283.978 52.5942 283.03 53.0192C282.098 53.4278 281.052 53.6322 279.891 53.6322ZM279.278 41.4952C278.412 41.4952 277.644 41.6913 276.973 42.0836C276.32 42.4596 275.813 42.9745 275.453 43.6283C275.11 44.2658 274.938 44.9524 274.938 45.688H283.545C283.545 44.936 283.373 44.2413 283.03 43.6038C282.703 42.9663 282.212 42.4596 281.558 42.0836C280.921 41.6913 280.161 41.4952 279.278 41.4952ZM298.436 51.4745C297.929 52.2101 297.25 52.7495 296.4 53.0927C295.55 53.4197 294.643 53.5831 293.679 53.5831C292.093 53.5831 290.802 53.199 289.805 52.4307C288.824 51.6625 288.334 50.5918 288.334 49.2187C288.334 48.3033 288.595 47.5024 289.118 46.8158C289.641 46.1293 290.344 45.598 291.227 45.2221C292.126 44.8461 293.123 44.6581 294.218 44.6581C295.559 44.6581 296.94 44.8543 298.362 45.2466C298.395 43.9389 298.109 42.9663 297.504 42.3288C296.899 41.675 295.935 41.3481 294.611 41.3481C293.842 41.3481 293.041 41.4543 292.208 41.6668C291.374 41.863 290.63 42.1163 289.976 42.4269L289.314 40.5144C291.145 39.6154 293.009 39.1658 294.905 39.1658C298.861 39.1658 300.838 41.2255 300.838 45.3447V53.3625H298.436V51.4745ZM294.218 51.6461C294.888 51.6461 295.542 51.5317 296.18 51.3028C296.817 51.074 297.34 50.7144 297.749 50.224C298.158 49.7336 298.362 49.1206 298.362 48.3851V47.0365C297.12 46.6442 295.886 46.448 294.66 46.448C293.564 46.448 292.657 46.6851 291.938 47.1591C291.219 47.6331 290.859 48.2706 290.859 49.0716C290.859 49.9053 291.17 50.5428 291.791 50.9841C292.428 51.4254 293.237 51.6461 294.218 51.6461ZM309.613 53.7302C307.243 53.7302 305.298 53.15 303.778 51.9894L304.759 50.2485C305.347 50.6735 306.074 51.0168 306.941 51.2783C307.824 51.5399 308.682 51.6706 309.515 51.6706C310.463 51.6706 311.183 51.5317 311.673 51.2538C312.18 50.9596 312.433 50.4855 312.433 49.8317C312.433 49.3413 312.278 48.9572 311.967 48.6793C311.657 48.3851 311.264 48.1644 310.79 48.0173C310.333 47.8538 309.687 47.6822 308.853 47.5024C307.774 47.2735 306.9 47.0365 306.23 46.7913C305.56 46.5298 304.987 46.1293 304.513 45.5899C304.039 45.0341 303.802 44.2822 303.802 43.3341C303.802 42.4187 304.048 41.6505 304.538 41.0293C305.045 40.4082 305.699 39.9586 306.499 39.6807C307.3 39.3865 308.15 39.2394 309.049 39.2394C310.014 39.2394 310.921 39.3702 311.771 39.6317C312.621 39.8769 313.348 40.212 313.953 40.637L313.071 42.4269C312.482 42.0673 311.828 41.7894 311.109 41.5932C310.406 41.3971 309.703 41.299 309 41.299C308.314 41.299 307.676 41.4461 307.088 41.7404C306.516 42.0182 306.23 42.4923 306.23 43.1625C306.23 43.6038 306.377 43.9634 306.671 44.2413C306.965 44.5029 307.325 44.699 307.75 44.8298C308.191 44.9605 308.821 45.1158 309.638 45.2956C310.733 45.5245 311.624 45.7697 312.311 46.0312C313.013 46.2928 313.61 46.7096 314.1 47.2817C314.591 47.8538 314.836 48.6466 314.836 49.6601C314.836 50.9677 314.354 51.973 313.389 52.6759C312.441 53.3788 311.183 53.7302 309.613 53.7302ZM330.492 39.4601L324.24 54.3923C323.586 55.9778 322.842 57.0975 322.009 57.7514C321.175 58.4052 320.112 58.7322 318.821 58.7322C318.249 58.7322 317.718 58.6749 317.227 58.5605C316.753 58.4461 316.255 58.2663 315.732 58.0211L316.492 56.0105C316.9 56.174 317.252 56.2966 317.546 56.3783C317.857 56.4764 318.2 56.5254 318.576 56.5254C319.41 56.5254 320.08 56.2802 320.587 55.7899C321.11 55.3158 321.616 54.4658 322.107 53.2399L322.131 53.1663L316.026 39.4601H318.846L323.357 50.1504L327.746 39.4601H330.492ZM32.9387 80.4745C32.432 81.2101 31.7536 81.7495 30.9036 82.0927C30.0536 82.4197 29.1464 82.5831 28.182 82.5831C26.5964 82.5831 25.3051 82.199 24.3079 81.4307C23.3272 80.6625 22.8368 79.5918 22.8368 78.2187C22.8368 77.3033 23.0983 76.5024 23.6214 75.8158C24.1445 75.1293 24.8474 74.598 25.7301 74.2221C26.6291 73.8461 27.6262 73.6581 28.7214 73.6581C30.0618 73.6581 31.443 73.8543 32.8651 74.2466C32.8978 72.9389 32.6118 71.9663 32.007 71.3288C31.4022 70.675 30.4377 70.3481 29.1137 70.3481C28.3454 70.3481 27.5445 70.4543 26.7108 70.6668C25.8772 70.863 25.1334 71.1163 24.4796 71.4269L23.8176 69.5144C25.6483 68.6154 27.5118 68.1658 29.4079 68.1658C33.3637 68.1658 35.3416 70.2255 35.3416 74.3447V82.3625H32.9387V80.4745ZM28.7214 80.6461C29.3916 80.6461 30.0454 80.5317 30.6829 80.3028C31.3204 80.074 31.8435 79.7144 32.2522 79.224C32.6608 78.7336 32.8651 78.1206 32.8651 77.3851V76.0365C31.6228 75.6442 30.3887 75.448 29.1627 75.448C28.0676 75.448 27.1603 75.6851 26.4411 76.1591C25.7219 76.6331 25.3623 77.2706 25.3623 78.0716C25.3623 78.9053 25.6728 79.5428 26.294 79.9841C26.9315 80.4254 27.7406 80.6461 28.7214 80.6461ZM38.3546 75.448C38.3546 74.1077 38.6651 72.8817 39.2863 71.7702C39.9075 70.6586 40.7574 69.7841 41.8363 69.1466C42.9315 68.5091 44.1411 68.1904 45.4651 68.1904C46.9363 68.1904 48.1949 68.5336 49.2411 69.2202C50.2872 69.9067 51.0392 70.7485 51.4969 71.7456L49.3637 72.7019C49.0368 72.0807 48.5382 71.5577 47.868 71.1327C47.2142 70.6913 46.4214 70.4707 45.4897 70.4707C44.5906 70.4707 43.7897 70.6913 43.0868 71.1327C42.3839 71.5577 41.8363 72.1543 41.444 72.9226C41.0517 73.6745 40.8555 74.5245 40.8555 75.4726C40.8555 76.4043 41.0517 77.2461 41.444 77.998C41.8363 78.7336 42.3839 79.3139 43.0868 79.7389C43.7897 80.1476 44.5906 80.3519 45.4897 80.3519C46.4214 80.3519 47.2223 80.1394 47.8925 79.7144C48.5627 79.273 49.0695 78.75 49.4127 78.1452L51.5459 79.1014C51.0719 80.1149 50.3118 80.9567 49.2656 81.6269C48.2358 82.2971 46.9771 82.6322 45.4897 82.6322C44.1493 82.6322 42.9315 82.3216 41.8363 81.7004C40.7574 81.0793 39.9075 80.2211 39.2863 79.1259C38.6651 78.0307 38.3546 76.8048 38.3546 75.448ZM53.3917 75.448C53.3917 74.1077 53.7023 72.8817 54.3235 71.7702C54.9446 70.6586 55.7946 69.7841 56.8735 69.1466C57.9686 68.5091 59.1783 68.1904 60.5023 68.1904C61.9734 68.1904 63.2321 68.5336 64.2782 69.2202C65.3244 69.9067 66.0763 70.7485 66.534 71.7456L64.4008 72.7019C64.0739 72.0807 63.5754 71.5577 62.9052 71.1327C62.2513 70.6913 61.4585 70.4707 60.5268 70.4707C59.6278 70.4707 58.8268 70.6913 58.1239 71.1327C57.421 71.5577 56.8735 72.1543 56.4811 72.9226C56.0888 73.6745 55.8927 74.5245 55.8927 75.4726C55.8927 76.4043 56.0888 77.2461 56.4811 77.998C56.8735 78.7336 57.421 79.3139 58.1239 79.7389C58.8268 80.1476 59.6278 80.3519 60.5268 80.3519C61.4585 80.3519 62.2595 80.1394 62.9297 79.7144C63.5999 79.273 64.1066 78.75 64.4499 78.1452L66.5831 79.1014C66.109 80.1149 65.3489 80.9567 64.3028 81.6269C63.273 82.2971 62.0143 82.6322 60.5268 82.6322C59.1864 82.6322 57.9686 82.3216 56.8735 81.7004C55.7946 81.0793 54.9446 80.2211 54.3235 79.1259C53.7023 78.0307 53.3917 76.8048 53.3917 75.448ZM75.8599 82.6322C74.307 82.6322 72.9667 82.3379 71.8388 81.7495C70.7109 81.161 69.8445 80.3274 69.2397 79.2485C68.6513 78.1697 68.3571 76.9029 68.3571 75.448C68.3571 73.8952 68.684 72.5711 69.3378 71.4759C70.008 70.3807 70.8662 69.5634 71.9123 69.024C72.9585 68.4683 74.07 68.1904 75.2469 68.1904C76.5873 68.1904 77.7724 68.4764 78.8022 69.0485C79.8484 69.6043 80.6575 70.438 81.2296 71.5495C81.8181 72.6447 82.1123 73.9851 82.1123 75.5706C82.1123 75.8649 82.096 76.2408 82.0633 76.6985H70.907C71.0378 77.7447 71.5282 78.6355 72.3782 79.3711C73.2445 80.1067 74.4215 80.4745 75.909 80.4745C76.7099 80.4745 77.4618 80.3437 78.1647 80.0822C78.8676 79.8043 79.4479 79.4774 79.9056 79.1014L81.2541 80.499C80.6984 81.0875 79.9465 81.5942 78.9984 82.0192C78.0666 82.4278 77.0205 82.6322 75.8599 82.6322ZM75.2469 70.4952C74.3806 70.4952 73.6123 70.6913 72.9421 71.0836C72.2883 71.4596 71.7816 71.9745 71.4219 72.6283C71.0787 73.2658 70.907 73.9524 70.907 74.688H79.5133C79.5133 73.936 79.3416 73.2413 78.9984 72.6038C78.6715 71.9663 78.1811 71.4596 77.5272 71.0836C76.8897 70.6913 76.1296 70.4952 75.2469 70.4952ZM90.1379 82.7302C87.7678 82.7302 85.8226 82.15 84.3024 80.9894L85.2831 79.2485C85.8716 79.6735 86.599 80.0168 87.4654 80.2783C88.348 80.5399 89.2062 80.6706 90.0399 80.6706C90.9879 80.6706 91.7072 80.5317 92.1976 80.2538C92.7043 79.9596 92.9576 79.4855 92.9576 78.8317C92.9576 78.3413 92.8024 77.9572 92.4918 77.6793C92.1812 77.3851 91.7889 77.1644 91.3149 77.0173C90.8572 76.8538 90.2115 76.6822 89.3778 76.5024C88.299 76.2735 87.4245 76.0365 86.7543 75.7913C86.0841 75.5298 85.512 75.1293 85.038 74.5899C84.5639 74.0341 84.3269 73.2822 84.3269 72.3341C84.3269 71.4187 84.5721 70.6505 85.0625 70.0293C85.5692 69.4082 86.223 68.9586 87.024 68.6807C87.825 68.3865 88.675 68.2394 89.574 68.2394C90.5384 68.2394 91.4456 68.3702 92.2956 68.6317C93.1456 68.8769 93.873 69.212 94.4778 69.637L93.5951 71.4269C93.0067 71.0673 92.3528 70.7894 91.6336 70.5932C90.9307 70.3971 90.2278 70.299 89.525 70.299C88.8384 70.299 88.2009 70.4461 87.6125 70.7404C87.0404 71.0182 86.7543 71.4923 86.7543 72.1625C86.7543 72.6038 86.9014 72.9634 87.1956 73.2413C87.4899 73.5029 87.8495 73.699 88.2745 73.8298C88.7158 73.9605 89.3452 74.1158 90.1625 74.2956C91.2577 74.5245 92.1485 74.7697 92.8351 75.0312C93.5379 75.2928 94.1346 75.7096 94.625 76.2817C95.1153 76.8538 95.3605 77.6466 95.3605 78.6601C95.3605 79.9677 94.8783 80.973 93.9139 81.6759C92.9658 82.3788 91.7072 82.7302 90.1379 82.7302ZM103.451 82.7302C101.081 82.7302 99.1357 82.15 97.6155 80.9894L98.5963 79.2485C99.1848 79.6735 99.9122 80.0168 100.779 80.2783C101.661 80.5399 102.519 80.6706 103.353 80.6706C104.301 80.6706 105.02 80.5317 105.511 80.2538C106.017 79.9596 106.271 79.4855 106.271 78.8317C106.271 78.3413 106.116 77.9572 105.805 77.6793C105.494 77.3851 105.102 77.1644 104.628 77.0173C104.17 76.8538 103.525 76.6822 102.691 76.5024C101.612 76.2735 100.738 76.0365 100.067 75.7913C99.3973 75.5298 98.8251 75.1293 98.3511 74.5899C97.8771 74.0341 97.64 73.2822 97.64 72.3341C97.64 71.4187 97.8852 70.6505 98.3756 70.0293C98.8824 69.4082 99.5362 68.9586 100.337 68.6807C101.138 68.3865 101.988 68.2394 102.887 68.2394C103.852 68.2394 104.759 68.3702 105.609 68.6317C106.459 68.8769 107.186 69.212 107.791 69.637L106.908 71.4269C106.32 71.0673 105.666 70.7894 104.947 70.5932C104.244 70.3971 103.541 70.299 102.838 70.299C102.152 70.299 101.514 70.4461 100.926 70.7404C100.354 71.0182 100.067 71.4923 100.067 72.1625C100.067 72.6038 100.215 72.9634 100.509 73.2413C100.803 73.5029 101.163 73.699 101.588 73.8298C102.029 73.9605 102.658 74.1158 103.476 74.2956C104.571 74.5245 105.462 74.7697 106.148 75.0312C106.851 75.2928 107.448 75.7096 107.938 76.2817C108.428 76.8538 108.674 77.6466 108.674 78.6601C108.674 79.9677 108.191 80.973 107.227 81.6759C106.279 82.3788 105.02 82.7302 103.451 82.7302ZM125.802 82.6322C124.396 82.6322 123.146 82.3134 122.05 81.6759C120.955 81.0221 120.097 80.1476 119.476 79.0524C118.871 77.9408 118.569 76.7149 118.569 75.3745C118.569 74.0505 118.871 72.8408 119.476 71.7456C120.097 70.6505 120.955 69.7841 122.05 69.1466C123.146 68.5091 124.396 68.1904 125.802 68.1904C127.208 68.1904 128.458 68.5091 129.553 69.1466C130.648 69.7841 131.498 70.6505 132.103 71.7456C132.724 72.8408 133.035 74.0505 133.035 75.3745C133.035 76.7149 132.724 77.9408 132.103 79.0524C131.498 80.1476 130.648 81.0221 129.553 81.6759C128.458 82.3134 127.208 82.6322 125.802 82.6322ZM125.802 70.4461C124.854 70.4461 124.02 70.6586 123.301 71.0836C122.598 71.5086 122.05 72.0971 121.658 72.849C121.282 73.6009 121.094 74.4428 121.094 75.3745C121.094 76.3062 121.282 77.1562 121.658 77.9245C122.05 78.6764 122.598 79.273 123.301 79.7144C124.02 80.1557 124.854 80.3764 125.802 80.3764C126.75 80.3764 127.575 80.1557 128.278 79.7144C128.998 79.273 129.545 78.6764 129.921 77.9245C130.313 77.1562 130.51 76.3062 130.51 75.3745C130.51 74.4428 130.313 73.6009 129.921 72.849C129.545 72.0971 128.998 71.5086 128.278 71.0836C127.575 70.6586 126.75 70.4461 125.802 70.4461ZM139.573 82.3625H137.096V70.8139H135.307V68.5582H137.121V67.5529C137.121 66.2125 137.456 65.15 138.126 64.3654C138.813 63.5644 139.785 63.1639 141.044 63.1639C141.731 63.1639 142.36 63.2947 142.932 63.5562C143.52 63.8014 144.011 64.1038 144.403 64.4634L143.251 65.9836C143.038 65.7711 142.777 65.5913 142.466 65.4442C142.156 65.2971 141.82 65.2235 141.461 65.2235C140.856 65.2235 140.39 65.4524 140.063 65.9101C139.736 66.3678 139.573 66.9726 139.573 67.7245V68.5582H143.128V70.8139H139.573V82.3625ZM156.903 65.0519C156.903 65.4769 156.748 65.8365 156.437 66.1308C156.143 66.425 155.783 66.5721 155.358 66.5721C154.917 66.5721 154.541 66.425 154.23 66.1308C153.92 65.8365 153.764 65.4769 153.764 65.0519C153.764 64.6596 153.92 64.3163 154.23 64.0221C154.541 63.7279 154.917 63.5808 155.358 63.5808C155.783 63.5808 156.143 63.7279 156.437 64.0221C156.748 64.3 156.903 64.6433 156.903 65.0519ZM154.083 68.4601H156.56V82.3625H154.083V68.4601ZM168.695 68.2149C169.741 68.2149 170.657 68.4519 171.441 68.9259C172.242 69.4 172.864 70.0783 173.305 70.961C173.746 71.8274 173.967 72.849 173.967 74.0259V82.3625H171.515V74.5654C171.515 73.2413 171.18 72.2279 170.51 71.525C169.856 70.8221 168.965 70.4707 167.837 70.4707C167.02 70.4707 166.276 70.6505 165.606 71.0101C164.952 71.3697 164.437 71.8682 164.061 72.5057C163.685 73.1269 163.497 73.8216 163.497 74.5899V82.3625H161.021V68.4601H163.497V70.7894C164.118 70.0538 164.862 69.4408 165.728 68.9505C166.611 68.4601 167.6 68.2149 168.695 68.2149ZM181.284 82.3625H178.808V70.8139H177.018V68.5582H178.832V67.5529C178.832 66.2125 179.167 65.15 179.838 64.3654C180.524 63.5644 181.497 63.1639 182.755 63.1639C183.442 63.1639 184.071 63.2947 184.643 63.5562C185.232 63.8014 185.722 64.1038 186.114 64.4634L184.962 65.9836C184.75 65.7711 184.488 65.5913 184.177 65.4442C183.867 65.2971 183.532 65.2235 183.172 65.2235C182.567 65.2235 182.101 65.4524 181.775 65.9101C181.448 66.3678 181.284 66.9726 181.284 67.7245V68.5582H184.839V70.8139H181.284V82.3625ZM193.828 82.6322C192.422 82.6322 191.172 82.3134 190.077 81.6759C188.982 81.0221 188.123 80.1476 187.502 79.0524C186.897 77.9408 186.595 76.7149 186.595 75.3745C186.595 74.0505 186.897 72.8408 187.502 71.7456C188.123 70.6505 188.982 69.7841 190.077 69.1466C191.172 68.5091 192.422 68.1904 193.828 68.1904C195.234 68.1904 196.484 68.5091 197.58 69.1466C198.675 69.7841 199.525 70.6505 200.13 71.7456C200.751 72.8408 201.061 74.0505 201.061 75.3745C201.061 76.7149 200.751 77.9408 200.13 79.0524C199.525 80.1476 198.675 81.0221 197.58 81.6759C196.484 82.3134 195.234 82.6322 193.828 82.6322ZM193.828 70.4461C192.88 70.4461 192.047 70.6586 191.327 71.0836C190.624 71.5086 190.077 72.0971 189.685 72.849C189.309 73.6009 189.121 74.4428 189.121 75.3745C189.121 76.3062 189.309 77.1562 189.685 77.9245C190.077 78.6764 190.624 79.273 191.327 79.7144C192.047 80.1557 192.88 80.3764 193.828 80.3764C194.776 80.3764 195.602 80.1557 196.305 79.7144C197.024 79.273 197.572 78.6764 197.947 77.9245C198.34 77.1562 198.536 76.3062 198.536 75.3745C198.536 74.4428 198.34 73.6009 197.947 72.849C197.572 72.0971 197.024 71.5086 196.305 71.0836C195.602 70.6586 194.776 70.4461 193.828 70.4461ZM206.741 71.6966C207.918 69.4408 209.708 68.313 212.111 68.313V70.9856H211.767C210.901 70.9856 210.084 71.1735 209.316 71.5495C208.564 71.9255 207.942 72.5548 207.452 73.4375C206.978 74.3038 206.741 75.4317 206.741 76.8211V82.3625H204.265V68.4601H206.741V71.6966ZM231.563 68.2149C232.56 68.2149 233.443 68.4519 234.211 68.9259C234.98 69.3836 235.568 70.0375 235.977 70.8875C236.402 71.7211 236.614 72.6856 236.614 73.7807V82.3625H234.138V74.173C234.138 73.0288 233.819 72.1298 233.182 71.4759C232.56 70.8057 231.743 70.4707 230.73 70.4707C230.059 70.4707 229.446 70.6505 228.891 71.0101C228.351 71.3533 227.918 71.8437 227.591 72.4812C227.281 73.1024 227.125 73.8134 227.125 74.6144V82.3625H224.624V74.2711C224.624 73.0942 224.322 72.1706 223.717 71.5005C223.129 70.8139 222.352 70.4707 221.388 70.4707C220.652 70.4707 219.998 70.6913 219.426 71.1327C218.854 71.5577 218.405 72.1053 218.078 72.7755C217.767 73.4293 217.612 74.0831 217.612 74.737V82.3625H215.135V68.4601H217.612V70.7404C218.92 69.0567 220.432 68.2149 222.148 68.2149C223.129 68.2149 224.003 68.4601 224.771 68.9505C225.54 69.4245 226.128 70.0865 226.537 70.9365C227.91 69.1221 229.585 68.2149 231.563 68.2149ZM249.661 80.4745C249.154 81.2101 248.475 81.7495 247.625 82.0927C246.775 82.4197 245.868 82.5831 244.904 82.5831C243.318 82.5831 242.027 82.199 241.03 81.4307C240.049 80.6625 239.559 79.5918 239.559 78.2187C239.559 77.3033 239.82 76.5024 240.343 75.8158C240.866 75.1293 241.569 74.598 242.452 74.2221C243.351 73.8461 244.348 73.6581 245.443 73.6581C246.784 73.6581 248.165 73.8543 249.587 74.2466C249.62 72.9389 249.334 71.9663 248.729 71.3288C248.124 70.675 247.16 70.3481 245.836 70.3481C245.067 70.3481 244.266 70.4543 243.433 70.6668C242.599 70.863 241.855 71.1163 241.201 71.4269L240.539 69.5144C242.37 68.6154 244.234 68.1658 246.13 68.1658C250.086 68.1658 252.063 70.2255 252.063 74.3447V82.3625H249.661V80.4745ZM245.443 80.6461C246.113 80.6461 246.767 80.5317 247.405 80.3028C248.042 80.074 248.565 79.7144 248.974 79.224C249.383 78.7336 249.587 78.1206 249.587 77.3851V76.0365C248.345 75.6442 247.111 75.448 245.885 75.448C244.789 75.448 243.882 75.6851 243.163 76.1591C242.444 76.6331 242.084 77.2706 242.084 78.0716C242.084 78.9053 242.395 79.5428 243.016 79.9841C243.653 80.4254 244.462 80.6461 245.443 80.6461ZM259.245 78.6601C259.245 79.2649 259.4 79.7226 259.711 80.0331C260.021 80.3274 260.438 80.4745 260.961 80.4745C261.533 80.4745 262.04 80.3601 262.481 80.1312L262.996 82.0192C262.702 82.1826 262.326 82.3216 261.868 82.436C261.411 82.5668 260.904 82.6322 260.348 82.6322C259.237 82.6322 258.362 82.3461 257.724 81.774C257.087 81.1855 256.768 80.3601 256.768 79.2976V70.6913H255.224V69.9803L259.122 65.7139H259.245V68.4601H262.53V70.6913H259.245V78.6601ZM268.844 65.0519C268.844 65.4769 268.688 65.8365 268.378 66.1308C268.083 66.425 267.724 66.5721 267.299 66.5721C266.857 66.5721 266.482 66.425 266.171 66.1308C265.86 65.8365 265.705 65.4769 265.705 65.0519C265.705 64.6596 265.86 64.3163 266.171 64.0221C266.482 63.7279 266.857 63.5808 267.299 63.5808C267.724 63.5808 268.083 63.7279 268.378 64.0221C268.688 64.3 268.844 64.6433 268.844 65.0519ZM266.024 68.4601H268.5V82.3625H266.024V68.4601ZM279.238 82.6322C277.833 82.6322 276.582 82.3134 275.487 81.6759C274.392 81.0221 273.534 80.1476 272.912 79.0524C272.308 77.9408 272.005 76.7149 272.005 75.3745C272.005 74.0505 272.308 72.8408 272.912 71.7456C273.534 70.6505 274.392 69.7841 275.487 69.1466C276.582 68.5091 277.833 68.1904 279.238 68.1904C280.644 68.1904 281.895 68.5091 282.99 69.1466C284.085 69.7841 284.935 70.6505 285.54 71.7456C286.161 72.8408 286.472 74.0505 286.472 75.3745C286.472 76.7149 286.161 77.9408 285.54 79.0524C284.935 80.1476 284.085 81.0221 282.99 81.6759C281.895 82.3134 280.644 82.6322 279.238 82.6322ZM279.238 70.4461C278.29 70.4461 277.457 70.6586 276.737 71.0836C276.035 71.5086 275.487 72.0971 275.095 72.849C274.719 73.6009 274.531 74.4428 274.531 75.3745C274.531 76.3062 274.719 77.1562 275.095 77.9245C275.487 78.6764 276.035 79.273 276.737 79.7144C277.457 80.1557 278.29 80.3764 279.238 80.3764C280.186 80.3764 281.012 80.1557 281.715 79.7144C282.434 79.273 282.982 78.6764 283.358 77.9245C283.75 77.1562 283.946 76.3062 283.946 75.3745C283.946 74.4428 283.75 73.6009 283.358 72.849C282.982 72.0971 282.434 71.5086 281.715 71.0836C281.012 70.6586 280.186 70.4461 279.238 70.4461ZM297.349 68.2149C298.395 68.2149 299.311 68.4519 300.095 68.9259C300.896 69.4 301.517 70.0783 301.959 70.961C302.4 71.8274 302.621 72.849 302.621 74.0259V82.3625H300.169V74.5654C300.169 73.2413 299.834 72.2279 299.164 71.525C298.51 70.8221 297.619 70.4707 296.491 70.4707C295.674 70.4707 294.93 70.6505 294.26 71.0101C293.606 71.3697 293.091 71.8682 292.715 72.5057C292.339 73.1269 292.151 73.8216 292.151 74.5899V82.3625H289.675V68.4601H292.151V70.7894C292.772 70.0538 293.516 69.4408 294.382 68.9505C295.265 68.4601 296.254 68.2149 297.349 68.2149Z" fill="#22181C"/>
<path d="M194.934 275.824C197.275 275.376 205.829 272.371 206.921 268.412C207.898 264.872 202.586 257.771 194.934 255.923C187.281 254.074 175.329 254.629 175.329 262.317C175.329 264.49 176.649 265.594 177.782 266.542C178.507 267.149 179.157 267.693 179.334 268.412C179.884 270.647 179.613 272.225 179.43 273.291C179.338 273.824 179.269 274.228 179.334 274.524C180.159 278.253 192.929 276.208 194.934 275.824Z" fill="url(#paint0_linear_163_7155)"/>
<path d="M78.96 396.095C85.9043 403.641 85.8549 412.692 85.8061 421.614C85.751 431.718 85.6967 441.656 95.8039 449.055C114.835 462.986 147.02 459.189 152.452 441.327C161.824 410.504 191.17 394.963 220.898 379.22C243.908 367.035 267.146 354.729 281.529 335.123C307.994 299.048 274.599 264.323 241.863 264.164C227.52 264.095 221.048 267.526 214.16 271.177C209.29 273.758 204.213 276.45 196 278.092C185.056 280.28 170.111 277.968 153.68 275.425C133.39 272.286 110.836 268.797 90.7523 272.997C61.3695 279.142 17.6152 303.497 26.0074 342.695C31.1141 366.546 40.4836 371.222 52.5924 377.264C60.383 381.151 69.3074 385.605 78.96 396.095Z" fill="url(#paint1_linear_163_7155)"/>
<path d="M196.739 444.86C195.751 445.732 194.673 446.499 193.595 447.265C192.092 448.334 190.592 449.402 189.341 450.75C187.91 452.292 186.826 454.175 185.751 456.043C184.064 458.972 182.399 461.864 179.451 463.347C177.38 464.389 174.988 464.536 172.671 464.629C170.708 464.707 168.637 464.736 166.915 463.792C164.66 462.557 163.53 459.92 163.144 457.379C162.956 456.139 162.905 454.884 162.855 453.629C162.802 452.311 162.749 450.994 162.536 449.694C162.305 448.281 161.887 446.87 161.47 445.464C160.608 442.551 159.751 439.66 160.573 436.809C161.522 433.517 164.469 431.264 167.242 429.251C172.827 425.197 178.45 421.121 184.667 418.123C187.226 416.889 189.924 415.832 192.755 415.589C195.586 415.347 198.587 416 200.738 417.856C204.042 420.707 204.629 425.632 204.073 429.96C203.352 435.571 200.982 441.117 196.739 444.86Z" fill="url(#paint2_linear_163_7155)"/>
<path fill-rule="evenodd" clip-rule="evenodd" d="M78.1562 326.876C77.5543 323.512 79.8338 321.092 83.2474 321.47C86.6611 321.848 88.9406 324.268 88.3387 326.876C87.7368 329.484 85.4574 331.904 83.2474 332.282C81.0375 332.66 78.7581 330.239 78.1562 326.876ZM83.1374 322.464C80.3863 322.16 78.6571 323.996 79.1409 326.7C79.6576 329.587 81.5181 331.563 83.0789 331.296C84.8665 330.99 86.8481 328.886 87.364 326.651C87.8147 324.698 86.0106 322.782 83.1374 322.464Z" fill="#FFB61D"/>
<path fill-rule="evenodd" clip-rule="evenodd" d="M72.545 335.141C74.755 334.578 76.7029 336.872 76.8958 340.264C77.0888 343.657 75.4537 346.236 73.2437 346.027C71.0338 345.817 69.0858 343.523 68.8929 340.903C68.7 338.283 70.3351 335.703 72.545 335.141ZM75.8972 340.321C75.7353 337.475 74.2595 335.737 72.7919 336.11C71.0779 336.547 69.7317 338.67 69.8907 340.829C70.0498 342.99 71.6464 344.87 73.3384 345.031C74.8007 345.169 76.06 343.183 75.8972 340.321Z" fill="#FFB61D"/>
<path fill-rule="evenodd" clip-rule="evenodd" d="M91.9123 347.831C94.9706 347.663 96.6218 349.682 95.6004 352.341C94.5791 355 91.9596 357.292 89.7496 357.46C87.5397 357.628 85.8885 355.609 86.0615 352.95C86.2346 350.291 88.8541 347.999 91.9123 347.831ZM94.6667 351.982C95.4167 350.03 94.3295 348.7 91.9673 348.83C89.3902 348.972 87.1982 350.89 87.0599 353.015C86.9234 355.111 88.1251 356.58 89.6738 356.462C91.4643 356.326 93.7745 354.305 94.6667 351.982Z" fill="#FFB61D"/>
<path fill-rule="evenodd" clip-rule="evenodd" d="M104.755 333.274C107.388 332.761 109.35 334.642 109.139 337.473C108.928 340.305 106.965 343.016 104.755 343.528C102.545 344.041 100.582 342.16 100.371 339.329C100.16 336.497 102.123 333.786 104.755 333.274ZM108.142 337.399C108.305 335.207 106.912 333.873 104.946 334.256C102.822 334.669 101.194 336.918 101.369 339.254C101.538 341.527 102.984 342.912 104.529 342.554C106.277 342.149 107.961 339.823 108.142 337.399Z" fill="#FFB61D"/>
<path fill-rule="evenodd" clip-rule="evenodd" d="M214.719 356.166C217.928 356.166 221.018 358.182 221.271 360.668C221.139 363.154 218.169 365.17 214.987 365.17C211.805 365.17 209.317 363.154 209.301 360.668C209.142 358.182 211.511 356.166 214.719 356.166ZM214.719 357.667C212.374 357.667 210.767 358.973 210.795 360.478L210.801 360.659C210.812 362.254 212.586 363.669 214.987 363.669C217.406 363.669 219.522 362.245 219.754 360.766L219.762 360.704L219.751 360.642C219.447 359.156 217.276 357.724 214.864 357.669L214.719 357.667Z" fill="#FFB61D"/>
<path fill-rule="evenodd" clip-rule="evenodd" d="M180.086 361.766C182.632 360.193 185.084 361.536 185.285 364.981C185.18 368.558 182.824 371.831 180.299 372.266C177.774 372.701 175.8 371.11 175.787 368.733C175.661 366.418 177.54 363.339 180.086 361.766ZM183.782 365.001L183.778 364.94C183.608 362.747 182.431 362.082 180.875 363.043C178.826 364.309 177.264 366.802 177.282 368.532L177.288 368.725C177.295 370.169 178.43 371.065 180.044 370.787C181.804 370.484 183.633 367.894 183.778 365.093L183.782 365.001Z" fill="#FFB61D"/>
<g clip-path="url(#clip0_163_7155)">
<path d="M251.803 398.552C262.036 388.919 267.312 374.487 261.815 362.279C253.811 374.564 240.636 384.238 225.36 389.047C219.41 390.921 212.568 392.466 209.332 397.19C207.318 400.13 207.171 403.812 208.079 407.141C208.986 410.47 210.854 413.532 212.704 416.552L212.714 417.406C227.195 413.722 241.569 408.186 251.803 398.552Z" fill="#FFB61D"/>
<path d="M261.507 362.345C259.782 372.976 254.136 383.198 245.504 390.903C243.63 392.646 241.503 394.096 239.197 395.203C236.822 396.255 234.234 396.733 231.641 396.599C229.199 396.522 226.71 396.196 224.288 396.636C223.101 396.845 221.967 397.291 220.956 397.948C219.944 398.605 219.076 399.459 218.402 400.459C216.797 402.821 216.264 405.542 215.849 408.22C215.388 411.193 214.964 414.287 213.006 416.844C212.769 417.154 213.336 417.456 213.573 417.146C216.979 412.697 215.839 407.011 218.137 402.213C219.209 399.974 221.065 398.002 223.838 397.326C226.264 396.735 228.83 397.068 231.302 397.165C233.836 397.326 236.375 396.942 238.748 396.04C241.111 395.039 243.298 393.663 245.222 391.965C249.436 388.364 253.037 384.102 255.884 379.346C259.043 374.135 261.178 368.369 262.172 362.357C262.232 361.99 261.567 361.98 261.507 362.345V362.345Z" fill="#212121"/>
<path d="M248.461 388.526C250.219 389.616 252.272 390.13 254.336 389.998C256.399 389.867 258.37 389.095 259.975 387.791C260.279 387.529 259.825 387.107 259.521 387.369C258.029 388.585 256.193 389.304 254.272 389.423C252.35 389.542 250.44 389.056 248.809 388.034C248.465 387.813 248.119 388.307 248.461 388.526V388.526Z" fill="#212121"/>
<path d="M232.874 396.78C232.532 394.923 232.587 393.014 233.036 391.18C233.485 389.346 234.317 387.628 235.478 386.138C235.714 385.828 235.146 385.526 234.911 385.836C233.706 387.388 232.844 389.178 232.381 391.088C231.919 392.997 231.866 394.983 232.227 396.914C232.298 397.282 232.944 397.145 232.874 396.78Z" fill="#212121"/>
<path d="M258.2 373.98C257.475 373.721 256.827 373.281 256.319 372.702C255.812 372.123 255.46 371.424 255.298 370.671C255.233 370.303 254.586 370.44 254.652 370.805C254.834 371.636 255.223 372.408 255.782 373.049C256.342 373.69 257.054 374.179 257.853 374.472C257.928 374.51 258.015 374.522 258.098 374.504C258.181 374.487 258.256 374.442 258.31 374.377C258.332 374.345 258.347 374.308 258.354 374.269C258.36 374.231 258.358 374.191 258.348 374.153C258.337 374.115 258.319 374.08 258.293 374.05C258.268 374.02 258.236 373.996 258.2 373.98V373.98Z" fill="#212121"/>
<path d="M213.288 348.399C213.321 348.63 213.355 348.861 213.384 349.095C213.815 352.195 213.956 355.328 213.803 358.454C213.796 358.695 213.784 358.94 213.769 359.181C213.287 366.786 211.215 374.205 207.685 380.959C206.249 383.716 204.591 386.352 202.727 388.84C200.13 392.312 196.996 395.896 195.903 399.796C195.784 400.2 195.694 400.612 195.633 401.029L211.514 417.351C211.572 417.372 211.625 417.397 211.683 417.418L212.283 418.095C212.39 417.972 212.499 417.841 212.606 417.717C212.669 417.646 212.728 417.571 212.79 417.499C212.831 417.45 212.872 417.401 212.911 417.359C212.925 417.343 212.938 417.326 212.948 417.313C212.988 417.271 213.02 417.228 213.055 417.19C213.663 416.462 214.266 415.73 214.864 414.993C214.869 414.99 214.869 414.99 214.869 414.983C219.411 409.355 223.452 403.349 226.314 397C226.4 396.809 226.491 396.615 226.57 396.417C227.835 393.571 228.836 390.615 229.56 387.586C229.947 385.942 230.238 384.276 230.432 382.598C230.922 378.266 230.625 373.882 229.554 369.656C227.416 361.189 222.184 353.41 213.923 348.75C213.712 348.631 213.504 348.515 213.288 348.399Z" fill="#FFB61D"/>
<path d="M213.085 348.611C219.075 358.002 221.651 369.116 220.098 379.784C219.817 382.132 219.121 384.412 218.043 386.516C216.842 388.631 215.092 390.382 212.978 391.583C210.973 392.798 208.761 393.84 207.132 395.458C206.331 396.246 205.727 397.212 205.371 398.277C205.015 399.343 204.916 400.478 205.082 401.589C205.436 404.315 206.897 406.767 208.421 409.122C210.114 411.736 211.919 414.429 212.129 417.494C212.154 417.866 212.816 417.81 212.791 417.439C212.426 412.105 207.576 408.161 206.085 403.128C205.39 400.78 205.505 398.235 207.251 396.244C208.777 394.504 211.058 393.428 213.099 392.212C215.186 391.06 216.959 389.414 218.264 387.419C219.461 385.375 220.257 383.121 220.61 380.779C221.477 375.591 221.398 370.288 220.377 365.127C219.215 359.132 216.924 353.412 213.624 348.273C213.418 347.949 212.879 348.289 213.085 348.611V348.611Z" fill="#212121"/>
<path d="M220.813 376.339C225.163 376.3 228.875 373.464 229.496 369.73C229.558 369.362 228.902 369.262 228.841 369.63C228.259 373.129 224.816 375.727 220.749 375.764C220.322 375.768 220.388 376.343 220.813 376.339V376.339Z" fill="#212121"/>
<path d="M214.088 391.083C212.583 389.884 211.338 388.392 210.427 386.697C209.517 385.003 208.961 383.141 208.792 381.224C208.765 380.853 208.103 380.909 208.13 381.28C208.31 383.274 208.893 385.211 209.845 386.972C210.796 388.734 212.096 390.284 213.664 391.529C213.976 391.785 214.397 391.338 214.088 391.083V391.083Z" fill="#212121"/>
<path d="M218.508 359.63C217.704 359.794 216.874 359.777 216.077 359.583C215.28 359.389 214.536 359.021 213.898 358.506C213.59 358.247 213.169 358.694 213.475 358.952C214.183 359.518 215.005 359.923 215.885 360.14C216.765 360.356 217.682 360.379 218.572 360.206C218.748 360.171 218.888 360.06 218.871 359.89C218.855 359.809 218.809 359.737 218.741 359.688C218.674 359.64 218.59 359.619 218.508 359.631V359.63Z" fill="#212121"/>
<path d="M176.487 416.921C156.72 430.436 137.066 433.866 121.147 426.579C100.718 417.228 88.3431 391.483 87.1951 355.945L88.4053 356.058C89.5371 391.102 101.62 416.433 121.554 425.558C137.047 432.65 156.276 429.241 175.699 415.961L176.487 416.921Z" fill="#FFB61D"/>
<path d="M298.643 188.079C296.696 209.526 291.15 232.141 282.453 253.962C271.698 280.946 257.003 304.714 239.958 322.696L239.012 321.871C255.975 303.976 270.603 280.313 281.313 253.44C290.992 229.156 296.75 203.885 297.97 180.369L299.179 180.572C299.05 183.055 298.872 185.557 298.643 188.079Z" fill="#FFB61D"/>
<path d="M246.131 157.597L244.955 157.726C239.716 137.137 229.561 122.873 215.586 116.476C197.821 108.345 175.854 113.805 153.731 131.852C131.495 149.991 111.811 178.643 98.3045 212.53L97.1643 212.008C110.73 177.973 130.515 149.183 152.875 130.943C175.348 112.611 197.763 107.111 215.993 115.455C230.369 122.035 240.79 136.608 246.131 157.597Z" fill="#FFB61D"/>
<path d="M311.334 336.844C287.393 374.933 258.347 402.148 229.546 413.475L228.964 412.407C257.565 401.158 286.441 374.083 310.273 336.168L311.334 336.844Z" fill="#FFB61D"/>
<path d="M348.273 251.508C347.878 255.855 347.373 260.255 346.756 264.708L345.555 264.417C350.163 231.185 348.529 200.715 340.827 176.294L341.984 176.101C348.701 197.403 350.837 223.259 348.273 251.508Z" fill="#FFB61D"/>
<path d="M98.2144 218.491C95.1414 224.965 92.2185 231.671 89.5268 238.425C74.0372 277.287 66.1878 316.976 66.8292 353.203L65.6186 353.074C64.9765 316.713 72.8486 276.887 88.3866 237.903C91.0861 231.131 94.0173 224.405 97.0991 217.913L98.2144 218.491Z" fill="#FFB61D"/>
<path d="M175.905 443.623C156.138 457.138 136.485 460.568 120.565 453.282C100.136 443.931 87.7613 418.185 86.6133 382.647L87.8235 382.76C88.9553 417.804 101.038 443.136 120.972 452.26C136.465 459.352 155.694 455.943 175.117 442.663L175.905 443.623Z" fill="#FFB61D"/>
<path d="M298.061 214.782C296.115 236.229 290.569 258.845 281.872 280.665C271.116 307.65 256.422 331.417 239.377 349.399L238.431 348.574C255.394 330.679 270.021 307.016 280.732 280.144C290.411 255.859 296.168 230.588 297.389 207.072L298.597 207.275C298.469 209.758 298.29 212.261 298.061 214.782Z" fill="#FFB61D"/>
<path d="M295.929 185.781L294.754 185.91C289.515 165.321 279.36 151.058 265.385 144.661C247.62 136.529 225.653 141.99 203.53 160.037C181.294 178.175 161.61 206.827 148.103 240.715L146.963 240.193C160.529 206.157 180.314 177.367 202.674 159.128C225.146 140.796 247.562 135.295 265.792 143.64C280.167 150.22 290.589 164.792 295.929 185.781Z" fill="#FFB61D"/>
<path d="M309.766 372.932C285.824 411.021 256.778 438.236 227.977 449.563L227.395 448.494C255.996 437.246 284.872 410.17 308.704 372.255L309.766 372.932Z" fill="#FFB61D"/>
<path d="M347.691 278.211C347.297 282.558 346.791 286.958 346.174 291.412L344.974 291.121C349.582 257.888 347.947 227.418 340.245 202.998L341.402 202.804C348.12 224.106 350.255 249.963 347.691 278.211Z" fill="#FFB61D"/>
<path d="M97.6336 245.194C94.5606 251.668 91.6377 258.375 88.946 265.128C73.4564 303.991 65.607 343.68 66.2484 379.907L65.0378 379.777C64.3957 343.416 72.2678 303.59 87.8058 264.606C90.5053 257.834 93.4365 251.108 96.5183 244.616L97.6336 245.194Z" fill="#FFB61D"/>
<path d="M329.228 226.455C330.566 224.444 329.774 221.564 327.459 220.024C325.143 218.484 322.182 218.865 320.843 220.877C319.505 222.888 320.297 225.768 322.612 227.308C324.928 228.849 327.89 228.467 329.228 226.455Z" fill="#FD6584"/>
<path d="M175.41 252.097C178.212 247.803 182.788 244.428 187.883 244.143C192.978 243.858 199.102 248.197 201.617 252.662C206.217 260.829 204.221 268.682 197.885 274.363C197.024 274.071 194.02 273.189 193.146 272.907L192.591 271.906L191.907 272.515C184.077 273.296 176.513 272.426 170.62 266.591C171.352 261.514 172.608 256.391 175.41 252.097Z" fill="#2F2E41"/>
<path d="M196.404 309.422L195.479 318.007L196.024 329.265L171.088 326.303L168.745 309.422L171.73 309.452L196.404 309.422Z" fill="#FFB6B6"/>
<path d="M186.166 272.323C191.884 272.323 196.52 267.687 196.52 261.968C196.52 256.25 191.884 251.614 186.166 251.614C180.447 251.614 175.812 256.25 175.812 261.968C175.812 267.687 180.447 272.323 186.166 272.323Z" fill="#FFB7B7"/>
<path d="M167.759 305.392L167.739 305.281L167.671 305.19L167.671 305.19L167.671 305.19L167.671 305.189L167.667 305.185L167.653 305.165C167.64 305.147 167.62 305.119 167.594 305.082C167.542 305.009 167.466 304.899 167.372 304.756C167.183 304.47 166.921 304.053 166.631 303.534C166.051 302.493 165.366 301.052 164.935 299.439C164.504 297.825 164.334 296.062 164.753 294.362C165.169 292.674 166.174 291.013 168.158 289.596L168.206 289.561L168.244 289.516L175.007 281.577L180.773 278.118L192.376 276.958L202.461 282.093L202.358 298.001L195.883 314.469L168.755 311.006L167.759 305.392Z" fill="white" stroke="black" stroke-width="0.95943"/>
<path d="M182.295 246.243C184.538 245.614 186.91 245.599 189.161 246.201C191.412 246.802 193.46 247.997 195.092 249.66C196.723 251.324 197.877 253.396 198.434 255.658C198.991 257.921 198.93 260.292 198.256 262.522C191.95 263.026 185.717 262.437 180.803 257.975L180.366 254.148L178.573 257.351C176.765 256.842 174.953 256.33 173.139 255.815C173.694 253.558 174.832 251.486 176.438 249.806C178.045 248.126 180.065 246.898 182.295 246.243V246.243Z" fill="#2F2E41"/>
<path d="M139.131 232.826C138.85 233.424 138.704 234.077 138.703 234.739C138.702 235.4 138.845 236.053 139.124 236.653C139.403 237.253 139.81 237.784 140.316 238.209C140.822 238.635 141.415 238.944 142.054 239.115L161.346 275.515L169.132 269.505L147.721 235.615C147.938 234.523 147.746 233.389 147.183 232.429C146.619 231.469 145.724 230.749 144.665 230.405C143.606 230.061 142.458 230.118 141.438 230.564C140.418 231.01 139.597 231.815 139.131 232.826H139.131Z" fill="#FFB6B6"/>
<path d="M170.463 287.45L170.462 287.45C170.462 287.45 170.462 287.45 170.462 287.451C170.458 287.454 170.448 287.461 170.433 287.471C170.402 287.49 170.352 287.519 170.283 287.546C170.148 287.598 169.938 287.644 169.656 287.589C169.092 287.478 168.104 286.923 166.86 284.781C166.445 284.066 165.696 282.85 164.759 281.328C164.539 280.971 164.308 280.596 164.069 280.207C162.809 278.158 161.306 275.701 159.823 273.184C158.339 270.667 156.877 268.094 155.697 265.814C154.512 263.523 153.631 261.564 153.286 260.26L153.189 259.892L152.809 259.903C152.127 259.922 151.458 259.714 150.908 259.311C150.475 258.995 150.135 258.572 149.918 258.088L160.18 254.105C161.112 254.619 161.365 255.16 161.402 255.584C161.444 256.081 161.205 256.589 160.929 256.979L160.739 257.248L160.922 257.522L164.982 263.613L165.001 263.641L165.023 263.666L178.255 278.515L171.745 286.353L170.464 287.449C170.464 287.449 170.464 287.449 170.463 287.449C170.463 287.45 170.463 287.45 170.463 287.45L170.463 287.45Z" fill="white" stroke="black" stroke-width="0.95943"/>
<path d="M355.077 476.018H33.885C33.729 476.018 33.5794 475.956 33.4691 475.846C33.3588 475.736 33.2969 475.586 33.2969 475.43C33.2969 475.274 33.3588 475.125 33.4691 475.014C33.5794 474.904 33.729 474.842 33.885 474.842H355.077C355.233 474.842 355.383 474.904 355.493 475.014C355.604 475.125 355.666 475.274 355.666 475.43C355.666 475.586 355.604 475.736 355.493 475.846C355.383 475.956 355.233 476.018 355.077 476.018Z" fill="#2F2E41"/>
<path d="M278.182 147.8C272.385 142.086 264.643 138.933 256.88 136.915C248.092 134.631 239.005 133.286 230.027 131.995C220.671 130.65 211.278 129.612 201.848 128.883C192.43 128.156 182.995 127.741 173.543 127.636C165.121 127.541 156.642 127.538 148.261 128.473C140.367 129.353 132.492 131.119 125.375 134.745C119.04 137.903 113.718 142.774 110.013 148.806C106.607 154.42 104.582 161.15 105.286 167.749C105.617 170.999 106.628 174.143 108.256 176.975C110.163 180.104 112.594 182.883 115.443 185.19C121.323 190.156 128.354 193.785 133.412 199.687C134.748 201.233 135.915 202.917 136.893 204.711C137.628 206.071 138.454 207.242 139.82 208.036C141.04 208.732 142.438 209.051 143.839 208.954C145.24 208.856 146.58 208.346 147.692 207.487C149.267 206.25 150.399 204.344 151.618 202.775L155.871 197.303C156.178 196.812 156.534 196.354 156.934 195.935C157.22 195.698 156.747 195.906 156.841 195.847C156.893 195.815 156.983 195.833 157.04 195.81C157.323 195.729 157.613 195.675 157.907 195.649C161.012 195.078 164.123 194.544 167.241 194.047C178.754 192.189 190.342 190.657 201.978 189.831C207.976 189.352 213.996 189.208 220.009 189.401C227.786 189.719 235.454 191.263 243.202 191.929C251.543 192.646 260.305 192.547 268.165 189.331C274.456 186.756 280.298 182.425 283.704 176.443C285.32 173.614 286.278 170.457 286.506 167.206C286.921 159.833 283.336 152.881 278.182 147.8Z" fill="#00160A"/>
<path d="M168.907 133.678C167.423 133.678 165.941 133.686 164.459 133.701C150.233 133.852 135.529 135.003 124.372 142.336C114.468 148.845 107.528 163.344 113.401 173.742C116.099 178.517 120.986 181.992 126.16 185.671C128.188 187.114 130.285 188.605 132.295 190.211C136.685 193.72 140.82 198.429 143.199 203.723L153.646 190.279L155.619 189.901C157.518 189.537 202.399 181.027 226.302 183.79C228.5 184.044 230.722 184.337 232.871 184.619C242.581 185.897 251.753 187.103 260.558 185.322C269.75 183.462 279.843 176.363 280.444 166.869C280.855 160.37 276.627 153.24 269.672 148.705C262.64 144.12 253.87 142.227 245.489 140.68C220.227 136.026 194.594 133.682 168.907 133.678V133.678Z" fill="white"/>
<path d="M249.982 154.364H149.093C148.511 154.364 147.953 154.133 147.541 153.721C147.129 153.31 146.898 152.751 146.898 152.169C146.898 151.587 147.129 151.029 147.541 150.617C147.953 150.205 148.511 149.974 149.093 149.974H249.982C250.564 149.974 251.123 150.205 251.534 150.617C251.946 151.029 252.177 151.587 252.177 152.169C252.177 152.751 251.946 153.31 251.534 153.721C251.123 154.133 250.564 154.364 249.982 154.364V154.364Z" fill="#444444"/>
<path d="M249.982 167.839H149.093C148.511 167.839 147.953 167.608 147.541 167.196C147.129 166.784 146.898 166.226 146.898 165.644C146.898 165.062 147.129 164.503 147.541 164.092C147.953 163.68 148.511 163.449 149.093 163.449H249.982C250.564 163.449 251.123 163.68 251.534 164.092C251.946 164.503 252.177 165.062 252.177 165.644C252.177 166.226 251.946 166.784 251.534 167.196C251.123 167.608 250.564 167.839 249.982 167.839V167.839Z" fill="#444444"/>
<path d="M160.85 181.312H149.093C148.511 181.312 147.953 181.081 147.541 180.67C147.129 180.258 146.898 179.7 146.898 179.117C146.898 178.535 147.129 177.977 147.541 177.565C147.953 177.154 148.511 176.922 149.093 176.922H160.85C161.432 176.922 161.991 177.154 162.402 177.565C162.814 177.977 163.045 178.535 163.045 179.117C163.045 179.7 162.814 180.258 162.402 180.67C161.991 181.081 161.432 181.312 160.85 181.312Z" fill="#444444"/>
<path d="M142.622 233.966C147.775 233.966 151.952 229.788 151.952 224.636C151.952 219.483 147.775 215.306 142.622 215.306C137.469 215.306 133.292 219.483 133.292 224.636C133.292 229.788 137.469 233.966 142.622 233.966Z" fill="#E6E6E6"/>
<path d="M115.475 339.367C116.814 337.355 116.022 334.476 113.706 332.935C111.391 331.395 108.429 331.777 107.091 333.788C105.753 335.8 106.545 338.679 108.86 340.22C111.175 341.76 114.137 341.378 115.475 339.367Z" fill="#F2F2F2"/>
<path d="M315.661 338.731C316.999 336.72 316.207 333.84 313.892 332.3C311.576 330.759 308.615 331.141 307.276 333.153C305.938 335.164 306.73 338.044 309.046 339.584C311.361 341.124 314.323 340.742 315.661 338.731Z" fill="#E6E6E6"/>
<path d="M240.091 266.126C241.43 264.114 240.638 261.235 238.322 259.694C236.007 258.154 233.045 258.536 231.707 260.547C230.369 262.559 231.161 265.438 233.476 266.978C235.791 268.519 238.753 268.137 240.091 266.126Z" fill="#E6E6E6"/>
<path d="M209.338 465.29H203.886L201.292 444.262H209.338V465.29Z" fill="#FFB6B6"/>
<path d="M212.216 474.736H208.306L207.608 471.045L205.821 474.736H195.452C194.955 474.736 194.471 474.577 194.07 474.283C193.67 473.988 193.374 473.573 193.226 473.099C193.078 472.624 193.086 472.115 193.248 471.645C193.41 471.175 193.718 470.769 194.127 470.487L202.408 464.768V461.036L211.118 461.556L212.216 474.736Z" fill="#2F2E41"/>
<path d="M178.715 465.29H173.263L170.669 444.262H178.715V465.29Z" fill="#FFB6B6"/>
<path d="M181.592 474.736H177.683L176.985 471.045L175.197 474.736H164.828C164.331 474.736 163.847 474.577 163.447 474.283C163.046 473.988 162.751 473.573 162.603 473.099C162.455 472.624 162.462 472.115 162.624 471.645C162.787 471.175 163.095 470.769 163.504 470.487L171.784 464.768V461.036L180.494 461.556L181.592 474.736Z" fill="#2F2E41"/>
<path d="M211.152 447.171L211.166 447.636H211.631H211.69C211.945 447.636 212.19 447.738 212.37 447.918C212.55 448.098 212.651 448.343 212.651 448.598C212.651 448.852 212.55 449.097 212.37 449.277C212.19 449.457 211.945 449.559 211.69 449.559L201.029 449.559L201.028 449.559C200.834 449.559 200.645 449.501 200.485 449.392C200.326 449.283 200.203 449.128 200.133 448.947C200.063 448.767 200.049 448.57 200.094 448.381C200.139 448.193 200.239 448.023 200.383 447.893L200.582 447.712L200.532 447.448L192.724 406.485L192.723 406.48L185.079 368.664L184.13 368.728L182.111 399.48L182.111 399.48L181.674 406.317L181.672 406.341L181.673 406.365L181.884 412.369L179.975 445.339L179.927 446.171L180.671 445.795L181.53 445.36C181.626 445.336 181.761 445.352 181.921 445.463C182.094 445.583 182.265 445.798 182.365 446.087L182.819 445.931L182.365 446.088C182.465 446.377 182.463 446.651 182.4 446.853C182.349 447.02 182.266 447.115 182.184 447.161L169.099 447.616L169.027 447.619L168.959 447.642C168.862 447.676 168.718 447.667 168.545 447.546C168.371 447.426 168.2 447.212 168.1 446.922C168 446.632 168.002 446.358 168.065 446.157C168.127 445.955 168.235 445.859 168.332 445.825L168.362 445.815L168.392 445.8L168.545 445.723L168.861 445.563L168.801 445.213C163.193 412.708 162.549 379.152 166.081 344.709L171.324 326.695H195.724C195.738 326.708 195.753 326.722 195.769 326.737C195.886 326.847 196.06 327.014 196.28 327.234C196.722 327.675 197.351 328.332 198.096 329.191C199.586 330.911 201.539 333.44 203.384 336.669C207.074 343.128 210.322 352.372 208.596 363.559L208.589 363.602L208.59 363.646L209.568 395.54L209.571 395.63L209.606 395.713C210.495 397.804 210.715 400.119 210.236 402.34L209.846 404.145L209.808 404.32L209.895 404.478L210.045 404.749L210.046 404.75C210.722 405.97 211.086 407.339 211.105 408.734C211.125 410.129 210.799 411.507 210.157 412.745L210.099 412.856L210.103 412.981L211.152 447.171Z" fill="white" stroke="black" stroke-width="0.95943"/>
<path d="M200.056 351.556C200.619 351.209 201.099 350.743 201.463 350.191C201.826 349.638 202.064 349.013 202.16 348.359C202.255 347.704 202.206 347.037 202.016 346.404C201.826 345.771 201.499 345.187 201.059 344.693L204.88 303.675L195.073 304.432L194.401 344.514C193.621 345.308 193.16 346.361 193.104 347.473C193.049 348.585 193.403 349.679 194.1 350.547C194.798 351.415 195.789 351.997 196.886 352.183C197.984 352.369 199.112 352.146 200.056 351.556V351.556Z" fill="#FFB6B6"/>
<path d="M202.64 282.439L202.64 282.439L202.641 282.439C202.641 282.439 202.642 282.439 202.642 282.439C202.647 282.439 202.659 282.438 202.677 282.438C202.713 282.439 202.772 282.442 202.844 282.458C202.985 282.488 203.187 282.565 203.391 282.765C203.802 283.168 204.325 284.173 204.191 286.647C204.129 287.782 204.166 290.547 204.212 294.047C204.249 296.833 204.292 300.085 204.297 303.354C204.302 307.056 204.258 310.791 204.103 313.931C203.946 317.095 203.678 319.588 203.257 320.85L203.136 321.211L203.46 321.41C204.041 321.768 204.487 322.309 204.726 322.948C204.914 323.45 204.967 323.989 204.883 324.514L194.116 322.219C193.567 321.206 193.357 320.207 193.376 319.427C193.387 319.013 193.462 318.679 193.57 318.442C193.679 318.202 193.803 318.101 193.891 318.066L194.198 317.945L194.195 317.616L194.139 310.296L194.138 310.272L194.136 310.249L191.645 286.479L200.989 282.651L202.64 282.439C202.64 282.439 202.64 282.439 202.64 282.439Z" fill="white" stroke="black" stroke-width="0.95943"/>
</g>
<defs>
<linearGradient id="paint0_linear_163_7155" x1="158.029" y1="255.036" x2="158.029" y2="464.664" gradientUnits="userSpaceOnUse">
<stop stop-color="#64FCD9"/>
<stop offset="1" stop-color="#1095D4"/>
</linearGradient>
<linearGradient id="paint1_linear_163_7155" x1="158.029" y1="255.036" x2="158.029" y2="464.664" gradientUnits="userSpaceOnUse">
<stop stop-color="#64FCD9"/>
<stop offset="1" stop-color="#1095D4"/>
</linearGradient>
<linearGradient id="paint2_linear_163_7155" x1="158.029" y1="255.036" x2="158.029" y2="464.664" gradientUnits="userSpaceOnUse">
<stop stop-color="#64FCD9"/>
<stop offset="1" stop-color="#1095D4"/>
</linearGradient>
<clipPath id="clip0_163_7155">
<rect width="322.369" height="364.363" fill="white" transform="translate(33.2969 111.655)"/>
</clipPath>
</defs>
</svg>
