<svg width="375" height="548" viewBox="0 0 375 548" fill="none" xmlns="http://www.w3.org/2000/svg">
<rect x="152.548" y="510.899" width="33.5801" height="10.5537" rx="5.27686" fill="#26D0D2"/>
<rect x="192.845" y="510.898" width="10.5537" height="10.5537" rx="5.27686" fill="#AAF5FF"/>
<rect x="210.114" y="510.898" width="10.5537" height="10.5537" rx="5.27686" fill="#AAF5FF"/>
<path fill-rule="evenodd" clip-rule="evenodd" d="M229.04 420.396C264.712 420.396 296.016 393.655 278.436 357.333C260.855 321.011 326.178 322.184 345.366 297.081C368.767 266.467 361.99 136.514 211.765 215.739C187.701 228.43 125.899 202.683 105.399 215.459C81.268 230.496 47.3176 261.289 81.268 292.831C97.9914 308.369 38.0343 348.696 64.2943 384.819C89.9175 420.066 107.879 386.465 146.89 393.655C185.901 400.844 202.547 420.396 229.04 420.396Z" fill="url(#paint0_linear_163_7156)"/>
<path d="M187.636 357.207C187.636 357.207 195.85 353.313 198.916 350.604C201.983 347.895 205.795 341.165 205.795 341.165C205.795 341.165 247.669 371.642 274.973 367.295C281.264 366.293 293.522 362.079 294.304 354.654C296.438 334.379 266.905 329.198 273.356 318.916C277.294 312.64 289.527 321.98 289.527 321.98L340.264 347.131C340.264 347.131 322.735 390.675 280.199 392.42C227.873 394.567 187.636 357.207 187.636 357.207Z" fill="white"/>
<path fill-rule="evenodd" clip-rule="evenodd" d="M147.41 186.677C146.934 186.489 144.377 183.333 141.13 182.759C139.655 182.498 140.994 184.391 139.37 184.408C134.534 184.459 126.675 183.543 125.219 184.408C124.137 185.049 126.52 187.287 125.219 187.39C112.945 188.36 94.2201 200.71 90.1576 206.702C88.8647 208.609 99.3213 205.374 97.6553 206.317C95.7853 207.375 93.7114 214.303 92.4715 219.654C91.613 223.339 91.0726 228.081 90.8818 233.24C90.7228 237.693 90.7864 238.43 91.4223 240.866C92.1535 243.589 92.7258 244.39 93.7114 244.006C94.0612 243.877 94.2201 243.397 94.2201 242.5C94.2201 241.795 94.6017 239.68 95.0786 237.79L95.9052 234.393L96.255 235.803C96.7001 237.437 99.3072 242.5 101.66 246.184C101.787 246.38 102.333 246.131 102.825 244.932C103.274 243.839 103.092 242.093 103.854 240.222C105.59 235.96 108.998 230.419 112.945 225.983C118.778 219.428 120.714 211.841 126.181 205.751C136.386 194.386 149.193 187.383 147.41 186.677Z" fill="white"/>
<path fill-rule="evenodd" clip-rule="evenodd" d="M97.8003 207.863C96.1634 209.19 93.7335 219.95 93.6919 220.129C92.8334 223.814 92.006 236.61 92.8518 239.033C93.6976 241.455 96.0661 232.722 96.0661 232.722C96.0661 232.722 99.646 242.091 102.809 244.659C102.944 244.769 99.0493 233.069 97.8003 226.238C96.1515 217.222 98.7319 207.108 97.8003 207.863Z" fill="#E7EAEE"/>
<path fill-rule="evenodd" clip-rule="evenodd" d="M158.812 396.307C161.865 395.634 167.014 393.291 168.986 392.49C170.958 391.688 176.967 383.138 179.129 373.493C180.686 366.38 181.481 356.255 180.591 354.557C180.46 354.316 179.979 349.712 181.259 351.215C184.105 354.557 187.483 359.803 198.141 350.402C201.044 347.842 204.892 344.537 203.879 341.616C201.044 333.442 188.756 316.983 186.883 315.736C184.643 314.246 173.323 315.512 156.476 310.501C137.37 304.818 129.414 288.083 121.937 290.261C115.891 292.023 101.404 302.85 97.7678 309.706C80.6033 342.073 101.404 364.753 106.141 371.267L110.74 373.269L110.899 377.402L111.121 379.998C111.535 384.964 111.694 385.413 113.919 387.079C119.483 391.341 130.452 395.314 140.372 396.724C144.982 397.364 154.997 397.14 158.812 396.307Z" fill="white"/>
<path fill-rule="evenodd" clip-rule="evenodd" d="M112.549 375.889L112.771 378.485C113.185 383.451 113.344 383.9 115.569 385.566C118.852 388.08 124.015 390.494 129.734 392.34C133.71 393.623 137.954 394.632 142.022 395.21C146.632 395.851 156.647 395.627 160.462 394.794C162.348 394.382 146.836 382.1 137.698 385.566C130.68 388.227 114.139 367.927 120.864 362.624C128.409 356.674 114.584 333.209 114.139 328.114C113.694 323.02 111.941 321.803 111.89 321.982C111.839 322.16 111.839 322.77 111.977 324.238C112.57 330.569 112.549 375.889 112.549 375.889Z" fill="#E7EAEE"/>
<path fill-rule="evenodd" clip-rule="evenodd" d="M110.892 326.66C111.56 326.529 112.206 326.968 112.336 327.641C114.736 340.065 124.886 348.476 143.035 352.874C161.293 357.299 173.729 357.06 180.282 352.337C180.835 351.939 180.422 355.353 180.017 355.614C175.743 358.377 161.213 362.498 143.873 358.773C121.702 354.01 111.292 335.222 109.919 328.115C109.789 327.442 110.225 326.791 110.892 326.66Z" fill="#FFB61D"/>
<path fill-rule="evenodd" clip-rule="evenodd" d="M101.647 304.244C102.237 303.904 124.258 329.338 154.478 335.096C184.698 340.853 192.015 337.191 193.191 329.338C193.293 328.661 193.92 328.194 194.592 328.297C195.265 328.399 195.728 329.031 195.626 329.709C194.135 339.661 180.152 342.028 154.064 337.542C128.303 333.112 110.642 322.586 101.19 305.938C100.852 305.343 101.057 304.585 101.647 304.244Z" fill="#FFB61D"/>
<path fill-rule="evenodd" clip-rule="evenodd" d="M228.486 302.834C227.659 302.546 226.769 301.905 226.196 301.168L225.243 299.982L228.613 296.618C233.795 291.491 237.769 286.236 241.203 279.988C242.348 277.906 245.241 270.953 245.241 270.28C245.241 270.055 245.591 269.158 246.004 268.229C246.64 266.883 247.117 266.371 248.484 265.602C250.105 264.64 251.949 264.32 252.744 264.865C254.27 265.89 254.27 269.126 252.744 274.702C251.059 280.821 248.802 285.211 244.128 291.523C243.397 292.485 242.03 294.375 241.044 295.689C238.405 299.213 236.688 300.912 234.367 302.225C232.078 303.507 230.743 303.667 228.486 302.834ZM251.314 299.95L253.603 300.976C254.077 301.196 259.314 303.732 265.604 306.778C275.745 311.689 288.625 317.926 288.703 317.926C288.83 317.926 289.427 316.535 289.562 314.914C289.88 311.421 291.056 306.679 292.423 303.379C293.059 301.905 293.568 300.063 293.568 299.903C293.568 299.829 293.051 299.619 292.205 299.275C291.197 298.866 289.723 298.267 288.099 297.483C280.087 293.606 264.413 285.692 262.473 284.506C260.566 283.385 260.184 283.289 260.184 284.026C260.184 284.987 258.245 289.441 256.75 291.844C255.956 293.157 254.398 295.529 253.285 297.099L251.314 299.95ZM288.163 312.158C289.074 312.691 287.495 313.472 287.113 313.6C284.867 313.792 282.222 313.367 280.055 312.094C278.922 311.284 270.001 306.289 264.083 302.976C261.377 301.461 259.299 300.298 258.881 300.046C257.545 299.245 256.273 298.38 256.051 298.124C255.383 297.259 256.019 296.874 257.895 297.035C259.023 297.131 286.193 311.008 288.163 312.158ZM158.921 396.043C161.373 395.502 165.18 393.883 167.604 392.852C168.197 392.6 168.707 392.383 169.095 392.226C171.066 391.424 177.075 382.874 179.237 373.229C180.795 366.116 181.59 355.991 180.699 354.293C180.163 353.309 183.352 356.609 185.726 359.066L185.726 359.066C186.446 359.811 187.091 360.478 187.535 360.925C201.397 374.799 222.031 385.95 243.461 391.173C254.143 393.8 261.742 394.729 271.948 394.729C289.085 394.729 302.597 391.333 314.87 383.867C315.453 383.513 315.999 383.187 316.52 382.876C320.798 380.324 323.346 378.803 330.321 370.89C338.146 362.015 345.106 341.412 347.427 334.299C348.444 331.095 350.924 318.35 350.924 315.17C350.924 311.405 349.62 309.627 347.84 307.8C344.692 304.692 340.432 303.571 336.903 304.917L335.249 305.558L334.741 303.859C334.009 301.296 332.483 299.245 330.131 297.707C326.633 295.368 326.125 295.208 322.977 295.208C320.529 295.208 319.861 295.336 318.303 296.073L316.491 296.906L316.11 295.753C315.378 293.382 312.925 290.076 311.023 289.12C309.335 288.272 306.413 288.194 304.378 288.575C299.926 289.409 296.747 291.491 295.444 294.407C295.062 295.304 294.585 296.009 294.394 296.009C294.235 296.009 287.972 294.246 280.5 290.914C279.24 290.35 278.056 289.821 276.945 289.325C263.527 283.331 260.619 282.032 260.884 280.405C261.106 279.027 261.043 278.258 260.661 277.073C259.993 275.086 259.23 274.541 257.068 274.541C255.351 274.541 255.351 274.541 255.542 273.676C256.56 268.774 256.528 265.954 255.447 264.16C254.716 262.974 253.857 262.494 251.886 262.205C250.741 262.045 250.201 262.141 248.929 262.846C248.071 263.295 247.339 263.615 247.276 263.551C247.212 263.487 247.435 261.725 247.785 259.642C250.392 244.23 248.378 230.951 241.733 216.853C241.669 216.718 241.595 216.559 241.511 216.377L241.511 216.376C239.491 212.005 231.368 194.43 208.138 185.562C207.086 185.16 206.091 184.772 205.135 184.399C197.222 181.312 191.961 179.26 179.269 179.282C165.042 179.305 160.224 181.332 150.845 185.658C149.541 186.267 148.397 186.619 148.301 186.491C148.206 186.331 147.602 185.946 146.998 185.626C146.394 185.305 145.09 184.504 144.136 183.863C141.402 182.005 139.717 181.236 138.859 181.428C137.873 181.685 137.873 182.518 138.859 182.902C139.272 183.062 139.749 183.607 139.94 184.152C140.353 185.305 140.83 185.434 141.116 184.472C141.243 184.12 141.434 183.863 141.529 183.928C141.566 183.946 141.687 184.003 141.871 184.09C142.336 184.309 143.204 184.719 144.136 185.177C145.44 185.818 146.871 186.491 147.252 186.651C147.952 186.907 147.729 187.1 144.709 188.894C132.913 195.879 123.311 206.741 117.938 219.109C117.112 220.968 116.38 222.121 115.617 222.762C113.678 224.396 109.863 229.042 108.972 230.869C108.496 231.862 107.478 233.4 106.683 234.297C105.92 235.194 105.094 236.348 104.807 236.828C104.553 237.341 104.299 237.693 104.203 237.629C104.14 237.533 104.235 235.963 104.458 234.137C104.935 229.875 104.935 228.754 104.553 228.658C103.981 228.497 103.154 230.74 102.804 233.528C102.55 235.226 102.486 237.79 102.645 240.417L102.836 244.582L100.579 240.898C99.8022 239.665 99.0375 238.432 98.4946 237.557L98.4936 237.556L98.4927 237.554L98.4926 237.554L98.4925 237.554L98.4908 237.551C98.1465 236.996 97.892 236.586 97.781 236.412C96.9543 235.194 96.4774 233.368 96.8272 232.759C97.0179 232.407 96.9861 232.246 96.6682 232.246C96.0005 232.246 94.697 234.393 93.8385 236.86C93.4252 238.014 93.0119 238.975 92.8847 238.975C92.4078 238.975 92.6304 227.504 93.1391 223.819C94.1883 216.546 96.9543 207.574 98.1943 207.574C98.4487 207.574 98.6712 207.446 98.6712 207.254C98.6712 206.677 97.8446 206.901 97.1769 207.638C95.6826 209.272 93.7114 214.303 92.4714 219.654C91.613 223.339 91.0725 228.081 90.8817 233.24C90.7227 237.693 90.7863 238.43 91.4222 240.866C92.1535 243.589 92.7258 244.39 93.7114 244.006C94.0611 243.877 94.2201 243.397 94.2201 242.5C94.2201 241.795 94.6016 239.68 95.0785 237.79L95.9051 234.393L96.2549 235.803C96.7 237.437 99.3071 242.5 101.66 246.184C103.281 248.684 103.313 248.844 103.854 252.753C104.14 254.964 105.03 260.341 107.097 268.614C108.923 275.923 119.188 283.173 121.751 284.983C122.089 285.222 122.293 285.366 122.326 285.403C122.644 285.756 123.089 285.948 123.343 285.852C123.629 285.756 123.788 285.884 123.788 286.236C123.788 286.557 124.011 286.973 124.265 287.166C124.583 287.39 124.806 288.255 124.869 289.761C125.028 292.773 127.254 298.54 128.971 300.431C130.084 301.648 132.405 302.161 134.98 301.713C136.665 301.456 137.142 301.264 136.983 300.879C136.887 300.623 137.492 300.944 138.318 301.584C147.984 309.018 157.776 313.472 168.777 315.394C173.037 316.131 180.095 316.548 183.942 316.259C187.344 316.035 187.344 316.035 187.185 316.708C186.963 317.605 187.249 318.15 191.923 326.128C195.643 332.44 195.96 332.857 200.094 337.119C208.869 346.25 218.439 353.332 229.28 358.811C239.486 363.937 255.781 368.199 270.676 369.545C285.572 370.89 296.27 357.113 296.238 353.588C296.175 348.75 295.507 345.578 293.886 342.502C292.296 339.522 291.247 338.496 286.478 335.292C281.168 331.736 277.893 328.82 275.731 325.712C274.364 323.757 273.855 321.546 273.855 320.361C273.855 319.592 274.841 317.862 276.304 317.509C277.639 317.157 277.893 317.189 279.388 317.926C280.278 318.342 282.599 319.432 284.506 320.361C286.446 321.258 288.322 322.155 288.703 322.347C289.828 322.662 290.304 324.881 290.561 326.084C290.619 326.352 290.666 326.57 290.706 326.705C291.151 328.371 293.258 330.522 294.617 331.255C297.004 332.541 302.884 332.713 304.505 330.951C304.919 330.502 306.289 329.951 306.571 330.118C306.854 330.285 307.875 331.671 307.875 332.793C307.907 334.715 308.892 336.478 310.991 338.24C314.965 341.572 318.049 342.373 321.165 340.899C322.786 340.13 324.115 339.83 324.115 339.83C324.115 339.83 325.441 341.534 325.521 342.117C326.145 346.67 332.833 348.578 334.613 348.77C335.022 348.811 335.816 348.635 336.622 348.457L336.622 348.457C337.701 348.218 338.802 347.974 339.033 348.237C339.487 348.753 331.434 362.175 330.321 363.873C319.734 379.894 299.132 389.699 273.919 390.724C257.545 391.397 237.42 386.783 219.965 378.388C208.805 372.973 198.917 366.34 188.33 357.048C186.486 355.446 184.356 353.62 183.593 352.979C182.83 352.37 181.017 350.288 179.618 348.365C177.266 345.161 175.93 344.007 175.93 345.097C175.93 345.578 177.456 348.525 179.205 351.441C179.905 352.595 180.35 353.396 180.191 353.268C180.032 353.139 179.523 355.446 179.046 358.394C177.488 367.846 174.913 377.171 172.306 382.97C170.875 386.11 168.132 388.455 167.305 389.096C164.253 391.435 159.684 392.486 153.357 393.127C145.345 393.928 133.549 392.134 124.551 388.738C122.167 387.84 116.031 385.245 115.617 384.957C115.593 384.932 115.452 384.011 115.256 382.727L115.256 382.726L115.255 382.726L115.255 382.725L115.255 382.725L115.255 382.725L115.255 382.724L115.255 382.724C115.2 382.361 115.14 381.969 115.077 381.56C113.932 373.646 112.343 343.174 112.343 329.076C112.343 323.245 112.279 321.963 111.897 321.963C111.103 321.963 110.785 322.732 110.435 325.487C109.64 331.768 109.799 364.546 110.658 371.435L110.848 373.005L109.767 372.396C108.114 371.435 101.819 364.995 99.625 362.015C97.7678 359.467 96.664 356.205 95.8381 353.764C95.6461 353.196 95.469 352.673 95.3011 352.213C90.6909 339.332 92.3124 324.879 98.6712 311.87C104.076 300.783 110.721 294.631 120.45 291.651C122.04 291.171 123.439 290.658 123.598 290.53C124.202 289.953 120.323 290.242 118.193 290.915C111.262 293.061 104.013 298.925 99.0845 306.423C92.1535 316.932 89.0377 332.44 91.2314 345.674C91.7401 348.814 93.8067 355.607 94.379 356.087C94.4297 356.138 94.6912 356.691 95.0867 357.527C96.1802 359.839 98.2981 364.317 99.8158 366.34C101.66 368.872 107.224 374.383 109.545 376.081L111.007 377.139L111.23 379.734C111.643 384.7 111.802 385.149 114.028 386.815C119.592 391.077 130.56 395.05 140.48 396.46C145.09 397.1 155.105 396.876 158.921 396.043ZM266.384 365.956C247.912 364.322 225.592 355.446 209.441 341.732C202.637 335.932 193.798 324.654 190.301 318.406C189.57 317.125 189.029 316.516 188.394 316.356C187.726 316.163 188.298 315.971 191.032 315.522C202.574 313.536 213.797 308.698 222.858 301.809L224.193 300.815L224.575 301.745C225.433 303.827 228.74 305.942 231.188 305.942C232.174 305.942 235.48 304.436 237.483 303.058L238.85 302.129L239.963 303.251C240.981 304.276 241.171 304.34 243.079 304.34C245.273 304.34 247.912 303.347 249.374 301.937L250.169 301.2L252.426 302.706C253.635 303.571 257.005 305.461 259.898 306.967C264.222 309.21 268.8 311.806 273.156 314.497L273.855 314.946L273.188 315.843C272.488 316.804 271.185 318.631 271.185 321.418C271.185 324.558 274.425 330.2 280.628 334.075C285.5 337.119 293.886 343.106 293.568 351.858C293.529 352.915 292.359 355.542 290.802 357.914C289.784 359.419 286.955 361.662 284.379 362.976C279.992 365.187 272.266 366.469 266.384 365.956ZM96.859 222.121C97.7174 222.313 98.2897 222.602 98.1625 222.73C97.7492 223.146 95.5554 222.954 95.0467 222.442C94.2519 221.673 94.4426 221.128 95.5554 220.904C96.1277 220.807 96.9861 220.327 97.4631 219.846C97.94 219.366 98.3533 219.141 98.3533 219.301C98.3533 219.718 96.7636 221.192 95.9687 221.512C95.46 221.737 95.619 221.833 96.859 222.121ZM109.513 222.634C110.435 222.121 110.244 221.769 109.163 221.929C108.082 222.089 108.019 221.961 108.718 220.872C109.004 220.455 109.163 219.846 109.1 219.526C109.004 219.109 108.782 219.302 108.273 220.327C107.891 221.064 107.351 221.673 107.097 221.673C106.302 221.673 106.238 222.313 107.001 222.602C107.987 223.018 108.75 223.018 109.513 222.634ZM98.5122 205.139C97.7492 205.267 95.3646 206.229 93.2663 207.286C91.1361 208.311 89.3238 209.176 89.1966 209.144C85.9537 208.792 90.4684 203.345 98.6712 197.77C106.524 192.419 111.834 189.599 116.762 188.157C119.846 187.26 123.311 187.132 124.297 187.869C124.838 188.285 124.647 188.317 122.294 188.349C117.207 188.349 111.325 190.977 101.755 197.417C96.7954 200.749 91.0407 205.524 91.0407 206.293C91.0407 206.453 91.9627 206.132 93.1073 205.62C95.5554 204.498 98.0671 203.922 99.1799 204.178C100.356 204.498 100.102 204.915 98.5122 205.139ZM110.816 207.895C113.805 207.286 113.932 207.254 113.932 206.933C113.932 206.773 112.788 206.613 111.357 206.549L108.782 206.453L111.166 203.729C112.47 202.223 113.996 200.717 114.536 200.365C115.713 199.596 115.776 199.051 114.822 198.731L114.091 198.507L114.886 198.218C115.331 198.058 116.158 197.994 116.73 198.09C117.589 198.218 117.779 198.154 117.684 197.705C117.589 197.257 117.239 197.161 115.681 197.193C111.134 197.257 109.195 198.474 112.756 199.051C113.741 199.211 114.568 199.468 114.568 199.628C114.568 199.756 114.409 199.884 114.218 199.884C113.614 199.884 108.496 205.107 107.86 206.389C106.874 208.279 107.415 208.568 110.816 207.895ZM131.8 195.463C130.878 195.527 130.656 195.687 130.719 196.135L130.729 196.201C130.765 196.438 130.786 196.574 130.732 196.615C130.661 196.671 130.456 196.554 129.976 196.279L129.893 196.232C129.289 195.911 129.225 195.751 129.575 195.495C129.797 195.302 130.401 195.014 130.878 194.918L131.769 194.694L131.101 193.989C130.751 193.572 130.56 193.188 130.656 193.059C130.91 192.803 134.026 193.156 134.471 193.508C134.662 193.668 134.948 193.636 135.139 193.444C135.584 192.995 136.188 193.348 136.188 194.053C136.188 194.437 136.093 194.469 135.806 194.181C135.552 193.925 135.33 193.925 135.043 194.149C134.789 194.373 134.598 194.373 134.439 194.117C134.344 193.957 133.74 193.796 133.104 193.796C132.518 193.796 132.241 193.796 132.184 193.909C132.132 194.01 132.259 194.201 132.5 194.565C133.007 195.364 132.977 195.366 131.811 195.462L131.8 195.463ZM126.968 186.939C126.968 186.523 126.586 185.786 126.109 185.305L125.219 184.408L129.988 184.6C132.627 184.729 135.616 185.017 136.665 185.305C137.714 185.562 138.922 185.754 139.367 185.754C140.035 185.754 139.908 185.626 138.668 184.953C136.506 183.831 133.74 183.287 128.43 182.902C122.071 182.454 118.86 183.062 119.464 184.665C119.56 184.985 120.068 185.145 120.832 185.145C122.389 185.145 124.933 186.074 125.791 186.939C126.713 187.869 126.968 187.869 126.968 186.939ZM111.452 271.786C114.028 275.118 117.43 278.899 119.019 280.181C119.973 280.95 120.8 281.59 120.863 281.59C120.895 281.59 120.196 280.117 119.305 278.322C115.713 271.113 113.614 263.936 112.629 255.669C112.406 253.842 112.056 252.304 111.675 251.664C110.912 250.382 110.912 248.716 111.707 247.146C112.12 246.313 112.343 245.255 112.343 244.102V242.339L110.816 243.942C109.322 245.512 107.891 246.152 107.891 245.191C107.891 244.486 110.244 241.09 111.484 240.032C112.47 239.199 112.597 238.911 112.915 236.412C113.137 234.906 113.646 232.246 114.059 230.484C114.505 228.722 114.759 227.216 114.695 227.152C114.473 226.927 107.001 235.575 105.984 238.334C105.76 238.94 105.157 240 104.68 240.641L103.854 241.711C103.854 241.711 104.11 243.209 104.394 245.091C104.681 246.993 104.815 248.3 104.935 249.465C105.095 251.022 105.229 252.324 105.666 254.451C106.175 257.079 106.683 259.354 106.81 259.514C106.906 259.706 107.319 261.18 107.732 262.814C108.623 266.435 110.117 270.023 111.452 271.786ZM240.472 302.097L239.804 301.424C239.804 301.424 250.886 287.235 252.871 282.007C254.387 278.017 255.279 276.886 256.482 276.886C257.155 276.886 257.704 277.041 257.958 277.425C258.404 278.098 258.832 278.931 258.26 281.783C257.306 286.397 255.844 289.441 251.456 296.009C250.439 297.515 249.135 299.181 248.563 299.758C247.228 301.008 244.223 302.289 242.475 302.578C241.362 302.738 241.044 302.674 240.472 302.097Z" fill="#00160A"/>
<path d="M328.509 333.442C332.465 322.581 331.866 320.267 331.18 320.04C331.18 320.04 329.669 320.906 329.002 322.732C327.762 326.16 323.518 335.132 321.928 336.734C320.052 338.625 320.052 338.625 318.144 338.625C316.237 338.625 310.735 335.729 309.986 332.875C308.788 328.309 313.948 312.447 314.075 311.549L313.216 310.941C312.644 311.485 305.2 334.235 295.412 328.307C294.291 327.628 291.914 324.43 291.724 322.732C290.664 317.797 295.525 300.543 296.352 296.999C297.092 293.827 300.944 290.883 305.681 290.883C312.962 290.883 311.984 297.296 315.245 299.557C316.691 300.558 319.065 298.742 319.798 298.605C323.899 297.836 325.471 298.731 328.477 301.136C330.798 302.992 332.516 306.666 334.406 307.961C335.456 308.68 336.57 307.697 336.935 307.512C338.43 306.755 341.64 307.32 342.53 307.961C343.835 308.534 347.033 311.632 347.539 313.434C349.829 321.601 342.598 339.707 339.868 343.103C335.35 348.725 324.554 344.303 328.509 333.442Z" fill="white"/>
<path fill-rule="evenodd" clip-rule="evenodd" d="M145.726 303.682C154.438 309.225 163.42 312.845 173.658 313.839C181.734 314.608 192.622 313.55 200.443 310.987C207.025 308.84 215.927 302.893 221.872 297.863C233.414 288.122 240.694 272.907 243.874 256.758C244.319 254.483 244.998 248.765 244.966 243.093C244.966 236.493 242.084 218.455 233.35 208.055C215.337 186.604 185.728 176.941 160.843 185.198C151.867 188.176 142.309 193.572 135.092 200.621C125.999 209.561 119.29 221.737 116.62 234.169C113.822 247.306 117.461 263.006 123.788 275.887C128.844 286.14 137.174 298.202 145.726 303.682ZM230.616 264.961C224.639 283.064 209.06 296.586 189.474 300.687C186.486 301.296 184.419 301.52 180.222 301.584C177.266 301.68 174.309 301.648 173.705 301.584C160.002 299.918 149.573 294.824 139.971 285.147C135.775 280.885 133.994 278.578 131.387 274.029C127.286 266.819 125.092 259.45 124.424 250.574C122.135 220.167 143.723 194.822 174.118 192.194C186.041 191.169 199.267 194.854 209.314 202.031C213.034 204.69 219.774 211.419 221.872 214.559C222.731 215.809 231.061 228.081 232.523 235.13C234.399 244.294 233.668 255.765 230.616 264.961Z" fill="white"/>
<path fill-rule="evenodd" clip-rule="evenodd" d="M244.977 243.093C244.977 264.6 234.883 288.112 221.855 298.154C215.64 302.945 207.517 308.746 200.443 310.987C190.077 314.271 173.658 313.839 173.658 313.839C173.658 313.839 190.409 311.582 196.617 309.064C214.417 301.845 224.135 290.762 230.135 280.129C241.979 259.139 244.977 242.571 244.977 243.093Z" fill="#E7EAEE"/>
<path fill-rule="evenodd" clip-rule="evenodd" d="M174.023 297.739C165.534 296.65 157.108 293.606 150.305 289.088C146.267 286.429 140.162 280.181 137.205 275.727C132.977 269.318 130.179 262.462 128.812 255.092C127.826 249.741 127.858 241.506 128.844 236.732C129.861 231.862 131.165 228.145 133.486 223.435C136.188 217.988 139.05 213.983 143.342 209.657C150.654 202.287 159.143 197.609 169.254 195.366C172.528 194.661 184.388 194.085 184.801 194.629C184.896 194.79 185.532 195.206 186.2 195.559C186.867 195.943 188.648 197.289 190.11 198.603C192.304 200.525 193.29 201.743 195.197 204.755C196.501 206.805 197.55 208.664 197.55 208.824C197.55 209.176 198.568 209.817 199.14 209.817C199.935 209.817 200.475 207.414 200.634 203.185C200.73 200.846 200.92 198.923 201.048 198.923C201.493 198.923 206.389 201.647 208.678 203.185C213.161 206.196 217.644 210.426 220.951 214.848C222.445 216.834 222.667 217.347 222.667 218.565C222.667 219.686 222.985 220.551 223.971 222.281C226.451 226.639 228.39 232.118 229.567 238.174C230.33 242.243 230.33 249.933 229.535 254.195C227.373 265.922 220.951 277.585 212.589 284.987C205.499 291.235 197.964 295.08 189.061 296.97C186.009 297.643 176.852 298.092 174.023 297.739ZM151.29 275.823C151.576 275.502 151.767 275.022 151.672 274.798C151.643 274.73 151.245 274.542 150.663 274.266L150.662 274.265C149.304 273.622 146.942 272.503 145.919 271.337C141.849 266.659 140.355 263.166 139.433 255.957C138.543 248.94 139.291 244.196 140.895 236.572C141.678 232.853 143.759 229.781 145.054 227.869C145.934 226.57 146.451 225.807 145.949 225.742C144.709 225.55 144.518 225.646 143.215 226.895C140.417 229.587 139.145 231.734 137.81 235.867C135.743 242.339 135.344 259.831 139.433 267.716C143.522 275.602 150.559 276.656 151.29 275.823ZM196.501 248.908C195.961 253.885 193.671 261.084 191.001 264.224C189.761 265.698 185.209 268.229 181.367 267.716C177.656 267.221 174.754 265.473 172.274 261.725C170.144 258.488 169.044 254.56 168.3 249.613C167.015 241.07 172.624 231.125 175.04 228.658C177.488 226.126 179.237 225.229 181.463 225.197C183.625 225.197 185.024 225.678 187.217 227.248C191.223 230.067 197.55 239.236 196.501 248.908ZM153.643 222.409C154.279 221.673 154.374 221.32 154.183 219.942C154.056 218.661 153.802 218.148 153.134 217.603C151.958 216.642 150.495 216.642 149.414 217.667C148.651 218.404 148.556 218.661 148.651 220.423C148.747 222.313 148.81 222.442 149.859 223.018C151.258 223.787 152.626 223.563 153.643 222.409ZM173.482 202.64C167.759 206.773 165.28 208.471 162.704 210.073C160.669 211.355 160.034 211.387 160.034 210.234C160.034 209.625 160.479 208.952 161.623 207.895L163.213 206.421L160.129 206.004C156.663 205.556 153.293 204.594 152.562 203.857C151.354 202.608 152.403 202.319 155.837 202.96C157.363 203.217 160.32 203.537 162.418 203.601L166.233 203.761L168.999 201.743C175.072 197.321 181.367 194.822 184.388 195.591C186.263 196.039 186.041 196.552 183.911 196.808C181.463 197.097 179.968 197.93 173.482 202.64Z" fill="white"/>
<path d="M181.653 263.327C181.653 263.166 181.844 263.006 182.098 263.006C182.353 263.006 182.671 263.166 182.766 263.327C182.861 263.519 182.671 263.647 182.321 263.647C181.939 263.647 181.653 263.519 181.653 263.327Z" fill="white"/>
<path d="M183.561 263.038C183.561 262.686 184.356 262.365 185.246 262.365C185.945 262.397 185.945 262.397 185.341 262.846C184.642 263.391 183.561 263.487 183.561 263.038Z" fill="white"/>
<path d="M178.633 262.205C178.537 261.949 178.41 261.5 178.315 261.244C178.219 260.924 178.378 260.763 178.792 260.763C179.141 260.763 179.428 260.956 179.428 261.212C179.428 261.468 179.523 261.885 179.618 262.173C179.746 262.526 179.65 262.686 179.3 262.686C179.014 262.686 178.696 262.462 178.633 262.205Z" fill="white"/>
<path d="M180.318 261.404C180.159 260.443 180.509 260.122 181.653 260.122C182.003 260.122 182.289 260.443 182.416 260.988C182.671 261.917 182.257 262.365 181.144 262.365C180.636 262.365 180.413 262.141 180.318 261.404Z" fill="white"/>
<path d="M177.075 261.564C176.471 261.084 176.471 261.084 177.139 261.084C177.552 261.084 177.838 261.276 177.838 261.564C177.838 262.141 177.838 262.141 177.075 261.564Z" fill="white"/>
<path d="M183.465 261.532C183.052 261.116 183.243 259.866 183.752 259.674C184.674 259.321 185.087 259.482 185.278 260.315C185.405 260.795 185.468 261.212 185.405 261.244C185.151 261.532 183.656 261.725 183.465 261.532Z" fill="white"/>
<path d="M186.295 260.859C186.2 260.763 186.104 260.347 186.104 259.962C186.104 259.418 186.359 259.193 187.122 259.033C187.789 258.905 188.203 258.969 188.394 259.225C188.711 259.738 188.711 260.379 188.425 260.539C187.853 260.859 186.518 261.052 186.295 260.859Z" fill="white"/>
<path d="M175.612 259.866C175.612 259.482 175.899 259.161 176.312 259.065C177.139 258.841 177.107 258.809 177.266 259.642C177.329 260.123 177.17 260.315 176.503 260.379C175.803 260.475 175.612 260.347 175.612 259.866Z" fill="white"/>
<path d="M178.029 259.898C177.584 259.418 177.87 258.52 178.474 258.52C178.887 258.52 179.11 258.745 179.11 259.129C179.11 259.738 178.378 260.251 178.029 259.898Z" fill="white"/>
<path d="M179.936 258.937C179.682 258.328 180.223 257.88 181.272 257.88C181.749 257.88 181.971 258.072 181.971 258.488C181.971 258.841 181.685 259.161 181.272 259.289C180.223 259.546 180.159 259.546 179.936 258.937Z" fill="white"/>
<path d="M189.125 258.841C189.22 258.681 189.379 258.52 189.475 258.52C189.57 258.52 189.538 258.681 189.443 258.841C189.347 259.033 189.188 259.161 189.093 259.161C188.998 259.161 189.029 259.033 189.125 258.841Z" fill="white"/>
<path d="M182.798 258.296C182.543 257.655 182.861 257.335 183.879 257.175C184.451 257.111 184.705 257.239 184.769 257.687C184.992 258.745 183.179 259.321 182.798 258.296Z" fill="white"/>
<path d="M175.167 257.751C174.881 256.694 174.945 256.598 175.771 256.598C176.216 256.598 176.566 256.726 176.566 256.886C176.566 257.047 176.662 257.399 176.757 257.655C176.852 257.976 176.662 258.168 176.121 258.264C175.517 258.392 175.294 258.264 175.167 257.751Z" fill="white"/>
<path d="M185.786 257.399C185.786 256.822 186.009 256.566 186.613 256.406C187.503 256.181 188.012 256.63 188.012 257.655C188.012 258.072 187.758 258.2 186.899 258.2C185.914 258.2 185.786 258.104 185.786 257.399Z" fill="white"/>
<path d="M174.214 257.399C174.118 257.143 174.182 256.918 174.341 256.918C174.531 256.918 174.659 257.143 174.659 257.399C174.659 257.655 174.595 257.88 174.531 257.88C174.468 257.88 174.341 257.655 174.214 257.399Z" fill="white"/>
<path d="M177.425 257.655C176.98 257.239 177.234 256.342 177.806 256.181C178.156 256.085 178.506 256.117 178.601 256.213C178.983 256.566 178.76 257.495 178.283 257.687C177.679 257.912 177.679 257.912 177.425 257.655Z" fill="white"/>
<path d="M188.775 257.431C188.425 256.502 188.807 255.797 189.697 255.701C190.365 255.605 190.555 255.733 190.555 256.246C190.555 257.303 190.206 257.88 189.57 257.88C189.22 257.88 188.87 257.687 188.775 257.431Z" fill="white"/>
<path d="M179.65 257.014C179.269 256.662 179.396 256.021 179.936 255.829C180.54 255.605 181.812 256.245 181.462 256.598C181.017 256.982 179.873 257.271 179.65 257.014Z" fill="white"/>
<path d="M182.416 256.213C182.13 255.765 183.148 254.996 183.974 254.996C184.356 254.996 184.515 255.188 184.451 255.541C184.324 256.181 182.703 256.694 182.416 256.213Z" fill="white"/>
<path d="M173.705 255.989C173.705 255.829 173.609 255.476 173.514 255.188C173.419 254.9 173.45 254.675 173.641 254.675C174.054 254.675 174.372 255.893 173.991 256.149C173.832 256.245 173.705 256.181 173.705 255.989Z" fill="white"/>
<path d="M174.563 255.252C174.372 254.547 174.754 254.035 175.485 254.035C175.899 254.035 176.312 255.284 176.057 255.701C175.708 256.245 174.722 255.925 174.563 255.252Z" fill="white"/>
<path d="M176.789 255.412C176.312 254.932 176.598 253.778 177.234 253.618C177.711 253.49 177.965 253.65 178.22 254.227C178.41 254.643 178.506 255.06 178.442 255.124C178.124 255.412 176.98 255.637 176.789 255.412Z" fill="white"/>
<path d="M185.373 255.412C184.96 254.996 185.151 254.74 186.104 254.387C186.899 254.131 187.122 254.163 187.281 254.547C187.567 255.316 185.977 256.053 185.373 255.412Z" fill="white"/>
<path d="M188.171 254.675C187.853 254.163 188.298 253.714 189.125 253.714C190.11 253.714 190.397 254.547 189.506 254.804C188.553 255.06 188.394 255.028 188.171 254.675Z" fill="white"/>
<path d="M190.874 253.906C190.874 253.426 191.446 252.913 191.7 253.169C191.923 253.394 191.478 254.355 191.16 254.355C191.001 254.355 190.874 254.163 190.874 253.906Z" fill="white"/>
<path d="M173.292 253.49C173.164 253.394 173.069 252.977 173.101 252.625C173.101 252.016 173.133 252.016 173.419 252.721C173.737 253.49 173.673 253.874 173.292 253.49Z" fill="white"/>
<path d="M173.896 253.009C173.609 251.888 173.641 251.792 174.468 251.792C175.39 251.792 175.962 252.977 175.263 253.426C174.531 253.874 174.118 253.746 173.896 253.009Z" fill="white"/>
<path d="M184.833 253.65C184.833 253.554 184.992 253.041 185.182 252.465C185.627 251.183 186.613 251.119 186.836 252.368C186.931 252.849 186.963 253.266 186.931 253.298C186.772 253.49 184.833 253.778 184.833 253.65Z" fill="white"/>
<path d="M176.153 252.849C176.026 252.753 175.93 252.368 175.93 252.016C175.93 251.503 176.026 251.471 176.407 251.792C176.662 252.016 176.884 252.4 176.884 252.625C176.884 253.105 176.503 253.234 176.153 252.849Z" fill="white"/>
<path d="M187.599 252.208C187.408 251.215 187.821 250.766 188.807 250.895C189.284 250.959 189.443 251.247 189.443 251.952C189.443 252.753 189.316 252.945 188.616 253.009C187.917 253.105 187.758 252.945 187.599 252.208Z" fill="white"/>
<path d="M190.715 252.336C190.301 251.055 190.428 250.67 191.287 250.574C192.05 250.478 192.145 250.574 192.145 251.407C192.145 252.112 191.954 252.4 191.478 252.529C191.128 252.625 190.778 252.529 190.715 252.336Z" fill="white"/>
<path d="M172.815 250.51C172.815 249.901 172.878 249.645 172.974 249.965C173.037 250.254 173.037 250.766 172.974 251.087C172.878 251.375 172.815 251.119 172.815 250.51Z" fill="white"/>
<path d="M173.609 250.927C173.196 250.542 173.387 249.292 173.896 249.1C174.627 248.812 174.977 249.164 174.977 250.222C174.977 250.895 174.818 251.151 174.404 251.151C174.086 251.151 173.705 251.055 173.609 250.927Z" fill="white"/>
<path d="M175.517 250.061C175.39 249.581 175.326 249.068 175.453 248.972C175.771 248.652 175.962 249.164 175.867 250.093L175.771 250.991L175.517 250.061Z" fill="white"/>
<path d="M185.786 249.837C185.786 249.485 185.945 249.292 186.104 249.389C186.295 249.485 186.422 249.805 186.422 250.061C186.422 250.318 186.295 250.51 186.104 250.51C185.945 250.51 185.786 250.222 185.786 249.837Z" fill="white"/>
<path d="M187.217 250.254C186.772 249.773 187.122 248.908 187.853 248.716C188.775 248.491 188.807 248.491 189.093 249.421C189.284 249.997 189.157 250.126 188.33 250.254C187.821 250.35 187.313 250.318 187.217 250.254Z" fill="white"/>
<path d="M190.142 249.645C189.792 249.325 189.888 248.267 190.238 248.267C190.428 248.267 190.555 248.139 190.555 247.947C190.555 247.787 190.365 247.626 190.11 247.626C189.57 247.626 189.125 246.056 189.57 245.608C190.142 245.031 190.778 245.64 191.16 247.21C191.382 248.043 191.605 249.004 191.7 249.325C191.827 249.741 191.7 249.869 191.096 249.869C190.683 249.869 190.238 249.773 190.142 249.645Z" fill="white"/>
<path d="M191.859 247.947C191.637 246.985 191.064 245.063 190.651 243.653C190.015 241.602 189.952 241.09 190.301 240.866C190.524 240.705 190.81 240.577 190.905 240.577C191.255 240.577 192.527 247.146 192.4 248.427L192.304 249.709L191.859 247.947Z" fill="white"/>
<path d="M172.497 247.786C172.497 247.274 172.56 247.082 172.656 247.402C172.719 247.69 172.719 248.139 172.656 248.363C172.56 248.555 172.497 248.331 172.497 247.786Z" fill="white"/>
<path d="M173.132 247.722C173.26 246.601 174.182 246.345 174.436 247.37C174.659 248.203 174.722 248.107 173.768 248.427C173.101 248.62 173.037 248.555 173.132 247.722Z" fill="white"/>
<path d="M186.55 247.434C186.295 246.505 186.836 245.96 187.853 246.088C188.616 246.184 188.902 247.562 188.266 247.979C187.472 248.491 186.74 248.267 186.55 247.434Z" fill="white"/>
<path d="M174.977 247.178C174.977 246.633 175.136 246.345 175.485 246.345C175.803 246.345 175.93 246.569 175.867 247.05C175.708 248.075 174.977 248.171 174.977 247.178Z" fill="white"/>
<path d="M172.147 245.832C172.147 245.479 172.242 245.383 172.338 245.64C172.433 245.864 172.401 246.152 172.306 246.248C172.21 246.377 172.115 246.184 172.147 245.832Z" fill="white"/>
<path d="M172.751 245.736C172.751 245.255 172.942 245.063 173.419 245.063C173.864 245.063 174.023 245.223 173.959 245.608C173.8 246.441 172.751 246.537 172.751 245.736Z" fill="white"/>
<path d="M174.5 245.447C174.277 244.871 174.277 244.871 175.231 244.614C175.803 244.422 175.93 244.518 175.93 244.999C175.93 245.768 174.786 246.152 174.5 245.447Z" fill="white"/>
<path d="M186.009 244.999C185.786 244.198 186.2 243.781 187.312 243.781C187.853 243.781 188.012 243.974 188.012 244.582C188.012 245.063 187.821 245.383 187.567 245.383C187.312 245.383 186.899 245.479 186.645 245.576C186.359 245.672 186.136 245.479 186.009 244.999Z" fill="white"/>
<path d="M188.775 244.262C188.521 243.621 188.902 243.141 189.633 243.141C190.079 243.141 190.238 243.365 190.238 243.942C190.238 244.518 190.079 244.743 189.602 244.743C189.252 244.743 188.87 244.518 188.775 244.262Z" fill="white"/>
<path d="M172.433 243.813C172.433 243.14 173.164 242.371 173.482 242.724C173.609 242.82 173.705 243.269 173.705 243.685C173.705 244.198 173.514 244.422 173.069 244.422C172.656 244.422 172.433 244.198 172.433 243.813Z" fill="white"/>
<path d="M174.182 243.429C173.927 242.628 174.213 242.275 175.294 242.115C176.28 241.987 176.598 243.044 175.74 243.685C174.913 244.294 174.404 244.198 174.182 243.429Z" fill="white"/>
<path d="M185.691 243.237C185.468 243.044 185.373 241.859 185.564 241.859C185.596 241.859 186.073 241.731 186.645 241.57C187.599 241.282 187.662 241.314 187.63 242.179C187.599 242.82 187.408 243.14 186.931 243.269C186.073 243.493 185.945 243.493 185.691 243.237Z" fill="white"/>
<path d="M184.515 242.5C184.515 242.275 184.61 242.179 184.737 242.275C184.833 242.404 184.833 242.596 184.737 242.724C184.61 242.82 184.515 242.724 184.515 242.5Z" fill="white"/>
<path d="M188.076 241.987C188.171 241.442 189.157 240.641 189.379 240.898C189.475 240.994 189.633 241.378 189.729 241.795C189.951 242.436 189.856 242.5 188.966 242.5C188.203 242.5 187.98 242.371 188.076 241.987Z" fill="white"/>
<path d="M172.751 241.955C172.751 241.795 172.91 241.474 173.069 241.218C173.323 240.833 173.387 240.866 173.387 241.474C173.387 241.859 173.26 242.179 173.069 242.179C172.91 242.179 172.751 242.083 172.751 241.955Z" fill="white"/>
<path d="M173.705 241.25C173.705 240.353 174.372 240.064 174.881 240.737C175.199 241.218 175.199 241.378 174.881 241.602C174.214 242.019 173.705 241.891 173.705 241.25Z" fill="white"/>
<path d="M183.37 240.833C182.798 240.193 182.798 240.161 183.338 240.353C183.656 240.481 184.07 240.577 184.229 240.577C184.388 240.577 184.515 240.801 184.515 241.058C184.515 241.731 184.07 241.667 183.37 240.833Z" fill="white"/>
<path d="M176.534 240.801C175.167 239.744 174.976 237.373 176.248 237.373C177.107 237.373 177.902 238.719 177.774 239.968C177.679 241.122 177.297 241.378 176.534 240.801Z" fill="white"/>
<path d="M185.246 240.994C185.373 240.898 185.564 240.898 185.691 240.994C185.786 241.122 185.691 241.218 185.468 241.218C185.246 241.218 185.151 241.122 185.246 240.994Z" fill="white"/>
<path d="M190.047 239.744C190.142 239.456 190.238 239.167 190.238 239.103C190.238 239.039 190.397 238.975 190.556 238.975C190.746 238.975 190.873 239.263 190.873 239.616C190.873 240 190.651 240.257 190.365 240.257C190.015 240.257 189.92 240.096 190.047 239.744Z" fill="white"/>
<path d="M173.387 239.648C173.387 238.911 174.055 237.693 174.436 237.693C175.104 237.693 174.627 239.744 173.927 239.872C173.641 239.936 173.387 239.84 173.387 239.648Z" fill="white"/>
<path d="M180.54 239.295L179.587 239.071L180.445 238.847C181.335 238.591 181.971 238.783 181.971 239.328C181.971 239.648 181.939 239.648 180.54 239.295Z" fill="white"/>
<path d="M179.428 237.757C179.428 236.444 180.159 236.251 180.827 237.405C181.272 238.174 181.303 238.334 180.89 238.334C180.636 238.334 180.222 238.43 179.936 238.526C179.555 238.687 179.428 238.494 179.428 237.757Z" fill="white"/>
<path d="M184.96 238.206C183.529 237.565 182.607 235.867 182.607 233.848C182.607 232.406 182.734 232.054 183.593 231.253C184.133 230.74 184.674 230.324 184.833 230.324C185.532 230.324 188.107 232.791 188.966 234.329L189.951 236.091L188.902 237.213C187.694 238.494 186.359 238.847 184.96 238.206Z" fill="white"/>
<path d="M178.315 237.373C178.22 237.213 178.283 237.053 178.442 237.053C178.633 237.053 178.792 237.213 178.792 237.373C178.792 237.565 178.728 237.693 178.665 237.693C178.569 237.693 178.41 237.565 178.315 237.373Z" fill="white"/>
<path d="M174.15 236.86C174.245 236.572 174.341 236.284 174.341 236.219C174.341 236.155 174.627 236.091 174.977 236.091C175.771 236.091 175.803 236.604 175.008 237.053C174.15 237.501 173.927 237.469 174.15 236.86Z" fill="white"/>
<path d="M176.662 236.476C175.93 236.38 175.708 235.963 176.185 235.675C176.312 235.579 176.884 235.418 177.456 235.29C178.315 235.098 178.474 235.162 178.474 235.707C178.474 236.38 177.806 236.668 176.662 236.476Z" fill="white"/>
<path d="M179.11 235.386C179.11 235.002 179.142 234.778 179.205 234.842C179.237 234.906 179.491 235.226 179.714 235.547C180.095 235.995 180.064 236.091 179.618 236.091C179.301 236.091 179.11 235.835 179.11 235.386Z" fill="white"/>
<path d="M174.659 235.162C174.659 234.97 174.818 234.746 174.977 234.649C175.167 234.553 175.294 234.682 175.294 234.938C175.294 235.226 175.167 235.451 174.977 235.451C174.818 235.451 174.659 235.322 174.659 235.162Z" fill="white"/>
<path d="M175.835 234.681C175.581 234.041 177.838 233.336 178.22 233.945C178.506 234.457 178.22 234.681 177.011 234.938C176.28 235.098 175.962 235.034 175.835 234.681Z" fill="white"/>
<path d="M178.823 233.656C178.823 233.304 178.919 233.208 179.014 233.464C179.11 233.688 179.078 233.977 178.982 234.073C178.887 234.201 178.792 234.009 178.823 233.656Z" fill="white"/>
<path d="M176.121 233.144C176.503 232.439 177.615 231.285 177.902 231.285C178.219 231.285 178.251 232.791 177.933 232.983C177.774 233.047 177.266 233.208 176.789 233.336C176.089 233.496 175.93 233.464 176.121 233.144Z" fill="white"/>
<path d="M178.665 232.407C178.315 231.445 178.474 231.029 179.237 230.901C180.032 230.74 180.032 230.74 179.523 231.734C178.887 233.015 178.919 233.015 178.665 232.407Z" fill="white"/>
<path d="M178.474 230.484C178.474 230.42 179.11 229.971 179.905 229.523C180.858 228.946 181.526 228.754 182.003 228.882C182.575 229.074 182.416 229.202 181.017 229.875C179.459 230.58 178.474 230.836 178.474 230.484Z" fill="white"/>
<path d="M196.12 202.095C195.261 200.846 193.449 198.827 192.145 197.609C190.842 196.392 189.983 195.398 190.238 195.398C190.937 195.398 196.278 196.872 197.614 197.449C198.727 197.93 198.758 197.994 198.472 198.987C198.313 199.564 198.186 201.006 198.186 202.191C198.186 203.409 198.091 204.37 197.964 204.37C197.805 204.37 197.01 203.345 196.12 202.095Z" fill="white"/>
<path d="M131.419 299.149C130.115 298.476 129.829 298.092 128.176 294.792C125.791 290.114 125.728 289.024 127.985 291.684C128.875 292.741 130.942 294.92 132.563 296.522C135.33 299.213 135.457 299.406 134.535 299.277C133.867 299.181 133.613 299.245 133.772 299.502C134.153 300.078 132.945 299.918 131.419 299.149Z" fill="white"/>
<path fill-rule="evenodd" clip-rule="evenodd" d="M184.702 357.526C184.438 356.895 184.732 356.167 185.359 355.901L186.044 355.608C192.704 352.736 196.526 351.011 199.124 348.272C201.721 345.533 202.032 341.509 202.52 339.061C202.654 338.389 204.164 339.569 204.83 339.704C205.497 339.839 205.929 340.493 205.795 341.165C205.208 344.109 203.628 346.915 201.085 349.579C198.55 352.234 193.641 355.08 186.314 358.188C185.688 358.454 184.966 358.158 184.702 357.526Z" fill="#00160A"/>
<path fill-rule="evenodd" clip-rule="evenodd" d="M214.819 229.68C215.403 229.33 216.159 229.523 216.507 230.112C219.989 236.008 221.855 242.748 221.855 249.76C221.855 271.005 204.766 288.227 183.686 288.227C178.084 288.227 172.651 287.01 167.676 284.69C167.059 284.402 164.728 282.111 167.076 283.043C169.424 283.974 178.509 286.066 183.751 286.066C203.472 286.066 217.423 269.634 217.423 249.76C217.423 243.198 214.819 237.373 214.391 231.381C214.341 230.687 214.235 230.031 214.819 229.68Z" fill="#00160A"/>
<path fill-rule="evenodd" clip-rule="evenodd" d="M92.8767 323.595C93.3119 323.068 94.0882 322.004 94.6107 322.443C96.7542 324.242 99.0416 326.326 101.488 326.729C104.034 327.148 107.055 327.148 110.546 326.722C111.221 326.639 111.835 327.124 111.916 327.804C111.998 328.485 111.517 329.103 110.842 329.185C107.135 329.638 103.886 329.638 101.092 329.178C98.1982 328.702 95.5074 327.418 93.0347 325.342C92.5122 324.904 92.4414 324.121 92.8767 323.595Z" fill="#00160A"/>
<path d="M119.019 280.181C117.43 278.899 114.028 275.118 111.452 271.786C110.117 270.023 108.623 266.435 107.732 262.814C107.319 261.18 106.906 259.706 106.81 259.514C106.683 259.354 106.175 257.079 105.666 254.451C104.903 250.734 105.064 249.537 104.394 245.091C104.11 243.209 103.854 241.711 103.854 241.711L104.68 240.641C105.157 240 105.76 238.94 105.984 238.334C107.001 235.575 114.473 226.927 114.695 227.152C114.759 227.216 114.505 228.722 114.059 230.484C113.646 232.246 113.137 234.906 112.915 236.412C112.597 238.911 112.47 239.199 111.484 240.032C110.244 241.09 107.891 244.486 107.891 245.191C107.891 246.152 109.322 245.512 110.816 243.942L112.343 242.339V244.102C112.343 245.255 112.12 246.313 111.707 247.146C110.912 248.716 110.912 250.382 111.675 251.664C112.056 252.304 112.406 253.842 112.629 255.669C113.614 263.936 115.713 271.113 119.305 278.322C120.196 280.117 120.895 281.59 120.863 281.59C120.8 281.59 119.973 280.95 119.019 280.181Z" fill="white"/>
<path fill-rule="evenodd" clip-rule="evenodd" d="M251.314 299.95L253.603 300.976C254.078 301.196 259.314 303.732 265.604 306.778C275.745 311.689 288.625 317.926 288.703 317.926C288.83 317.926 289.427 316.535 289.562 314.914C289.88 311.421 291.056 306.679 292.423 303.379C293.059 301.905 293.568 300.063 293.568 299.903C293.568 299.829 293.051 299.619 292.205 299.275C291.197 298.866 289.723 298.267 288.099 297.483C280.087 293.606 264.413 285.692 262.473 284.506C260.566 283.385 260.184 283.289 260.184 284.026C260.184 284.987 258.245 289.441 256.75 291.844C255.956 293.157 254.398 295.529 253.285 297.099L251.314 299.95ZM288.163 312.158C289.075 312.691 287.495 313.472 287.114 313.6C284.867 313.792 282.222 313.366 280.055 312.094C278.922 311.284 270.001 306.289 264.083 302.976C261.377 301.461 259.3 300.298 258.881 300.046C257.545 299.245 256.274 298.38 256.051 298.124C255.383 297.259 256.019 296.874 257.895 297.034C259.023 297.131 286.194 311.008 288.163 312.158Z" fill="white"/>
<path d="M228.486 302.834C227.659 302.546 226.769 301.905 226.196 301.168L225.243 299.982L228.613 296.618C233.795 291.491 237.61 285.888 241.044 279.64C242.189 277.558 245.591 269.158 246.004 268.229C246.64 266.883 247.117 266.371 248.484 265.602C250.105 264.64 251.95 264.32 252.744 264.865C254.27 265.89 254.27 269.126 252.744 274.702C251.059 280.821 248.802 285.211 244.128 291.523C243.397 292.485 242.03 294.375 241.044 295.689C238.405 299.213 236.688 300.912 234.368 302.225C232.078 303.507 230.743 303.667 228.486 302.834Z" fill="white"/>
<path d="M240.472 302.097L239.804 301.424C239.804 301.424 250.886 287.235 252.871 282.007C254.387 278.017 255.279 276.886 256.482 276.886C257.155 276.886 257.704 277.041 257.958 277.425C258.404 278.098 258.833 278.931 258.26 281.783C257.306 286.397 255.844 289.441 251.456 296.009C250.439 297.515 249.135 299.181 248.563 299.758C247.228 301.008 244.224 302.289 242.475 302.578C241.362 302.738 241.044 302.674 240.472 302.097Z" fill="white"/>
<path fill-rule="evenodd" clip-rule="evenodd" d="M259.086 287.26C259.727 285.782 260.184 284.492 260.184 284.026C260.184 283.289 260.566 283.385 262.473 284.506C264.413 285.692 280.087 293.606 288.099 297.483C291.088 298.925 293.568 299.742 293.568 299.903C293.568 300.063 258.406 288.827 259.086 287.26Z" fill="#E7EAEE"/>
<path fill-rule="evenodd" clip-rule="evenodd" d="M150.305 289.088C146.267 286.429 140.162 280.181 137.205 275.727C132.977 269.318 130.179 262.462 128.812 255.092C127.826 249.741 127.858 241.506 128.844 236.732C129.861 231.862 131.165 228.145 133.486 223.435C136.188 217.988 139.05 213.983 143.342 209.657C147.551 205.415 128.844 222.957 133.486 254.343C137.205 280.644 153.192 291.006 150.305 289.088Z" fill="#E7EAEE"/>
<path d="M34.0359 13.8757H42.0537V16.1069H34.0359V23.8795H31.4614V5.93147H43.0345V8.23627H34.0359V13.8757ZM48.7448 6.56897C48.7448 6.99397 48.5895 7.35358 48.2789 7.64781C47.9847 7.94204 47.6251 8.08916 47.2001 8.08916C46.7587 8.08916 46.3828 7.94204 46.0722 7.64781C45.7616 7.35358 45.6063 6.99397 45.6063 6.56897C45.6063 6.17666 45.7616 5.83339 46.0722 5.53916C46.3828 5.24493 46.7587 5.09782 47.2001 5.09782C47.6251 5.09782 47.9847 5.24493 48.2789 5.53916C48.5895 5.81705 48.7448 6.16032 48.7448 6.56897ZM45.9251 9.97714H48.4015V23.8795H45.9251V9.97714ZM60.5372 9.73194C61.5833 9.73194 62.4987 9.96896 63.2833 10.443C64.0843 10.917 64.7054 11.5954 65.1468 12.4781C65.5881 13.3444 65.8088 14.3661 65.8088 15.543V23.8795H63.3569V16.0824C63.3569 14.7584 63.0218 13.7449 62.3516 13.042C61.6977 12.3392 60.8069 11.9877 59.679 11.9877C58.8617 11.9877 58.1179 12.1675 57.4477 12.5271C56.7939 12.8867 56.279 13.3853 55.903 14.0228C55.5271 14.644 55.3391 15.3387 55.3391 16.1069V23.8795H52.8626V9.97714H55.3391V12.3065C55.9602 11.5709 56.704 10.9579 57.5703 10.4675C58.453 9.97714 59.442 9.73194 60.5372 9.73194ZM82.7376 4.85263V23.8795H80.2611V21.7954C79.1986 23.3646 77.5313 24.1492 75.2592 24.1492C74.0496 24.1492 72.9544 23.855 71.9736 23.2665C71.0092 22.6617 70.2409 21.8117 69.6688 20.7165C69.1131 19.6214 68.8352 18.3545 68.8352 16.9161C68.8352 15.4776 69.1131 14.2108 69.6688 13.1156C70.2409 12.0204 71.0092 11.1786 71.9736 10.5901C72.9544 10.0017 74.0496 9.70743 75.2592 9.70743C77.5313 9.70743 79.1986 10.492 80.2611 12.0613V4.85263H82.7376ZM75.9457 21.8689C76.8611 21.8689 77.6457 21.6483 78.2996 21.2069C78.9534 20.7656 79.4438 20.1771 79.7707 19.4415C80.114 18.6896 80.2856 17.856 80.2856 16.9406C80.2856 15.5021 79.9015 14.317 79.1332 13.3853C78.365 12.4536 77.3025 11.9877 75.9457 11.9877C75.0304 11.9877 74.2212 12.2084 73.5183 12.6497C72.8318 13.0911 72.3006 13.6877 71.9246 14.4396C71.5486 15.1916 71.3606 16.0252 71.3606 16.9406C71.3606 17.8396 71.5486 18.6651 71.9246 19.417C72.3006 20.1689 72.8318 20.7656 73.5183 21.2069C74.2212 21.6483 75.0304 21.8689 75.9457 21.8689ZM101.025 24.1492C99.472 24.1492 98.1316 23.855 97.0037 23.2665C95.8758 22.6781 95.0095 21.8444 94.4047 20.7656C93.8162 19.6867 93.522 18.4199 93.522 16.9651C93.522 15.4122 93.8489 14.0882 94.5027 12.993C95.1729 11.8978 96.0311 11.0805 97.0773 10.5411C98.1234 9.98531 99.2349 9.70743 100.412 9.70743C101.752 9.70743 102.937 9.99348 103.967 10.5656C105.013 11.1214 105.822 11.955 106.395 13.0666C106.983 14.1617 107.277 15.5021 107.277 17.0877C107.277 17.3819 107.261 17.7579 107.228 18.2156H96.072C96.2027 19.2617 96.6931 20.1526 97.5431 20.8882C98.4095 21.6238 99.5864 21.9915 101.074 21.9915C101.875 21.9915 102.627 21.8608 103.33 21.5992C104.033 21.3213 104.613 20.9944 105.071 20.6185L106.419 22.0161C105.863 22.6045 105.111 23.1112 104.163 23.5362C103.232 23.9449 102.185 24.1492 101.025 24.1492ZM100.412 12.0122C99.5455 12.0122 98.7773 12.2084 98.1071 12.6007C97.4532 12.9767 96.9465 13.4916 96.5869 14.1454C96.2436 14.7829 96.072 15.4694 96.072 16.205H104.678C104.678 15.4531 104.507 14.7584 104.163 14.1209C103.836 13.4834 103.346 12.9767 102.692 12.6007C102.055 12.2084 101.295 12.0122 100.412 12.0122ZM115.303 24.2473C112.933 24.2473 110.987 23.667 109.467 22.5064L110.448 20.7656C111.037 21.1906 111.764 21.5338 112.63 21.7954C113.513 22.0569 114.371 22.1877 115.205 22.1877C116.153 22.1877 116.872 22.0488 117.362 21.7709C117.869 21.4766 118.123 21.0026 118.123 20.3488C118.123 19.8584 117.967 19.4742 117.657 19.1964C117.346 18.9021 116.954 18.6814 116.48 18.5343C116.022 18.3709 115.376 18.1992 114.543 18.0194C113.464 17.7906 112.589 17.5536 111.919 17.3084C111.249 17.0468 110.677 16.6464 110.203 16.1069C109.729 15.5512 109.492 14.7992 109.492 13.8512C109.492 12.9358 109.737 12.1675 110.227 11.5464C110.734 10.9252 111.388 10.4757 112.189 10.1978C112.99 9.90358 113.84 9.75646 114.739 9.75646C115.703 9.75646 116.611 9.88723 117.461 10.1488C118.311 10.394 119.038 10.7291 119.643 11.1541L118.76 12.944C118.172 12.5843 117.518 12.3065 116.799 12.1103C116.096 11.9142 115.393 11.8161 114.69 11.8161C114.003 11.8161 113.366 11.9632 112.777 12.2574C112.205 12.5353 111.919 13.0093 111.919 13.6795C111.919 14.1209 112.066 14.4805 112.361 14.7584C112.655 15.0199 113.014 15.2161 113.439 15.3468C113.881 15.4776 114.51 15.6329 115.327 15.8127C116.423 16.0415 117.313 16.2867 118 16.5483C118.703 16.8098 119.299 17.2266 119.79 17.7988C120.28 18.3709 120.525 19.1637 120.525 20.1771C120.525 21.4848 120.043 22.4901 119.079 23.193C118.131 23.8959 116.872 24.2473 115.303 24.2473ZM128.616 24.2473C126.246 24.2473 124.301 23.667 122.78 22.5064L123.761 20.7656C124.35 21.1906 125.077 21.5338 125.943 21.7954C126.826 22.0569 127.684 22.1877 128.518 22.1877C129.466 22.1877 130.185 22.0488 130.676 21.7709C131.182 21.4766 131.436 21.0026 131.436 20.3488C131.436 19.8584 131.28 19.4742 130.97 19.1964C130.659 18.9021 130.267 18.6814 129.793 18.5343C129.335 18.3709 128.69 18.1992 127.856 18.0194C126.777 17.7906 125.903 17.5536 125.232 17.3084C124.562 17.0468 123.99 16.6464 123.516 16.1069C123.042 15.5512 122.805 14.7992 122.805 13.8512C122.805 12.9358 123.05 12.1675 123.541 11.5464C124.047 10.9252 124.701 10.4757 125.502 10.1978C126.303 9.90358 127.153 9.75646 128.052 9.75646C129.016 9.75646 129.924 9.88723 130.774 10.1488C131.624 10.394 132.351 10.7291 132.956 11.1541L132.073 12.944C131.485 12.5843 130.831 12.3065 130.112 12.1103C129.409 11.9142 128.706 11.8161 128.003 11.8161C127.317 11.8161 126.679 11.9632 126.091 12.2574C125.518 12.5353 125.232 13.0093 125.232 13.6795C125.232 14.1209 125.379 14.4805 125.674 14.7584C125.968 15.0199 126.328 15.2161 126.753 15.3468C127.194 15.4776 127.823 15.6329 128.641 15.8127C129.736 16.0415 130.627 16.2867 131.313 16.5483C132.016 16.8098 132.613 17.2266 133.103 17.7988C133.593 18.3709 133.839 19.1637 133.839 20.1771C133.839 21.4848 133.356 22.4901 132.392 23.193C131.444 23.8959 130.185 24.2473 128.616 24.2473ZM143.67 24.1492C142.117 24.1492 140.777 23.855 139.649 23.2665C138.521 22.6781 137.655 21.8444 137.05 20.7656C136.461 19.6867 136.167 18.4199 136.167 16.9651C136.167 15.4122 136.494 14.0882 137.148 12.993C137.818 11.8978 138.676 11.0805 139.722 10.5411C140.769 9.98531 141.88 9.70743 143.057 9.70743C144.397 9.70743 145.583 9.99348 146.612 10.5656C147.658 11.1214 148.468 11.955 149.04 13.0666C149.628 14.1617 149.922 15.5021 149.922 17.0877C149.922 17.3819 149.906 17.7579 149.873 18.2156H138.717C138.848 19.2617 139.338 20.1526 140.188 20.8882C141.055 21.6238 142.232 21.9915 143.719 21.9915C144.52 21.9915 145.272 21.8608 145.975 21.5992C146.678 21.3213 147.258 20.9944 147.716 20.6185L149.064 22.0161C148.508 22.6045 147.757 23.1112 146.808 23.5362C145.877 23.9449 144.831 24.1492 143.67 24.1492ZM143.057 12.0122C142.191 12.0122 141.422 12.2084 140.752 12.6007C140.098 12.9767 139.592 13.4916 139.232 14.1454C138.889 14.7829 138.717 15.4694 138.717 16.205H147.323C147.323 15.4531 147.152 14.7584 146.808 14.1209C146.482 13.4834 145.991 12.9767 145.337 12.6007C144.7 12.2084 143.94 12.0122 143.057 12.0122ZM160.817 9.73194C161.863 9.73194 162.778 9.96896 163.563 10.443C164.364 10.917 164.985 11.5954 165.426 12.4781C165.868 13.3444 166.088 14.3661 166.088 15.543V23.8795H163.637V16.0824C163.637 14.7584 163.301 13.7449 162.631 13.042C161.977 12.3392 161.087 11.9877 159.959 11.9877C159.141 11.9877 158.398 12.1675 157.727 12.5271C157.074 12.8867 156.559 13.3853 156.183 14.0228C155.807 14.644 155.619 15.3387 155.619 16.1069V23.8795H153.142V9.97714H155.619V12.3065C156.24 11.5709 156.984 10.9579 157.85 10.4675C158.733 9.97714 159.722 9.73194 160.817 9.73194ZM173.283 20.1771C173.283 20.7819 173.438 21.2396 173.749 21.5502C174.06 21.8444 174.476 21.9915 174.999 21.9915C175.572 21.9915 176.078 21.8771 176.52 21.6483L177.035 23.5362C176.74 23.6997 176.364 23.8387 175.907 23.9531C175.449 24.0838 174.942 24.1492 174.386 24.1492C173.275 24.1492 172.4 23.8632 171.763 23.2911C171.125 22.7026 170.807 21.8771 170.807 20.8146V12.2084H169.262V11.4973L173.16 7.23099H173.283V9.97714H176.569V12.2084H173.283V20.1771ZM182.882 6.56897C182.882 6.99397 182.727 7.35358 182.416 7.64781C182.122 7.94204 181.762 8.08916 181.337 8.08916C180.896 8.08916 180.52 7.94204 180.209 7.64781C179.899 7.35358 179.744 6.99397 179.744 6.56897C179.744 6.17666 179.899 5.83339 180.209 5.53916C180.52 5.24493 180.896 5.09782 181.337 5.09782C181.762 5.09782 182.122 5.24493 182.416 5.53916C182.727 5.81705 182.882 6.16032 182.882 6.56897ZM180.062 9.97714H182.539V23.8795H180.062V9.97714ZM196.072 21.9915C195.565 22.7271 194.887 23.2665 194.037 23.6098C193.187 23.9367 192.28 24.1002 191.315 24.1002C189.73 24.1002 188.438 23.7161 187.441 22.9478C186.46 22.1795 185.97 21.1088 185.97 19.7358C185.97 18.8204 186.232 18.0194 186.755 17.3329C187.278 16.6464 187.981 16.1151 188.863 15.7391C189.762 15.3632 190.759 15.1752 191.855 15.1752C193.195 15.1752 194.576 15.3714 195.998 15.7637C196.031 14.456 195.745 13.4834 195.14 12.8459C194.535 12.192 193.571 11.8651 192.247 11.8651C191.479 11.8651 190.678 11.9714 189.844 12.1839C189.01 12.38 188.267 12.6334 187.613 12.944L186.951 11.0315C188.782 10.1324 190.645 9.68291 192.541 9.68291C196.497 9.68291 198.475 11.7425 198.475 15.8617V23.8795H196.072V21.9915ZM191.855 22.1632C192.525 22.1632 193.179 22.0488 193.816 21.8199C194.454 21.5911 194.977 21.2314 195.385 20.7411C195.794 20.2507 195.998 19.6377 195.998 18.9021V17.5536C194.756 17.1613 193.522 16.9651 192.296 16.9651C191.201 16.9651 190.294 17.2021 189.574 17.6762C188.855 18.1502 188.496 18.7877 188.496 19.5887C188.496 20.4223 188.806 21.0598 189.427 21.5012C190.065 21.9425 190.874 22.1632 191.855 22.1632ZM202.444 4.85263H204.92V23.8795H202.444V4.85263ZM37.7874 53.1492C36.2345 53.1492 34.8941 52.855 33.7662 52.2665C32.6383 51.6781 31.772 50.8444 31.1672 49.7656C30.5787 48.6867 30.2845 47.4199 30.2845 45.9651C30.2845 44.4122 30.6114 43.0882 31.2653 41.993C31.9355 40.8978 32.7936 40.0805 33.8398 39.5411C34.8859 38.9853 35.9975 38.7074 37.1744 38.7074C38.5148 38.7074 39.6999 38.9935 40.7297 39.5656C41.7758 40.1214 42.585 40.955 43.1571 42.0666C43.7455 43.1617 44.0398 44.5021 44.0398 46.0877C44.0398 46.3819 44.0234 46.7579 43.9907 47.2156H32.8345C32.9653 48.2617 33.4556 49.1526 34.3056 49.8882C35.172 50.6238 36.3489 50.9915 37.8364 50.9915C38.6374 50.9915 39.3893 50.8608 40.0922 50.5992C40.7951 50.3213 41.3753 49.9944 41.833 49.6185L43.1816 51.0161C42.6258 51.6045 41.8739 52.1112 40.9258 52.5362C39.9941 52.9449 38.9479 53.1492 37.7874 53.1492ZM37.1744 41.0122C36.308 41.0122 35.5398 41.2084 34.8696 41.6007C34.2157 41.9767 33.709 42.4916 33.3494 43.1454C33.0061 43.7829 32.8345 44.4694 32.8345 45.205H41.4407C41.4407 44.4531 41.2691 43.7584 40.9258 43.1209C40.5989 42.4834 40.1085 41.9767 39.4547 41.6007C38.8172 41.2084 38.0571 41.0122 37.1744 41.0122ZM52.0654 53.2473C49.6952 53.2473 47.75 52.667 46.2298 51.5064L47.2106 49.7656C47.7991 50.1906 48.5265 50.5338 49.3928 50.7954C50.2755 51.0569 51.1337 51.1877 51.9673 51.1877C52.9154 51.1877 53.6346 51.0488 54.125 50.7709C54.6317 50.4766 54.8851 50.0026 54.8851 49.3488C54.8851 48.8584 54.7298 48.4742 54.4192 48.1964C54.1087 47.9021 53.7163 47.6814 53.2423 47.5343C52.7846 47.3709 52.1389 47.1992 51.3053 47.0194C50.2265 46.7906 49.3519 46.5536 48.6817 46.3084C48.0116 46.0468 47.4394 45.6464 46.9654 45.1069C46.4914 44.5512 46.2543 43.7992 46.2543 42.8512C46.2543 41.9358 46.4995 41.1675 46.9899 40.5464C47.4966 39.9252 48.1505 39.4757 48.9515 39.1978C49.7524 38.9036 50.6024 38.7565 51.5014 38.7565C52.4659 38.7565 53.3731 38.8872 54.2231 39.1488C55.0731 39.394 55.8005 39.7291 56.4053 40.1541L55.5226 41.944C54.9341 41.5843 54.2803 41.3065 53.5611 41.1103C52.8582 40.9142 52.1553 40.8161 51.4524 40.8161C50.7659 40.8161 50.1284 40.9632 49.5399 41.2574C48.9678 41.5353 48.6817 42.0093 48.6817 42.6795C48.6817 43.1209 48.8289 43.4805 49.1231 43.7584C49.4173 44.0199 49.7769 44.2161 50.2019 44.3468C50.6433 44.4776 51.2726 44.6329 52.0899 44.8127C53.1851 45.0415 54.076 45.2867 54.7625 45.5483C55.4654 45.8098 56.062 46.2266 56.5524 46.7988C57.0428 47.3709 57.288 48.1637 57.288 49.1771C57.288 50.4848 56.8058 51.4901 55.8413 52.193C54.8933 52.8959 53.6346 53.2473 52.0654 53.2473ZM63.7848 49.1771C63.7848 49.7819 63.9401 50.2396 64.2507 50.5502C64.5612 50.8444 64.9781 50.9915 65.5011 50.9915C66.0733 50.9915 66.58 50.8771 67.0213 50.6483L67.5362 52.5362C67.242 52.6997 66.866 52.8387 66.4083 52.9531C65.9507 53.0838 65.4439 53.1492 64.8882 53.1492C63.7766 53.1492 62.9021 52.8632 62.2646 52.2911C61.6271 51.7026 61.3084 50.8771 61.3084 49.8146V41.2084H59.7636V40.4973L63.6622 36.231H63.7848V38.9771H67.0704V41.2084H63.7848V49.1771ZM79.3664 50.9915C78.8596 51.7271 78.1813 52.2665 77.3313 52.6098C76.4813 52.9367 75.5741 53.1002 74.6096 53.1002C73.0241 53.1002 71.7327 52.7161 70.7356 51.9478C69.7548 51.1795 69.2645 50.1088 69.2645 48.7358C69.2645 47.8204 69.526 47.0194 70.0491 46.3329C70.5721 45.6464 71.275 45.1151 72.1577 44.7391C73.0568 44.3632 74.0539 44.1752 75.1491 44.1752C76.4894 44.1752 77.8707 44.3714 79.2928 44.7637C79.3255 43.456 79.0394 42.4834 78.4346 41.8459C77.8298 41.192 76.8654 40.8651 75.5414 40.8651C74.7731 40.8651 73.9721 40.9714 73.1385 41.1839C72.3048 41.38 71.5611 41.6334 70.9072 41.944L70.2452 40.0315C72.076 39.1324 73.9394 38.6829 75.8356 38.6829C79.7914 38.6829 81.7692 40.7425 81.7692 44.8617V52.8795H79.3664V50.9915ZM75.1491 51.1632C75.8193 51.1632 76.4731 51.0488 77.1106 50.8199C77.7481 50.5911 78.2712 50.2314 78.6798 49.7411C79.0885 49.2507 79.2928 48.6377 79.2928 47.9021V46.5536C78.0505 46.1613 76.8164 45.9651 75.5904 45.9651C74.4952 45.9651 73.588 46.2021 72.8688 46.6762C72.1495 47.1502 71.7899 47.7877 71.7899 48.5887C71.7899 49.4223 72.1005 50.0598 72.7217 50.5012C73.3592 50.9425 74.1683 51.1632 75.1491 51.1632ZM93.2168 38.7074C94.4264 38.7074 95.5135 39.0017 96.4779 39.5901C97.4586 40.1786 98.2269 41.0204 98.7827 42.1156C99.3548 43.2108 99.6409 44.4776 99.6409 45.9161C99.6409 47.3545 99.3548 48.6214 98.7827 49.7165C98.2269 50.8117 97.4586 51.6617 96.4779 52.2665C95.5135 52.855 94.4264 53.1492 93.2168 53.1492C90.9447 53.1492 89.2774 52.3646 88.2149 50.7954V52.8795H85.7385V33.8526H88.2149V41.0613C89.2774 39.492 90.9447 38.7074 93.2168 38.7074ZM92.5303 50.8689C93.4457 50.8689 94.2466 50.6483 94.9332 50.2069C95.6361 49.7656 96.1755 49.1689 96.5514 48.417C96.9274 47.6651 97.1154 46.8396 97.1154 45.9406C97.1154 45.0252 96.9274 44.1916 96.5514 43.4396C96.1755 42.6877 95.6361 42.0911 94.9332 41.6497C94.2466 41.2084 93.4457 40.9877 92.5303 40.9877C91.1736 40.9877 90.1111 41.4536 89.3428 42.3853C88.5745 43.317 88.1904 44.5021 88.1904 45.9406C88.1904 46.856 88.3539 47.6896 88.6808 48.4415C89.024 49.1771 89.5226 49.7656 90.1764 50.2069C90.8303 50.6483 91.6149 50.8689 92.5303 50.8689ZM102.859 33.8526H105.335V52.8795H102.859V33.8526ZM112.605 35.569C112.605 35.994 112.45 36.3536 112.139 36.6478C111.845 36.942 111.485 37.0892 111.06 37.0892C110.619 37.0892 110.243 36.942 109.932 36.6478C109.622 36.3536 109.466 35.994 109.466 35.569C109.466 35.1767 109.622 34.8334 109.932 34.5392C110.243 34.2449 110.619 34.0978 111.06 34.0978C111.485 34.0978 111.845 34.2449 112.139 34.5392C112.45 34.817 112.605 35.1603 112.605 35.569ZM109.785 38.9771H112.262V52.8795H109.785V38.9771ZM121.528 53.2473C119.158 53.2473 117.213 52.667 115.693 51.5064L116.674 49.7656C117.262 50.1906 117.99 50.5338 118.856 50.7954C119.739 51.0569 120.597 51.1877 121.43 51.1877C122.378 51.1877 123.098 51.0488 123.588 50.7709C124.095 50.4766 124.348 50.0026 124.348 49.3488C124.348 48.8584 124.193 48.4742 123.882 48.1964C123.572 47.9021 123.179 47.6814 122.705 47.5343C122.248 47.3709 121.602 47.1992 120.768 47.0194C119.69 46.7906 118.815 46.5536 118.145 46.3084C117.475 46.0468 116.902 45.6464 116.428 45.1069C115.954 44.5512 115.717 43.7992 115.717 42.8512C115.717 41.9358 115.963 41.1675 116.453 40.5464C116.96 39.9252 117.614 39.4757 118.415 39.1978C119.215 38.9036 120.065 38.7565 120.965 38.7565C121.929 38.7565 122.836 38.8872 123.686 39.1488C124.536 39.394 125.264 39.7291 125.868 40.1541L124.986 41.944C124.397 41.5843 123.743 41.3065 123.024 41.1103C122.321 40.9142 121.618 40.8161 120.915 40.8161C120.229 40.8161 119.591 40.9632 119.003 41.2574C118.431 41.5353 118.145 42.0093 118.145 42.6795C118.145 43.1209 118.292 43.4805 118.586 43.7584C118.88 44.0199 119.24 44.2161 119.665 44.3468C120.106 44.4776 120.736 44.6329 121.553 44.8127C122.648 45.0415 123.539 45.2867 124.226 45.5483C124.928 45.8098 125.525 46.2266 126.015 46.7988C126.506 47.3709 126.751 48.1637 126.751 49.1771C126.751 50.4848 126.269 51.4901 125.304 52.193C124.356 52.8959 123.098 53.2473 121.528 53.2473ZM137.71 38.7319C138.756 38.7319 139.672 38.969 140.456 39.443C141.257 39.917 141.879 40.5954 142.32 41.4781C142.761 42.3444 142.982 43.3661 142.982 44.543V52.8795H140.506V45.0824C140.506 43.7584 140.179 42.7449 139.525 42.042C138.871 41.3392 137.98 40.9877 136.852 40.9877C136.035 40.9877 135.291 41.1675 134.621 41.5271C133.967 41.8867 133.452 42.3853 133.076 43.0228C132.7 43.644 132.512 44.3387 132.512 45.1069V52.8795H130.036V33.8526H132.512V41.3065C133.133 40.5709 133.877 39.9579 134.744 39.4675C135.626 38.9771 136.615 38.7319 137.71 38.7319ZM163.392 38.7319C164.39 38.7319 165.272 38.969 166.041 39.443C166.809 39.9007 167.397 40.5545 167.806 41.4045C168.231 42.2382 168.443 43.2026 168.443 44.2978V52.8795H165.967V44.6901C165.967 43.5459 165.648 42.6468 165.011 41.993C164.39 41.3228 163.572 40.9877 162.559 40.9877C161.889 40.9877 161.276 41.1675 160.72 41.5271C160.18 41.8704 159.747 42.3608 159.42 42.9983C159.11 43.6194 158.954 44.3305 158.954 45.1315V52.8795H156.454V44.7882C156.454 43.6113 156.151 42.6877 155.546 42.0175C154.958 41.331 154.181 40.9877 153.217 40.9877C152.481 40.9877 151.828 41.2084 151.255 41.6497C150.683 42.0747 150.234 42.6223 149.907 43.2925C149.596 43.9464 149.441 44.6002 149.441 45.254V52.8795H146.965V38.9771H149.441V41.2574C150.749 39.5738 152.261 38.7319 153.977 38.7319C154.958 38.7319 155.832 38.9771 156.601 39.4675C157.369 39.9416 157.957 40.6036 158.366 41.4536C159.739 39.6392 161.415 38.7319 163.392 38.7319ZM178.964 53.1492C177.411 53.1492 176.071 52.855 174.943 52.2665C173.815 51.6781 172.949 50.8444 172.344 49.7656C171.756 48.6867 171.461 47.4199 171.461 45.9651C171.461 44.4122 171.788 43.0882 172.442 41.993C173.112 40.8978 173.971 40.0805 175.017 39.5411C176.063 38.9853 177.174 38.7074 178.351 38.7074C179.692 38.7074 180.877 38.9935 181.907 39.5656C182.953 40.1214 183.762 40.955 184.334 42.0666C184.922 43.1617 185.217 44.5021 185.217 46.0877C185.217 46.3819 185.2 46.7579 185.168 47.2156H174.011C174.142 48.2617 174.633 49.1526 175.483 49.8882C176.349 50.6238 177.526 50.9915 179.013 50.9915C179.814 50.9915 180.566 50.8608 181.269 50.5992C181.972 50.3213 182.552 49.9944 183.01 49.6185L184.358 51.0161C183.803 51.6045 183.051 52.1112 182.103 52.5362C181.171 52.9449 180.125 53.1492 178.964 53.1492ZM178.351 41.0122C177.485 41.0122 176.717 41.2084 176.046 41.6007C175.393 41.9767 174.886 42.4916 174.526 43.1454C174.183 43.7829 174.011 44.4694 174.011 45.205H182.618C182.618 44.4531 182.446 43.7584 182.103 43.1209C181.776 42.4834 181.285 41.9767 180.632 41.6007C179.994 41.2084 179.234 41.0122 178.351 41.0122ZM196.111 38.7319C197.157 38.7319 198.073 38.969 198.857 39.443C199.658 39.917 200.279 40.5954 200.721 41.4781C201.162 42.3444 201.383 43.3661 201.383 44.543V52.8795H198.931V45.0824C198.931 43.7584 198.596 42.7449 197.925 42.042C197.272 41.3392 196.381 40.9877 195.253 40.9877C194.436 40.9877 193.692 41.1675 193.022 41.5271C192.368 41.8867 191.853 42.3853 191.477 43.0228C191.101 43.644 190.913 44.3387 190.913 45.1069V52.8795H188.437V38.9771H190.913V41.3065C191.534 40.5709 192.278 39.9579 193.144 39.4675C194.027 38.9771 195.016 38.7319 196.111 38.7319ZM208.577 49.1771C208.577 49.7819 208.733 50.2396 209.043 50.5502C209.354 50.8444 209.771 50.9915 210.294 50.9915C210.866 50.9915 211.372 50.8771 211.814 50.6483L212.329 52.5362C212.035 52.6997 211.659 52.8387 211.201 52.9531C210.743 53.0838 210.236 53.1492 209.681 53.1492C208.569 53.1492 207.695 52.8632 207.057 52.2911C206.42 51.7026 206.101 50.8771 206.101 49.8146V41.2084H204.556V40.4973L208.455 36.231H208.577V38.9771H211.863V41.2084H208.577V49.1771ZM225.743 35.569C225.743 35.994 225.587 36.3536 225.277 36.6478C224.983 36.942 224.623 37.0892 224.198 37.0892C223.757 37.0892 223.381 36.942 223.07 36.6478C222.759 36.3536 222.604 35.994 222.604 35.569C222.604 35.1767 222.759 34.8334 223.07 34.5392C223.381 34.2449 223.757 34.0978 224.198 34.0978C224.623 34.0978 224.983 34.2449 225.277 34.5392C225.587 34.817 225.743 35.1603 225.743 35.569ZM222.923 38.9771H225.399V52.8795H222.923V38.9771ZM237.535 38.7319C238.581 38.7319 239.497 38.969 240.281 39.443C241.082 39.917 241.703 40.5954 242.145 41.4781C242.586 42.3444 242.807 43.3661 242.807 44.543V52.8795H240.355V45.0824C240.355 43.7584 240.02 42.7449 239.349 42.042C238.696 41.3392 237.805 40.9877 236.677 40.9877C235.86 40.9877 235.116 41.1675 234.446 41.5271C233.792 41.8867 233.277 42.3853 232.901 43.0228C232.525 43.644 232.337 44.3387 232.337 45.1069V52.8795H229.861V38.9771H232.337V41.3065C232.958 40.5709 233.702 39.9579 234.568 39.4675C235.451 38.9771 236.44 38.7319 237.535 38.7319ZM254.601 35.5935C254.601 35.1848 254.756 34.8334 255.067 34.5392C255.377 34.2449 255.753 34.0978 256.195 34.0978C256.62 34.0978 256.979 34.2449 257.274 34.5392C257.584 34.8334 257.739 35.1848 257.739 35.5935C257.739 36.0021 257.584 36.3536 257.274 36.6478C256.979 36.942 256.62 37.0892 256.195 37.0892C255.753 37.0892 255.377 36.942 255.067 36.6478C254.756 36.3536 254.601 36.0021 254.601 35.5935ZM252.149 55.8218C252.394 55.9526 252.607 56.0425 252.787 56.0915C252.983 56.1406 253.212 56.1651 253.473 56.1651C254.454 56.1651 254.944 55.5685 254.944 54.3752V38.9771H257.421V54.4242C257.421 55.6829 257.102 56.631 256.464 57.2685C255.827 57.9223 254.977 58.2492 253.914 58.2492C253.473 58.2492 253.073 58.2002 252.713 58.1021C252.37 58.004 252.01 57.8651 251.634 57.6853L252.149 55.8218ZM274.844 38.9771V52.8795H272.367V50.5012C271.746 51.2367 270.994 51.8579 270.112 52.3646C269.229 52.8713 268.24 53.1247 267.145 53.1247C266.115 53.1247 265.2 52.8877 264.399 52.4137C263.614 51.9396 263.001 51.2613 262.56 50.3786C262.118 49.4959 261.898 48.4661 261.898 47.2891V38.9771H264.35V46.7742C264.35 48.1146 264.677 49.1363 265.33 49.8391C265.984 50.5257 266.883 50.8689 268.028 50.8689C268.845 50.8689 269.58 50.6891 270.234 50.3295C270.904 49.9699 271.428 49.4795 271.803 48.8584C272.179 48.2209 272.367 47.518 272.367 46.7497V38.9771H274.844ZM283.824 53.2473C281.454 53.2473 279.509 52.667 277.989 51.5064L278.97 49.7656C279.558 50.1906 280.285 50.5338 281.152 50.7954C282.035 51.0569 282.893 51.1877 283.726 51.1877C284.674 51.1877 285.394 51.0488 285.884 50.7709C286.391 50.4766 286.644 50.0026 286.644 49.3488C286.644 48.8584 286.489 48.4742 286.178 48.1964C285.868 47.9021 285.475 47.6814 285.001 47.5343C284.544 47.3709 283.898 47.1992 283.064 47.0194C281.985 46.7906 281.111 46.5536 280.441 46.3084C279.771 46.0468 279.198 45.6464 278.724 45.1069C278.25 44.5512 278.013 43.7992 278.013 42.8512C278.013 41.9358 278.259 41.1675 278.749 40.5464C279.256 39.9252 279.91 39.4757 280.71 39.1978C281.511 38.9036 282.361 38.7565 283.26 38.7565C284.225 38.7565 285.132 38.8872 285.982 39.1488C286.832 39.394 287.559 39.7291 288.164 40.1541L287.282 41.944C286.693 41.5843 286.039 41.3065 285.32 41.1103C284.617 40.9142 283.914 40.8161 283.211 40.8161C282.525 40.8161 281.887 40.9632 281.299 41.2574C280.727 41.5353 280.441 42.0093 280.441 42.6795C280.441 43.1209 280.588 43.4805 280.882 43.7584C281.176 44.0199 281.536 44.2161 281.961 44.3468C282.402 44.4776 283.032 44.6329 283.849 44.8127C284.944 45.0415 285.835 45.2867 286.522 45.5483C287.224 45.8098 287.821 46.2266 288.311 46.7988C288.802 47.3709 289.047 48.1637 289.047 49.1771C289.047 50.4848 288.565 51.4901 287.6 52.193C286.652 52.8959 285.394 53.2473 283.824 53.2473ZM295.544 49.1771C295.544 49.7819 295.699 50.2396 296.01 50.5502C296.32 50.8444 296.737 50.9915 297.26 50.9915C297.832 50.9915 298.339 50.8771 298.78 50.6483L299.295 52.5362C299.001 52.6997 298.625 52.8387 298.167 52.9531C297.71 53.0838 297.203 53.1492 296.647 53.1492C295.536 53.1492 294.661 52.8632 294.024 52.2911C293.386 51.7026 293.067 50.8771 293.067 49.8146V41.2084H291.523V40.4973L295.421 36.231H295.544V38.9771H298.829V41.2084H295.544V49.1771ZM37.7874 82.1492C36.2345 82.1492 34.8941 81.855 33.7662 81.2665C32.6383 80.6781 31.772 79.8444 31.1672 78.7656C30.5787 77.6867 30.2845 76.4199 30.2845 74.9651C30.2845 73.4122 30.6114 72.0882 31.2653 70.993C31.9355 69.8978 32.7936 69.0805 33.8398 68.5411C34.8859 67.9853 35.9975 67.7074 37.1744 67.7074C38.5148 67.7074 39.6999 67.9935 40.7297 68.5656C41.7758 69.1214 42.585 69.955 43.1571 71.0666C43.7455 72.1617 44.0398 73.5021 44.0398 75.0877C44.0398 75.3819 44.0234 75.7579 43.9907 76.2156H32.8345C32.9653 77.2617 33.4556 78.1526 34.3056 78.8882C35.172 79.6238 36.3489 79.9915 37.8364 79.9915C38.6374 79.9915 39.3893 79.8608 40.0922 79.5992C40.7951 79.3213 41.3753 78.9944 41.833 78.6185L43.1816 80.0161C42.6258 80.6045 41.8739 81.1112 40.9258 81.5362C39.9941 81.9449 38.9479 82.1492 37.7874 82.1492ZM37.1744 70.0122C36.308 70.0122 35.5398 70.2084 34.8696 70.6007C34.2157 70.9767 33.709 71.4916 33.3494 72.1454C33.0061 72.7829 32.8345 73.4694 32.8345 74.205H41.4407C41.4407 73.4531 41.2691 72.7584 40.9258 72.1209C40.5989 71.4834 40.1085 70.9767 39.4547 70.6007C38.8172 70.2084 38.0571 70.0122 37.1744 70.0122ZM56.3317 79.9915C55.825 80.7271 55.1466 81.2665 54.2966 81.6098C53.4466 81.9367 52.5394 82.1002 51.575 82.1002C49.9894 82.1002 48.6981 81.7161 47.701 80.9478C46.7202 80.1795 46.2298 79.1088 46.2298 77.7358C46.2298 76.8204 46.4914 76.0194 47.0144 75.3329C47.5375 74.6464 48.2404 74.1151 49.1231 73.7391C50.0221 73.3632 51.0192 73.1752 52.1144 73.1752C53.4548 73.1752 54.8361 73.3714 56.2582 73.7637C56.2909 72.456 56.0048 71.4834 55.4 70.8459C54.7952 70.192 53.8308 69.8651 52.5067 69.8651C51.7385 69.8651 50.9375 69.9714 50.1039 70.1839C49.2702 70.38 48.5265 70.6334 47.8726 70.944L47.2106 69.0315C49.0414 68.1324 50.9048 67.6829 52.801 67.6829C56.7567 67.6829 58.7346 69.7425 58.7346 73.8617V81.8795H56.3317V79.9915ZM52.1144 80.1632C52.7846 80.1632 53.4385 80.0488 54.076 79.8199C54.7135 79.5911 55.2365 79.2314 55.6452 78.7411C56.0538 78.2507 56.2582 77.6377 56.2582 76.9021V75.5536C55.0159 75.1613 53.7817 74.9651 52.5558 74.9651C51.4606 74.9651 50.5534 75.2021 49.8341 75.6762C49.1149 76.1502 48.7553 76.7877 48.7553 77.5887C48.7553 78.4223 49.0659 79.0598 49.687 79.5012C50.3245 79.9425 51.1337 80.1632 52.1144 80.1632ZM67.5096 82.2473C65.1394 82.2473 63.1942 81.667 61.674 80.5064L62.6548 78.7656C63.2433 79.1906 63.9707 79.5338 64.837 79.7954C65.7197 80.0569 66.5779 80.1877 67.4115 80.1877C68.3596 80.1877 69.0788 80.0488 69.5692 79.7709C70.0759 79.4766 70.3293 79.0026 70.3293 78.3488C70.3293 77.8584 70.174 77.4742 69.8634 77.1964C69.5529 76.9021 69.1606 76.6814 68.6865 76.5343C68.2288 76.3709 67.5832 76.1992 66.7495 76.0194C65.6707 75.7906 64.7961 75.5536 64.126 75.3084C63.4558 75.0468 62.8837 74.6464 62.4096 74.1069C61.9356 73.5512 61.6986 72.7992 61.6986 71.8512C61.6986 70.9358 61.9437 70.1675 62.4341 69.5464C62.9409 68.9252 63.5947 68.4757 64.3957 68.1978C65.1966 67.9036 66.0466 67.7565 66.9457 67.7565C67.9101 67.7565 68.8173 67.8872 69.6673 68.1488C70.5173 68.394 71.2447 68.7291 71.8495 69.1541L70.9668 70.944C70.3783 70.5843 69.7245 70.3065 69.0053 70.1103C68.3024 69.9142 67.5995 69.8161 66.8966 69.8161C66.2101 69.8161 65.5726 69.9632 64.9841 70.2574C64.412 70.5353 64.126 71.0093 64.126 71.6795C64.126 72.1209 64.2731 72.4805 64.5673 72.7584C64.8615 73.0199 65.2211 73.2161 65.6461 73.3468C66.0875 73.4776 66.7168 73.6329 67.5341 73.8127C68.6293 74.0415 69.5202 74.2867 70.2067 74.5483C70.9096 74.8098 71.5062 75.2266 71.9966 75.7988C72.487 76.3709 72.7322 77.1637 72.7322 78.1771C72.7322 79.4848 72.25 80.4901 71.2856 81.193C70.3375 81.8959 69.0788 82.2473 67.5096 82.2473ZM88.3885 67.9771L82.1361 82.9093C81.4822 84.4949 80.7385 85.6146 79.9048 86.2685C79.0712 86.9223 78.0087 87.2492 76.7173 87.2492C76.1452 87.2492 75.614 87.192 75.1236 87.0776C74.6495 86.9632 74.151 86.7834 73.6279 86.5382L74.388 84.5276C74.7967 84.6911 75.1481 84.8136 75.4423 84.8954C75.7529 84.9935 76.0962 85.0425 76.4721 85.0425C77.3058 85.0425 77.976 84.7973 78.4827 84.3069C79.0058 83.8329 79.5125 82.9829 80.0029 81.7569L80.0274 81.6834L73.9221 67.9771H76.7418L81.2534 78.6675L85.6423 67.9771H88.3885ZM101.761 78.1771C101.761 78.7819 101.916 79.2396 102.227 79.5502C102.537 79.8444 102.954 79.9915 103.477 79.9915C104.049 79.9915 104.556 79.8771 104.997 79.6483L105.512 81.5362C105.218 81.6997 104.842 81.8387 104.384 81.9531C103.927 82.0838 103.42 82.1492 102.864 82.1492C101.753 82.1492 100.878 81.8632 100.241 81.2911C99.6031 80.7026 99.2844 79.8771 99.2844 78.8146V70.2084H97.7397V69.4973L101.638 65.231H101.761V67.9771H105.046V70.2084H101.761V78.1771ZM117.342 79.9915C116.836 80.7271 116.157 81.2665 115.307 81.6098C114.457 81.9367 113.55 82.1002 112.586 82.1002C111 82.1002 109.709 81.7161 108.712 80.9478C107.731 80.1795 107.24 79.1088 107.24 77.7358C107.24 76.8204 107.502 76.0194 108.025 75.3329C108.548 74.6464 109.251 74.1151 110.134 73.7391C111.033 73.3632 112.03 73.1752 113.125 73.1752C114.465 73.1752 115.847 73.3714 117.269 73.7637C117.302 72.456 117.015 71.4834 116.411 70.8459C115.806 70.192 114.841 69.8651 113.517 69.8651C112.749 69.8651 111.948 69.9714 111.114 70.1839C110.281 70.38 109.537 70.6334 108.883 70.944L108.221 69.0315C110.052 68.1324 111.915 67.6829 113.812 67.6829C117.767 67.6829 119.745 69.7425 119.745 73.8617V81.8795H117.342V79.9915ZM113.125 80.1632C113.795 80.1632 114.449 80.0488 115.087 79.8199C115.724 79.5911 116.247 79.2314 116.656 78.7411C117.064 78.2507 117.269 77.6377 117.269 76.9021V75.5536C116.027 75.1613 114.792 74.9651 113.566 74.9651C112.471 74.9651 111.564 75.2021 110.845 75.6762C110.126 76.1502 109.766 76.7877 109.766 77.5887C109.766 78.4223 110.077 79.0598 110.698 79.5012C111.335 79.9425 112.144 80.1632 113.125 80.1632ZM131.119 67.7074C132.313 67.7074 133.391 68.0098 134.356 68.6146C135.337 69.2031 136.105 70.0449 136.661 71.1401C137.216 72.2353 137.494 73.5021 137.494 74.9406C137.494 76.379 137.216 77.6459 136.661 78.7411C136.105 79.8199 135.337 80.6617 134.356 81.2665C133.391 81.855 132.313 82.1492 131.119 82.1492C128.88 82.1492 127.221 81.3646 126.142 79.7954V87.004H123.714V67.9771H126.142V70.0613C127.221 68.492 128.88 67.7074 131.119 67.7074ZM130.433 79.8689C131.348 79.8689 132.149 79.6483 132.836 79.2069C133.522 78.7656 134.045 78.1689 134.405 77.417C134.781 76.6651 134.969 75.8314 134.969 74.9161C134.969 74.017 134.781 73.1916 134.405 72.4396C134.045 71.6877 133.522 71.0911 132.836 70.6497C132.149 70.2084 131.348 69.9877 130.433 69.9877C129.534 69.9877 128.757 70.2084 128.103 70.6497C127.45 71.0911 126.951 71.6877 126.608 72.4396C126.281 73.1752 126.117 74.0007 126.117 74.9161C126.117 76.3382 126.493 77.5233 127.245 78.4713C128.014 79.4031 129.076 79.8689 130.433 79.8689ZM154.535 82.1492C153.129 82.1492 151.878 81.8305 150.783 81.193C149.688 80.5391 148.83 79.6646 148.209 78.5694C147.604 77.4579 147.301 76.2319 147.301 74.8915C147.301 73.5675 147.604 72.3579 148.209 71.2627C148.83 70.1675 149.688 69.3012 150.783 68.6637C151.878 68.0262 153.129 67.7074 154.535 67.7074C155.94 67.7074 157.191 68.0262 158.286 68.6637C159.381 69.3012 160.231 70.1675 160.836 71.2627C161.457 72.3579 161.768 73.5675 161.768 74.8915C161.768 76.2319 161.457 77.4579 160.836 78.5694C160.231 79.6646 159.381 80.5391 158.286 81.193C157.191 81.8305 155.94 82.1492 154.535 82.1492ZM154.535 69.9632C153.586 69.9632 152.753 70.1757 152.034 70.6007C151.331 71.0257 150.783 71.6141 150.391 72.3661C150.015 73.118 149.827 73.9598 149.827 74.8915C149.827 75.8233 150.015 76.6733 150.391 77.4415C150.783 78.1935 151.331 78.7901 152.034 79.2314C152.753 79.6728 153.586 79.8935 154.535 79.8935C155.483 79.8935 156.308 79.6728 157.011 79.2314C157.73 78.7901 158.278 78.1935 158.654 77.4415C159.046 76.6733 159.242 75.8233 159.242 74.8915C159.242 73.9598 159.046 73.118 158.654 72.3661C158.278 71.6141 157.73 71.0257 157.011 70.6007C156.308 70.1757 155.483 69.9632 154.535 69.9632ZM172.645 67.7319C173.692 67.7319 174.607 67.969 175.392 68.443C176.192 68.917 176.814 69.5954 177.255 70.4781C177.696 71.3444 177.917 72.3661 177.917 73.543V81.8795H175.465V74.0824C175.465 72.7584 175.13 71.7449 174.46 71.042C173.806 70.3392 172.915 69.9877 171.787 69.9877C170.97 69.9877 170.226 70.1675 169.556 70.5271C168.902 70.8867 168.387 71.3853 168.011 72.0228C167.635 72.644 167.447 73.3387 167.447 74.1069V81.8795H164.971V67.9771H167.447V70.3065C168.068 69.5709 168.812 68.9579 169.679 68.4675C170.561 67.9771 171.55 67.7319 172.645 67.7319ZM202.412 67.9771L196.16 82.9093C195.506 84.4949 194.762 85.6146 193.929 86.2685C193.095 86.9223 192.032 87.2492 190.741 87.2492C190.169 87.2492 189.638 87.192 189.147 87.0776C188.673 86.9632 188.175 86.7834 187.652 86.5382L188.412 84.5276C188.82 84.6911 189.172 84.8136 189.466 84.8954C189.777 84.9935 190.12 85.0425 190.496 85.0425C191.33 85.0425 192 84.7973 192.507 84.3069C193.03 83.8329 193.536 82.9829 194.027 81.7569L194.051 81.6834L187.946 67.9771H190.766L195.277 78.6675L199.666 67.9771H202.412ZM210.996 82.1492C209.59 82.1492 208.339 81.8305 207.244 81.193C206.149 80.5391 205.291 79.6646 204.67 78.5694C204.065 77.4579 203.763 76.2319 203.763 74.8915C203.763 73.5675 204.065 72.3579 204.67 71.2627C205.291 70.1675 206.149 69.3012 207.244 68.6637C208.339 68.0262 209.59 67.7074 210.996 67.7074C212.401 67.7074 213.652 68.0262 214.747 68.6637C215.842 69.3012 216.692 70.1675 217.297 71.2627C217.918 72.3579 218.229 73.5675 218.229 74.8915C218.229 76.2319 217.918 77.4579 217.297 78.5694C216.692 79.6646 215.842 80.5391 214.747 81.193C213.652 81.8305 212.401 82.1492 210.996 82.1492ZM210.996 69.9632C210.048 69.9632 209.214 70.1757 208.495 70.6007C207.792 71.0257 207.244 71.6141 206.852 72.3661C206.476 73.118 206.288 73.9598 206.288 74.8915C206.288 75.8233 206.476 76.6733 206.852 77.4415C207.244 78.1935 207.792 78.7901 208.495 79.2314C209.214 79.6728 210.048 79.8935 210.996 79.8935C211.944 79.8935 212.769 79.6728 213.472 79.2314C214.191 78.7901 214.739 78.1935 215.115 77.4415C215.507 76.6733 215.703 75.8233 215.703 74.8915C215.703 73.9598 215.507 73.118 215.115 72.3661C214.739 71.6141 214.191 71.0257 213.472 70.6007C212.769 70.1757 211.944 69.9632 210.996 69.9632ZM234.354 67.9771V81.8795H231.877V79.5012C231.256 80.2367 230.504 80.8579 229.621 81.3646C228.739 81.8713 227.75 82.1247 226.655 82.1247C225.625 82.1247 224.709 81.8877 223.908 81.4137C223.124 80.9396 222.511 80.2613 222.07 79.3786C221.628 78.4959 221.408 77.4661 221.408 76.2891V67.9771H223.859V75.7742C223.859 77.1146 224.186 78.1363 224.84 78.8391C225.494 79.5257 226.393 79.8689 227.537 79.8689C228.355 79.8689 229.09 79.6891 229.744 79.3295C230.414 78.9699 230.937 78.4795 231.313 77.8584C231.689 77.2209 231.877 76.518 231.877 75.7497V67.9771H234.354ZM241.005 71.2137C242.182 68.9579 243.972 67.83 246.375 67.83V70.5026H246.031C245.165 70.5026 244.348 70.6906 243.579 71.0666C242.827 71.4425 242.206 72.0718 241.716 72.9545C241.242 73.8209 241.005 74.9488 241.005 76.3382V81.8795H238.528V67.9771H241.005V71.2137ZM47.6686 96.7319C48.6657 96.7319 49.5484 96.969 50.3167 97.443C51.0849 97.9007 51.6734 98.5545 52.0821 99.4045C52.5071 100.238 52.7196 101.203 52.7196 102.298V110.88H50.2431V102.69C50.2431 101.546 49.9244 100.647 49.2869 99.993C48.6657 99.3228 47.8484 98.9877 46.835 98.9877C46.1648 98.9877 45.5518 99.1675 44.996 99.5271C44.4566 99.8704 44.0234 100.361 43.6965 100.998C43.3859 101.619 43.2306 102.33 43.2306 103.131V110.88H40.7297V102.788C40.7297 101.611 40.4273 100.688 39.8225 100.018C39.234 99.331 38.4576 98.9877 37.4931 98.9877C36.7576 98.9877 36.1037 99.2084 35.5316 99.6497C34.9595 100.075 34.51 100.622 34.1831 101.293C33.8725 101.946 33.7172 102.6 33.7172 103.254V110.88H31.2407V96.9771H33.7172V99.2574C35.0249 97.5738 36.5369 96.7319 38.2532 96.7319C39.234 96.7319 40.1085 96.9771 40.8768 97.4675C41.6451 97.9416 42.2335 98.6036 42.6422 99.4536C44.0152 97.6392 45.6907 96.7319 47.6686 96.7319ZM62.9707 111.149C61.5649 111.149 60.3144 110.83 59.2192 110.193C58.1241 109.539 57.2659 108.665 56.6447 107.569C56.0399 106.458 55.7375 105.232 55.7375 103.892C55.7375 102.568 56.0399 101.358 56.6447 100.263C57.2659 99.1675 58.1241 98.3012 59.2192 97.6637C60.3144 97.0262 61.5649 96.7074 62.9707 96.7074C64.3765 96.7074 65.6269 97.0262 66.7221 97.6637C67.8173 98.3012 68.6673 99.1675 69.2721 100.263C69.8933 101.358 70.2038 102.568 70.2038 103.892C70.2038 105.232 69.8933 106.458 69.2721 107.569C68.6673 108.665 67.8173 109.539 66.7221 110.193C65.6269 110.83 64.3765 111.149 62.9707 111.149ZM62.9707 98.9632C62.0226 98.9632 61.189 99.1757 60.4697 99.6007C59.7668 100.026 59.2192 100.614 58.8269 101.366C58.451 102.118 58.263 102.96 58.263 103.892C58.263 104.823 58.451 105.673 58.8269 106.442C59.2192 107.193 59.7668 107.79 60.4697 108.231C61.189 108.673 62.0226 108.893 62.9707 108.893C63.9188 108.893 64.7442 108.673 65.4471 108.231C66.1664 107.79 66.7139 107.193 67.0899 106.442C67.4822 105.673 67.6784 104.823 67.6784 103.892C67.6784 102.96 67.4822 102.118 67.0899 101.366C66.7139 100.614 66.1664 100.026 65.4471 99.6007C64.7442 99.1757 63.9188 98.9632 62.9707 98.9632ZM80.8854 96.7074C82.095 96.7074 83.182 97.0017 84.1464 97.5901C85.1272 98.1786 85.8955 99.0204 86.4513 100.116C87.0234 101.211 87.3094 102.478 87.3094 103.916C87.3094 105.355 87.0234 106.621 86.4513 107.717C85.8955 108.812 85.1272 109.662 84.1464 110.267C83.182 110.855 82.095 111.149 80.8854 111.149C78.6133 111.149 76.946 110.365 75.8835 108.795V110.88H73.407V91.8526H75.8835V99.0613C76.946 97.492 78.6133 96.7074 80.8854 96.7074ZM80.1989 108.869C81.1142 108.869 81.9152 108.648 82.6017 108.207C83.3046 107.766 83.844 107.169 84.22 106.417C84.596 105.665 84.7839 104.84 84.7839 103.941C84.7839 103.025 84.596 102.192 84.22 101.44C83.844 100.688 83.3046 100.091 82.6017 99.6497C81.9152 99.2084 81.1142 98.9877 80.1989 98.9877C78.8421 98.9877 77.7796 99.4536 77.0114 100.385C76.2431 101.317 75.859 102.502 75.859 103.941C75.859 104.856 76.0224 105.69 76.3493 106.442C76.6926 107.177 77.1912 107.766 77.845 108.207C78.4989 108.648 79.2835 108.869 80.1989 108.869ZM93.6168 93.569C93.6168 93.994 93.4615 94.3536 93.1509 94.6478C92.8567 94.942 92.4971 95.0892 92.0721 95.0892C91.6307 95.0892 91.2548 94.942 90.9442 94.6478C90.6336 94.3536 90.4783 93.994 90.4783 93.569C90.4783 93.1767 90.6336 92.8334 90.9442 92.5392C91.2548 92.2449 91.6307 92.0978 92.0721 92.0978C92.4971 92.0978 92.8567 92.2449 93.1509 92.5392C93.4615 92.817 93.6168 93.1603 93.6168 93.569ZM90.7971 96.9771H93.2735V110.88H90.7971V96.9771ZM97.7347 91.8526H100.211V110.88H97.7347V91.8526ZM110.938 111.149C109.385 111.149 108.045 110.855 106.917 110.267C105.789 109.678 104.923 108.844 104.318 107.766C103.729 106.687 103.435 105.42 103.435 103.965C103.435 102.412 103.762 101.088 104.416 99.993C105.086 98.8978 105.944 98.0805 106.99 97.5411C108.036 96.9853 109.148 96.7074 110.325 96.7074C111.665 96.7074 112.85 96.9935 113.88 97.5656C114.926 98.1214 115.735 98.955 116.308 100.067C116.896 101.162 117.19 102.502 117.19 104.088C117.19 104.382 117.174 104.758 117.141 105.216H105.985C106.116 106.262 106.606 107.153 107.456 107.888C108.322 108.624 109.499 108.992 110.987 108.992C111.788 108.992 112.54 108.861 113.243 108.599C113.946 108.321 114.526 107.994 114.984 107.618L116.332 109.016C115.776 109.605 115.024 110.111 114.076 110.536C113.145 110.945 112.098 111.149 110.938 111.149ZM110.325 99.0122C109.459 99.0122 108.69 99.2084 108.02 99.6007C107.366 99.9767 106.86 100.492 106.5 101.145C106.157 101.783 105.985 102.469 105.985 103.205H114.591C114.591 102.453 114.42 101.758 114.076 101.121C113.749 100.483 113.259 99.9767 112.605 99.6007C111.968 99.2084 111.208 99.0122 110.325 99.0122ZM140.923 91.8526V110.88H138.446V108.795C137.384 110.365 135.716 111.149 133.444 111.149C132.235 111.149 131.14 110.855 130.159 110.267C129.194 109.662 128.426 108.812 127.854 107.717C127.298 106.621 127.02 105.355 127.02 103.916C127.02 102.478 127.298 101.211 127.854 100.116C128.426 99.0204 129.194 98.1786 130.159 97.5901C131.14 97.0017 132.235 96.7074 133.444 96.7074C135.716 96.7074 137.384 97.492 138.446 99.0613V91.8526H140.923ZM134.131 108.869C135.046 108.869 135.831 108.648 136.485 108.207C137.139 107.766 137.629 107.177 137.956 106.442C138.299 105.69 138.471 104.856 138.471 103.941C138.471 102.502 138.087 101.317 137.318 100.385C136.55 99.4536 135.488 98.9877 134.131 98.9877C133.216 98.9877 132.406 99.2084 131.704 99.6497C131.017 100.091 130.486 100.688 130.11 101.44C129.734 102.192 129.546 103.025 129.546 103.941C129.546 104.84 129.734 105.665 130.11 106.417C130.486 107.169 131.017 107.766 131.704 108.207C132.406 108.648 133.216 108.869 134.131 108.869ZM151.644 111.149C150.091 111.149 148.75 110.855 147.622 110.267C146.495 109.678 145.628 108.844 145.023 107.766C144.435 106.687 144.141 105.42 144.141 103.965C144.141 102.412 144.468 101.088 145.121 99.993C145.792 98.8978 146.65 98.0805 147.696 97.5411C148.742 96.9853 149.854 96.7074 151.031 96.7074C152.371 96.7074 153.556 96.9935 154.586 97.5656C155.632 98.1214 156.441 98.955 157.013 100.067C157.602 101.162 157.896 102.502 157.896 104.088C157.896 104.382 157.88 104.758 157.847 105.216H146.691C146.821 106.262 147.312 107.153 148.162 107.888C149.028 108.624 150.205 108.992 151.693 108.992C152.494 108.992 153.245 108.861 153.948 108.599C154.651 108.321 155.232 107.994 155.689 107.618L157.038 109.016C156.482 109.605 155.73 110.111 154.782 110.536C153.85 110.945 152.804 111.149 151.644 111.149ZM151.031 99.0122C150.164 99.0122 149.396 99.2084 148.726 99.6007C148.072 99.9767 147.565 100.492 147.206 101.145C146.862 101.783 146.691 102.469 146.691 103.205H155.297C155.297 102.453 155.125 101.758 154.782 101.121C154.455 100.483 153.965 99.9767 153.311 99.6007C152.673 99.2084 151.913 99.0122 151.031 99.0122ZM161.834 96.9771L166.272 107.741L170.734 96.9771H173.456L167.522 110.88H165.021L159.088 96.9771H161.834ZM178.979 93.569C178.979 93.994 178.824 94.3536 178.513 94.6478C178.219 94.942 177.859 95.0892 177.434 95.0892C176.993 95.0892 176.617 94.942 176.306 94.6478C175.996 94.3536 175.841 93.994 175.841 93.569C175.841 93.1767 175.996 92.8334 176.306 92.5392C176.617 92.2449 176.993 92.0978 177.434 92.0978C177.859 92.0978 178.219 92.2449 178.513 92.5392C178.824 92.817 178.979 93.1603 178.979 93.569ZM176.159 96.9771H178.636V110.88H176.159V96.9771ZM182.141 103.965C182.141 102.625 182.451 101.399 183.072 100.287C183.694 99.1757 184.544 98.3012 185.622 97.6637C186.718 97.0262 187.927 96.7074 189.251 96.7074C190.722 96.7074 191.981 97.0507 193.027 97.7372C194.073 98.4238 194.825 99.2656 195.283 100.263L193.15 101.219C192.823 100.598 192.324 100.075 191.654 99.6497C191 99.2084 190.207 98.9877 189.276 98.9877C188.377 98.9877 187.576 99.2084 186.873 99.6497C186.17 100.075 185.622 100.671 185.23 101.44C184.838 102.192 184.642 103.042 184.642 103.99C184.642 104.921 184.838 105.763 185.23 106.515C185.622 107.251 186.17 107.831 186.873 108.256C187.576 108.665 188.377 108.869 189.276 108.869C190.207 108.869 191.008 108.656 191.679 108.231C192.349 107.79 192.856 107.267 193.199 106.662L195.332 107.618C194.858 108.632 194.098 109.474 193.052 110.144C192.022 110.814 190.763 111.149 189.276 111.149C187.935 111.149 186.718 110.839 185.622 110.217C184.544 109.596 183.694 108.738 183.072 107.643C182.451 106.548 182.141 105.322 182.141 103.965ZM204.609 111.149C203.056 111.149 201.716 110.855 200.588 110.267C199.46 109.678 198.593 108.844 197.989 107.766C197.4 106.687 197.106 105.42 197.106 103.965C197.106 102.412 197.433 101.088 198.087 99.993C198.757 98.8978 199.615 98.0805 200.661 97.5411C201.707 96.9853 202.819 96.7074 203.996 96.7074C205.336 96.7074 206.521 96.9935 207.551 97.5656C208.597 98.1214 209.406 98.955 209.979 100.067C210.567 101.162 210.861 102.502 210.861 104.088C210.861 104.382 210.845 104.758 210.812 105.216H199.656C199.787 106.262 200.277 107.153 201.127 107.888C201.993 108.624 203.17 108.992 204.658 108.992C205.459 108.992 206.211 108.861 206.914 108.599C207.617 108.321 208.197 107.994 208.654 107.618L210.003 109.016C209.447 109.605 208.695 110.111 207.747 110.536C206.816 110.945 205.769 111.149 204.609 111.149ZM203.996 99.0122C203.13 99.0122 202.361 99.2084 201.691 99.6007C201.037 99.9767 200.53 100.492 200.171 101.145C199.828 101.783 199.656 102.469 199.656 103.205H208.262C208.262 102.453 208.091 101.758 207.747 101.121C207.42 100.483 206.93 99.9767 206.276 99.6007C205.639 99.2084 204.879 99.0122 203.996 99.0122ZM218.887 111.247C216.517 111.247 214.571 110.667 213.051 109.506L214.032 107.766C214.621 108.191 215.348 108.534 216.214 108.795C217.097 109.057 217.955 109.188 218.789 109.188C219.737 109.188 220.456 109.049 220.946 108.771C221.453 108.477 221.707 108.003 221.707 107.349C221.707 106.858 221.551 106.474 221.241 106.196C220.93 105.902 220.538 105.681 220.064 105.534C219.606 105.371 218.96 105.199 218.127 105.019C217.048 104.791 216.173 104.554 215.503 104.308C214.833 104.047 214.261 103.646 213.787 103.107C213.313 102.551 213.076 101.799 213.076 100.851C213.076 99.9358 213.321 99.1675 213.811 98.5464C214.318 97.9252 214.972 97.4757 215.773 97.1978C216.574 96.9036 217.424 96.7565 218.323 96.7565C219.287 96.7565 220.195 96.8872 221.045 97.1488C221.895 97.394 222.622 97.7291 223.227 98.1541L222.344 99.944C221.756 99.5843 221.102 99.3065 220.383 99.1103C219.68 98.9142 218.977 98.8161 218.274 98.8161C217.587 98.8161 216.95 98.9632 216.361 99.2574C215.789 99.5353 215.503 100.009 215.503 100.68C215.503 101.121 215.65 101.48 215.945 101.758C216.239 102.02 216.598 102.216 217.023 102.347C217.465 102.478 218.094 102.633 218.911 102.813C220.007 103.042 220.897 103.287 221.584 103.548C222.287 103.81 222.883 104.227 223.374 104.799C223.864 105.371 224.109 106.164 224.109 107.177C224.109 108.485 223.627 109.49 222.663 110.193C221.715 110.896 220.456 111.247 218.887 111.247Z" fill="#22181C"/>
<defs>
<linearGradient id="paint0_linear_163_7156" x1="206.277" y1="190.096" x2="206.277" y2="479.201" gradientUnits="userSpaceOnUse">
<stop stop-color="#33FFC2"/>
<stop offset="1" stop-color="#1095D4"/>
</linearGradient>
</defs>
</svg>
