<svg width="37" height="37" viewBox="0 0 37 37" fill="none" xmlns="http://www.w3.org/2000/svg">
<path fill-rule="evenodd" clip-rule="evenodd" d="M16.8738 18.2285C16.8738 19.3629 15.9546 20.2821 14.8203 20.2821C13.6859 20.2821 12.7667 19.3629 12.7667 18.2285C12.7667 17.0942 13.6859 16.175 14.8203 16.175H14.8236C15.9568 16.1761 16.8738 17.0953 16.8738 18.2285Z" stroke="#1B9EC3" stroke-width="1.66325" stroke-linecap="round" stroke-linejoin="round"/>
<path d="M16.8771 18.2285H23.8827V20.2821" stroke="#1B9EC3" stroke-width="1.66325" stroke-linecap="round" stroke-linejoin="round"/>
<path d="M20.7472 20.2821V18.2285" stroke="#1B9EC3" stroke-width="1.66325" stroke-linecap="round" stroke-linejoin="round"/>
<path fill-rule="evenodd" clip-rule="evenodd" d="M8.07092 18.2285C8.07092 10.5366 10.6356 7.97186 18.3276 7.97186C26.0196 7.97186 28.5843 10.5366 28.5843 18.2285C28.5843 25.9205 26.0196 28.4852 18.3276 28.4852C10.6356 28.4852 8.07092 25.9205 8.07092 18.2285Z" stroke="#1B9EC3" stroke-width="1.66325" stroke-linecap="round" stroke-linejoin="round"/>
</svg>
