<svg width="54" height="54" viewBox="0 0 54 54" fill="none" xmlns="http://www.w3.org/2000/svg">
<g filter="url(#filter0_d_2_11220)">
<path d="M40.1093 28.5857V38.7253C40.1093 39.0839 39.9669 39.4278 39.7133 39.6813C39.4598 39.9349 39.1159 40.0773 38.7574 40.0773H37.4054C37.0468 40.0773 36.703 39.9349 36.4494 39.6813C36.1959 39.4278 36.0534 39.0839 36.0534 38.7253V37.3734H17.126V38.7253C17.126 39.0839 16.9836 39.4278 16.73 39.6813C16.4765 39.9349 16.1326 40.0773 15.774 40.0773H14.4221C14.0635 40.0773 13.7197 39.9349 13.4661 39.6813C13.2126 39.4278 13.0701 39.0839 13.0701 38.7253V28.5857L11.3896 28.1665C11.0973 28.0933 10.8378 27.9245 10.6524 27.6869C10.4669 27.4493 10.3662 27.1565 10.3662 26.8551V25.8817C10.3662 25.7024 10.4374 25.5305 10.5642 25.4037C10.691 25.277 10.8629 25.2058 11.0422 25.2058H13.6501L16.423 18.7326C16.6315 18.2461 16.9783 17.8315 17.4202 17.5402C17.8622 17.2489 18.3799 17.0938 18.9092 17.094H21.1819V14.3901H25.2378V17.094H27.9417V14.3901H31.9976V17.094H34.2702C34.7993 17.0941 35.3167 17.2493 35.7584 17.5406C36.2001 17.8318 36.5466 18.2463 36.7551 18.7326L39.5293 25.2058H42.1373C42.3165 25.2058 42.4885 25.277 42.6152 25.4037C42.742 25.5305 42.8132 25.7024 42.8132 25.8817V26.8551C42.8132 27.1565 42.7125 27.4493 42.5271 27.6869C42.3417 27.9245 42.0822 28.0933 41.7898 28.1665L40.1093 28.5857ZM15.774 30.6136V33.3175C15.774 33.6761 15.9165 34.0199 16.17 34.2735C16.4236 34.527 16.7674 34.6695 17.126 34.6695H21.5131C21.6298 34.6693 21.7445 34.6389 21.846 34.5812C21.9475 34.5235 22.0323 34.4405 22.0922 34.3403C22.1521 34.2402 22.1851 34.1262 22.1878 34.0095C22.1906 33.8928 22.1631 33.7773 22.108 33.6744C21.0197 31.633 18.9079 30.6136 15.774 30.6136ZM37.4054 30.6136C34.2729 30.6136 32.1611 31.6343 31.0701 33.6744C31.015 33.7774 30.9875 33.893 30.9903 34.0098C30.9931 34.1266 31.0261 34.2407 31.0862 34.3409C31.1463 34.4412 31.2313 34.5241 31.3329 34.5817C31.4346 34.6393 31.5495 34.6695 31.6663 34.6695H36.0534C36.412 34.6695 36.7559 34.527 37.0094 34.2735C37.263 34.0199 37.4054 33.6761 37.4054 33.3175V30.6136ZM18.478 19.7979L16.5163 24.7042C16.4344 24.9092 16.4039 25.1312 16.4276 25.3508C16.4513 25.5703 16.5284 25.7807 16.6522 25.9636C16.7759 26.1464 16.9426 26.2962 17.1376 26.3998C17.3327 26.5033 17.5501 26.5576 17.7709 26.5577H35.4086C35.6294 26.5576 35.8468 26.5033 36.0418 26.3998C36.2368 26.2962 36.4035 26.1464 36.5273 25.9636C36.6511 25.7807 36.7282 25.5703 36.7519 25.3508C36.7755 25.1312 36.7451 24.9092 36.6632 24.7042L34.7015 19.7979H18.478Z" fill="#005266"/>
</g>
<defs>
<filter id="filter0_d_2_11220" x="7.87029" y="14.3901" width="37.4389" height="30.6791" filterUnits="userSpaceOnUse" color-interpolation-filters="sRGB">
<feFlood flood-opacity="0" result="BackgroundImageFix"/>
<feColorMatrix in="SourceAlpha" type="matrix" values="0 0 0 0 0 0 0 0 0 0 0 0 0 0 0 0 0 0 127 0" result="hardAlpha"/>
<feOffset dy="2.49592"/>
<feGaussianBlur stdDeviation="1.24796"/>
<feComposite in2="hardAlpha" operator="out"/>
<feColorMatrix type="matrix" values="0 0 0 0 0.816903 0 0 0 0 0.816903 0 0 0 0 0.816903 0 0 0 1 0"/>
<feBlend mode="normal" in2="BackgroundImageFix" result="effect1_dropShadow_2_11220"/>
<feBlend mode="normal" in="SourceGraphic" in2="effect1_dropShadow_2_11220" result="shape"/>
</filter>
</defs>
</svg>
