<svg width="37" height="37" viewBox="0 0 37 37" fill="none" xmlns="http://www.w3.org/2000/svg">
<path fill-rule="evenodd" clip-rule="evenodd" d="M18.1577 28.9595C14.1209 28.9595 10.6735 28.3313 10.6735 25.8155C10.6735 23.2997 14.099 20.9772 18.1577 20.9772C22.1946 20.9772 25.6419 23.2772 25.6419 25.793C25.6419 28.3078 22.2164 28.9595 18.1577 28.9595Z" stroke="#1B9EC3" stroke-width="1.64018" stroke-linecap="round" stroke-linejoin="round"/>
<path fill-rule="evenodd" clip-rule="evenodd" d="M18.1498 17.491C20.7989 17.491 22.9461 15.3438 22.9461 12.6947C22.9461 10.0455 20.7989 7.8974 18.1498 7.8974C15.5007 7.8974 13.3525 10.0455 13.3525 12.6947C13.3436 15.3349 15.4758 17.482 18.116 17.491C18.1279 17.491 18.1389 17.491 18.1498 17.491Z" stroke="#1B9EC3" stroke-width="1.64018" stroke-linecap="round" stroke-linejoin="round"/>
</svg>
