<svg width="54" height="54" viewBox="0 0 54 54" fill="none" xmlns="http://www.w3.org/2000/svg">
<g filter="url(#filter0_d_2_11165)">
<path d="M15.9213 15.4697L25.0046 24.553L21.1803 28.3787L15.9199 23.1182C14.9059 22.1039 14.3362 20.7283 14.3362 19.294C14.3362 17.8596 14.9059 16.4841 15.9199 15.4697H15.9213ZM29.5064 26.7451L28.3515 27.9L37.9136 37.462L36.0015 39.3742L26.4394 29.8134L16.8773 39.3742L14.9652 37.462L27.5943 24.833C26.7991 22.8627 27.6213 20.0256 29.785 17.8592C32.426 15.2195 36.065 14.5772 37.9136 16.4258C39.7622 18.2743 39.1199 21.9134 36.4802 24.553C34.3138 26.7194 31.4767 27.5416 29.5064 26.7451Z" fill="#26D0D2"/>
</g>
<defs>
<filter id="filter0_d_2_11165" x="11.8396" y="15.3701" width="29.6261" height="28.9971" filterUnits="userSpaceOnUse" color-interpolation-filters="sRGB">
<feFlood flood-opacity="0" result="BackgroundImageFix"/>
<feColorMatrix in="SourceAlpha" type="matrix" values="0 0 0 0 0 0 0 0 0 0 0 0 0 0 0 0 0 0 127 0" result="hardAlpha"/>
<feOffset dy="2.49654"/>
<feGaussianBlur stdDeviation="1.24827"/>
<feComposite in2="hardAlpha" operator="out"/>
<feColorMatrix type="matrix" values="0 0 0 0 0.816903 0 0 0 0 0.816903 0 0 0 0 0.816903 0 0 0 1 0"/>
<feBlend mode="normal" in2="BackgroundImageFix" result="effect1_dropShadow_2_11165"/>
<feBlend mode="normal" in="SourceGraphic" in2="effect1_dropShadow_2_11165" result="shape"/>
</filter>
</defs>
</svg>
