<svg width="21" height="21" viewBox="0 0 21 21" fill="none" xmlns="http://www.w3.org/2000/svg">
<path d="M9.74704 2.63098C13.8171 2.63098 17.1203 5.9342 17.1203 10.0042C17.1203 14.0743 13.8171 17.3775 9.74704 17.3775C5.677 17.3775 2.37378 14.0743 2.37378 10.0042C2.37378 5.9342 5.677 2.63098 9.74704 2.63098ZM9.74704 15.739C12.9151 15.739 15.4818 13.1723 15.4818 10.0042C15.4818 6.83538 12.9151 4.26948 9.74704 4.26948C6.57818 4.26948 4.01228 6.83538 4.01228 10.0042C4.01228 13.1723 6.57818 15.739 9.74704 15.739ZM16.6984 15.7972L19.0161 18.114L17.8568 19.2733L15.54 16.9556L16.6984 15.7972V15.7972Z" fill="#293733"/>
</svg>
