<svg width="55" height="55" viewBox="0 0 55 55" fill="none" xmlns="http://www.w3.org/2000/svg">
<g filter="url(#filter0_d_2_11180)">
<path d="M40.7872 38.699V41.4243H13.5345V38.699H14.8971V29.4903C14.0583 28.9304 13.3706 28.172 12.8952 27.2825C12.4198 26.393 12.1713 25.3999 12.1719 24.3913C12.1719 23.2644 12.4771 22.1784 13.0344 21.2531L16.7299 14.8528C16.8495 14.6457 17.0215 14.4737 17.2286 14.3541C17.4358 14.2345 17.6708 14.1715 17.9099 14.1715H36.4132C36.6524 14.1715 36.8873 14.2345 37.0945 14.3541C37.3016 14.4737 37.4736 14.6457 37.5932 14.8528L41.2751 21.2327C42.088 22.5829 42.3493 24.1944 42.0046 25.7323C41.66 27.2702 40.736 28.6161 39.4246 29.4903V38.699H40.7872ZM18.6975 16.8968L15.3822 22.6376C15.0601 23.4336 15.0504 24.3218 15.3552 25.1246C15.6599 25.9274 16.2566 26.5855 17.0258 26.9672C17.795 27.3489 18.68 27.426 19.5037 27.1831C20.3273 26.9402 21.0288 26.3952 21.4678 25.6572C21.9243 24.5167 23.539 24.5167 23.9968 25.6572C24.2493 26.29 24.6858 26.8326 25.2498 27.2148C25.8138 27.597 26.4795 27.8014 27.1609 27.8014C27.8422 27.8014 28.5079 27.597 29.0719 27.2148C29.636 26.8326 30.0724 26.29 30.3249 25.6572C30.7814 24.5167 32.3961 24.5167 32.854 25.6572C33.0308 26.0925 33.2958 26.4865 33.6322 26.8144C33.9687 27.1424 34.3693 27.3972 34.809 27.5629C35.2487 27.7285 35.7179 27.8014 36.1871 27.777C36.6563 27.7526 37.1154 27.6314 37.5355 27.421C37.9556 27.2106 38.3276 26.9156 38.6282 26.5545C38.9288 26.1934 39.1515 25.774 39.2822 25.3228C39.4129 24.8715 39.4488 24.398 39.3878 23.9322C39.3267 23.4663 39.1699 23.0181 38.9272 22.6158L35.6229 16.8968H18.6989H18.6975Z" fill="#47629A"/>
</g>
<defs>
<filter id="filter0_d_2_11180" x="9.65624" y="14.1715" width="35.0122" height="32.284" filterUnits="userSpaceOnUse" color-interpolation-filters="sRGB">
<feFlood flood-opacity="0" result="BackgroundImageFix"/>
<feColorMatrix in="SourceAlpha" type="matrix" values="0 0 0 0 0 0 0 0 0 0 0 0 0 0 0 0 0 0 127 0" result="hardAlpha"/>
<feOffset dy="2.51564"/>
<feGaussianBlur stdDeviation="1.25782"/>
<feComposite in2="hardAlpha" operator="out"/>
<feColorMatrix type="matrix" values="0 0 0 0 0.816903 0 0 0 0 0.816903 0 0 0 0 0.816903 0 0 0 1 0"/>
<feBlend mode="normal" in2="BackgroundImageFix" result="effect1_dropShadow_2_11180"/>
<feBlend mode="normal" in="SourceGraphic" in2="effect1_dropShadow_2_11180" result="shape"/>
</filter>
</defs>
</svg>
