<svg width="54" height="54" viewBox="0 0 54 54" fill="none" xmlns="http://www.w3.org/2000/svg">
<g filter="url(#filter0_d_2_11200)">
<path d="M34.3687 37.0899L36.8022 39.1179V39.7939H17.8748V39.1179L20.3083 37.0899H17.8748C17.1577 37.0899 16.4699 36.8051 15.9629 36.298C15.4558 35.7909 15.1709 35.1031 15.1709 34.386V19.5145C15.1709 18.0802 15.7407 16.7047 16.7548 15.6905C17.769 14.6764 19.1445 14.1066 20.5787 14.1066H34.0983C35.5326 14.1066 36.9081 14.6764 37.9222 15.6905C38.9364 16.7047 39.5062 18.0802 39.5062 19.5145V34.386C39.5062 35.1031 39.2213 35.7909 38.7142 36.298C38.2071 36.8051 37.5194 37.0899 36.8022 37.0899H34.3687ZM17.8748 19.5145V24.9223H36.8022V19.5145H17.8748ZM27.3385 34.386C28.0557 34.386 28.7434 34.1011 29.2505 33.5941C29.7576 33.087 30.0425 32.3992 30.0425 31.6821C30.0425 30.965 29.7576 30.2772 29.2505 29.7701C28.7434 29.2631 28.0557 28.9782 27.3385 28.9782C26.6214 28.9782 25.9337 29.2631 25.4266 29.7701C24.9195 30.2772 24.6346 30.965 24.6346 31.6821C24.6346 32.3992 24.9195 33.087 25.4266 33.5941C25.9337 34.1011 26.6214 34.386 27.3385 34.386Z" fill="#AC2961"/>
</g>
<defs>
<filter id="filter0_d_2_11200" x="12.675" y="14.1066" width="29.3271" height="30.6791" filterUnits="userSpaceOnUse" color-interpolation-filters="sRGB">
<feFlood flood-opacity="0" result="BackgroundImageFix"/>
<feColorMatrix in="SourceAlpha" type="matrix" values="0 0 0 0 0 0 0 0 0 0 0 0 0 0 0 0 0 0 127 0" result="hardAlpha"/>
<feOffset dy="2.49592"/>
<feGaussianBlur stdDeviation="1.24796"/>
<feComposite in2="hardAlpha" operator="out"/>
<feColorMatrix type="matrix" values="0 0 0 0 0.816903 0 0 0 0 0.816903 0 0 0 0 0.816903 0 0 0 1 0"/>
<feBlend mode="normal" in2="BackgroundImageFix" result="effect1_dropShadow_2_11200"/>
<feBlend mode="normal" in="SourceGraphic" in2="effect1_dropShadow_2_11200" result="shape"/>
</filter>
</defs>
</svg>
