<svg width="39" height="39" viewBox="0 0 39 39" fill="none" xmlns="http://www.w3.org/2000/svg">
<path fill-rule="evenodd" clip-rule="evenodd" d="M17.6489 19.1779C17.6489 20.3713 16.6818 21.3383 15.4885 21.3383C14.2952 21.3383 13.3281 20.3713 13.3281 19.1779C13.3281 17.9846 14.2952 17.0176 15.4885 17.0176H15.492C16.6842 17.0187 17.6489 17.9858 17.6489 19.1779Z" stroke="#26D0D2" stroke-width="1.74976" stroke-linecap="round" stroke-linejoin="round"/>
<path d="M17.6523 19.1777H25.0223V21.3381" stroke="#26D0D2" stroke-width="1.74976" stroke-linecap="round" stroke-linejoin="round"/>
<path d="M21.7229 21.3381V19.1777" stroke="#26D0D2" stroke-width="1.74976" stroke-linecap="round" stroke-linejoin="round"/>
<path fill-rule="evenodd" clip-rule="evenodd" d="M8.3877 19.1779C8.3877 11.0858 11.0858 8.3877 19.1779 8.3877C27.2699 8.3877 29.9681 11.0858 29.9681 19.1779C29.9681 27.2699 27.2699 29.9681 19.1779 29.9681C11.0858 29.9681 8.3877 27.2699 8.3877 19.1779Z" stroke="#26D0D2" stroke-width="1.74976" stroke-linecap="round" stroke-linejoin="round"/>
</svg>
