<svg width="39" height="39" viewBox="0 0 39 39" fill="none" xmlns="http://www.w3.org/2000/svg">
<path fill-rule="evenodd" clip-rule="evenodd" d="M18.9985 30.291C14.7517 30.291 11.125 29.6301 11.125 26.9835C11.125 24.3368 14.7287 21.8936 18.9985 21.8936C23.2453 21.8936 26.872 24.3131 26.872 26.9598C26.872 29.6054 23.2683 30.291 18.9985 30.291Z" stroke="#26D0D2" stroke-width="1.7255" stroke-linecap="round" stroke-linejoin="round"/>
<path fill-rule="evenodd" clip-rule="evenodd" d="M18.9902 18.2264C21.7772 18.2264 24.036 15.9676 24.036 13.1806C24.036 10.3937 21.7772 8.13379 18.9902 8.13379C16.2033 8.13379 13.9434 10.3937 13.9434 13.1806C13.934 15.9581 16.1771 18.217 18.9547 18.2264C18.9672 18.2264 18.9787 18.2264 18.9902 18.2264Z" stroke="#26D0D2" stroke-width="1.7255" stroke-linecap="round" stroke-linejoin="round"/>
</svg>
