<svg width="118" height="135" viewBox="0 0 118 135" fill="none" xmlns="http://www.w3.org/2000/svg">
<g filter="url(#filter0_d_371_7481)">
<rect x="4.79297" y="0.733398" width="106.437" height="124.177" rx="22.9957" fill="white"/>
</g>
<path d="M47.7866 83.6757V90.9189H46.5985V87.7507H43.1906V90.9189H42.0025V83.6757H43.1906V86.7815H46.5985V83.6757H47.7866ZM54.6138 87.907C54.6138 88.1224 54.5999 88.3169 54.5721 88.4906H50.1845C50.2192 88.9492 50.3894 89.3174 50.6951 89.5954C51.0008 89.8733 51.376 90.0122 51.8207 90.0122C52.4599 90.0122 52.9115 89.7447 53.1755 89.2098H54.4574C54.2837 89.7378 53.9676 90.172 53.509 90.5125C53.0574 90.846 52.4946 91.0127 51.8207 91.0127C51.2718 91.0127 50.7785 90.8912 50.3408 90.648C49.91 90.3979 49.5696 90.0505 49.3194 89.6058C49.0763 89.1542 48.9547 88.6331 48.9547 88.0425C48.9547 87.4519 49.0728 86.9343 49.309 86.4896C49.5522 86.038 49.8892 85.6906 50.3199 85.4475C50.7577 85.2043 51.2579 85.0827 51.8207 85.0827C52.3626 85.0827 52.8455 85.2008 53.2693 85.437C53.6932 85.6733 54.0232 86.0068 54.2594 86.4375C54.4956 86.8614 54.6138 87.3512 54.6138 87.907ZM53.3736 87.5318C53.3666 87.0941 53.2103 86.7432 52.9046 86.4792C52.5989 86.2152 52.2202 86.0832 51.7686 86.0832C51.3587 86.0832 51.0078 86.2152 50.716 86.4792C50.4242 86.7363 50.2505 87.0872 50.1949 87.5318H53.3736ZM55.3869 88.0217C55.3869 87.445 55.505 86.9343 55.7413 86.4896C55.9845 86.045 56.311 85.7011 56.7209 85.4579C57.1378 85.2078 57.5964 85.0827 58.0966 85.0827C58.5482 85.0827 58.9408 85.173 59.2743 85.3537C59.6147 85.5274 59.8857 85.7462 60.0872 86.0102V85.1765H61.2857V90.9189H60.0872V90.0644C59.8857 90.3353 59.6113 90.5611 59.2639 90.7418C58.9165 90.9224 58.5204 91.0127 58.0758 91.0127C57.5825 91.0127 57.1309 90.8877 56.7209 90.6376C56.311 90.3805 55.9845 90.0261 55.7413 89.5745C55.505 89.116 55.3869 88.5983 55.3869 88.0217ZM60.0872 88.0425C60.0872 87.6465 60.0038 87.3026 59.8371 87.0107C59.6773 86.7189 59.4654 86.4966 59.2013 86.3437C58.9373 86.1909 58.6525 86.1145 58.3467 86.1145C58.041 86.1145 57.7562 86.1909 57.4922 86.3437C57.2281 86.4896 57.0127 86.7085 56.846 87.0003C56.6862 87.2852 56.6063 87.6256 56.6063 88.0217C56.6063 88.4177 56.6862 88.7651 56.846 89.0639C57.0127 89.3626 57.2281 89.5919 57.4922 89.7517C57.7631 89.9045 58.048 89.981 58.3467 89.981C58.6525 89.981 58.9373 89.9045 59.2013 89.7517C59.4654 89.5988 59.6773 89.3765 59.8371 89.0847C60.0038 88.7859 60.0872 88.4385 60.0872 88.0425ZM64.0343 83.2068V90.9189H62.8462V83.2068H64.0343ZM66.9803 86.1457V89.3244C66.9803 89.5398 67.0289 89.6961 67.1262 89.7934C67.2304 89.8837 67.4041 89.9289 67.6473 89.9289H68.3768V90.9189H67.4389C66.9039 90.9189 66.4939 90.7939 66.2091 90.5438C65.9242 90.2936 65.7818 89.8872 65.7818 89.3244V86.1457H65.1044V85.1765H65.7818V83.7487H66.9803V85.1765H68.3768V86.1457H66.9803ZM72.4421 85.0827C72.8798 85.0827 73.2689 85.1765 73.6093 85.3641C73.9567 85.5517 74.2277 85.8296 74.4223 86.1978C74.6237 86.5661 74.7245 87.0107 74.7245 87.5318V90.9189H73.5468V87.709C73.5468 87.1949 73.4183 86.8023 73.1612 86.5313C72.9041 86.2534 72.5533 86.1145 72.1086 86.1145C71.6639 86.1145 71.3096 86.2534 71.0456 86.5313C70.7885 86.8023 70.66 87.1949 70.66 87.709V90.9189H69.4719V83.2068H70.66V85.8435C70.8614 85.6003 71.115 85.4127 71.4208 85.2807C71.7334 85.1487 72.0739 85.0827 72.4421 85.0827ZM45.9472 103.282C45.9472 102.573 46.1105 101.937 46.437 101.375C46.7705 100.812 47.2187 100.374 47.7814 100.061C48.3512 99.7417 48.973 99.5819 49.647 99.5819C50.4182 99.5819 51.1026 99.773 51.7001 100.155C52.3045 100.53 52.7423 101.065 53.0132 101.76H51.5854C51.3978 101.378 51.1373 101.093 50.8038 100.906C50.4703 100.718 50.0847 100.624 49.647 100.624C49.1676 100.624 48.7403 100.732 48.3651 100.947C47.9899 101.163 47.6946 101.472 47.4792 101.875C47.2708 102.278 47.1666 102.747 47.1666 103.282C47.1666 103.817 47.2708 104.286 47.4792 104.689C47.6946 105.092 47.9899 105.404 48.3651 105.627C48.7403 105.842 49.1676 105.95 49.647 105.95C50.0847 105.95 50.4703 105.856 50.8038 105.668C51.1373 105.481 51.3978 105.196 51.5854 104.814H53.0132C52.7423 105.509 52.3045 106.044 51.7001 106.419C51.1026 106.794 50.4182 106.981 49.647 106.981C48.9661 106.981 48.3442 106.825 47.7814 106.512C47.2187 106.193 46.7705 105.752 46.437 105.189C46.1105 104.626 45.9472 103.99 45.9472 103.282ZM54.0079 104.022C54.0079 103.445 54.126 102.934 54.3622 102.49C54.6054 102.045 54.9319 101.701 55.3419 101.458C55.7587 101.208 56.2173 101.083 56.7176 101.083C57.1692 101.083 57.5617 101.173 57.8952 101.354C58.2357 101.527 58.5066 101.746 58.7081 102.01V101.176H59.9067V106.919H58.7081V106.064C58.5066 106.335 58.2322 106.561 57.8848 106.742C57.5374 106.922 57.1414 107.013 56.6967 107.013C56.2034 107.013 55.7518 106.888 55.3419 106.638C54.9319 106.38 54.6054 106.026 54.3622 105.575C54.126 105.116 54.0079 104.598 54.0079 104.022ZM58.7081 104.043C58.7081 103.646 58.6248 103.303 58.458 103.011C58.2982 102.719 58.0863 102.497 57.8223 102.344C57.5583 102.191 57.2734 102.114 56.9677 102.114C56.662 102.114 56.3771 102.191 56.1131 102.344C55.8491 102.49 55.6337 102.709 55.4669 103C55.3071 103.285 55.2272 103.626 55.2272 104.022C55.2272 104.418 55.3071 104.765 55.4669 105.064C55.6337 105.363 55.8491 105.592 56.1131 105.752C56.3841 105.905 56.6689 105.981 56.9677 105.981C57.2734 105.981 57.5583 105.905 57.8223 105.752C58.0863 105.599 58.2982 105.377 58.458 105.085C58.6248 104.786 58.7081 104.439 58.7081 104.043ZM62.6553 102.01C62.829 101.718 63.0582 101.493 63.3431 101.333C63.6349 101.166 63.9788 101.083 64.3749 101.083V102.312H64.0726C63.6071 102.312 63.2528 102.431 63.0096 102.667C62.7734 102.903 62.6553 103.313 62.6553 103.897V106.919H61.4672V101.176H62.6553V102.01ZM70.73 103.907C70.73 104.122 70.7161 104.317 70.6883 104.491H66.3007C66.3355 104.949 66.5057 105.317 66.8114 105.595C67.1171 105.873 67.4923 106.012 67.937 106.012C68.5762 106.012 69.0278 105.745 69.2918 105.21H70.5737C70.4 105.738 70.0839 106.172 69.6253 106.512C69.1737 106.846 68.6109 107.013 67.937 107.013C67.3881 107.013 66.8948 106.891 66.457 106.648C66.0263 106.398 65.6858 106.05 65.4357 105.606C65.1925 105.154 65.0709 104.633 65.0709 104.043C65.0709 103.452 65.1891 102.934 65.4253 102.49C65.6685 102.038 66.0054 101.691 66.4362 101.447C66.8739 101.204 67.3742 101.083 67.937 101.083C68.4789 101.083 68.9618 101.201 69.3856 101.437C69.8094 101.673 70.1394 102.007 70.3757 102.438C70.6119 102.861 70.73 103.351 70.73 103.907ZM69.4898 103.532C69.4829 103.094 69.3265 102.743 69.0208 102.479C68.7151 102.215 68.3365 102.083 67.8848 102.083C67.4749 102.083 67.124 102.215 66.8322 102.479C66.5404 102.736 66.3667 103.087 66.3111 103.532H69.4898Z" fill="#033F40"/>
<g filter="url(#filter1_d_371_7481)">
<path d="M64.4374 36.625C69.121 36.625 72.9166 40.4792 72.9166 45.875C72.9166 56.6667 61.3541 62.8333 57.4999 65.1458C54.4505 63.3159 46.5788 59.0763 43.4214 52.0417H50.6642L52.1041 49.6428L56.7291 57.3512L59.9142 52.0417H65.2083V48.9583H58.169L56.7291 51.3572L52.1041 43.6488L48.919 48.9583H42.407C42.1973 47.9763 42.0833 46.948 42.0833 45.875C42.0833 40.4792 45.9374 36.625 50.5624 36.625C53.4299 36.625 55.9583 38.1667 57.4999 39.7083C59.0416 38.1667 61.5699 36.625 64.4374 36.625Z" fill="#FF0909"/>
</g>
<defs>
<filter id="filter0_d_371_7481" x="0.850848" y="0.0763789" width="116.95" height="134.689" filterUnits="userSpaceOnUse" color-interpolation-filters="sRGB">
<feFlood flood-opacity="0" result="BackgroundImageFix"/>
<feColorMatrix in="SourceAlpha" type="matrix" values="0 0 0 0 0 0 0 0 0 0 0 0 0 0 0 0 0 0 127 0" result="hardAlpha"/>
<feMorphology radius="0.65702" operator="erode" in="SourceAlpha" result="effect1_dropShadow_371_7481"/>
<feOffset dx="1.31404" dy="4.59914"/>
<feGaussianBlur stdDeviation="2.95659"/>
<feComposite in2="hardAlpha" operator="out"/>
<feColorMatrix type="matrix" values="0 0 0 0 0 0 0 0 0 0 0 0 0 0 0 0 0 0 0.06 0"/>
<feBlend mode="normal" in2="BackgroundImageFix" result="effect1_dropShadow_371_7481"/>
<feBlend mode="normal" in="SourceGraphic" in2="effect1_dropShadow_371_7481" result="shape"/>
</filter>
<filter id="filter1_d_371_7481" x="38.0833" y="36.625" width="38.8333" height="36.5209" filterUnits="userSpaceOnUse" color-interpolation-filters="sRGB">
<feFlood flood-opacity="0" result="BackgroundImageFix"/>
<feColorMatrix in="SourceAlpha" type="matrix" values="0 0 0 0 0 0 0 0 0 0 0 0 0 0 0 0 0 0 127 0" result="hardAlpha"/>
<feOffset dy="4"/>
<feGaussianBlur stdDeviation="2"/>
<feComposite in2="hardAlpha" operator="out"/>
<feColorMatrix type="matrix" values="0 0 0 0 0 0 0 0 0 0 0 0 0 0 0 0 0 0 0.25 0"/>
<feBlend mode="normal" in2="BackgroundImageFix" result="effect1_dropShadow_371_7481"/>
<feBlend mode="normal" in="SourceGraphic" in2="effect1_dropShadow_371_7481" result="shape"/>
</filter>
</defs>
</svg>
