<svg width="118" height="130" viewBox="0 0 118 130" fill="none" xmlns="http://www.w3.org/2000/svg">
<g filter="url(#filter0_d_438_7628)">
<rect x="4.78516" y="0.664062" width="106.437" height="124.177" rx="22.9957" fill="white"/>
</g>
<path d="M38.0452 89.5175L35.3251 96.7607H33.9494L31.2189 89.5175H32.4904L34.6373 95.5414L36.7946 89.5175H38.0452ZM44.3019 93.7488C44.3019 93.9642 44.288 94.1587 44.2602 94.3324H39.8726C39.9073 94.791 40.0775 95.1592 40.3833 95.4372C40.689 95.7151 41.0641 95.854 41.5088 95.854C42.148 95.854 42.5996 95.5865 42.8637 95.0516H44.1455C43.9719 95.5796 43.6557 96.0138 43.1972 96.3543C42.7455 96.6878 42.1828 96.8545 41.5088 96.8545C40.9599 96.8545 40.4666 96.733 40.0289 96.4898C39.5981 96.2396 39.2577 95.8923 39.0076 95.4476C38.7644 94.996 38.6428 94.4749 38.6428 93.8843C38.6428 93.2937 38.7609 92.7761 38.9971 92.3314C39.2403 91.8798 39.5773 91.5324 40.0081 91.2893C40.4458 91.0461 40.946 90.9245 41.5088 90.9245C42.0508 90.9245 42.5336 91.0426 42.9575 91.2788C43.3813 91.5151 43.7113 91.8486 43.9475 92.2793C44.1838 92.7032 44.3019 93.193 44.3019 93.7488ZM43.0617 93.3736C43.0547 92.9359 42.8984 92.585 42.5927 92.321C42.287 92.057 41.9083 91.925 41.4567 91.925C41.0468 91.925 40.6959 92.057 40.4041 92.321C40.1123 92.5781 39.9386 92.929 39.883 93.3736H43.0617ZM46.8572 91.9875V95.1662C46.8572 95.3816 46.9058 95.5379 47.0031 95.6352C47.1073 95.7255 47.281 95.7707 47.5242 95.7707H48.2537V96.7607H47.3158C46.7808 96.7607 46.3708 96.6357 46.086 96.3856C45.8011 96.1354 45.6587 95.729 45.6587 95.1662V91.9875H44.9813V91.0183H45.6587V89.5905H46.8572V91.0183H48.2537V91.9875H46.8572ZM54.6118 93.7488C54.6118 93.9642 54.5979 94.1587 54.5701 94.3324H50.1825C50.2172 94.791 50.3875 95.1592 50.6932 95.4372C50.9989 95.7151 51.3741 95.854 51.8187 95.854C52.4579 95.854 52.9096 95.5865 53.1736 95.0516H54.4555C54.2818 95.5796 53.9656 96.0138 53.5071 96.3543C53.0555 96.6878 52.4927 96.8545 51.8187 96.8545C51.2699 96.8545 50.7766 96.733 50.3388 96.4898C49.9081 96.2396 49.5676 95.8923 49.3175 95.4476C49.0743 94.996 48.9527 94.4749 48.9527 93.8843C48.9527 93.2937 49.0708 92.7761 49.3071 92.3314C49.5502 91.8798 49.8872 91.5324 50.318 91.2893C50.7557 91.0461 51.256 90.9245 51.8187 90.9245C52.3607 90.9245 52.8436 91.0426 53.2674 91.2788C53.6912 91.5151 54.0212 91.8486 54.2575 92.2793C54.4937 92.7032 54.6118 93.193 54.6118 93.7488ZM53.3716 93.3736C53.3647 92.9359 53.2083 92.585 52.9026 92.321C52.5969 92.057 52.2182 91.925 51.7666 91.925C51.3567 91.925 51.0058 92.057 50.714 92.321C50.4222 92.5781 50.2485 92.929 50.1929 93.3736H53.3716ZM56.9691 91.852C57.1428 91.5602 57.3721 91.3344 57.6569 91.1746C57.9488 91.0079 58.2927 90.9245 58.6887 90.9245V92.1543H58.3865C57.921 92.1543 57.5666 92.2724 57.3234 92.5086C57.0872 92.7448 56.9691 93.1548 56.9691 93.7384V96.7607H55.781V91.0183H56.9691V91.852ZM60.3853 90.2575C60.1699 90.2575 59.9893 90.1845 59.8433 90.0386C59.6974 89.8927 59.6245 89.7121 59.6245 89.4967C59.6245 89.2813 59.6974 89.1007 59.8433 88.9548C59.9893 88.8088 60.1699 88.7359 60.3853 88.7359C60.5937 88.7359 60.7709 88.8088 60.9168 88.9548C61.0627 89.1007 61.1357 89.2813 61.1357 89.4967C61.1357 89.7121 61.0627 89.8927 60.9168 90.0386C60.7709 90.1845 60.5937 90.2575 60.3853 90.2575ZM60.9689 91.0183V96.7607H59.7808V91.0183H60.9689ZM65.4261 90.9245C65.8777 90.9245 66.2806 91.0183 66.635 91.2059C66.9963 91.3935 67.2777 91.6714 67.4792 92.0396C67.6807 92.4079 67.7814 92.8525 67.7814 93.3736V96.7607H66.6037V93.5508C66.6037 93.0367 66.4752 92.6441 66.2181 92.3731C65.961 92.0952 65.6102 91.9563 65.1655 91.9563C64.7208 91.9563 64.3665 92.0952 64.1025 92.3731C63.8454 92.6441 63.7169 93.0367 63.7169 93.5508V96.7607H62.5288V91.0183H63.7169V91.6749C63.9114 91.4386 64.1581 91.2545 64.4568 91.1225C64.7625 90.9905 65.0856 90.9245 65.4261 90.9245ZM68.9009 93.8635C68.9009 93.2868 69.019 92.7761 69.2552 92.3314C69.4984 91.8868 69.8249 91.5429 70.2349 91.2997C70.6517 91.0496 71.1103 90.9245 71.6105 90.9245C72.0622 90.9245 72.4547 91.0148 72.7882 91.1955C73.1287 91.3692 73.3996 91.588 73.6011 91.852V91.0183H74.7996V96.7607H73.6011V95.9061C73.3996 96.1771 73.1252 96.4029 72.7778 96.5836C72.4304 96.7642 72.0344 96.8545 71.5897 96.8545C71.0964 96.8545 70.6448 96.7295 70.2349 96.4794C69.8249 96.2223 69.4984 95.8679 69.2552 95.4163C69.019 94.9578 68.9009 94.4401 68.9009 93.8635ZM73.6011 93.8843C73.6011 93.4883 73.5177 93.1443 73.351 92.8525C73.1912 92.5607 72.9793 92.3384 72.7153 92.1855C72.4512 92.0327 72.1664 91.9563 71.8607 91.9563C71.555 91.9563 71.2701 92.0327 71.0061 92.1855C70.7421 92.3314 70.5267 92.5503 70.3599 92.8421C70.2001 93.127 70.1202 93.4674 70.1202 93.8635C70.1202 94.2595 70.2001 94.6069 70.3599 94.9056C70.5267 95.2044 70.7421 95.4337 71.0061 95.5935C71.277 95.7463 71.5619 95.8228 71.8607 95.8228C72.1664 95.8228 72.4512 95.7463 72.7153 95.5935C72.9793 95.4406 73.1912 95.2183 73.351 94.9265C73.5177 94.6277 73.6011 94.2803 73.6011 93.8843ZM77.5482 91.852C77.7219 91.5602 77.9512 91.3344 78.2361 91.1746C78.5279 91.0079 78.8718 90.9245 79.2679 90.9245V92.1543H78.9656C78.5001 92.1543 78.1458 92.2724 77.9026 92.5086C77.6664 92.7448 77.5482 93.1548 77.5482 93.7384V96.7607H76.3602V91.0183H77.5482V91.852ZM85.5292 91.0183L82.0066 99.46H80.7768L81.9441 96.6669L79.6825 91.0183H81.0061L82.6215 95.3955L84.2994 91.0183H85.5292ZM41.2737 109.124C41.2737 108.415 41.437 107.779 41.7635 107.216C42.097 106.654 42.5452 106.216 43.108 105.903C43.6777 105.584 44.2995 105.424 44.9735 105.424C45.7447 105.424 46.4291 105.615 47.0266 105.997C47.6311 106.372 48.0688 106.907 48.3397 107.602H46.9119C46.7244 107.22 46.4638 106.935 46.1303 106.747C45.7968 106.56 45.4112 106.466 44.9735 106.466C44.4941 106.466 44.0668 106.574 43.6916 106.789C43.3164 107.004 43.0211 107.314 42.8057 107.717C42.5973 108.12 42.4931 108.589 42.4931 109.124C42.4931 109.658 42.5973 110.127 42.8057 110.53C43.0211 110.933 43.3164 111.246 43.6916 111.468C44.0668 111.684 44.4941 111.792 44.9735 111.792C45.4112 111.792 45.7968 111.698 46.1303 111.51C46.4638 111.323 46.7244 111.038 46.9119 110.656H48.3397C48.0688 111.35 47.6311 111.885 47.0266 112.26C46.4291 112.636 45.7447 112.823 44.9735 112.823C44.2926 112.823 43.6707 112.667 43.108 112.354C42.5452 112.035 42.097 111.593 41.7635 111.031C41.437 110.468 41.2737 109.832 41.2737 109.124ZM50.9185 105.049V112.761H49.7304V105.049H50.9185ZM53.0828 106.257C52.8675 106.257 52.6868 106.185 52.5409 106.039C52.395 105.893 52.322 105.712 52.322 105.497C52.322 105.281 52.395 105.101 52.5409 104.955C52.6868 104.809 52.8675 104.736 53.0828 104.736C53.2913 104.736 53.4685 104.809 53.6144 104.955C53.7603 105.101 53.8332 105.281 53.8332 105.497C53.8332 105.712 53.7603 105.893 53.6144 106.039C53.4685 106.185 53.2913 106.257 53.0828 106.257ZM53.6665 107.018V112.761H52.4784V107.018H53.6665ZM58.1236 106.924C58.5752 106.924 58.9782 107.018 59.3326 107.206C59.6938 107.393 59.9752 107.671 60.1767 108.04C60.3782 108.408 60.479 108.853 60.479 109.374V112.761H59.3013V109.551C59.3013 109.037 59.1727 108.644 58.9157 108.373C58.6586 108.095 58.3077 107.956 57.8631 107.956C57.4184 107.956 57.0641 108.095 56.8 108.373C56.543 108.644 56.4144 109.037 56.4144 109.551V112.761H55.2263V107.018H56.4144V107.675C56.609 107.439 56.8556 107.255 57.1544 107.123C57.4601 106.99 57.7832 106.924 58.1236 106.924ZM62.5989 106.257C62.3835 106.257 62.2029 106.185 62.057 106.039C61.9111 105.893 61.8381 105.712 61.8381 105.497C61.8381 105.281 61.9111 105.101 62.057 104.955C62.2029 104.809 62.3835 104.736 62.5989 104.736C62.8074 104.736 62.9845 104.809 63.1304 104.955C63.2763 105.101 63.3493 105.281 63.3493 105.497C63.3493 105.712 63.2763 105.893 63.1304 106.039C62.9845 106.185 62.8074 106.257 62.5989 106.257ZM63.1825 107.018V112.761H61.9944V107.018H63.1825ZM64.3464 109.884C64.3464 109.294 64.4645 108.776 64.7007 108.331C64.9439 107.88 65.2774 107.532 65.7012 107.289C66.125 107.046 66.6114 106.924 67.1603 106.924C67.8551 106.924 68.4283 107.091 68.8799 107.425C69.3385 107.751 69.6476 108.22 69.8074 108.832H68.5255C68.4213 108.547 68.2546 108.324 68.0253 108.165C67.796 108.005 67.5077 107.925 67.1603 107.925C66.6739 107.925 66.2848 108.099 65.993 108.446C65.7082 108.787 65.5657 109.266 65.5657 109.884C65.5657 110.503 65.7082 110.986 65.993 111.333C66.2848 111.68 66.6739 111.854 67.1603 111.854C67.8481 111.854 68.3032 111.552 68.5255 110.947H69.8074C69.6407 111.531 69.328 111.996 68.8695 112.344C68.4109 112.684 67.8412 112.855 67.1603 112.855C66.6114 112.855 66.125 112.733 65.7012 112.49C65.2774 112.24 64.9439 111.892 64.7007 111.448C64.4645 110.996 64.3464 110.475 64.3464 109.884ZM73.0758 112.855C72.6242 112.855 72.2178 112.775 71.8565 112.615C71.5021 112.448 71.2207 112.226 71.0123 111.948C70.8039 111.663 70.6927 111.347 70.6788 110.999H71.9086C71.9294 111.243 72.0441 111.448 72.2525 111.614C72.4679 111.774 72.7354 111.854 73.055 111.854C73.3885 111.854 73.6456 111.792 73.8262 111.666C74.0138 111.534 74.1076 111.368 74.1076 111.166C74.1076 110.951 74.0034 110.791 73.7949 110.687C73.5935 110.583 73.2704 110.468 72.8257 110.343C72.3949 110.225 72.0441 110.11 71.7731 109.999C71.5021 109.888 71.2659 109.718 71.0644 109.488C70.8699 109.259 70.7726 108.957 70.7726 108.582C70.7726 108.276 70.8629 107.998 71.0436 107.748C71.2242 107.491 71.4813 107.289 71.8148 107.143C72.1552 106.997 72.5443 106.924 72.982 106.924C73.6351 106.924 74.1597 107.091 74.5557 107.425C74.9587 107.751 75.1741 108.199 75.2019 108.769H74.0138C73.993 108.512 73.8887 108.307 73.7011 108.154C73.5136 108.001 73.26 107.925 72.9403 107.925C72.6277 107.925 72.388 107.984 72.2212 108.102C72.0545 108.22 71.9711 108.377 71.9711 108.571C71.9711 108.724 72.0267 108.853 72.1379 108.957C72.249 109.061 72.3845 109.144 72.5443 109.207C72.7041 109.262 72.9403 109.335 73.253 109.426C73.6699 109.537 74.0103 109.652 74.2743 109.77C74.5453 109.881 74.7781 110.048 74.9726 110.27C75.1672 110.492 75.2679 110.788 75.2749 111.156C75.2749 111.482 75.1845 111.774 75.0039 112.031C74.8232 112.288 74.5662 112.49 74.2327 112.636C73.9061 112.782 73.5205 112.855 73.0758 112.855Z" fill="#033F40"/>
<g filter="url(#filter1_d_438_7628)">
<path d="M59 48.8001C52 48.8001 50.6 55.1841 50.6 58.5161C48.8927 59.0926 47.2865 59.9335 45.84 61.0081C44.668 61.8982 43.8934 63.2138 43.6838 64.6705C43.4742 66.1271 43.8464 67.6078 44.72 68.7921C45.6369 69.9442 46.9598 70.7021 48.4174 70.9103C49.8751 71.1185 51.3572 70.7614 52.56 69.9121C54.4581 68.6238 56.7061 67.9494 59 67.9801C61.2939 67.9494 63.5419 68.6238 65.44 69.9121C66.5936 70.8341 68.0646 71.2631 69.5329 71.1058C71.0012 70.9485 72.348 70.2176 73.28 69.0721C73.7389 68.5307 74.0865 67.9041 74.3031 67.2282C74.5196 66.5523 74.6008 65.8403 74.542 65.133C74.4833 64.4257 74.2857 63.7369 73.9605 63.106C73.6354 62.4751 73.1891 61.9145 72.6472 61.4561C72.58 61.3973 72.51 61.3413 72.44 61.2881L72.16 61.0081C70.6668 60.0101 69.071 59.1746 67.4 58.5161C67.4 55.2121 66 48.8001 59 48.8001ZM43.824 44.0401C42.8316 44.5366 42.0621 45.3879 41.6679 46.4251C41.2738 47.4624 41.2838 48.6099 41.696 49.6401C41.7821 50.7546 42.3032 51.7905 43.1467 52.524C43.9902 53.2575 45.0884 53.6296 46.204 53.5601C47.1964 53.0637 47.9659 52.2124 48.3601 51.1751C48.7543 50.1379 48.7442 48.9904 48.332 47.9601C48.2459 46.8457 47.7248 45.8098 46.8813 45.0763C46.0378 44.3428 44.9396 43.9706 43.824 44.0401V44.0401ZM74.204 44.0401C75.1964 44.5366 75.9659 45.3879 76.3601 46.4251C76.7543 47.4624 76.7442 48.6099 76.332 49.6401C76.2459 50.7546 75.7248 51.7905 74.8813 52.524C74.0378 53.2575 72.9396 53.6296 71.824 53.5601C70.8316 53.0637 70.0621 52.2124 69.6679 51.1751C69.2738 50.1379 69.2838 48.9904 69.696 47.9601C69.7821 46.8457 70.3032 45.8098 71.1467 45.0763C71.9902 44.3428 73.0884 43.9706 74.204 44.0401ZM52.224 35.6401C50.32 35.8921 49.424 38.2721 50.096 40.8761C50.2456 41.9975 50.7744 43.0339 51.5944 43.8132C52.4145 44.5925 53.4765 45.0678 54.604 45.1601C56.508 44.9081 57.404 42.5281 56.732 39.9241C56.5824 38.8028 56.0536 37.7664 55.2336 36.9871C54.4135 36.2078 53.3515 35.7325 52.224 35.6401V35.6401ZM65.804 35.6401C67.708 35.8921 68.604 38.2721 67.932 40.8761C67.7813 42.0019 67.2485 43.0417 66.4227 43.8215C65.597 44.6014 64.5285 45.0739 63.396 45.1601C61.492 44.9361 60.596 42.5281 61.268 39.9241C61.4182 38.7982 61.9509 37.7581 62.7767 36.9782C63.6025 36.1982 64.6713 35.7258 65.804 35.6401V35.6401Z" fill="#C7AD87"/>
</g>
<defs>
<filter id="filter0_d_438_7628" x="0.843036" y="0.007043" width="116.95" height="134.689" filterUnits="userSpaceOnUse" color-interpolation-filters="sRGB">
<feFlood flood-opacity="0" result="BackgroundImageFix"/>
<feColorMatrix in="SourceAlpha" type="matrix" values="0 0 0 0 0 0 0 0 0 0 0 0 0 0 0 0 0 0 127 0" result="hardAlpha"/>
<feMorphology radius="0.65702" operator="erode" in="SourceAlpha" result="effect1_dropShadow_438_7628"/>
<feOffset dx="1.31404" dy="4.59914"/>
<feGaussianBlur stdDeviation="2.95659"/>
<feComposite in2="hardAlpha" operator="out"/>
<feColorMatrix type="matrix" values="0 0 0 0 0 0 0 0 0 0 0 0 0 0 0 0 0 0 0.06 0"/>
<feBlend mode="normal" in2="BackgroundImageFix" result="effect1_dropShadow_438_7628"/>
<feBlend mode="normal" in="SourceGraphic" in2="effect1_dropShadow_438_7628" result="shape"/>
</filter>
<filter id="filter1_d_438_7628" x="37.3794" y="35.6401" width="43.2693" height="43.4976" filterUnits="userSpaceOnUse" color-interpolation-filters="sRGB">
<feFlood flood-opacity="0" result="BackgroundImageFix"/>
<feColorMatrix in="SourceAlpha" type="matrix" values="0 0 0 0 0 0 0 0 0 0 0 0 0 0 0 0 0 0 127 0" result="hardAlpha"/>
<feOffset dy="4"/>
<feGaussianBlur stdDeviation="2"/>
<feComposite in2="hardAlpha" operator="out"/>
<feColorMatrix type="matrix" values="0 0 0 0 0 0 0 0 0 0 0 0 0 0 0 0 0 0 0.25 0"/>
<feBlend mode="normal" in2="BackgroundImageFix" result="effect1_dropShadow_438_7628"/>
<feBlend mode="normal" in="SourceGraphic" in2="effect1_dropShadow_438_7628" result="shape"/>
</filter>
</defs>
</svg>
