<svg width="118" height="136" viewBox="0 0 118 136" fill="none" xmlns="http://www.w3.org/2000/svg">
<g filter="url(#filter0_d_371_7471)">
<rect x="4.79297" y="1.45312" width="106.437" height="124.177" rx="22.9957" fill="white"/>
</g>
<path d="M50.8435 98.121C51.0589 98.1627 51.2743 98.2565 51.4897 98.4024C51.712 98.5483 51.8961 98.7533 52.042 99.0173C52.1879 99.2813 52.2609 99.601 52.2609 99.9761C52.2609 100.685 52.042 101.22 51.6043 101.581C51.1666 101.942 50.5413 102.123 49.7284 102.123H46.5601V94.4942H49.7075C50.4162 94.4942 50.9755 94.6645 51.3854 95.0049C51.8023 95.3384 52.0108 95.8456 52.0108 96.5265C52.0108 96.7905 51.9517 97.0372 51.8336 97.2665C51.7224 97.4888 51.5765 97.6764 51.3959 97.8292C51.2222 97.9751 51.0381 98.0724 50.8435 98.121ZM47.6544 95.453V97.7771H49.4261C49.8847 97.7771 50.246 97.6729 50.51 97.4645C50.774 97.256 50.906 96.9712 50.906 96.6099C50.906 96.186 50.781 95.8873 50.5309 95.7136C50.2877 95.5399 49.982 95.453 49.6137 95.453H47.6544ZM49.6971 101.175C50.1418 101.175 50.4926 101.077 50.7497 100.883C51.0137 100.681 51.1457 100.365 51.1457 99.9345C51.1457 99.5384 51.0137 99.2292 50.7497 99.0069C50.4926 98.7776 50.1279 98.663 49.6554 98.663H47.6544V101.175H49.6971ZM57.5689 101.321C57.3535 101.633 57.0652 101.862 56.7039 102.008C56.3426 102.147 55.957 102.217 55.547 102.217C54.8731 102.217 54.3242 102.054 53.9004 101.727C53.4835 101.4 53.2751 100.945 53.2751 100.362C53.2751 99.9727 53.3862 99.6322 53.6086 99.3404C53.8309 99.0486 54.1297 98.8228 54.5048 98.663C54.887 98.5032 55.3108 98.4233 55.7763 98.4233C56.346 98.4233 56.9331 98.5067 57.5376 98.6734C57.5515 98.1176 57.4299 97.7042 57.1728 97.4332C56.9158 97.1553 56.5058 97.0163 55.9431 97.0163C55.6165 97.0163 55.2761 97.0615 54.9217 97.1518C54.5674 97.2352 54.2512 97.3429 53.9733 97.4749L53.6919 96.662C54.4701 96.2798 55.2622 96.0888 56.0681 96.0888C57.7495 96.0888 58.5902 96.9642 58.5902 98.7151V102.123H57.5689V101.321ZM55.7763 101.394C56.0612 101.394 56.3391 101.345 56.6101 101.248C56.881 101.15 57.1034 100.997 57.2771 100.789C57.4508 100.581 57.5376 100.32 57.5376 100.007V99.4342C57.0096 99.2675 56.485 99.1841 55.9639 99.1841C55.4984 99.1841 55.1128 99.2848 54.8071 99.4863C54.5014 99.6878 54.3485 99.9588 54.3485 100.299C54.3485 100.654 54.4805 100.925 54.7446 101.112C55.0155 101.3 55.3594 101.394 55.7763 101.394ZM63.5394 96.1096C63.9841 96.1096 64.3731 96.2104 64.7066 96.4119C65.0471 96.6133 65.3111 96.9017 65.4987 97.2769C65.6863 97.6451 65.7801 98.0794 65.7801 98.5796V102.123H64.7379V98.8089C64.7379 98.2461 64.5955 97.8153 64.3106 97.5166C64.0327 97.2178 63.654 97.0684 63.1746 97.0684C62.8272 97.0684 62.5111 97.1449 62.2262 97.2977C61.9483 97.4506 61.7295 97.6625 61.5697 97.9335C61.4099 98.1975 61.33 98.4928 61.33 98.8193V102.123H60.2773V96.2138H61.33V97.2039C61.594 96.8913 61.9101 96.6307 62.2784 96.4223C62.6535 96.2138 63.0739 96.1096 63.5394 96.1096ZM72.8819 102.123H71.6104L70.0159 99.8719L68.4005 102.123H67.4729V94.0357H68.5255V100.268L71.4228 96.2138H72.6734L70.6933 98.9965L72.8819 102.123Z" fill="#033F40"/>
<g filter="url(#filter1_d_371_7471)">
<path d="M44.2139 72.4129H72.6848V75.2599H44.2139V72.4129ZM47.061 61.0245H49.908V70.9893H47.061V61.0245ZM54.1787 61.0245H57.0258V70.9893H54.1787V61.0245ZM59.8729 61.0245H62.7199V70.9893H59.8729V61.0245ZM66.9906 61.0245H69.8377V70.9893H66.9906V61.0245ZM44.2139 53.9068L58.4493 46.7891L72.6848 53.9068V59.601H44.2139V53.9068ZM58.4493 55.3303C58.8269 55.3303 59.1889 55.1803 59.4559 54.9134C59.7229 54.6464 59.8729 54.2843 59.8729 53.9068C59.8729 53.5292 59.7229 53.1672 59.4559 52.9002C59.1889 52.6332 58.8269 52.4832 58.4493 52.4832C58.0718 52.4832 57.7097 52.6332 57.4427 52.9002C57.1757 53.1672 57.0258 53.5292 57.0258 53.9068C57.0258 54.2843 57.1757 54.6464 57.4427 54.9134C57.7097 55.1803 58.0718 55.3303 58.4493 55.3303V55.3303Z" fill="#BA79AD"/>
</g>
<defs>
<filter id="filter0_d_371_7471" x="0.850848" y="0.796106" width="116.95" height="134.689" filterUnits="userSpaceOnUse" color-interpolation-filters="sRGB">
<feFlood flood-opacity="0" result="BackgroundImageFix"/>
<feColorMatrix in="SourceAlpha" type="matrix" values="0 0 0 0 0 0 0 0 0 0 0 0 0 0 0 0 0 0 127 0" result="hardAlpha"/>
<feMorphology radius="0.65702" operator="erode" in="SourceAlpha" result="effect1_dropShadow_371_7471"/>
<feOffset dx="1.31404" dy="4.59914"/>
<feGaussianBlur stdDeviation="2.95659"/>
<feComposite in2="hardAlpha" operator="out"/>
<feColorMatrix type="matrix" values="0 0 0 0 0 0 0 0 0 0 0 0 0 0 0 0 0 0 0.06 0"/>
<feBlend mode="normal" in2="BackgroundImageFix" result="effect1_dropShadow_371_7471"/>
<feBlend mode="normal" in="SourceGraphic" in2="effect1_dropShadow_371_7471" result="shape"/>
</filter>
<filter id="filter1_d_371_7471" x="41.5858" y="46.7891" width="33.7271" height="33.727" filterUnits="userSpaceOnUse" color-interpolation-filters="sRGB">
<feFlood flood-opacity="0" result="BackgroundImageFix"/>
<feColorMatrix in="SourceAlpha" type="matrix" values="0 0 0 0 0 0 0 0 0 0 0 0 0 0 0 0 0 0 127 0" result="hardAlpha"/>
<feOffset dy="2.62808"/>
<feGaussianBlur stdDeviation="1.31404"/>
<feComposite in2="hardAlpha" operator="out"/>
<feColorMatrix type="matrix" values="0 0 0 0 0.816903 0 0 0 0 0.816903 0 0 0 0 0.816903 0 0 0 1 0"/>
<feBlend mode="normal" in2="BackgroundImageFix" result="effect1_dropShadow_371_7471"/>
<feBlend mode="normal" in="SourceGraphic" in2="effect1_dropShadow_371_7471" result="shape"/>
</filter>
</defs>
</svg>
