<svg width="118" height="136" viewBox="0 0 118 136" fill="none" xmlns="http://www.w3.org/2000/svg">
<g filter="url(#filter0_d_371_7476)">
<rect x="4.45508" y="1.44531" width="106.437" height="124.177" rx="22.9957" fill="white"/>
</g>
<path d="M44.7242 82.002C45.3426 82.002 45.8741 82.1097 46.3188 82.3251C46.7704 82.5336 47.1108 82.8288 47.3401 83.211C47.5763 83.5931 47.6945 84.0308 47.6945 84.5241C47.6945 85.0244 47.5798 85.4656 47.3505 85.8477C47.1212 86.2299 46.7808 86.5251 46.3292 86.7336C45.8845 86.942 45.3495 87.0462 44.7242 87.0462H43.1922V89.6309H42.0875V82.002H44.7242ZM44.7138 86.0562C45.3252 86.0562 45.7838 85.9172 46.0895 85.6393C46.4021 85.3614 46.5585 84.9896 46.5585 84.5241C46.5585 84.0586 46.4021 83.6869 46.0895 83.409C45.7838 83.1241 45.3252 82.9817 44.7138 82.9817H43.1922V86.0562H44.7138ZM54.4475 83.7217V89.6309H53.3949V88.6199C53.1309 88.9326 52.8113 89.1966 52.4361 89.412C52.0609 89.6274 51.6405 89.7351 51.175 89.7351C50.7373 89.7351 50.3482 89.6343 50.0078 89.4328C49.6743 89.2314 49.4137 88.943 49.2261 88.5678C49.0385 88.1926 48.9448 87.7549 48.9448 87.2547V83.7217H49.9869V87.0358C49.9869 87.6055 50.1259 88.0398 50.4038 88.3385C50.6817 88.6304 51.0639 88.7763 51.5502 88.7763C51.8976 88.7763 52.2103 88.6998 52.4882 88.547C52.7731 88.3941 52.9954 88.1857 53.1552 87.9217C53.315 87.6507 53.3949 87.3519 53.3949 87.0254V83.7217H54.4475ZM59.4007 83.607C59.9148 83.607 60.3768 83.7321 60.7868 83.9822C61.2037 84.2323 61.5302 84.5901 61.7664 85.0557C62.0096 85.5212 62.1312 86.0596 62.1312 86.671C62.1312 87.2825 62.0096 87.8209 61.7664 88.2864C61.5302 88.7519 61.2037 89.1132 60.7868 89.3703C60.3768 89.6204 59.9148 89.7455 59.4007 89.7455C58.4349 89.7455 57.7262 89.412 57.2746 88.745V89.6309H56.222V81.5435H57.2746V84.6075C57.7262 83.9405 58.4349 83.607 59.4007 83.607ZM59.1089 88.7763C59.4979 88.7763 59.8384 88.6825 60.1302 88.4949C60.429 88.3073 60.6582 88.0537 60.818 87.7341C60.9778 87.4145 61.0577 87.0636 61.0577 86.6815C61.0577 86.2924 60.9778 85.938 60.818 85.6184C60.6582 85.2988 60.429 85.0452 60.1302 84.8576C59.8384 84.67 59.4979 84.5762 59.1089 84.5762C58.5322 84.5762 58.0806 84.7743 57.754 85.1703C57.4275 85.5663 57.2642 86.07 57.2642 86.6815C57.2642 87.0706 57.3337 87.4249 57.4726 87.7445C57.6185 88.0572 57.8304 88.3073 58.1084 88.4949C58.3863 88.6825 58.7198 88.7763 59.1089 88.7763ZM63.499 81.5435H64.5516V89.6309H63.499V81.5435ZM67.6415 82.273C67.6415 82.4537 67.5755 82.6065 67.4435 82.7316C67.3184 82.8566 67.1656 82.9192 66.9849 82.9192C66.7973 82.9192 66.6375 82.8566 66.5055 82.7316C66.3735 82.6065 66.3075 82.4537 66.3075 82.273C66.3075 82.1063 66.3735 81.9604 66.5055 81.8353C66.6375 81.7102 66.7973 81.6477 66.9849 81.6477C67.1656 81.6477 67.3184 81.7102 67.4435 81.8353C67.5755 81.9534 67.6415 82.0993 67.6415 82.273ZM66.443 83.7217H67.4956V89.6309H66.443V83.7217ZM68.9854 86.6919C68.9854 86.1222 69.1174 85.6011 69.3814 85.1286C69.6454 84.6561 70.0067 84.2844 70.4653 84.0135C70.9308 83.7425 71.4449 83.607 72.0077 83.607C72.633 83.607 73.168 83.7529 73.6127 84.0447C74.0574 84.3365 74.377 84.6944 74.5715 85.1182L73.6648 85.5246C73.5258 85.2606 73.3139 85.0383 73.0291 84.8576C72.7511 84.67 72.4142 84.5762 72.0181 84.5762C71.636 84.5762 71.2956 84.67 70.9968 84.8576C70.698 85.0383 70.4653 85.2919 70.2985 85.6184C70.1318 85.938 70.0484 86.2993 70.0484 86.7023C70.0484 87.0983 70.1318 87.4562 70.2985 87.7758C70.4653 88.0884 70.698 88.3351 70.9968 88.5157C71.2956 88.6894 71.636 88.7763 72.0181 88.7763C72.4142 88.7763 72.7546 88.6859 73.0395 88.5053C73.3244 88.3177 73.5397 88.0954 73.6856 87.8383L74.5923 88.2447C74.3909 88.6755 74.0678 89.0333 73.6231 89.3182C73.1854 89.6031 72.6504 89.7455 72.0181 89.7455C71.4484 89.7455 70.9308 89.6135 70.4653 89.3495C70.0067 89.0854 69.6454 88.7207 69.3814 88.2552C69.1174 87.7897 68.9854 87.2686 68.9854 86.6919ZM35.1005 95.9817V102.631H33.9958V95.9817H31.7447V95.002H37.3517V95.9817H35.1005ZM39.4892 98.0973C39.9895 97.1385 40.7503 96.6591 41.7716 96.6591V97.7951H41.6257C41.2575 97.7951 40.9101 97.875 40.5835 98.0348C40.2639 98.1946 39.9999 98.4621 39.7914 98.8373C39.59 99.2055 39.4892 99.6849 39.4892 100.276V102.631H38.4366V96.7217H39.4892V98.0973ZM46.7403 101.828C46.5249 102.141 46.2366 102.37 45.8753 102.516C45.514 102.655 45.1284 102.725 44.7185 102.725C44.0445 102.725 43.4956 102.561 43.0718 102.235C42.6549 101.908 42.4465 101.453 42.4465 100.87C42.4465 100.48 42.5577 100.14 42.78 99.8482C43.0023 99.5564 43.3011 99.3306 43.6763 99.1708C44.0584 99.011 44.4822 98.9311 44.9478 98.9311C45.5175 98.9311 46.1046 99.0145 46.7091 99.1812C46.7229 98.6254 46.6014 98.212 46.3443 97.941C46.0872 97.6631 45.6773 97.5241 45.1145 97.5241C44.788 97.5241 44.4475 97.5693 44.0932 97.6596C43.7388 97.743 43.4227 97.8507 43.1448 97.9827L42.8634 97.1698C43.6415 96.7877 44.4336 96.5966 45.2396 96.5966C46.921 96.5966 47.7617 97.472 47.7617 99.2229V102.631H46.7403V101.828ZM44.9478 101.901C45.2326 101.901 45.5105 101.853 45.7815 101.755C46.0525 101.658 46.2748 101.505 46.4485 101.297C46.6222 101.088 46.7091 100.828 46.7091 100.515V99.942C46.181 99.7753 45.6564 99.6919 45.1353 99.6919C44.6698 99.6919 44.2842 99.7926 43.9785 99.9941C43.6728 100.196 43.52 100.467 43.52 100.807C43.52 101.161 43.652 101.432 43.916 101.62C44.187 101.808 44.5309 101.901 44.9478 101.901ZM52.7108 96.6174C53.1555 96.6174 53.5446 96.7182 53.8781 96.9197C54.2185 97.1212 54.4826 97.4095 54.6701 97.7847C54.8577 98.1529 54.9515 98.5872 54.9515 99.0874V102.631H53.9094V99.3167C53.9094 98.7539 53.7669 98.3231 53.4821 98.0244C53.2041 97.7256 52.8255 97.5762 52.3461 97.5762C51.9987 97.5762 51.6825 97.6527 51.3977 97.8055C51.1198 97.9584 50.9009 98.1703 50.7411 98.4413C50.5813 98.7053 50.5014 99.0006 50.5014 99.3271V102.631H49.4488V96.7217H50.5014V97.7117C50.7654 97.3991 51.0815 97.1385 51.4498 96.9301C51.825 96.7217 52.2453 96.6174 52.7108 96.6174ZM58.6871 102.787C57.6796 102.787 56.8528 102.541 56.2066 102.047L56.6235 101.307C56.8736 101.488 57.1828 101.634 57.5511 101.745C57.9263 101.856 58.291 101.912 58.6454 101.912C59.0483 101.912 59.3541 101.853 59.5625 101.735C59.7779 101.61 59.8856 101.408 59.8856 101.13C59.8856 100.922 59.8196 100.758 59.6876 100.64C59.5555 100.515 59.3888 100.421 59.1873 100.359C58.9928 100.289 58.7183 100.216 58.364 100.14C57.9054 100.043 57.5337 99.942 57.2488 99.8378C56.964 99.7266 56.7208 99.5564 56.5193 99.3271C56.3178 99.0909 56.2171 98.7713 56.2171 98.3683C56.2171 97.9792 56.3213 97.6527 56.5297 97.3887C56.7451 97.1246 57.023 96.9336 57.3635 96.8154C57.7039 96.6904 58.0652 96.6279 58.4473 96.6279C58.8573 96.6279 59.2429 96.6834 59.6042 96.7946C59.9655 96.8988 60.2747 97.0413 60.5317 97.2219L60.1565 97.9827C59.9064 97.8298 59.6285 97.7117 59.3228 97.6284C59.024 97.545 58.7253 97.5033 58.4265 97.5033C58.1347 97.5033 57.8637 97.5658 57.6136 97.6909C57.3704 97.809 57.2488 98.0105 57.2488 98.2954C57.2488 98.483 57.3114 98.6358 57.4364 98.7539C57.5615 98.8651 57.7143 98.9485 57.895 99.004C58.0826 99.0596 58.3501 99.1256 58.6975 99.2021C59.163 99.2993 59.5416 99.4036 59.8335 99.5147C60.1322 99.6259 60.3858 99.8031 60.5943 100.046C60.8027 100.289 60.9069 100.626 60.9069 101.057C60.9069 101.613 60.7019 102.04 60.292 102.339C59.889 102.638 59.3541 102.787 58.6871 102.787ZM65.4505 96.607C65.9577 96.607 66.4163 96.7355 66.8262 96.9926C67.2431 97.2427 67.5696 97.6006 67.8059 98.0661C68.0421 98.5316 68.1602 99.07 68.1602 99.6815C68.1602 100.293 68.0421 100.831 67.8059 101.297C67.5696 101.755 67.2431 102.113 66.8262 102.37C66.4163 102.62 65.9577 102.746 65.4505 102.746C64.4987 102.746 63.7934 102.412 63.3349 101.745V104.809H62.3031V96.7217H63.3349V97.6075C63.7934 96.9405 64.4987 96.607 65.4505 96.607ZM65.1587 101.776C65.5478 101.776 65.8882 101.682 66.1801 101.495C66.4719 101.307 66.6942 101.054 66.8471 100.734C67.0069 100.414 67.0868 100.06 67.0868 99.671C67.0868 99.2889 67.0069 98.938 66.8471 98.6184C66.6942 98.2988 66.4719 98.0452 66.1801 97.8576C65.8882 97.67 65.5478 97.5762 65.1587 97.5762C64.7766 97.5762 64.4466 97.67 64.1686 97.8576C63.8907 98.0452 63.6788 98.2988 63.5329 98.6184C63.3939 98.9311 63.3245 99.282 63.3245 99.671C63.3245 100.276 63.4843 100.779 63.8039 101.182C64.1304 101.578 64.582 101.776 65.1587 101.776ZM72.187 102.746C71.5895 102.746 71.058 102.61 70.5925 102.339C70.127 102.061 69.7622 101.689 69.4982 101.224C69.2411 100.751 69.1126 100.23 69.1126 99.6606C69.1126 99.0978 69.2411 98.5837 69.4982 98.1182C69.7622 97.6527 70.127 97.2844 70.5925 97.0135C71.058 96.7425 71.5895 96.607 72.187 96.607C72.7846 96.607 73.3161 96.7425 73.7816 97.0135C74.2471 97.2844 74.6084 97.6527 74.8655 98.1182C75.1295 98.5837 75.2615 99.0978 75.2615 99.6606C75.2615 100.23 75.1295 100.751 74.8655 101.224C74.6084 101.689 74.2471 102.061 73.7816 102.339C73.3161 102.61 72.7846 102.746 72.187 102.746ZM72.187 97.5658C71.7841 97.5658 71.4297 97.6561 71.124 97.8368C70.8253 98.0174 70.5925 98.2676 70.4257 98.5872C70.2659 98.9068 70.186 99.2646 70.186 99.6606C70.186 100.057 70.2659 100.418 70.4257 100.744C70.5925 101.064 70.8253 101.318 71.124 101.505C71.4297 101.693 71.7841 101.787 72.187 101.787C72.59 101.787 72.9409 101.693 73.2397 101.505C73.5454 101.318 73.7781 101.064 73.9379 100.744C74.1047 100.418 74.188 100.057 74.188 99.6606C74.188 99.2646 74.1047 98.9068 73.9379 98.5872C73.7781 98.2676 73.5454 98.0174 73.2397 97.8368C72.9409 97.6561 72.59 97.5658 72.187 97.5658ZM77.6756 98.0973C78.1759 97.1385 78.9367 96.6591 79.958 96.6591V97.7951H79.8121C79.4439 97.7951 79.0965 97.875 78.7699 98.0348C78.4503 98.1946 78.1863 98.4621 77.9779 98.8373C77.7764 99.2055 77.6756 99.6849 77.6756 100.276V102.631H76.623V96.7217H77.6756V98.0973ZM82.6089 101.057C82.6089 101.314 82.6749 101.509 82.8069 101.641C82.939 101.766 83.1161 101.828 83.3385 101.828C83.5816 101.828 83.797 101.78 83.9846 101.682L84.2035 102.485C84.0784 102.554 83.9186 102.613 83.7241 102.662C83.5295 102.718 83.3141 102.746 83.0779 102.746C82.6055 102.746 82.2337 102.624 81.9628 102.381C81.6918 102.131 81.5563 101.78 81.5563 101.328V97.67H80.8997V97.3678L82.5568 95.5544H82.6089V96.7217H84.0055V97.67H82.6089V101.057Z" fill="#033F40"/>
<g filter="url(#filter1_d_371_7476)">
<path d="M64.7466 62.4366L67.3089 64.5719V65.2837H47.3793V64.5719L49.9417 62.4366H47.3793C46.6242 62.4366 45.9001 62.1366 45.3661 61.6027C44.8322 61.0687 44.5322 60.3446 44.5322 59.5895V43.9305C44.5322 42.4203 45.1321 40.972 46.2 39.9041C47.2679 38.8362 48.7162 38.2363 50.2264 38.2363H64.4618C65.972 38.2363 67.4204 38.8362 68.4882 39.9041C69.5561 40.972 70.156 42.4203 70.156 43.9305V59.5895C70.156 60.3446 69.8561 61.0687 69.3221 61.6027C68.7882 62.1366 68.064 62.4366 67.3089 62.4366H64.7466ZM47.3793 43.9305V49.6247H67.3089V43.9305H47.3793ZM57.3441 59.5895C58.0992 59.5895 58.8234 59.2895 59.3573 58.7556C59.8912 58.2217 60.1912 57.4975 60.1912 56.7424C60.1912 55.9873 59.8912 55.2631 59.3573 54.7292C58.8234 54.1953 58.0992 53.8953 57.3441 53.8953C56.589 53.8953 55.8649 54.1953 55.3309 54.7292C54.797 55.2631 54.497 55.9873 54.497 56.7424C54.497 57.4975 54.797 58.2217 55.3309 58.7556C55.8649 59.2895 56.589 59.5895 57.3441 59.5895Z" fill="#AC2961"/>
</g>
<defs>
<filter id="filter0_d_371_7476" x="0.512957" y="0.788293" width="116.95" height="134.689" filterUnits="userSpaceOnUse" color-interpolation-filters="sRGB">
<feFlood flood-opacity="0" result="BackgroundImageFix"/>
<feColorMatrix in="SourceAlpha" type="matrix" values="0 0 0 0 0 0 0 0 0 0 0 0 0 0 0 0 0 0 127 0" result="hardAlpha"/>
<feMorphology radius="0.65702" operator="erode" in="SourceAlpha" result="effect1_dropShadow_371_7476"/>
<feOffset dx="1.31404" dy="4.59914"/>
<feGaussianBlur stdDeviation="2.95659"/>
<feComposite in2="hardAlpha" operator="out"/>
<feColorMatrix type="matrix" values="0 0 0 0 0 0 0 0 0 0 0 0 0 0 0 0 0 0 0.06 0"/>
<feBlend mode="normal" in2="BackgroundImageFix" result="effect1_dropShadow_371_7476"/>
<feBlend mode="normal" in="SourceGraphic" in2="effect1_dropShadow_371_7476" result="shape"/>
</filter>
<filter id="filter1_d_371_7476" x="41.9041" y="38.2363" width="30.8799" height="32.3035" filterUnits="userSpaceOnUse" color-interpolation-filters="sRGB">
<feFlood flood-opacity="0" result="BackgroundImageFix"/>
<feColorMatrix in="SourceAlpha" type="matrix" values="0 0 0 0 0 0 0 0 0 0 0 0 0 0 0 0 0 0 127 0" result="hardAlpha"/>
<feOffset dy="2.62808"/>
<feGaussianBlur stdDeviation="1.31404"/>
<feComposite in2="hardAlpha" operator="out"/>
<feColorMatrix type="matrix" values="0 0 0 0 0.816903 0 0 0 0 0.816903 0 0 0 0 0.816903 0 0 0 1 0"/>
<feBlend mode="normal" in2="BackgroundImageFix" result="effect1_dropShadow_371_7476"/>
<feBlend mode="normal" in="SourceGraphic" in2="effect1_dropShadow_371_7476" result="shape"/>
</filter>
</defs>
</svg>
