<svg width="118" height="135" viewBox="0 0 118 135" fill="none" xmlns="http://www.w3.org/2000/svg">
<g filter="url(#filter0_d_688_8085)">
<rect x="4.45508" y="0.859375" width="106.413" height="124.148" rx="22.9904" fill="white"/>
</g>
<g filter="url(#filter1_d_688_8085)">
<path d="M71.6011 55.0406V67.8496H68.7546V63.5799H45.9832V67.8496H43.1367V45.0781H45.9832V59.3103H57.3689V49.3478H65.9082C67.418 49.3478 68.866 49.9476 69.9336 51.0152C71.0013 52.0828 71.6011 53.5308 71.6011 55.0406ZM51.676 57.8871C50.5436 57.8871 49.4576 57.4372 48.6569 56.6365C47.8562 55.8358 47.4064 54.7498 47.4064 53.6174C47.4064 52.485 47.8562 51.399 48.6569 50.5983C49.4576 49.7976 50.5436 49.3478 51.676 49.3478C52.8084 49.3478 53.8944 49.7976 54.6951 50.5983C55.4958 51.399 55.9457 52.485 55.9457 53.6174C55.9457 54.7498 55.4958 55.8358 54.6951 56.6365C53.8944 57.4372 52.8084 57.8871 51.676 57.8871Z" fill="#F5C151"/>
</g>
<path d="M51.5895 88.0253V95.2686H50.4014V92.1003H46.9935V95.2686H45.8054V88.0253H46.9935V91.1311H50.4014V88.0253H51.5895ZM55.6444 95.3624C55.1025 95.3624 54.6127 95.2408 54.175 94.9976C53.7372 94.7475 53.3933 94.4001 53.1432 93.9554C52.8931 93.5038 52.768 92.9827 52.768 92.3921C52.768 91.8085 52.8965 91.2909 53.1536 90.8393C53.4107 90.3876 53.7615 90.0402 54.2062 89.7971C54.6509 89.5539 55.1477 89.4323 55.6965 89.4323C56.2454 89.4323 56.7422 89.5539 57.1869 89.7971C57.6315 90.0402 57.9824 90.3876 58.2395 90.8393C58.4966 91.2909 58.6251 91.8085 58.6251 92.3921C58.6251 92.9757 58.4931 93.4934 58.2291 93.945C57.965 94.3966 57.6037 94.7475 57.1452 94.9976C56.6936 95.2408 56.1933 95.3624 55.6444 95.3624ZM55.6444 94.3306C55.9501 94.3306 56.235 94.2576 56.499 94.1117C56.77 93.9658 56.9889 93.747 57.1556 93.4551C57.3224 93.1633 57.4057 92.809 57.4057 92.3921C57.4057 91.9752 57.3258 91.6244 57.166 91.3395C57.0062 91.0477 56.7943 90.8288 56.5303 90.6829C56.2663 90.537 55.9814 90.4641 55.6757 90.4641C55.37 90.4641 55.0851 90.537 54.8211 90.6829C54.564 90.8288 54.3591 91.0477 54.2062 91.3395C54.0534 91.6244 53.9769 91.9752 53.9769 92.3921C53.9769 93.0105 54.1333 93.4899 54.4459 93.8303C54.7655 94.1638 55.165 94.3306 55.6444 94.3306ZM61.1857 90.4953V93.674C61.1857 93.8894 61.2343 94.0457 61.3316 94.143C61.4358 94.2333 61.6095 94.2785 61.8527 94.2785H62.5822V95.2686H61.6443C61.1093 95.2686 60.6993 95.1435 60.4145 94.8934C60.1296 94.6432 59.9872 94.2368 59.9872 93.674V90.4953H59.3098V89.5261H59.9872V88.0983H61.1857V89.5261H62.5822V90.4953H61.1857ZM68.9403 92.2566C68.9403 92.472 68.9264 92.6666 68.8986 92.8403H64.511C64.5458 93.2988 64.716 93.6671 65.0217 93.945C65.3274 94.2229 65.7026 94.3619 66.1472 94.3619C66.7865 94.3619 67.2381 94.0944 67.5021 93.5594H68.784C68.6103 94.0874 68.2942 94.5217 67.8356 94.8621C67.384 95.1956 66.8212 95.3624 66.1472 95.3624C65.5984 95.3624 65.1051 95.2408 64.6673 94.9976C64.2366 94.7475 63.8961 94.4001 63.646 93.9554C63.4028 93.5038 63.2812 92.9827 63.2812 92.3921C63.2812 91.8015 63.3993 91.2839 63.6356 90.8393C63.8788 90.3876 64.2157 90.0402 64.6465 89.7971C65.0842 89.5539 65.5845 89.4323 66.1472 89.4323C66.6892 89.4323 67.1721 89.5504 67.5959 89.7866C68.0197 90.0229 68.3497 90.3564 68.586 90.7871C68.8222 91.211 68.9403 91.7008 68.9403 92.2566ZM67.7001 91.8814C67.6932 91.4437 67.5368 91.0929 67.2311 90.8288C66.9254 90.5648 66.5468 90.4328 66.0951 90.4328C65.6852 90.4328 65.3343 90.5648 65.0425 90.8288C64.7507 91.0859 64.577 91.4368 64.5214 91.8814H67.7001ZM71.2976 87.5564V95.2686H70.1095V87.5564H71.2976Z" fill="#033F40"/>
<defs>
<filter id="filter0_d_688_8085" x="0.513864" y="0.202507" width="116.923" height="134.658" filterUnits="userSpaceOnUse" color-interpolation-filters="sRGB">
<feFlood flood-opacity="0" result="BackgroundImageFix"/>
<feColorMatrix in="SourceAlpha" type="matrix" values="0 0 0 0 0 0 0 0 0 0 0 0 0 0 0 0 0 0 127 0" result="hardAlpha"/>
<feMorphology radius="0.656869" operator="erode" in="SourceAlpha" result="effect1_dropShadow_688_8085"/>
<feOffset dx="1.31374" dy="4.59808"/>
<feGaussianBlur stdDeviation="2.95591"/>
<feComposite in2="hardAlpha" operator="out"/>
<feColorMatrix type="matrix" values="0 0 0 0 0 0 0 0 0 0 0 0 0 0 0 0 0 0 0.06 0"/>
<feBlend mode="normal" in2="BackgroundImageFix" result="effect1_dropShadow_688_8085"/>
<feBlend mode="normal" in="SourceGraphic" in2="effect1_dropShadow_688_8085" result="shape"/>
</filter>
<filter id="filter1_d_688_8085" x="38.5386" y="43.1075" width="37.6605" height="31.9677" filterUnits="userSpaceOnUse" color-interpolation-filters="sRGB">
<feFlood flood-opacity="0" result="BackgroundImageFix"/>
<feColorMatrix in="SourceAlpha" type="matrix" values="0 0 0 0 0 0 0 0 0 0 0 0 0 0 0 0 0 0 127 0" result="hardAlpha"/>
<feOffset dy="2.62748"/>
<feGaussianBlur stdDeviation="2.29904"/>
<feComposite in2="hardAlpha" operator="out"/>
<feColorMatrix type="matrix" values="0 0 0 0 0.815686 0 0 0 0 0.815686 0 0 0 0 0.815686 0 0 0 1 0"/>
<feBlend mode="normal" in2="BackgroundImageFix" result="effect1_dropShadow_688_8085"/>
<feBlend mode="normal" in="SourceGraphic" in2="effect1_dropShadow_688_8085" result="shape"/>
</filter>
</defs>
</svg>
