<svg width="118" height="136" viewBox="0 0 118 136" fill="none" xmlns="http://www.w3.org/2000/svg">
<g filter="url(#filter0_d_371_7501)">
<rect x="4.10645" y="1.33594" width="106.437" height="124.177" rx="22.9957" fill="white"/>
</g>
<path d="M40.1743 84.2783L38.0274 91.5215H36.683L35.1614 86.0396L33.546 91.5215L32.212 91.5319L30.1589 84.2783H31.4199L32.9207 90.1771L34.5465 84.2783H35.8805L37.3917 90.1458L38.9028 84.2783H40.1743ZM40.7582 88.6242C40.7582 88.0475 40.8763 87.5369 41.1125 87.0922C41.3557 86.6475 41.6823 86.3036 42.0922 86.0604C42.5091 85.8103 42.9676 85.6852 43.4679 85.6852C43.9195 85.6852 44.312 85.7756 44.6455 85.9562C44.986 86.1299 45.257 86.3488 45.4585 86.6128V85.779H46.657V91.5215H45.4585V90.6669C45.257 90.9379 44.9825 91.1637 44.6351 91.3443C44.2877 91.525 43.8917 91.6153 43.447 91.6153C42.9537 91.6153 42.5021 91.4902 42.0922 91.2401C41.6823 90.983 41.3557 90.6287 41.1125 90.1771C40.8763 89.7185 40.7582 89.2009 40.7582 88.6242ZM45.4585 88.645C45.4585 88.249 45.3751 87.9051 45.2083 87.6133C45.0485 87.3215 44.8366 87.0991 44.5726 86.9463C44.3086 86.7934 44.0237 86.717 43.718 86.717C43.4123 86.717 43.1274 86.7934 42.8634 86.9463C42.5994 87.0922 42.384 87.311 42.2172 87.6029C42.0574 87.8877 41.9775 88.2282 41.9775 88.6242C41.9775 89.0202 42.0574 89.3676 42.2172 89.6664C42.384 89.9652 42.5994 90.1944 42.8634 90.3542C43.1344 90.5071 43.4192 90.5835 43.718 90.5835C44.0237 90.5835 44.3086 90.5071 44.5726 90.3542C44.8366 90.2014 45.0485 89.979 45.2083 89.6872C45.3751 89.3885 45.4585 89.0411 45.4585 88.645ZM49.6036 86.7483V89.9269C49.6036 90.1423 49.6522 90.2987 49.7495 90.3959C49.8537 90.4862 50.0274 90.5314 50.2706 90.5314H51.0001V91.5215H50.0622C49.5272 91.5215 49.1172 91.3964 48.8324 91.1463C48.5475 90.8962 48.4051 90.4897 48.4051 89.9269V86.7483H47.7277V85.779H48.4051V84.3512H49.6036V85.779H51.0001V86.7483H49.6036ZM57.3582 88.5096C57.3582 88.7249 57.3443 88.9195 57.3165 89.0932H52.9289C52.9636 89.5517 53.1339 89.92 53.4396 90.1979C53.7453 90.4758 54.1205 90.6148 54.5651 90.6148C55.2044 90.6148 55.656 90.3473 55.92 89.8123H57.2019C57.0282 90.3403 56.712 90.7746 56.2535 91.115C55.8019 91.4485 55.2391 91.6153 54.5651 91.6153C54.0163 91.6153 53.523 91.4937 53.0852 91.2505C52.6545 91.0004 52.314 90.653 52.0639 90.2083C51.8207 89.7567 51.6991 89.2356 51.6991 88.645C51.6991 88.0545 51.8172 87.5369 52.0535 87.0922C52.2966 86.6406 52.6336 86.2932 53.0644 86.05C53.5021 85.8068 54.0024 85.6852 54.5651 85.6852C55.1071 85.6852 55.59 85.8033 56.0138 86.0396C56.4376 86.2758 56.7676 86.6093 57.0039 87.0401C57.2401 87.4639 57.3582 87.9537 57.3582 88.5096ZM56.118 88.1344C56.1111 87.6967 55.9547 87.3458 55.649 87.0818C55.3433 86.8177 54.9646 86.6857 54.513 86.6857C54.1031 86.6857 53.7522 86.8177 53.4604 87.0818C53.1686 87.3388 52.9949 87.6897 52.9393 88.1344H56.118ZM59.7155 86.6128C59.8892 86.321 60.1185 86.0952 60.4033 85.9354C60.6952 85.7686 61.0391 85.6852 61.4351 85.6852V86.915H61.1329C60.6674 86.915 60.313 87.0331 60.0698 87.2694C59.8336 87.5056 59.7155 87.9155 59.7155 88.4991V91.5215H58.5274V85.779H59.7155V86.6128ZM64.8384 88.6242C64.8384 88.0475 64.9565 87.5369 65.1928 87.0922C65.436 86.6475 65.7625 86.3036 66.1724 86.0604C66.5893 85.8103 67.0479 85.6852 67.5481 85.6852C67.9997 85.6852 68.3923 85.7756 68.7258 85.9562C69.0662 86.1299 69.3372 86.3488 69.5387 86.6128V85.779H70.7372V91.5215H69.5387V90.6669C69.3372 90.9379 69.0628 91.1637 68.7154 91.3443C68.368 91.525 67.9719 91.6153 67.5273 91.6153C67.034 91.6153 66.5824 91.4902 66.1724 91.2401C65.7625 90.983 65.436 90.6287 65.1928 90.1771C64.9565 89.7185 64.8384 89.2009 64.8384 88.6242ZM69.5387 88.645C69.5387 88.249 69.4553 87.9051 69.2886 87.6133C69.1288 87.3215 68.9169 87.0991 68.6528 86.9463C68.3888 86.7934 68.104 86.717 67.7982 86.717C67.4925 86.717 67.2077 86.7934 66.9436 86.9463C66.6796 87.0922 66.4642 87.311 66.2975 87.6029C66.1377 87.8877 66.0578 88.2282 66.0578 88.6242C66.0578 89.0202 66.1377 89.3676 66.2975 89.6664C66.4642 89.9652 66.6796 90.1944 66.9436 90.3542C67.2146 90.5071 67.4995 90.5835 67.7982 90.5835C68.104 90.5835 68.3888 90.5071 68.6528 90.3542C68.9169 90.2014 69.1288 89.979 69.2886 89.6872C69.4553 89.3885 69.5387 89.0411 69.5387 88.645ZM75.195 85.6852C75.6466 85.6852 76.0496 85.779 76.4039 85.9666C76.7652 86.1542 77.0466 86.4321 77.2481 86.8004C77.4496 87.1686 77.5504 87.6133 77.5504 88.1344V91.5215H76.3727V88.3115C76.3727 87.7974 76.2441 87.4048 75.9871 87.1339C75.73 86.856 75.3791 86.717 74.9345 86.717C74.4898 86.717 74.1355 86.856 73.8714 87.1339C73.6144 87.4048 73.4858 87.7974 73.4858 88.3115V91.5215H72.2977V85.779H73.4858V86.4356C73.6804 86.1994 73.927 86.0153 74.2258 85.8832C74.5315 85.7512 74.8546 85.6852 75.195 85.6852ZM78.6698 88.6242C78.6698 88.0475 78.7879 87.5369 79.0242 87.0922C79.2673 86.6475 79.5939 86.3036 80.0038 86.0604C80.4207 85.8103 80.8827 85.6852 81.3899 85.6852C81.7651 85.6852 82.1334 85.7686 82.4946 85.9354C82.8629 86.0952 83.1547 86.3105 83.3701 86.5815V83.8093H84.5686V91.5215H83.3701V90.6565C83.1755 90.9344 82.9046 91.1637 82.5572 91.3443C82.2167 91.525 81.8242 91.6153 81.3795 91.6153C80.8793 91.6153 80.4207 91.4902 80.0038 91.2401C79.5939 90.983 79.2673 90.6287 79.0242 90.1771C78.7879 89.7185 78.6698 89.2009 78.6698 88.6242ZM83.3701 88.645C83.3701 88.249 83.2867 87.9051 83.12 87.6133C82.9602 87.3215 82.7482 87.0991 82.4842 86.9463C82.2202 86.7934 81.9353 86.717 81.6296 86.717C81.3239 86.717 81.0391 86.7934 80.775 86.9463C80.511 87.0922 80.2956 87.311 80.1289 87.6029C79.9691 87.8877 79.8892 88.2282 79.8892 88.6242C79.8892 89.0202 79.9691 89.3676 80.1289 89.6664C80.2956 89.9652 80.511 90.1944 80.775 90.3542C81.046 90.5071 81.3309 90.5835 81.6296 90.5835C81.9353 90.5835 82.2202 90.5071 82.4842 90.3542C82.7482 90.2014 82.9602 89.979 83.12 89.6872C83.2867 89.3885 83.3701 89.0411 83.3701 88.645ZM20.4146 101.237V103.363H22.9159V104.332H20.4146V106.552H23.2285V107.521H19.2265V100.268H23.2285V101.237H20.4146ZM25.88 99.8093V107.521H24.6919V99.8093H25.88ZM32.7029 104.51C32.7029 104.725 32.689 104.919 32.6612 105.093H28.2736C28.3084 105.552 28.4786 105.92 28.7843 106.198C29.09 106.476 29.4652 106.615 29.9099 106.615C30.5491 106.615 31.0007 106.347 31.2647 105.812H32.5466C32.3729 106.34 32.0568 106.775 31.5982 107.115C31.1466 107.449 30.5838 107.615 29.9099 107.615C29.361 107.615 28.8677 107.494 28.43 107.251C27.9992 107 27.6587 106.653 27.4086 106.208C27.1654 105.757 27.0438 105.236 27.0438 104.645C27.0438 104.054 27.162 103.537 27.3982 103.092C27.6414 102.641 27.9783 102.293 28.4091 102.05C28.8468 101.807 29.3471 101.685 29.9099 101.685C30.4518 101.685 30.9347 101.803 31.3585 102.04C31.7823 102.276 32.1124 102.609 32.3486 103.04C32.5848 103.464 32.7029 103.954 32.7029 104.51ZM31.4627 104.134C31.4558 103.697 31.2994 103.346 30.9937 103.082C30.688 102.818 30.3094 102.686 29.8578 102.686C29.4478 102.686 29.097 102.818 28.8051 103.082C28.5133 103.339 28.3396 103.69 28.2841 104.134H31.4627ZM33.4761 104.645C33.4761 104.054 33.5942 103.537 33.8304 103.092C34.0736 102.641 34.4071 102.293 34.8309 102.05C35.2548 101.807 35.7411 101.685 36.29 101.685C36.9848 101.685 37.558 101.852 38.0096 102.185C38.4682 102.512 38.7774 102.981 38.9372 103.592H37.6553C37.5511 103.308 37.3843 103.085 37.155 102.925C36.9257 102.766 36.6374 102.686 36.29 102.686C35.8037 102.686 35.4146 102.859 35.1228 103.207C34.8379 103.547 34.6955 104.027 34.6955 104.645C34.6955 105.263 34.8379 105.746 35.1228 106.094C35.4146 106.441 35.8037 106.615 36.29 106.615C36.9779 106.615 37.4329 106.313 37.6553 105.708H38.9372C38.7704 106.292 38.4578 106.757 37.9992 107.105C37.5406 107.445 36.9709 107.615 36.29 107.615C35.7411 107.615 35.2548 107.494 34.8309 107.251C34.4071 107 34.0736 106.653 33.8304 106.208C33.5942 105.757 33.4761 105.236 33.4761 104.645ZM41.5073 102.748V105.927C41.5073 106.142 41.5559 106.299 41.6532 106.396C41.7574 106.486 41.9311 106.531 42.1743 106.531H42.9038V107.521H41.9659C41.4309 107.521 41.0209 107.396 40.7361 107.146C40.4512 106.896 40.3088 106.49 40.3088 105.927V102.748H39.6314V101.779H40.3088V100.351H41.5073V101.779H42.9038V102.748H41.5073ZM45.187 102.613C45.3607 102.321 45.5899 102.095 45.8748 101.935C46.1666 101.769 46.5105 101.685 46.9066 101.685V102.915H46.6043C46.1388 102.915 45.7845 103.033 45.5413 103.269C45.3051 103.506 45.187 103.916 45.187 104.499V107.521H43.9989V101.779H45.187V102.613ZM48.6031 101.018C48.3878 101.018 48.2071 100.945 48.0612 100.799C47.9153 100.653 47.8423 100.473 47.8423 100.257C47.8423 100.042 47.9153 99.8614 48.0612 99.7155C48.2071 99.5696 48.3878 99.4966 48.6031 99.4966C48.8116 99.4966 48.9887 99.5696 49.1347 99.7155C49.2806 99.8614 49.3535 100.042 49.3535 100.257C49.3535 100.473 49.2806 100.653 49.1347 100.799C48.9887 100.945 48.8116 101.018 48.6031 101.018ZM49.1868 101.779V107.521H47.9987V101.779H49.1868ZM50.3506 104.645C50.3506 104.054 50.4687 103.537 50.7049 103.092C50.9481 102.641 51.2816 102.293 51.7054 102.05C52.1293 101.807 52.6156 101.685 53.1645 101.685C53.8593 101.685 54.4325 101.852 54.8841 102.185C55.3427 102.512 55.6519 102.981 55.8117 103.592H54.5298C54.4255 103.308 54.2588 103.085 54.0295 102.925C53.8002 102.766 53.5119 102.686 53.1645 102.686C52.6781 102.686 52.2891 102.859 51.9972 103.207C51.7124 103.547 51.57 104.027 51.57 104.645C51.57 105.263 51.7124 105.746 51.9972 106.094C52.2891 106.441 52.6781 106.615 53.1645 106.615C53.8523 106.615 54.3074 106.313 54.5298 105.708H55.8117C55.6449 106.292 55.3322 106.757 54.8737 107.105C54.4151 107.445 53.8454 107.615 53.1645 107.615C52.6156 107.615 52.1293 107.494 51.7054 107.251C51.2816 107 50.9481 106.653 50.7049 106.208C50.4687 105.757 50.3506 105.236 50.3506 104.645ZM60.8806 100.278V104.895C60.8806 105.444 61.023 105.857 61.3079 106.135C61.5997 106.413 62.0027 106.552 62.5168 106.552C63.0379 106.552 63.4409 106.413 63.7258 106.135C64.0176 105.857 64.1635 105.444 64.1635 104.895V100.278H65.3516V104.874C65.3516 105.465 65.2231 105.965 64.966 106.375C64.7089 106.785 64.365 107.091 63.9342 107.292C63.5034 107.494 63.0275 107.594 62.5064 107.594C61.9853 107.594 61.5094 107.494 61.0786 107.292C60.6548 107.091 60.3178 106.785 60.0677 106.375C59.8176 105.965 59.6925 105.465 59.6925 104.874V100.278H60.8806ZM68.2846 102.748V105.927C68.2846 106.142 68.3332 106.299 68.4305 106.396C68.5347 106.486 68.7084 106.531 68.9516 106.531H69.6811V107.521H68.7432C68.2082 107.521 67.7983 107.396 67.5134 107.146C67.2285 106.896 67.0861 106.49 67.0861 105.927V102.748H66.4087V101.779H67.0861V100.351H68.2846V101.779H69.6811V102.748H68.2846ZM71.3806 101.018C71.1653 101.018 70.9846 100.945 70.8387 100.799C70.6928 100.653 70.6198 100.473 70.6198 100.257C70.6198 100.042 70.6928 99.8614 70.8387 99.7155C70.9846 99.5696 71.1653 99.4966 71.3806 99.4966C71.5891 99.4966 71.7663 99.5696 71.9122 99.7155C72.0581 99.8614 72.131 100.042 72.131 100.257C72.131 100.473 72.0581 100.653 71.9122 100.799C71.7663 100.945 71.5891 101.018 71.3806 101.018ZM71.9643 101.779V107.521H70.7762V101.779H71.9643ZM74.7122 99.8093V107.521H73.5241V99.8093H74.7122ZM76.8766 101.018C76.6612 101.018 76.4805 100.945 76.3346 100.799C76.1887 100.653 76.1158 100.473 76.1158 100.257C76.1158 100.042 76.1887 99.8614 76.3346 99.7155C76.4805 99.5696 76.6612 99.4966 76.8766 99.4966C77.085 99.4966 77.2622 99.5696 77.4081 99.7155C77.554 99.8614 77.6269 100.042 77.6269 100.257C77.6269 100.473 77.554 100.653 77.4081 100.799C77.2622 100.945 77.085 101.018 76.8766 101.018ZM77.4602 101.779V107.521H76.2721V101.779H77.4602ZM80.4062 102.748V105.927C80.4062 106.142 80.4548 106.299 80.5521 106.396C80.6563 106.486 80.83 106.531 81.0732 106.531H81.8027V107.521H80.8647C80.3297 107.521 79.9198 107.396 79.6349 107.146C79.3501 106.896 79.2076 106.49 79.2076 105.927V102.748H78.5302V101.779H79.2076V100.351H80.4062V101.779H81.8027V102.748H80.4062ZM83.5022 101.018C83.2868 101.018 83.1062 100.945 82.9602 100.799C82.8143 100.653 82.7414 100.473 82.7414 100.257C82.7414 100.042 82.8143 99.8614 82.9602 99.7155C83.1062 99.5696 83.2868 99.4966 83.5022 99.4966C83.7106 99.4966 83.8878 99.5696 84.0337 99.7155C84.1796 99.8614 84.2526 100.042 84.2526 100.257C84.2526 100.473 84.1796 100.653 84.0337 100.799C83.8878 100.945 83.7106 101.018 83.5022 101.018ZM84.0858 101.779V107.521H82.8977V101.779H84.0858ZM90.9087 104.51C90.9087 104.725 90.8948 104.919 90.867 105.093H86.4794C86.5142 105.552 86.6844 105.92 86.9901 106.198C87.2958 106.476 87.671 106.615 88.1157 106.615C88.7549 106.615 89.2065 106.347 89.4705 105.812H90.7524C90.5787 106.34 90.2626 106.775 89.804 107.115C89.3524 107.449 88.7896 107.615 88.1157 107.615C87.5668 107.615 87.0735 107.494 86.6358 107.251C86.205 107 85.8645 106.653 85.6144 106.208C85.3712 105.757 85.2496 105.236 85.2496 104.645C85.2496 104.054 85.3678 103.537 85.604 103.092C85.8472 102.641 86.1841 102.293 86.6149 102.05C87.0526 101.807 87.5529 101.685 88.1157 101.685C88.6576 101.685 89.1405 101.803 89.5643 102.04C89.9881 102.276 90.3182 102.609 90.5544 103.04C90.7906 103.464 90.9087 103.954 90.9087 104.51ZM89.6685 104.134C89.6616 103.697 89.5052 103.346 89.1995 103.082C88.8938 102.818 88.5152 102.686 88.0636 102.686C87.6536 102.686 87.3028 102.818 87.0109 103.082C86.7191 103.339 86.5454 103.69 86.4898 104.134H89.6685ZM94.1623 107.615C93.7107 107.615 93.3042 107.535 92.9429 107.376C92.5886 107.209 92.3072 106.986 92.0988 106.709C91.8903 106.424 91.7792 106.108 91.7653 105.76H92.9951C93.0159 106.003 93.1305 106.208 93.339 106.375C93.5544 106.535 93.8219 106.615 94.1415 106.615C94.475 106.615 94.732 106.552 94.9127 106.427C95.1003 106.295 95.1941 106.128 95.1941 105.927C95.1941 105.712 95.0899 105.552 94.8814 105.448C94.6799 105.343 94.3568 105.229 93.9122 105.104C93.4814 104.985 93.1305 104.871 92.8596 104.76C92.5886 104.649 92.3524 104.478 92.1509 104.249C91.9563 104.02 91.8591 103.717 91.8591 103.342C91.8591 103.037 91.9494 102.759 92.13 102.509C92.3107 102.251 92.5678 102.05 92.9013 101.904C93.2417 101.758 93.6308 101.685 94.0685 101.685C94.7216 101.685 95.2462 101.852 95.6422 102.185C96.0452 102.512 96.2606 102.96 96.2884 103.53H95.1003C95.0794 103.273 94.9752 103.068 94.7876 102.915C94.6 102.762 94.3464 102.686 94.0268 102.686C93.7142 102.686 93.4745 102.745 93.3077 102.863C93.141 102.981 93.0576 103.137 93.0576 103.332C93.0576 103.485 93.1132 103.613 93.2243 103.717C93.3355 103.822 93.471 103.905 93.6308 103.968C93.7906 104.023 94.0268 104.096 94.3395 104.186C94.7564 104.298 95.0968 104.412 95.3608 104.53C95.6318 104.642 95.8645 104.808 96.0591 105.031C96.2536 105.253 96.3544 105.548 96.3613 105.917C96.3613 106.243 96.271 106.535 96.0904 106.792C95.9097 107.049 95.6526 107.251 95.3191 107.396C94.9926 107.542 94.607 107.615 94.1623 107.615Z" fill="#033F40"/>
<g clip-path="url(#clip0_371_7501)">
<g filter="url(#filter1_d_371_7501)">
<path d="M53.5497 33.3416C52.7793 32.6724 50.9499 31.5966 50.6505 34.3828C49.5753 41.5889 41.8333 46.625 41.8333 53.7298C41.8333 59.7187 46.6883 64.5737 52.6773 64.5737C58.6662 64.5737 63.5212 59.7187 63.5212 53.7298C63.5211 48.296 61.3401 40.1092 53.5497 33.3416ZM48.436 59.4813C48.268 59.706 48.0109 59.8249 47.7508 59.8249C47.5747 59.8249 47.3972 59.7706 47.2446 59.6577C47.1492 59.587 44.9019 57.8904 44.4175 54.6837C43.9332 51.4777 46.1043 48.4731 46.197 48.3468C46.476 47.9663 47.0108 47.8837 47.3917 48.1631C47.7718 48.4421 47.8543 48.9761 47.5761 49.3568C47.5479 49.3956 45.731 51.935 46.1078 54.4285C46.4833 56.9148 48.2471 58.2727 48.2649 58.2861C48.6404 58.5698 48.7177 59.1045 48.436 59.4813Z" fill="#00A3FF"/>
<path d="M48.2649 58.286C48.2471 58.2726 46.4833 56.9147 46.1079 54.4284C45.731 51.9349 47.548 49.3955 47.5761 49.3567C47.8543 48.976 47.7718 48.442 47.3917 48.1631C47.0109 47.8837 46.476 47.9662 46.197 48.3467C46.1043 48.4731 43.9332 51.4776 44.4175 54.6836C44.9018 57.8903 47.1492 59.5869 47.2446 59.6576C47.3973 59.7705 47.5748 59.8249 47.7508 59.8249C48.0109 59.8249 48.268 59.706 48.436 59.4812C48.7177 59.1045 48.6403 58.5697 48.2649 58.286Z" fill="#F7F1E6"/>
</g>
<g filter="url(#filter2_d_371_7501)">
<path d="M63.1705 76.2035L73.0222 60.7819C73.4223 60.1556 72.9432 59.3579 72.1669 59.3579H65.5887L72.8774 48.9054C73.3132 48.2805 72.837 47.45 72.0431 47.45H60.7088C60.2659 47.45 59.8759 47.7248 59.7511 48.125L55.1909 62.7497C55.0033 63.3514 55.4825 63.9541 56.1487 63.9541H65.0479L62.2555 75.86C62.1336 76.3799 62.8791 76.6597 63.1705 76.2035Z" fill="#FFF73D"/>
</g>
</g>
<defs>
<filter id="filter0_d_371_7501" x="0.164325" y="0.678918" width="116.95" height="134.689" filterUnits="userSpaceOnUse" color-interpolation-filters="sRGB">
<feFlood flood-opacity="0" result="BackgroundImageFix"/>
<feColorMatrix in="SourceAlpha" type="matrix" values="0 0 0 0 0 0 0 0 0 0 0 0 0 0 0 0 0 0 127 0" result="hardAlpha"/>
<feMorphology radius="0.65702" operator="erode" in="SourceAlpha" result="effect1_dropShadow_371_7501"/>
<feOffset dx="1.31404" dy="4.59914"/>
<feGaussianBlur stdDeviation="2.95659"/>
<feComposite in2="hardAlpha" operator="out"/>
<feColorMatrix type="matrix" values="0 0 0 0 0 0 0 0 0 0 0 0 0 0 0 0 0 0 0.06 0"/>
<feBlend mode="normal" in2="BackgroundImageFix" result="effect1_dropShadow_371_7501"/>
<feBlend mode="normal" in="SourceGraphic" in2="effect1_dropShadow_371_7501" result="shape"/>
</filter>
<filter id="filter1_d_371_7501" x="40.2666" y="32.5664" width="24.8213" height="35.1407" filterUnits="userSpaceOnUse" color-interpolation-filters="sRGB">
<feFlood flood-opacity="0" result="BackgroundImageFix"/>
<feColorMatrix in="SourceAlpha" type="matrix" values="0 0 0 0 0 0 0 0 0 0 0 0 0 0 0 0 0 0 127 0" result="hardAlpha"/>
<feOffset dy="1.56667"/>
<feGaussianBlur stdDeviation="0.783333"/>
<feComposite in2="hardAlpha" operator="out"/>
<feColorMatrix type="matrix" values="0 0 0 0 0 0 0 0 0 0 0 0 0 0 0 0 0 0 0.25 0"/>
<feBlend mode="normal" in2="BackgroundImageFix" result="effect1_dropShadow_371_7501"/>
<feBlend mode="normal" in="SourceGraphic" in2="effect1_dropShadow_371_7501" result="shape"/>
</filter>
<filter id="filter2_d_371_7501" x="53.5832" y="47.45" width="21.1499" height="32.1166" filterUnits="userSpaceOnUse" color-interpolation-filters="sRGB">
<feFlood flood-opacity="0" result="BackgroundImageFix"/>
<feColorMatrix in="SourceAlpha" type="matrix" values="0 0 0 0 0 0 0 0 0 0 0 0 0 0 0 0 0 0 127 0" result="hardAlpha"/>
<feOffset dy="1.56667"/>
<feGaussianBlur stdDeviation="0.783333"/>
<feComposite in2="hardAlpha" operator="out"/>
<feColorMatrix type="matrix" values="0 0 0 0 0 0 0 0 0 0 0 0 0 0 0 0 0 0 0.25 0"/>
<feBlend mode="normal" in2="BackgroundImageFix" result="effect1_dropShadow_371_7501"/>
<feBlend mode="normal" in="SourceGraphic" in2="effect1_dropShadow_371_7501" result="shape"/>
</filter>
<clipPath id="clip0_371_7501">
<rect width="47" height="47" fill="white" transform="translate(34 31)"/>
</clipPath>
</defs>
</svg>
