<svg width="118" height="136" viewBox="0 0 118 136" fill="none" xmlns="http://www.w3.org/2000/svg">
<g filter="url(#filter0_d_371_7461)">
<rect x="4.32617" y="1.14746" width="106.949" height="124.773" rx="23.1062" fill="white"/>
</g>
<path d="M34.8784 96.0653C34.8923 96.4004 34.8819 96.7634 34.8469 97.1544C34.7841 97.7478 34.5886 98.2888 34.2605 98.7775C33.9394 99.2592 33.4961 99.6432 32.9306 99.9294C32.3721 100.216 31.7263 100.359 30.9933 100.359C30.2393 100.359 29.5586 100.184 28.9512 99.8352C28.3439 99.4861 27.8691 99.0114 27.5271 98.411C27.185 97.8036 27.0139 97.1334 27.0139 96.4004C27.0139 95.6674 27.185 94.9972 27.5271 94.3898C27.8691 93.7824 28.3439 93.3042 28.9512 92.9551C29.5586 92.6061 30.2393 92.4315 30.9933 92.4315C31.8659 92.4315 32.592 92.627 33.1714 93.018C33.7509 93.4019 34.1977 93.8767 34.5118 94.4421L33.4961 94.9239C33.2587 94.5189 32.9376 94.1734 32.5326 93.8871C32.1277 93.6009 31.6146 93.4578 30.9933 93.4578C30.4627 93.4578 29.9775 93.5869 29.5377 93.8452C29.0979 94.0966 28.7488 94.4491 28.4905 94.9029C28.2392 95.3497 28.1135 95.8489 28.1135 96.4004C28.1135 96.9449 28.2426 97.4441 28.501 97.8979C28.7593 98.3447 29.1083 98.6972 29.5481 98.9556C29.988 99.2069 30.4697 99.3325 30.9933 99.3325C31.4889 99.3325 31.9357 99.2383 32.3337 99.0498C32.7316 98.8613 33.0493 98.596 33.2866 98.2539C33.524 97.9049 33.6601 97.5 33.695 97.0392H30.5325V96.0653H34.8784ZM40.1224 99.4163C39.906 99.7305 39.6163 99.9609 39.2533 100.107C38.8902 100.247 38.5028 100.317 38.0909 100.317C37.4137 100.317 36.8622 100.153 36.4363 99.8247C36.0174 99.4966 35.808 99.0393 35.808 98.4529C35.808 98.0619 35.9197 97.7199 36.1431 97.4266C36.3665 97.1334 36.6667 96.9065 37.0437 96.746C37.4277 96.5854 37.8535 96.5051 38.3213 96.5051C38.8937 96.5051 39.4836 96.5889 40.091 96.7564C40.105 96.1979 39.9828 95.7826 39.7245 95.5103C39.4662 95.231 39.0543 95.0914 38.4888 95.0914C38.1607 95.0914 37.8186 95.1368 37.4626 95.2275C37.1065 95.3113 36.7889 95.4195 36.5096 95.5522L36.2269 94.7354C37.0088 94.3514 37.8046 94.1594 38.6145 94.1594C40.3039 94.1594 41.1487 95.039 41.1487 96.7983V100.223H40.1224V99.4163ZM38.3213 99.4896C38.6075 99.4896 38.8867 99.4408 39.159 99.343C39.4313 99.2453 39.6547 99.0917 39.8292 98.8822C40.0037 98.6728 40.091 98.411 40.091 98.0969V97.5209C39.5604 97.3533 39.0333 97.2696 38.5098 97.2696C38.042 97.2696 37.6545 97.3708 37.3474 97.5733C37.0402 97.7757 36.8866 98.048 36.8866 98.3901C36.8866 98.7461 37.0192 99.0184 37.2845 99.2069C37.5568 99.3954 37.9024 99.4896 38.3213 99.4896ZM44.8964 100.38C43.8841 100.38 43.0533 100.132 42.4041 99.6362L42.823 98.8927C43.0743 99.0742 43.385 99.2208 43.755 99.3325C44.132 99.4442 44.4985 99.5001 44.8545 99.5001C45.2594 99.5001 45.5666 99.4408 45.776 99.3221C45.9925 99.1964 46.1007 98.9939 46.1007 98.7147C46.1007 98.5053 46.0344 98.3412 45.9017 98.2225C45.7691 98.0969 45.6015 98.0026 45.3991 97.9398C45.2036 97.87 44.9278 97.7967 44.5718 97.7199C44.111 97.6221 43.7375 97.5209 43.4513 97.4162C43.165 97.3045 42.9207 97.1334 42.7182 96.9031C42.5158 96.6657 42.4146 96.3445 42.4146 95.9396C42.4146 95.5487 42.5193 95.2206 42.7287 94.9553C42.9451 94.69 43.2244 94.498 43.5665 94.3793C43.9086 94.2537 44.2716 94.1908 44.6556 94.1908C45.0674 94.1908 45.4549 94.2467 45.8179 94.3584C46.181 94.4631 46.4916 94.6062 46.7499 94.7877L46.3729 95.5522C46.1216 95.3986 45.8424 95.2799 45.5352 95.1961C45.235 95.1124 44.9348 95.0705 44.6346 95.0705C44.3414 95.0705 44.0691 95.1333 43.8178 95.259C43.5735 95.3776 43.4513 95.5801 43.4513 95.8663C43.4513 96.0548 43.5141 96.2084 43.6398 96.3271C43.7654 96.4388 43.919 96.5226 44.1005 96.5784C44.289 96.6343 44.5578 96.7006 44.9069 96.7774C45.3746 96.8751 45.7551 96.9798 46.0483 97.0915C46.3485 97.2032 46.6033 97.3813 46.8128 97.6256C47.0222 97.87 47.1269 98.2086 47.1269 98.6414C47.1269 99.1999 46.921 99.6292 46.5091 99.9294C46.1042 100.23 45.5666 100.38 44.8964 100.38ZM51.8976 98.5053C52.2396 98.7636 52.6271 98.966 53.0599 99.1126C53.4998 99.2592 53.971 99.3325 54.4736 99.3325C55.0182 99.3325 55.444 99.2418 55.7512 99.0603C56.0584 98.8718 56.212 98.5786 56.212 98.1806C56.212 97.9223 56.1212 97.7129 55.9397 97.5523C55.7652 97.3917 55.5453 97.2696 55.28 97.1858C55.0147 97.095 54.6447 96.9938 54.17 96.8821C53.5696 96.7425 53.0809 96.6029 52.7039 96.4632C52.3269 96.3236 52.0023 96.1072 51.73 95.814C51.4647 95.5208 51.3321 95.1228 51.3321 94.6202C51.3321 94.1245 51.4682 93.7126 51.7405 93.3845C52.0127 93.0564 52.3618 92.8155 52.7877 92.6619C53.2205 92.5013 53.6813 92.4211 54.17 92.4211C54.7075 92.4211 55.2137 92.5013 55.6884 92.6619C56.1631 92.8225 56.5645 93.0389 56.8927 93.3112L56.3167 94.128C55.6814 93.6812 54.9414 93.4578 54.0967 93.4578C53.6429 93.4578 53.2519 93.552 52.9238 93.7405C52.6027 93.929 52.4421 94.2153 52.4421 94.5992C52.4421 94.8366 52.5259 95.0321 52.6934 95.1857C52.861 95.3323 53.0739 95.4475 53.3322 95.5312C53.5905 95.615 53.9431 95.7058 54.3899 95.8035C55.0112 95.9501 55.5139 96.0967 55.8978 96.2433C56.2888 96.3829 56.6239 96.6098 56.9031 96.924C57.1824 97.2312 57.322 97.65 57.322 98.1806C57.322 98.8927 57.0637 99.4373 56.5471 99.8143C56.0305 100.184 55.3463 100.369 54.4946 100.369C53.8663 100.369 53.2659 100.275 52.6934 100.087C52.1279 99.891 51.6567 99.6362 51.2797 99.3221L51.8976 98.5053ZM59.8725 98.6414C59.8725 98.8997 59.9388 99.0952 60.0715 99.2278C60.2041 99.3535 60.3821 99.4163 60.6055 99.4163C60.8499 99.4163 61.0663 99.3674 61.2548 99.2697L61.4747 100.076C61.349 100.146 61.1885 100.205 60.993 100.254C60.7975 100.31 60.5811 100.338 60.3437 100.338C59.869 100.338 59.4955 100.216 59.2232 99.9713C58.951 99.72 58.8148 99.3674 58.8148 98.9137V95.238H58.1551V94.9343L59.8201 93.1122H59.8725V94.2851H61.2757V95.238H59.8725V98.6414ZM66.5273 99.4163C66.3108 99.7305 66.0211 99.9609 65.6581 100.107C65.2951 100.247 64.9076 100.317 64.4957 100.317C63.8185 100.317 63.267 100.153 62.8411 99.8247C62.4223 99.4966 62.2128 99.0393 62.2128 98.4529C62.2128 98.0619 62.3245 97.7199 62.5479 97.4266C62.7713 97.1334 63.0715 96.9065 63.4485 96.746C63.8325 96.5854 64.2583 96.5051 64.7261 96.5051C65.2986 96.5051 65.8885 96.5889 66.4958 96.7564C66.5098 96.1979 66.3876 95.7826 66.1293 95.5103C65.871 95.231 65.4591 95.0914 64.8936 95.0914C64.5655 95.0914 64.2234 95.1368 63.8674 95.2275C63.5113 95.3113 63.1937 95.4195 62.9144 95.5522L62.6317 94.7354C63.4136 94.3514 64.2095 94.1594 65.0193 94.1594C66.7088 94.1594 67.5535 95.039 67.5535 96.7983V100.223H66.5273V99.4163ZM64.7261 99.4896C65.0123 99.4896 65.2916 99.4408 65.5638 99.343C65.8361 99.2453 66.0595 99.0917 66.234 98.8822C66.4086 98.6728 66.4958 98.411 66.4958 98.0969V97.5209C65.9653 97.3533 65.4382 97.2696 64.9146 97.2696C64.4468 97.2696 64.0594 97.3708 63.7522 97.5733C63.445 97.7757 63.2914 98.048 63.2914 98.3901C63.2914 98.7461 63.4241 99.0184 63.6894 99.2069C63.9616 99.3954 64.3072 99.4896 64.7261 99.4896ZM70.6206 98.6414C70.6206 98.8997 70.6869 99.0952 70.8195 99.2278C70.9522 99.3535 71.1302 99.4163 71.3536 99.4163C71.5979 99.4163 71.8144 99.3674 72.0029 99.2697L72.2228 100.076C72.0971 100.146 71.9365 100.205 71.7411 100.254C71.5456 100.31 71.3292 100.338 71.0918 100.338C70.6171 100.338 70.2436 100.216 69.9713 99.9713C69.699 99.72 69.5629 99.3674 69.5629 98.9137V95.238H68.9032V94.9343L70.5682 93.1122H70.6206V94.2851H72.0238V95.238H70.6206V98.6414ZM74.7202 92.8295C74.7202 93.011 74.6538 93.1646 74.5212 93.2902C74.3955 93.4159 74.2419 93.4787 74.0604 93.4787C73.8719 93.4787 73.7114 93.4159 73.5787 93.2902C73.4461 93.1646 73.3797 93.011 73.3797 92.8295C73.3797 92.6619 73.4461 92.5153 73.5787 92.3896C73.7114 92.264 73.8719 92.2012 74.0604 92.2012C74.2419 92.2012 74.3955 92.264 74.5212 92.3896C74.6538 92.5083 74.7202 92.6549 74.7202 92.8295ZM73.5159 94.2851H74.5736V100.223H73.5159V94.2851ZM79.1597 100.338C78.5593 100.338 78.0252 100.202 77.5575 99.9294C77.0897 99.6502 76.7232 99.2767 76.4579 98.8089C76.1996 98.3342 76.0705 97.8106 76.0705 97.2382C76.0705 96.6727 76.1996 96.1561 76.4579 95.6883C76.7232 95.2206 77.0897 94.8506 77.5575 94.5783C78.0252 94.306 78.5593 94.1699 79.1597 94.1699C79.7601 94.1699 80.2941 94.306 80.7619 94.5783C81.2296 94.8506 81.5927 95.2206 81.851 95.6883C82.1163 96.1561 82.2489 96.6727 82.2489 97.2382C82.2489 97.8106 82.1163 98.3342 81.851 98.8089C81.5927 99.2767 81.2296 99.6502 80.7619 99.9294C80.2941 100.202 79.7601 100.338 79.1597 100.338ZM79.1597 95.1333C78.7548 95.1333 78.3987 95.2241 78.0915 95.4056C77.7914 95.5871 77.5575 95.8384 77.3899 96.1595C77.2294 96.4807 77.1491 96.8402 77.1491 97.2382C77.1491 97.6361 77.2294 97.9991 77.3899 98.3272C77.5575 98.6484 77.7914 98.9032 78.0915 99.0917C78.3987 99.2802 78.7548 99.3744 79.1597 99.3744C79.5646 99.3744 79.9172 99.2802 80.2174 99.0917C80.5245 98.9032 80.7584 98.6484 80.919 98.3272C81.0865 97.9991 81.1703 97.6361 81.1703 97.2382C81.1703 96.8402 81.0865 96.4807 80.919 96.1595C80.7584 95.8384 80.5245 95.5871 80.2174 95.4056C79.9172 95.2241 79.5646 95.1333 79.1597 95.1333ZM86.8947 94.1803C87.3415 94.1803 87.7324 94.2816 88.0675 94.484C88.4096 94.6865 88.6749 94.9762 88.8634 95.3532C89.0519 95.7232 89.1462 96.1595 89.1462 96.6622V100.223H88.099V96.8926C88.099 96.3271 87.9558 95.8943 87.6696 95.5941C87.3904 95.2939 87.0099 95.1438 86.5282 95.1438C86.1791 95.1438 85.8615 95.2206 85.5752 95.3741C85.296 95.5277 85.0761 95.7407 84.9155 96.0129C84.7549 96.2782 84.6746 96.5749 84.6746 96.9031V100.223H83.617V94.2851H84.6746V95.2799C84.9399 94.9657 85.2576 94.7039 85.6276 94.4945C86.0046 94.2851 86.4269 94.1803 86.8947 94.1803Z" fill="#033F40"/>
<g filter="url(#filter1_d_371_7461)">
<g filter="url(#filter2_d_371_7461)">
<path d="M44.0466 67.6019V46.1462C44.0466 45.7668 44.1973 45.403 44.4655 45.1348C44.7338 44.8665 45.0976 44.7158 45.477 44.7158H58.3504C58.7298 44.7158 59.0936 44.8665 59.3618 45.1348C59.6301 45.403 59.7808 45.7668 59.7808 46.1462V57.5893H62.6415C63.4003 57.5893 64.1279 57.8907 64.6644 58.4271C65.2009 58.9636 65.5023 59.6913 65.5023 60.45V66.1715C65.5023 66.5509 65.653 66.9147 65.9213 67.183C66.1895 67.4512 66.5533 67.6019 66.9327 67.6019C67.3121 67.6019 67.6759 67.4512 67.9441 67.183C68.2124 66.9147 68.3631 66.5509 68.3631 66.1715V56.1589H65.5023C65.1229 56.1589 64.7591 56.0082 64.4909 55.7399C64.2226 55.4717 64.0719 55.1078 64.0719 54.7285V49.5991L61.7018 47.229L63.7243 45.2064L70.8047 52.2868C70.9378 52.4195 71.0433 52.5771 71.1152 52.7507C71.1871 52.9242 71.224 53.1102 71.2238 53.2981V66.1715C71.2238 67.3096 70.7717 68.4011 69.967 69.2058C69.1622 70.0106 68.0708 70.4627 66.9327 70.4627C65.7946 70.4627 64.7031 70.0106 63.8984 69.2058C63.0936 68.4011 62.6415 67.3096 62.6415 66.1715V60.45H59.7808V67.6019H61.2112V70.4627H42.6162V67.6019H44.0466ZM46.9074 47.5766V56.1589H56.92V47.5766H46.9074Z" fill="#428EFF"/>
</g>
</g>
<defs>
<filter id="filter0_d_371_7461" x="0.365116" y="0.487285" width="117.511" height="135.336" filterUnits="userSpaceOnUse" color-interpolation-filters="sRGB">
<feFlood flood-opacity="0" result="BackgroundImageFix"/>
<feColorMatrix in="SourceAlpha" type="matrix" values="0 0 0 0 0 0 0 0 0 0 0 0 0 0 0 0 0 0 127 0" result="hardAlpha"/>
<feMorphology radius="0.660176" operator="erode" in="SourceAlpha" result="effect1_dropShadow_371_7461"/>
<feOffset dx="1.32035" dy="4.62123"/>
<feGaussianBlur stdDeviation="2.97079"/>
<feComposite in2="hardAlpha" operator="out"/>
<feColorMatrix type="matrix" values="0 0 0 0 0 0 0 0 0 0 0 0 0 0 0 0 0 0 0.06 0"/>
<feBlend mode="normal" in2="BackgroundImageFix" result="effect1_dropShadow_371_7461"/>
<feBlend mode="normal" in="SourceGraphic" in2="effect1_dropShadow_371_7461" result="shape"/>
</filter>
<filter id="filter1_d_371_7461" x="25.4131" y="29.5332" width="64.115" height="64.115" filterUnits="userSpaceOnUse" color-interpolation-filters="sRGB">
<feFlood flood-opacity="0" result="BackgroundImageFix"/>
<feColorMatrix in="SourceAlpha" type="matrix" values="0 0 0 0 0 0 0 0 0 0 0 0 0 0 0 0 0 0 127 0" result="hardAlpha"/>
<feOffset dy="4"/>
<feGaussianBlur stdDeviation="2"/>
<feComposite in2="hardAlpha" operator="out"/>
<feColorMatrix type="matrix" values="0 0 0 0 0 0 0 0 0 0 0 0 0 0 0 0 0 0 0.25 0"/>
<feBlend mode="normal" in2="BackgroundImageFix" result="effect1_dropShadow_371_7461"/>
<feBlend mode="normal" in="SourceGraphic" in2="effect1_dropShadow_371_7461" result="shape"/>
</filter>
<filter id="filter2_d_371_7461" x="39.9755" y="44.7158" width="33.8891" height="31.0282" filterUnits="userSpaceOnUse" color-interpolation-filters="sRGB">
<feFlood flood-opacity="0" result="BackgroundImageFix"/>
<feColorMatrix in="SourceAlpha" type="matrix" values="0 0 0 0 0 0 0 0 0 0 0 0 0 0 0 0 0 0 127 0" result="hardAlpha"/>
<feOffset dy="2.6407"/>
<feGaussianBlur stdDeviation="1.32035"/>
<feComposite in2="hardAlpha" operator="out"/>
<feColorMatrix type="matrix" values="0 0 0 0 0.816903 0 0 0 0 0.816903 0 0 0 0 0.816903 0 0 0 1 0"/>
<feBlend mode="normal" in2="BackgroundImageFix" result="effect1_dropShadow_371_7461"/>
<feBlend mode="normal" in="SourceGraphic" in2="effect1_dropShadow_371_7461" result="shape"/>
</filter>
</defs>
</svg>
