<svg width="118" height="136" viewBox="0 0 118 136" fill="none" xmlns="http://www.w3.org/2000/svg">
<g filter="url(#filter0_d_371_7441)">
<rect x="4.47949" y="1.03125" width="106.464" height="124.207" rx="23.0014" fill="white"/>
</g>
<path d="M33.9402 101.954L32.314 99.3167H32.1576H30.6252V101.954H29.5307V94.3234H32.1576C32.7831 94.3234 33.3182 94.4311 33.763 94.6466C34.2078 94.855 34.5448 95.1469 34.7742 95.5222C35.0105 95.8975 35.1286 96.3318 35.1286 96.8253C35.1286 97.3743 34.9861 97.8503 34.7012 98.2534C34.4232 98.6495 34.0167 98.938 33.4815 99.1186L35.212 101.954H33.9402ZM30.6252 95.2824V98.3577H32.1681C32.7796 98.3577 33.2418 98.2221 33.5545 97.9511C33.8673 97.6731 34.0236 97.2978 34.0236 96.8253C34.0236 96.3527 33.8673 95.9774 33.5545 95.6994C33.2418 95.4214 32.7796 95.2824 32.1681 95.2824H30.6252ZM39.5092 102.069C38.8489 102.069 38.2791 101.944 37.7996 101.693C37.32 101.443 36.9517 101.089 36.6946 100.63C36.4444 100.172 36.3193 99.6329 36.3193 99.0144C36.3193 98.3542 36.4583 97.7913 36.7363 97.3256C37.0212 96.86 37.3861 96.5125 37.8308 96.2832C38.2756 96.0469 38.7482 95.9288 39.2486 95.9288C39.8184 95.9288 40.3223 96.0504 40.7601 96.2936C41.2049 96.5299 41.5489 96.8843 41.7921 97.3569C42.0423 97.8225 42.1674 98.3924 42.1674 99.0665C42.1674 99.1916 42.1605 99.3515 42.1466 99.5461H37.4034C37.459 99.9908 37.6675 100.37 38.0289 100.682C38.3972 100.995 38.8976 101.151 39.53 101.151C39.8705 101.151 40.1902 101.096 40.4891 100.985C40.7879 100.866 41.0346 100.727 41.2292 100.568L41.8025 101.162C41.5663 101.412 41.2466 101.627 40.8435 101.808C40.4474 101.982 40.0026 102.069 39.5092 102.069ZM39.2486 96.9087C38.8802 96.9087 38.5536 96.9921 38.2687 97.1589C37.9907 97.3187 37.7752 97.5376 37.6223 97.8156C37.4764 98.0866 37.4034 98.3785 37.4034 98.6912H41.0624C41.0624 98.3716 40.9894 98.0762 40.8435 97.8052C40.7045 97.5341 40.496 97.3187 40.218 97.1589C39.947 96.9921 39.6238 96.9087 39.2486 96.9087ZM45.5795 102.11C44.5718 102.11 43.7448 101.864 43.0985 101.37L43.5155 100.63C43.7657 100.811 44.0749 100.957 44.4433 101.068C44.8186 101.179 45.1834 101.235 45.5378 101.235C45.9409 101.235 46.2467 101.176 46.4552 101.058C46.6706 100.933 46.7783 100.731 46.7783 100.453C46.7783 100.244 46.7123 100.081 46.5803 99.963C46.4482 99.8379 46.2815 99.7441 46.0799 99.6816C45.8853 99.6121 45.6108 99.5391 45.2564 99.4627C44.7977 99.3654 44.4259 99.2646 44.141 99.1603C43.856 99.0492 43.6128 98.8789 43.4113 98.6495C43.2097 98.4133 43.1089 98.0936 43.1089 97.6905C43.1089 97.3013 43.2132 96.9747 43.4217 96.7106C43.6371 96.4465 43.9151 96.2554 44.2556 96.1373C44.5962 96.0122 44.9575 95.9496 45.3398 95.9496C45.7498 95.9496 46.1355 96.0052 46.4969 96.1164C46.8583 96.2207 47.1675 96.3631 47.4247 96.5438L47.0494 97.3048C46.7992 97.1519 46.5212 97.0338 46.2154 96.9504C45.9166 96.867 45.6178 96.8253 45.3189 96.8253C45.027 96.8253 44.756 96.8878 44.5058 97.0129C44.2626 97.1311 44.141 97.3326 44.141 97.6175C44.141 97.8052 44.2035 97.9581 44.3286 98.0762C44.4537 98.1874 44.6066 98.2708 44.7873 98.3264C44.9749 98.382 45.2425 98.448 45.59 98.5245C46.0556 98.6218 46.4343 98.726 46.7262 98.8372C47.0251 98.9484 47.2787 99.1256 47.4872 99.3688C47.6957 99.6121 47.7999 99.9491 47.7999 100.38C47.7999 100.936 47.5949 101.363 47.1849 101.662C46.7818 101.961 46.2467 102.11 45.5795 102.11ZM50.5621 100.38C50.5621 100.637 50.6281 100.832 50.7602 100.964C50.8922 101.089 51.0694 101.151 51.2918 101.151C51.5351 101.151 51.7505 101.103 51.9381 101.005L52.157 101.808C52.0319 101.878 51.8721 101.937 51.6775 101.985C51.4829 102.041 51.2675 102.069 51.0312 102.069C50.5586 102.069 50.1868 101.947 49.9158 101.704C49.6447 101.454 49.5092 101.103 49.5092 100.651V96.9921H48.8525V96.6898L50.51 94.8759H50.5621V96.0434H51.959V96.9921H50.5621V100.38ZM57.1867 101.151C56.9712 101.464 56.6828 101.693 56.3214 101.839C55.9601 101.978 55.5744 102.048 55.1643 102.048C54.4902 102.048 53.9412 101.885 53.5173 101.558C53.1003 101.231 52.8918 100.776 52.8918 100.192C52.8918 99.8032 53.003 99.4627 53.2254 99.1708C53.4478 98.8789 53.7466 98.653 54.1219 98.4932C54.5041 98.3333 54.928 98.2534 55.3937 98.2534C55.9635 98.2534 56.5508 98.3368 57.1554 98.5036C57.1693 97.9476 57.0477 97.5341 56.7906 97.2631C56.5334 96.9851 56.1234 96.8461 55.5605 96.8461C55.2338 96.8461 54.8933 96.8913 54.5389 96.9816C54.1844 97.065 53.8682 97.1728 53.5902 97.3048L53.3088 96.4917C54.0871 96.1095 54.8794 95.9183 55.6856 95.9183C57.3674 95.9183 58.2083 96.794 58.2083 98.5453V101.954H57.1867V101.151ZM55.3937 101.224C55.6786 101.224 55.9566 101.176 56.2276 101.078C56.4987 100.981 56.7211 100.828 56.8948 100.62C57.0685 100.411 57.1554 100.151 57.1554 99.8379V99.2646C56.6272 99.0978 56.1025 99.0144 55.5813 99.0144C55.1157 99.0144 54.73 99.1152 54.4242 99.3167C54.1184 99.5183 53.9655 99.7893 53.9655 100.13C53.9655 100.484 54.0976 100.755 54.3617 100.943C54.6327 101.131 54.9767 101.224 55.3937 101.224ZM65.3895 96.0434V101.954H64.3366V100.943C64.0725 101.256 63.7529 101.52 63.3776 101.735C63.0023 101.951 62.5819 102.058 62.1162 102.058C61.6784 102.058 61.2892 101.958 60.9487 101.756C60.6151 101.554 60.3545 101.266 60.1669 100.891C59.9792 100.516 59.8854 100.078 59.8854 99.5773V96.0434H60.9278V99.3584C60.9278 99.9283 61.0668 100.363 61.3448 100.661C61.6228 100.953 62.005 101.099 62.4915 101.099C62.839 101.099 63.1517 101.023 63.4297 100.87C63.7146 100.717 63.937 100.509 64.0969 100.244C64.2567 99.9735 64.3366 99.6746 64.3366 99.348V96.0434H65.3895ZM68.2173 97.4195C68.7177 96.4604 69.4787 95.9809 70.5003 95.9809V97.1172H70.3543C69.986 97.1172 69.6385 97.1971 69.3119 97.3569C68.9922 97.5168 68.7281 97.7843 68.5196 98.1596C68.3181 98.5279 68.2173 99.0075 68.2173 99.5982V101.954H67.1644V96.0434H68.2173V97.4195ZM75.4702 101.151C75.2548 101.464 74.9663 101.693 74.605 101.839C74.2436 101.978 73.8579 102.048 73.4479 102.048C72.7737 102.048 72.2247 101.885 71.8008 101.558C71.3838 101.231 71.1753 100.776 71.1753 100.192C71.1753 99.8032 71.2865 99.4627 71.5089 99.1708C71.7313 98.8789 72.0301 98.653 72.4054 98.4932C72.7876 98.3333 73.2116 98.2534 73.6772 98.2534C74.2471 98.2534 74.8343 98.3368 75.4389 98.5036C75.4528 97.9476 75.3312 97.5341 75.0741 97.2631C74.8169 96.9851 74.4069 96.8461 73.844 96.8461C73.5173 96.8461 73.1768 96.8913 72.8224 96.9816C72.468 97.065 72.1517 97.1728 71.8738 97.3048L71.5923 96.4917C72.3707 96.1095 73.1629 95.9183 73.9691 95.9183C75.6509 95.9183 76.4918 96.794 76.4918 98.5453V101.954H75.4702V101.151ZM73.6772 101.224C73.9621 101.224 74.2401 101.176 74.5111 101.078C74.7822 100.981 75.0046 100.828 75.1783 100.62C75.3521 100.411 75.4389 100.151 75.4389 99.8379V99.2646C74.9108 99.0978 74.3861 99.0144 73.8648 99.0144C73.3992 99.0144 73.0135 99.1152 72.7077 99.3167C72.4019 99.5183 72.249 99.7893 72.249 100.13C72.249 100.484 72.3811 100.755 72.6452 100.943C72.9162 101.131 73.2602 101.224 73.6772 101.224ZM81.4422 95.9392C81.887 95.9392 82.2761 96.04 82.6097 96.2415C82.9503 96.443 83.2143 96.7314 83.402 97.1067C83.5896 97.4751 83.6834 97.9094 83.6834 98.4098V101.954H82.641V98.6391C82.641 98.0762 82.4985 97.6453 82.2136 97.3465C81.9356 97.0477 81.5569 96.8982 81.0773 96.8982C80.7299 96.8982 80.4136 96.9747 80.1287 97.1276C79.8507 97.2805 79.6318 97.4924 79.472 97.7635C79.3121 98.0276 79.2322 98.3229 79.2322 98.6495V101.954H78.1793V96.0434H79.2322V97.0338C79.4963 96.721 79.8125 96.4604 80.1808 96.2519C80.5561 96.0434 80.9766 95.9392 81.4422 95.9392ZM86.7423 100.38C86.7423 100.637 86.8083 100.832 86.9404 100.964C87.0724 101.089 87.2496 101.151 87.472 101.151C87.7152 101.151 87.9307 101.103 88.1183 101.005L88.3372 101.808C88.2121 101.878 88.0523 101.937 87.8577 101.985C87.6631 102.041 87.4477 102.069 87.2114 102.069C86.7388 102.069 86.367 101.947 86.096 101.704C85.8249 101.454 85.6894 101.103 85.6894 100.651V96.9921H85.0327V96.6898L86.6902 94.8759H86.7423V96.0434H88.1392V96.9921H86.7423V100.38Z" fill="#033F40"/>
<g filter="url(#filter1_d_371_7441)">
<path d="M46.2364 43.8558L55.8007 53.4201L51.7739 57.4483L46.235 51.9094C45.1672 50.8413 44.5674 49.3928 44.5674 47.8826C44.5674 46.3723 45.1672 44.9239 46.235 43.8558H46.2364ZM60.5409 55.7282L59.3248 56.9443L69.3932 67.0126L67.3798 69.026L57.3115 58.9591L47.2431 69.026L45.2297 67.0126L58.5275 53.7149C57.6902 51.6402 58.5559 48.6529 60.8342 46.3718C63.615 43.5924 67.4467 42.916 69.3932 44.8625C71.3397 46.809 70.6633 50.6407 67.8839 53.4201C65.6028 55.7012 62.6155 56.5669 60.5409 55.7282V55.7282Z" fill="#26D0D2"/>
</g>
<defs>
<filter id="filter0_d_371_7441" x="0.536399" y="0.374069" width="116.979" height="134.722" filterUnits="userSpaceOnUse" color-interpolation-filters="sRGB">
<feFlood flood-opacity="0" result="BackgroundImageFix"/>
<feColorMatrix in="SourceAlpha" type="matrix" values="0 0 0 0 0 0 0 0 0 0 0 0 0 0 0 0 0 0 127 0" result="hardAlpha"/>
<feMorphology radius="0.657182" operator="erode" in="SourceAlpha" result="effect1_dropShadow_371_7441"/>
<feOffset dx="1.31436" dy="4.60028"/>
<feGaussianBlur stdDeviation="2.95732"/>
<feComposite in2="hardAlpha" operator="out"/>
<feColorMatrix type="matrix" values="0 0 0 0 0 0 0 0 0 0 0 0 0 0 0 0 0 0 0.06 0"/>
<feBlend mode="normal" in2="BackgroundImageFix" result="effect1_dropShadow_371_7441"/>
<feBlend mode="normal" in="SourceGraphic" in2="effect1_dropShadow_371_7441" result="shape"/>
</filter>
<filter id="filter1_d_371_7441" x="41.9387" y="43.751" width="31.1947" height="30.5325" filterUnits="userSpaceOnUse" color-interpolation-filters="sRGB">
<feFlood flood-opacity="0" result="BackgroundImageFix"/>
<feColorMatrix in="SourceAlpha" type="matrix" values="0 0 0 0 0 0 0 0 0 0 0 0 0 0 0 0 0 0 127 0" result="hardAlpha"/>
<feOffset dy="2.62873"/>
<feGaussianBlur stdDeviation="1.31436"/>
<feComposite in2="hardAlpha" operator="out"/>
<feColorMatrix type="matrix" values="0 0 0 0 0.816903 0 0 0 0 0.816903 0 0 0 0 0.816903 0 0 0 1 0"/>
<feBlend mode="normal" in2="BackgroundImageFix" result="effect1_dropShadow_371_7441"/>
<feBlend mode="normal" in="SourceGraphic" in2="effect1_dropShadow_371_7441" result="shape"/>
</filter>
</defs>
</svg>
