<svg width="118" height="136" viewBox="0 0 118 136" fill="none" xmlns="http://www.w3.org/2000/svg">
<g filter="url(#filter0_d_438_7587)">
<rect x="4" y="1" width="106.437" height="124.177" rx="22.9957" fill="white"/>
</g>
<path d="M28.8293 103L27.1618 100.103H26.2551V103H25.067V95.7568H27.5682C28.1241 95.7568 28.5931 95.8541 28.9752 96.0486C29.3643 96.2431 29.6526 96.5037 29.8402 96.8302C30.0347 97.1568 30.132 97.5216 30.132 97.9245C30.132 98.397 29.9931 98.8278 29.7151 99.2169C29.4442 99.599 29.0238 99.8595 28.4541 99.9985L30.2467 103H28.8293ZM26.2551 99.1543H27.5682C28.0129 99.1543 28.3464 99.0432 28.5687 98.8208C28.798 98.5985 28.9127 98.2997 28.9127 97.9245C28.9127 97.5494 28.8015 97.2575 28.5792 97.0491C28.3568 96.8337 28.0199 96.726 27.5682 96.726H26.2551V99.1543ZM36.915 99.9881C36.915 100.203 36.9011 100.398 36.8733 100.572H32.4857C32.5204 101.03 32.6906 101.399 32.9963 101.676C33.302 101.954 33.6772 102.093 34.1219 102.093C34.7611 102.093 35.2127 101.826 35.4767 101.291H36.7586C36.5849 101.819 36.2688 102.253 35.8102 102.594C35.3586 102.927 34.7958 103.094 34.1219 103.094C33.573 103.094 33.0797 102.972 32.642 102.729C32.2112 102.479 31.8708 102.132 31.6206 101.687C31.3775 101.235 31.2559 100.714 31.2559 100.124C31.2559 99.533 31.374 99.0154 31.6102 98.5707C31.8534 98.1191 32.1904 97.7717 32.6211 97.5285C33.0589 97.2853 33.5591 97.1637 34.1219 97.1637C34.6638 97.1637 35.1467 97.2819 35.5705 97.5181C35.9944 97.7543 36.3244 98.0878 36.5606 98.5186C36.7968 98.9424 36.915 99.4322 36.915 99.9881ZM35.6747 99.6129C35.6678 99.1752 35.5115 98.8243 35.2058 98.5603C34.9001 98.2963 34.5214 98.1642 34.0698 98.1642C33.6599 98.1642 33.309 98.2963 33.0172 98.5603C32.7254 98.8174 32.5517 99.1682 32.4961 99.6129H35.6747ZM45.0356 97.1637C45.4872 97.1637 45.8901 97.2575 46.2445 97.4451C46.6058 97.6327 46.8872 97.9106 47.0887 98.2789C47.2971 98.6471 47.4013 99.0918 47.4013 99.6129V103H46.2236V99.7901C46.2236 99.2759 46.0951 98.8834 45.838 98.6124C45.581 98.3345 45.2301 98.1955 44.7854 98.1955C44.3408 98.1955 43.9864 98.3345 43.7224 98.6124C43.4653 98.8834 43.3368 99.2759 43.3368 99.7901V103H42.1591V99.7901C42.1591 99.2759 42.0306 98.8834 41.7735 98.6124C41.5164 98.3345 41.1656 98.1955 40.7209 98.1955C40.2762 98.1955 39.9219 98.3345 39.6579 98.6124C39.4008 98.8834 39.2723 99.2759 39.2723 99.7901V103H38.0842V97.2575H39.2723V97.9141C39.4668 97.6779 39.7134 97.4938 40.0122 97.3618C40.311 97.2298 40.6306 97.1637 40.971 97.1637C41.4296 97.1637 41.8395 97.261 42.2008 97.4556C42.5621 97.6501 42.84 97.9315 43.0346 98.2997C43.2082 97.9523 43.4792 97.6779 43.8475 97.4764C44.2157 97.268 44.6117 97.1637 45.0356 97.1637ZM49.5176 96.4967C49.3022 96.4967 49.1216 96.4238 48.9757 96.2779C48.8298 96.132 48.7568 95.9513 48.7568 95.7359C48.7568 95.5206 48.8298 95.3399 48.9757 95.194C49.1216 95.0481 49.3022 94.9752 49.5176 94.9752C49.726 94.9752 49.9032 95.0481 50.0491 95.194C50.195 95.3399 50.268 95.5206 50.268 95.7359C50.268 95.9513 50.195 96.132 50.0491 96.2779C49.9032 96.4238 49.726 96.4967 49.5176 96.4967ZM50.1012 97.2575V103H48.9131V97.2575H50.1012ZM53.0472 98.2268V101.405C53.0472 101.621 53.0958 101.777 53.1931 101.874C53.2973 101.965 53.471 102.01 53.7142 102.01H54.4437V103H53.5058C52.9708 103 52.5609 102.875 52.276 102.625C51.9911 102.375 51.8487 101.968 51.8487 101.405V98.2268H51.1713V97.2575H51.8487V95.8297H53.0472V97.2575H54.4437V98.2268H53.0472ZM56.9249 98.2268V101.405C56.9249 101.621 56.9735 101.777 57.0708 101.874C57.175 101.965 57.3487 102.01 57.5919 102.01H58.3214V103H57.3834C56.8485 103 56.4385 102.875 56.1537 102.625C55.8688 102.375 55.7264 101.968 55.7264 101.405V98.2268H55.0489V97.2575H55.7264V95.8297H56.9249V97.2575H58.3214V98.2268H56.9249ZM59.0204 100.103C59.0204 99.526 59.1385 99.0154 59.3748 98.5707C59.6179 98.126 59.9445 97.7821 60.3544 97.5389C60.7713 97.2888 61.2299 97.1637 61.7301 97.1637C62.1817 97.1637 62.5743 97.2541 62.9078 97.4347C63.2482 97.6084 63.5192 97.8273 63.7207 98.0913V97.2575H64.9192V103H63.7207V102.145C63.5192 102.416 63.2447 102.642 62.8974 102.823C62.55 103.003 62.1539 103.094 61.7093 103.094C61.216 103.094 60.7643 102.969 60.3544 102.719C59.9445 102.462 59.6179 102.107 59.3748 101.656C59.1385 101.197 59.0204 100.679 59.0204 100.103ZM63.7207 100.124C63.7207 99.7275 63.6373 99.3836 63.4706 99.0918C63.3108 98.8 63.0988 98.5776 62.8348 98.4248C62.5708 98.2719 62.2859 98.1955 61.9802 98.1955C61.6745 98.1955 61.3897 98.2719 61.1256 98.4248C60.8616 98.5707 60.6462 98.7896 60.4795 99.0814C60.3197 99.3662 60.2398 99.7067 60.2398 100.103C60.2398 100.499 60.3197 100.846 60.4795 101.145C60.6462 101.444 60.8616 101.673 61.1256 101.833C61.3966 101.986 61.6815 102.062 61.9802 102.062C62.2859 102.062 62.5708 101.986 62.8348 101.833C63.0988 101.68 63.3108 101.458 63.4706 101.166C63.6373 100.867 63.7207 100.52 63.7207 100.124ZM69.377 97.1637C69.8286 97.1637 70.2316 97.2575 70.5859 97.4451C70.9472 97.6327 71.2286 97.9106 71.4301 98.2789C71.6316 98.6471 71.7323 99.0918 71.7323 99.6129V103H70.5547V99.7901C70.5547 99.2759 70.4261 98.8834 70.1691 98.6124C69.912 98.3345 69.5611 98.1955 69.1164 98.1955C68.6718 98.1955 68.3174 98.3345 68.0534 98.6124C67.7963 98.8834 67.6678 99.2759 67.6678 99.7901V103H66.4797V97.2575H67.6678V97.9141C67.8623 97.6779 68.109 97.4938 68.4078 97.3618C68.7135 97.2298 69.0365 97.1637 69.377 97.1637ZM72.8518 100.124C72.8518 99.533 72.9699 99.0154 73.2061 98.5707C73.4493 98.1191 73.7828 97.7717 74.2066 97.5285C74.6305 97.2853 75.1168 97.1637 75.6657 97.1637C76.3605 97.1637 76.9337 97.3305 77.3853 97.664C77.8439 97.9905 78.1531 98.4595 78.3129 99.071H77.031C76.9268 98.7861 76.76 98.5638 76.5307 98.404C76.3014 98.2441 76.0131 98.1642 75.6657 98.1642C75.1793 98.1642 74.7903 98.3379 74.4985 98.6853C74.2136 99.0258 74.0712 99.5052 74.0712 100.124C74.0712 100.742 74.2136 101.225 74.4985 101.572C74.7903 101.92 75.1793 102.093 75.6657 102.093C76.3535 102.093 76.8086 101.791 77.031 101.187H78.3129C78.1461 101.77 77.8335 102.236 77.3749 102.583C76.9163 102.924 76.3466 103.094 75.6657 103.094C75.1168 103.094 74.6305 102.972 74.2066 102.729C73.7828 102.479 73.4493 102.132 73.2061 101.687C72.9699 101.235 72.8518 100.714 72.8518 100.124ZM84.7599 99.9881C84.7599 100.203 84.746 100.398 84.7182 100.572H80.3306C80.3654 101.03 80.5356 101.399 80.8413 101.676C81.147 101.954 81.5222 102.093 81.9669 102.093C82.6061 102.093 83.0577 101.826 83.3217 101.291H84.6036C84.4299 101.819 84.1138 102.253 83.6552 102.594C83.2036 102.927 82.6408 103.094 81.9669 103.094C81.418 103.094 80.9247 102.972 80.487 102.729C80.0562 102.479 79.7157 102.132 79.4656 101.687C79.2224 101.235 79.1009 100.714 79.1009 100.124C79.1009 99.533 79.219 99.0154 79.4552 98.5707C79.6984 98.1191 80.0353 97.7717 80.4661 97.5285C80.9038 97.2853 81.4041 97.1637 81.9669 97.1637C82.5088 97.1637 82.9917 97.2819 83.4155 97.5181C83.8393 97.7543 84.1694 98.0878 84.4056 98.5186C84.6418 98.9424 84.7599 99.4322 84.7599 99.9881ZM83.5197 99.6129C83.5128 99.1752 83.3565 98.8243 83.0507 98.5603C82.745 98.2963 82.3664 98.1642 81.9148 98.1642C81.5048 98.1642 81.154 98.2963 80.8622 98.5603C80.5703 98.8174 80.3966 99.1682 80.3411 99.6129H83.5197ZM88.0135 103.094C87.5619 103.094 87.1554 103.014 86.7942 102.854C86.4398 102.687 86.1584 102.465 85.95 102.187C85.7415 101.902 85.6304 101.586 85.6165 101.239H86.8463C86.8671 101.482 86.9818 101.687 87.1902 101.854C87.4056 102.013 87.6731 102.093 87.9927 102.093C88.3262 102.093 88.5832 102.031 88.7639 101.906C88.9515 101.774 89.0453 101.607 89.0453 101.405C89.0453 101.19 88.9411 101.03 88.7326 100.926C88.5311 100.822 88.2081 100.707 87.7634 100.582C87.3326 100.464 86.9818 100.349 86.7108 100.238C86.4398 100.127 86.2036 99.9568 86.0021 99.7275C85.8076 99.4982 85.7103 99.196 85.7103 98.8208C85.7103 98.5151 85.8006 98.2372 85.9812 97.9871C86.1619 97.73 86.419 97.5285 86.7525 97.3826C87.0929 97.2367 87.482 97.1637 87.9197 97.1637C88.5728 97.1637 89.0974 97.3305 89.4934 97.664C89.8964 97.9905 90.1118 98.4387 90.1396 99.0084H88.9515C88.9306 98.7513 88.8264 98.5464 88.6388 98.3935C88.4512 98.2407 88.1976 98.1642 87.878 98.1642C87.5654 98.1642 87.3257 98.2233 87.1589 98.3414C86.9922 98.4595 86.9088 98.6159 86.9088 98.8104C86.9088 98.9633 86.9644 99.0918 87.0755 99.196C87.1867 99.3002 87.3222 99.3836 87.482 99.4461C87.6418 99.5017 87.878 99.5747 88.1907 99.665C88.6076 99.7762 88.948 99.8908 89.212 100.009C89.483 100.12 89.7158 100.287 89.9103 100.509C90.1048 100.732 90.2056 101.027 90.2125 101.395C90.2125 101.722 90.1222 102.013 89.9416 102.27C89.7609 102.528 89.5038 102.729 89.1703 102.875C88.8438 103.021 88.4582 103.094 88.0135 103.094Z" fill="#033F40"/>
<g clip-path="url(#clip0_438_7587)">
<g filter="url(#filter1_d_438_7587)">
<path d="M36.7603 53.8202L52.4512 66.098L62.5545 53.1819L62.2281 52.0652C61.9497 51.1207 62.0794 50.1306 62.5855 49.343C63.0992 48.5585 63.9394 48.0296 64.9105 47.8917L65.5627 47.8012C65.955 47.7436 66.3491 47.7645 66.7388 47.8278L72.6497 40.274L56.9607 28L36.7603 53.8202ZM60.5054 51.5844C57.9988 54.7881 53.371 55.3512 50.1698 52.8466C46.9655 50.3425 46.3986 45.7147 48.9064 42.511C51.4136 39.3048 56.042 38.7417 59.2426 41.2476C62.4444 43.7529 63.0138 48.3826 60.5054 51.5844ZM44.9663 72.575H60.6091L60.5895 77.943H44.9372L44.9663 72.575ZM62.5602 70.598C61.1564 71.1028 58.8858 71.4957 57.394 71.4957H48.158C46.2398 71.4957 44.6778 69.9324 44.6778 68.0117V61.3297C45.3389 61.8523 46.002 62.3837 46.6688 62.9044V68.0079C46.6688 68.8323 47.3368 69.5016 48.1605 69.5016H57.3965C58.6549 69.5016 60.711 69.148 61.8928 68.7241L72.2087 65.0326C72.5839 64.8953 72.8806 64.6283 73.0482 64.2633C73.2159 63.9058 73.2361 63.4997 73.1001 63.1277L69.117 52.1722C68.8082 51.3301 67.7631 50.7031 66.8742 50.8297L66.2542 50.917C65.886 50.9689 65.5887 51.1479 65.4147 51.4244C65.2388 51.6977 65.199 52.0418 65.3046 52.3948L67.0881 58.4904L68.2085 62.154H64.4246H62.7652L63.7635 60.1631H64.4246C64.6397 60.1631 64.9358 60.1169 65.1028 59.886C65.2496 59.6874 65.2755 59.39 65.1775 59.0522L63.394 52.9522C63.129 52.0494 63.2523 51.0948 63.7395 50.3381C64.2279 49.5878 65.0395 49.0766 65.9714 48.9476L66.6009 48.8571C68.4248 48.5971 70.3557 49.7548 70.9864 51.4895L74.9708 62.4495C75.2916 63.3238 75.2467 64.2646 74.85 65.1104C74.4533 65.9537 73.7542 66.5914 72.8812 66.9065L62.5602 70.598ZM51.8141 44.2464C51.3105 44.8879 51.1757 45.6148 51.4067 46.4252C51.5319 46.8718 51.79 47.3223 52.181 47.7866L54.4725 44.8569L55.0475 45.6597L52.8453 48.4737C53.0142 48.6274 53.2015 48.7767 53.4045 48.9349C53.495 49.0039 53.5798 49.0734 53.6677 49.1373L56.0515 46.0899L56.6279 46.8933L54.4775 49.6435C55.0007 49.918 55.5151 50.0787 56.0199 50.1281C56.8563 50.2116 57.5509 49.9028 58.1026 49.1987C58.6087 48.5509 58.6998 47.824 58.374 47.0243C58.2032 46.5998 57.8976 46.1418 57.4579 45.6597L58.1273 44.8075C58.8782 45.5154 59.3609 46.3063 59.5747 47.1667C59.8348 48.1991 59.6241 49.1525 58.9396 50.0243C58.3537 50.7753 57.5844 51.196 56.6437 51.2833C55.751 51.3693 54.7983 51.1239 53.7797 50.5418L52.7466 51.8659L52.169 51.0631L52.9762 50.0338C52.8269 49.9313 52.6732 49.8181 52.5226 49.6985C52.3974 49.6004 52.267 49.4916 52.1462 49.379L51.1675 50.6336L50.5924 49.8314L51.4649 48.7173C50.9195 48.0928 50.5349 47.4419 50.3217 46.7491C49.9585 45.58 50.1521 44.5159 50.9069 43.5542C51.5484 42.7324 52.2993 42.2997 53.1698 42.2497C54.0429 42.1978 54.8223 42.4035 55.5163 42.8678L54.8482 43.7206C54.2757 43.4309 53.7297 43.3151 53.2129 43.3784C52.6903 43.4359 52.2234 43.7206 51.8141 44.2464Z" fill="#04B64B"/>
</g>
</g>
<defs>
<filter id="filter0_d_438_7587" x="0.0578793" y="0.342981" width="116.95" height="134.689" filterUnits="userSpaceOnUse" color-interpolation-filters="sRGB">
<feFlood flood-opacity="0" result="BackgroundImageFix"/>
<feColorMatrix in="SourceAlpha" type="matrix" values="0 0 0 0 0 0 0 0 0 0 0 0 0 0 0 0 0 0 127 0" result="hardAlpha"/>
<feMorphology radius="0.65702" operator="erode" in="SourceAlpha" result="effect1_dropShadow_438_7587"/>
<feOffset dx="1.31404" dy="4.59914"/>
<feGaussianBlur stdDeviation="2.95659"/>
<feComposite in2="hardAlpha" operator="out"/>
<feColorMatrix type="matrix" values="0 0 0 0 0 0 0 0 0 0 0 0 0 0 0 0 0 0 0.06 0"/>
<feBlend mode="normal" in2="BackgroundImageFix" result="effect1_dropShadow_438_7587"/>
<feBlend mode="normal" in="SourceGraphic" in2="effect1_dropShadow_438_7587" result="shape"/>
</filter>
<filter id="filter1_d_438_7587" x="32.7603" y="28" width="46.4229" height="57.943" filterUnits="userSpaceOnUse" color-interpolation-filters="sRGB">
<feFlood flood-opacity="0" result="BackgroundImageFix"/>
<feColorMatrix in="SourceAlpha" type="matrix" values="0 0 0 0 0 0 0 0 0 0 0 0 0 0 0 0 0 0 127 0" result="hardAlpha"/>
<feOffset dy="4"/>
<feGaussianBlur stdDeviation="2"/>
<feComposite in2="hardAlpha" operator="out"/>
<feColorMatrix type="matrix" values="0 0 0 0 0 0 0 0 0 0 0 0 0 0 0 0 0 0 0.25 0"/>
<feBlend mode="normal" in2="BackgroundImageFix" result="effect1_dropShadow_438_7587"/>
<feBlend mode="normal" in="SourceGraphic" in2="effect1_dropShadow_438_7587" result="shape"/>
</filter>
<clipPath id="clip0_438_7587">
<rect width="56" height="57" fill="white" transform="translate(30 26)"/>
</clipPath>
</defs>
</svg>
