<svg width="118" height="136" viewBox="0 0 118 136" fill="none" xmlns="http://www.w3.org/2000/svg">
<g filter="url(#filter0_d_371_7466)">
<rect x="4.21484" y="1.45312" width="106.437" height="124.177" rx="22.9957" fill="white"/>
</g>
<path d="M33.0656 94.9102C33.684 94.9102 34.2155 95.0179 34.6602 95.2333C35.1118 95.4418 35.4522 95.737 35.6815 96.1192C35.9177 96.5013 36.0358 96.939 36.0358 97.4323C36.0358 97.9326 35.9212 98.3738 35.6919 98.7559C35.4626 99.1381 35.1222 99.4333 34.6706 99.6418C34.2259 99.8502 33.6909 99.9544 33.0656 99.9544H31.5336V102.539H30.4289V94.9102H33.0656ZM33.0552 98.9644C33.6666 98.9644 34.1252 98.8254 34.4309 98.5475C34.7435 98.2696 34.8999 97.8979 34.8999 97.4323C34.8999 96.9668 34.7435 96.5951 34.4309 96.3172C34.1252 96.0323 33.6666 95.8899 33.0552 95.8899H31.5336V98.9644H33.0552ZM40.5586 96.5256C41.0033 96.5256 41.3924 96.6264 41.7259 96.8279C42.0663 97.0294 42.3303 97.3177 42.5179 97.6929C42.7055 98.0611 42.7993 98.4954 42.7993 98.9956V102.539H41.7467V99.2249C41.7467 98.6621 41.6078 98.2314 41.3298 97.9326C41.0519 97.6338 40.6733 97.4845 40.1939 97.4845C39.8465 97.4845 39.5303 97.5609 39.2455 97.7137C38.9675 97.8666 38.7487 98.0785 38.5889 98.3495C38.4291 98.6135 38.3492 98.9088 38.3492 99.2353V102.539H37.2966V94.4517H38.3492V97.6199C38.6132 97.3073 38.9293 97.0467 39.2976 96.8383C39.6728 96.6299 40.0931 96.5256 40.5586 96.5256ZM48.3482 101.737C48.1329 102.049 47.8445 102.279 47.4832 102.424C47.1219 102.563 46.7363 102.633 46.3264 102.633C45.6524 102.633 45.1036 102.47 44.6797 102.143C44.2629 101.816 44.0544 101.361 44.0544 100.778C44.0544 100.389 44.1656 100.048 44.3879 99.7564C44.6103 99.4646 44.909 99.2388 45.2842 99.079C45.6663 98.9192 46.0902 98.8393 46.5557 98.8393C47.1254 98.8393 47.7125 98.9227 48.317 99.0894C48.3309 98.5336 48.2093 98.1202 47.9522 97.8492C47.6951 97.5713 47.2852 97.4323 46.7224 97.4323C46.3959 97.4323 46.0554 97.4775 45.7011 97.5678C45.3467 97.6512 45.0306 97.7589 44.7527 97.8909L44.4713 97.078C45.2495 96.6959 46.0415 96.5048 46.8475 96.5048C48.5289 96.5048 49.3696 97.3802 49.3696 99.1311V102.539H48.3482V101.737ZM46.5557 101.81C46.8405 101.81 47.1185 101.761 47.3894 101.664C47.6604 101.566 47.8827 101.413 48.0564 101.205C48.2301 100.997 48.317 100.736 48.317 100.423V99.8502C47.7889 99.6835 47.2644 99.6001 46.7433 99.6001C46.2778 99.6001 45.8922 99.7008 45.5864 99.9023C45.2807 100.104 45.1279 100.375 45.1279 100.715C45.1279 101.07 45.2599 101.341 45.5239 101.528C45.7949 101.716 46.1388 101.81 46.5557 101.81ZM52.1093 98.0055C52.6096 97.0467 53.3704 96.5673 54.3917 96.5673V97.7033H54.2458C53.8776 97.7033 53.5302 97.7832 53.2036 97.943C52.884 98.1028 52.62 98.3703 52.4116 98.7455C52.2101 99.1137 52.1093 99.5931 52.1093 100.184V102.539H51.0567V96.6299H52.1093V98.0055ZM62.66 96.5256C63.0838 96.5256 63.459 96.6264 63.7856 96.8279C64.1121 97.0224 64.3622 97.3003 64.5359 97.6616C64.7166 98.016 64.8069 98.4259 64.8069 98.8914V102.539H63.7543V99.0582C63.7543 98.5718 63.6188 98.1897 63.3479 97.9117C63.0838 97.6269 62.7364 97.4845 62.3057 97.4845C62.0208 97.4845 61.7603 97.5609 61.524 97.7137C61.2947 97.8596 61.1106 98.0681 60.9717 98.339C60.8397 98.6031 60.7736 98.9053 60.7736 99.2457V102.539H59.7106V99.0998C59.7106 98.5996 59.5821 98.207 59.325 97.9222C59.0749 97.6304 58.7449 97.4845 58.3349 97.4845C58.0223 97.4845 57.7444 97.5782 57.5012 97.7658C57.258 97.9465 57.0669 98.1792 56.928 98.4641C56.796 98.742 56.73 99.0199 56.73 99.2979V102.539H55.6773V96.6299H56.73V97.5991C57.2858 96.8835 57.9285 96.5256 58.658 96.5256C59.0749 96.5256 59.4466 96.6299 59.7731 96.8383C60.0997 97.0398 60.3498 97.3212 60.5235 97.6825C61.1071 96.9112 61.8193 96.5256 62.66 96.5256ZM70.3523 101.737C70.1369 102.049 69.8485 102.279 69.4872 102.424C69.1259 102.563 68.7403 102.633 68.3304 102.633C67.6565 102.633 67.1076 102.47 66.6837 102.143C66.2669 101.816 66.0584 101.361 66.0584 100.778C66.0584 100.389 66.1696 100.048 66.3919 99.7564C66.6143 99.4646 66.913 99.2388 67.2882 99.079C67.6704 98.9192 68.0942 98.8393 68.5597 98.8393C69.1294 98.8393 69.7165 98.9227 70.321 99.0894C70.3349 98.5336 70.2133 98.1202 69.9562 97.8492C69.6991 97.5713 69.2892 97.4323 68.7264 97.4323C68.3999 97.4323 68.0594 97.4775 67.7051 97.5678C67.3507 97.6512 67.0346 97.7589 66.7567 97.8909L66.4753 97.078C67.2535 96.6959 68.0455 96.5048 68.8515 96.5048C70.5329 96.5048 71.3736 97.3802 71.3736 99.1311V102.539H70.3523V101.737ZM68.5597 101.81C68.8446 101.81 69.1225 101.761 69.3934 101.664C69.6644 101.566 69.8867 101.413 70.0604 101.205C70.2341 100.997 70.321 100.736 70.321 100.423V99.8502C69.7929 99.6835 69.2684 99.6001 68.7473 99.6001C68.2818 99.6001 67.8962 99.7008 67.5905 99.9023C67.2847 100.104 67.1319 100.375 67.1319 100.715C67.1319 101.07 67.2639 101.341 67.5279 101.528C67.7989 101.716 68.1428 101.81 68.5597 101.81ZM72.6543 99.6001C72.6543 99.0304 72.7863 98.5093 73.0503 98.0368C73.3143 97.5644 73.6756 97.1926 74.1342 96.9217C74.5997 96.6507 75.1138 96.5152 75.6766 96.5152C76.3019 96.5152 76.8369 96.6611 77.2816 96.9529C77.7262 97.2447 78.0459 97.6026 78.2404 98.0264L77.3337 98.4328C77.1947 98.1688 76.9828 97.9465 76.698 97.7658C76.42 97.5782 76.0831 97.4845 75.687 97.4845C75.3049 97.4845 74.9644 97.5782 74.6657 97.7658C74.3669 97.9465 74.1342 98.2001 73.9674 98.5266C73.8007 98.8462 73.7173 99.2075 73.7173 99.6105C73.7173 100.007 73.8007 100.364 73.9674 100.684C74.1342 100.997 74.3669 101.243 74.6657 101.424C74.9644 101.598 75.3049 101.684 75.687 101.684C76.0831 101.684 76.4235 101.594 76.7084 101.413C76.9932 101.226 77.2086 101.004 77.3545 100.746L78.2612 101.153C78.0597 101.584 77.7367 101.942 77.292 102.226C76.8543 102.511 76.3193 102.654 75.687 102.654C75.1173 102.654 74.5997 102.522 74.1342 102.258C73.6756 101.994 73.3143 101.629 73.0503 101.163C72.7863 100.698 72.6543 100.177 72.6543 99.6001ZM84.7616 96.6299L82.1041 102.977C81.8261 103.651 81.51 104.127 81.1557 104.405C80.8013 104.682 80.3497 104.821 79.8008 104.821C79.5576 104.821 79.3318 104.797 79.1234 104.749C78.9219 104.7 78.71 104.623 78.4877 104.519L78.8107 103.665C78.9844 103.734 79.1338 103.786 79.2589 103.821C79.3909 103.863 79.5368 103.883 79.6966 103.883C80.051 103.883 80.3358 103.779 80.5512 103.571C80.7735 103.369 80.9889 103.008 81.1974 102.487L81.2078 102.456L78.6127 96.6299H79.8112L81.7289 101.174L83.5944 96.6299H84.7616Z" fill="#033F40"/>
<g filter="url(#filter1_d_371_7466)">
<path d="M68.2829 49.9478C71.6183 53.2832 71.6183 58.6912 68.2829 62.0266L65.2621 65.0445L58.217 72.0925C54.8816 75.4278 49.4736 75.4278 46.1382 72.0925C42.8029 68.7571 42.8029 63.3491 46.1382 60.0137L56.2027 49.9478C59.5395 46.6124 64.9475 46.6124 68.2829 49.9478ZM61.2363 65.0459L53.1848 56.9944L48.1511 62.0266C45.9276 64.2502 45.9276 67.856 48.1511 70.0796C50.3747 72.3031 53.9805 72.3031 56.2041 70.0796L61.2363 65.0459Z" fill="#FF5F5F"/>
</g>
<defs>
<filter id="filter0_d_371_7466" x="0.272723" y="0.796106" width="116.95" height="134.689" filterUnits="userSpaceOnUse" color-interpolation-filters="sRGB">
<feFlood flood-opacity="0" result="BackgroundImageFix"/>
<feColorMatrix in="SourceAlpha" type="matrix" values="0 0 0 0 0 0 0 0 0 0 0 0 0 0 0 0 0 0 127 0" result="hardAlpha"/>
<feMorphology radius="0.65702" operator="erode" in="SourceAlpha" result="effect1_dropShadow_371_7466"/>
<feOffset dx="1.31404" dy="4.59914"/>
<feGaussianBlur stdDeviation="2.95659"/>
<feComposite in2="hardAlpha" operator="out"/>
<feColorMatrix type="matrix" values="0 0 0 0 0 0 0 0 0 0 0 0 0 0 0 0 0 0 0.06 0"/>
<feBlend mode="normal" in2="BackgroundImageFix" result="effect1_dropShadow_371_7466"/>
<feBlend mode="normal" in="SourceGraphic" in2="effect1_dropShadow_371_7466" result="shape"/>
</filter>
<filter id="filter1_d_371_7466" x="41.0086" y="47.4463" width="32.4039" height="32.4039" filterUnits="userSpaceOnUse" color-interpolation-filters="sRGB">
<feFlood flood-opacity="0" result="BackgroundImageFix"/>
<feColorMatrix in="SourceAlpha" type="matrix" values="0 0 0 0 0 0 0 0 0 0 0 0 0 0 0 0 0 0 127 0" result="hardAlpha"/>
<feOffset dy="2.62808"/>
<feGaussianBlur stdDeviation="1.31404"/>
<feComposite in2="hardAlpha" operator="out"/>
<feColorMatrix type="matrix" values="0 0 0 0 0.816903 0 0 0 0 0.816903 0 0 0 0 0.816903 0 0 0 1 0"/>
<feBlend mode="normal" in2="BackgroundImageFix" result="effect1_dropShadow_371_7466"/>
<feBlend mode="normal" in="SourceGraphic" in2="effect1_dropShadow_371_7466" result="shape"/>
</filter>
</defs>
</svg>
