<svg width="118" height="136" viewBox="0 0 118 136" fill="none" xmlns="http://www.w3.org/2000/svg">
<g filter="url(#filter0_d_371_7486)">
<rect x="4.21484" y="1.33594" width="106.437" height="124.177" rx="22.9957" fill="white"/>
</g>
<path d="M38.5442 84.2783V91.5215H37.3561V88.3532H33.9482V91.5215H32.7601V84.2783H33.9482V87.384H37.3561V84.2783H38.5442ZM39.7123 88.6242C39.7123 88.0475 39.8304 87.5369 40.0666 87.0922C40.3098 86.6475 40.6363 86.3036 41.0463 86.0604C41.4631 85.8103 41.9217 85.6852 42.422 85.6852C42.8736 85.6852 43.2661 85.7756 43.5996 85.9562C43.9401 86.1299 44.211 86.3488 44.4125 86.6128V85.779H45.6111V91.5215H44.4125V90.6669C44.211 90.9379 43.9366 91.1637 43.5892 91.3443C43.2418 91.525 42.8458 91.6153 42.4011 91.6153C41.9078 91.6153 41.4562 91.4902 41.0463 91.2401C40.6363 90.983 40.3098 90.6287 40.0666 90.1771C39.8304 89.7185 39.7123 89.2009 39.7123 88.6242ZM44.4125 88.645C44.4125 88.249 44.3292 87.9051 44.1624 87.6133C44.0026 87.3215 43.7907 87.0991 43.5267 86.9463C43.2627 86.7934 42.9778 86.717 42.6721 86.717C42.3664 86.717 42.0815 86.7934 41.8175 86.9463C41.5535 87.0922 41.3381 87.311 41.1713 87.6029C41.0115 87.8877 40.9316 88.2282 40.9316 88.6242C40.9316 89.0202 41.0115 89.3676 41.1713 89.6664C41.3381 89.9652 41.5535 90.1944 41.8175 90.3542C42.0885 90.5071 42.3733 90.5835 42.6721 90.5835C42.9778 90.5835 43.2627 90.5071 43.5267 90.3542C43.7907 90.2014 44.0026 89.979 44.1624 89.6872C44.3292 89.3885 44.4125 89.0411 44.4125 88.645ZM48.3597 86.6128C48.5334 86.321 48.7626 86.0952 49.0475 85.9354C49.3393 85.7686 49.6832 85.6852 50.0793 85.6852V86.915H49.777C49.3115 86.915 48.9572 87.0331 48.714 87.2694C48.4778 87.5056 48.3597 87.9155 48.3597 88.4991V91.5215H47.1716V85.779H48.3597V86.6128ZM50.7753 88.6242C50.7753 88.0475 50.8935 87.5369 51.1297 87.0922C51.3729 86.6475 51.6994 86.3036 52.1093 86.0604C52.5262 85.8103 52.9882 85.6852 53.4954 85.6852C53.8706 85.6852 54.2389 85.7686 54.6002 85.9354C54.9684 86.0952 55.2602 86.3105 55.4756 86.5815V83.8093H56.6741V91.5215H55.4756V90.6565C55.2811 90.9344 55.0101 91.1637 54.6627 91.3443C54.3222 91.525 53.9297 91.6153 53.485 91.6153C52.9848 91.6153 52.5262 91.4902 52.1093 91.2401C51.6994 90.983 51.3729 90.6287 51.1297 90.1771C50.8935 89.7185 50.7753 89.2009 50.7753 88.6242ZM55.4756 88.645C55.4756 88.249 55.3922 87.9051 55.2255 87.6133C55.0657 87.3215 54.8538 87.0991 54.5897 86.9463C54.3257 86.7934 54.0409 86.717 53.7352 86.717C53.4294 86.717 53.1446 86.7934 52.8806 86.9463C52.6165 87.0922 52.4011 87.311 52.2344 87.6029C52.0746 87.8877 51.9947 88.2282 51.9947 88.6242C51.9947 89.0202 52.0746 89.3676 52.2344 89.6664C52.4011 89.9652 52.6165 90.1944 52.8806 90.3542C53.1515 90.5071 53.4364 90.5835 53.7352 90.5835C54.0409 90.5835 54.3257 90.5071 54.5897 90.3542C54.8538 90.2014 55.0657 89.979 55.2255 89.6872C55.3922 89.3885 55.4756 89.0411 55.4756 88.645ZM65.9468 85.779L64.1647 91.5215H62.9141L61.7572 87.2798L60.6004 91.5215H59.3498L57.5572 85.779H58.7662L59.9647 90.3959L61.184 85.779H62.4242L63.5915 90.3751L64.7796 85.779H65.9468ZM66.4387 88.6242C66.4387 88.0475 66.5568 87.5369 66.793 87.0922C67.0362 86.6475 67.3628 86.3036 67.7727 86.0604C68.1896 85.8103 68.6481 85.6852 69.1484 85.6852C69.6 85.6852 69.9926 85.7756 70.3261 85.9562C70.6665 86.1299 70.9375 86.3488 71.139 86.6128V85.779H72.3375V91.5215H71.139V90.6669C70.9375 90.9379 70.663 91.1637 70.3156 91.3443C69.9682 91.525 69.5722 91.6153 69.1275 91.6153C68.6342 91.6153 68.1826 91.4902 67.7727 91.2401C67.3628 90.983 67.0362 90.6287 66.793 90.1771C66.5568 89.7185 66.4387 89.2009 66.4387 88.6242ZM71.139 88.645C71.139 88.249 71.0556 87.9051 70.8888 87.6133C70.729 87.3215 70.5171 87.0991 70.2531 86.9463C69.9891 86.7934 69.7042 86.717 69.3985 86.717C69.0928 86.717 68.8079 86.7934 68.5439 86.9463C68.2799 87.0922 68.0645 87.311 67.8978 87.6029C67.738 87.8877 67.6581 88.2282 67.6581 88.6242C67.6581 89.0202 67.738 89.3676 67.8978 89.6664C68.0645 89.9652 68.2799 90.1944 68.5439 90.3542C68.8149 90.5071 69.0997 90.5835 69.3985 90.5835C69.7042 90.5835 69.9891 90.5071 70.2531 90.3542C70.5171 90.2014 70.729 89.979 70.8888 89.6872C71.0556 89.3885 71.139 89.0411 71.139 88.645ZM75.0861 86.6128C75.2598 86.321 75.4891 86.0952 75.7739 85.9354C76.0657 85.7686 76.4097 85.6852 76.8057 85.6852V86.915H76.5035C76.0379 86.915 75.6836 87.0331 75.4404 87.2694C75.2042 87.5056 75.0861 87.9155 75.0861 88.4991V91.5215H73.898V85.779H75.0861V86.6128ZM83.1608 88.5096C83.1608 88.7249 83.1469 88.9195 83.1192 89.0932H78.7315C78.7663 89.5517 78.9365 89.92 79.2422 90.1979C79.5479 90.4758 79.9231 90.6148 80.3678 90.6148C81.007 90.6148 81.4586 90.3473 81.7226 89.8123H83.0045C82.8308 90.3403 82.5147 90.7746 82.0561 91.115C81.6045 91.4485 81.0417 91.6153 80.3678 91.6153C79.8189 91.6153 79.3256 91.4937 78.8879 91.2505C78.4571 91.0004 78.1167 90.653 77.8665 90.2083C77.6233 89.7567 77.5018 89.2356 77.5018 88.645C77.5018 88.0545 77.6199 87.5369 77.8561 87.0922C78.0993 86.6406 78.4363 86.2932 78.867 86.05C79.3047 85.8068 79.805 85.6852 80.3678 85.6852C80.9097 85.6852 81.3926 85.8033 81.8164 86.0396C82.2402 86.2758 82.5703 86.6093 82.8065 87.0401C83.0427 87.4639 83.1608 87.9537 83.1608 88.5096ZM81.9206 88.1344C81.9137 87.6967 81.7574 87.3458 81.4517 87.0818C81.1459 86.8177 80.7673 86.6857 80.3157 86.6857C79.9057 86.6857 79.5549 86.8177 79.2631 87.0818C78.9712 87.3388 78.7975 87.6897 78.742 88.1344H81.9206ZM44.5253 107.594C44.039 107.594 43.6013 107.511 43.2122 107.344C42.8231 107.171 42.5174 106.927 42.2951 106.615C42.0727 106.302 41.9616 105.937 41.9616 105.52H43.233C43.2608 105.833 43.3824 106.09 43.5978 106.292C43.8201 106.493 44.1293 106.594 44.5253 106.594C44.9353 106.594 45.2549 106.497 45.4842 106.302C45.7134 106.101 45.8281 105.844 45.8281 105.531C45.8281 105.288 45.7551 105.09 45.6092 104.937C45.4703 104.784 45.2931 104.666 45.0777 104.583C44.8693 104.499 44.5775 104.409 44.2023 104.312C43.7298 104.186 43.3442 104.061 43.0454 103.936C42.7536 103.804 42.5035 103.603 42.2951 103.332C42.0866 103.061 41.9824 102.7 41.9824 102.248C41.9824 101.831 42.0866 101.466 42.2951 101.154C42.5035 100.841 42.7953 100.601 43.1705 100.435C43.5457 100.268 43.9799 100.184 44.4732 100.184C45.175 100.184 45.7482 100.362 46.1928 100.716C46.6445 101.063 46.8946 101.543 46.9432 102.154H45.6301C45.6092 101.89 45.4842 101.664 45.2549 101.477C45.0256 101.289 44.7234 101.195 44.3482 101.195C44.0077 101.195 43.7298 101.282 43.5144 101.456C43.299 101.63 43.1913 101.88 43.1913 102.206C43.1913 102.429 43.2573 102.613 43.3894 102.759C43.5283 102.898 43.702 103.009 43.9105 103.092C44.1189 103.176 44.4038 103.266 44.765 103.363C45.2445 103.495 45.6335 103.627 45.9323 103.759C46.238 103.891 46.4951 104.096 46.7035 104.374C46.9189 104.645 47.0266 105.01 47.0266 105.468C47.0266 105.837 46.9258 106.184 46.7244 106.511C46.5298 106.837 46.2415 107.101 45.8593 107.303C45.4842 107.497 45.0395 107.594 44.5253 107.594ZM49.8146 102.748V105.927C49.8146 106.142 49.8632 106.299 49.9605 106.396C50.0647 106.486 50.2384 106.531 50.4816 106.531H51.2111V107.521H50.2732C49.7382 107.521 49.3283 107.396 49.0434 107.146C48.7585 106.896 48.6161 106.49 48.6161 105.927V102.748H47.9387V101.779H48.6161V100.351H49.8146V101.779H51.2111V102.748H49.8146ZM54.797 107.615C54.2551 107.615 53.7652 107.494 53.3275 107.251C52.8898 107 52.5459 106.653 52.2957 106.208C52.0456 105.757 51.9206 105.236 51.9206 104.645C51.9206 104.061 52.0491 103.544 52.3062 103.092C52.5632 102.641 52.9141 102.293 53.3588 102.05C53.8034 101.807 54.3002 101.685 54.8491 101.685C55.398 101.685 55.8948 101.807 56.3394 102.05C56.7841 102.293 57.135 102.641 57.392 103.092C57.6491 103.544 57.7777 104.061 57.7777 104.645C57.7777 105.229 57.6456 105.746 57.3816 106.198C57.1176 106.65 56.7563 107 56.2978 107.251C55.8461 107.494 55.3459 107.615 54.797 107.615ZM54.797 106.584C55.1027 106.584 55.3876 106.511 55.6516 106.365C55.9226 106.219 56.1414 106 56.3082 105.708C56.4749 105.416 56.5583 105.062 56.5583 104.645C56.5583 104.228 56.4784 103.877 56.3186 103.592C56.1588 103.301 55.9469 103.082 55.6829 102.936C55.4188 102.79 55.134 102.717 54.8283 102.717C54.5226 102.717 54.2377 102.79 53.9737 102.936C53.7166 103.082 53.5116 103.301 53.3588 103.592C53.2059 103.877 53.1295 104.228 53.1295 104.645C53.1295 105.263 53.2858 105.743 53.5985 106.083C53.9181 106.417 54.3176 106.584 54.797 106.584ZM60.1403 102.613C60.3139 102.321 60.5432 102.095 60.8281 101.935C61.1199 101.769 61.4638 101.685 61.8599 101.685V102.915H61.5576C61.0921 102.915 60.7378 103.033 60.4946 103.269C60.2584 103.506 60.1403 103.916 60.1403 104.499V107.521H58.9522V101.779H60.1403V102.613ZM68.215 104.51C68.215 104.725 68.2011 104.919 68.1733 105.093H63.7857C63.8204 105.552 63.9907 105.92 64.2964 106.198C64.6021 106.476 64.9773 106.615 65.4219 106.615C66.0612 106.615 66.5128 106.347 66.7768 105.812H68.0587C67.885 106.34 67.5689 106.775 67.1103 107.115C66.6587 107.449 66.0959 107.615 65.4219 107.615C64.8731 107.615 64.3798 107.494 63.942 107.251C63.5113 107 63.1708 106.653 62.9207 106.208C62.6775 105.757 62.5559 105.236 62.5559 104.645C62.5559 104.054 62.674 103.537 62.9103 103.092C63.1534 102.641 63.4904 102.293 63.9212 102.05C64.3589 101.807 64.8592 101.685 65.4219 101.685C65.9639 101.685 66.4468 101.803 66.8706 102.04C67.2944 102.276 67.6244 102.609 67.8607 103.04C68.0969 103.464 68.215 103.954 68.215 104.51ZM66.9748 104.134C66.9679 103.697 66.8115 103.346 66.5058 103.082C66.2001 102.818 65.8215 102.686 65.3698 102.686C64.9599 102.686 64.609 102.818 64.3172 103.082C64.0254 103.339 63.8517 103.69 63.7961 104.134H66.9748ZM71.4686 107.615C71.017 107.615 70.6105 107.535 70.2492 107.376C69.8949 107.209 69.6135 106.986 69.4051 106.709C69.1966 106.424 69.0855 106.108 69.0716 105.76H70.3013C70.3222 106.003 70.4368 106.208 70.6453 106.375C70.8606 106.535 71.1281 106.615 71.4477 106.615C71.7812 106.615 72.0383 106.552 72.219 106.427C72.4066 106.295 72.5004 106.128 72.5004 105.927C72.5004 105.712 72.3961 105.552 72.1877 105.448C71.9862 105.343 71.6631 105.229 71.2185 105.104C70.7877 104.985 70.4368 104.871 70.1659 104.76C69.8949 104.649 69.6587 104.478 69.4572 104.249C69.2626 104.02 69.1654 103.717 69.1654 103.342C69.1654 103.037 69.2557 102.759 69.4363 102.509C69.617 102.251 69.874 102.05 70.2075 101.904C70.548 101.758 70.9371 101.685 71.3748 101.685C72.0279 101.685 72.5525 101.852 72.9485 102.185C73.3515 102.512 73.5669 102.96 73.5947 103.53H72.4066C72.3857 103.273 72.2815 103.068 72.0939 102.915C71.9063 102.762 71.6527 102.686 71.3331 102.686C71.0204 102.686 70.7807 102.745 70.614 102.863C70.4472 102.981 70.3639 103.137 70.3639 103.332C70.3639 103.485 70.4195 103.613 70.5306 103.717C70.6418 103.822 70.7773 103.905 70.9371 103.968C71.0969 104.023 71.3331 104.096 71.6458 104.186C72.0626 104.298 72.4031 104.412 72.6671 104.53C72.9381 104.642 73.1708 104.808 73.3654 105.031C73.5599 105.253 73.6607 105.548 73.6676 105.917C73.6676 106.243 73.5773 106.535 73.3966 106.792C73.216 107.049 72.9589 107.251 72.6254 107.396C72.2989 107.542 71.9133 107.615 71.4686 107.615Z" fill="#033F40"/>
<g clip-path="url(#clip0_371_7486)">
<g filter="url(#filter1_d_371_7486)">
<path d="M72.7446 43.2175C72.7446 43.2175 68.5224 47.4371 67.4132 48.5602C67.1991 48.7771 66.988 48.8461 66.7028 48.8023C66.3297 48.7453 65.9536 48.7065 65.5788 48.6617C64.5529 48.5395 63.5269 48.4184 62.4822 48.2944C62.3078 46.803 62.1307 45.3412 61.9771 43.8768C61.9627 43.739 62.0607 43.551 62.1655 43.445C63.443 42.1516 67.0177 38.5862 67.5415 38.064C66.4058 37.5276 64.4572 37.3163 63.0052 37.5523C57.5131 38.4449 54.1598 43.936 55.8995 49.2036C55.9952 49.493 55.9353 49.6621 55.7287 49.8684C51.0725 54.5123 46.4233 59.1627 41.7739 63.8131C41.6187 63.9683 41.4638 64.1255 41.3257 64.2951C39.9996 65.9257 40.3501 68.3923 42.075 69.5904C43.5976 70.6477 45.5157 70.4575 46.8748 69.0997C51.5438 64.4344 56.2106 59.7668 60.8714 55.0935C61.1029 54.8614 61.2868 54.7823 61.6249 54.8975C63.184 55.4288 64.7799 55.4905 66.3821 55.1202C71.2658 53.9921 74.2549 49.1416 73.0703 44.2791C72.9905 43.9513 72.8733 43.6269 72.7446 43.2175Z" fill="#57534E"/>
</g>
</g>
<defs>
<filter id="filter0_d_371_7486" x="0.272723" y="0.678918" width="116.95" height="134.689" filterUnits="userSpaceOnUse" color-interpolation-filters="sRGB">
<feFlood flood-opacity="0" result="BackgroundImageFix"/>
<feColorMatrix in="SourceAlpha" type="matrix" values="0 0 0 0 0 0 0 0 0 0 0 0 0 0 0 0 0 0 127 0" result="hardAlpha"/>
<feMorphology radius="0.65702" operator="erode" in="SourceAlpha" result="effect1_dropShadow_371_7486"/>
<feOffset dx="1.31404" dy="4.59914"/>
<feGaussianBlur stdDeviation="2.95659"/>
<feComposite in2="hardAlpha" operator="out"/>
<feColorMatrix type="matrix" values="0 0 0 0 0 0 0 0 0 0 0 0 0 0 0 0 0 0 0.06 0"/>
<feBlend mode="normal" in2="BackgroundImageFix" result="effect1_dropShadow_371_7486"/>
<feBlend mode="normal" in="SourceGraphic" in2="effect1_dropShadow_371_7486" result="shape"/>
</filter>
<filter id="filter1_d_371_7486" x="35.3072" y="37.4565" width="43.2343" height="43.2364" filterUnits="userSpaceOnUse" color-interpolation-filters="sRGB">
<feFlood flood-opacity="0" result="BackgroundImageFix"/>
<feColorMatrix in="SourceAlpha" type="matrix" values="0 0 0 0 0 0 0 0 0 0 0 0 0 0 0 0 0 0 127 0" result="hardAlpha"/>
<feOffset dy="5.21212"/>
<feGaussianBlur stdDeviation="2.60606"/>
<feComposite in2="hardAlpha" operator="out"/>
<feColorMatrix type="matrix" values="0 0 0 0 0 0 0 0 0 0 0 0 0 0 0 0 0 0 0.25 0"/>
<feBlend mode="normal" in2="BackgroundImageFix" result="effect1_dropShadow_371_7486"/>
<feBlend mode="normal" in="SourceGraphic" in2="effect1_dropShadow_371_7486" result="shape"/>
</filter>
<clipPath id="clip0_371_7486">
<rect width="37.7879" height="43" fill="white" transform="translate(38 35)"/>
</clipPath>
</defs>
</svg>
