<svg width="118" height="135" viewBox="0 0 118 135" fill="none" xmlns="http://www.w3.org/2000/svg">
<g filter="url(#filter0_d_371_7491)">
<rect x="4.21484" y="0.733398" width="106.437" height="124.177" rx="22.9957" fill="white"/>
</g>
<path d="M47.7696 85.8331C47.7696 86.2013 47.6827 86.5487 47.509 86.8753C47.3353 87.2018 47.0574 87.4693 46.6753 87.6777C46.2931 87.8792 45.8033 87.98 45.2058 87.98H43.8926V90.9189H42.7045V83.6757H45.2058C45.7616 83.6757 46.2306 83.773 46.6127 83.9676C47.0018 84.1551 47.2901 84.4122 47.4777 84.7388C47.6723 85.0653 47.7696 85.4301 47.7696 85.8331ZM45.2058 87.0107C45.6574 87.0107 45.9944 86.91 46.2167 86.7085C46.439 86.5001 46.5502 86.2083 46.5502 85.8331C46.5502 85.041 46.1021 84.645 45.2058 84.645H43.8926V87.0107H45.2058ZM51.3935 91.0127C50.8516 91.0127 50.3618 90.8912 49.924 90.648C49.4863 90.3979 49.1424 90.0505 48.8923 89.6058C48.6421 89.1542 48.5171 88.6331 48.5171 88.0425C48.5171 87.4589 48.6456 86.9413 48.9027 86.4896C49.1598 86.038 49.5106 85.6906 49.9553 85.4475C50.4 85.2043 50.8967 85.0827 51.4456 85.0827C51.9945 85.0827 52.4913 85.2043 52.936 85.4475C53.3806 85.6906 53.7315 86.038 53.9886 86.4896C54.2456 86.9413 54.3742 87.4589 54.3742 88.0425C54.3742 88.6261 54.2422 89.1438 53.9781 89.5954C53.7141 90.047 53.3528 90.3979 52.8943 90.648C52.4427 90.8912 51.9424 91.0127 51.3935 91.0127ZM51.3935 89.981C51.6992 89.981 51.9841 89.908 52.2481 89.7621C52.5191 89.6162 52.7379 89.3974 52.9047 89.1055C53.0714 88.8137 53.1548 88.4594 53.1548 88.0425C53.1548 87.6256 53.0749 87.2748 52.9151 86.9899C52.7553 86.6981 52.5434 86.4792 52.2794 86.3333C52.0154 86.1874 51.7305 86.1145 51.4248 86.1145C51.1191 86.1145 50.8342 86.1874 50.5702 86.3333C50.3131 86.4792 50.1082 86.6981 49.9553 86.9899C49.8024 87.2748 49.726 87.6256 49.726 88.0425C49.726 88.6609 49.8823 89.1403 50.195 89.4807C50.5146 89.8142 50.9141 89.981 51.3935 89.981ZM56.7368 83.2068V90.9189H55.5487V83.2068H56.7368ZM58.9011 84.4157C58.6857 84.4157 58.5051 84.3427 58.3592 84.1968C58.2133 84.0509 58.1403 83.8703 58.1403 83.6549C58.1403 83.4395 58.2133 83.2589 58.3592 83.113C58.5051 82.967 58.6857 82.8941 58.9011 82.8941C59.1095 82.8941 59.2867 82.967 59.4326 83.113C59.5785 83.2589 59.6515 83.4395 59.6515 83.6549C59.6515 83.8703 59.5785 84.0509 59.4326 84.1968C59.2867 84.3427 59.1095 84.4157 58.9011 84.4157ZM59.4847 85.1765V90.9189H58.2966V85.1765H59.4847ZM60.6486 88.0425C60.6486 87.4519 60.7667 86.9343 61.0029 86.4896C61.2461 86.038 61.5796 85.6906 62.0034 85.4475C62.4272 85.2043 62.9136 85.0827 63.4625 85.0827C64.1573 85.0827 64.7305 85.2494 65.1821 85.5829C65.6406 85.9095 65.9498 86.3785 66.1096 86.9899H64.8277C64.7235 86.705 64.5568 86.4827 64.3275 86.3229C64.0982 86.1631 63.8099 86.0832 63.4625 86.0832C62.9761 86.0832 62.587 86.2569 62.2952 86.6043C62.0103 86.9447 61.8679 87.4241 61.8679 88.0425C61.8679 88.6609 62.0103 89.1438 62.2952 89.4911C62.587 89.8385 62.9761 90.0122 63.4625 90.0122C64.1503 90.0122 64.6054 89.71 64.8277 89.1055H66.1096C65.9429 89.6892 65.6302 90.1547 65.1717 90.5021C64.7131 90.8425 64.1434 91.0127 63.4625 91.0127C62.9136 91.0127 62.4272 90.8912 62.0034 90.648C61.5796 90.3979 61.2461 90.0505 61.0029 89.6058C60.7667 89.1542 60.6486 88.6331 60.6486 88.0425ZM72.5567 87.907C72.5567 88.1224 72.5428 88.3169 72.515 88.4906H68.1274C68.1621 88.9492 68.3324 89.3174 68.6381 89.5954C68.9438 89.8733 69.319 90.0122 69.7636 90.0122C70.4028 90.0122 70.8545 89.7447 71.1185 89.2098H72.4004C72.2267 89.7378 71.9105 90.172 71.452 90.5125C71.0004 90.846 70.4376 91.0127 69.7636 91.0127C69.2147 91.0127 68.7214 90.8912 68.2837 90.648C67.853 90.3979 67.5125 90.0505 67.2624 89.6058C67.0192 89.1542 66.8976 88.6331 66.8976 88.0425C66.8976 87.4519 67.0157 86.9343 67.252 86.4896C67.4951 86.038 67.8321 85.6906 68.2629 85.4475C68.7006 85.2043 69.2009 85.0827 69.7636 85.0827C70.3056 85.0827 70.7885 85.2008 71.2123 85.437C71.6361 85.6733 71.9661 86.0068 72.2024 86.4375C72.4386 86.8614 72.5567 87.3512 72.5567 87.907ZM71.3165 87.5318C71.3095 87.0941 71.1532 86.7432 70.8475 86.4792C70.5418 86.2152 70.1631 86.0832 69.7115 86.0832C69.3016 86.0832 68.9507 86.2152 68.6589 86.4792C68.3671 86.7363 68.1934 87.0872 68.1378 87.5318H71.3165ZM41.9666 106.992C41.4802 106.992 41.0425 106.909 40.6534 106.742C40.2644 106.568 39.9587 106.325 39.7363 106.012C39.514 105.7 39.4028 105.335 39.4028 104.918H40.6743C40.7021 105.231 40.8237 105.488 41.0391 105.689C41.2614 105.891 41.5706 105.991 41.9666 105.991C42.3765 105.991 42.6961 105.894 42.9254 105.7C43.1547 105.498 43.2693 105.241 43.2693 104.928C43.2693 104.685 43.1964 104.487 43.0505 104.334C42.9115 104.181 42.7343 104.063 42.519 103.98C42.3105 103.897 42.0187 103.806 41.6435 103.709C41.1711 103.584 40.7855 103.459 40.4867 103.334C40.1949 103.202 39.9448 103 39.7363 102.729C39.5279 102.458 39.4237 102.097 39.4237 101.645C39.4237 101.229 39.5279 100.864 39.7363 100.551C39.9448 100.239 40.2366 99.9988 40.6118 99.8321C40.9869 99.6653 41.4212 99.5819 41.9145 99.5819C42.6162 99.5819 43.1894 99.7591 43.6341 100.113C44.0857 100.461 44.3358 100.94 44.3845 101.552H43.0713C43.0505 101.288 42.9254 101.062 42.6961 100.874C42.4669 100.687 42.1646 100.593 41.7894 100.593C41.449 100.593 41.1711 100.68 40.9557 100.853C40.7403 101.027 40.6326 101.277 40.6326 101.604C40.6326 101.826 40.6986 102.01 40.8306 102.156C40.9696 102.295 41.1433 102.406 41.3517 102.49C41.5601 102.573 41.845 102.663 42.2063 102.761C42.6857 102.893 43.0748 103.025 43.3736 103.157C43.6793 103.289 43.9363 103.494 44.1448 103.772C44.3602 104.043 44.4679 104.407 44.4679 104.866C44.4679 105.234 44.3671 105.581 44.1656 105.908C43.9711 106.235 43.6827 106.499 43.3006 106.7C42.9254 106.895 42.4807 106.992 41.9666 106.992ZM47.2559 102.146V105.324C47.2559 105.54 47.3045 105.696 47.4018 105.793C47.506 105.884 47.6797 105.929 47.9229 105.929H48.6524V106.919H47.7144C47.1794 106.919 46.7695 106.794 46.4847 106.544C46.1998 106.294 46.0574 105.887 46.0574 105.324V102.146H45.3799V101.176H46.0574V99.7487H47.2559V101.176H48.6524V102.146H47.2559ZM49.3514 104.022C49.3514 103.445 49.4695 102.934 49.7057 102.49C49.9489 102.045 50.2755 101.701 50.6854 101.458C51.1023 101.208 51.5608 101.083 52.0611 101.083C52.5127 101.083 52.9053 101.173 53.2388 101.354C53.5792 101.527 53.8502 101.746 54.0517 102.01V101.176H55.2502V106.919H54.0517V106.064C53.8502 106.335 53.5757 106.561 53.2283 106.742C52.8809 106.922 52.4849 107.013 52.0402 107.013C51.5469 107.013 51.0953 106.888 50.6854 106.638C50.2755 106.38 49.9489 106.026 49.7057 105.575C49.4695 105.116 49.3514 104.598 49.3514 104.022ZM54.0517 104.043C54.0517 103.646 53.9683 103.303 53.8015 103.011C53.6417 102.719 53.4298 102.497 53.1658 102.344C52.9018 102.191 52.6169 102.114 52.3112 102.114C52.0055 102.114 51.7206 102.191 51.4566 102.344C51.1926 102.49 50.9772 102.709 50.8105 103C50.6507 103.285 50.5708 103.626 50.5708 104.022C50.5708 104.418 50.6507 104.765 50.8105 105.064C50.9772 105.363 51.1926 105.592 51.4566 105.752C51.7276 105.905 52.0125 105.981 52.3112 105.981C52.6169 105.981 52.9018 105.905 53.1658 105.752C53.4298 105.599 53.6417 105.377 53.8015 105.085C53.9683 104.786 54.0517 104.439 54.0517 104.043ZM58.1968 102.146V105.324C58.1968 105.54 58.2454 105.696 58.3427 105.793C58.4469 105.884 58.6206 105.929 58.8638 105.929H59.5933V106.919H58.6554C58.1204 106.919 57.7105 106.794 57.4256 106.544C57.1407 106.294 56.9983 105.887 56.9983 105.324V102.146H56.3209V101.176H56.9983V99.7487H58.1968V101.176H59.5933V102.146H58.1968ZM61.2928 100.416C61.0775 100.416 60.8968 100.343 60.7509 100.197C60.605 100.051 60.532 99.8703 60.532 99.6549C60.532 99.4395 60.605 99.2589 60.7509 99.113C60.8968 98.967 61.0775 98.8941 61.2928 98.8941C61.5013 98.8941 61.6785 98.967 61.8244 99.113C61.9703 99.2589 62.0432 99.4395 62.0432 99.6549C62.0432 99.8703 61.9703 100.051 61.8244 100.197C61.6785 100.343 61.5013 100.416 61.2928 100.416ZM61.8765 101.176V106.919H60.6884V101.176H61.8765ZM65.9272 107.013C65.3852 107.013 64.8954 106.891 64.4577 106.648C64.02 106.398 63.676 106.05 63.4259 105.606C63.1758 105.154 63.0507 104.633 63.0507 104.043C63.0507 103.459 63.1793 102.941 63.4363 102.49C63.6934 102.038 64.0443 101.691 64.4889 101.447C64.9336 101.204 65.4304 101.083 65.9793 101.083C66.5282 101.083 67.0249 101.204 67.4696 101.447C67.9143 101.691 68.2651 102.038 68.5222 102.49C68.7793 102.941 68.9078 103.459 68.9078 104.043C68.9078 104.626 68.7758 105.144 68.5118 105.595C68.2478 106.047 67.8865 106.398 67.4279 106.648C66.9763 106.891 66.476 107.013 65.9272 107.013ZM65.9272 105.981C66.2329 105.981 66.5177 105.908 66.7818 105.762C67.0527 105.616 67.2716 105.397 67.4383 105.106C67.6051 104.814 67.6885 104.459 67.6885 104.043C67.6885 103.626 67.6086 103.275 67.4488 102.99C67.289 102.698 67.077 102.479 66.813 102.333C66.549 102.187 66.2641 102.114 65.9584 102.114C65.6527 102.114 65.3679 102.187 65.1038 102.333C64.8468 102.479 64.6418 102.698 64.4889 102.99C64.3361 103.275 64.2597 103.626 64.2597 104.043C64.2597 104.661 64.416 105.14 64.7286 105.481C65.0482 105.814 65.4478 105.981 65.9272 105.981ZM72.9796 101.083C73.4312 101.083 73.8342 101.176 74.1885 101.364C74.5498 101.552 74.8312 101.83 75.0327 102.198C75.2342 102.566 75.3349 103.011 75.3349 103.532V106.919H74.1573V103.709C74.1573 103.195 74.0287 102.802 73.7717 102.531C73.5146 102.253 73.1637 102.114 72.7191 102.114C72.2744 102.114 71.92 102.253 71.656 102.531C71.3989 102.802 71.2704 103.195 71.2704 103.709V106.919H70.0823V101.176H71.2704V101.833C71.465 101.597 71.7116 101.413 72.0104 101.281C72.3161 101.149 72.6392 101.083 72.9796 101.083Z" fill="#033F40"/>
<g filter="url(#filter1_d_371_7491)">
<path d="M71.6695 52.4736V63.1502C71.6695 63.5277 71.5196 63.8898 71.2526 64.1568C70.9856 64.4237 70.6235 64.5737 70.246 64.5737H68.8224C68.4449 64.5737 68.0828 64.4237 67.8158 64.1568C67.5489 63.8898 67.3989 63.5277 67.3989 63.1502V61.7266H47.4693V63.1502C47.4693 63.5277 47.3193 63.8898 47.0523 64.1568C46.7854 64.4237 46.4233 64.5737 46.0457 64.5737H44.6222C44.2446 64.5737 43.8826 64.4237 43.6156 64.1568C43.3486 63.8898 43.1987 63.5277 43.1987 63.1502V52.4736L41.4292 52.0323C41.1213 51.9552 40.8481 51.7774 40.6529 51.5272C40.4576 51.277 40.3516 50.9688 40.3516 50.6514V49.6265C40.3516 49.4377 40.4266 49.2567 40.56 49.1232C40.6935 48.9897 40.8746 48.9147 41.0633 48.9147H43.8094L46.729 42.0988C46.9486 41.5865 47.3137 41.15 47.7791 40.8433C48.2445 40.5366 48.7896 40.3732 49.3469 40.3735H51.7399V37.5264H56.0105V40.3735H58.8576V37.5264H63.1283V40.3735H65.5212C66.0783 40.3735 66.6232 40.537 67.0883 40.8437C67.5533 41.1504 67.9182 41.5868 68.1377 42.0988L71.0588 48.9147H73.8048C73.9936 48.9147 74.1747 48.9897 74.3081 49.1232C74.4416 49.2567 74.5166 49.4377 74.5166 49.6265V50.6514C74.5166 50.9688 74.4106 51.277 74.2153 51.5272C74.0201 51.7774 73.7468 51.9552 73.439 52.0323L71.6695 52.4736ZM46.0457 54.6089V57.456C46.0457 57.8335 46.1957 58.1956 46.4627 58.4626C46.7297 58.7295 47.0917 58.8795 47.4693 58.8795H52.0887C52.2116 58.8793 52.3324 58.8473 52.4392 58.7866C52.5461 58.7258 52.6354 58.6385 52.6985 58.533C52.7615 58.4275 52.7962 58.3075 52.7991 58.1846C52.802 58.0617 52.7731 57.9402 52.715 57.8318C51.5691 55.6822 49.3455 54.6089 46.0457 54.6089ZM68.8224 54.6089C65.5241 54.6089 63.3005 55.6837 62.1517 57.8318C62.0936 57.9403 62.0647 58.0619 62.0676 58.1849C62.0706 58.3079 62.1054 58.4281 62.1687 58.5336C62.2319 58.6391 62.3214 58.7265 62.4285 58.7871C62.5355 58.8477 62.6565 58.8796 62.7795 58.8795H67.3989C67.7764 58.8795 68.1385 58.7295 68.4055 58.4626C68.6725 58.1956 68.8224 57.8335 68.8224 57.456V54.6089ZM48.8928 43.2205L46.8273 48.3866C46.741 48.6025 46.7089 48.8363 46.7339 49.0674C46.7588 49.2986 46.84 49.5201 46.9703 49.7127C47.1007 49.9052 47.2762 50.0629 47.4815 50.172C47.6869 50.281 47.9158 50.3381 48.1483 50.3383H66.7199C66.9524 50.3381 67.1813 50.281 67.3867 50.172C67.592 50.0629 67.7675 49.9052 67.8978 49.7127C68.0282 49.5201 68.1094 49.2986 68.1343 49.0674C68.1592 48.8363 68.1272 48.6025 68.0409 48.3866L65.9754 43.2205H48.8928Z" fill="#008FB1"/>
</g>
<defs>
<filter id="filter0_d_371_7491" x="0.272723" y="0.0763789" width="116.95" height="134.689" filterUnits="userSpaceOnUse" color-interpolation-filters="sRGB">
<feFlood flood-opacity="0" result="BackgroundImageFix"/>
<feColorMatrix in="SourceAlpha" type="matrix" values="0 0 0 0 0 0 0 0 0 0 0 0 0 0 0 0 0 0 127 0" result="hardAlpha"/>
<feMorphology radius="0.65702" operator="erode" in="SourceAlpha" result="effect1_dropShadow_371_7491"/>
<feOffset dx="1.31404" dy="4.59914"/>
<feGaussianBlur stdDeviation="2.95659"/>
<feComposite in2="hardAlpha" operator="out"/>
<feColorMatrix type="matrix" values="0 0 0 0 0 0 0 0 0 0 0 0 0 0 0 0 0 0 0.06 0"/>
<feBlend mode="normal" in2="BackgroundImageFix" result="effect1_dropShadow_371_7491"/>
<feBlend mode="normal" in="SourceGraphic" in2="effect1_dropShadow_371_7491" result="shape"/>
</filter>
<filter id="filter1_d_371_7491" x="37.7235" y="37.5264" width="39.4212" height="32.3035" filterUnits="userSpaceOnUse" color-interpolation-filters="sRGB">
<feFlood flood-opacity="0" result="BackgroundImageFix"/>
<feColorMatrix in="SourceAlpha" type="matrix" values="0 0 0 0 0 0 0 0 0 0 0 0 0 0 0 0 0 0 127 0" result="hardAlpha"/>
<feOffset dy="2.62808"/>
<feGaussianBlur stdDeviation="1.31404"/>
<feComposite in2="hardAlpha" operator="out"/>
<feColorMatrix type="matrix" values="0 0 0 0 0.816903 0 0 0 0 0.816903 0 0 0 0 0.816903 0 0 0 1 0"/>
<feBlend mode="normal" in2="BackgroundImageFix" result="effect1_dropShadow_371_7491"/>
<feBlend mode="normal" in="SourceGraphic" in2="effect1_dropShadow_371_7491" result="shape"/>
</filter>
</defs>
</svg>
