<svg width="118" height="136" viewBox="0 0 118 136" fill="none" xmlns="http://www.w3.org/2000/svg">
<g filter="url(#filter0_d_371_7496)">
<rect x="4.45508" y="1.0752" width="106.437" height="124.177" rx="22.9957" fill="white"/>
</g>
<path d="M47.6322 86.1749C47.6322 86.5431 47.5454 86.8905 47.3717 87.2171C47.198 87.5436 46.9201 87.8111 46.5379 88.0195C46.1558 88.221 45.666 88.3218 45.0685 88.3218H43.7553V91.2607H42.5672V84.0175H45.0685C45.6243 84.0175 46.0933 84.1148 46.4754 84.3093C46.8645 84.4969 47.1528 84.754 47.3404 85.0806C47.535 85.4071 47.6322 85.7719 47.6322 86.1749ZM45.0685 87.3525C45.5201 87.3525 45.857 87.2518 46.0794 87.0503C46.3017 86.8419 46.4129 86.5501 46.4129 86.1749C46.4129 85.3828 45.9647 84.9868 45.0685 84.9868H43.7553V87.3525H45.0685ZM53.9659 85.5183V91.2607H52.7778V90.5833C52.5902 90.8195 52.3436 91.0071 52.0378 91.1461C51.7391 91.2781 51.4195 91.3441 51.079 91.3441C50.6274 91.3441 50.221 91.2503 49.8597 91.0627C49.5053 90.8751 49.2239 90.5972 49.0155 90.229C48.814 89.8607 48.7133 89.4161 48.7133 88.895V85.5183H49.8909V88.7178C49.8909 89.2319 50.0195 89.628 50.2765 89.9059C50.5336 90.1769 50.8845 90.3124 51.3292 90.3124C51.7738 90.3124 52.1247 90.1769 52.3818 89.9059C52.6458 89.628 52.7778 89.2319 52.7778 88.7178V85.5183H53.9659ZM56.7216 86.3729C56.9231 86.095 57.1975 85.8692 57.5449 85.6955C57.8993 85.5148 58.2918 85.4245 58.7226 85.4245C59.2298 85.4245 59.6883 85.5461 60.0983 85.7893C60.5082 86.0324 60.8313 86.3798 61.0675 86.8314C61.3037 87.2761 61.4219 87.7868 61.4219 88.3635C61.4219 88.9401 61.3037 89.4578 61.0675 89.9163C60.8313 90.3679 60.5047 90.7223 60.0879 90.9794C59.6779 91.2295 59.2228 91.3545 58.7226 91.3545C58.2779 91.3545 57.8819 91.2677 57.5345 91.094C57.194 90.9203 56.9231 90.698 56.7216 90.427V91.2607H55.5335V83.5486H56.7216V86.3729ZM60.2129 88.3635C60.2129 87.9674 60.1295 87.627 59.9628 87.3421C59.803 87.0503 59.5876 86.8314 59.3166 86.6855C59.0526 86.5327 58.7677 86.4563 58.462 86.4563C58.1633 86.4563 57.8784 86.5327 57.6074 86.6855C57.3434 86.8384 57.128 87.0607 56.9613 87.3525C56.8015 87.6443 56.7216 87.9883 56.7216 88.3843C56.7216 88.7803 56.8015 89.1277 56.9613 89.4265C57.128 89.7183 57.3434 89.9406 57.6074 90.0935C57.8784 90.2463 58.1633 90.3228 58.462 90.3228C58.7677 90.3228 59.0526 90.2463 59.3166 90.0935C59.5876 89.9337 59.803 89.7044 59.9628 89.4056C60.1295 89.1069 60.2129 88.7595 60.2129 88.3635ZM63.7849 83.5486V91.2607H62.5968V83.5486H63.7849ZM65.9492 84.7575C65.7338 84.7575 65.5532 84.6845 65.4072 84.5386C65.2613 84.3927 65.1884 84.2121 65.1884 83.9967C65.1884 83.7813 65.2613 83.6007 65.4072 83.4548C65.5532 83.3088 65.7338 83.2359 65.9492 83.2359C66.1576 83.2359 66.3348 83.3088 66.4807 83.4548C66.6266 83.6007 66.6996 83.7813 66.6996 83.9967C66.6996 84.2121 66.6266 84.3927 66.4807 84.5386C66.3348 84.6845 66.1576 84.7575 65.9492 84.7575ZM66.5328 85.5183V91.2607H65.3447V85.5183H66.5328ZM67.6966 88.3843C67.6966 87.7937 67.8148 87.2761 68.051 86.8314C68.2942 86.3798 68.6277 86.0324 69.0515 85.7893C69.4753 85.5461 69.9617 85.4245 70.5105 85.4245C71.2053 85.4245 71.7785 85.5912 72.2302 85.9247C72.6887 86.2513 72.9979 86.7203 73.1577 87.3317H71.8758C71.7716 87.0468 71.6048 86.8245 71.3756 86.6647C71.1463 86.5049 70.8579 86.425 70.5105 86.425C70.0242 86.425 69.6351 86.5987 69.3433 86.9461C69.0584 87.2865 68.916 87.7659 68.916 88.3843C68.916 89.0027 69.0584 89.4855 69.3433 89.8329C69.6351 90.1803 70.0242 90.354 70.5105 90.354C71.1984 90.354 71.6535 90.0518 71.8758 89.4473H73.1577C72.991 90.031 72.6783 90.4965 72.2197 90.8439C71.7612 91.1843 71.1914 91.3545 70.5105 91.3545C69.9617 91.3545 69.4753 91.233 69.0515 90.9898C68.6277 90.7396 68.2942 90.3923 68.051 89.9476C67.8148 89.496 67.6966 88.9749 67.6966 88.3843ZM45.1327 100.018V107.261H43.9446V102.3L41.7351 107.261H40.9118L38.6919 102.3V107.261H37.5038V100.018H38.7857L41.3287 105.697L43.8612 100.018H45.1327ZM46.2982 104.363C46.2982 103.787 46.4163 103.276 46.6525 102.831C46.8957 102.387 47.2223 102.043 47.6322 101.8C48.0491 101.55 48.5076 101.424 49.0079 101.424C49.4595 101.424 49.8521 101.515 50.1856 101.695C50.526 101.869 50.797 102.088 50.9985 102.352V101.518H52.197V107.261H50.9985V106.406C50.797 106.677 50.5225 106.903 50.1751 107.084C49.8277 107.264 49.4317 107.355 48.987 107.355C48.4937 107.355 48.0421 107.229 47.6322 106.979C47.2223 106.722 46.8957 106.368 46.6525 105.916C46.4163 105.458 46.2982 104.94 46.2982 104.363ZM50.9985 104.384C50.9985 103.988 50.9151 103.644 50.7483 103.353C50.5885 103.061 50.3766 102.838 50.1126 102.686C49.8486 102.533 49.5637 102.456 49.258 102.456C48.9523 102.456 48.6674 102.533 48.4034 102.686C48.1394 102.831 47.924 103.05 47.7573 103.342C47.5975 103.627 47.5176 103.967 47.5176 104.363C47.5176 104.759 47.5975 105.107 47.7573 105.406C47.924 105.704 48.1394 105.934 48.4034 106.093C48.6744 106.246 48.9593 106.323 49.258 106.323C49.5637 106.323 49.8486 106.246 50.1126 106.093C50.3766 105.941 50.5885 105.718 50.7483 105.426C50.9151 105.128 50.9985 104.78 50.9985 104.384ZM54.9456 102.352C55.1193 102.06 55.3486 101.834 55.6334 101.675C55.9252 101.508 56.2692 101.424 56.6652 101.424V102.654H56.363C55.8975 102.654 55.5431 102.772 55.2999 103.009C55.0637 103.245 54.9456 103.655 54.9456 104.238V107.261H53.7575V101.518H54.9456V102.352ZM60.0293 104.395L62.6764 107.261H61.0715L58.9454 104.791V107.261H57.7573V99.5486H58.9454V104.03L61.0298 101.518H62.6764L60.0293 104.395ZM68.7911 104.249C68.7911 104.464 68.7772 104.659 68.7494 104.832H64.3618C64.3965 105.291 64.5667 105.659 64.8724 105.937C65.1781 106.215 65.5533 106.354 65.998 106.354C66.6372 106.354 67.0888 106.087 67.3528 105.552H68.6347C68.461 106.08 68.1449 106.514 67.6863 106.854C67.2347 107.188 66.6719 107.355 65.998 107.355C65.4491 107.355 64.9558 107.233 64.5181 106.99C64.0873 106.74 63.7469 106.392 63.4967 105.948C63.2536 105.496 63.132 104.975 63.132 104.384C63.132 103.794 63.2501 103.276 63.4863 102.831C63.7295 102.38 64.0665 102.032 64.4972 101.789C64.935 101.546 65.4352 101.424 65.998 101.424C66.5399 101.424 67.0228 101.543 67.4466 101.779C67.8705 102.015 68.2005 102.349 68.4367 102.779C68.6729 103.203 68.7911 103.693 68.7911 104.249ZM67.5509 103.874C67.5439 103.436 67.3876 103.085 67.0819 102.821C66.7762 102.557 66.3975 102.425 65.9459 102.425C65.536 102.425 65.1851 102.557 64.8933 102.821C64.6015 103.078 64.4278 103.429 64.3722 103.874H67.5509ZM71.3464 102.488V105.666C71.3464 105.882 71.395 106.038 71.4923 106.135C71.5965 106.226 71.7702 106.271 72.0134 106.271H72.7429V107.261H71.8049C71.27 107.261 70.86 107.136 70.5752 106.886C70.2903 106.635 70.1479 106.229 70.1479 105.666V102.488H69.4704V101.518H70.1479V100.09H71.3464V101.518H72.7429V102.488H71.3464ZM75.9223 107.355C75.4707 107.355 75.0642 107.275 74.703 107.115C74.3486 106.948 74.0672 106.726 73.8588 106.448C73.6503 106.163 73.5392 105.847 73.5253 105.499H74.7551C74.7759 105.743 74.8905 105.948 75.099 106.114C75.3144 106.274 75.5819 106.354 75.9015 106.354C76.235 106.354 76.492 106.292 76.6727 106.166C76.8603 106.034 76.9541 105.868 76.9541 105.666C76.9541 105.451 76.8499 105.291 76.6414 105.187C76.4399 105.083 76.1169 104.968 75.6722 104.843C75.2414 104.725 74.8905 104.61 74.6196 104.499C74.3486 104.388 74.1124 104.218 73.9109 103.988C73.7163 103.759 73.6191 103.457 73.6191 103.082C73.6191 102.776 73.7094 102.498 73.89 102.248C74.0707 101.991 74.3278 101.789 74.6613 101.643C75.0017 101.497 75.3908 101.424 75.8285 101.424C76.4816 101.424 77.0062 101.591 77.4022 101.925C77.8052 102.251 78.0206 102.699 78.0484 103.269H76.8603C76.8394 103.012 76.7352 102.807 76.5476 102.654C76.36 102.501 76.1064 102.425 75.7868 102.425C75.4742 102.425 75.2345 102.484 75.0677 102.602C74.901 102.72 74.8176 102.877 74.8176 103.071C74.8176 103.224 74.8732 103.353 74.9843 103.457C75.0955 103.561 75.231 103.644 75.3908 103.707C75.5506 103.762 75.7868 103.835 76.0995 103.926C76.5164 104.037 76.8568 104.152 77.1208 104.27C77.3918 104.381 77.6246 104.548 77.8191 104.77C78.0136 104.992 78.1144 105.288 78.1213 105.656C78.1213 105.982 78.031 106.274 77.8504 106.531C77.6697 106.788 77.4126 106.99 77.0791 107.136C76.7526 107.282 76.367 107.355 75.9223 107.355Z" fill="#033F40"/>
<g clip-path="url(#clip0_371_7496)" filter="url(#filter1_d_371_7496)">
<g filter="url(#filter2_d_371_7496)">
<path d="M73.9654 47.4217L71.5474 39.2847C71.4732 39.0361 71.3586 38.8014 71.2207 38.5803C71.4254 38.3141 71.5474 37.9916 71.5474 37.6422C71.5474 36.735 70.7382 36 69.741 36H49.0479C48.0502 36 47.2419 36.7354 47.2419 37.6422C47.2419 38.096 47.4439 38.5066 47.7719 38.8042C47.6372 39.021 47.5259 39.2519 47.4533 39.4954L45.0356 47.6324C44.7083 48.734 45.1838 49.6638 46.1153 49.8853V65.9999H73.0371V49.6211C73.8631 49.3365 74.2731 48.4594 73.9654 47.4217ZM66.2099 40.6482L68.2529 47.5232C68.2843 47.6302 68.3313 47.7328 68.3761 47.8357C67.4637 49.1937 66.138 49.7835 64.6936 49.4568C63.4255 49.1708 62.5408 48.2862 62.5216 47.6587V40.9651C62.5216 40.8568 62.5036 40.7523 62.486 40.6483H66.2099V40.6482ZM50.7482 47.7342L52.8536 40.6482H56.3986C56.3806 40.7523 56.3631 40.8567 56.3631 40.965V47.7845L56.3586 47.7825C55.5156 49.2319 54.2128 49.8788 52.7858 49.5565C51.6029 49.2898 50.7782 48.4595 50.7782 47.8817H50.6893C50.7081 47.8319 50.7331 47.7848 50.7482 47.7342ZM65.4265 64.3274H50.902V59.0459H53.5085C53.7583 58.5334 54.3206 58.1749 54.9774 58.1749C55.6332 58.1749 56.1962 58.5334 56.4456 59.0459H61.7504C61.825 58.3018 62.5057 57.7172 63.3437 57.7172C64.1811 57.7172 64.862 58.3018 64.9362 59.0459H65.4267V64.3274H65.4265ZM53.8926 57.1445C53.8926 56.5761 54.4002 56.1149 55.0256 56.1149C55.6511 56.1149 56.1583 56.5762 56.1583 57.1445C56.1583 57.7136 55.6511 58.1749 55.0256 58.1749C54.4002 58.1749 53.8926 57.7136 53.8926 57.1445ZM62.2588 56.6868C62.2588 56.1184 62.766 55.657 63.3915 55.657C64.0171 55.657 64.5243 56.1185 64.5243 56.6868C64.5243 57.2557 64.017 57.7172 63.3915 57.7172C62.766 57.7172 62.2588 57.2557 62.2588 56.6868ZM71.643 64.7325H69.8614V54.0464H49.4111V64.7325H47.5096V49.9545L47.9189 49.9617C48.8876 49.9795 49.8979 49.3178 50.4451 48.3982C50.7577 49.0857 51.6334 49.7323 52.6746 49.9672C52.8779 50.0129 53.1618 50.0578 53.4948 50.0578C54.3153 50.0578 55.4321 49.7835 56.3665 48.5809C56.3841 49.7269 57.4144 50.2431 58.6871 50.2431H60.1975C61.2952 50.2431 62.2088 49.5492 62.4528 48.6193C62.9024 49.1814 63.6875 49.6657 64.5823 49.8672C64.7998 49.9165 65.1046 49.9644 65.4608 49.9644C66.3622 49.9644 67.5961 49.654 68.613 48.282C69.171 49.1519 70.1463 49.7673 71.0818 49.7506L71.643 49.7407V64.7325V64.7325Z" fill="#039800"/>
</g>
</g>
<defs>
<filter id="filter0_d_371_7496" x="0.512957" y="0.418176" width="116.95" height="134.689" filterUnits="userSpaceOnUse" color-interpolation-filters="sRGB">
<feFlood flood-opacity="0" result="BackgroundImageFix"/>
<feColorMatrix in="SourceAlpha" type="matrix" values="0 0 0 0 0 0 0 0 0 0 0 0 0 0 0 0 0 0 127 0" result="hardAlpha"/>
<feMorphology radius="0.65702" operator="erode" in="SourceAlpha" result="effect1_dropShadow_371_7496"/>
<feOffset dx="1.31404" dy="4.59914"/>
<feGaussianBlur stdDeviation="2.95659"/>
<feComposite in2="hardAlpha" operator="out"/>
<feColorMatrix type="matrix" values="0 0 0 0 0 0 0 0 0 0 0 0 0 0 0 0 0 0 0.06 0"/>
<feBlend mode="normal" in2="BackgroundImageFix" result="effect1_dropShadow_371_7496"/>
<feBlend mode="normal" in="SourceGraphic" in2="effect1_dropShadow_371_7496" result="shape"/>
</filter>
<filter id="filter1_d_371_7496" x="39" y="36" width="41" height="38" filterUnits="userSpaceOnUse" color-interpolation-filters="sRGB">
<feFlood flood-opacity="0" result="BackgroundImageFix"/>
<feColorMatrix in="SourceAlpha" type="matrix" values="0 0 0 0 0 0 0 0 0 0 0 0 0 0 0 0 0 0 127 0" result="hardAlpha"/>
<feOffset dy="4"/>
<feGaussianBlur stdDeviation="2"/>
<feComposite in2="hardAlpha" operator="out"/>
<feColorMatrix type="matrix" values="0 0 0 0 0 0 0 0 0 0 0 0 0 0 0 0 0 0 0.25 0"/>
<feBlend mode="normal" in2="BackgroundImageFix" result="effect1_dropShadow_371_7496"/>
<feBlend mode="normal" in="SourceGraphic" in2="effect1_dropShadow_371_7496" result="shape"/>
</filter>
<filter id="filter2_d_371_7496" x="39.9324" y="35" width="39.1353" height="39.9999" filterUnits="userSpaceOnUse" color-interpolation-filters="sRGB">
<feFlood flood-opacity="0" result="BackgroundImageFix"/>
<feColorMatrix in="SourceAlpha" type="matrix" values="0 0 0 0 0 0 0 0 0 0 0 0 0 0 0 0 0 0 127 0" result="hardAlpha"/>
<feOffset dy="4"/>
<feGaussianBlur stdDeviation="2.5"/>
<feComposite in2="hardAlpha" operator="out"/>
<feColorMatrix type="matrix" values="0 0 0 0 0 0 0 0 0 0 0 0 0 0 0 0 0 0 0.25 0"/>
<feBlend mode="normal" in2="BackgroundImageFix" result="effect1_dropShadow_371_7496"/>
<feBlend mode="normal" in="SourceGraphic" in2="effect1_dropShadow_371_7496" result="shape"/>
</filter>
<clipPath id="clip0_371_7496">
<rect width="33" height="30" fill="white" transform="translate(43 36)"/>
</clipPath>
</defs>
</svg>
