<svg width="118" height="136" viewBox="0 0 118 136" fill="none" xmlns="http://www.w3.org/2000/svg">
<g filter="url(#filter0_d_688_8071)">
<rect x="4" y="1" width="106.437" height="124.177" rx="22.9957" fill="white"/>
</g>
<path d="M53.7189 90.7568V98H52.5308V93.0392L50.3213 98H49.498L47.2781 93.0392V98H46.09V90.7568H47.3719L49.9149 96.4367L52.4474 90.7568H53.7189ZM54.8844 95.1027C54.8844 94.526 55.0025 94.0154 55.2388 93.5707C55.4819 93.126 55.8085 92.7821 56.2184 92.5389C56.6353 92.2888 57.0938 92.1637 57.5941 92.1637C58.0457 92.1637 58.4383 92.2541 58.7718 92.4347C59.1122 92.6084 59.3832 92.8273 59.5847 93.0913V92.2575H60.7832V98H59.5847V97.1454C59.3832 97.4164 59.1087 97.6422 58.7613 97.8228C58.414 98.0035 58.0179 98.0938 57.5733 98.0938C57.08 98.0938 56.6283 97.9687 56.2184 97.7186C55.8085 97.4615 55.4819 97.1072 55.2388 96.6556C55.0025 96.197 54.8844 95.6794 54.8844 95.1027ZM59.5847 95.1236C59.5847 94.7275 59.5013 94.3836 59.3346 94.0918C59.1747 93.8 58.9628 93.5776 58.6988 93.4248C58.4348 93.2719 58.1499 93.1955 57.8442 93.1955C57.5385 93.1955 57.2536 93.2719 56.9896 93.4248C56.7256 93.5707 56.5102 93.7896 56.3435 94.0814C56.1837 94.3662 56.1038 94.7067 56.1038 95.1027C56.1038 95.4987 56.1837 95.8461 56.3435 96.1449C56.5102 96.4437 56.7256 96.6729 56.9896 96.8327C57.2606 96.9856 57.5455 97.062 57.8442 97.062C58.1499 97.062 58.4348 96.9856 58.6988 96.8327C58.9628 96.6799 59.1747 96.4576 59.3346 96.1657C59.5013 95.867 59.5847 95.5196 59.5847 95.1236ZM63.5318 90.2878V98H62.3437V90.2878H63.5318ZM66.2798 90.2878V98H65.0917V90.2878H66.2798ZM69.924 98.0938C69.4724 98.0938 69.0659 98.0139 68.7046 97.8541C68.3503 97.6873 68.0689 97.465 67.8605 97.1871C67.652 96.9022 67.5409 96.5861 67.527 96.2387H68.7567C68.7776 96.4819 68.8922 96.6868 69.1007 96.8536C69.3161 97.0134 69.5835 97.0933 69.9031 97.0933C70.2366 97.0933 70.4937 97.0308 70.6744 96.9057C70.862 96.7737 70.9558 96.6069 70.9558 96.4055C70.9558 96.1901 70.8515 96.0303 70.6431 95.926C70.4416 95.8218 70.1185 95.7072 69.6739 95.5821C69.2431 95.464 68.8922 95.3494 68.6213 95.2382C68.3503 95.127 68.1141 94.9568 67.9126 94.7275C67.718 94.4982 67.6208 94.196 67.6208 93.8208C67.6208 93.5151 67.7111 93.2372 67.8917 92.9871C68.0724 92.73 68.3294 92.5285 68.6629 92.3826C69.0034 92.2367 69.3925 92.1637 69.8302 92.1637C70.4833 92.1637 71.0079 92.3305 71.4039 92.664C71.8069 92.9905 72.0223 93.4387 72.0501 94.0084H70.862C70.8411 93.7513 70.7369 93.5464 70.5493 93.3935C70.3617 93.2407 70.1081 93.1642 69.7885 93.1642C69.4759 93.1642 69.2361 93.2233 69.0694 93.3414C68.9026 93.4595 68.8193 93.6159 68.8193 93.8104C68.8193 93.9633 68.8749 94.0918 68.986 94.196C69.0972 94.3002 69.2327 94.3836 69.3925 94.4461C69.5523 94.5017 69.7885 94.5747 70.1012 94.665C70.518 94.7762 70.8585 94.8908 71.1225 95.0089C71.3935 95.1201 71.6262 95.2868 71.8208 95.5092C72.0153 95.7315 72.1161 96.0268 72.123 96.395C72.123 96.7216 72.0327 97.0134 71.852 97.2705C71.6714 97.5275 71.4143 97.729 71.0808 97.8749C70.7543 98.0208 70.3687 98.0938 69.924 98.0938Z" fill="#033F40"/>
<g clip-path="url(#clip0_688_8071)" filter="url(#filter1_d_688_8071)">
<g filter="url(#filter2_d_688_8071)">
<path d="M73.5104 47.3465L71.0923 39.2095C71.0181 38.961 70.9035 38.7262 70.7657 38.5051C70.9704 38.2389 71.0923 37.9164 71.0923 37.567C71.0923 36.6598 70.2831 35.9248 69.2859 35.9248H48.5928C47.5951 35.9248 46.7868 36.6602 46.7868 37.567C46.7868 38.0208 46.9888 38.4314 47.3168 38.729C47.1821 38.9458 47.0708 39.1767 46.9982 39.4202L44.5805 47.5572C44.2532 48.6588 44.7287 49.5886 45.6602 49.8101V65.9247H72.5821V49.5459C73.408 49.2613 73.818 48.3842 73.5104 47.3465ZM65.7548 40.573L67.7978 47.448C67.8292 47.555 67.8762 47.6576 67.921 47.7605C67.0086 49.1185 65.6829 49.7083 64.2385 49.3816C62.9705 49.0956 62.0857 48.211 62.0665 47.5835V40.8899C62.0665 40.7816 62.0486 40.6771 62.031 40.5731H65.7548V40.573ZM50.2931 47.659L52.3985 40.573H55.9435C55.9255 40.6771 55.908 40.7815 55.908 40.8898V47.7093L55.9035 47.7073C55.0606 49.1567 53.7577 49.8036 52.3307 49.4813C51.1478 49.2146 50.3232 48.3843 50.3232 47.8065H50.2342C50.2531 47.7567 50.278 47.7096 50.2931 47.659ZM64.9714 64.2522H50.4469V58.9707H53.0534C53.3032 58.4582 53.8655 58.0997 54.5223 58.0997C55.1781 58.0997 55.7411 58.4582 55.9905 58.9707H61.2954C61.3699 58.2266 62.0506 57.642 62.8887 57.642C63.726 57.642 64.4069 58.2266 64.4811 58.9707H64.9716V64.2522H64.9714ZM53.4375 57.0693C53.4375 56.5009 53.9451 56.0397 54.5706 56.0397C55.196 56.0397 55.7032 56.501 55.7032 57.0693C55.7032 57.6384 55.196 58.0997 54.5706 58.0997C53.9451 58.0997 53.4375 57.6384 53.4375 57.0693ZM61.8038 56.6116C61.8038 56.0432 62.311 55.5818 62.9364 55.5818C63.562 55.5818 64.0692 56.0433 64.0692 56.6116C64.0692 57.1805 63.5619 57.642 62.9364 57.642C62.311 57.642 61.8038 57.1805 61.8038 56.6116ZM71.1879 64.6573H69.4063V53.9712H48.956V64.6573H47.0545V49.8793L47.4638 49.8865C48.4325 49.9043 49.4428 49.2426 49.99 48.323C50.3026 49.0105 51.1783 49.6571 52.2195 49.892C52.4228 49.9377 52.7067 49.9826 53.0398 49.9826C53.8602 49.9826 54.977 49.7083 55.9115 48.5057C55.9291 49.6517 56.9593 50.1679 58.232 50.1679H59.7425C60.8401 50.1679 61.7537 49.474 61.9977 48.5441C62.4473 49.1062 63.2324 49.5905 64.1272 49.792C64.3447 49.8413 64.6495 49.8892 65.0057 49.8892C65.9071 49.8892 67.141 49.5788 68.1579 48.2068C68.7159 49.0767 69.6912 49.6921 70.6267 49.6754L71.1879 49.6656V64.6573V64.6573Z" fill="#039800"/>
</g>
</g>
<defs>
<filter id="filter0_d_688_8071" x="0.0578793" y="0.342981" width="116.95" height="134.689" filterUnits="userSpaceOnUse" color-interpolation-filters="sRGB">
<feFlood flood-opacity="0" result="BackgroundImageFix"/>
<feColorMatrix in="SourceAlpha" type="matrix" values="0 0 0 0 0 0 0 0 0 0 0 0 0 0 0 0 0 0 127 0" result="hardAlpha"/>
<feMorphology radius="0.65702" operator="erode" in="SourceAlpha" result="effect1_dropShadow_688_8071"/>
<feOffset dx="1.31404" dy="4.59914"/>
<feGaussianBlur stdDeviation="2.95659"/>
<feComposite in2="hardAlpha" operator="out"/>
<feColorMatrix type="matrix" values="0 0 0 0 0 0 0 0 0 0 0 0 0 0 0 0 0 0 0.06 0"/>
<feBlend mode="normal" in2="BackgroundImageFix" result="effect1_dropShadow_688_8071"/>
<feBlend mode="normal" in="SourceGraphic" in2="effect1_dropShadow_688_8071" result="shape"/>
</filter>
<filter id="filter1_d_688_8071" x="38.5449" y="35.9248" width="41" height="38" filterUnits="userSpaceOnUse" color-interpolation-filters="sRGB">
<feFlood flood-opacity="0" result="BackgroundImageFix"/>
<feColorMatrix in="SourceAlpha" type="matrix" values="0 0 0 0 0 0 0 0 0 0 0 0 0 0 0 0 0 0 127 0" result="hardAlpha"/>
<feOffset dy="4"/>
<feGaussianBlur stdDeviation="2"/>
<feComposite in2="hardAlpha" operator="out"/>
<feColorMatrix type="matrix" values="0 0 0 0 0 0 0 0 0 0 0 0 0 0 0 0 0 0 0.25 0"/>
<feBlend mode="normal" in2="BackgroundImageFix" result="effect1_dropShadow_688_8071"/>
<feBlend mode="normal" in="SourceGraphic" in2="effect1_dropShadow_688_8071" result="shape"/>
</filter>
<filter id="filter2_d_688_8071" x="39.4773" y="34.9248" width="39.1353" height="40" filterUnits="userSpaceOnUse" color-interpolation-filters="sRGB">
<feFlood flood-opacity="0" result="BackgroundImageFix"/>
<feColorMatrix in="SourceAlpha" type="matrix" values="0 0 0 0 0 0 0 0 0 0 0 0 0 0 0 0 0 0 127 0" result="hardAlpha"/>
<feOffset dy="4"/>
<feGaussianBlur stdDeviation="2.5"/>
<feComposite in2="hardAlpha" operator="out"/>
<feColorMatrix type="matrix" values="0 0 0 0 0 0 0 0 0 0 0 0 0 0 0 0 0 0 0.25 0"/>
<feBlend mode="normal" in2="BackgroundImageFix" result="effect1_dropShadow_688_8071"/>
<feBlend mode="normal" in="SourceGraphic" in2="effect1_dropShadow_688_8071" result="shape"/>
</filter>
<clipPath id="clip0_688_8071">
<rect width="33" height="30" fill="white" transform="translate(42.5449 35.9248)"/>
</clipPath>
</defs>
</svg>
