<svg width="118" height="135" viewBox="0 0 118 135" fill="none" xmlns="http://www.w3.org/2000/svg">
<g filter="url(#filter0_d_438_7603)">
<rect x="4.78516" y="0.664062" width="106.437" height="124.177" rx="22.9957" fill="white"/>
</g>
<path d="M34.8323 94.7568L32.6853 102H31.3409L29.8193 96.5181L28.2039 102L26.8699 102.01L24.8168 94.7568H26.0779L27.5786 100.656L29.2044 94.7568H30.5384L32.0496 100.624L33.5608 94.7568H34.8323ZM35.4161 99.1027C35.4161 98.526 35.5342 98.0154 35.7705 97.5707C36.0136 97.126 36.3402 96.7821 36.7501 96.5389C37.167 96.2888 37.6256 96.1637 38.1258 96.1637C38.5774 96.1637 38.97 96.2541 39.3035 96.4347C39.6439 96.6084 39.9149 96.8273 40.1164 97.0913V96.2575H41.3149V102H40.1164V101.145C39.9149 101.416 39.6405 101.642 39.2931 101.823C38.9457 102.003 38.5496 102.094 38.105 102.094C37.6117 102.094 37.16 101.969 36.7501 101.719C36.3402 101.462 36.0136 101.107 35.7705 100.656C35.5342 100.197 35.4161 99.6794 35.4161 99.1027ZM40.1164 99.1236C40.1164 98.7275 40.033 98.3836 39.8663 98.0918C39.7065 97.8 39.4946 97.5776 39.2305 97.4248C38.9665 97.2719 38.6816 97.1955 38.3759 97.1955C38.0702 97.1955 37.7854 97.2719 37.5213 97.4248C37.2573 97.5707 37.0419 97.7896 36.8752 98.0814C36.7154 98.3662 36.6355 98.7067 36.6355 99.1027C36.6355 99.4987 36.7154 99.8461 36.8752 100.145C37.0419 100.444 37.2573 100.673 37.5213 100.833C37.7923 100.986 38.0772 101.062 38.3759 101.062C38.6816 101.062 38.9665 100.986 39.2305 100.833C39.4946 100.68 39.7065 100.458 39.8663 100.166C40.033 99.867 40.1164 99.5196 40.1164 99.1236ZM44.2615 97.2268V100.405C44.2615 100.621 44.3102 100.777 44.4074 100.874C44.5117 100.965 44.6854 101.01 44.9285 101.01H45.6581V102H44.7201C44.1851 102 43.7752 101.875 43.4903 101.625C43.2054 101.375 43.063 100.968 43.063 100.405V97.2268H42.3856V96.2575H43.063V94.8297H44.2615V96.2575H45.6581V97.2268H44.2615ZM52.0161 98.9881C52.0161 99.2035 52.0022 99.398 51.9745 99.5717H47.5868C47.6216 100.03 47.7918 100.399 48.0975 100.676C48.4032 100.954 48.7784 101.093 49.2231 101.093C49.8623 101.093 50.3139 100.826 50.5779 100.291H51.8598C51.6861 100.819 51.37 101.253 50.9114 101.594C50.4598 101.927 49.897 102.094 49.2231 102.094C48.6742 102.094 48.1809 101.972 47.7432 101.729C47.3124 101.479 46.972 101.132 46.7218 100.687C46.4786 100.235 46.3571 99.7141 46.3571 99.1236C46.3571 98.533 46.4752 98.0154 46.7114 97.5707C46.9546 97.1191 47.2916 96.7717 47.7223 96.5285C48.16 96.2853 48.6603 96.1637 49.2231 96.1637C49.765 96.1637 50.2479 96.2819 50.6717 96.5181C51.0955 96.7543 51.4256 97.0878 51.6618 97.5186C51.898 97.9424 52.0161 98.4322 52.0161 98.9881ZM50.7759 98.6129C50.769 98.1752 50.6127 97.8243 50.307 97.5603C50.0012 97.2963 49.6226 97.1642 49.171 97.1642C48.761 97.1642 48.4102 97.2963 48.1184 97.5603C47.8265 97.8174 47.6528 98.1682 47.5973 98.6129H50.7759ZM54.3734 97.0913C54.5471 96.7995 54.7764 96.5737 55.0613 96.4139C55.3531 96.2471 55.697 96.1637 56.0931 96.1637V97.3935H55.7908C55.3253 97.3935 54.971 97.5116 54.7278 97.7479C54.4916 97.9841 54.3734 98.394 54.3734 98.9777V102H53.1853V96.2575H54.3734V97.0913ZM62.279 102.073C61.7927 102.073 61.3549 101.99 60.9659 101.823C60.5768 101.649 60.2711 101.406 60.0487 101.093C59.8264 100.781 59.7152 100.416 59.7152 99.999H60.9867C61.0145 100.312 61.1361 100.569 61.3515 100.77C61.5738 100.972 61.883 101.072 62.279 101.072C62.6889 101.072 63.0085 100.975 63.2378 100.781C63.4671 100.579 63.5817 100.322 63.5817 100.009C63.5817 99.7662 63.5088 99.5682 63.3629 99.4154C63.2239 99.2625 63.0468 99.1444 62.8314 99.061C62.6229 98.9777 62.3311 98.8873 61.9559 98.7901C61.4835 98.665 61.0979 98.5399 60.7991 98.4149C60.5073 98.2829 60.2572 98.0814 60.0487 97.8104C59.8403 97.5394 59.7361 97.1781 59.7361 96.7265C59.7361 96.3097 59.8403 95.9449 60.0487 95.6322C60.2572 95.3196 60.549 95.0799 60.9242 94.9131C61.2994 94.7464 61.7336 94.663 62.2269 94.663C62.9286 94.663 63.5018 94.8402 63.9465 95.1945C64.3981 95.5419 64.6482 96.0213 64.6969 96.6327H63.3837C63.3629 96.3687 63.2378 96.1429 63.0085 95.9553C62.7793 95.7677 62.477 95.6739 62.1018 95.6739C61.7614 95.6739 61.4835 95.7608 61.2681 95.9345C61.0527 96.1082 60.945 96.3583 60.945 96.6848C60.945 96.9072 61.011 97.0913 61.143 97.2372C61.282 97.3762 61.4557 97.4873 61.6641 97.5707C61.8726 97.6541 62.1574 97.7444 62.5187 97.8417C62.9981 97.9737 63.3872 98.1057 63.686 98.2377C63.9917 98.3697 64.2487 98.5747 64.4572 98.8526C64.6726 99.1236 64.7803 99.4883 64.7803 99.9469C64.7803 100.315 64.6795 100.663 64.478 100.989C64.2835 101.316 63.9951 101.58 63.613 101.781C63.2378 101.976 62.7932 102.073 62.279 102.073ZM67.5683 97.2268V100.405C67.5683 100.621 67.6169 100.777 67.7142 100.874C67.8184 100.965 67.9921 101.01 68.2353 101.01H68.9648V102H68.0268C67.4918 102 67.0819 101.875 66.7971 101.625C66.5122 101.375 66.3698 100.968 66.3698 100.405V97.2268H65.6923V96.2575H66.3698V94.8297H67.5683V96.2575H68.9648V97.2268H67.5683ZM69.6638 99.1027C69.6638 98.526 69.7819 98.0154 70.0181 97.5707C70.2613 97.126 70.5879 96.7821 70.9978 96.5389C71.4147 96.2888 71.8732 96.1637 72.3735 96.1637C72.8251 96.1637 73.2177 96.2541 73.5512 96.4347C73.8916 96.6084 74.1626 96.8273 74.3641 97.0913V96.2575H75.5626V102H74.3641V101.145C74.1626 101.416 73.8881 101.642 73.5407 101.823C73.1933 102.003 72.7973 102.094 72.3526 102.094C71.8593 102.094 71.4077 101.969 70.9978 101.719C70.5879 101.462 70.2613 101.107 70.0181 100.656C69.7819 100.197 69.6638 99.6794 69.6638 99.1027ZM74.3641 99.1236C74.3641 98.7275 74.2807 98.3836 74.1139 98.0918C73.9541 97.8 73.7422 97.5776 73.4782 97.4248C73.2142 97.2719 72.9293 97.1955 72.6236 97.1955C72.3179 97.1955 72.033 97.2719 71.769 97.4248C71.505 97.5707 71.2896 97.7896 71.1229 98.0814C70.9631 98.3662 70.8832 98.7067 70.8832 99.1027C70.8832 99.4987 70.9631 99.8461 71.1229 100.145C71.2896 100.444 71.505 100.673 71.769 100.833C72.04 100.986 72.3249 101.062 72.6236 101.062C72.9293 101.062 73.2142 100.986 73.4782 100.833C73.7422 100.68 73.9541 100.458 74.1139 100.166C74.2807 99.867 74.3641 99.5196 74.3641 99.1236ZM78.5092 97.2268V100.405C78.5092 100.621 78.5578 100.777 78.6551 100.874C78.7593 100.965 78.933 101.01 79.1762 101.01H79.9057V102H78.9678C78.4328 102 78.0229 101.875 77.738 101.625C77.4531 101.375 77.3107 100.968 77.3107 100.405V97.2268H76.6333V96.2575H77.3107V94.8297H78.5092V96.2575H79.9057V97.2268H78.5092ZM81.6052 95.4967C81.3899 95.4967 81.2092 95.4238 81.0633 95.2779C80.9174 95.132 80.8444 94.9513 80.8444 94.7359C80.8444 94.5206 80.9174 94.3399 81.0633 94.194C81.2092 94.0481 81.3899 93.9752 81.6052 93.9752C81.8137 93.9752 81.9909 94.0481 82.1368 94.194C82.2827 94.3399 82.3556 94.5206 82.3556 94.7359C82.3556 94.9513 82.2827 95.132 82.1368 95.2779C81.9909 95.4238 81.8137 95.4967 81.6052 95.4967ZM82.1889 96.2575V102H81.0008V96.2575H82.1889ZM86.2396 102.094C85.6976 102.094 85.2078 101.972 84.7701 101.729C84.3324 101.479 83.9884 101.132 83.7383 100.687C83.4882 100.235 83.3631 99.7141 83.3631 99.1236C83.3631 98.5399 83.4917 98.0223 83.7487 97.5707C84.0058 97.1191 84.3567 96.7717 84.8013 96.5285C85.246 96.2853 85.7428 96.1637 86.2917 96.1637C86.8406 96.1637 87.3373 96.2853 87.782 96.5285C88.2267 96.7717 88.5775 97.1191 88.8346 97.5707C89.0917 98.0223 89.2202 98.5399 89.2202 99.1236C89.2202 99.7072 89.0882 100.225 88.8242 100.676C88.5602 101.128 88.1989 101.479 87.7403 101.729C87.2887 101.972 86.7884 102.094 86.2396 102.094ZM86.2396 101.062C86.5453 101.062 86.8301 100.989 87.0942 100.843C87.3651 100.697 87.584 100.478 87.7507 100.187C87.9175 99.8948 88.0009 99.5404 88.0009 99.1236C88.0009 98.7067 87.921 98.3558 87.7612 98.071C87.6014 97.7791 87.3894 97.5603 87.1254 97.4144C86.8614 97.2685 86.5765 97.1955 86.2708 97.1955C85.9651 97.1955 85.6803 97.2685 85.4162 97.4144C85.1592 97.5603 84.9542 97.7791 84.8013 98.071C84.6485 98.3558 84.5721 98.7067 84.5721 99.1236C84.5721 99.7419 84.7284 100.221 85.041 100.562C85.3606 100.895 85.7602 101.062 86.2396 101.062ZM93.292 96.1637C93.7436 96.1637 94.1466 96.2575 94.5009 96.4451C94.8622 96.6327 95.1436 96.9106 95.3451 97.2789C95.5466 97.6471 95.6474 98.0918 95.6474 98.6129V102H94.4697V98.7901C94.4697 98.2759 94.3411 97.8834 94.0841 97.6124C93.827 97.3345 93.4761 97.1955 93.0315 97.1955C92.5868 97.1955 92.2324 97.3345 91.9684 97.6124C91.7114 97.8834 91.5828 98.2759 91.5828 98.7901V102H90.3947V96.2575H91.5828V96.9141C91.7774 96.6779 92.024 96.4938 92.3228 96.3618C92.6285 96.2298 92.9516 96.1637 93.292 96.1637Z" fill="#033F40"/>
<g clip-path="url(#clip0_438_7603)">
<g filter="url(#filter1_d_438_7603)">
<path d="M68.4657 59.1475C68.3 57.096 67.7102 55.1217 66.968 53.2014C66.0594 50.8506 66.2454 47.5264 67.5922 45.7835C68.2782 44.896 68.5797 43.7592 68.5743 42.6374C68.536 35.3694 64.5875 33.635 63.4868 33.2928C63.2539 33.2202 63.0571 33.0702 62.936 32.8577C62.6875 32.4249 62.5446 31.8413 62.4625 31.2858C62.3875 30.7772 61.9438 30.417 61.4313 30.46C61.1282 30.4858 60.8118 30.4999 60.4844 30.4999C60.1571 30.4999 59.8407 30.4858 59.5375 30.46C59.025 30.417 58.5813 30.7772 58.5063 31.2858C58.4243 31.8413 58.2813 32.4249 58.0329 32.8577C57.9118 33.0694 57.7149 33.2202 57.4821 33.2928C56.3813 33.635 52.4321 35.3702 52.3946 42.6374C52.3891 43.7592 52.6899 44.896 53.3766 45.7835C54.7243 47.5264 54.9094 50.8506 54.0008 53.2014C53.2586 55.121 52.6696 57.096 52.5032 59.1475C52.2297 62.5256 51.9766 67.2217 52.3266 70.3741C52.3266 71.8756 54.525 73.0928 60.0313 73.0928C65.5375 73.0928 68.6422 71.8756 68.6422 70.3741C68.9922 67.2225 68.7391 62.5264 68.4657 59.1475Z" fill="#DAE7EF"/>
<path d="M52.4095 42.2722C52.4063 42.3964 52.3954 42.5105 52.3946 42.6378C52.3884 43.7597 52.6907 44.8964 53.3767 45.7839C54.7243 47.5269 54.9095 50.8511 54.0009 53.2019C53.2587 55.1214 52.6696 57.0964 52.5032 59.148C52.4938 59.2628 52.4853 59.3902 52.4759 59.5082C54.5259 60.0621 57.3524 60.4066 60.4845 60.4066C63.6165 60.4066 66.4431 60.0621 68.4931 59.5089C68.4837 59.391 68.4751 59.2636 68.4657 59.1488C68.3001 57.0972 67.7103 55.1222 66.9681 53.2027C66.0595 50.8519 66.2446 47.5277 67.5923 45.7847C68.2782 44.8972 68.5798 43.7605 68.5743 42.6386C68.5735 42.5105 68.5626 42.3972 68.5595 42.273C66.5048 42.8355 63.6501 43.1878 60.4845 43.1878C57.3188 43.1878 54.4634 42.8355 52.4095 42.2722Z" fill="#3DABEF"/>
<path d="M58.7202 70.2498C57.128 70.2498 55.9827 69.8833 55.3116 69.1591C54.7296 68.531 54.7085 67.8474 54.7186 67.6248V66.7498C54.7186 66.3177 55.0679 65.9685 55.4999 65.9685C55.9319 65.9685 56.2811 66.3177 56.2811 66.7498L56.2757 67.7373C56.278 67.7373 56.2843 67.9279 56.4858 68.1271C56.7249 68.3623 57.3858 68.7529 59.0952 68.6802C59.535 68.6529 59.8905 68.999 59.9061 69.4302C59.9225 69.8615 59.5874 70.2248 59.1561 70.2412C59.0069 70.2466 58.8616 70.2498 58.7202 70.2498Z" fill="white"/>
<path d="M55.4993 64.812C55.0672 64.812 54.718 64.4628 54.718 64.0308V63.1167C54.718 62.6847 55.0672 62.3354 55.4993 62.3354C55.9313 62.3354 56.2805 62.6847 56.2805 63.1167V64.0308C56.2805 64.4628 55.9313 64.812 55.4993 64.812Z" fill="white"/>
<path d="M56.4071 40.3436C56.361 40.3436 56.3157 40.3397 56.268 40.3311C55.8438 40.2546 55.561 39.8491 55.6368 39.4241C56.154 36.5358 58.6782 35.285 58.7844 35.2335C59.1766 35.0475 59.6407 35.21 59.8282 35.5967C60.0149 35.9842 59.854 36.4506 59.4673 36.6389C59.429 36.6577 57.5469 37.6225 57.1743 39.7006C57.1071 40.078 56.7782 40.3436 56.4071 40.3436Z" fill="white"/>
<path d="M60.4845 27.7812C59.083 27.7812 57.947 28.1602 57.947 28.6273V31.1648C57.947 31.632 59.083 32.0109 60.4845 32.0109C61.8861 32.0109 63.022 31.632 63.022 31.1648V28.6273C63.022 28.1602 61.8861 27.7812 60.4845 27.7812Z" fill="#003879"/>
<path d="M60.3656 29.9922H59.7305C59.5148 29.9922 59.3398 29.8172 59.3398 29.6016C59.3398 29.3859 59.5148 29.2109 59.7305 29.2109H60.3656C60.5812 29.2109 60.7562 29.3859 60.7562 29.6016C60.7562 29.8172 60.5812 29.9922 60.3656 29.9922Z" fill="#1A69B7"/>
</g>
</g>
<defs>
<filter id="filter0_d_438_7603" x="0.843036" y="0.007043" width="116.95" height="134.689" filterUnits="userSpaceOnUse" color-interpolation-filters="sRGB">
<feFlood flood-opacity="0" result="BackgroundImageFix"/>
<feColorMatrix in="SourceAlpha" type="matrix" values="0 0 0 0 0 0 0 0 0 0 0 0 0 0 0 0 0 0 127 0" result="hardAlpha"/>
<feMorphology radius="0.65702" operator="erode" in="SourceAlpha" result="effect1_dropShadow_438_7603"/>
<feOffset dx="1.31404" dy="4.59914"/>
<feGaussianBlur stdDeviation="2.95659"/>
<feComposite in2="hardAlpha" operator="out"/>
<feColorMatrix type="matrix" values="0 0 0 0 0 0 0 0 0 0 0 0 0 0 0 0 0 0 0.06 0"/>
<feBlend mode="normal" in2="BackgroundImageFix" result="effect1_dropShadow_438_7603"/>
<feBlend mode="normal" in="SourceGraphic" in2="effect1_dropShadow_438_7603" result="shape"/>
</filter>
<filter id="filter1_d_438_7603" x="49.0308" y="27.7812" width="22.9072" height="51.5615" filterUnits="userSpaceOnUse" color-interpolation-filters="sRGB">
<feFlood flood-opacity="0" result="BackgroundImageFix"/>
<feColorMatrix in="SourceAlpha" type="matrix" values="0 0 0 0 0 0 0 0 0 0 0 0 0 0 0 0 0 0 127 0" result="hardAlpha"/>
<feOffset dy="3.125"/>
<feGaussianBlur stdDeviation="1.5625"/>
<feComposite in2="hardAlpha" operator="out"/>
<feColorMatrix type="matrix" values="0 0 0 0 0 0 0 0 0 0 0 0 0 0 0 0 0 0 0.25 0"/>
<feBlend mode="normal" in2="BackgroundImageFix" result="effect1_dropShadow_438_7603"/>
<feBlend mode="normal" in="SourceGraphic" in2="effect1_dropShadow_438_7603" result="shape"/>
</filter>
<clipPath id="clip0_438_7603">
<rect width="45.3125" height="50" fill="white" transform="translate(37.8281 27)"/>
</clipPath>
</defs>
</svg>
