<svg width="118" height="136" viewBox="0 0 118 136" fill="none" xmlns="http://www.w3.org/2000/svg">
<g filter="url(#filter0_d_371_7506)">
<rect x="4" y="1" width="106.437" height="124.177" rx="22.9957" fill="white"/>
</g>
<path d="M48.1237 89.8535V90.8227H46.1956V97.0967H45.0075V90.8227H43.0691V89.8535H48.1237ZM54.59 94.0848C54.59 94.3001 54.5761 94.4947 54.5483 94.6684H50.1607C50.1954 95.1269 50.3656 95.4952 50.6713 95.7731C50.9771 96.051 51.3522 96.19 51.7969 96.19C52.4361 96.19 52.8877 95.9225 53.1518 95.3875H54.4336C54.2599 95.9155 53.9438 96.3498 53.4853 96.6902C53.0336 97.0237 52.4709 97.1905 51.7969 97.1905C51.248 97.1905 50.7547 97.0689 50.317 96.8257C49.8862 96.5756 49.5458 96.2282 49.2957 95.7835C49.0525 95.3319 48.9309 94.8108 48.9309 94.2202C48.9309 93.6297 49.049 93.112 49.2852 92.6674C49.5284 92.2158 49.8654 91.8684 50.2962 91.6252C50.7339 91.382 51.2341 91.2604 51.7969 91.2604C52.3388 91.2604 52.8217 91.3785 53.2455 91.6148C53.6694 91.851 53.9994 92.1845 54.2356 92.6153C54.4719 93.0391 54.59 93.5289 54.59 94.0848ZM53.3498 93.7096C53.3428 93.2718 53.1865 92.921 52.8808 92.657C52.5751 92.3929 52.1964 92.2609 51.7448 92.2609C51.3349 92.2609 50.984 92.3929 50.6922 92.657C50.4004 92.914 50.2267 93.2649 50.1711 93.7096H53.3498ZM56.9473 89.3845V97.0967H55.7592V89.3845H56.9473ZM58.1111 93.4594C58.1111 92.7508 58.2744 92.115 58.6009 91.5522C58.9344 90.9895 59.3826 90.5517 59.9454 90.2391C60.5151 89.9195 61.1369 89.7597 61.8109 89.7597C62.5821 89.7597 63.2665 89.9507 63.864 90.3329C64.4684 90.7081 64.9062 91.2431 65.1771 91.9378H63.7493C63.5617 91.5557 63.3012 91.2708 62.9677 91.0833C62.6342 90.8957 62.2486 90.8019 61.8109 90.8019C61.3315 90.8019 60.9042 90.9096 60.529 91.1249C60.1538 91.3403 59.8585 91.6495 59.6431 92.0525C59.4347 92.4555 59.3305 92.9245 59.3305 93.4594C59.3305 93.9944 59.4347 94.4634 59.6431 94.8664C59.8585 95.2694 60.1538 95.582 60.529 95.8044C60.9042 96.0198 61.3315 96.1274 61.8109 96.1274C62.2486 96.1274 62.6342 96.0336 62.9677 95.8461C63.3012 95.6585 63.5617 95.3736 63.7493 94.9915H65.1771C64.9062 95.6863 64.4684 96.2212 63.864 96.5964C63.2665 96.9716 62.5821 97.1592 61.8109 97.1592C61.13 97.1592 60.5081 97.0029 59.9454 96.6902C59.3826 96.3706 58.9344 95.9294 58.6009 95.3666C58.2744 94.8039 58.1111 94.1681 58.1111 93.4594ZM69.0586 97.1905C68.5167 97.1905 68.0269 97.0689 67.5891 96.8257C67.1514 96.5756 66.8075 96.2282 66.5574 95.7835C66.3073 95.3319 66.1822 94.8108 66.1822 94.2202C66.1822 93.6366 66.3107 93.119 66.5678 92.6674C66.8249 92.2158 67.1757 91.8684 67.6204 91.6252C68.0651 91.382 68.5619 91.2604 69.1107 91.2604C69.6596 91.2604 70.1564 91.382 70.6011 91.6252C71.0457 91.8684 71.3966 92.2158 71.6537 92.6674C71.9108 93.119 72.0393 93.6366 72.0393 94.2202C72.0393 94.8039 71.9073 95.3215 71.6433 95.7731C71.3792 96.2247 71.0179 96.5756 70.5594 96.8257C70.1078 97.0689 69.6075 97.1905 69.0586 97.1905ZM69.0586 96.1587C69.3643 96.1587 69.6492 96.0858 69.9132 95.9399C70.1842 95.7939 70.4031 95.5751 70.5698 95.2833C70.7366 94.9915 70.8199 94.6371 70.8199 94.2202C70.8199 93.8034 70.74 93.4525 70.5802 93.1676C70.4204 92.8758 70.2085 92.657 69.9445 92.5111C69.6805 92.3651 69.3956 92.2922 69.0899 92.2922C68.7842 92.2922 68.4993 92.3651 68.2353 92.5111C67.9782 92.657 67.7733 92.8758 67.6204 93.1676C67.4676 93.4525 67.3911 93.8034 67.3911 94.2202C67.3911 94.8386 67.5475 95.318 67.8601 95.6585C68.1797 95.992 68.5792 96.1587 69.0586 96.1587Z" fill="#033F40"/>
<g clip-path="url(#clip0_371_7506)">
<g filter="url(#filter1_d_371_7506)">
<path d="M66.522 36C62.2041 36 58.6914 39.5127 58.6914 43.8301C58.6914 45.9195 59.505 47.8851 60.9857 49.3644C61.2087 49.5869 61.5738 49.5869 61.7968 49.3644C62.0198 49.1408 62.0198 48.7753 61.7968 48.5533C60.5342 47.2897 59.84 45.6134 59.84 43.8301C59.84 40.144 62.8359 37.1476 66.522 37.1476C70.2066 37.1476 73.2034 40.144 73.2034 43.8301C73.2034 45.6154 72.5112 47.2926 71.2471 48.5552C71.0251 48.7778 71.0251 49.1428 71.2471 49.3663C71.3611 49.4788 71.507 49.5339 71.6524 49.5339C71.7984 49.5339 71.9462 49.4779 72.0592 49.3663C73.5375 47.8871 74.352 45.919 74.352 43.8296C74.3511 39.5127 70.8384 36 66.522 36Z" fill="#F53B00"/>
<path d="M66.5222 39.2764C64.0098 39.2764 61.969 41.3176 61.969 43.8301C61.969 45.047 62.4431 46.1902 63.3023 47.0485C63.5254 47.2725 63.8894 47.2725 64.1149 47.0485C64.3365 46.8259 64.3365 46.4604 64.1149 46.2374C63.4694 45.5948 63.1176 44.7399 63.1176 43.8301C63.1176 41.9524 64.6445 40.424 66.5247 40.424C68.4004 40.424 69.9293 41.9524 69.9293 43.8301C69.9293 44.7399 69.5726 45.5948 68.932 46.2374C68.7079 46.4604 68.7079 46.8264 68.932 47.0485C69.044 47.162 69.1904 47.216 69.3373 47.216C69.4842 47.216 69.631 47.16 69.7431 47.0485C70.6038 46.1902 71.0769 45.047 71.0769 43.8301C71.0744 41.3201 69.0336 39.2764 66.5222 39.2764Z" fill="#F53B00"/>
<path d="M67.0959 46.1843C67.7837 45.9456 68.2814 45.2995 68.2814 44.5287C68.2814 43.5555 67.4929 42.7694 66.5221 42.7694C65.5494 42.7694 64.7628 43.5574 64.7628 44.5287C64.7628 45.2995 65.2605 45.9456 65.9483 46.1843V51.7786H61.6496H59.0757H57.7542V36.5739H42.6477V71H57.3032H57.7542H70.1129V51.7791H67.0984V46.1843H67.0959ZM49.5365 62.8722H45.0589V55.589H49.5365V62.8722ZM49.5365 54.4934H45.0589V47.2082H49.5365V54.4934ZM49.5365 46.1121H45.0589V38.8288H49.5365V46.1121ZM55.343 62.8722H50.8654V55.589H55.343V62.8722ZM55.343 54.4934H50.8654V47.2082H55.343V54.4934ZM55.343 46.1121H50.8654V38.8288H55.343V46.1121ZM68.3109 68.2749H64.5049V61.9658H68.3109V68.2749ZM68.3109 60.0965H64.5049V53.7869H68.3109V60.0965Z" fill="#F53B00"/>
</g>
</g>
<defs>
<filter id="filter0_d_371_7506" x="0.0578793" y="0.342981" width="116.95" height="134.689" filterUnits="userSpaceOnUse" color-interpolation-filters="sRGB">
<feFlood flood-opacity="0" result="BackgroundImageFix"/>
<feColorMatrix in="SourceAlpha" type="matrix" values="0 0 0 0 0 0 0 0 0 0 0 0 0 0 0 0 0 0 127 0" result="hardAlpha"/>
<feMorphology radius="0.65702" operator="erode" in="SourceAlpha" result="effect1_dropShadow_371_7506"/>
<feOffset dx="1.31404" dy="4.59914"/>
<feGaussianBlur stdDeviation="2.95659"/>
<feComposite in2="hardAlpha" operator="out"/>
<feColorMatrix type="matrix" values="0 0 0 0 0 0 0 0 0 0 0 0 0 0 0 0 0 0 0.06 0"/>
<feBlend mode="normal" in2="BackgroundImageFix" result="effect1_dropShadow_371_7506"/>
<feBlend mode="normal" in="SourceGraphic" in2="effect1_dropShadow_371_7506" result="shape"/>
</filter>
<filter id="filter1_d_371_7506" x="36.6477" y="32" width="43.7043" height="47" filterUnits="userSpaceOnUse" color-interpolation-filters="sRGB">
<feFlood flood-opacity="0" result="BackgroundImageFix"/>
<feColorMatrix in="SourceAlpha" type="matrix" values="0 0 0 0 0 0 0 0 0 0 0 0 0 0 0 0 0 0 127 0" result="hardAlpha"/>
<feOffset dy="2"/>
<feGaussianBlur stdDeviation="3"/>
<feComposite in2="hardAlpha" operator="out"/>
<feColorMatrix type="matrix" values="0 0 0 0 0 0 0 0 0 0 0 0 0 0 0 0 0 0 0.29 0"/>
<feBlend mode="normal" in2="BackgroundImageFix" result="effect1_dropShadow_371_7506"/>
<feBlend mode="normal" in="SourceGraphic" in2="effect1_dropShadow_371_7506" result="shape"/>
</filter>
<clipPath id="clip0_371_7506">
<rect width="47" height="49" fill="white" transform="translate(33 30)"/>
</clipPath>
</defs>
</svg>
