<svg width="119" height="137" viewBox="0 0 119 137" fill="none" xmlns="http://www.w3.org/2000/svg">
<g filter="url(#filter0_d_371_7451)">
<rect x="4.72754" y="1.52637" width="106.954" height="124.779" rx="23.1072" fill="white"/>
</g>
<path d="M24.4081 99.5149C24.7502 99.7733 25.1377 99.9757 25.5706 100.122C26.0104 100.269 26.4817 100.342 26.9844 100.342C27.5289 100.342 27.9548 100.252 28.262 100.07C28.5692 99.8815 28.7228 99.5883 28.7228 99.1903C28.7228 98.932 28.632 98.7225 28.4505 98.562C28.276 98.4014 28.056 98.2792 27.7907 98.1954C27.5254 98.1047 27.1554 98.0034 26.6807 97.8917C26.0802 97.7521 25.5915 97.6125 25.2145 97.4728C24.8375 97.3332 24.5129 97.1168 24.2406 96.8235C23.9753 96.5303 23.8426 96.1323 23.8426 95.6297C23.8426 95.134 23.9788 94.7221 24.251 94.3939C24.5233 94.0658 24.8724 93.8249 25.2983 93.6713C25.7312 93.5108 26.1919 93.4305 26.6807 93.4305C27.2182 93.4305 27.7244 93.5108 28.1992 93.6713C28.6739 93.8319 29.0753 94.0483 29.4035 94.3206L28.8275 95.1375C28.1922 94.6906 27.4521 94.4672 26.6073 94.4672C26.1535 94.4672 25.7626 94.5615 25.4344 94.75C25.1133 94.9385 24.9527 95.2247 24.9527 95.6087C24.9527 95.8461 25.0365 96.0416 25.204 96.1952C25.3716 96.3418 25.5845 96.457 25.8429 96.5408C26.1012 96.6246 26.4537 96.7153 26.9006 96.8131C27.5219 96.9597 28.0246 97.1063 28.4086 97.2529C28.7996 97.3925 29.1347 97.6194 29.414 97.9336C29.6932 98.2408 29.8329 98.6597 29.8329 99.1903C29.8329 99.9024 29.5745 100.447 29.0579 100.824C28.5413 101.194 27.8571 101.379 27.0053 101.379C26.377 101.379 25.7765 101.285 25.204 101.096C24.6385 100.901 24.1673 100.646 23.7903 100.332L24.4081 99.5149ZM36.643 95.2946V101.232H35.5853V100.217C35.32 100.531 34.9989 100.796 34.6219 101.013C34.2449 101.229 33.8225 101.337 33.3547 101.337C32.9149 101.337 32.5239 101.236 32.1818 101.033C31.8467 100.831 31.5849 100.541 31.3964 100.164C31.2078 99.7872 31.1136 99.3474 31.1136 98.8447V95.2946H32.1608V98.6248C32.1608 99.1973 32.3005 99.6336 32.5797 99.9338C32.859 100.227 33.243 100.374 33.7317 100.374C34.0808 100.374 34.395 100.297 34.6742 100.143C34.9605 99.9897 35.1839 99.7802 35.3445 99.5149C35.505 99.2427 35.5853 98.9425 35.5853 98.6143V95.2946H36.643ZM41.5888 95.1794C42.0985 95.1794 42.5593 95.3085 42.9712 95.5668C43.3901 95.8182 43.7182 96.1777 43.9556 96.6455C44.193 97.1133 44.3116 97.6543 44.3116 98.2687C44.3116 98.8831 44.193 99.4242 43.9556 99.892C43.7182 100.353 43.3901 100.712 42.9712 100.971C42.5593 101.222 42.0985 101.348 41.5888 101.348C40.6323 101.348 39.9237 101.013 39.4629 100.342V103.421H38.4261V95.2946H39.4629V96.1847C39.9237 95.5145 40.6323 95.1794 41.5888 95.1794ZM41.2956 100.374C41.6866 100.374 42.0286 100.279 42.3219 100.091C42.6151 99.9024 42.8385 99.6476 42.9921 99.3264C43.1527 99.0053 43.233 98.6492 43.233 98.2583C43.233 97.8743 43.1527 97.5217 42.9921 97.2005C42.8385 96.8794 42.6151 96.6246 42.3219 96.436C42.0286 96.2475 41.6866 96.1533 41.2956 96.1533C40.9116 96.1533 40.58 96.2475 40.3007 96.436C40.0214 96.6246 39.8085 96.8794 39.6619 97.2005C39.5222 97.5147 39.4524 97.8673 39.4524 98.2583C39.4524 98.8657 39.613 99.3718 39.9342 99.7768C40.2623 100.175 40.7161 100.374 41.2956 100.374ZM48.4732 101.348C47.8099 101.348 47.2375 101.222 46.7557 100.971C46.274 100.719 45.904 100.363 45.6456 99.9024C45.3943 99.4416 45.2686 98.9006 45.2686 98.2792C45.2686 97.6159 45.4083 97.0504 45.6875 96.5827C45.9738 96.1149 46.3403 95.7658 46.7871 95.5354C47.234 95.298 47.7087 95.1794 48.2114 95.1794C48.7839 95.1794 49.2901 95.3015 49.7299 95.5459C50.1767 95.7833 50.5223 96.1393 50.7667 96.6141C51.018 97.0818 51.1437 97.6543 51.1437 98.3316C51.1437 98.4572 51.1367 98.6178 51.1227 98.8133H46.3578C46.4136 99.2601 46.6231 99.6406 46.9861 99.9548C47.3561 100.269 47.8588 100.426 48.4941 100.426C48.8362 100.426 49.1574 100.37 49.4576 100.258C49.7578 100.14 50.0057 100 50.2012 99.8396L50.7771 100.437C50.5398 100.688 50.2186 100.904 49.8137 101.086C49.4157 101.26 48.9689 101.348 48.4732 101.348ZM48.2114 96.1638C47.8414 96.1638 47.5132 96.2475 47.227 96.4151C46.9477 96.5757 46.7313 96.7956 46.5777 97.0749C46.4311 97.3472 46.3578 97.6404 46.3578 97.9546H50.0336C50.0336 97.6334 49.9603 97.3367 49.8137 97.0644C49.674 96.7921 49.4646 96.5757 49.1853 96.4151C48.913 96.2475 48.5884 96.1638 48.2114 96.1638ZM53.5766 96.6769C54.0793 95.7135 54.8438 95.2317 55.8701 95.2317V96.3732H55.7235C55.3535 96.3732 55.0044 96.4535 54.6762 96.6141C54.3551 96.7747 54.0898 97.0435 53.8803 97.4205C53.6779 97.7905 53.5766 98.2722 53.5766 98.8657V101.232H52.5189V95.2946H53.5766V96.6769ZM64.1785 95.1898C64.6044 95.1898 64.9814 95.2911 65.3095 95.4935C65.6376 95.689 65.889 95.9683 66.0635 96.3313C66.245 96.6874 66.3358 97.0993 66.3358 97.5671V101.232H65.2781V97.7346C65.2781 97.2459 65.142 96.8619 64.8697 96.5827C64.6044 96.2964 64.2553 96.1533 63.8224 96.1533C63.5362 96.1533 63.2744 96.2301 63.037 96.3837C62.8066 96.5303 62.6216 96.7397 62.482 97.012C62.3493 97.2773 62.283 97.581 62.283 97.9231V101.232H61.2148V97.7765C61.2148 97.2738 61.0856 96.8794 60.8273 96.5931C60.576 96.2999 60.2443 96.1533 59.8324 96.1533C59.5183 96.1533 59.239 96.2475 58.9946 96.436C58.7503 96.6176 58.5583 96.8515 58.4187 97.1377C58.286 97.417 58.2197 97.6962 58.2197 97.9755V101.232H57.162V95.2946H58.2197V96.2685C58.7782 95.5494 59.424 95.1898 60.1571 95.1898C60.576 95.1898 60.9495 95.2946 61.2776 95.504C61.6058 95.7065 61.8571 95.9892 62.0316 96.3523C62.6181 95.5773 63.3337 95.1898 64.1785 95.1898ZM71.908 100.426C71.6916 100.74 71.4019 100.971 71.0388 101.117C70.6758 101.257 70.2883 101.327 69.8764 101.327C69.1992 101.327 68.6476 101.163 68.2217 100.834C67.8028 100.506 67.5934 100.049 67.5934 99.4626C67.5934 99.0716 67.7051 98.7295 67.9285 98.4363C68.1519 98.1431 68.4521 97.9162 68.8291 97.7556C69.2131 97.595 69.639 97.5147 70.1068 97.5147C70.6793 97.5147 71.2692 97.5985 71.8766 97.766C71.8906 97.2075 71.7684 96.7921 71.5101 96.5198C71.2518 96.2406 70.8399 96.1009 70.2743 96.1009C69.9462 96.1009 69.6041 96.1463 69.248 96.2371C68.892 96.3209 68.5743 96.4291 68.2951 96.5617L68.0123 95.7449C68.7942 95.3609 69.5901 95.1689 70.4 95.1689C72.0896 95.1689 72.9343 96.0486 72.9343 97.8079V101.232H71.908V100.426ZM70.1068 100.499C70.393 100.499 70.6723 100.45 70.9446 100.353C71.2169 100.255 71.4403 100.101 71.6148 99.892C71.7894 99.6825 71.8766 99.4207 71.8766 99.1065V98.5305C71.346 98.363 70.8189 98.2792 70.2953 98.2792C69.8275 98.2792 69.44 98.3804 69.1328 98.5829C68.8257 98.7854 68.6721 99.0576 68.6721 99.3997C68.6721 99.7558 68.8047 100.028 69.07 100.217C69.3423 100.405 69.6879 100.499 70.1068 100.499ZM75.6874 96.6769C76.19 95.7135 76.9545 95.2317 77.9808 95.2317V96.3732H77.8342C77.4642 96.3732 77.1151 96.4535 76.787 96.6141C76.4658 96.7747 76.2005 97.0435 75.9911 97.4205C75.7886 97.7905 75.6874 98.2722 75.6874 98.8657V101.232H74.6296V95.2946H75.6874V96.6769ZM84.7079 101.232H83.4302L81.828 98.9704L80.2047 101.232H79.2727V93.1058H80.3304V99.3683L83.2417 95.2946H84.4984L82.5087 98.0907L84.7079 101.232ZM88.4198 101.348C87.7565 101.348 87.184 101.222 86.7023 100.971C86.2206 100.719 85.8506 100.363 85.5922 99.9024C85.3409 99.4416 85.2152 98.9006 85.2152 98.2792C85.2152 97.6159 85.3549 97.0504 85.6341 96.5827C85.9204 96.1149 86.2869 95.7658 86.7337 95.5354C87.1806 95.298 87.6553 95.1794 88.158 95.1794C88.7305 95.1794 89.2366 95.3015 89.6765 95.5459C90.1233 95.7833 90.4689 96.1393 90.7133 96.6141C90.9646 97.0818 91.0903 97.6543 91.0903 98.3316C91.0903 98.4572 91.0833 98.6178 91.0693 98.8133H86.3044C86.3602 99.2601 86.5697 99.6406 86.9327 99.9548C87.3027 100.269 87.8054 100.426 88.4407 100.426C88.7828 100.426 89.104 100.37 89.4042 100.258C89.7044 100.14 89.9523 100 90.1477 99.8396L90.7237 100.437C90.4863 100.688 90.1652 100.904 89.7603 101.086C89.3623 101.26 88.9155 101.348 88.4198 101.348ZM88.158 96.1638C87.788 96.1638 87.4598 96.2475 87.1736 96.4151C86.8943 96.5757 86.6779 96.7956 86.5243 97.0749C86.3777 97.3472 86.3044 97.6404 86.3044 97.9546H89.9802C89.9802 97.6334 89.9069 97.3367 89.7603 97.0644C89.6206 96.7921 89.4112 96.5757 89.1319 96.4151C88.8596 96.2475 88.535 96.1638 88.158 96.1638ZM93.8374 99.6511C93.8374 99.9094 93.9037 100.105 94.0364 100.238C94.169 100.363 94.3471 100.426 94.5705 100.426C94.8148 100.426 95.0312 100.377 95.2198 100.279L95.4397 101.086C95.314 101.156 95.1534 101.215 94.9579 101.264C94.7625 101.32 94.546 101.348 94.3087 101.348C93.8339 101.348 93.4604 101.225 93.1881 100.981C92.9158 100.73 92.7797 100.377 92.7797 99.9234V96.2475H92.1199V95.9438L93.785 94.1216H93.8374V95.2946H95.2407V96.2475H93.8374V99.6511Z" fill="#033F40"/>
<g filter="url(#filter1_d_371_7451)">
<path d="M47.6585 52.4184L43.0195 47.7809L45.0436 45.7568L49.6811 50.3958H71.484C71.707 50.3958 71.9269 50.4479 72.1261 50.5479C72.3254 50.648 72.4984 50.7933 72.6316 50.9721C72.7647 51.151 72.8542 51.3584 72.8929 51.578C72.9316 51.7976 72.9184 52.0232 72.8544 52.2368L69.4213 63.6804C69.333 63.9751 69.152 64.2336 68.9051 64.4173C68.6582 64.6011 68.3587 64.7003 68.051 64.7003H50.5194V67.5612H66.2543V70.4221H49.0889C48.7095 70.4221 48.3457 70.2714 48.0774 70.0031C47.8092 69.7348 47.6585 69.371 47.6585 68.9916V52.4184ZM49.8041 76.1439C49.2351 76.1439 48.6893 75.9178 48.2869 75.5154C47.8845 75.113 47.6585 74.5673 47.6585 73.9982C47.6585 73.4291 47.8845 72.8834 48.2869 72.481C48.6893 72.0786 49.2351 71.8525 49.8041 71.8525C50.3732 71.8525 50.919 72.0786 51.3214 72.481C51.7238 72.8834 51.9498 73.4291 51.9498 73.9982C51.9498 74.5673 51.7238 75.113 51.3214 75.5154C50.919 75.9178 50.3732 76.1439 49.8041 76.1439ZM66.9695 76.1439C66.4005 76.1439 65.8547 75.9178 65.4523 75.5154C65.0499 75.113 64.8239 74.5673 64.8239 73.9982C64.8239 73.4291 65.0499 72.8834 65.4523 72.481C65.8547 72.0786 66.4005 71.8525 66.9695 71.8525C67.5386 71.8525 68.0844 72.0786 68.4867 72.481C68.8891 72.8834 69.1152 73.4291 69.1152 73.9982C69.1152 74.5673 68.8891 75.113 68.4867 75.5154C68.0844 75.9178 67.5386 76.1439 66.9695 76.1439Z" fill="#FCB0B3"/>
</g>
<defs>
<filter id="filter0_d_371_7451" x="0.766298" y="0.86616" width="117.517" height="135.342" filterUnits="userSpaceOnUse" color-interpolation-filters="sRGB">
<feFlood flood-opacity="0" result="BackgroundImageFix"/>
<feColorMatrix in="SourceAlpha" type="matrix" values="0 0 0 0 0 0 0 0 0 0 0 0 0 0 0 0 0 0 127 0" result="hardAlpha"/>
<feMorphology radius="0.660207" operator="erode" in="SourceAlpha" result="effect1_dropShadow_371_7451"/>
<feOffset dx="1.32041" dy="4.62145"/>
<feGaussianBlur stdDeviation="2.97093"/>
<feComposite in2="hardAlpha" operator="out"/>
<feColorMatrix type="matrix" values="0 0 0 0 0 0 0 0 0 0 0 0 0 0 0 0 0 0 0.06 0"/>
<feBlend mode="normal" in2="BackgroundImageFix" result="effect1_dropShadow_371_7451"/>
<feBlend mode="normal" in="SourceGraphic" in2="effect1_dropShadow_371_7451" result="shape"/>
</filter>
<filter id="filter1_d_371_7451" x="40.3787" y="45.7568" width="35.1767" height="35.6686" filterUnits="userSpaceOnUse" color-interpolation-filters="sRGB">
<feFlood flood-opacity="0" result="BackgroundImageFix"/>
<feColorMatrix in="SourceAlpha" type="matrix" values="0 0 0 0 0 0 0 0 0 0 0 0 0 0 0 0 0 0 127 0" result="hardAlpha"/>
<feOffset dy="2.64083"/>
<feGaussianBlur stdDeviation="1.32041"/>
<feComposite in2="hardAlpha" operator="out"/>
<feColorMatrix type="matrix" values="0 0 0 0 0.816903 0 0 0 0 0.816903 0 0 0 0 0.816903 0 0 0 1 0"/>
<feBlend mode="normal" in2="BackgroundImageFix" result="effect1_dropShadow_371_7451"/>
<feBlend mode="normal" in="SourceGraphic" in2="effect1_dropShadow_371_7451" result="shape"/>
</filter>
</defs>
</svg>
