<svg width="118" height="131" viewBox="0 0 118 131" fill="none" xmlns="http://www.w3.org/2000/svg">
<g filter="url(#filter0_d_438_7612)">
<rect x="4" y="1" width="106.437" height="124.177" rx="22.9957" fill="white"/>
</g>
<path d="M35.5872 96.9141C35.5872 97.2824 35.5004 97.6298 35.3267 97.9563C35.153 98.2829 34.8751 98.5504 34.4929 98.7588C34.1108 98.9603 33.621 99.061 33.0234 99.061H31.7103V102H30.5222V94.7568H33.0234C33.5793 94.7568 34.0483 94.8541 34.4304 95.0486C34.8195 95.2362 35.1078 95.4933 35.2954 95.8198C35.49 96.1464 35.5872 96.5111 35.5872 96.9141ZM33.0234 98.0918C33.4751 98.0918 33.812 97.991 34.0344 97.7896C34.2567 97.5811 34.3679 97.2893 34.3679 96.9141C34.3679 96.1221 33.9197 95.726 33.0234 95.726H31.7103V98.0918H33.0234ZM39.2112 102.094C38.6692 102.094 38.1794 101.972 37.7417 101.729C37.304 101.479 36.9601 101.132 36.7099 100.687C36.4598 100.235 36.3347 99.7141 36.3347 99.1236C36.3347 98.5399 36.4633 98.0223 36.7204 97.5707C36.9774 97.1191 37.3283 96.7717 37.773 96.5285C38.2176 96.2853 38.7144 96.1637 39.2633 96.1637C39.8122 96.1637 40.309 96.2853 40.7536 96.5285C41.1983 96.7717 41.5492 97.1191 41.8062 97.5707C42.0633 98.0223 42.1918 98.5399 42.1918 99.1236C42.1918 99.7072 42.0598 100.225 41.7958 100.676C41.5318 101.128 41.1705 101.479 40.7119 101.729C40.2603 101.972 39.7601 102.094 39.2112 102.094ZM39.2112 101.062C39.5169 101.062 39.8018 100.989 40.0658 100.843C40.3368 100.697 40.5556 100.478 40.7224 100.187C40.8891 99.8948 40.9725 99.5404 40.9725 99.1236C40.9725 98.7067 40.8926 98.3558 40.7328 98.071C40.573 97.7791 40.3611 97.5603 40.097 97.4144C39.833 97.2685 39.5482 97.1955 39.2425 97.1955C38.9367 97.1955 38.6519 97.2685 38.3879 97.4144C38.1308 97.5603 37.9258 97.7791 37.773 98.071C37.6201 98.3558 37.5437 98.7067 37.5437 99.1236C37.5437 99.7419 37.7 100.221 38.0127 100.562C38.3323 100.895 38.7318 101.062 39.2112 101.062ZM45.4507 102.094C44.9991 102.094 44.5927 102.014 44.2314 101.854C43.877 101.687 43.5956 101.465 43.3872 101.187C43.1787 100.902 43.0676 100.586 43.0537 100.239H44.2835C44.3043 100.482 44.419 100.687 44.6274 100.854C44.8428 101.013 45.1103 101.093 45.4299 101.093C45.7634 101.093 46.0204 101.031 46.2011 100.906C46.3887 100.774 46.4825 100.607 46.4825 100.405C46.4825 100.19 46.3783 100.03 46.1698 99.926C45.9683 99.8218 45.6453 99.7072 45.2006 99.5821C44.7698 99.464 44.419 99.3494 44.148 99.2382C43.877 99.127 43.6408 98.9568 43.4393 98.7275C43.2448 98.4982 43.1475 98.196 43.1475 97.8208C43.1475 97.5151 43.2378 97.2372 43.4185 96.9871C43.5991 96.73 43.8562 96.5285 44.1897 96.3826C44.5301 96.2367 44.9192 96.1637 45.3569 96.1637C46.01 96.1637 46.5346 96.3305 46.9306 96.664C47.3336 96.9905 47.549 97.4387 47.5768 98.0084H46.3887C46.3678 97.7513 46.2636 97.5464 46.076 97.3935C45.8884 97.2407 45.6348 97.1642 45.3152 97.1642C45.0026 97.1642 44.7629 97.2233 44.5961 97.3414C44.4294 97.4595 44.346 97.6159 44.346 97.8104C44.346 97.9633 44.4016 98.0918 44.5127 98.196C44.6239 98.3002 44.7594 98.3836 44.9192 98.4461C45.079 98.5017 45.3152 98.5747 45.6279 98.665C46.0448 98.7762 46.3852 98.8908 46.6492 99.0089C46.9202 99.1201 47.153 99.2868 47.3475 99.5092C47.542 99.7315 47.6428 100.027 47.6497 100.395C47.6497 100.722 47.5594 101.013 47.3788 101.27C47.1981 101.528 46.941 101.729 46.6075 101.875C46.281 102.021 45.8954 102.094 45.4507 102.094ZM50.3196 97.2268V100.405C50.3196 100.621 50.3682 100.777 50.4655 100.874C50.5697 100.965 50.7434 101.01 50.9866 101.01H51.7161V102H50.7782C50.2432 102 49.8333 101.875 49.5484 101.625C49.2635 101.375 49.1211 100.968 49.1211 100.405V97.2268H48.4437V96.2575H49.1211V94.8297H50.3196V96.2575H51.7161V97.2268H50.3196ZM58.8222 102.073C58.1482 102.073 57.5264 101.917 56.9566 101.604C56.3939 101.284 55.9457 100.843 55.6122 100.28C55.2857 99.7107 55.1224 99.0715 55.1224 98.3628C55.1224 97.6541 55.2857 97.0183 55.6122 96.4556C55.9457 95.8928 56.3939 95.4551 56.9566 95.1424C57.5264 94.8228 58.1482 94.663 58.8222 94.663C59.5031 94.663 60.1249 94.8228 60.6877 95.1424C61.2574 95.4551 61.7055 95.8928 62.0321 96.4556C62.3586 97.0183 62.5219 97.6541 62.5219 98.3628C62.5219 99.0715 62.3586 99.7107 62.0321 100.28C61.7055 100.843 61.2574 101.284 60.6877 101.604C60.1249 101.917 59.5031 102.073 58.8222 102.073ZM58.8222 101.041C59.3016 101.041 59.7289 100.933 60.104 100.718C60.4792 100.496 60.771 100.183 60.9795 99.7801C61.1949 99.3702 61.3026 98.8978 61.3026 98.3628C61.3026 97.8278 61.1949 97.3588 60.9795 96.9558C60.771 96.5528 60.4792 96.2436 60.104 96.0283C59.7289 95.8129 59.3016 95.7052 58.8222 95.7052C58.3427 95.7052 57.9155 95.8129 57.5403 96.0283C57.1651 96.2436 56.8698 96.5528 56.6544 96.9558C56.446 97.3588 56.3417 97.8278 56.3417 98.3628C56.3417 98.8978 56.446 99.3702 56.6544 99.7801C56.8698 100.183 57.1651 100.496 57.5403 100.718C57.9155 100.933 58.3427 101.041 58.8222 101.041ZM66.0985 97.2268H65.0355V102H63.837V97.2268H63.1595V96.2575H63.837V95.8511C63.837 95.191 64.0107 94.7116 64.358 94.4129C64.7124 94.1072 65.2647 93.9543 66.0151 93.9543V94.9444C65.6538 94.9444 65.4002 95.0139 65.2543 95.1528C65.1084 95.2848 65.0355 95.5176 65.0355 95.8511V96.2575H66.0985V97.2268ZM69.5589 97.2268H68.4959V102H67.2973V97.2268H66.6199V96.2575H67.2973V95.8511C67.2973 95.191 67.471 94.7116 67.8184 94.4129C68.1728 94.1072 68.7251 93.9543 69.4755 93.9543V94.9444C69.1142 94.9444 68.8606 95.0139 68.7147 95.1528C68.5688 95.2848 68.4959 95.5176 68.4959 95.8511V96.2575H69.5589V97.2268ZM71.2163 95.4967C71.0009 95.4967 70.8203 95.4238 70.6744 95.2779C70.5285 95.132 70.4555 94.9513 70.4555 94.7359C70.4555 94.5206 70.5285 94.3399 70.6744 94.194C70.8203 94.0481 71.0009 93.9752 71.2163 93.9752C71.4247 93.9752 71.6019 94.0481 71.7478 94.194C71.8937 94.3399 71.9667 94.5206 71.9667 94.7359C71.9667 94.9513 71.8937 95.132 71.7478 95.2779C71.6019 95.4238 71.4247 95.4967 71.2163 95.4967ZM71.7999 96.2575V102H70.6118V96.2575H71.7999ZM72.9637 99.1236C72.9637 98.533 73.0819 98.0154 73.3181 97.5707C73.5613 97.1191 73.8948 96.7717 74.3186 96.5285C74.7424 96.2853 75.2288 96.1637 75.7777 96.1637C76.4724 96.1637 77.0457 96.3305 77.4973 96.664C77.9558 96.9905 78.265 97.4595 78.4248 98.071H77.1429C77.0387 97.7861 76.872 97.5638 76.6427 97.404C76.4134 97.2441 76.1251 97.1642 75.7777 97.1642C75.2913 97.1642 74.9022 97.3379 74.6104 97.6853C74.3255 98.0258 74.1831 98.5052 74.1831 99.1236C74.1831 99.7419 74.3255 100.225 74.6104 100.572C74.9022 100.92 75.2913 101.093 75.7777 101.093C76.4655 101.093 76.9206 100.791 77.1429 100.187H78.4248C78.2581 100.77 77.9454 101.236 77.4868 101.583C77.0283 101.924 76.4586 102.094 75.7777 102.094C75.2288 102.094 74.7424 101.972 74.3186 101.729C73.8948 101.479 73.5613 101.132 73.3181 100.687C73.0819 100.235 72.9637 99.7141 72.9637 99.1236ZM84.8719 98.9881C84.8719 99.2035 84.858 99.398 84.8302 99.5717H80.4426C80.4773 100.03 80.6476 100.399 80.9533 100.676C81.259 100.954 81.6342 101.093 82.0788 101.093C82.718 101.093 83.1696 100.826 83.4337 100.291H84.7156C84.5419 100.819 84.2257 101.253 83.7672 101.594C83.3156 101.927 82.7528 102.094 82.0788 102.094C81.5299 102.094 81.0366 101.972 80.5989 101.729C80.1681 101.479 79.8277 101.132 79.5776 100.687C79.3344 100.235 79.2128 99.7141 79.2128 99.1236C79.2128 98.533 79.3309 98.0154 79.5672 97.5707C79.8103 97.1191 80.1473 96.7717 80.5781 96.5285C81.0158 96.2853 81.516 96.1637 82.0788 96.1637C82.6208 96.1637 83.1036 96.2819 83.5275 96.5181C83.9513 96.7543 84.2813 97.0878 84.5175 97.5186C84.7538 97.9424 84.8719 98.4322 84.8719 98.9881ZM83.6317 98.6129C83.6247 98.1752 83.4684 97.8243 83.1627 97.5603C82.857 97.2963 82.4783 97.1642 82.0267 97.1642C81.6168 97.1642 81.2659 97.2963 80.9741 97.5603C80.6823 97.8174 80.5086 98.1682 80.453 98.6129H83.6317Z" fill="#033F40"/>
<g clip-path="url(#clip0_438_7612)">
<g filter="url(#filter1_d_438_7612)">
<path d="M73.4156 67.5837H41.5842V72H73.4156V67.5837Z" fill="#174461"/>
</g>
<g filter="url(#filter2_d_438_7612)">
<path d="M62.4143 39.9144C62.4143 37.2003 60.214 35 57.4999 35C54.7857 35 52.5854 37.2003 52.5854 39.9144C52.5854 44.3791 56.4467 51.6423 52.5854 55.0035L57.4999 57.6338L62.4143 55.0035C58.553 51.6425 62.4143 44.3791 62.4143 39.9144Z" fill="#FF755C"/>
</g>
<g filter="url(#filter3_d_438_7612)">
<path d="M62.4144 55.0037H52.5857V61.9916H62.4144V55.0037Z" fill="#FF9356"/>
</g>
<g filter="url(#filter4_d_438_7612)">
<path d="M62.4145 60.238H52.5856C50.9968 60.238 49.7087 61.526 49.7087 63.1149L57.5001 65.7453L65.2914 63.1149C65.2914 61.526 64.0034 60.238 62.4145 60.238Z" fill="#FFCE47"/>
</g>
<g filter="url(#filter5_d_438_7612)">
<path d="M76 63.1147H39V69.3372H76V63.1147Z" fill="#FF9356"/>
</g>
</g>
<defs>
<filter id="filter0_d_438_7612" x="0.0578793" y="0.342981" width="116.95" height="134.689" filterUnits="userSpaceOnUse" color-interpolation-filters="sRGB">
<feFlood flood-opacity="0" result="BackgroundImageFix"/>
<feColorMatrix in="SourceAlpha" type="matrix" values="0 0 0 0 0 0 0 0 0 0 0 0 0 0 0 0 0 0 127 0" result="hardAlpha"/>
<feMorphology radius="0.65702" operator="erode" in="SourceAlpha" result="effect1_dropShadow_438_7612"/>
<feOffset dx="1.31404" dy="4.59914"/>
<feGaussianBlur stdDeviation="2.95659"/>
<feComposite in2="hardAlpha" operator="out"/>
<feColorMatrix type="matrix" values="0 0 0 0 0 0 0 0 0 0 0 0 0 0 0 0 0 0 0.06 0"/>
<feBlend mode="normal" in2="BackgroundImageFix" result="effect1_dropShadow_438_7612"/>
<feBlend mode="normal" in="SourceGraphic" in2="effect1_dropShadow_438_7612" result="shape"/>
</filter>
<filter id="filter1_d_438_7612" x="37.5842" y="67.5837" width="39.8313" height="12.4163" filterUnits="userSpaceOnUse" color-interpolation-filters="sRGB">
<feFlood flood-opacity="0" result="BackgroundImageFix"/>
<feColorMatrix in="SourceAlpha" type="matrix" values="0 0 0 0 0 0 0 0 0 0 0 0 0 0 0 0 0 0 127 0" result="hardAlpha"/>
<feOffset dy="4"/>
<feGaussianBlur stdDeviation="2"/>
<feComposite in2="hardAlpha" operator="out"/>
<feColorMatrix type="matrix" values="0 0 0 0 0 0 0 0 0 0 0 0 0 0 0 0 0 0 0.25 0"/>
<feBlend mode="normal" in2="BackgroundImageFix" result="effect1_dropShadow_438_7612"/>
<feBlend mode="normal" in="SourceGraphic" in2="effect1_dropShadow_438_7612" result="shape"/>
</filter>
<filter id="filter2_d_438_7612" x="48.5854" y="35" width="17.8289" height="30.6338" filterUnits="userSpaceOnUse" color-interpolation-filters="sRGB">
<feFlood flood-opacity="0" result="BackgroundImageFix"/>
<feColorMatrix in="SourceAlpha" type="matrix" values="0 0 0 0 0 0 0 0 0 0 0 0 0 0 0 0 0 0 127 0" result="hardAlpha"/>
<feOffset dy="4"/>
<feGaussianBlur stdDeviation="2"/>
<feComposite in2="hardAlpha" operator="out"/>
<feColorMatrix type="matrix" values="0 0 0 0 0 0 0 0 0 0 0 0 0 0 0 0 0 0 0.25 0"/>
<feBlend mode="normal" in2="BackgroundImageFix" result="effect1_dropShadow_438_7612"/>
<feBlend mode="normal" in="SourceGraphic" in2="effect1_dropShadow_438_7612" result="shape"/>
</filter>
<filter id="filter3_d_438_7612" x="48.5857" y="55.0037" width="17.8286" height="14.988" filterUnits="userSpaceOnUse" color-interpolation-filters="sRGB">
<feFlood flood-opacity="0" result="BackgroundImageFix"/>
<feColorMatrix in="SourceAlpha" type="matrix" values="0 0 0 0 0 0 0 0 0 0 0 0 0 0 0 0 0 0 127 0" result="hardAlpha"/>
<feOffset dy="4"/>
<feGaussianBlur stdDeviation="2"/>
<feComposite in2="hardAlpha" operator="out"/>
<feColorMatrix type="matrix" values="0 0 0 0 0 0 0 0 0 0 0 0 0 0 0 0 0 0 0.25 0"/>
<feBlend mode="normal" in2="BackgroundImageFix" result="effect1_dropShadow_438_7612"/>
<feBlend mode="normal" in="SourceGraphic" in2="effect1_dropShadow_438_7612" result="shape"/>
</filter>
<filter id="filter4_d_438_7612" x="45.7087" y="60.238" width="23.5825" height="13.5073" filterUnits="userSpaceOnUse" color-interpolation-filters="sRGB">
<feFlood flood-opacity="0" result="BackgroundImageFix"/>
<feColorMatrix in="SourceAlpha" type="matrix" values="0 0 0 0 0 0 0 0 0 0 0 0 0 0 0 0 0 0 127 0" result="hardAlpha"/>
<feOffset dy="4"/>
<feGaussianBlur stdDeviation="2"/>
<feComposite in2="hardAlpha" operator="out"/>
<feColorMatrix type="matrix" values="0 0 0 0 0 0 0 0 0 0 0 0 0 0 0 0 0 0 0.25 0"/>
<feBlend mode="normal" in2="BackgroundImageFix" result="effect1_dropShadow_438_7612"/>
<feBlend mode="normal" in="SourceGraphic" in2="effect1_dropShadow_438_7612" result="shape"/>
</filter>
<filter id="filter5_d_438_7612" x="35" y="63.1147" width="45" height="14.2224" filterUnits="userSpaceOnUse" color-interpolation-filters="sRGB">
<feFlood flood-opacity="0" result="BackgroundImageFix"/>
<feColorMatrix in="SourceAlpha" type="matrix" values="0 0 0 0 0 0 0 0 0 0 0 0 0 0 0 0 0 0 127 0" result="hardAlpha"/>
<feOffset dy="4"/>
<feGaussianBlur stdDeviation="2"/>
<feComposite in2="hardAlpha" operator="out"/>
<feColorMatrix type="matrix" values="0 0 0 0 0 0 0 0 0 0 0 0 0 0 0 0 0 0 0.25 0"/>
<feBlend mode="normal" in2="BackgroundImageFix" result="effect1_dropShadow_438_7612"/>
<feBlend mode="normal" in="SourceGraphic" in2="effect1_dropShadow_438_7612" result="shape"/>
</filter>
<clipPath id="clip0_438_7612">
<rect width="46" height="46" fill="white" transform="translate(35 33)"/>
</clipPath>
</defs>
</svg>
