<svg width="118" height="136" viewBox="0 0 118 136" fill="none" xmlns="http://www.w3.org/2000/svg">
<g filter="url(#filter0_d_371_7436)">
<rect x="4.21484" y="1.03125" width="106.464" height="124.207" rx="23.0014" fill="white"/>
</g>
<path d="M42.7186 94.3234V101.954H41.624V98.5974H37.5793V101.954H36.4848V94.3234H37.5793V97.6175H41.624V94.3234H42.7186ZM47.2546 102.069C46.657 102.069 46.1253 101.933 45.6597 101.662C45.1941 101.384 44.8292 101.012 44.5651 100.547C44.308 100.074 44.1794 99.553 44.1794 98.9831C44.1794 98.4202 44.308 97.9059 44.5651 97.4403C44.8292 96.9747 45.1941 96.6064 45.6597 96.3353C46.1253 96.0643 46.657 95.9288 47.2546 95.9288C47.8523 95.9288 48.3839 96.0643 48.8496 96.3353C49.3152 96.6064 49.6766 96.9747 49.9337 97.4403C50.1978 97.9059 50.3298 98.4202 50.3298 98.9831C50.3298 99.553 50.1978 100.074 49.9337 100.547C49.6766 101.012 49.3152 101.384 48.8496 101.662C48.3839 101.933 47.8523 102.069 47.2546 102.069ZM47.2546 96.8878C46.8515 96.8878 46.4971 96.9782 46.1913 97.1589C45.8925 97.3395 45.6597 97.5897 45.4929 97.9094C45.3331 98.2291 45.2531 98.587 45.2531 98.9831C45.2531 99.3793 45.3331 99.7406 45.4929 100.067C45.6597 100.387 45.8925 100.641 46.1913 100.828C46.4971 101.016 46.8515 101.11 47.2546 101.11C47.6577 101.11 48.0087 101.016 48.3075 100.828C48.6133 100.641 48.8461 100.387 49.0059 100.067C49.1727 99.7406 49.2561 99.3793 49.2561 98.9831C49.2561 98.587 49.1727 98.2291 49.0059 97.9094C48.8461 97.5897 48.6133 97.3395 48.3075 97.1589C48.0087 96.9782 47.6577 96.8878 47.2546 96.8878ZM53.7349 102.11C52.7272 102.11 51.9002 101.864 51.2539 101.37L51.6709 100.63C51.921 100.811 52.2303 100.957 52.5986 101.068C52.9739 101.179 53.3388 101.235 53.6932 101.235C54.0963 101.235 54.4021 101.176 54.6105 101.058C54.826 100.933 54.9337 100.731 54.9337 100.453C54.9337 100.244 54.8677 100.081 54.7356 99.963C54.6036 99.8379 54.4368 99.7441 54.2353 99.6816C54.0407 99.6121 53.7662 99.5391 53.4117 99.4627C52.9531 99.3654 52.5813 99.2646 52.2963 99.1603C52.0114 99.0492 51.7681 98.8789 51.5666 98.6495C51.3651 98.4133 51.2643 98.0936 51.2643 97.6905C51.2643 97.3013 51.3685 96.9747 51.577 96.7106C51.7925 96.4465 52.0705 96.2554 52.411 96.1373C52.7515 96.0122 53.1129 95.9496 53.4951 95.9496C53.9052 95.9496 54.2909 96.0052 54.6522 96.1164C55.0136 96.2207 55.3229 96.3631 55.58 96.5438L55.2047 97.3048C54.9546 97.1519 54.6766 97.0338 54.3708 96.9504C54.072 96.867 53.7731 96.8253 53.4743 96.8253C53.1824 96.8253 52.9114 96.8878 52.6612 97.0129C52.4179 97.1311 52.2963 97.3326 52.2963 97.6175C52.2963 97.8052 52.3589 97.9581 52.484 98.0762C52.6091 98.1874 52.7619 98.2708 52.9426 98.3264C53.1303 98.382 53.3978 98.448 53.7453 98.5245C54.2109 98.6218 54.5897 98.726 54.8816 98.8372C55.1804 98.9484 55.4341 99.1256 55.6426 99.3688C55.8511 99.6121 55.9553 99.9491 55.9553 100.38C55.9553 100.936 55.7503 101.363 55.3403 101.662C54.9372 101.961 54.4021 102.11 53.7349 102.11ZM60.5 95.9288C61.0074 95.9288 61.466 96.0573 61.8761 96.3145C62.293 96.5647 62.6197 96.9226 62.856 97.3882C63.0923 97.8538 63.2104 98.3924 63.2104 99.004C63.2104 99.6155 63.0923 100.154 62.856 100.62C62.6197 101.078 62.293 101.436 61.8761 101.693C61.466 101.944 61.0074 102.069 60.5 102.069C59.5479 102.069 58.8426 101.735 58.3839 101.068V104.133H57.3519V96.0434H58.3839V96.9295C58.8426 96.2623 59.5479 95.9288 60.5 95.9288ZM60.2082 101.099C60.5973 101.099 60.9379 101.005 61.2298 100.818C61.5216 100.63 61.744 100.377 61.8969 100.057C62.0568 99.7372 62.1367 99.3827 62.1367 98.9936C62.1367 98.6113 62.0568 98.2604 61.8969 97.9407C61.744 97.621 61.5216 97.3673 61.2298 97.1797C60.9379 96.9921 60.5973 96.8982 60.2082 96.8982C59.8259 96.8982 59.4958 96.9921 59.2178 97.1797C58.9398 97.3673 58.7279 97.621 58.5819 97.9407C58.4429 98.2534 58.3735 98.6044 58.3735 98.9936C58.3735 99.5982 58.5333 100.102 58.853 100.505C59.1796 100.901 59.6313 101.099 60.2082 101.099ZM65.883 94.5944C65.883 94.7751 65.817 94.928 65.685 95.0531C65.5599 95.1782 65.407 95.2408 65.2263 95.2408C65.0387 95.2408 64.8788 95.1782 64.7468 95.0531C64.6147 94.928 64.5487 94.7751 64.5487 94.5944C64.5487 94.4276 64.6147 94.2817 64.7468 94.1566C64.8788 94.0315 65.0387 93.969 65.2263 93.969C65.407 93.969 65.5599 94.0315 65.685 94.1566C65.817 94.2748 65.883 94.4207 65.883 94.5944ZM64.6842 96.0434H65.7371V101.954H64.6842V96.0434ZM68.9994 100.38C68.9994 100.637 69.0654 100.832 69.1975 100.964C69.3295 101.089 69.5067 101.151 69.7291 101.151C69.9723 101.151 70.1878 101.103 70.3754 101.005L70.5943 101.808C70.4692 101.878 70.3094 101.937 70.1148 101.985C69.9202 102.041 69.7048 102.069 69.4685 102.069C68.9959 102.069 68.6241 101.947 68.3531 101.704C68.082 101.454 67.9465 101.103 67.9465 100.651V96.9921H67.2898V96.6898L68.9473 94.8759H68.9994V96.0434H70.3963V96.9921H68.9994V100.38ZM75.624 101.151C75.4085 101.464 75.1201 101.693 74.7587 101.839C74.3974 101.978 74.0117 102.048 73.6016 102.048C72.9275 102.048 72.3785 101.885 71.9546 101.558C71.5376 101.231 71.3291 100.776 71.3291 100.192C71.3291 99.8032 71.4403 99.4627 71.6627 99.1708C71.8851 98.8789 72.1839 98.653 72.5592 98.4932C72.9414 98.3333 73.3653 98.2534 73.831 98.2534C74.4008 98.2534 74.9881 98.3368 75.5927 98.5036C75.6066 97.9476 75.485 97.5341 75.2278 97.2631C74.9707 96.9851 74.5607 96.8461 73.9978 96.8461C73.6711 96.8461 73.3306 96.8913 72.9762 96.9816C72.6217 97.065 72.3055 97.1728 72.0275 97.3048L71.7461 96.4917C72.5244 96.1095 73.3167 95.9183 74.1229 95.9183C75.8047 95.9183 76.6456 96.794 76.6456 98.5453V101.954H75.624V101.151ZM73.831 101.224C74.1159 101.224 74.3939 101.176 74.6649 101.078C74.936 100.981 75.1583 100.828 75.3321 100.62C75.5058 100.411 75.5927 100.151 75.5927 99.8379V99.2646C75.0645 99.0978 74.5398 99.0144 74.0186 99.0144C73.553 99.0144 73.1673 99.1152 72.8615 99.3167C72.5557 99.5183 72.4028 99.7893 72.4028 100.13C72.4028 100.484 72.5349 100.755 72.7989 100.943C73.07 101.131 73.414 101.224 73.831 101.224ZM78.3331 93.8647H79.386V101.954H78.3331V93.8647Z" fill="#033F40"/>
<g filter="url(#filter1_d_371_7436)">
<path d="M70.2621 67.6272H73.1099V70.475H41.7842V67.6272H44.632V43.421C44.632 43.0433 44.782 42.6812 45.049 42.4141C45.3161 42.1471 45.6782 41.9971 46.0559 41.9971H68.8382C69.2158 41.9971 69.578 42.1471 69.845 42.4141C70.1121 42.6812 70.2621 43.0433 70.2621 43.421V67.6272ZM56.0231 50.5404H53.1753V53.3882H56.0231V56.236H58.8709V53.3882H61.7187V50.5404H58.8709V47.6927H56.0231V50.5404ZM60.2948 67.6272H63.1426V59.0838H51.7514V67.6272H54.5992V61.9316H60.2948V67.6272Z" fill="#FF7171"/>
</g>
<defs>
<filter id="filter0_d_371_7436" x="0.271749" y="0.374067" width="116.979" height="134.722" filterUnits="userSpaceOnUse" color-interpolation-filters="sRGB">
<feFlood flood-opacity="0" result="BackgroundImageFix"/>
<feColorMatrix in="SourceAlpha" type="matrix" values="0 0 0 0 0 0 0 0 0 0 0 0 0 0 0 0 0 0 127 0" result="hardAlpha"/>
<feMorphology radius="0.657182" operator="erode" in="SourceAlpha" result="effect1_dropShadow_371_7436"/>
<feOffset dx="1.31436" dy="4.60028"/>
<feGaussianBlur stdDeviation="2.95732"/>
<feComposite in2="hardAlpha" operator="out"/>
<feColorMatrix type="matrix" values="0 0 0 0 0 0 0 0 0 0 0 0 0 0 0 0 0 0 0.06 0"/>
<feBlend mode="normal" in2="BackgroundImageFix" result="effect1_dropShadow_371_7436"/>
<feBlend mode="normal" in="SourceGraphic" in2="effect1_dropShadow_371_7436" result="shape"/>
</filter>
<filter id="filter1_d_371_7436" x="39.1554" y="41.9971" width="36.5831" height="33.7354" filterUnits="userSpaceOnUse" color-interpolation-filters="sRGB">
<feFlood flood-opacity="0" result="BackgroundImageFix"/>
<feColorMatrix in="SourceAlpha" type="matrix" values="0 0 0 0 0 0 0 0 0 0 0 0 0 0 0 0 0 0 127 0" result="hardAlpha"/>
<feOffset dy="2.62873"/>
<feGaussianBlur stdDeviation="1.31436"/>
<feComposite in2="hardAlpha" operator="out"/>
<feColorMatrix type="matrix" values="0 0 0 0 0.816903 0 0 0 0 0.816903 0 0 0 0 0.816903 0 0 0 1 0"/>
<feBlend mode="normal" in2="BackgroundImageFix" result="effect1_dropShadow_371_7436"/>
<feBlend mode="normal" in="SourceGraphic" in2="effect1_dropShadow_371_7436" result="shape"/>
</filter>
</defs>
</svg>
