<svg width="118" height="135" viewBox="0 0 118 135" fill="none" xmlns="http://www.w3.org/2000/svg">
<g filter="url(#filter0_d_371_7446)">
<rect x="4.45508" y="0.859375" width="106.413" height="124.148" rx="22.9904" fill="white"/>
</g>
<path d="M33.4215 99.1209H29.733L28.9932 100.944H27.795L30.9833 93.3173H32.1711L35.3595 100.944H34.1613L33.4215 99.1209ZM33.036 98.1728L31.5772 94.5989L30.1185 98.1728H33.036ZM39.5169 94.9219C40.024 94.9219 40.4824 95.0504 40.8922 95.3074C41.309 95.5575 41.6355 95.9152 41.8717 96.3806C42.1079 96.846 42.2259 97.3843 42.2259 97.9956C42.2259 98.6069 42.1079 99.1452 41.8717 99.6106C41.6355 100.069 41.309 100.427 40.8922 100.684C40.4824 100.934 40.024 101.059 39.5169 101.059C38.5652 101.059 37.8602 100.726 37.4017 100.059V103.122H36.3702V95.0365H37.4017V95.9221C37.8602 95.2553 38.5652 94.9219 39.5169 94.9219ZM39.2251 100.09C39.6141 100.09 39.9545 99.9962 40.2462 99.8086C40.538 99.6211 40.7603 99.3675 40.9131 99.048C41.0728 98.7285 41.1527 98.3742 41.1527 97.9852C41.1527 97.6032 41.0728 97.2524 40.9131 96.9328C40.7603 96.6133 40.538 96.3598 40.2462 96.1722C39.9545 95.9847 39.6141 95.8909 39.2251 95.8909C38.8431 95.8909 38.5131 95.9847 38.2353 96.1722C37.9574 96.3598 37.7456 96.6133 37.5997 96.9328C37.4608 97.2454 37.3913 97.5962 37.3913 97.9852C37.3913 98.5895 37.5511 99.0931 37.8706 99.496C38.1971 99.892 38.6486 100.09 39.2251 100.09ZM47.4397 100.142C47.2243 100.455 46.9361 100.684 46.5749 100.83C46.2136 100.969 45.8281 101.038 45.4183 101.038C44.7445 101.038 44.1957 100.875 43.772 100.548C43.3552 100.222 43.1468 99.7669 43.1468 99.1834C43.1468 98.7944 43.258 98.4541 43.4803 98.1623C43.7025 97.8706 44.0012 97.6448 44.3763 97.4851C44.7584 97.3253 45.1821 97.2454 45.6475 97.2454C46.2171 97.2454 46.8041 97.3288 47.4084 97.4955C47.4223 96.9398 47.3007 96.5265 47.0437 96.2556C46.7867 95.9777 46.3769 95.8388 45.8142 95.8388C45.4878 95.8388 45.1474 95.8839 44.7931 95.9742C44.4389 96.0576 44.1228 96.1653 43.8449 96.2972L43.5636 95.4845C44.3416 95.1025 45.1335 94.9115 45.9393 94.9115C47.6203 94.9115 48.4608 95.7867 48.4608 97.5372V100.944H47.4397V100.142ZM45.6475 100.215C45.9323 100.215 46.2102 100.166 46.4811 100.069C46.752 99.9719 46.9743 99.819 47.1479 99.6106C47.3216 99.4023 47.4084 99.1418 47.4084 98.8292V98.2561C46.8805 98.0894 46.356 98.006 45.8351 98.006C45.3697 98.006 44.9841 98.1068 44.6785 98.3082C44.3729 98.5097 44.22 98.7806 44.22 99.1209C44.22 99.4752 44.352 99.7461 44.616 99.9336C44.8869 100.121 45.2307 100.215 45.6475 100.215ZM51.1999 96.4119C51.7 95.4533 52.4606 94.974 53.4817 94.974V96.1097H53.3359C52.9677 96.1097 52.6204 96.1896 52.2939 96.3493C51.9744 96.5091 51.7104 96.7765 51.502 97.1516C51.3006 97.5198 51.1999 97.9991 51.1999 98.5895V100.944H50.1475V95.0365H51.1999V96.4119ZM56.132 99.371C56.132 99.628 56.198 99.8225 56.33 99.9545C56.462 100.08 56.6391 100.142 56.8614 100.142C57.1045 100.142 57.3199 100.093 57.5074 99.9962L57.7262 100.798C57.6012 100.868 57.4414 100.927 57.2469 100.976C57.0524 101.031 56.8371 101.059 56.6009 101.059C56.1286 101.059 55.7569 100.937 55.486 100.694C55.2151 100.444 55.0797 100.093 55.0797 99.6419V95.9847H54.4232V95.6825L56.0799 93.8695H56.132V95.0365H57.5283V95.9847H56.132V99.371ZM65.8793 94.9323C66.303 94.9323 66.6781 95.033 67.0046 95.2345C67.3311 95.429 67.5812 95.7068 67.7548 96.068C67.9354 96.4223 68.0257 96.8321 68.0257 97.2975V100.944H66.9733V97.4642C66.9733 96.978 66.8379 96.5959 66.567 96.3181C66.303 96.0333 65.9557 95.8909 65.525 95.8909C65.2402 95.8909 64.9798 95.9673 64.7436 96.1201C64.5143 96.266 64.3303 96.4744 64.1913 96.7453C64.0594 97.0092 63.9934 97.3114 63.9934 97.6518V100.944H62.9306V97.5059C62.9306 97.0058 62.8021 96.6133 62.5451 96.3285C62.295 96.0368 61.965 95.8909 61.5552 95.8909C61.2426 95.8909 60.9648 95.9847 60.7217 96.1722C60.4785 96.3528 60.2875 96.5855 60.1486 96.8703C60.0166 97.1482 59.9506 97.426 59.9506 97.7039V100.944H58.8982V95.0365H59.9506V96.0055C60.5063 95.29 61.1489 94.9323 61.8782 94.9323C62.295 94.9323 62.6666 95.0365 62.9931 95.2449C63.3196 95.4463 63.5696 95.7276 63.7433 96.0889C64.3268 95.3178 65.0388 94.9323 65.8793 94.9323ZM72.4966 101.059C71.8367 101.059 71.2671 100.934 70.7878 100.684C70.3085 100.434 69.9403 100.08 69.6833 99.6211C69.4332 99.1626 69.3082 98.6243 69.3082 98.006C69.3082 97.3461 69.4471 96.7835 69.725 96.3181C70.0098 95.8527 70.3745 95.5054 70.819 95.2761C71.2636 95.04 71.7359 94.9219 72.2361 94.9219C72.8057 94.9219 73.3093 95.0434 73.7469 95.2866C74.1915 95.5227 74.5353 95.877 74.7784 96.3493C75.0285 96.8147 75.1535 97.3843 75.1535 98.0581C75.1535 98.1832 75.1466 98.3429 75.1327 98.5374H70.3918C70.4474 98.982 70.6558 99.3606 71.017 99.6732C71.3852 99.9857 71.8853 100.142 72.5174 100.142C72.8578 100.142 73.1773 100.086 73.476 99.9753C73.7747 99.8572 74.0213 99.7183 74.2158 99.5585L74.7889 100.152C74.5527 100.403 74.2331 100.618 73.8303 100.798C73.4343 100.972 72.9898 101.059 72.4966 101.059ZM72.2361 95.9013C71.8679 95.9013 71.5414 95.9847 71.2567 96.1514C70.9788 96.3111 70.7635 96.5299 70.6106 96.8078C70.4648 97.0787 70.3918 97.3705 70.3918 97.683H74.0491C74.0491 97.3635 73.9761 97.0683 73.8303 96.7974C73.6913 96.5265 73.4829 96.3111 73.2051 96.1514C72.9342 95.9847 72.6112 95.9013 72.2361 95.9013ZM79.7831 94.9323C80.2277 94.9323 80.6167 95.033 80.9501 95.2345C81.2905 95.4359 81.5544 95.7242 81.742 96.0993C81.9295 96.4674 82.0233 96.9016 82.0233 97.4017V100.944H80.9814V97.6309C80.9814 97.0683 80.839 96.6376 80.5542 96.3389C80.2763 96.0402 79.8977 95.8909 79.4184 95.8909C79.0711 95.8909 78.7551 95.9673 78.4703 96.1201C78.1924 96.2729 77.9736 96.4848 77.8138 96.7557C77.6541 97.0197 77.5742 97.3149 77.5742 97.6414V100.944H76.5218V95.0365H77.5742V96.0263C77.8382 95.7138 78.1542 95.4533 78.5224 95.2449C78.8975 95.0365 79.3177 94.9323 79.7831 94.9323ZM85.0807 99.371C85.0807 99.628 85.1467 99.8225 85.2787 99.9545C85.4106 100.08 85.5878 100.142 85.8101 100.142C86.0532 100.142 86.2685 100.093 86.4561 99.9962L86.6749 100.798C86.5498 100.868 86.3901 100.927 86.1956 100.976C86.0011 101.031 85.7857 101.059 85.5496 101.059C85.0772 101.059 84.7056 100.937 84.4347 100.694C84.1638 100.444 84.0283 100.093 84.0283 99.6419V95.9847H83.3719V95.6825L85.0286 93.8695H85.0807V95.0365H86.4769V95.9847H85.0807V99.371Z" fill="#033F40"/>
<g filter="url(#filter1_d_371_7446)">
<path d="M71.018 58.7721V71.581H68.1716V67.3114H45.4001V71.581H42.5537V48.8096H45.4001V63.0417H56.7859V53.0792H65.3252C66.835 53.0792 68.283 53.679 69.3506 54.7466C70.4183 55.8142 71.018 57.2622 71.018 58.7721ZM51.093 61.6185C49.9606 61.6185 48.8746 61.1687 48.0739 60.368C47.2732 59.5672 46.8234 58.4812 46.8234 57.3489C46.8234 56.2165 47.2732 55.1305 48.0739 54.3298C48.8746 53.5291 49.9606 53.0792 51.093 53.0792C52.2254 53.0792 53.3114 53.5291 54.1121 54.3298C54.9128 55.1305 55.3627 56.2165 55.3627 57.3489C55.3627 58.4812 54.9128 59.5672 54.1121 60.368C53.3114 61.1687 52.2254 61.6185 51.093 61.6185Z" fill="#F5C151"/>
</g>
<defs>
<filter id="filter0_d_371_7446" x="0.513864" y="0.202507" width="116.923" height="134.658" filterUnits="userSpaceOnUse" color-interpolation-filters="sRGB">
<feFlood flood-opacity="0" result="BackgroundImageFix"/>
<feColorMatrix in="SourceAlpha" type="matrix" values="0 0 0 0 0 0 0 0 0 0 0 0 0 0 0 0 0 0 127 0" result="hardAlpha"/>
<feMorphology radius="0.656869" operator="erode" in="SourceAlpha" result="effect1_dropShadow_371_7446"/>
<feOffset dx="1.31374" dy="4.59808"/>
<feGaussianBlur stdDeviation="2.95591"/>
<feComposite in2="hardAlpha" operator="out"/>
<feColorMatrix type="matrix" values="0 0 0 0 0 0 0 0 0 0 0 0 0 0 0 0 0 0 0.06 0"/>
<feBlend mode="normal" in2="BackgroundImageFix" result="effect1_dropShadow_371_7446"/>
<feBlend mode="normal" in="SourceGraphic" in2="effect1_dropShadow_371_7446" result="shape"/>
</filter>
<filter id="filter1_d_371_7446" x="37.9556" y="46.839" width="37.6605" height="31.9677" filterUnits="userSpaceOnUse" color-interpolation-filters="sRGB">
<feFlood flood-opacity="0" result="BackgroundImageFix"/>
<feColorMatrix in="SourceAlpha" type="matrix" values="0 0 0 0 0 0 0 0 0 0 0 0 0 0 0 0 0 0 127 0" result="hardAlpha"/>
<feOffset dy="2.62748"/>
<feGaussianBlur stdDeviation="2.29904"/>
<feComposite in2="hardAlpha" operator="out"/>
<feColorMatrix type="matrix" values="0 0 0 0 0.815686 0 0 0 0 0.815686 0 0 0 0 0.815686 0 0 0 1 0"/>
<feBlend mode="normal" in2="BackgroundImageFix" result="effect1_dropShadow_371_7446"/>
<feBlend mode="normal" in="SourceGraphic" in2="effect1_dropShadow_371_7446" result="shape"/>
</filter>
</defs>
</svg>
