<svg width="119" height="137" viewBox="0 0 119 137" fill="none" xmlns="http://www.w3.org/2000/svg">
<g filter="url(#filter0_d_371_7456)">
<rect x="4.58008" y="1.14746" width="107.278" height="125.158" rx="23.1773" fill="white"/>
</g>
<path d="M29.0646 98.3844C28.7985 98.9446 28.3714 99.4138 27.7831 99.792C27.2019 100.17 26.4876 100.359 25.6403 100.359C24.884 100.359 24.2012 100.188 23.592 99.8445C22.9827 99.5014 22.503 99.0252 22.1529 98.4159C21.8097 97.8067 21.6382 97.1274 21.6382 96.3781C21.6382 95.6288 21.8097 94.9531 22.1529 94.3508C22.503 93.7486 22.9827 93.2759 23.592 92.9327C24.2082 92.5826 24.891 92.4075 25.6403 92.4075C26.4876 92.4075 27.2019 92.5966 27.7831 92.9748C28.3644 93.3529 28.7915 93.8256 29.0646 94.3928L28.0352 94.8445C27.8181 94.4664 27.4995 94.1407 27.0793 93.8676C26.6662 93.5875 26.1865 93.4474 25.6403 93.4474C25.1081 93.4474 24.6214 93.577 24.1802 93.8361C23.746 94.0882 23.3994 94.4383 23.1403 94.8865C22.8882 95.3277 22.7621 95.8214 22.7621 96.3676C22.7621 96.9138 22.8882 97.4145 23.1403 97.8697C23.3994 98.3179 23.7495 98.6715 24.1907 98.9306C24.6319 99.1897 25.1151 99.3193 25.6403 99.3193C26.2005 99.3193 26.6942 99.1827 27.1214 98.9096C27.5485 98.6295 27.8567 98.3004 28.0457 97.9222L29.0646 98.3844ZM32.9751 100.338C32.3728 100.338 31.8371 100.202 31.3679 99.9285C30.8987 99.6484 30.5311 99.2738 30.265 98.8046C30.0059 98.3284 29.8763 97.8032 29.8763 97.229C29.8763 96.6617 30.0059 96.1435 30.265 95.6743C30.5311 95.2052 30.8987 94.834 31.3679 94.5609C31.8371 94.2878 32.3728 94.1512 32.9751 94.1512C33.5773 94.1512 34.113 94.2878 34.5822 94.5609C35.0514 94.834 35.4156 95.2052 35.6747 95.6743C35.9408 96.1435 36.0738 96.6617 36.0738 97.229C36.0738 97.8032 35.9408 98.3284 35.6747 98.8046C35.4156 99.2738 35.0514 99.6484 34.5822 99.9285C34.113 100.202 33.5773 100.338 32.9751 100.338ZM32.9751 95.1176C32.5689 95.1176 32.2118 95.2087 31.9036 95.3907C31.6025 95.5728 31.3679 95.8249 31.1999 96.147C31.0388 96.4692 30.9583 96.8298 30.9583 97.229C30.9583 97.6281 31.0388 97.9923 31.1999 98.3214C31.3679 98.6435 31.6025 98.8991 31.9036 99.0882C32.2118 99.2773 32.5689 99.3718 32.9751 99.3718C33.3812 99.3718 33.7349 99.2773 34.036 99.0882C34.3441 98.8991 34.5787 98.6435 34.7398 98.3214C34.9078 97.9923 34.9919 97.6281 34.9919 97.229C34.9919 96.8298 34.9078 96.4692 34.7398 96.147C34.5787 95.8249 34.3441 95.5728 34.036 95.3907C33.7349 95.2087 33.3812 95.1176 32.9751 95.1176ZM40.7339 94.1617C41.1821 94.1617 41.5742 94.2633 41.9104 94.4664C42.2535 94.6694 42.5196 94.9601 42.7087 95.3382C42.8978 95.7094 42.9923 96.147 42.9923 96.6512V100.223H41.9419V96.8823C41.9419 96.3151 41.7983 95.8809 41.5112 95.5798C41.2311 95.2787 40.8495 95.1281 40.3663 95.1281C40.0161 95.1281 39.6975 95.2052 39.4104 95.3592C39.1303 95.5133 38.9097 95.7269 38.7486 96C38.5875 96.2661 38.507 96.5637 38.507 96.8928V100.223H37.4461V94.2668H38.507V95.2647C38.7731 94.9495 39.0917 94.6869 39.4629 94.4769C39.841 94.2668 40.2647 94.1617 40.7339 94.1617ZM45.0676 94.2668L46.9689 98.8781L48.8806 94.2668H50.0466L47.5046 100.223H46.4332L43.8912 94.2668H45.0676ZM53.7708 100.338C53.1055 100.338 52.5313 100.212 52.0481 99.9601C51.5649 99.708 51.1937 99.3508 50.9346 98.8886C50.6825 98.4264 50.5565 97.8837 50.5565 97.2605C50.5565 96.5952 50.6965 96.028 50.9766 95.5588C51.2638 95.0896 51.6314 94.7395 52.0796 94.5084C52.5278 94.2703 53.004 94.1512 53.5082 94.1512C54.0824 94.1512 54.5901 94.2738 55.0313 94.5189C55.4794 94.757 55.8261 95.1141 56.0712 95.5903C56.3233 96.0595 56.4493 96.6337 56.4493 97.313C56.4493 97.439 56.4423 97.6001 56.4283 97.7962H51.6489C51.7049 98.2444 51.915 98.626 52.2792 98.9411C52.6503 99.2563 53.1545 99.4138 53.7918 99.4138C54.1349 99.4138 54.457 99.3578 54.7582 99.2458C55.0593 99.1267 55.3079 98.9867 55.504 98.8256L56.0817 99.4243C55.8436 99.6764 55.5215 99.8935 55.1153 100.076C54.7161 100.251 54.268 100.338 53.7708 100.338ZM53.5082 95.1386C53.137 95.1386 52.8079 95.2227 52.5208 95.3907C52.2407 95.5518 52.0236 95.7724 51.8695 96.0525C51.7224 96.3256 51.6489 96.6197 51.6489 96.9348H55.3359C55.3359 96.6127 55.2624 96.3151 55.1153 96.042C54.9752 95.7689 54.7652 95.5518 54.485 95.3907C54.2119 95.2227 53.8863 95.1386 53.5082 95.1386ZM61.1166 94.1617C61.5647 94.1617 61.9569 94.2633 62.293 94.4664C62.6362 94.6694 62.9023 94.9601 63.0914 95.3382C63.2804 95.7094 63.375 96.147 63.375 96.6512V100.223H62.3245V96.8823C62.3245 96.3151 62.181 95.8809 61.8939 95.5798C61.6138 95.2787 61.2321 95.1281 60.7489 95.1281C60.3988 95.1281 60.0801 95.2052 59.793 95.3592C59.5129 95.5133 59.2923 95.7269 59.1313 96C58.9702 96.2661 58.8897 96.5637 58.8897 96.8928V100.223H57.8287V94.2668H58.8897V95.2647C59.1558 94.9495 59.4744 94.6869 59.8456 94.4769C60.2237 94.2668 60.6474 94.1617 61.1166 94.1617ZM66.4047 92.8067C66.4047 92.9888 66.3382 93.1428 66.2051 93.2689C66.0791 93.3949 65.925 93.458 65.7429 93.458C65.5538 93.458 65.3928 93.3949 65.2597 93.2689C65.1267 93.1428 65.0601 92.9888 65.0601 92.8067C65.0601 92.6386 65.1267 92.4916 65.2597 92.3655C65.3928 92.2395 65.5538 92.1764 65.7429 92.1764C65.925 92.1764 66.0791 92.2395 66.2051 92.3655C66.3382 92.4846 66.4047 92.6316 66.4047 92.8067ZM65.1967 94.2668H66.2576V100.223H65.1967V94.2668ZM70.9734 100.338C70.3082 100.338 69.7339 100.212 69.2508 99.9601C68.7676 99.708 68.3964 99.3508 68.1373 98.8886C67.8852 98.4264 67.7592 97.8837 67.7592 97.2605C67.7592 96.5952 67.8992 96.028 68.1793 95.5588C68.4664 95.0896 68.8341 94.7395 69.2823 94.5084C69.7304 94.2703 70.2066 94.1512 70.7108 94.1512C71.2851 94.1512 71.7928 94.2738 72.2339 94.5189C72.6821 94.757 73.0288 95.1141 73.2739 95.5903C73.526 96.0595 73.652 96.6337 73.652 97.313C73.652 97.439 73.645 97.6001 73.631 97.7962H68.8516C68.9076 98.2444 69.1177 98.626 69.4818 98.9411C69.853 99.2563 70.3572 99.4138 70.9944 99.4138C71.3376 99.4138 71.6597 99.3578 71.9608 99.2458C72.262 99.1267 72.5106 98.9867 72.7066 98.8256L73.2844 99.4243C73.0463 99.6764 72.7241 99.8935 72.318 100.076C71.9188 100.251 71.4706 100.338 70.9734 100.338ZM70.7108 95.1386C70.3397 95.1386 70.0106 95.2227 69.7234 95.3907C69.4433 95.5518 69.2262 95.7724 69.0722 96.0525C68.9251 96.3256 68.8516 96.6197 68.8516 96.9348H72.5386C72.5386 96.6127 72.465 96.3151 72.318 96.042C72.1779 95.7689 71.9678 95.5518 71.6877 95.3907C71.4146 95.2227 71.089 95.1386 70.7108 95.1386ZM78.3192 94.1617C78.7674 94.1617 79.1596 94.2633 79.4957 94.4664C79.8388 94.6694 80.105 94.9601 80.294 95.3382C80.4831 95.7094 80.5776 96.147 80.5776 96.6512V100.223H79.5272V96.8823C79.5272 96.3151 79.3837 95.8809 79.0966 95.5798C78.8164 95.2787 78.4348 95.1281 77.9516 95.1281C77.6015 95.1281 77.2828 95.2052 76.9957 95.3592C76.7156 95.5133 76.495 95.7269 76.3339 96C76.1729 96.2661 76.0923 96.5637 76.0923 96.8928V100.223H75.0314V94.2668H76.0923V95.2647C76.3585 94.9495 76.6771 94.6869 77.0482 94.4769C77.4264 94.2668 77.8501 94.1617 78.3192 94.1617ZM81.8742 97.2605C81.8742 96.6862 82.0072 96.161 82.2733 95.6848C82.5394 95.2087 82.9036 94.834 83.3658 94.5609C83.835 94.2878 84.3532 94.1512 84.9204 94.1512C85.5506 94.1512 86.0899 94.2983 86.538 94.5924C86.9862 94.8865 87.3083 95.2472 87.5044 95.6743L86.5906 96.084C86.4505 95.8179 86.2369 95.5938 85.9498 95.4117C85.6697 95.2227 85.3301 95.1281 84.9309 95.1281C84.5457 95.1281 84.2026 95.2227 83.9015 95.4117C83.6004 95.5938 83.3658 95.8494 83.1977 96.1785C83.0296 96.5007 82.9456 96.8648 82.9456 97.271C82.9456 97.6701 83.0296 98.0308 83.1977 98.3529C83.3658 98.668 83.6004 98.9166 83.9015 99.0987C84.2026 99.2738 84.5457 99.3613 84.9309 99.3613C85.3301 99.3613 85.6732 99.2703 85.9603 99.0882C86.2474 98.8991 86.4645 98.675 86.6116 98.4159L87.5254 98.8256C87.3224 99.2598 86.9967 99.6204 86.5485 99.9075C86.1074 100.195 85.5681 100.338 84.9309 100.338C84.3567 100.338 83.835 100.205 83.3658 99.939C82.9036 99.6729 82.5394 99.3053 82.2733 98.8361C82.0072 98.3669 81.8742 97.8417 81.8742 97.2605ZM91.4997 100.338C90.8344 100.338 90.2602 100.212 89.777 99.9601C89.2938 99.708 88.9227 99.3508 88.6636 98.8886C88.4115 98.4264 88.2854 97.8837 88.2854 97.2605C88.2854 96.5952 88.4255 96.028 88.7056 95.5588C88.9927 95.0896 89.3604 94.7395 89.8085 94.5084C90.2567 94.2703 90.7329 94.1512 91.2371 94.1512C91.8113 94.1512 92.319 94.2738 92.7602 94.5189C93.2084 94.757 93.555 95.1141 93.8001 95.5903C94.0522 96.0595 94.1783 96.6337 94.1783 97.313C94.1783 97.439 94.1713 97.6001 94.1573 97.7962H89.3779C89.4339 98.2444 89.644 98.626 90.0081 98.9411C90.3793 99.2563 90.8835 99.4138 91.5207 99.4138C91.8639 99.4138 92.186 99.3578 92.4871 99.2458C92.7882 99.1267 93.0368 98.9867 93.2329 98.8256L93.8106 99.4243C93.5725 99.6764 93.2504 99.8935 92.8442 100.076C92.4451 100.251 91.9969 100.338 91.4997 100.338ZM91.2371 95.1386C90.866 95.1386 90.5368 95.2227 90.2497 95.3907C89.9696 95.5518 89.7525 95.7724 89.5984 96.0525C89.4514 96.3256 89.3779 96.6197 89.3779 96.9348H93.0648C93.0648 96.6127 92.9913 96.3151 92.8442 96.042C92.7042 95.7689 92.4941 95.5518 92.214 95.3907C91.9409 95.2227 91.6153 95.1386 91.2371 95.1386ZM44.2298 111.5C44.573 111.759 44.9616 111.962 45.3958 112.109C45.837 112.256 46.3097 112.33 46.8139 112.33C47.3601 112.33 47.7873 112.239 48.0954 112.057C48.4035 111.868 48.5576 111.573 48.5576 111.174C48.5576 110.915 48.4665 110.705 48.2845 110.544C48.1094 110.383 47.8888 110.26 47.6227 110.176C47.3566 110.085 46.9854 109.984 46.5092 109.872C45.907 109.732 45.4168 109.592 45.0387 109.452C44.6605 109.312 44.3349 109.095 44.0618 108.8C43.7957 108.506 43.6626 108.107 43.6626 107.603C43.6626 107.106 43.7992 106.693 44.0723 106.363C44.3454 106.034 44.6955 105.793 45.1227 105.639C45.5569 105.478 46.0191 105.397 46.5092 105.397C47.0485 105.397 47.5562 105.478 48.0324 105.639C48.5085 105.8 48.9112 106.017 49.2403 106.29L48.6626 107.109C48.0254 106.661 47.2831 106.437 46.4357 106.437C45.9805 106.437 45.5884 106.531 45.2592 106.721C44.9371 106.91 44.7761 107.197 44.7761 107.582C44.7761 107.82 44.8601 108.016 45.0282 108.17C45.1962 108.317 45.4098 108.433 45.6689 108.517C45.928 108.601 46.2817 108.692 46.7298 108.79C47.3531 108.937 47.8573 109.084 48.2424 109.231C48.6346 109.371 48.9707 109.599 49.2508 109.914C49.531 110.222 49.671 110.642 49.671 111.174C49.671 111.889 49.4119 112.435 48.8937 112.813C48.3755 113.184 47.6892 113.37 46.8349 113.37C46.2046 113.37 45.6024 113.275 45.0282 113.086C44.4609 112.89 43.9882 112.634 43.6101 112.319L44.2298 111.5ZM52.2294 111.637C52.2294 111.896 52.2959 112.092 52.4289 112.225C52.562 112.351 52.7406 112.414 52.9647 112.414C53.2097 112.414 53.4268 112.365 53.6159 112.267L53.8365 113.076C53.7104 113.146 53.5494 113.205 53.3533 113.254C53.1572 113.31 52.9401 113.338 52.702 113.338C52.2259 113.338 51.8512 113.216 51.5781 112.971C51.305 112.718 51.1684 112.365 51.1684 111.91V108.223H50.5067V107.918L52.1768 106.09H52.2294V107.267H53.6369V108.223H52.2294V111.637ZM57.7071 113.338C57.1049 113.338 56.5692 113.202 56.1 112.929C55.6308 112.648 55.2632 112.274 54.997 111.805C54.7379 111.328 54.6084 110.803 54.6084 110.229C54.6084 109.662 54.7379 109.144 54.997 108.674C55.2632 108.205 55.6308 107.834 56.1 107.561C56.5692 107.288 57.1049 107.151 57.7071 107.151C58.3094 107.151 58.8451 107.288 59.3143 107.561C59.7835 107.834 60.1476 108.205 60.4067 108.674C60.6728 109.144 60.8059 109.662 60.8059 110.229C60.8059 110.803 60.6728 111.328 60.4067 111.805C60.1476 112.274 59.7835 112.648 59.3143 112.929C58.8451 113.202 58.3094 113.338 57.7071 113.338ZM57.7071 108.118C57.301 108.118 56.9438 108.209 56.6357 108.391C56.3346 108.573 56.1 108.825 55.9319 109.147C55.7709 109.469 55.6903 109.83 55.6903 110.229C55.6903 110.628 55.7709 110.992 55.9319 111.321C56.1 111.644 56.3346 111.899 56.6357 112.088C56.9438 112.277 57.301 112.372 57.7071 112.372C58.1133 112.372 58.4669 112.277 58.7681 112.088C59.0762 111.899 59.3108 111.644 59.4718 111.321C59.6399 110.992 59.7239 110.628 59.7239 110.229C59.7239 109.83 59.6399 109.469 59.4718 109.147C59.3108 108.825 59.0762 108.573 58.7681 108.391C58.4669 108.209 58.1133 108.118 57.7071 108.118ZM63.2391 108.653C63.7433 107.687 64.5101 107.204 65.5395 107.204V108.349H65.3924C65.0213 108.349 64.6711 108.429 64.342 108.59C64.0199 108.751 63.7538 109.021 63.5437 109.399C63.3406 109.77 63.2391 110.253 63.2391 110.849V113.223H62.1781V107.267H63.2391V108.653ZM69.4963 113.338C68.831 113.338 68.2568 113.212 67.7736 112.96C67.2904 112.708 66.9193 112.351 66.6602 111.889C66.4081 111.426 66.282 110.884 66.282 110.26C66.282 109.595 66.4221 109.028 66.7022 108.559C66.9893 108.09 67.3569 107.739 67.8051 107.508C68.2533 107.27 68.7295 107.151 69.2337 107.151C69.8079 107.151 70.3156 107.274 70.7568 107.519C71.205 107.757 71.5516 108.114 71.7967 108.59C72.0488 109.059 72.1749 109.634 72.1749 110.313C72.1749 110.439 72.1679 110.6 72.1539 110.796H67.3744C67.4305 111.244 67.6405 111.626 68.0047 111.941C68.3758 112.256 68.88 112.414 69.5173 112.414C69.8604 112.414 70.1826 112.358 70.4837 112.246C70.7848 112.127 71.0334 111.987 71.2295 111.826L71.8072 112.424C71.5691 112.676 71.247 112.894 70.8408 113.076C70.4417 113.251 69.9935 113.338 69.4963 113.338ZM69.2337 108.139C68.8625 108.139 68.5334 108.223 68.2463 108.391C67.9662 108.552 67.7491 108.772 67.595 109.052C67.448 109.326 67.3744 109.62 67.3744 109.935H71.0614C71.0614 109.613 70.9879 109.315 70.8408 109.042C70.7008 108.769 70.4907 108.552 70.2106 108.391C69.9375 108.223 69.6118 108.139 69.2337 108.139Z" fill="#033F40"/>
<g filter="url(#filter1_d_371_7456)">
<path d="M72.4567 69.3525V72.2221H43.761V69.3525H45.1957V59.6562C44.3125 59.0667 43.5884 58.2682 43.0878 57.3316C42.5872 56.395 42.3256 55.3493 42.3262 54.2873C42.3262 53.1007 42.6476 51.9572 43.2344 50.983L47.1255 44.2438C47.2515 44.0257 47.4326 43.8445 47.6507 43.7186C47.8688 43.5927 48.1162 43.5264 48.3681 43.5264H67.851C68.1029 43.5264 68.3503 43.5927 68.5684 43.7186C68.7865 43.8445 68.9676 44.0257 69.0936 44.2438L72.9703 50.9614C73.8263 52.3831 74.1014 54.08 73.7385 55.6993C73.3757 57.3186 72.4027 58.7358 71.0219 59.6562V69.3525H72.4567ZM49.1974 46.3959L45.7065 52.4407C45.3673 53.2788 45.3571 54.2141 45.678 55.0594C45.9989 55.9048 46.6272 56.5977 47.4371 56.9996C48.2471 57.4015 49.1789 57.4827 50.0462 57.2269C50.9134 56.9711 51.6521 56.3973 52.1143 55.6202C52.5949 54.4193 54.2952 54.4193 54.7773 55.6202C55.0431 56.2865 55.5027 56.8578 56.0966 57.2603C56.6905 57.6628 57.3914 57.8779 58.1088 57.8779C58.8262 57.8779 59.5272 57.6628 60.1211 57.2603C60.715 56.8578 61.1745 56.2865 61.4404 55.6202C61.9211 54.4193 63.6213 54.4193 64.1034 55.6202C64.2896 56.0785 64.5686 56.4934 64.9228 56.8387C65.2771 57.184 65.699 57.4523 66.1619 57.6268C66.6249 57.8012 67.1189 57.878 67.6129 57.8523C68.107 57.8266 68.5904 57.6989 69.0327 57.4774C69.4751 57.2559 69.8668 56.9453 70.1833 56.565C70.4999 56.1848 70.7343 55.7432 70.8719 55.2681C71.0096 54.7929 71.0474 54.2943 70.9831 53.8038C70.9188 53.3133 70.7537 52.8414 70.4982 52.4177L67.0188 46.3959H49.1988H49.1974Z" fill="#47629A"/>
</g>
<defs>
<filter id="filter0_d_371_7456" x="0.606821" y="0.485252" width="117.873" height="135.753" filterUnits="userSpaceOnUse" color-interpolation-filters="sRGB">
<feFlood flood-opacity="0" result="BackgroundImageFix"/>
<feColorMatrix in="SourceAlpha" type="matrix" values="0 0 0 0 0 0 0 0 0 0 0 0 0 0 0 0 0 0 127 0" result="hardAlpha"/>
<feMorphology radius="0.66221" operator="erode" in="SourceAlpha" result="effect1_dropShadow_371_7456"/>
<feOffset dx="1.32442" dy="4.63547"/>
<feGaussianBlur stdDeviation="2.97994"/>
<feComposite in2="hardAlpha" operator="out"/>
<feColorMatrix type="matrix" values="0 0 0 0 0 0 0 0 0 0 0 0 0 0 0 0 0 0 0.06 0"/>
<feBlend mode="normal" in2="BackgroundImageFix" result="effect1_dropShadow_371_7456"/>
<feBlend mode="normal" in="SourceGraphic" in2="effect1_dropShadow_371_7456" result="shape"/>
</filter>
<filter id="filter1_d_371_7456" x="39.6773" y="43.5264" width="36.8663" height="33.9935" filterUnits="userSpaceOnUse" color-interpolation-filters="sRGB">
<feFlood flood-opacity="0" result="BackgroundImageFix"/>
<feColorMatrix in="SourceAlpha" type="matrix" values="0 0 0 0 0 0 0 0 0 0 0 0 0 0 0 0 0 0 127 0" result="hardAlpha"/>
<feOffset dy="2.64884"/>
<feGaussianBlur stdDeviation="1.32442"/>
<feComposite in2="hardAlpha" operator="out"/>
<feColorMatrix type="matrix" values="0 0 0 0 0.816903 0 0 0 0 0.816903 0 0 0 0 0.816903 0 0 0 1 0"/>
<feBlend mode="normal" in2="BackgroundImageFix" result="effect1_dropShadow_371_7456"/>
<feBlend mode="normal" in="SourceGraphic" in2="effect1_dropShadow_371_7456" result="shape"/>
</filter>
</defs>
</svg>
