<svg width="57" height="57" viewBox="0 0 57 57" fill="none" xmlns="http://www.w3.org/2000/svg">
<g filter="url(#filter0_d_371_7459)">
<path d="M42.4567 40.3525V43.2221H13.761V40.3525H15.1957V30.6562C14.3125 30.0667 13.5884 29.2682 13.0878 28.3316C12.5872 27.395 12.3256 26.3493 12.3262 25.2873C12.3262 24.1007 12.6476 22.9572 13.2344 21.983L17.1255 15.2438C17.2515 15.0257 17.4326 14.8445 17.6507 14.7186C17.8688 14.5927 18.1162 14.5264 18.3681 14.5264H37.851C38.1029 14.5264 38.3503 14.5927 38.5684 14.7186C38.7865 14.8445 38.9676 15.0257 39.0936 15.2438L42.9703 21.9614C43.8263 23.3831 44.1014 25.08 43.7385 26.6993C43.3757 28.3186 42.4027 29.7358 41.0219 30.6562V40.3525H42.4567ZM19.1974 17.3959L15.7065 23.4407C15.3673 24.2788 15.3571 25.2141 15.678 26.0594C15.9989 26.9048 16.6272 27.5977 17.4371 27.9996C18.2471 28.4015 19.1789 28.4827 20.0462 28.2269C20.9134 27.9711 21.6521 27.3973 22.1143 26.6202C22.5949 25.4193 24.2952 25.4193 24.7773 26.6202C25.0431 27.2865 25.5027 27.8578 26.0966 28.2603C26.6905 28.6628 27.3914 28.8779 28.1088 28.8779C28.8262 28.8779 29.5272 28.6628 30.1211 28.2603C30.715 27.8578 31.1745 27.2865 31.4404 26.6202C31.9211 25.4193 33.6213 25.4193 34.1034 26.6202C34.2896 27.0785 34.5686 27.4934 34.9228 27.8387C35.2771 28.184 35.6989 28.4523 36.1619 28.6268C36.6249 28.8012 37.1189 28.878 37.6129 28.8523C38.107 28.8266 38.5904 28.6989 39.0327 28.4774C39.4751 28.2559 39.8668 27.9453 40.1833 27.565C40.4999 27.1848 40.7343 26.7432 40.8719 26.2681C41.0096 25.7929 41.0474 25.2943 40.9831 24.8038C40.9188 24.3133 40.7537 23.8414 40.4982 23.4177L37.0188 17.3959H19.1988H19.1974Z" fill="#47629A"/>
</g>
<defs>
<filter id="filter0_d_371_7459" x="9.67733" y="14.5264" width="36.8663" height="33.9935" filterUnits="userSpaceOnUse" color-interpolation-filters="sRGB">
<feFlood flood-opacity="0" result="BackgroundImageFix"/>
<feColorMatrix in="SourceAlpha" type="matrix" values="0 0 0 0 0 0 0 0 0 0 0 0 0 0 0 0 0 0 127 0" result="hardAlpha"/>
<feOffset dy="2.64884"/>
<feGaussianBlur stdDeviation="1.32442"/>
<feComposite in2="hardAlpha" operator="out"/>
<feColorMatrix type="matrix" values="0 0 0 0 0.816903 0 0 0 0 0.816903 0 0 0 0 0.816903 0 0 0 1 0"/>
<feBlend mode="normal" in2="BackgroundImageFix" result="effect1_dropShadow_371_7459"/>
<feBlend mode="normal" in="SourceGraphic" in2="effect1_dropShadow_371_7459" result="shape"/>
</filter>
</defs>
</svg>
