<svg width="47" height="50" viewBox="0 0 47 50" fill="none" xmlns="http://www.w3.org/2000/svg">
<g clip-path="url(#clip0_438_7731)">
<g filter="url(#filter0_d_438_7731)">
<path d="M31.4657 32.1475C31.3 30.096 30.7102 28.1217 29.968 26.2014C29.0594 23.8506 29.2454 20.5264 30.5922 18.7835C31.2782 17.896 31.5797 16.7592 31.5743 15.6374C31.536 8.36939 27.5875 6.63502 26.4868 6.29283C26.2539 6.22017 26.0571 6.07017 25.936 5.85767C25.6875 5.42486 25.5446 4.84127 25.4625 4.2858C25.3875 3.77721 24.9438 3.41705 24.4313 3.46002C24.1282 3.4858 23.8118 3.49986 23.4844 3.49986C23.1571 3.49986 22.8407 3.4858 22.5375 3.46002C22.025 3.41705 21.5813 3.77721 21.5063 4.2858C21.4243 4.84127 21.2813 5.42486 21.0329 5.85767C20.9118 6.06939 20.7149 6.22017 20.4821 6.29283C19.3813 6.63502 15.4321 8.37017 15.3946 15.6374C15.3891 16.7592 15.6899 17.896 16.3766 18.7835C17.7243 20.5264 17.9094 23.8506 17.0008 26.2014C16.2586 28.121 15.6696 30.096 15.5032 32.1475C15.2297 35.5256 14.9766 40.2217 15.3266 43.3741C15.3266 44.8756 17.525 46.0928 23.0313 46.0928C28.5375 46.0928 31.6422 44.8756 31.6422 43.3741C31.9922 40.2225 31.7391 35.5264 31.4657 32.1475Z" fill="#DAE7EF"/>
<path d="M15.4095 15.2722C15.4063 15.3964 15.3954 15.5105 15.3946 15.6378C15.3884 16.7597 15.6907 17.8964 16.3767 18.7839C17.7243 20.5269 17.9095 23.8511 17.0009 26.2019C16.2587 28.1214 15.6696 30.0964 15.5032 32.148C15.4938 32.2628 15.4853 32.3902 15.4759 32.5082C17.5259 33.0621 20.3524 33.4066 23.4845 33.4066C26.6165 33.4066 29.4431 33.0621 31.4931 32.5089C31.4837 32.391 31.4751 32.2636 31.4657 32.1488C31.3001 30.0972 30.7103 28.1222 29.9681 26.2027C29.0595 23.8519 29.2446 20.5277 30.5923 18.7847C31.2782 17.8972 31.5798 16.7605 31.5743 15.6386C31.5735 15.5105 31.5626 15.3972 31.5595 15.273C29.5048 15.8355 26.6501 16.1878 23.4845 16.1878C20.3188 16.1878 17.4634 15.8355 15.4095 15.2722Z" fill="#3DABEF"/>
<path d="M21.7202 43.2498C20.128 43.2498 18.9827 42.8833 18.3116 42.1591C17.7296 41.531 17.7085 40.8474 17.7186 40.6248V39.7498C17.7186 39.3177 18.0679 38.9685 18.4999 38.9685C18.9319 38.9685 19.2811 39.3177 19.2811 39.7498L19.2757 40.7373C19.278 40.7373 19.2843 40.9279 19.4858 41.1271C19.7249 41.3623 20.3858 41.7529 22.0952 41.6802C22.535 41.6529 22.8905 41.999 22.9061 42.4302C22.9225 42.8615 22.5874 43.2248 22.1561 43.2412C22.0069 43.2466 21.8616 43.2498 21.7202 43.2498Z" fill="white"/>
<path d="M18.4993 37.812C18.0672 37.812 17.718 37.4628 17.718 37.0308V36.1167C17.718 35.6847 18.0672 35.3354 18.4993 35.3354C18.9313 35.3354 19.2805 35.6847 19.2805 36.1167V37.0308C19.2805 37.4628 18.9313 37.812 18.4993 37.812Z" fill="white"/>
<path d="M19.4071 13.3436C19.361 13.3436 19.3157 13.3397 19.268 13.3311C18.8438 13.2546 18.561 12.8491 18.6368 12.4241C19.154 9.5358 21.6782 8.28502 21.7844 8.23346C22.1766 8.04752 22.6407 8.21002 22.8282 8.59674C23.0149 8.98424 22.854 9.45064 22.4673 9.63893C22.429 9.65768 20.5469 10.6225 20.1743 12.7006C20.1071 13.078 19.7782 13.3436 19.4071 13.3436Z" fill="white"/>
<path d="M23.4845 0.78125C22.083 0.78125 20.947 1.16016 20.947 1.62734V4.16484C20.947 4.63203 22.083 5.01094 23.4845 5.01094C24.8861 5.01094 26.022 4.63203 26.022 4.16484V1.62734C26.022 1.16016 24.8861 0.78125 23.4845 0.78125Z" fill="#003879"/>
<path d="M23.3656 2.99219H22.7305C22.5148 2.99219 22.3398 2.81719 22.3398 2.60156C22.3398 2.38594 22.5148 2.21094 22.7305 2.21094H23.3656C23.5812 2.21094 23.7562 2.38594 23.7562 2.60156C23.7562 2.81719 23.5812 2.99219 23.3656 2.99219Z" fill="#1A69B7"/>
</g>
</g>
<defs>
<filter id="filter0_d_438_7731" x="12.0308" y="0.78125" width="22.9072" height="51.5615" filterUnits="userSpaceOnUse" color-interpolation-filters="sRGB">
<feFlood flood-opacity="0" result="BackgroundImageFix"/>
<feColorMatrix in="SourceAlpha" type="matrix" values="0 0 0 0 0 0 0 0 0 0 0 0 0 0 0 0 0 0 127 0" result="hardAlpha"/>
<feOffset dy="3.125"/>
<feGaussianBlur stdDeviation="1.5625"/>
<feComposite in2="hardAlpha" operator="out"/>
<feColorMatrix type="matrix" values="0 0 0 0 0 0 0 0 0 0 0 0 0 0 0 0 0 0 0.25 0"/>
<feBlend mode="normal" in2="BackgroundImageFix" result="effect1_dropShadow_438_7731"/>
<feBlend mode="normal" in="SourceGraphic" in2="effect1_dropShadow_438_7731" result="shape"/>
</filter>
<clipPath id="clip0_438_7731">
<rect width="45.3125" height="50" fill="white" transform="translate(0.828125)"/>
</clipPath>
</defs>
</svg>
