<svg width="57" height="57" viewBox="0 0 57 57" fill="none" xmlns="http://www.w3.org/2000/svg">
<g filter="url(#filter0_d_371_7474)">
<path d="M14.2139 40.4129H42.6847V43.2599H14.2139V40.4129ZM17.061 29.0245H19.908V38.9893H17.061V29.0245ZM24.1787 29.0245H27.0258V38.9893H24.1787V29.0245ZM29.8729 29.0245H32.7199V38.9893H29.8729V29.0245ZM36.9906 29.0245H39.8377V38.9893H36.9906V29.0245ZM14.2139 21.9068L28.4493 14.7891L42.6847 21.9068V27.601H14.2139V21.9068ZM28.4493 23.3303C28.8269 23.3303 29.1889 23.1803 29.4559 22.9134C29.7229 22.6464 29.8729 22.2843 29.8729 21.9068C29.8729 21.5292 29.7229 21.1672 29.4559 20.9002C29.1889 20.6332 28.8269 20.4832 28.4493 20.4832C28.0718 20.4832 27.7097 20.6332 27.4427 20.9002C27.1757 21.1672 27.0258 21.5292 27.0258 21.9068C27.0258 22.2843 27.1757 22.6464 27.4427 22.9134C27.7097 23.1803 28.0718 23.3303 28.4493 23.3303Z" fill="#BA79AD"/>
</g>
<defs>
<filter id="filter0_d_371_7474" x="11.5858" y="14.7891" width="33.7271" height="33.727" filterUnits="userSpaceOnUse" color-interpolation-filters="sRGB">
<feFlood flood-opacity="0" result="BackgroundImageFix"/>
<feColorMatrix in="SourceAlpha" type="matrix" values="0 0 0 0 0 0 0 0 0 0 0 0 0 0 0 0 0 0 127 0" result="hardAlpha"/>
<feOffset dy="2.62808"/>
<feGaussianBlur stdDeviation="1.31404"/>
<feComposite in2="hardAlpha" operator="out"/>
<feColorMatrix type="matrix" values="0 0 0 0 0.816903 0 0 0 0 0.816903 0 0 0 0 0.816903 0 0 0 1 0"/>
<feBlend mode="normal" in2="BackgroundImageFix" result="effect1_dropShadow_371_7474"/>
<feBlend mode="normal" in="SourceGraphic" in2="effect1_dropShadow_371_7474" result="shape"/>
</filter>
</defs>
</svg>
