<svg width="48" height="48" viewBox="0 0 48 48" fill="none" xmlns="http://www.w3.org/2000/svg">
<g filter="url(#filter0_d_438_7729)">
<path d="M25 16.8001C18 16.8001 16.6 23.1841 16.6 26.5161C14.8927 27.0926 13.2865 27.9335 11.84 29.0081C10.668 29.8982 9.89336 31.2138 9.68377 32.6705C9.47417 34.1271 9.84642 35.6078 10.72 36.7921C11.6369 37.9442 12.9598 38.7021 14.4174 38.9103C15.8751 39.1185 17.3572 38.7614 18.56 37.9121C20.4581 36.6238 22.7061 35.9494 25 35.9801C27.2939 35.9494 29.5419 36.6238 31.44 37.9121C32.5936 38.8341 34.0646 39.2631 35.5329 39.1058C37.0012 38.9485 38.348 38.2176 39.28 37.0721C39.7389 36.5307 40.0865 35.9041 40.3031 35.2282C40.5196 34.5523 40.6008 33.8403 40.542 33.133C40.4833 32.4257 40.2857 31.7369 39.9605 31.106C39.6354 30.4751 39.1891 29.9145 38.6472 29.4561C38.58 29.3973 38.51 29.3413 38.44 29.2881L38.16 29.0081C36.6668 28.0101 35.071 27.1746 33.4 26.5161C33.4 23.2121 32 16.8001 25 16.8001ZM9.82401 12.0401C8.83164 12.5366 8.06207 13.3879 7.66791 14.4251C7.27375 15.4624 7.28378 16.6099 7.69601 17.6401C7.78209 18.7546 8.30317 19.7905 9.14667 20.524C9.99017 21.2575 11.0884 21.6296 12.204 21.5601C13.1964 21.0637 13.9659 20.2124 14.3601 19.1751C14.7543 18.1379 14.7442 16.9904 14.332 15.9601C14.2459 14.8457 13.7248 13.8098 12.8813 13.0763C12.0378 12.3428 10.9396 11.9706 9.82401 12.0401ZM40.204 12.0401C41.1964 12.5366 41.9659 13.3879 42.3601 14.4251C42.7543 15.4624 42.7442 16.6099 42.332 17.6401C42.2459 18.7546 41.7248 19.7905 40.8813 20.524C40.0378 21.2575 38.9396 21.6296 37.824 21.5601C36.8316 21.0637 36.0621 20.2124 35.6679 19.1751C35.2738 18.1379 35.2838 16.9904 35.696 15.9601C35.7821 14.8457 36.3032 13.8098 37.1467 13.0763C37.9902 12.3428 39.0884 11.9706 40.204 12.0401ZM18.224 3.64014C16.32 3.89214 15.424 6.27214 16.096 8.87614C16.2456 9.99749 16.7744 11.0339 17.5944 11.8132C18.4145 12.5925 19.4765 13.0678 20.604 13.1601C22.508 12.9081 23.404 10.5281 22.732 7.92414C22.5824 6.80279 22.0536 5.76637 21.2336 4.98707C20.4135 4.20776 19.3515 3.73246 18.224 3.64014ZM31.804 3.64014C33.708 3.89214 34.604 6.27214 33.932 8.87614C33.7813 10.0019 33.2485 11.0417 32.4227 11.8215C31.597 12.6014 30.5285 13.0739 29.396 13.1601C27.492 12.9361 26.596 10.5281 27.268 7.92414C27.4182 6.79821 27.9509 5.75812 28.7767 4.97818C29.6025 4.19824 30.6713 3.72583 31.804 3.64014Z" fill="#C7AD87"/>
</g>
<defs>
<filter id="filter0_d_438_7729" x="3.37939" y="3.64014" width="43.2693" height="43.4976" filterUnits="userSpaceOnUse" color-interpolation-filters="sRGB">
<feFlood flood-opacity="0" result="BackgroundImageFix"/>
<feColorMatrix in="SourceAlpha" type="matrix" values="0 0 0 0 0 0 0 0 0 0 0 0 0 0 0 0 0 0 127 0" result="hardAlpha"/>
<feOffset dy="4"/>
<feGaussianBlur stdDeviation="2"/>
<feComposite in2="hardAlpha" operator="out"/>
<feColorMatrix type="matrix" values="0 0 0 0 0 0 0 0 0 0 0 0 0 0 0 0 0 0 0.25 0"/>
<feBlend mode="normal" in2="BackgroundImageFix" result="effect1_dropShadow_438_7729"/>
<feBlend mode="normal" in="SourceGraphic" in2="effect1_dropShadow_438_7729" result="shape"/>
</filter>
</defs>
</svg>
