<svg width="57" height="57" viewBox="0 0 57 57" fill="none" xmlns="http://www.w3.org/2000/svg">
<g filter="url(#filter0_d_371_7454)">
<path d="M17.6585 20.4184L13.0195 15.7809L15.0436 13.7568L19.6811 18.3958H41.484C41.707 18.3958 41.9269 18.4479 42.1261 18.5479C42.3254 18.648 42.4984 18.7933 42.6316 18.9721C42.7647 19.151 42.8542 19.3584 42.8929 19.578C42.9316 19.7976 42.9184 20.0232 42.8544 20.2368L39.4213 31.6804C39.333 31.9751 39.152 32.2336 38.9051 32.4173C38.6582 32.6011 38.3587 32.7003 38.051 32.7003H20.5194V35.5612H36.2543V38.4221H19.0889C18.7095 38.4221 18.3457 38.2714 18.0774 38.0031C17.8092 37.7348 17.6585 37.371 17.6585 36.9916V20.4184ZM19.8041 44.1439C19.2351 44.1439 18.6893 43.9178 18.2869 43.5154C17.8845 43.113 17.6585 42.5673 17.6585 41.9982C17.6585 41.4291 17.8845 40.8834 18.2869 40.481C18.6893 40.0786 19.2351 39.8525 19.8041 39.8525C20.3732 39.8525 20.919 40.0786 21.3214 40.481C21.7238 40.8834 21.9498 41.4291 21.9498 41.9982C21.9498 42.5673 21.7238 43.113 21.3214 43.5154C20.919 43.9178 20.3732 44.1439 19.8041 44.1439ZM36.9695 44.1439C36.4005 44.1439 35.8547 43.9178 35.4523 43.5154C35.0499 43.113 34.8239 42.5673 34.8239 41.9982C34.8239 41.4291 35.0499 40.8834 35.4523 40.481C35.8547 40.0786 36.4005 39.8525 36.9695 39.8525C37.5386 39.8525 38.0844 40.0786 38.4867 40.481C38.8891 40.8834 39.1152 41.4291 39.1152 41.9982C39.1152 42.5673 38.8891 43.113 38.4867 43.5154C38.0844 43.9178 37.5386 44.1439 36.9695 44.1439Z" fill="#FCB0B3"/>
</g>
<defs>
<filter id="filter0_d_371_7454" x="10.3787" y="13.7568" width="35.1767" height="35.6686" filterUnits="userSpaceOnUse" color-interpolation-filters="sRGB">
<feFlood flood-opacity="0" result="BackgroundImageFix"/>
<feColorMatrix in="SourceAlpha" type="matrix" values="0 0 0 0 0 0 0 0 0 0 0 0 0 0 0 0 0 0 127 0" result="hardAlpha"/>
<feOffset dy="2.64083"/>
<feGaussianBlur stdDeviation="1.32041"/>
<feComposite in2="hardAlpha" operator="out"/>
<feColorMatrix type="matrix" values="0 0 0 0 0.816903 0 0 0 0 0.816903 0 0 0 0 0.816903 0 0 0 1 0"/>
<feBlend mode="normal" in2="BackgroundImageFix" result="effect1_dropShadow_371_7454"/>
<feBlend mode="normal" in="SourceGraphic" in2="effect1_dropShadow_371_7454" result="shape"/>
</filter>
</defs>
</svg>
