<svg width="56" height="57" viewBox="0 0 56 57" fill="none" xmlns="http://www.w3.org/2000/svg">
<g clip-path="url(#clip0_438_7664)">
<g filter="url(#filter0_d_438_7664)">
<path d="M6.76025 27.8202L22.4512 40.098L32.5545 27.1819L32.2281 26.0652C31.9497 25.1207 32.0794 24.1306 32.5855 23.343C33.0992 22.5585 33.9394 22.0296 34.9105 21.8917L35.5627 21.8012C35.955 21.7436 36.3491 21.7645 36.7388 21.8278L42.6497 14.274L26.9607 2L6.76025 27.8202ZM30.5054 25.5844C27.9988 28.7881 23.371 29.3512 20.1698 26.8465C16.9655 24.3425 16.3986 19.7147 18.9064 16.511C21.4136 13.3048 26.042 12.7417 29.2426 15.2476C32.4444 17.7529 33.0138 22.3826 30.5054 25.5844ZM14.9663 46.575H30.6091L30.5895 51.943H14.9372L14.9663 46.575ZM32.5602 44.598C31.1564 45.1028 28.8858 45.4957 27.394 45.4957H18.158C16.2398 45.4957 14.6778 43.9324 14.6778 42.0117V35.3297C15.3389 35.8523 16.002 36.3837 16.6688 36.9044V42.0079C16.6688 42.8323 17.3368 43.5016 18.1605 43.5016H27.3965C28.6549 43.5016 30.711 43.1479 31.8928 42.7241L42.2087 39.0326C42.5839 38.8953 42.8806 38.6283 43.0482 38.2633C43.2159 37.9058 43.2361 37.4997 43.1001 37.1277L39.117 26.1722C38.8082 25.3301 37.7631 24.7031 36.8742 24.8297L36.2542 24.917C35.886 24.9689 35.5887 25.1479 35.4147 25.4244C35.2388 25.6977 35.199 26.0418 35.3046 26.3948L37.0881 32.4904L38.2085 36.154H34.4246H32.7652L33.7635 34.1631H34.4246C34.6397 34.1631 34.9358 34.1169 35.1028 33.886C35.2496 33.6874 35.2755 33.39 35.1775 33.0522L33.394 26.9522C33.129 26.0494 33.2523 25.0948 33.7395 24.3381C34.2279 23.5878 35.0395 23.0766 35.9714 22.9476L36.6009 22.8571C38.4248 22.5971 40.3557 23.7548 40.9864 25.4895L44.9708 36.4495C45.2916 37.3238 45.2467 38.2646 44.85 39.1104C44.4533 39.9537 43.7542 40.5914 42.8812 40.9065L32.5602 44.598ZM21.8141 18.2464C21.3105 18.8879 21.1757 19.6148 21.4067 20.4252C21.5319 20.8718 21.79 21.3223 22.181 21.7866L24.4725 18.8569L25.0475 19.6597L22.8453 22.4737C23.0142 22.6274 23.2015 22.7767 23.4045 22.9349C23.495 23.0039 23.5798 23.0734 23.6677 23.1373L26.0515 20.0899L26.6279 20.8934L24.4775 23.6435C25.0007 23.918 25.5151 24.0787 26.0199 24.1281C26.8563 24.2116 27.5509 23.9028 28.1026 23.1987C28.6087 22.5509 28.6998 21.824 28.374 21.0243C28.2032 20.5998 27.8976 20.1418 27.4579 19.6597L28.1273 18.8075C28.8782 19.5154 29.3609 20.3063 29.5747 21.1667C29.8348 22.1991 29.6241 23.1525 28.9396 24.0243C28.3537 24.7753 27.5844 25.196 26.6437 25.2833C25.751 25.3693 24.7983 25.1239 23.7797 24.5418L22.7466 25.8659L22.169 25.0631L22.9762 24.0338C22.8269 23.9313 22.6732 23.8181 22.5226 23.6985C22.3974 23.6004 22.267 23.4916 22.1462 23.379L21.1675 24.6336L20.5924 23.8314L21.4649 22.7173C20.9195 22.0928 20.5349 21.4419 20.3217 20.7491C19.9585 19.58 20.1521 18.5159 20.9069 17.5542C21.5484 16.7324 22.2993 16.2997 23.1698 16.2497C24.0429 16.1978 24.8223 16.4035 25.5163 16.8678L24.8482 17.7206C24.2757 17.4309 23.7297 17.3151 23.2129 17.3784C22.6903 17.4359 22.2234 17.7206 21.8141 18.2464Z" fill="#04B64B"/>
</g>
</g>
<defs>
<filter id="filter0_d_438_7664" x="2.76025" y="2" width="46.4229" height="57.943" filterUnits="userSpaceOnUse" color-interpolation-filters="sRGB">
<feFlood flood-opacity="0" result="BackgroundImageFix"/>
<feColorMatrix in="SourceAlpha" type="matrix" values="0 0 0 0 0 0 0 0 0 0 0 0 0 0 0 0 0 0 127 0" result="hardAlpha"/>
<feOffset dy="4"/>
<feGaussianBlur stdDeviation="2"/>
<feComposite in2="hardAlpha" operator="out"/>
<feColorMatrix type="matrix" values="0 0 0 0 0 0 0 0 0 0 0 0 0 0 0 0 0 0 0.25 0"/>
<feBlend mode="normal" in2="BackgroundImageFix" result="effect1_dropShadow_438_7664"/>
<feBlend mode="normal" in="SourceGraphic" in2="effect1_dropShadow_438_7664" result="shape"/>
</filter>
<clipPath id="clip0_438_7664">
<rect width="56" height="57" fill="white"/>
</clipPath>
</defs>
</svg>
