<svg width="52" height="52" viewBox="0 0 52 52" fill="none" xmlns="http://www.w3.org/2000/svg">
<g clip-path="url(#clip0_438_7637)">
<g filter="url(#filter0_d_438_7637)">
<path d="M21.8966 25.7861C21.8966 25.3441 21.9921 24.9252 22.1585 24.5447H8.24138C7.55862 24.5447 7 25.1033 7 25.7861C7 26.4688 7.55862 27.0274 8.24138 27.0274H22.1585C21.9921 26.6463 21.8966 26.228 21.8966 25.7861Z" fill="#71C285"/>
<path d="M27.8415 27.0273C27.3623 28.1222 26.2718 28.8894 25 28.8894C23.7282 28.8894 22.6376 28.1222 22.1585 27.0273H8.86206L14.6016 43.0982C14.8815 43.8828 15.6251 44.4067 16.4581 44.4067H33.5413C34.3743 44.4067 35.1179 43.8828 35.3978 43.0982L41.1379 27.0273H27.8415Z" fill="#24AE5F"/>
<path d="M41.7587 24.5447H27.8856L27.8571 24.5732C27.8664 24.595 27.8695 24.6198 27.8788 24.6421C27.9433 24.8035 27.998 24.9699 28.0352 25.1436C28.0389 25.1604 28.0402 25.1778 28.0433 25.1952C28.0811 25.3863 28.1035 25.5831 28.1035 25.7861C28.1035 25.9859 28.0818 26.1802 28.0445 26.3689C28.0408 26.3887 28.0389 26.4086 28.0352 26.4285C27.9992 26.5973 27.9458 26.7593 27.8838 26.9163C27.8695 26.953 27.8577 26.9908 27.8416 27.0268H41.7587C42.4414 27.0268 43 26.4682 43 25.7854C43 25.1027 42.4414 24.5447 41.7587 24.5447Z" fill="#71C285"/>
<path d="M36.1723 31.993H13.8275C13.4849 31.993 13.2068 31.7155 13.2068 31.3723C13.2068 31.029 13.4849 30.7516 13.8275 30.7516H36.1723C36.5149 30.7516 36.793 31.029 36.793 31.3723C36.793 31.7155 36.5149 31.993 36.1723 31.993Z" fill="#A4E869"/>
<path d="M34.3102 35.0964H15.6895C15.3469 35.0964 15.0688 34.8189 15.0688 34.4757C15.0688 34.1324 15.3469 33.855 15.6895 33.855H34.3102C34.6528 33.855 34.9309 34.1324 34.9309 34.4757C34.9309 34.8189 34.6528 35.0964 34.3102 35.0964Z" fill="#A4E869"/>
<path d="M32.4484 38.1999H17.5518C17.2092 38.1999 16.9312 37.9224 16.9312 37.5792C16.9312 37.2359 17.2092 36.9585 17.5518 36.9585H32.4484C32.791 36.9585 33.0691 37.2359 33.0691 37.5792C33.0691 37.9224 32.791 38.1999 32.4484 38.1999Z" fill="#A4E869"/>
<path d="M31.2068 41.3031H18.7931C18.4504 41.3031 18.1724 41.0257 18.1724 40.6825C18.1724 40.3392 18.4504 40.0618 18.7931 40.0618H31.2068C31.5495 40.0618 31.8275 40.3392 31.8275 40.6825C31.8275 41.0257 31.5495 41.3031 31.2068 41.3031Z" fill="#A4E869"/>
<path d="M22.143 24.5732L9.28112 11.7112C8.79822 11.2283 8.79822 10.4382 9.28112 9.95593C9.76401 9.47366 10.5542 9.47304 11.0364 9.95593L23.9561 22.875" fill="#F3D55B"/>
<path d="M27.857 24.5732L40.7189 11.7112C41.2018 11.2283 41.2018 10.4382 40.7189 9.95593C40.236 9.47366 39.4459 9.47304 38.9636 9.95593L26.0439 22.875" fill="#F0C419"/>
<path d="M24.9999 28.8895C26.7139 28.8895 28.1034 27.5001 28.1034 25.7861C28.1034 24.0721 26.7139 22.6826 24.9999 22.6826C23.2859 22.6826 21.8965 24.0721 21.8965 25.7861C21.8965 27.5001 23.2859 28.8895 24.9999 28.8895Z" fill="#4FBA6F"/>
</g>
</g>
<defs>
<filter id="filter0_d_438_7637" x="3" y="9.59399" width="44" height="42.8126" filterUnits="userSpaceOnUse" color-interpolation-filters="sRGB">
<feFlood flood-opacity="0" result="BackgroundImageFix"/>
<feColorMatrix in="SourceAlpha" type="matrix" values="0 0 0 0 0 0 0 0 0 0 0 0 0 0 0 0 0 0 127 0" result="hardAlpha"/>
<feOffset dy="4"/>
<feGaussianBlur stdDeviation="2"/>
<feComposite in2="hardAlpha" operator="out"/>
<feColorMatrix type="matrix" values="0 0 0 0 0 0 0 0 0 0 0 0 0 0 0 0 0 0 0.25 0"/>
<feBlend mode="normal" in2="BackgroundImageFix" result="effect1_dropShadow_438_7637"/>
<feBlend mode="normal" in="SourceGraphic" in2="effect1_dropShadow_438_7637" result="shape"/>
</filter>
<clipPath id="clip0_438_7637">
<rect width="52" height="52" fill="white"/>
</clipPath>
</defs>
</svg>
