<svg width="45" height="46" viewBox="0 0 45 46" fill="none" xmlns="http://www.w3.org/2000/svg">
<g clip-path="url(#clip0_438_7682)">
<g filter="url(#filter0_d_438_7682)">
<path d="M14.6939 27.6346C14.6939 23.3072 18.2144 19.7867 22.5417 19.7867V15.7793H7.34692V39.4899H22.5417V35.4825C18.2144 35.4825 14.6939 31.9619 14.6939 27.6346Z" fill="#3D9AE2"/>
<path d="M22.5417 19.7867C26.8691 19.7867 30.3896 23.3072 30.3896 27.6346C30.3896 31.9619 26.8691 35.4825 22.5417 35.4825V39.4899H37.7366V15.7793H22.5417V19.7867Z" fill="#1A6FB0"/>
<path d="M22.5417 6.42871H7.34692V15.7794H22.5417V6.42871ZM17.3877 12.4398H11.3543V9.76823H17.3877V12.4398Z" fill="#EBE5DD"/>
<path d="M22.5417 6.42871V15.7794H37.7366V6.42871H22.5417ZM29.7217 12.4398H27.0501V9.76823H29.7217V12.4398ZM33.7291 12.4398H31.0575V9.76823H33.7291V12.4398Z" fill="#D9CCBC"/>
<path d="M17.3879 9.76831H11.3545V12.4399H17.3879V9.76831Z" fill="#3D9AE2"/>
<path d="M33.7292 9.76831H31.0576V12.4399H33.7292V9.76831Z" fill="#1A6FB0"/>
<path d="M29.7217 9.76831H27.05V12.4399H29.7217V9.76831Z" fill="#1A6FB0"/>
<path d="M14.6938 27.6345C14.6938 31.9618 18.2144 35.4824 22.5417 35.4824V19.7866C18.2144 19.7866 14.6938 23.3071 14.6938 27.6345Z" fill="#44FFE8"/>
<path d="M30.3896 27.6345C30.3896 23.3071 26.8691 19.7866 22.5417 19.7866V35.4824C26.8691 35.4824 30.3896 31.9618 30.3896 27.6345Z" fill="#00E7F0"/>
</g>
</g>
<defs>
<filter id="filter0_d_438_7682" x="3.67345" y="6.42871" width="37.7366" height="40.4082" filterUnits="userSpaceOnUse" color-interpolation-filters="sRGB">
<feFlood flood-opacity="0" result="BackgroundImageFix"/>
<feColorMatrix in="SourceAlpha" type="matrix" values="0 0 0 0 0 0 0 0 0 0 0 0 0 0 0 0 0 0 127 0" result="hardAlpha"/>
<feOffset dy="3.67347"/>
<feGaussianBlur stdDeviation="1.83673"/>
<feComposite in2="hardAlpha" operator="out"/>
<feColorMatrix type="matrix" values="0 0 0 0 0 0 0 0 0 0 0 0 0 0 0 0 0 0 0.25 0"/>
<feBlend mode="normal" in2="BackgroundImageFix" result="effect1_dropShadow_438_7682"/>
<feBlend mode="normal" in="SourceGraphic" in2="effect1_dropShadow_438_7682" result="shape"/>
</filter>
<clipPath id="clip0_438_7682">
<rect width="45" height="45.9184" fill="white"/>
</clipPath>
</defs>
</svg>
