<svg width="57" height="56" viewBox="0 0 57 56" fill="none" xmlns="http://www.w3.org/2000/svg">
<g filter="url(#filter0_d_371_7494)">
<path d="M42.6695 29.4736V40.1502C42.6695 40.5277 42.5196 40.8898 42.2526 41.1568C41.9856 41.4237 41.6235 41.5737 41.246 41.5737H39.8224C39.4449 41.5737 39.0828 41.4237 38.8158 41.1568C38.5489 40.8898 38.3989 40.5277 38.3989 40.1502V38.7266H18.4693V40.1502C18.4693 40.5277 18.3193 40.8898 18.0523 41.1568C17.7854 41.4237 17.4233 41.5737 17.0457 41.5737H15.6222C15.2446 41.5737 14.8826 41.4237 14.6156 41.1568C14.3486 40.8898 14.1987 40.5277 14.1987 40.1502V29.4736L12.4292 29.0323C12.1213 28.9552 11.8481 28.7774 11.6529 28.5272C11.4576 28.277 11.3516 27.9688 11.3516 27.6514V26.6265C11.3516 26.4377 11.4266 26.2567 11.56 26.1232C11.6935 25.9897 11.8746 25.9147 12.0633 25.9147H14.8094L17.729 19.0988C17.9486 18.5865 18.3137 18.15 18.7791 17.8433C19.2445 17.5366 19.7896 17.3732 20.3469 17.3735H22.7399V14.5264H27.0105V17.3735H29.8576V14.5264H34.1283V17.3735H36.5212C37.0783 17.3735 37.6232 17.537 38.0883 17.8437C38.5533 18.1504 38.9182 18.5868 39.1377 19.0988L42.0588 25.9147H44.8048C44.9936 25.9147 45.1747 25.9897 45.3081 26.1232C45.4416 26.2567 45.5166 26.4377 45.5166 26.6265V27.6514C45.5166 27.9688 45.4106 28.277 45.2153 28.5272C45.0201 28.7774 44.7468 28.9552 44.439 29.0323L42.6695 29.4736ZM17.0457 31.6089V34.456C17.0457 34.8335 17.1957 35.1956 17.4627 35.4626C17.7297 35.7295 18.0917 35.8795 18.4693 35.8795H23.0887C23.2116 35.8793 23.3324 35.8473 23.4392 35.7866C23.5461 35.7258 23.6354 35.6385 23.6985 35.533C23.7615 35.4275 23.7962 35.3075 23.7991 35.1846C23.802 35.0617 23.7731 34.9402 23.715 34.8318C22.5691 32.6822 20.3455 31.6089 17.0457 31.6089ZM39.8224 31.6089C36.5241 31.6089 34.3005 32.6837 33.1517 34.8318C33.0936 34.9403 33.0647 35.0619 33.0676 35.1849C33.0706 35.3079 33.1054 35.4281 33.1687 35.5336C33.2319 35.6391 33.3214 35.7265 33.4285 35.7871C33.5355 35.8477 33.6565 35.8796 33.7795 35.8795H38.3989C38.7764 35.8795 39.1385 35.7295 39.4055 35.4626C39.6725 35.1956 39.8224 34.8335 39.8224 34.456V31.6089ZM19.8928 20.2205L17.8273 25.3866C17.741 25.6025 17.7089 25.8363 17.7339 26.0674C17.7588 26.2986 17.84 26.5201 17.9703 26.7127C18.1007 26.9052 18.2762 27.0629 18.4815 27.172C18.6869 27.281 18.9158 27.3381 19.1483 27.3383H37.7199C37.9524 27.3381 38.1813 27.281 38.3867 27.172C38.592 27.0629 38.7675 26.9052 38.8978 26.7127C39.0282 26.5201 39.1094 26.2986 39.1343 26.0674C39.1592 25.8363 39.1272 25.6025 39.0409 25.3866L36.9754 20.2205H19.8928Z" fill="#008FB1"/>
</g>
<defs>
<filter id="filter0_d_371_7494" x="8.72348" y="14.5264" width="39.4212" height="32.3035" filterUnits="userSpaceOnUse" color-interpolation-filters="sRGB">
<feFlood flood-opacity="0" result="BackgroundImageFix"/>
<feColorMatrix in="SourceAlpha" type="matrix" values="0 0 0 0 0 0 0 0 0 0 0 0 0 0 0 0 0 0 127 0" result="hardAlpha"/>
<feOffset dy="2.62808"/>
<feGaussianBlur stdDeviation="1.31404"/>
<feComposite in2="hardAlpha" operator="out"/>
<feColorMatrix type="matrix" values="0 0 0 0 0.816903 0 0 0 0 0.816903 0 0 0 0 0.816903 0 0 0 1 0"/>
<feBlend mode="normal" in2="BackgroundImageFix" result="effect1_dropShadow_371_7494"/>
<feBlend mode="normal" in="SourceGraphic" in2="effect1_dropShadow_371_7494" result="shape"/>
</filter>
</defs>
</svg>
