<svg width="39" height="38" viewBox="0 0 39 38" fill="none" xmlns="http://www.w3.org/2000/svg">
<g clip-path="url(#clip0_438_7480)" filter="url(#filter0_d_438_7480)">
<g filter="url(#filter1_d_438_7480)">
<path d="M33.9654 11.4217L31.5474 3.28473C31.4732 3.03615 31.3586 2.80139 31.2207 2.58033C31.4254 2.31412 31.5474 1.99158 31.5474 1.64219C31.5474 0.735039 30.7382 0 29.741 0H9.04789C8.05017 0 7.24192 0.735378 7.24192 1.64219C7.24192 2.09604 7.44385 2.50664 7.77188 2.80417C7.63721 3.02096 7.52588 3.25185 7.45332 3.49542L5.0356 11.6324C4.70832 12.734 5.18377 13.6638 6.11527 13.8853V29.9999H33.0371V13.6211C33.8631 13.3365 34.2731 12.4594 33.9654 11.4217ZM26.2099 4.64824L28.2529 11.5232C28.2843 11.6302 28.3313 11.7328 28.3761 11.8357C27.4637 13.1937 26.138 13.7835 24.6936 13.4568C23.4255 13.1708 22.5408 12.2862 22.5216 11.6587V4.96509C22.5216 4.85676 22.5036 4.7523 22.486 4.64831H26.2099V4.64824ZM10.7482 11.7342L12.8536 4.64824H16.3986C16.3806 4.7523 16.3631 4.85669 16.3631 4.96502V11.7845L16.3586 11.7825C15.5156 13.2319 14.2128 13.8788 12.7858 13.5565C11.6029 13.2898 10.7782 12.4595 10.7782 11.8817H10.6893C10.7081 11.8319 10.7331 11.7848 10.7482 11.7342ZM25.4265 28.3274H10.902V23.0459H13.5085C13.7583 22.5334 14.3206 22.1749 14.9774 22.1749C15.6332 22.1749 16.1962 22.5334 16.4456 23.0459H21.7504C21.825 22.3018 22.5057 21.7172 23.3437 21.7172C24.1811 21.7172 24.862 22.3018 24.9362 23.0459H25.4267V28.3274H25.4265ZM13.8926 21.1445C13.8926 20.5761 14.4002 20.1149 15.0256 20.1149C15.6511 20.1149 16.1583 20.5762 16.1583 21.1445C16.1583 21.7136 15.6511 22.1749 15.0256 22.1749C14.4002 22.1749 13.8926 21.7136 13.8926 21.1445ZM22.2588 20.6868C22.2588 20.1184 22.766 19.657 23.3915 19.657C24.0171 19.657 24.5243 20.1185 24.5243 20.6868C24.5243 21.2557 24.017 21.7172 23.3915 21.7172C22.766 21.7172 22.2588 21.2557 22.2588 20.6868ZM31.643 28.7325H29.8614V18.0464H9.41111V28.7325H7.50962V13.9545L7.91893 13.9617C8.88757 13.9795 9.89789 13.3178 10.4451 12.3982C10.7577 13.0857 11.6334 13.7323 12.6746 13.9672C12.8779 14.0129 13.1618 14.0578 13.4948 14.0578C14.3153 14.0578 15.4321 13.7835 16.3665 12.5809C16.3841 13.7269 17.4144 14.2431 18.6871 14.2431H20.1975C21.2952 14.2431 22.2088 13.5492 22.4528 12.6193C22.9024 13.1814 23.6875 13.6657 24.5823 13.8672C24.7998 13.9165 25.1046 13.9644 25.4608 13.9644C26.3622 13.9644 27.5961 13.654 28.613 12.282C29.171 13.1519 30.1463 13.7673 31.0818 13.7506L31.643 13.7407V28.7325Z" fill="#039800"/>
</g>
</g>
<defs>
<filter id="filter0_d_438_7480" x="-1" y="0" width="41" height="38" filterUnits="userSpaceOnUse" color-interpolation-filters="sRGB">
<feFlood flood-opacity="0" result="BackgroundImageFix"/>
<feColorMatrix in="SourceAlpha" type="matrix" values="0 0 0 0 0 0 0 0 0 0 0 0 0 0 0 0 0 0 127 0" result="hardAlpha"/>
<feOffset dy="4"/>
<feGaussianBlur stdDeviation="2"/>
<feComposite in2="hardAlpha" operator="out"/>
<feColorMatrix type="matrix" values="0 0 0 0 0 0 0 0 0 0 0 0 0 0 0 0 0 0 0.25 0"/>
<feBlend mode="normal" in2="BackgroundImageFix" result="effect1_dropShadow_438_7480"/>
<feBlend mode="normal" in="SourceGraphic" in2="effect1_dropShadow_438_7480" result="shape"/>
</filter>
<filter id="filter1_d_438_7480" x="-0.067627" y="-1" width="39.1353" height="39.9999" filterUnits="userSpaceOnUse" color-interpolation-filters="sRGB">
<feFlood flood-opacity="0" result="BackgroundImageFix"/>
<feColorMatrix in="SourceAlpha" type="matrix" values="0 0 0 0 0 0 0 0 0 0 0 0 0 0 0 0 0 0 127 0" result="hardAlpha"/>
<feOffset dy="4"/>
<feGaussianBlur stdDeviation="2.5"/>
<feComposite in2="hardAlpha" operator="out"/>
<feColorMatrix type="matrix" values="0 0 0 0 0 0 0 0 0 0 0 0 0 0 0 0 0 0 0.25 0"/>
<feBlend mode="normal" in2="BackgroundImageFix" result="effect1_dropShadow_438_7480"/>
<feBlend mode="normal" in="SourceGraphic" in2="effect1_dropShadow_438_7480" result="shape"/>
</filter>
<clipPath id="clip0_438_7480">
<rect width="33" height="30" fill="white" transform="translate(3)"/>
</clipPath>
</defs>
</svg>
