<svg width="51" height="49" viewBox="0 0 51 49" fill="none" xmlns="http://www.w3.org/2000/svg">
<g filter="url(#filter0_d_438_7477)">
<path d="M31.4374 9.625C36.121 9.625 39.9166 13.4792 39.9166 18.875C39.9166 29.6667 28.3541 35.8333 24.4999 38.1458C21.4505 36.3159 13.5788 32.0763 10.4214 25.0417H17.6642L19.1041 22.6428L23.7291 30.3512L26.9142 25.0417H32.2083V21.9583H25.169L23.7291 24.3572L19.1041 16.6488L15.919 21.9583H9.407C9.19734 20.9763 9.08325 19.948 9.08325 18.875C9.08325 13.4792 12.9374 9.625 17.5624 9.625C20.4299 9.625 22.9583 11.1667 24.4999 12.7083C26.0416 11.1667 28.5699 9.625 31.4374 9.625Z" fill="#FF0909"/>
</g>
<defs>
<filter id="filter0_d_438_7477" x="5.08325" y="9.625" width="38.8333" height="36.5209" filterUnits="userSpaceOnUse" color-interpolation-filters="sRGB">
<feFlood flood-opacity="0" result="BackgroundImageFix"/>
<feColorMatrix in="SourceAlpha" type="matrix" values="0 0 0 0 0 0 0 0 0 0 0 0 0 0 0 0 0 0 127 0" result="hardAlpha"/>
<feOffset dy="4"/>
<feGaussianBlur stdDeviation="2"/>
<feComposite in2="hardAlpha" operator="out"/>
<feColorMatrix type="matrix" values="0 0 0 0 0 0 0 0 0 0 0 0 0 0 0 0 0 0 0.25 0"/>
<feBlend mode="normal" in2="BackgroundImageFix" result="effect1_dropShadow_438_7477"/>
<feBlend mode="normal" in="SourceGraphic" in2="effect1_dropShadow_438_7477" result="shape"/>
</filter>
</defs>
</svg>
