<svg width="47" height="49" viewBox="0 0 47 49" fill="none" xmlns="http://www.w3.org/2000/svg">
<g clip-path="url(#clip0_438_7518)">
<g filter="url(#filter0_d_438_7518)">
<path d="M33.522 6C29.2041 6 25.6914 9.51268 25.6914 13.8301C25.6914 15.9195 26.505 17.8851 27.9857 19.3644C28.2087 19.5869 28.5738 19.5869 28.7968 19.3644C29.0199 19.1408 29.0199 18.7753 28.7968 18.5533C27.5342 17.2897 26.84 15.6134 26.84 13.8301C26.84 10.144 29.8359 7.14764 33.522 7.14764C37.2066 7.14764 40.2034 10.144 40.2034 13.8301C40.2034 15.6154 39.5112 17.2926 38.2471 18.5552C38.0251 18.7778 38.0251 19.1428 38.2471 19.3663C38.3611 19.4788 38.507 19.5339 38.6524 19.5339C38.7984 19.5339 38.9462 19.4779 39.0592 19.3663C40.5375 17.8871 41.352 15.919 41.352 13.8296C41.3511 9.51268 37.8384 6 33.522 6Z" fill="#F53B00"/>
<path d="M33.5222 9.27637C31.0098 9.27637 28.969 11.3176 28.969 13.8301C28.969 15.047 29.4431 16.1902 30.3023 17.0485C30.5254 17.2725 30.8894 17.2725 31.1149 17.0485C31.3365 16.8259 31.3365 16.4604 31.1149 16.2374C30.4694 15.5948 30.1176 14.7399 30.1176 13.8301C30.1176 11.9524 31.6445 10.424 33.5247 10.424C35.4004 10.424 36.9293 11.9524 36.9293 13.8301C36.9293 14.7399 36.5726 15.5948 35.932 16.2374C35.7079 16.4604 35.7079 16.8264 35.932 17.0485C36.044 17.162 36.1904 17.216 36.3373 17.216C36.4842 17.216 36.631 17.16 36.7431 17.0485C37.6038 16.1902 38.0769 15.047 38.0769 13.8301C38.0744 11.3201 36.0336 9.27637 33.5222 9.27637Z" fill="#F53B00"/>
<path d="M34.0959 16.1843C34.7837 15.9456 35.2814 15.2995 35.2814 14.5287C35.2814 13.5555 34.4929 12.7694 33.5221 12.7694C32.5494 12.7694 31.7628 13.5574 31.7628 14.5287C31.7628 15.2995 32.2605 15.9456 32.9483 16.1843V21.7786H28.6496H26.0757H24.7542V6.57385H9.64771V41H24.3032H24.7542H37.1129V21.7791H34.0984V16.1843H34.0959ZM16.5365 32.8722H12.0589V25.589H16.5365V32.8722ZM16.5365 24.4934H12.0589V17.2082H16.5365V24.4934ZM16.5365 16.1121H12.0589V8.82884H16.5365V16.1121ZM22.343 32.8722H17.8654V25.589H22.343V32.8722ZM22.343 24.4934H17.8654V17.2082H22.343V24.4934ZM22.343 16.1121H17.8654V8.82884H22.343V16.1121ZM35.3109 38.2749H31.5049V31.9658H35.3109V38.2749ZM35.3109 30.0965H31.5049V23.7869H35.3109V30.0965Z" fill="#F53B00"/>
</g>
</g>
<defs>
<filter id="filter0_d_438_7518" x="3.64771" y="2" width="43.7043" height="47" filterUnits="userSpaceOnUse" color-interpolation-filters="sRGB">
<feFlood flood-opacity="0" result="BackgroundImageFix"/>
<feColorMatrix in="SourceAlpha" type="matrix" values="0 0 0 0 0 0 0 0 0 0 0 0 0 0 0 0 0 0 127 0" result="hardAlpha"/>
<feOffset dy="2"/>
<feGaussianBlur stdDeviation="3"/>
<feComposite in2="hardAlpha" operator="out"/>
<feColorMatrix type="matrix" values="0 0 0 0 0 0 0 0 0 0 0 0 0 0 0 0 0 0 0.29 0"/>
<feBlend mode="normal" in2="BackgroundImageFix" result="effect1_dropShadow_438_7518"/>
<feBlend mode="normal" in="SourceGraphic" in2="effect1_dropShadow_438_7518" result="shape"/>
</filter>
<clipPath id="clip0_438_7518">
<rect width="47" height="49" fill="white"/>
</clipPath>
</defs>
</svg>
