<svg width="41" height="45" viewBox="0 0 41 45" fill="none" xmlns="http://www.w3.org/2000/svg">
<g clip-path="url(#clip0_719_8085)">
<path d="M17.9948 39.6141C13.0628 39.0564 8.53092 36.633 5.32854 32.8407C2.12616 29.0485 0.49591 24.1748 0.772076 19.219C1.04824 14.2632 3.2099 9.6008 6.81379 6.18785C10.4177 2.7749 15.1907 0.870009 20.1542 0.863775C25.1238 0.860155 29.906 2.76044 33.5178 6.17402C37.1295 9.58759 39.2963 14.2551 39.5728 19.217C39.8493 24.1789 38.2145 29.0582 35.0044 32.8519C31.7943 36.6456 27.2529 39.0655 22.3136 39.6141V44.9154H17.9948V39.6141Z" fill="#EF626C"/>
<rect x="3.33081" y="3.45508" width="33.3986" height="33.3986" rx="16.6993" fill="white"/>
<circle cx="20" cy="20" r="10" fill="#EF626C"/>
</g>
<defs>
<clipPath id="clip0_719_8085">
<rect width="40.3086" height="44.9153" fill="white"/>
</clipPath>
</defs>
</svg>
