<svg width="29" height="29" viewBox="0 0 29 29" fill="none" xmlns="http://www.w3.org/2000/svg">
<rect width="28.9573" height="28.9573" rx="14.4787" fill="#E1F6F5"/>
<path d="M14.4786 21.7179C10.4803 21.7179 7.23926 18.4769 7.23926 14.4786C7.23926 10.4803 10.4803 7.23926 14.4786 7.23926C18.4769 7.23926 21.7179 10.4803 21.7179 14.4786C21.7179 18.4769 18.4769 21.7179 14.4786 21.7179ZM13.7547 16.6504V18.0983H15.2025V16.6504H13.7547ZM15.2025 15.4595C15.7843 15.2842 16.2838 14.9057 16.61 14.393C16.9361 13.8803 17.0673 13.2675 16.9796 12.6662C16.8919 12.0649 16.5911 11.5151 16.1321 11.117C15.673 10.7188 15.0862 10.4988 14.4786 10.497C13.8928 10.4969 13.3251 10.6998 12.872 11.071C12.4189 11.4423 12.1084 11.959 11.9933 12.5334L13.4137 12.8179C13.454 12.6162 13.5507 12.4302 13.6927 12.2813C13.8346 12.1325 14.0159 12.027 14.2154 11.9772C14.4149 11.9274 14.6245 11.9352 14.8197 11.9998C15.015 12.0644 15.1878 12.1832 15.3182 12.3422C15.4486 12.5012 15.5312 12.694 15.5563 12.8981C15.5814 13.1022 15.548 13.3093 15.4601 13.4952C15.3721 13.6811 15.2332 13.8382 15.0594 13.9482C14.8857 14.0582 14.6842 14.1166 14.4786 14.1166C14.2866 14.1166 14.1025 14.1929 13.9667 14.3287C13.8309 14.4644 13.7547 14.6486 13.7547 14.8406V15.9265H15.2025V15.4595Z" fill="url(#paint0_linear_435_7538)"/>
<defs>
<linearGradient id="paint0_linear_435_7538" x1="14.4786" y1="7.23926" x2="14.4786" y2="21.7179" gradientUnits="userSpaceOnUse">
<stop stop-color="#33FFC2"/>
<stop offset="1" stop-color="#1095D4"/>
</linearGradient>
</defs>
</svg>
