<svg width="49" height="48" viewBox="0 0 49 48" fill="none" xmlns="http://www.w3.org/2000/svg">
<g filter="url(#filter0_d_2_12272)">
<rect width="42.0548" height="42.0548" rx="8.60213" transform="matrix(-1 0 0 1 45.8599 1.88892)" fill="white"/>
<g clip-path="url(#clip0_2_12272)">
<path d="M33.5302 13.6452L15.5565 19.6361C15.4635 19.6669 15.3822 19.7256 15.3236 19.8042C15.2651 19.8828 15.2321 19.9775 15.2292 20.0754C15.2262 20.1734 15.2535 20.2699 15.3073 20.3518C15.361 20.4338 15.4387 20.4972 15.5297 20.5335L23.8767 23.8721L28.106 32.3309C28.1491 32.417 28.2171 32.4881 28.3013 32.5349C28.3854 32.5817 28.4818 32.602 28.5776 32.5931C28.6735 32.5842 28.7645 32.5466 28.8386 32.4851C28.9127 32.4237 28.9665 32.3413 28.993 32.2487L34.1419 14.2291C34.1657 14.1454 34.1663 14.0568 34.1434 13.9728C34.1206 13.8888 34.0752 13.8126 34.0123 13.7525C33.9493 13.6924 33.8711 13.6507 33.7862 13.6317C33.7012 13.6128 33.6127 13.6174 33.5302 13.6452Z" fill="#26D0D2"/>
</g>
</g>
<defs>
<filter id="filter0_d_2_12272" x="0.9378" y="0.18973" width="47.7894" height="47.7896" filterUnits="userSpaceOnUse" color-interpolation-filters="sRGB">
<feFlood flood-opacity="0" result="BackgroundImageFix"/>
<feColorMatrix in="SourceAlpha" type="matrix" values="0 0 0 0 0 0 0 0 0 0 0 0 0 0 0 0 0 0 127 0" result="hardAlpha"/>
<feOffset dy="1.16819"/>
<feGaussianBlur stdDeviation="1.43369"/>
<feComposite in2="hardAlpha" operator="out"/>
<feColorMatrix type="matrix" values="0 0 0 0 0.866903 0 0 0 0 0.866903 0 0 0 0 0.866903 0 0 0 1 0"/>
<feBlend mode="normal" in2="BackgroundImageFix" result="effect1_dropShadow_2_12272"/>
<feBlend mode="normal" in="SourceGraphic" in2="effect1_dropShadow_2_12272" result="shape"/>
</filter>
<clipPath id="clip0_2_12272">
<rect width="22.939" height="22.939" fill="white" transform="matrix(-1 0 0 1 36.3018 11.4468)"/>
</clipPath>
</defs>
</svg>
