<svg width="33" height="33" viewBox="0 0 33 33" fill="none" xmlns="http://www.w3.org/2000/svg">
<rect width="32.6098" height="32.6098" rx="4.94433" fill="#EF626C"/>
<g clip-path="url(#clip0_428_7480)">
<path d="M16.3048 9.40484L9.40465 16.3049L16.3048 23.2051L23.2049 16.3049L16.3048 9.40484ZM16.8797 7.6792L24.9305 15.73C25.083 15.8825 25.1686 16.0893 25.1686 16.3049C25.1686 16.5206 25.083 16.7274 24.9305 16.8799L16.8797 24.9307C16.7272 25.0831 16.5204 25.1688 16.3048 25.1688C16.0891 25.1688 15.8823 25.0831 15.7298 24.9307L7.67902 16.8799C7.52656 16.7274 7.44092 16.5206 7.44092 16.3049C7.44092 16.0893 7.52656 15.8825 7.67902 15.73L15.7298 7.6792C15.8823 7.52674 16.0891 7.4411 16.3048 7.4411C16.5204 7.4411 16.7272 7.52674 16.8797 7.6792ZM17.118 14.6785V12.6455L19.9642 15.4917L17.118 18.338V16.3049H14.6783V18.7446H13.0519V15.4917C13.0519 15.2761 13.1376 15.0692 13.2901 14.9167C13.4426 14.7642 13.6494 14.6785 13.8651 14.6785H17.118Z" fill="white"/>
</g>
<defs>
<clipPath id="clip0_428_7480">
<rect width="19.5171" height="19.5171" fill="white" transform="translate(6.54639 6.54639)"/>
</clipPath>
</defs>
</svg>
