<svg width="169" height="41" viewBox="0 0 169 41" fill="none" xmlns="http://www.w3.org/2000/svg">
<rect y="0.746582" width="168.389" height="39.9568" rx="8.56217" fill="#26D0D2"/>
<g clip-path="url(#clip0_434_7502)">
<path d="M22.8324 30.2385C17.5781 30.2385 13.3188 25.9793 13.3188 20.7249C13.3188 15.4706 17.5781 11.2114 22.8324 11.2114C28.0867 11.2114 32.3459 15.4706 32.3459 20.7249C32.3459 25.9793 28.0867 30.2385 22.8324 30.2385ZM22.8324 28.3358C24.8509 28.3358 26.7867 27.5339 28.214 26.1066C29.6413 24.6793 30.4432 22.7435 30.4432 20.7249C30.4432 18.7064 29.6413 16.7706 28.214 15.3433C26.7867 13.916 24.8509 13.1141 22.8324 13.1141C20.8139 13.1141 18.878 13.916 17.4507 15.3433C16.0234 16.7706 15.2216 18.7064 15.2216 20.7249C15.2216 22.7435 16.0234 24.6793 17.4507 26.1066C18.878 27.5339 20.8139 28.3358 22.8324 28.3358V28.3358ZM18.0756 20.2493L26.6378 16.9195L23.308 25.4836L21.881 21.6763L18.0756 20.2493Z" fill="white"/>
</g>
<path d="M44.9742 23.7072C45.4093 24.0357 45.9021 24.2932 46.4526 24.4797C47.012 24.6661 47.6158 24.7594 48.264 24.7594C49.0187 24.7594 49.6092 24.6262 50.0354 24.3598C50.4705 24.0934 50.688 23.6805 50.688 23.1212C50.688 22.7393 50.5637 22.433 50.3151 22.2021C50.0754 21.9713 49.7735 21.7937 49.4094 21.6694C49.0454 21.5362 48.5437 21.3941 47.9044 21.2432C47.1408 21.0656 46.5237 20.888 46.0531 20.7104C45.5825 20.5328 45.1829 20.262 44.8544 19.898C44.5258 19.5339 44.3616 19.05 44.3616 18.4462C44.3616 17.8158 44.5347 17.2963 44.881 16.8879C45.2273 16.4794 45.6668 16.182 46.1996 15.9955C46.7323 15.8091 47.2917 15.7158 47.8778 15.7158C48.5348 15.7158 49.1564 15.8135 49.7424 16.0088C50.3284 16.2042 50.8168 16.4528 51.2075 16.7547L50.6081 17.6338C49.8001 17.0655 48.8589 16.7813 47.7845 16.7813C47.163 16.7813 46.6213 16.9145 46.1596 17.1809C45.7068 17.4473 45.4803 17.8557 45.4803 18.4062C45.4803 18.7525 45.5958 19.0367 45.8266 19.2587C46.0575 19.4718 46.3461 19.636 46.6924 19.7515C47.0387 19.8669 47.5226 20.0001 48.1441 20.151C48.9344 20.3375 49.5693 20.524 50.0487 20.7104C50.5371 20.8969 50.9544 21.1855 51.3007 21.5762C51.647 21.958 51.8202 22.4774 51.8202 23.1345C51.8202 24.0135 51.4961 24.6839 50.8479 25.1456C50.1997 25.5985 49.3473 25.8249 48.2906 25.8249C47.527 25.8249 46.79 25.7095 46.0797 25.4786C45.3694 25.2389 44.7878 24.9325 44.3349 24.5596L44.9742 23.7072ZM54.8677 23.8271C54.8677 24.1556 54.952 24.4042 55.1208 24.5729C55.2895 24.7416 55.5203 24.826 55.8133 24.826C56.1419 24.826 56.426 24.7594 56.6658 24.6262L56.9321 25.452C56.7812 25.5408 56.5903 25.6162 56.3594 25.6784C56.1286 25.7494 55.8799 25.7849 55.6136 25.7849C55.0453 25.7849 54.5969 25.634 54.2683 25.3321C53.9487 25.0213 53.7889 24.5951 53.7889 24.0535V19.0722H52.9498V18.8191L54.8144 16.6748H54.8677V18.0866H56.719V19.0722H54.8677V23.8271ZM63.5222 24.5463C63.2292 24.9814 62.8385 25.2921 62.3501 25.4786C61.8706 25.6562 61.369 25.745 60.8451 25.745C59.9838 25.745 59.2779 25.5363 58.7274 25.119C58.1857 24.6928 57.9149 24.1112 57.9149 23.3742C57.9149 22.877 58.0525 22.4419 58.3278 22.069C58.6031 21.696 58.9849 21.4074 59.4732 21.2032C59.9616 20.999 60.5166 20.8969 61.1381 20.8969C61.8928 20.8969 62.6831 21.0123 63.5089 21.2432C63.5177 20.4529 63.349 19.8669 63.0028 19.4851C62.6565 19.0944 62.0926 18.8991 61.3112 18.8991C60.8762 18.8991 60.4366 18.9568 59.9927 19.0722C59.5576 19.1787 59.1669 19.3164 58.8206 19.4851L58.4876 18.6327C58.9138 18.4284 59.38 18.2597 59.8861 18.1266C60.3922 17.9845 60.9028 17.9134 61.4178 17.9134C62.4744 17.9134 63.2647 18.1976 63.7886 18.7659C64.3124 19.3253 64.5744 20.1422 64.5744 21.2165V25.6384H63.5355L63.5222 24.5463ZM61.0182 24.8659C61.3912 24.8659 61.7685 24.7993 62.1503 24.6661C62.5321 24.533 62.8518 24.3199 63.1093 24.0268C63.3757 23.7249 63.5089 23.3476 63.5089 22.8947V22.0823C62.763 21.8514 62.026 21.736 61.2979 21.736C60.6231 21.736 60.077 21.8869 59.6597 22.1888C59.2424 22.4818 59.0337 22.8592 59.0337 23.3209C59.0337 23.8182 59.2157 24.2 59.5798 24.4664C59.9438 24.7327 60.4233 24.8659 61.0182 24.8659ZM67.9695 19.9379C68.5999 18.6504 69.5855 18.0067 70.9263 18.0067V19.1921H70.7664C70.2958 19.1921 69.8474 19.3031 69.4212 19.525C69.0039 19.747 68.6576 20.1111 68.3823 20.6172C68.1071 21.1233 67.9695 21.7804 67.9695 22.5884V25.6384H66.8906V18.0866H67.9695V19.9379ZM74.1957 23.8271C74.1957 24.1556 74.2801 24.4042 74.4488 24.5729C74.6175 24.7416 74.8484 24.826 75.1414 24.826C75.4699 24.826 75.7541 24.7594 75.9938 24.6262L76.2602 25.452C76.1092 25.5408 75.9183 25.6162 75.6875 25.6784C75.4566 25.7494 75.208 25.7849 74.9416 25.7849C74.3733 25.7849 73.9249 25.634 73.5964 25.3321C73.2767 25.0213 73.1169 24.5951 73.1169 24.0535V19.0722H72.2778V18.8191L74.1425 16.6748H74.1957V18.0866H76.0471V19.0722H74.1957V23.8271ZM89.9277 15.889V25.6384H88.8222L83.3215 17.8735V25.6384H82.1894V15.889H83.3082L88.8089 23.6939V15.889H89.9277ZM97.4829 24.5463C97.1898 24.9814 96.7991 25.2921 96.3108 25.4786C95.8313 25.6562 95.3296 25.745 94.8057 25.745C93.9445 25.745 93.2386 25.5363 92.688 25.119C92.1464 24.6928 91.8756 24.1112 91.8756 23.3742C91.8756 22.877 92.0132 22.4419 92.2885 22.069C92.5637 21.696 92.9455 21.4074 93.4339 21.2032C93.9223 20.999 94.4772 20.8969 95.0988 20.8969C95.8535 20.8969 96.6438 21.0123 97.4695 21.2432C97.4784 20.4529 97.3097 19.8669 96.9634 19.4851C96.6171 19.0944 96.0533 18.8991 95.2719 18.8991C94.8368 18.8991 94.3973 18.9568 93.9533 19.0722C93.5183 19.1787 93.1276 19.3164 92.7813 19.4851L92.4483 18.6327C92.8745 18.4284 93.3407 18.2597 93.8468 18.1266C94.3529 17.9845 94.8635 17.9134 95.3785 17.9134C96.4351 17.9134 97.2254 18.1976 97.7492 18.7659C98.2731 19.3253 98.535 20.1422 98.535 21.2165V25.6384H97.4962L97.4829 24.5463ZM94.9789 24.8659C95.3518 24.8659 95.7292 24.7993 96.111 24.6661C96.4928 24.533 96.8125 24.3199 97.07 24.0268C97.3363 23.7249 97.4695 23.3476 97.4695 22.8947V22.0823C96.7237 21.8514 95.9867 21.736 95.2586 21.736C94.5838 21.736 94.0377 21.8869 93.6204 22.1888C93.203 22.4818 92.9944 22.8592 92.9944 23.3209C92.9944 23.8182 93.1764 24.2 93.5404 24.4664C93.9045 24.7327 94.384 24.8659 94.9789 24.8659ZM100.96 18.0866L103.544 24.2533L106.128 18.0866H107.326L104.077 25.6384H103.011L99.7613 18.0866H100.96ZM110.185 16.2619C110.185 16.4572 110.114 16.626 109.972 16.768C109.83 16.9012 109.661 16.9678 109.466 16.9678C109.261 16.9678 109.088 16.9012 108.946 16.768C108.804 16.626 108.733 16.4572 108.733 16.2619C108.733 16.0754 108.804 15.9156 108.946 15.7824C109.088 15.6404 109.261 15.5693 109.466 15.5693C109.67 15.5693 109.839 15.6359 109.972 15.7691C110.114 15.9023 110.185 16.0666 110.185 16.2619ZM108.92 18.0866H109.985V25.6384H108.92V18.0866ZM119.456 18.0866V24.8792C119.456 26.1579 119.14 27.1079 118.51 27.7295C117.88 28.3599 116.929 28.6751 115.66 28.6751C114.958 28.6751 114.328 28.573 113.768 28.3688C113.218 28.1735 112.77 27.947 112.423 27.6895L112.916 26.8771C113.218 27.0991 113.6 27.29 114.061 27.4498C114.523 27.6185 115.038 27.7029 115.606 27.7029C116.539 27.7029 117.231 27.4676 117.684 26.997C118.146 26.5264 118.377 25.8071 118.377 24.8393V24.3465C118.084 24.7993 117.702 25.1545 117.231 25.412C116.761 25.6606 116.206 25.7849 115.567 25.7849C114.909 25.7849 114.31 25.6251 113.768 25.3055C113.236 24.9858 112.814 24.5285 112.503 23.9336C112.192 23.3387 112.037 22.6505 112.037 21.8692C112.037 21.0789 112.192 20.3863 112.503 19.7914C112.814 19.1965 113.236 18.7392 113.768 18.4196C114.31 18.0999 114.909 17.9401 115.567 17.9401C116.206 17.9401 116.761 18.0688 117.231 18.3263C117.702 18.575 118.084 18.9257 118.377 19.3785V18.0866H119.456ZM115.846 24.786C116.379 24.786 116.836 24.6573 117.218 24.3998C117.6 24.1334 117.888 23.7782 118.084 23.3343C118.288 22.8903 118.39 22.3975 118.39 21.8559C118.39 21.3142 118.288 20.8214 118.084 20.3775C117.888 19.9335 117.6 19.5828 117.218 19.3253C116.836 19.0678 116.379 18.939 115.846 18.939C115.305 18.939 114.83 19.0722 114.421 19.3386C114.013 19.5961 113.697 19.9468 113.475 20.3908C113.262 20.8347 113.156 21.3231 113.156 21.8559C113.156 22.3886 113.267 22.8814 113.489 23.3343C113.711 23.7782 114.022 24.1334 114.421 24.3998C114.83 24.6573 115.305 24.786 115.846 24.786ZM126.891 24.5463C126.598 24.9814 126.207 25.2921 125.719 25.4786C125.24 25.6562 124.738 25.745 124.214 25.745C123.353 25.745 122.647 25.5363 122.096 25.119C121.555 24.6928 121.284 24.1112 121.284 23.3742C121.284 22.877 121.422 22.4419 121.697 22.069C121.972 21.696 122.354 21.4074 122.842 21.2032C123.331 20.999 123.886 20.8969 124.507 20.8969C125.262 20.8969 126.052 21.0123 126.878 21.2432C126.887 20.4529 126.718 19.8669 126.372 19.4851C126.025 19.0944 125.462 18.8991 124.68 18.8991C124.245 18.8991 123.806 18.9568 123.362 19.0722C122.927 19.1787 122.536 19.3164 122.19 19.4851L121.857 18.6327C122.283 18.4284 122.749 18.2597 123.255 18.1266C123.761 17.9845 124.272 17.9134 124.787 17.9134C125.843 17.9134 126.634 18.1976 127.158 18.7659C127.681 19.3253 127.943 20.1422 127.943 21.2165V25.6384H126.904L126.891 24.5463ZM124.387 24.8659C124.76 24.8659 125.137 24.7993 125.519 24.6661C125.901 24.533 126.221 24.3199 126.478 24.0268C126.745 23.7249 126.878 23.3476 126.878 22.8947V22.0823C126.132 21.8514 125.395 21.736 124.667 21.736C123.992 21.736 123.446 21.8869 123.029 22.1888C122.611 22.4818 122.403 22.8592 122.403 23.3209C122.403 23.8182 122.585 24.2 122.949 24.4664C123.313 24.7327 123.792 24.8659 124.387 24.8659ZM131.725 23.8271C131.725 24.1556 131.809 24.4042 131.978 24.5729C132.146 24.7416 132.377 24.826 132.67 24.826C132.999 24.826 133.283 24.7594 133.523 24.6262L133.789 25.452C133.638 25.5408 133.447 25.6162 133.216 25.6784C132.986 25.7494 132.737 25.7849 132.471 25.7849C131.902 25.7849 131.454 25.634 131.125 25.3321C130.806 25.0213 130.646 24.5951 130.646 24.0535V19.0722H129.807V18.8191L131.671 16.6748H131.725V18.0866H133.576V19.0722H131.725V23.8271ZM136.81 16.2619C136.81 16.4572 136.739 16.626 136.597 16.768C136.455 16.9012 136.286 16.9678 136.09 16.9678C135.886 16.9678 135.713 16.9012 135.571 16.768C135.429 16.626 135.358 16.4572 135.358 16.2619C135.358 16.0754 135.429 15.9156 135.571 15.7824C135.713 15.6404 135.886 15.5693 136.09 15.5693C136.295 15.5693 136.463 15.6359 136.597 15.7691C136.739 15.9023 136.81 16.0666 136.81 16.2619ZM135.544 18.0866H136.61V25.6384H135.544V18.0866ZM142.551 25.7849C141.796 25.7849 141.121 25.6118 140.527 25.2655C139.94 24.9103 139.483 24.4353 139.155 23.8404C138.835 23.2366 138.675 22.5706 138.675 21.8425C138.675 21.1144 138.835 20.4529 139.155 19.858C139.483 19.2631 139.94 18.7969 140.527 18.4595C141.113 18.1132 141.787 17.9401 142.551 17.9401C143.315 17.9401 143.989 18.1132 144.575 18.4595C145.17 18.7969 145.628 19.2631 145.947 19.858C146.276 20.4529 146.44 21.1144 146.44 21.8425C146.44 22.5706 146.276 23.2366 145.947 23.8404C145.619 24.4353 145.157 24.9103 144.562 25.2655C143.976 25.6118 143.306 25.7849 142.551 25.7849ZM142.551 18.9257C141.992 18.9257 141.503 19.0544 141.086 19.3119C140.669 19.5606 140.344 19.9068 140.114 20.3508C139.892 20.7948 139.781 21.292 139.781 21.8425C139.781 22.393 139.892 22.8947 140.114 23.3476C140.344 23.7915 140.669 24.1467 141.086 24.4131C141.512 24.6706 142 24.7993 142.551 24.7993C143.11 24.7993 143.599 24.6706 144.016 24.4131C144.442 24.1467 144.766 23.7915 144.988 23.3476C145.219 22.8947 145.335 22.393 145.335 21.8425C145.335 21.292 145.219 20.7948 144.988 20.3508C144.766 19.9068 144.442 19.5606 144.016 19.3119C143.599 19.0544 143.11 18.9257 142.551 18.9257ZM152.282 17.9534C152.85 17.9534 153.352 18.0822 153.787 18.3397C154.231 18.5972 154.573 18.9656 154.813 19.4451C155.052 19.9157 155.172 20.4662 155.172 21.0967V25.6384H154.107V21.3764C154.107 20.5861 153.911 19.9823 153.521 19.565C153.139 19.1477 152.615 18.939 151.949 18.939C151.461 18.939 151.021 19.0456 150.63 19.2587C150.249 19.4718 149.947 19.7648 149.725 20.1377C149.503 20.5106 149.392 20.928 149.392 21.3897V25.6384H148.313V18.0866H149.392V19.4318C149.711 19.0145 150.115 18.6637 150.604 18.3796C151.092 18.0955 151.652 17.9534 152.282 17.9534Z" fill="white"/>
<defs>
<clipPath id="clip0_434_7502">
<rect width="22.8324" height="22.8324" fill="white" transform="translate(11.4163 9.30872)"/>
</clipPath>
</defs>
</svg>
