<svg width="41" height="41" viewBox="0 0 41 41" fill="none" xmlns="http://www.w3.org/2000/svg">
<path d="M11.2188 20.2735C11.2188 15.2854 15.2622 11.2419 20.2503 11.2419C25.2385 11.2419 29.2819 15.2854 29.2819 20.2735C29.2819 25.2617 25.2385 29.3051 20.2503 29.3051H11.2188L13.8641 26.6597C13.0242 25.822 12.3581 24.8266 11.9041 23.7306C11.4502 22.6347 11.2172 21.4598 11.2188 20.2735ZM15.5792 27.4988H20.2503C21.6794 27.4988 23.0763 27.075 24.2645 26.2811C25.4527 25.4872 26.3787 24.3587 26.9256 23.0385C27.4725 21.7183 27.6155 20.2655 27.3368 18.8639C27.058 17.4624 26.3698 16.175 25.3594 15.1645C24.3489 14.154 23.0615 13.4659 21.6599 13.1871C20.2583 12.9083 18.8056 13.0514 17.4853 13.5982C16.1651 14.1451 15.0367 15.0712 14.2427 16.2594C13.4488 17.4476 13.0251 18.8445 13.0251 20.2735C13.0251 22.2171 13.7937 24.0352 15.1412 25.3827L16.4182 26.6597L15.5792 27.4988ZM16.6377 21.1767H23.863C23.863 22.1348 23.4823 23.0537 22.8048 23.7312C22.1273 24.4087 21.2085 24.7893 20.2503 24.7893C19.2922 24.7893 18.3733 24.4087 17.6958 23.7312C17.0183 23.0537 16.6377 22.1348 16.6377 21.1767Z" fill="#26D0D2"/>
<rect x="0.530084" y="0.552545" width="39.4416" height="39.4416" rx="8.12154" stroke="#B2B2B2" stroke-width="0.888293"/>
</svg>
