<svg width="131" height="40" viewBox="0 0 131 40" fill="none" xmlns="http://www.w3.org/2000/svg">
<g clip-path="url(#clip0_434_7484)">
<path d="M20.4778 20C20.4778 14.2039 25.1762 9.50549 30.9723 9.50549C36.7685 9.50549 41.4669 14.2039 41.4669 20C41.4669 25.7962 36.7685 30.4946 30.9723 30.4946H20.4778L23.5516 27.4207C22.5757 26.4473 21.8017 25.2906 21.2742 24.0171C20.7467 22.7436 20.476 21.3784 20.4778 20V20ZM25.5446 28.3956H30.9723C32.6328 28.3956 34.256 27.9033 35.6367 26.9807C37.0173 26.0582 38.0934 24.747 38.7289 23.2129C39.3643 21.6788 39.5306 19.9907 39.2066 18.3621C38.8827 16.7335 38.0831 15.2376 36.9089 14.0634C35.7348 12.8893 34.2388 12.0897 32.6102 11.7657C30.9816 11.4418 29.2936 11.608 27.7595 12.2435C26.2254 12.8789 24.9141 13.955 23.9916 15.3357C23.0691 16.7163 22.5767 18.3395 22.5767 20C22.5767 22.2584 23.4698 24.371 25.0356 25.9368L26.5195 27.4207L25.5446 28.3956V28.3956ZM26.7745 21.0495H35.1701C35.1701 22.1628 34.7279 23.2305 33.9406 24.0178C33.1534 24.805 32.0857 25.2473 30.9723 25.2473C29.859 25.2473 28.7913 24.805 28.004 24.0178C27.2168 23.2305 26.7745 22.1628 26.7745 21.0495V21.0495Z" fill="#26D0D2"/>
</g>
<path d="M61.5969 25H60.4648V17.2617L57.0684 23.3618H56.4957L53.0861 17.2484V25H51.954V15.2505H53.1926L56.7754 21.6703L60.3582 15.2505H61.5969V25ZM67.6014 25.1465C66.7756 25.1465 66.0564 24.9867 65.4437 24.667C64.84 24.3385 64.3782 23.8812 64.0586 23.2952C63.7389 22.7003 63.5791 22.0166 63.5791 21.2441C63.5791 20.4005 63.7478 19.6813 64.0852 19.0864C64.4315 18.4915 64.8844 18.0475 65.4437 17.7545C66.0031 17.4526 66.6114 17.3017 67.2684 17.3017C67.9965 17.3017 68.6359 17.4526 69.1864 17.7545C69.7369 18.0564 70.1675 18.5048 70.4783 19.0997C70.7891 19.6946 70.9445 20.4183 70.9445 21.2707C70.9445 21.3861 70.9356 21.5593 70.9178 21.7901H64.7112C64.7378 22.2075 64.8666 22.6026 65.0975 22.9755C65.3372 23.3396 65.6746 23.6326 66.1097 23.8546C66.5448 24.0766 67.0465 24.1875 67.6147 24.1875C68.0853 24.1875 68.5204 24.1121 68.92 23.9611C69.3196 23.8102 69.6481 23.6282 69.9056 23.415L70.5049 24.0677C70.203 24.3696 69.799 24.6271 69.2929 24.8402C68.7957 25.0444 68.2318 25.1465 67.6014 25.1465ZM67.2684 18.3006C66.7712 18.3006 66.3272 18.416 65.9365 18.6469C65.5547 18.8777 65.2528 19.1885 65.0309 19.5792C64.8178 19.9699 64.7112 20.4005 64.7112 20.8711H69.799C69.799 20.3917 69.6969 19.9566 69.4927 19.5659C69.2885 19.1752 68.9955 18.8689 68.6137 18.6469C68.2318 18.416 67.7834 18.3006 67.2684 18.3006ZM75.3046 25.2131C74.0438 25.2131 73.0138 24.9023 72.2147 24.2808L72.6808 23.5083C73.0005 23.7391 73.3956 23.9256 73.8662 24.0677C74.3368 24.2097 74.7985 24.2808 75.2514 24.2808C75.8196 24.2808 76.2547 24.1875 76.5566 24.0011C76.8674 23.8057 77.0228 23.5127 77.0228 23.122C77.0228 22.8201 76.9296 22.5804 76.7431 22.4028C76.5655 22.2252 76.3391 22.092 76.0638 22.0032C75.7886 21.9144 75.4112 21.8168 74.9317 21.7102C74.3457 21.577 73.8751 21.4438 73.5199 21.3107C73.1647 21.1775 72.8584 20.9688 72.6009 20.6847C72.3523 20.3917 72.228 19.9965 72.228 19.4993C72.228 19.002 72.3612 18.5936 72.6275 18.2739C72.9028 17.9454 73.2491 17.7057 73.6664 17.5547C74.0837 17.4038 74.5233 17.3283 74.985 17.3283C75.4911 17.3283 75.9706 17.3949 76.4234 17.5281C76.8763 17.6613 77.2581 17.8389 77.5689 18.0608L77.1427 18.86C76.8319 18.6646 76.4811 18.5137 76.0905 18.4071C75.7087 18.3006 75.3268 18.2473 74.945 18.2473C74.5366 18.2473 74.1548 18.3405 73.7996 18.527C73.4533 18.7135 73.2802 19.0154 73.2802 19.4327C73.2802 19.6991 73.3645 19.9166 73.5332 20.0853C73.7108 20.2451 73.9284 20.3695 74.1859 20.4582C74.4434 20.5382 74.803 20.627 75.2647 20.7246C75.8685 20.8578 76.3524 20.9954 76.7165 21.1375C77.0894 21.2707 77.4046 21.4927 77.6621 21.8035C77.9285 22.1142 78.0617 22.536 78.0617 23.0688C78.0617 23.7613 77.8086 24.2941 77.3025 24.667C76.7964 25.0311 76.1304 25.2131 75.3046 25.2131ZM82.4714 25.2131C81.2105 25.2131 80.1805 24.9023 79.3814 24.2808L79.8475 23.5083C80.1672 23.7391 80.5623 23.9256 81.0329 24.0677C81.5035 24.2097 81.9653 24.2808 82.4181 24.2808C82.9864 24.2808 83.4215 24.1875 83.7234 24.0011C84.0341 23.8057 84.1895 23.5127 84.1895 23.122C84.1895 22.8201 84.0963 22.5804 83.9098 22.4028C83.7322 22.2252 83.5058 22.092 83.2305 22.0032C82.9553 21.9144 82.5779 21.8168 82.0984 21.7102C81.5124 21.577 81.0418 21.4438 80.6866 21.3107C80.3315 21.1775 80.0251 20.9688 79.7676 20.6847C79.519 20.3917 79.3947 19.9965 79.3947 19.4993C79.3947 19.002 79.5279 18.5936 79.7943 18.2739C80.0695 17.9454 80.4158 17.7057 80.8331 17.5547C81.2505 17.4038 81.69 17.3283 82.1517 17.3283C82.6578 17.3283 83.1373 17.3949 83.5902 17.5281C84.043 17.6613 84.4248 17.8389 84.7356 18.0608L84.3094 18.86C83.9986 18.6646 83.6479 18.5137 83.2572 18.4071C82.8754 18.3006 82.4936 18.2473 82.1118 18.2473C81.7033 18.2473 81.3215 18.3405 80.9663 18.527C80.62 18.7135 80.4469 19.0154 80.4469 19.4327C80.4469 19.6991 80.5312 19.9166 80.7 20.0853C80.8775 20.2451 81.0951 20.3695 81.3526 20.4582C81.6101 20.5382 81.9697 20.627 82.4314 20.7246C83.0352 20.8578 83.5191 20.9954 83.8832 21.1375C84.2561 21.2707 84.5713 21.4927 84.8288 21.8035C85.0952 22.1142 85.2284 22.536 85.2284 23.0688C85.2284 23.7613 84.9753 24.2941 84.4692 24.667C83.9631 25.0311 83.2971 25.2131 82.4714 25.2131ZM92.0513 23.9078C91.7583 24.3429 91.3676 24.6537 90.8793 24.8402C90.3998 25.0178 89.8981 25.1066 89.3742 25.1066C88.5129 25.1066 87.807 24.8979 87.2565 24.4806C86.7149 24.0544 86.4441 23.4728 86.4441 22.7358C86.4441 22.2385 86.5817 21.8035 86.8569 21.4305C87.1322 21.0576 87.514 20.769 88.0024 20.5648C88.4907 20.3606 89.0457 20.2585 89.6672 20.2585C90.422 20.2585 91.2122 20.3739 92.038 20.6048C92.0469 19.8145 91.8782 19.2285 91.5319 18.8467C91.1856 18.456 90.6218 18.2606 89.8404 18.2606C89.4053 18.2606 88.9658 18.3183 88.5218 18.4338C88.0867 18.5403 87.696 18.6779 87.3497 18.8467L87.0168 17.9942C87.443 17.79 87.9091 17.6213 88.4153 17.4881C88.9214 17.3461 89.4319 17.275 89.9469 17.275C91.0036 17.275 91.7938 17.5592 92.3177 18.1274C92.8416 18.6868 93.1035 19.5037 93.1035 20.5781V25H92.0646L92.0513 23.9078ZM89.5474 24.2275C89.9203 24.2275 90.2977 24.1609 90.6795 24.0277C91.0613 23.8945 91.3809 23.6814 91.6384 23.3884C91.9048 23.0865 92.038 22.7091 92.038 22.2563V21.4438C91.2921 21.213 90.5552 21.0976 89.8271 21.0976C89.1522 21.0976 88.6062 21.2485 88.1888 21.5504C87.7715 21.8434 87.5628 22.2208 87.5628 22.6825C87.5628 23.1797 87.7449 23.5616 88.1089 23.8279C88.473 24.0943 88.9525 24.2275 89.5474 24.2275ZM102.279 17.4482V24.2408C102.279 25.5194 101.964 26.4695 101.333 27.0911C100.703 27.7215 99.7529 28.0367 98.4831 28.0367C97.7816 28.0367 97.1512 27.9346 96.5918 27.7304C96.0413 27.535 95.5929 27.3086 95.2466 27.0511L95.7394 26.2387C96.0413 26.4606 96.4231 26.6515 96.8848 26.8114C97.3466 26.9801 97.8616 27.0644 98.4298 27.0644C99.3622 27.0644 100.055 26.8291 100.508 26.3585C100.969 25.8879 101.2 25.1687 101.2 24.2009V23.7081C100.907 24.1609 100.525 24.5161 100.055 24.7736C99.5841 25.0222 99.0292 25.1465 98.3899 25.1465C97.7328 25.1465 97.1335 24.9867 96.5918 24.667C96.0591 24.3474 95.6373 23.8901 95.3265 23.2952C95.0158 22.7003 94.8604 22.0121 94.8604 21.2307C94.8604 20.4405 95.0158 19.7479 95.3265 19.153C95.6373 18.5581 96.0591 18.1008 96.5918 17.7811C97.1335 17.4615 97.7328 17.3017 98.3899 17.3017C99.0292 17.3017 99.5841 17.4304 100.055 17.6879C100.525 17.9365 100.907 18.2873 101.2 18.7401V17.4482H102.279ZM98.6696 24.1476C99.2023 24.1476 99.6596 24.0188 100.041 23.7613C100.423 23.495 100.712 23.1398 100.907 22.6958C101.111 22.2519 101.213 21.7591 101.213 21.2174C101.213 20.6758 101.111 20.183 100.907 19.739C100.712 19.2951 100.423 18.9443 100.041 18.6868C99.6596 18.4293 99.2023 18.3006 98.6696 18.3006C98.1279 18.3006 97.6529 18.4338 97.2445 18.7001C96.836 18.9576 96.5208 19.3084 96.2988 19.7523C96.0857 20.1963 95.9792 20.6847 95.9792 21.2174C95.9792 21.7502 96.0901 22.243 96.3121 22.6958C96.5341 23.1398 96.8449 23.495 97.2445 23.7613C97.6529 24.0188 98.1279 24.1476 98.6696 24.1476ZM108.17 25.1465C107.344 25.1465 106.625 24.9867 106.012 24.667C105.408 24.3385 104.946 23.8812 104.627 23.2952C104.307 22.7003 104.147 22.0166 104.147 21.2441C104.147 20.4005 104.316 19.6813 104.653 19.0864C105 18.4915 105.452 18.0475 106.012 17.7545C106.571 17.4526 107.179 17.3017 107.837 17.3017C108.565 17.3017 109.204 17.4526 109.754 17.7545C110.305 18.0564 110.736 18.5048 111.046 19.0997C111.357 19.6946 111.513 20.4183 111.513 21.2707C111.513 21.3861 111.504 21.5593 111.486 21.7901H105.279C105.306 22.2075 105.435 22.6026 105.666 22.9755C105.905 23.3396 106.243 23.6326 106.678 23.8546C107.113 24.0766 107.615 24.1875 108.183 24.1875C108.653 24.1875 109.089 24.1121 109.488 23.9611C109.888 23.8102 110.216 23.6282 110.474 23.415L111.073 24.0677C110.771 24.3696 110.367 24.6271 109.861 24.8402C109.364 25.0444 108.8 25.1465 108.17 25.1465ZM107.837 18.3006C107.339 18.3006 106.895 18.416 106.505 18.6469C106.123 18.8777 105.821 19.1885 105.599 19.5792C105.386 19.9699 105.279 20.4005 105.279 20.8711H110.367C110.367 20.3917 110.265 19.9566 110.061 19.5659C109.857 19.1752 109.564 18.8689 109.182 18.6469C108.8 18.416 108.352 18.3006 107.837 18.3006Z" fill="#B1B1B1"/>
<rect x="0.352867" y="0.352867" width="130.294" height="39.2943" rx="6.45243" stroke="#B2B2B2" stroke-width="0.705735"/>
<defs>
<clipPath id="clip0_434_7484">
<rect width="25.1869" height="25.1869" fill="white" transform="translate(18.3779 7.40662)"/>
</clipPath>
</defs>
</svg>
