<svg width="47" height="46" viewBox="0 0 47 46" fill="none" xmlns="http://www.w3.org/2000/svg">
<g filter="url(#filter0_d_430_7470)">
<path d="M3 18.8061C3 9.94084 3 5.50819 5.75409 2.75409C8.50819 0 12.9408 0 21.8061 0H24.3585C33.2238 0 37.6564 0 40.4105 2.75409C43.1646 5.50819 43.1646 9.94084 43.1646 18.8061V21.3585C43.1646 30.2238 43.1646 34.6564 40.4105 37.4105C37.6564 40.1646 33.2238 40.1646 24.3585 40.1646H21.8061C12.9408 40.1646 8.50819 40.1646 5.75409 37.4105C3 34.6564 3 30.2238 3 21.3585V18.8061Z" fill="white"/>
<g clip-path="url(#clip0_430_7470)">
<path d="M22.3882 24.2033C20.9881 24.0252 19.7084 23.3206 18.8092 22.2328C17.91 21.145 17.4587 19.7556 17.547 18.347C17.6354 16.9384 18.2568 15.6163 19.285 14.6495C20.3132 13.6826 21.6709 13.1435 23.0823 13.1418C24.4954 13.1407 25.8557 13.6785 26.8861 14.6455C27.9164 15.6125 28.5393 16.9361 28.6278 18.3464C28.7163 19.7567 28.2637 21.1477 27.3623 22.2359C26.4609 23.3242 25.1784 24.0278 23.7763 24.2033V26.3285H22.3882V24.2033ZM23.0823 22.8583C24.1867 22.8583 25.2459 22.4196 26.0268 21.6386C26.8078 20.8577 27.2465 19.7985 27.2465 18.6941C27.2465 17.5896 26.8078 16.5305 26.0268 15.7495C25.2459 14.9686 24.1867 14.5298 23.0823 14.5298C21.9778 14.5298 20.9187 14.9686 20.1377 15.7495C19.3568 16.5305 18.918 17.5896 18.918 18.6941C18.918 19.7985 19.3568 20.8577 20.1377 21.6386C20.9187 22.4196 21.9778 22.8583 23.0823 22.8583V22.8583ZM18.224 27.0225H27.9405V28.4106H18.224V27.0225Z" fill="#423D3D"/>
</g>
</g>
<defs>
<filter id="filter0_d_430_7470" x="0.1311" y="0" width="45.9024" height="45.9024" filterUnits="userSpaceOnUse" color-interpolation-filters="sRGB">
<feFlood flood-opacity="0" result="BackgroundImageFix"/>
<feColorMatrix in="SourceAlpha" type="matrix" values="0 0 0 0 0 0 0 0 0 0 0 0 0 0 0 0 0 0 127 0" result="hardAlpha"/>
<feOffset dy="2.8689"/>
<feGaussianBlur stdDeviation="1.43445"/>
<feComposite in2="hardAlpha" operator="out"/>
<feColorMatrix type="matrix" values="0 0 0 0 0.825284 0 0 0 0 0.825284 0 0 0 0 0.825284 0 0 0 0.25 0"/>
<feBlend mode="normal" in2="BackgroundImageFix" result="effect1_dropShadow_430_7470"/>
<feBlend mode="normal" in="SourceGraphic" in2="effect1_dropShadow_430_7470" result="shape"/>
</filter>
<clipPath id="clip0_430_7470">
<path d="M14.7539 11.7538H31.4108V28.4108H14.7539V11.7538Z" fill="white"/>
</clipPath>
</defs>
</svg>
