<svg width="29" height="29" viewBox="0 0 29 29" fill="none" xmlns="http://www.w3.org/2000/svg">
<rect width="28.9573" height="28.9573" rx="14.4787" fill="#E1F6F5"/>
<g clip-path="url(#clip0_435_7528)">
<path d="M14.4785 6.43506C18.9211 6.43506 22.5222 10.0362 22.5222 14.4788C22.5222 18.9213 18.9211 22.5225 14.4785 22.5225C10.036 22.5225 6.43481 18.9213 6.43481 14.4788H8.04356C8.04356 18.0325 10.9248 20.9137 14.4785 20.9137C18.0322 20.9137 20.9135 18.0325 20.9135 14.4788C20.9135 10.9251 18.0322 8.0438 14.4785 8.0438C12.4966 8.0438 10.7237 8.93987 9.54371 10.3483L11.261 12.0657H6.43481V7.23943L8.40311 9.20692C9.87752 7.5097 12.0525 6.43506 14.4785 6.43506ZM15.2829 10.4569V14.145L17.8915 16.7535L16.7533 17.8917L13.6742 14.811V10.4569H15.2829Z" fill="url(#paint0_linear_435_7528)"/>
</g>
<defs>
<linearGradient id="paint0_linear_435_7528" x1="14.4785" y1="6.43506" x2="14.4785" y2="22.5225" gradientUnits="userSpaceOnUse">
<stop stop-color="#33FFC2"/>
<stop offset="1" stop-color="#1095D4"/>
</linearGradient>
<clipPath id="clip0_435_7528">
<rect width="19.3049" height="19.3049" fill="white" transform="translate(4.82617 4.82617)"/>
</clipPath>
</defs>
</svg>
