<svg width="23" height="23" viewBox="0 0 23 23" fill="none" xmlns="http://www.w3.org/2000/svg">
<path d="M5.89066 17.1853C6.08791 16.6263 6.45371 16.1422 6.93762 15.7998C7.42154 15.4574 7.99975 15.2735 8.59256 15.2735C9.18536 15.2735 9.76357 15.4574 10.2475 15.7998C10.7314 16.1422 11.0972 16.6263 11.2945 17.1853H21.0041V19.0948H11.2945C11.0972 19.6538 10.7314 20.1379 10.2475 20.4803C9.76357 20.8227 9.18536 21.0066 8.59256 21.0066C7.99975 21.0066 7.42154 20.8227 6.93762 20.4803C6.45371 20.1379 6.08791 19.6538 5.89066 19.0948H1.90942V17.1853H5.89066ZM11.6191 10.5022C11.8163 9.94314 12.1821 9.45906 12.666 9.11665C13.1499 8.77424 13.7281 8.59036 14.321 8.59036C14.9138 8.59036 15.492 8.77424 15.9759 9.11665C16.4598 9.45906 16.8256 9.94314 17.0229 10.5022H21.0041V12.4116H17.0229C16.8256 12.9707 16.4598 13.4547 15.9759 13.7972C15.492 14.1396 14.9138 14.3234 14.321 14.3234C13.7281 14.3234 13.1499 14.1396 12.666 13.7972C12.1821 13.4547 11.8163 12.9707 11.6191 12.4116H1.90942V10.5022H11.6191ZM5.89066 3.81903C6.08791 3.26 6.45371 2.77592 6.93762 2.43351C7.42154 2.0911 7.99975 1.90723 8.59256 1.90723C9.18536 1.90723 9.76357 2.0911 10.2475 2.43351C10.7314 2.77592 11.0972 3.26 11.2945 3.81903H21.0041V5.7285H11.2945C11.0972 6.28753 10.7314 6.77161 10.2475 7.11402C9.76357 7.45643 9.18536 7.64031 8.59256 7.64031C7.99975 7.64031 7.42154 7.45643 6.93762 7.11402C6.45371 6.77161 6.08791 6.28753 5.89066 5.7285H1.90942V3.81903H5.89066ZM8.59256 5.7285C8.84577 5.7285 9.08861 5.62791 9.26765 5.44886C9.4467 5.26982 9.54729 5.02698 9.54729 4.77377C9.54729 4.52056 9.4467 4.27772 9.26765 4.09867C9.08861 3.91962 8.84577 3.81903 8.59256 3.81903C8.33935 3.81903 8.09651 3.91962 7.91746 4.09867C7.73841 4.27772 7.63782 4.52056 7.63782 4.77377C7.63782 5.02698 7.73841 5.26982 7.91746 5.44886C8.09651 5.62791 8.33935 5.7285 8.59256 5.7285V5.7285ZM14.321 12.4116C14.5742 12.4116 14.817 12.311 14.9961 12.132C15.1751 11.953 15.2757 11.7101 15.2757 11.4569C15.2757 11.2037 15.1751 10.9608 14.9961 10.7818C14.817 10.6028 14.5742 10.5022 14.321 10.5022C14.0677 10.5022 13.8249 10.6028 13.6459 10.7818C13.4668 10.9608 13.3662 11.2037 13.3662 11.4569C13.3662 11.7101 13.4668 11.953 13.6459 12.132C13.8249 12.311 14.0677 12.4116 14.321 12.4116V12.4116ZM8.59256 19.0948C8.84577 19.0948 9.08861 18.9942 9.26765 18.8151C9.4467 18.6361 9.54729 18.3932 9.54729 18.14C9.54729 17.8868 9.4467 17.644 9.26765 17.4649C9.08861 17.2859 8.84577 17.1853 8.59256 17.1853C8.33935 17.1853 8.09651 17.2859 7.91746 17.4649C7.73841 17.644 7.63782 17.8868 7.63782 18.14C7.63782 18.3932 7.73841 18.6361 7.91746 18.8151C8.09651 18.9942 8.33935 19.0948 8.59256 19.0948V19.0948Z" fill="#423D3D"/>
</svg>
