<svg width="13" height="13" viewBox="0 0 13 13" fill="none" xmlns="http://www.w3.org/2000/svg">
<path d="M9.23376 7.37942C9.1003 7.50877 9.03897 7.69583 9.06938 7.87928L9.52749 10.4146C9.56614 10.6295 9.47545 10.847 9.2956 10.9712C9.11936 11.1 8.88489 11.1155 8.69268 11.0124L6.41035 9.82202C6.33099 9.77976 6.24287 9.75709 6.15269 9.75451H6.01304C5.9646 9.76173 5.91719 9.77718 5.87391 9.80089L3.59106 10.9969C3.4782 11.0536 3.3504 11.0737 3.22518 11.0536C2.92012 10.9959 2.71657 10.7053 2.76655 10.3987L3.22518 7.8633C3.25559 7.6783 3.19426 7.49021 3.0608 7.35881L1.19999 5.5552C1.04437 5.40422 0.990259 5.17748 1.06137 4.9729C1.13042 4.76883 1.30666 4.61991 1.51949 4.58641L4.08061 4.21487C4.2754 4.19477 4.44648 4.07625 4.53408 3.90104L5.66263 1.58727C5.68942 1.53574 5.72395 1.48833 5.76569 1.44814L5.81207 1.41207C5.83629 1.38527 5.86411 1.36311 5.89503 1.34508L5.9512 1.32446L6.03881 1.28839H6.25575C6.44951 1.30849 6.62008 1.42443 6.70923 1.59758L7.85272 3.90104C7.93517 4.06955 8.09543 4.18653 8.28043 4.21487L10.8415 4.58641C11.058 4.61733 11.2389 4.76677 11.3105 4.9729C11.378 5.17954 11.3198 5.40628 11.161 5.5552L9.23376 7.37942Z" fill="#FFCB66"/>
</svg>
