<svg width="13" height="13" viewBox="0 0 13 13" fill="none" xmlns="http://www.w3.org/2000/svg">
<path fill-rule="evenodd" clip-rule="evenodd" d="M6.05499 2.31893C6.00809 2.31893 5.89266 2.33182 5.83134 2.45446L4.89037 4.33588C4.74145 4.63322 4.45441 4.83986 4.12255 4.88727L2.01594 5.19079C1.87681 5.21088 1.8294 5.31395 1.81497 5.35723C1.80209 5.39897 1.78147 5.50513 1.87732 5.59686L3.40059 7.06035C3.64331 7.29379 3.75359 7.63029 3.69587 7.95958L3.33721 10.026C3.31505 10.1553 3.39596 10.2306 3.43203 10.2563C3.47016 10.2852 3.57219 10.3424 3.69845 10.2764L5.58193 9.29991C5.87875 9.14686 6.23225 9.14686 6.52804 9.29991L8.41101 10.2759C8.53778 10.3414 8.63981 10.2842 8.67846 10.2563C8.71453 10.2306 8.79543 10.1553 8.77327 10.026L8.41358 7.95958C8.35587 7.63029 8.46615 7.29379 8.70886 7.06035L10.2321 5.59686C10.3285 5.50513 10.3079 5.39846 10.2945 5.35723C10.2806 5.31395 10.2332 5.21088 10.094 5.19079L7.98742 4.88727C7.65607 4.83986 7.36904 4.63322 7.22011 4.33536L6.27812 2.45446C6.21731 2.33182 6.10188 2.31893 6.05499 2.31893M3.57998 11.0793C3.36716 11.0793 3.15588 11.0123 2.975 10.8804C2.66272 10.6516 2.50967 10.2739 2.57615 9.89356L2.93481 7.82714C2.94821 7.75036 2.92193 7.67255 2.86524 7.61792L1.34197 6.15443C1.06164 5.88595 0.961151 5.48915 1.07967 5.1207C1.19923 4.74813 1.51563 4.48171 1.90572 4.42606L4.01233 4.12254C4.09375 4.1112 4.16384 4.06121 4.19888 3.9901L5.14036 2.10817C5.31402 1.76136 5.66444 1.54596 6.05505 1.54596V1.54596C6.44565 1.54596 6.79607 1.76136 6.96973 2.10817L7.91173 3.98959C7.94728 4.06121 8.01685 4.1112 8.09776 4.12254L10.2044 4.42606C10.5945 4.48171 10.9109 4.74813 11.0304 5.1207C11.1489 5.48915 11.0479 5.88595 10.7676 6.15443L9.24433 7.61792C9.18765 7.67255 9.16188 7.75036 9.17528 7.82663L9.53446 9.89356C9.60042 10.2744 9.44737 10.6521 9.13457 10.8804C8.81765 11.1128 8.40488 11.1442 8.05499 10.9618L6.17254 9.98631C6.09885 9.94818 6.01073 9.94818 5.93704 9.98631L4.05459 10.9623C3.90412 11.0406 3.74179 11.0793 3.57998 11.0793" fill="#423D3D"/>
</svg>
