<svg width="118" height="131" viewBox="0 0 118 131" fill="none" xmlns="http://www.w3.org/2000/svg">
<g filter="url(#filter0_d_438_7617)">
<rect x="4.8916" y="1" width="106.437" height="124.177" rx="22.9957" fill="white"/>
</g>
<path d="M23.7693 99.0412H26.2185V100H22.5812V92.7568H23.7693V99.0412ZM26.816 97.1027C26.816 96.526 26.9341 96.0154 27.1704 95.5707C27.4136 95.126 27.7401 94.7821 28.15 94.5389C28.5669 94.2888 29.0255 94.1637 29.5257 94.1637C29.9773 94.1637 30.3699 94.2541 30.7034 94.4347C31.0438 94.6084 31.3148 94.8273 31.5163 95.0913V94.2575H32.7148V100H31.5163V99.1454C31.3148 99.4164 31.0404 99.6422 30.693 99.8228C30.3456 100.003 29.9495 100.094 29.5049 100.094C29.0116 100.094 28.56 99.9687 28.15 99.7186C27.7401 99.4615 27.4136 99.1072 27.1704 98.6556C26.9341 98.197 26.816 97.6794 26.816 97.1027ZM31.5163 97.1236C31.5163 96.7275 31.4329 96.3836 31.2662 96.0918C31.1064 95.8 30.8945 95.5776 30.6304 95.4248C30.3664 95.2719 30.0816 95.1955 29.7758 95.1955C29.4701 95.1955 29.1853 95.2719 28.9213 95.4248C28.6572 95.5707 28.4418 95.7896 28.2751 96.0814C28.1153 96.3662 28.0354 96.7067 28.0354 97.1027C28.0354 97.4987 28.1153 97.8461 28.2751 98.1449C28.4418 98.4437 28.6572 98.6729 28.9213 98.8327C29.1922 98.9856 29.4771 99.062 29.7758 99.062C30.0816 99.062 30.3664 98.9856 30.6304 98.8327C30.8945 98.6799 31.1064 98.4576 31.2662 98.1657C31.4329 97.867 31.5163 97.5196 31.5163 97.1236ZM39.4758 94.2575V100H38.2878V99.3226C38.1002 99.5588 37.8535 99.7464 37.5478 99.8854C37.249 100.017 36.9294 100.083 36.589 100.083C36.1374 100.083 35.7309 99.9896 35.3696 99.802C35.0153 99.6144 34.7339 99.3365 34.5255 98.9682C34.324 98.6 34.2232 98.1553 34.2232 97.6342V94.2575H35.4009V97.4571C35.4009 97.9712 35.5294 98.3672 35.7865 98.6452C36.0436 98.9161 36.3944 99.0516 36.8391 99.0516C37.2838 99.0516 37.6346 98.9161 37.8917 98.6452C38.1557 98.3672 38.2878 97.9712 38.2878 97.4571V94.2575H39.4758ZM43.9407 94.1637C44.3923 94.1637 44.7953 94.2575 45.1497 94.4451C45.511 94.6327 45.7923 94.9106 45.9938 95.2789C46.1953 95.6471 46.2961 96.0918 46.2961 96.6129V100H45.1184V96.7901C45.1184 96.2759 44.9899 95.8834 44.7328 95.6124C44.4757 95.3345 44.1248 95.1955 43.6802 95.1955C43.2355 95.1955 42.8812 95.3345 42.6171 95.6124C42.3601 95.8834 42.2315 96.2759 42.2315 96.7901V100H41.0434V94.2575H42.2315V94.9141C42.4261 94.6779 42.6727 94.4938 42.9715 94.3618C43.2772 94.2298 43.6003 94.1637 43.9407 94.1637ZM47.4155 97.1027C47.4155 96.526 47.5336 96.0154 47.7699 95.5707C48.0131 95.126 48.3396 94.7821 48.7495 94.5389C49.1664 94.2888 49.6284 94.1637 50.1356 94.1637C50.5108 94.1637 50.8791 94.2471 51.2404 94.4139C51.6086 94.5737 51.9004 94.7891 52.1158 95.06V92.2878H53.3143V100H52.1158V99.135C51.9213 99.4129 51.6503 99.6422 51.3029 99.8228C50.9624 100.003 50.5699 100.094 50.1252 100.094C49.625 100.094 49.1664 99.9687 48.7495 99.7186C48.3396 99.4615 48.0131 99.1072 47.7699 98.6556C47.5336 98.197 47.4155 97.6794 47.4155 97.1027ZM52.1158 97.1236C52.1158 96.7275 52.0324 96.3836 51.8657 96.0918C51.7059 95.8 51.494 95.5776 51.2299 95.4248C50.9659 95.2719 50.6811 95.1955 50.3753 95.1955C50.0696 95.1955 49.7848 95.2719 49.5208 95.4248C49.2567 95.5707 49.0413 95.7896 48.8746 96.0814C48.7148 96.3662 48.6349 96.7067 48.6349 97.1027C48.6349 97.4987 48.7148 97.8461 48.8746 98.1449C49.0413 98.4437 49.2567 98.6729 49.5208 98.8327C49.7917 98.9856 50.0766 99.062 50.3753 99.062C50.6811 99.062 50.9659 98.9856 51.2299 98.8327C51.494 98.6799 51.7059 98.4576 51.8657 98.1657C52.0324 97.867 52.1158 97.5196 52.1158 97.1236ZM56.0629 95.0913C56.2366 94.7995 56.4659 94.5737 56.7508 94.4139C57.0426 94.2471 57.3865 94.1637 57.7825 94.1637V95.3935H57.4803C57.0148 95.3935 56.6604 95.5116 56.4173 95.7479C56.181 95.9841 56.0629 96.394 56.0629 96.9777V100H54.8748V94.2575H56.0629V95.0913ZM64.0439 94.2575L60.5213 102.699H59.2915L60.4588 99.9062L58.1972 94.2575H59.5208L61.1362 98.6347L62.8141 94.2575H64.0439ZM70.0343 100.073C69.548 100.073 69.1103 99.9896 68.7212 99.8228C68.3321 99.6491 68.0264 99.406 67.8041 99.0933C67.5817 98.7806 67.4706 98.4159 67.4706 97.999H68.742C68.7698 98.3117 68.8914 98.5687 69.1068 98.7702C69.3291 98.9717 69.6383 99.0725 70.0343 99.0725C70.4443 99.0725 70.7639 98.9752 70.9932 98.7806C71.2224 98.5792 71.3371 98.3221 71.3371 98.0094C71.3371 97.7662 71.2641 97.5682 71.1182 97.4154C70.9793 97.2625 70.8021 97.1444 70.5867 97.061C70.3783 96.9777 70.0865 96.8873 69.7113 96.7901C69.2388 96.665 68.8532 96.5399 68.5544 96.4149C68.2626 96.2829 68.0125 96.0814 67.8041 95.8104C67.5956 95.5394 67.4914 95.1781 67.4914 94.7265C67.4914 94.3097 67.5956 93.9449 67.8041 93.6322C68.0125 93.3196 68.3043 93.0799 68.6795 92.9131C69.0547 92.7464 69.4889 92.663 69.9822 92.663C70.684 92.663 71.2572 92.8402 71.7018 93.1945C72.1535 93.5419 72.4036 94.0213 72.4522 94.6327H71.1391C71.1182 94.3687 70.9932 94.1429 70.7639 93.9553C70.5346 93.7677 70.2324 93.6739 69.8572 93.6739C69.5167 93.6739 69.2388 93.7608 69.0234 93.9345C68.808 94.1082 68.7003 94.3583 68.7003 94.6848C68.7003 94.9072 68.7664 95.0913 68.8984 95.2372C69.0373 95.3762 69.211 95.4873 69.4195 95.5707C69.6279 95.6541 69.9128 95.7444 70.2741 95.8417C70.7535 95.9737 71.1425 96.1057 71.4413 96.2377C71.747 96.3697 72.0041 96.5747 72.2125 96.8526C72.4279 97.1236 72.5356 97.4883 72.5356 97.9469C72.5356 98.3151 72.4349 98.6625 72.2334 98.9891C72.0388 99.3156 71.7505 99.5797 71.3683 99.7811C70.9932 99.9757 70.5485 100.073 70.0343 100.073ZM76.9077 94.1637C77.3455 94.1637 77.7345 94.2575 78.075 94.4451C78.4224 94.6327 78.6934 94.9106 78.8879 95.2789C79.0894 95.6471 79.1901 96.0918 79.1901 96.6129V100H78.0125V96.7901C78.0125 96.2759 77.8839 95.8834 77.6269 95.6124C77.3698 95.3345 77.0189 95.1955 76.5742 95.1955C76.1296 95.1955 75.7752 95.3345 75.5112 95.6124C75.2541 95.8834 75.1256 96.2759 75.1256 96.7901V100H73.9375V92.2878H75.1256V94.9245C75.3271 94.6814 75.5807 94.4938 75.8864 94.3618C76.1991 94.2298 76.5395 94.1637 76.9077 94.1637ZM83.1965 100.094C82.6545 100.094 82.1647 99.9722 81.727 99.729C81.2892 99.4789 80.9453 99.1315 80.6952 98.6868C80.4451 98.2352 80.32 97.7141 80.32 97.1236C80.32 96.5399 80.4485 96.0223 80.7056 95.5707C80.9627 95.1191 81.3136 94.7717 81.7582 94.5285C82.2029 94.2853 82.6997 94.1637 83.2486 94.1637C83.7974 94.1637 84.2942 94.2853 84.7389 94.5285C85.1836 94.7717 85.5344 95.1191 85.7915 95.5707C86.0486 96.0223 86.1771 96.5399 86.1771 97.1236C86.1771 97.7072 86.0451 98.2248 85.7811 98.6764C85.5171 99.128 85.1558 99.4789 84.6972 99.729C84.2456 99.9722 83.7453 100.094 83.1965 100.094ZM83.1965 99.062C83.5022 99.062 83.787 98.9891 84.051 98.8432C84.322 98.6973 84.5409 98.4784 84.7076 98.1866C84.8744 97.8948 84.9577 97.5404 84.9577 97.1236C84.9577 96.7067 84.8778 96.3558 84.718 96.071C84.5582 95.7791 84.3463 95.5603 84.0823 95.4144C83.8183 95.2685 83.5334 95.1955 83.2277 95.1955C82.922 95.1955 82.6371 95.2685 82.3731 95.4144C82.116 95.5603 81.9111 95.7791 81.7582 96.071C81.6054 96.3558 81.529 96.7067 81.529 97.1236C81.529 97.7419 81.6853 98.2213 81.9979 98.5618C82.3175 98.8953 82.717 99.062 83.1965 99.062ZM88.5397 95.1017C88.7412 94.8377 89.0156 94.6154 89.363 94.4347C89.7104 94.2541 90.103 94.1637 90.5407 94.1637C91.041 94.1637 91.496 94.2888 91.906 94.5389C92.3228 94.7821 92.6494 95.126 92.8856 95.5707C93.1219 96.0154 93.24 96.526 93.24 97.1027C93.24 97.6794 93.1219 98.197 92.8856 98.6556C92.6494 99.1072 92.3228 99.4615 91.906 99.7186C91.496 99.9687 91.041 100.094 90.5407 100.094C90.103 100.094 89.7139 100.007 89.3735 99.8332C89.033 99.6526 88.7551 99.4303 88.5397 99.1662V102.731H87.3516V94.2575H88.5397V95.1017ZM92.031 97.1027C92.031 96.7067 91.9477 96.3662 91.7809 96.0814C91.6211 95.7896 91.4057 95.5707 91.1348 95.4248C90.8707 95.2719 90.5859 95.1955 90.2802 95.1955C89.9814 95.1955 89.6965 95.2719 89.4256 95.4248C89.1615 95.5776 88.9462 95.8 88.7794 96.0918C88.6196 96.3836 88.5397 96.7275 88.5397 97.1236C88.5397 97.5196 88.6196 97.867 88.7794 98.1657C88.9462 98.4576 89.1615 98.6799 89.4256 98.8327C89.6965 98.9856 89.9814 99.062 90.2802 99.062C90.5859 99.062 90.8707 98.9856 91.1348 98.8327C91.4057 98.6729 91.6211 98.4437 91.7809 98.1449C91.9477 97.8461 92.031 97.4987 92.031 97.1027ZM96.4992 100.094C96.0476 100.094 95.6412 100.014 95.2799 99.8541C94.9255 99.6873 94.6442 99.465 94.4357 99.1871C94.2273 98.9022 94.1161 98.5861 94.1022 98.2387H95.332C95.3528 98.4819 95.4675 98.6868 95.6759 98.8536C95.8913 99.0134 96.1588 99.0933 96.4784 99.0933C96.8119 99.0933 97.069 99.0308 97.2496 98.9057C97.4372 98.7737 97.531 98.6069 97.531 98.4055C97.531 98.1901 97.4268 98.0303 97.2184 97.926C97.0169 97.8218 96.6938 97.7072 96.2491 97.5821C95.8184 97.464 95.4675 97.3494 95.1965 97.2382C94.9255 97.127 94.6893 96.9568 94.4878 96.7275C94.2933 96.4982 94.196 96.196 94.196 95.8208C94.196 95.5151 94.2863 95.2372 94.467 94.9871C94.6476 94.73 94.9047 94.5285 95.2382 94.3826C95.5786 94.2367 95.9677 94.1637 96.4055 94.1637C97.0586 94.1637 97.5831 94.3305 97.9792 94.664C98.3821 94.9905 98.5975 95.4387 98.6253 96.0084H97.4372C97.4164 95.7513 97.3122 95.5464 97.1246 95.3935C96.937 95.2407 96.6834 95.1642 96.3638 95.1642C96.0511 95.1642 95.8114 95.2233 95.6447 95.3414C95.4779 95.4595 95.3945 95.6159 95.3945 95.8104C95.3945 95.9633 95.4501 96.0918 95.5613 96.196C95.6724 96.3002 95.8079 96.3836 95.9677 96.4461C96.1275 96.5017 96.3638 96.5747 96.6764 96.665C97.0933 96.7762 97.4337 96.8908 97.6978 97.0089C97.9687 97.1201 98.2015 97.2868 98.396 97.5092C98.5906 97.7315 98.6913 98.0268 98.6983 98.395C98.6983 98.7216 98.6079 99.0134 98.4273 99.2705C98.2467 99.5275 97.9896 99.729 97.6561 99.8749C97.3295 100.021 96.9439 100.094 96.4992 100.094Z" fill="#033F40"/>
<g clip-path="url(#clip0_438_7617)">
<g filter="url(#filter1_d_438_7617)">
<path d="M50.6939 58.6346C50.6939 54.3072 54.2144 50.7867 58.5417 50.7867V46.7793H43.3469V70.4899H58.5417V66.4825C54.2144 66.4825 50.6939 62.9619 50.6939 58.6346Z" fill="#3D9AE2"/>
<path d="M58.5417 50.7867C62.8691 50.7867 66.3896 54.3072 66.3896 58.6346C66.3896 62.9619 62.8691 66.4825 58.5417 66.4825V70.4899H73.7366V46.7793H58.5417V50.7867Z" fill="#1A6FB0"/>
<path d="M58.5417 37.4287H43.3469V46.7794H58.5417V37.4287ZM53.3877 43.4398H47.3543V40.7682H53.3877V43.4398Z" fill="#EBE5DD"/>
<path d="M58.5417 37.4287V46.7794H73.7366V37.4287H58.5417ZM65.7217 43.4398H63.0501V40.7682H65.7217V43.4398ZM69.7291 43.4398H67.0575V40.7682H69.7291V43.4398Z" fill="#D9CCBC"/>
<path d="M53.3877 40.7683H47.3544V43.4399H53.3877V40.7683Z" fill="#3D9AE2"/>
<path d="M69.7291 40.7683H67.0575V43.4399H69.7291V40.7683Z" fill="#1A6FB0"/>
<path d="M65.7217 40.7683H63.0501V43.4399H65.7217V40.7683Z" fill="#1A6FB0"/>
<path d="M50.6938 58.6345C50.6938 62.9618 54.2144 66.4824 58.5417 66.4824V50.7866C54.2144 50.7866 50.6938 54.3071 50.6938 58.6345Z" fill="#44FFE8"/>
<path d="M66.3896 58.6345C66.3896 54.3071 62.8691 50.7866 58.5417 50.7866V66.4824C62.8691 66.4824 66.3896 62.9618 66.3896 58.6345Z" fill="#00E7F0"/>
</g>
</g>
<defs>
<filter id="filter0_d_438_7617" x="0.949481" y="0.342981" width="116.95" height="134.689" filterUnits="userSpaceOnUse" color-interpolation-filters="sRGB">
<feFlood flood-opacity="0" result="BackgroundImageFix"/>
<feColorMatrix in="SourceAlpha" type="matrix" values="0 0 0 0 0 0 0 0 0 0 0 0 0 0 0 0 0 0 127 0" result="hardAlpha"/>
<feMorphology radius="0.65702" operator="erode" in="SourceAlpha" result="effect1_dropShadow_438_7617"/>
<feOffset dx="1.31404" dy="4.59914"/>
<feGaussianBlur stdDeviation="2.95659"/>
<feComposite in2="hardAlpha" operator="out"/>
<feColorMatrix type="matrix" values="0 0 0 0 0 0 0 0 0 0 0 0 0 0 0 0 0 0 0.06 0"/>
<feBlend mode="normal" in2="BackgroundImageFix" result="effect1_dropShadow_438_7617"/>
<feBlend mode="normal" in="SourceGraphic" in2="effect1_dropShadow_438_7617" result="shape"/>
</filter>
<filter id="filter1_d_438_7617" x="39.6735" y="37.4287" width="37.7366" height="40.4082" filterUnits="userSpaceOnUse" color-interpolation-filters="sRGB">
<feFlood flood-opacity="0" result="BackgroundImageFix"/>
<feColorMatrix in="SourceAlpha" type="matrix" values="0 0 0 0 0 0 0 0 0 0 0 0 0 0 0 0 0 0 127 0" result="hardAlpha"/>
<feOffset dy="3.67347"/>
<feGaussianBlur stdDeviation="1.83673"/>
<feComposite in2="hardAlpha" operator="out"/>
<feColorMatrix type="matrix" values="0 0 0 0 0 0 0 0 0 0 0 0 0 0 0 0 0 0 0.25 0"/>
<feBlend mode="normal" in2="BackgroundImageFix" result="effect1_dropShadow_438_7617"/>
<feBlend mode="normal" in="SourceGraphic" in2="effect1_dropShadow_438_7617" result="shape"/>
</filter>
<clipPath id="clip0_438_7617">
<rect width="45" height="45.9184" fill="white" transform="translate(36 31)"/>
</clipPath>
</defs>
</svg>
