<svg width="118" height="136" viewBox="0 0 118 136" fill="none" xmlns="http://www.w3.org/2000/svg">
<g filter="url(#filter0_d_438_7592)">
<rect x="4.8916" y="1" width="106.437" height="124.177" rx="22.9957" fill="white"/>
</g>
<path d="M27.0372 97.8412C26.8496 97.4799 26.589 97.2089 26.2555 97.0283C25.922 96.8407 25.5364 96.7469 25.0987 96.7469C24.6193 96.7469 24.192 96.8546 23.8168 97.0699C23.4416 97.2853 23.1463 97.591 22.931 97.9871C22.7225 98.3831 22.6183 98.8417 22.6183 99.3628C22.6183 99.8839 22.7225 100.346 22.931 100.749C23.1463 101.145 23.4416 101.451 23.8168 101.666C24.192 101.881 24.6193 101.989 25.0987 101.989C25.7449 101.989 26.2694 101.808 26.6724 101.447C27.0754 101.086 27.322 100.596 27.4124 99.9777H24.6923V99.0293H28.6838V99.9568C28.6074 100.52 28.4059 101.037 28.0794 101.51C27.7598 101.982 27.3394 102.361 26.8183 102.646C26.3042 102.924 25.731 103.063 25.0987 103.063C24.4178 103.063 23.796 102.906 23.2332 102.594C22.6704 102.274 22.2223 101.833 21.8888 101.27C21.5622 100.707 21.3989 100.071 21.3989 99.3628C21.3989 98.6541 21.5622 98.0183 21.8888 97.4556C22.2223 96.8928 22.6704 96.4551 23.2332 96.1424C23.8029 95.8228 24.4248 95.663 25.0987 95.663C25.8699 95.663 26.5543 95.8541 27.1518 96.2362C27.7563 96.6114 28.194 97.1464 28.465 97.8412H27.0372ZM31.0437 98.0913C31.2174 97.7995 31.4467 97.5737 31.7316 97.4139C32.0234 97.2471 32.3673 97.1637 32.7634 97.1637V98.3935H32.4611C31.9956 98.3935 31.6413 98.5116 31.3981 98.7479C31.1619 98.9841 31.0437 99.394 31.0437 99.9777V103H29.8557V97.2575H31.0437V98.0913ZM36.3463 103.094C35.8043 103.094 35.3145 102.972 34.8768 102.729C34.4391 102.479 34.0952 102.132 33.845 101.687C33.5949 101.235 33.4698 100.714 33.4698 100.124C33.4698 99.5399 33.5984 99.0223 33.8555 98.5707C34.1125 98.1191 34.4634 97.7717 34.9081 97.5285C35.3527 97.2853 35.8495 97.1637 36.3984 97.1637C36.9473 97.1637 37.4441 97.2853 37.8887 97.5285C38.3334 97.7717 38.6843 98.1191 38.9413 98.5707C39.1984 99.0223 39.3269 99.5399 39.3269 100.124C39.3269 100.707 39.1949 101.225 38.9309 101.676C38.6669 102.128 38.3056 102.479 37.847 102.729C37.3954 102.972 36.8952 103.094 36.3463 103.094ZM36.3463 102.062C36.652 102.062 36.9369 101.989 37.2009 101.843C37.4718 101.697 37.6907 101.478 37.8575 101.187C38.0242 100.895 38.1076 100.54 38.1076 100.124C38.1076 99.7067 38.0277 99.3558 37.8679 99.071C37.7081 98.7791 37.4962 98.5603 37.2321 98.4144C36.9681 98.2685 36.6833 98.1955 36.3776 98.1955C36.0718 98.1955 35.787 98.2685 35.523 98.4144C35.2659 98.5603 35.0609 98.7791 34.9081 99.071C34.7552 99.3558 34.6788 99.7067 34.6788 100.124C34.6788 100.742 34.8351 101.221 35.1478 101.562C35.4674 101.895 35.8669 102.062 36.3463 102.062ZM40.1054 100.124C40.1054 99.533 40.2235 99.0154 40.4598 98.5707C40.7029 98.1191 41.0364 97.7717 41.4603 97.5285C41.8841 97.2853 42.3704 97.1637 42.9193 97.1637C43.6141 97.1637 44.1873 97.3305 44.6389 97.664C45.0975 97.9905 45.4067 98.4595 45.5665 99.071H44.2846C44.1804 98.7861 44.0136 98.5638 43.7843 98.404C43.5551 98.2441 43.2667 98.1642 42.9193 98.1642C42.433 98.1642 42.0439 98.3379 41.7521 98.6853C41.4672 99.0258 41.3248 99.5052 41.3248 100.124C41.3248 100.742 41.4672 101.225 41.7521 101.572C42.0439 101.92 42.433 102.093 42.9193 102.093C43.6072 102.093 44.0622 101.791 44.2846 101.187H45.5665C45.3997 101.77 45.0871 102.236 44.6285 102.583C44.1699 102.924 43.6002 103.094 42.9193 103.094C42.3704 103.094 41.8841 102.972 41.4603 102.729C41.0364 102.479 40.7029 102.132 40.4598 101.687C40.2235 101.235 40.1054 100.714 40.1054 100.124ZM52.0135 99.9881C52.0135 100.203 51.9997 100.398 51.9719 100.572H47.5842C47.619 101.03 47.7892 101.399 48.0949 101.676C48.4006 101.954 48.7758 102.093 49.2205 102.093C49.8597 102.093 50.3113 101.826 50.5753 101.291H51.8572C51.6835 101.819 51.3674 102.253 50.9088 102.594C50.4572 102.927 49.8944 103.094 49.2205 103.094C48.6716 103.094 48.1783 102.972 47.7406 102.729C47.3098 102.479 46.9694 102.132 46.7192 101.687C46.4761 101.235 46.3545 100.714 46.3545 100.124C46.3545 99.533 46.4726 99.0154 46.7088 98.5707C46.952 98.1191 47.289 97.7717 47.7197 97.5285C48.1574 97.2853 48.6577 97.1637 49.2205 97.1637C49.7624 97.1637 50.2453 97.2819 50.6691 97.5181C51.0929 97.7543 51.423 98.0878 51.6592 98.5186C51.8954 98.9424 52.0135 99.4322 52.0135 99.9881ZM50.7733 99.6129C50.7664 99.1752 50.6101 98.8243 50.3044 98.5603C49.9986 98.2963 49.62 98.1642 49.1684 98.1642C48.7584 98.1642 48.4076 98.2963 48.1158 98.5603C47.8239 98.8174 47.6503 99.1682 47.5947 99.6129H50.7733ZM54.3708 98.0913C54.5445 97.7995 54.7738 97.5737 55.0587 97.4139C55.3505 97.2471 55.6944 97.1637 56.0905 97.1637V98.3935H55.7882C55.3227 98.3935 54.9684 98.5116 54.7252 98.7479C54.489 98.9841 54.3708 99.394 54.3708 99.9777V103H53.1827V97.2575H54.3708V98.0913ZM62.3518 97.2575L58.8292 105.699H57.5994L58.7667 102.906L56.5051 97.2575H57.8287L59.4441 101.635L61.122 97.2575H62.3518ZM68.3423 103.073C67.8559 103.073 67.4182 102.99 67.0291 102.823C66.64 102.649 66.3343 102.406 66.112 102.093C65.8897 101.781 65.7785 101.416 65.7785 100.999H67.05C67.0777 101.312 67.1993 101.569 67.4147 101.77C67.6371 101.972 67.9462 102.072 68.3423 102.072C68.7522 102.072 69.0718 101.975 69.3011 101.781C69.5304 101.579 69.645 101.322 69.645 101.009C69.645 100.766 69.5721 100.568 69.4261 100.415C69.2872 100.263 69.11 100.144 68.8946 100.061C68.6862 99.9777 68.3944 99.8873 68.0192 99.7901C67.5467 99.665 67.1611 99.5399 66.8624 99.4149C66.5706 99.2829 66.3204 99.0814 66.112 98.8104C65.9036 98.5394 65.7993 98.1781 65.7993 97.7265C65.7993 97.3097 65.9036 96.9449 66.112 96.6322C66.3204 96.3196 66.6122 96.0799 66.9874 95.9131C67.3626 95.7464 67.7969 95.663 68.2902 95.663C68.9919 95.663 69.5651 95.8402 70.0098 96.1945C70.4614 96.5419 70.7115 97.0213 70.7601 97.6327H69.447C69.4261 97.3687 69.3011 97.1429 69.0718 96.9553C68.8425 96.7677 68.5403 96.6739 68.1651 96.6739C67.8247 96.6739 67.5467 96.7608 67.3313 96.9345C67.116 97.1082 67.0083 97.3583 67.0083 97.6848C67.0083 97.9072 67.0743 98.0913 67.2063 98.2372C67.3452 98.3762 67.5189 98.4873 67.7274 98.5707C67.9358 98.6541 68.2207 98.7444 68.582 98.8417C69.0614 98.9737 69.4505 99.1057 69.7492 99.2377C70.0549 99.3697 70.312 99.5747 70.5204 99.8526C70.7358 100.124 70.8435 100.488 70.8435 100.947C70.8435 101.315 70.7428 101.663 70.5413 101.989C70.3467 102.316 70.0584 102.58 69.6763 102.781C69.3011 102.976 68.8564 103.073 68.3423 103.073ZM73.6315 98.2268V101.405C73.6315 101.621 73.6802 101.777 73.7774 101.874C73.8817 101.965 74.0554 102.01 74.2985 102.01H75.0281V103H74.0901C73.5551 103 73.1452 102.875 72.8603 102.625C72.5755 102.375 72.433 101.968 72.433 101.405V98.2268H71.7556V97.2575H72.433V95.8297H73.6315V97.2575H75.0281V98.2268H73.6315ZM78.6139 103.094C78.072 103.094 77.5822 102.972 77.1444 102.729C76.7067 102.479 76.3628 102.132 76.1127 101.687C75.8626 101.235 75.7375 100.714 75.7375 100.124C75.7375 99.5399 75.866 99.0223 76.1231 98.5707C76.3802 98.1191 76.731 97.7717 77.1757 97.5285C77.6204 97.2853 78.1172 97.1637 78.666 97.1637C79.2149 97.1637 79.7117 97.2853 80.1564 97.5285C80.601 97.7717 80.9519 98.1191 81.209 98.5707C81.4661 99.0223 81.5946 99.5399 81.5946 100.124C81.5946 100.707 81.4626 101.225 81.1986 101.676C80.9345 102.128 80.5732 102.479 80.1147 102.729C79.6631 102.972 79.1628 103.094 78.6139 103.094ZM78.6139 102.062C78.9196 102.062 79.2045 101.989 79.4685 101.843C79.7395 101.697 79.9584 101.478 80.1251 101.187C80.2919 100.895 80.3752 100.54 80.3752 100.124C80.3752 99.7067 80.2953 99.3558 80.1355 99.071C79.9757 98.7791 79.7638 98.5603 79.4998 98.4144C79.2358 98.2685 78.9509 98.1955 78.6452 98.1955C78.3395 98.1955 78.0546 98.2685 77.7906 98.4144C77.5335 98.5603 77.3286 98.7791 77.1757 99.071C77.0229 99.3558 76.9464 99.7067 76.9464 100.124C76.9464 100.742 77.1028 101.221 77.4154 101.562C77.735 101.895 78.1345 102.062 78.6139 102.062ZM83.9572 98.0913C84.1309 97.7995 84.3602 97.5737 84.645 97.4139C84.9368 97.2471 85.2808 97.1637 85.6768 97.1637V98.3935H85.3746C84.909 98.3935 84.5547 98.5116 84.3115 98.7479C84.0753 98.9841 83.9572 99.394 83.9572 99.9777V103H82.7691V97.2575H83.9572V98.0913ZM92.0319 99.9881C92.0319 100.203 92.018 100.398 91.9903 100.572H87.6026C87.6374 101.03 87.8076 101.399 88.1133 101.676C88.419 101.954 88.7942 102.093 89.2389 102.093C89.8781 102.093 90.3297 101.826 90.5937 101.291H91.8756C91.7019 101.819 91.3858 102.253 90.9272 102.594C90.4756 102.927 89.9128 103.094 89.2389 103.094C88.69 103.094 88.1967 102.972 87.759 102.729C87.3282 102.479 86.9878 102.132 86.7376 101.687C86.4944 101.235 86.3729 100.714 86.3729 100.124C86.3729 99.533 86.491 99.0154 86.7272 98.5707C86.9704 98.1191 87.3074 97.7717 87.7381 97.5285C88.1758 97.2853 88.6761 97.1637 89.2389 97.1637C89.7808 97.1637 90.2637 97.2819 90.6875 97.5181C91.1113 97.7543 91.4414 98.0878 91.6776 98.5186C91.9138 98.9424 92.0319 99.4322 92.0319 99.9881ZM90.7917 99.6129C90.7848 99.1752 90.6285 98.8243 90.3228 98.5603C90.017 98.2963 89.6384 98.1642 89.1868 98.1642C88.7768 98.1642 88.426 98.2963 88.1342 98.5603C87.8423 98.8174 87.6686 99.1682 87.6131 99.6129H90.7917ZM95.2855 103.094C94.8339 103.094 94.4275 103.014 94.0662 102.854C93.7118 102.687 93.4304 102.465 93.222 102.187C93.0135 101.902 92.9024 101.586 92.8885 101.239H94.1183C94.1391 101.482 94.2538 101.687 94.4622 101.854C94.6776 102.013 94.9451 102.093 95.2647 102.093C95.5982 102.093 95.8552 102.031 96.0359 101.906C96.2235 101.774 96.3173 101.607 96.3173 101.405C96.3173 101.19 96.2131 101.03 96.0046 100.926C95.8031 100.822 95.4801 100.707 95.0354 100.582C94.6046 100.464 94.2538 100.349 93.9828 100.238C93.7118 100.127 93.4756 99.9568 93.2741 99.7275C93.0796 99.4982 92.9823 99.196 92.9823 98.8208C92.9823 98.5151 93.0726 98.2372 93.2533 97.9871C93.4339 97.73 93.691 97.5285 94.0245 97.3826C94.3649 97.2367 94.754 97.1637 95.1917 97.1637C95.8448 97.1637 96.3694 97.3305 96.7654 97.664C97.1684 97.9905 97.3838 98.4387 97.4116 99.0084H96.2235C96.2026 98.7513 96.0984 98.5464 95.9108 98.3935C95.7232 98.2407 95.4696 98.1642 95.15 98.1642C94.8374 98.1642 94.5977 98.2233 94.4309 98.3414C94.2642 98.4595 94.1808 98.6159 94.1808 98.8104C94.1808 98.9633 94.2364 99.0918 94.3476 99.196C94.4587 99.3002 94.5942 99.3836 94.754 99.4461C94.9138 99.5017 95.15 99.5747 95.4627 99.665C95.8796 99.7762 96.22 99.8908 96.484 100.009C96.755 100.12 96.9878 100.287 97.1823 100.509C97.3768 100.732 97.4776 101.027 97.4845 101.395C97.4845 101.722 97.3942 102.013 97.2136 102.27C97.0329 102.528 96.7758 102.729 96.4423 102.875C96.1158 103.021 95.7302 103.094 95.2855 103.094Z" fill="#033F40"/>
<g clip-path="url(#clip0_438_7592)">
<g filter="url(#filter1_d_438_7592)">
<path d="M55.8966 53.7861C55.8966 53.3441 55.9921 52.9252 56.1585 52.5447H42.2414C41.5586 52.5447 41 53.1033 41 53.7861C41 54.4688 41.5586 55.0274 42.2414 55.0274H56.1585C55.9921 54.6463 55.8966 54.228 55.8966 53.7861Z" fill="#71C285"/>
<path d="M61.8415 55.0273C61.3623 56.1222 60.2718 56.8894 59 56.8894C57.7282 56.8894 56.6376 56.1222 56.1585 55.0273H42.8621L48.6016 71.0982C48.8815 71.8828 49.6251 72.4067 50.4581 72.4067H67.5413C68.3743 72.4067 69.1179 71.8828 69.3978 71.0982L75.1379 55.0273H61.8415Z" fill="#24AE5F"/>
<path d="M75.7586 52.5447H61.8856L61.857 52.5732C61.8663 52.595 61.8694 52.6198 61.8787 52.6421C61.9433 52.8035 61.9979 52.9699 62.0351 53.1436C62.0389 53.1604 62.0401 53.1778 62.0432 53.1952C62.0811 53.3863 62.1034 53.5831 62.1034 53.7861C62.1034 53.9859 62.0817 54.1802 62.0445 54.3689C62.0407 54.3887 62.0389 54.4086 62.0351 54.4285C61.9991 54.5973 61.9458 54.7593 61.8837 54.9163C61.8694 54.953 61.8576 54.9908 61.8415 55.0268H75.7586C76.4414 55.0268 77 54.4682 77 53.7854C77 53.1027 76.4414 52.5447 75.7586 52.5447Z" fill="#71C285"/>
<path d="M70.1724 59.9928H47.8276C47.485 59.9928 47.2069 59.7154 47.2069 59.3722C47.2069 59.0289 47.485 58.7515 47.8276 58.7515H70.1724C70.515 58.7515 70.7931 59.0289 70.7931 59.3722C70.7931 59.7154 70.515 59.9928 70.1724 59.9928Z" fill="#A4E869"/>
<path d="M68.3103 63.0964H49.6897C49.347 63.0964 49.069 62.8189 49.069 62.4757C49.069 62.1324 49.347 61.855 49.6897 61.855H68.3103C68.653 61.855 68.931 62.1324 68.931 62.4757C68.931 62.8189 68.653 63.0964 68.3103 63.0964Z" fill="#A4E869"/>
<path d="M66.4483 66.1999H51.5517C51.2091 66.1999 50.931 65.9224 50.931 65.5792C50.931 65.2359 51.2091 64.9585 51.5517 64.9585H66.4483C66.7909 64.9585 67.069 65.2359 67.069 65.5792C67.069 65.9224 66.7909 66.1999 66.4483 66.1999Z" fill="#A4E869"/>
<path d="M65.2069 69.3031H52.7931C52.4505 69.3031 52.1724 69.0257 52.1724 68.6825C52.1724 68.3392 52.4505 68.0618 52.7931 68.0618H65.2069C65.5495 68.0618 65.8276 68.3392 65.8276 68.6825C65.8276 69.0257 65.5495 69.3031 65.2069 69.3031Z" fill="#A4E869"/>
<path d="M56.143 52.5732L43.2811 39.7112C42.7982 39.2283 42.7982 38.4382 43.2811 37.9559C43.764 37.4737 44.5541 37.473 45.0364 37.9559L57.956 50.875" fill="#F3D55B"/>
<path d="M61.857 52.5732L74.719 39.7112C75.2019 39.2283 75.2019 38.4382 74.719 37.9559C74.2361 37.4737 73.4459 37.473 72.9637 37.9559L60.044 50.875" fill="#F0C419"/>
<path d="M59 56.8895C60.714 56.8895 62.1034 55.5001 62.1034 53.7861C62.1034 52.0721 60.714 50.6826 59 50.6826C57.286 50.6826 55.8965 52.0721 55.8965 53.7861C55.8965 55.5001 57.286 56.8895 59 56.8895Z" fill="#4FBA6F"/>
</g>
</g>
<defs>
<filter id="filter0_d_438_7592" x="0.949481" y="0.342981" width="116.95" height="134.689" filterUnits="userSpaceOnUse" color-interpolation-filters="sRGB">
<feFlood flood-opacity="0" result="BackgroundImageFix"/>
<feColorMatrix in="SourceAlpha" type="matrix" values="0 0 0 0 0 0 0 0 0 0 0 0 0 0 0 0 0 0 127 0" result="hardAlpha"/>
<feMorphology radius="0.65702" operator="erode" in="SourceAlpha" result="effect1_dropShadow_438_7592"/>
<feOffset dx="1.31404" dy="4.59914"/>
<feGaussianBlur stdDeviation="2.95659"/>
<feComposite in2="hardAlpha" operator="out"/>
<feColorMatrix type="matrix" values="0 0 0 0 0 0 0 0 0 0 0 0 0 0 0 0 0 0 0.06 0"/>
<feBlend mode="normal" in2="BackgroundImageFix" result="effect1_dropShadow_438_7592"/>
<feBlend mode="normal" in="SourceGraphic" in2="effect1_dropShadow_438_7592" result="shape"/>
</filter>
<filter id="filter1_d_438_7592" x="37" y="37.594" width="44" height="42.8127" filterUnits="userSpaceOnUse" color-interpolation-filters="sRGB">
<feFlood flood-opacity="0" result="BackgroundImageFix"/>
<feColorMatrix in="SourceAlpha" type="matrix" values="0 0 0 0 0 0 0 0 0 0 0 0 0 0 0 0 0 0 127 0" result="hardAlpha"/>
<feOffset dy="4"/>
<feGaussianBlur stdDeviation="2"/>
<feComposite in2="hardAlpha" operator="out"/>
<feColorMatrix type="matrix" values="0 0 0 0 0 0 0 0 0 0 0 0 0 0 0 0 0 0 0.25 0"/>
<feBlend mode="normal" in2="BackgroundImageFix" result="effect1_dropShadow_438_7592"/>
<feBlend mode="normal" in="SourceGraphic" in2="effect1_dropShadow_438_7592" result="shape"/>
</filter>
<clipPath id="clip0_438_7592">
<rect width="52" height="52" fill="white" transform="translate(34 28)"/>
</clipPath>
</defs>
</svg>
