<svg width="43" height="43" viewBox="0 0 43 43" fill="none" xmlns="http://www.w3.org/2000/svg">
<path d="M29.7161 28.7575C29.7161 29.0117 29.6151 29.2555 29.4353 29.4353C29.2556 29.6151 29.0118 29.7161 28.7575 29.7161H13.4202C13.166 29.7161 12.9222 29.6151 12.7424 29.4353C12.5627 29.2555 12.4617 29.0117 12.4617 28.7575V18.6828C12.4616 18.5367 12.4949 18.3926 12.559 18.2613C12.6231 18.1301 12.7164 18.0152 12.8317 17.9255L20.5003 11.9612C20.6686 11.8303 20.8757 11.7593 21.0889 11.7593C21.3021 11.7593 21.5092 11.8303 21.6775 11.9612L29.3461 17.9255C29.4614 18.0152 29.5547 18.1301 29.6188 18.2613C29.6829 18.3926 29.7162 18.5367 29.7161 18.6828V28.7575V28.7575ZM20.1303 22.0474V27.7989H22.0475V22.0474H20.1303Z" fill="white"/>
</svg>
