<svg width="43" height="43" viewBox="0 0 43 43" fill="none" xmlns="http://www.w3.org/2000/svg">
<path d="M21.9949 27.7327H27.7327V19.1049L21.0386 13.8988L14.3445 19.1049V27.7327H20.0823V21.9949H21.9949V27.7327ZM29.6453 28.689C29.6453 28.9426 29.5445 29.1858 29.3652 29.3652C29.1859 29.5445 28.9426 29.6453 28.689 29.6453H13.3882C13.1346 29.6453 12.8913 29.5445 12.712 29.3652C12.5326 29.1858 12.4319 28.9426 12.4319 28.689V18.6383C12.4318 18.4925 12.465 18.3487 12.529 18.2178C12.5929 18.0868 12.686 17.9723 12.801 17.8828L20.4514 11.9327C20.6193 11.8021 20.8259 11.7312 21.0386 11.7312C21.2513 11.7312 21.4579 11.8021 21.6258 11.9327L29.2762 17.8828C29.3912 17.9723 29.4842 18.0868 29.5482 18.2178C29.6122 18.3487 29.6454 18.4925 29.6453 18.6383V28.689V28.689Z" fill="#95AEAE"/>
</svg>
