<svg width="43" height="43" viewBox="0 0 43 43" fill="none" xmlns="http://www.w3.org/2000/svg">
<path d="M14.4318 28.103C13.5328 27.2064 12.8199 26.1409 12.334 24.9678C11.848 23.7948 11.5987 22.5373 11.6003 21.2675C11.6003 15.9285 15.9282 11.6006 21.2673 11.6006C26.6064 11.6006 30.9342 15.9285 30.9342 21.2675C30.9342 26.6066 26.6064 30.9345 21.2673 30.9345H11.6003L14.4318 28.103ZM17.4005 22.2342C17.4005 23.2598 17.8079 24.2433 18.5331 24.9685C19.2582 25.6936 20.2418 26.101 21.2673 26.101C22.2928 26.101 23.2764 25.6936 24.0015 24.9685C24.7267 24.2433 25.1341 23.2598 25.1341 22.2342H17.4005Z" fill="white"/>
</svg>
