<svg width="43" height="43" viewBox="0 0 43 43" fill="none" xmlns="http://www.w3.org/2000/svg">
<path d="M11.5032 21.0887C11.5032 15.7945 15.7947 11.5029 21.089 11.5029C26.3832 11.5029 30.6748 15.7945 30.6748 21.0887C30.6748 26.383 26.3832 30.6745 21.089 30.6745H11.5032L14.3109 27.8668C13.4194 26.9777 12.7125 25.9212 12.2306 24.758C11.7488 23.5948 11.5016 22.3478 11.5032 21.0887V21.0887ZM16.1312 28.7574H21.089C22.6057 28.7574 24.0883 28.3076 25.3494 27.465C26.6105 26.6223 27.5935 25.4246 28.1739 24.0234C28.7543 22.6221 28.9062 21.0802 28.6103 19.5927C28.3144 18.1051 27.584 16.7387 26.5115 15.6662C25.439 14.5937 24.0726 13.8633 22.5851 13.5674C21.0975 13.2715 19.5556 13.4234 18.1543 14.0038C16.7531 14.5843 15.5554 15.5672 14.7127 16.8283C13.8701 18.0894 13.4203 19.572 13.4203 21.0887C13.4203 23.1516 14.2361 25.0812 15.6663 26.5114L17.0217 27.8668L16.1312 28.7574V28.7574ZM17.2547 22.0473H24.9233C24.9233 23.0642 24.5193 24.0395 23.8003 24.7586C23.0812 25.4777 22.1059 25.8816 21.089 25.8816C20.0721 25.8816 19.0968 25.4777 18.3777 24.7586C17.6586 24.0395 17.2547 23.0642 17.2547 22.0473V22.0473Z" fill="#95AEAE"/>
</svg>
