<svg width="16" height="16" viewBox="0 0 16 16" fill="none" xmlns="http://www.w3.org/2000/svg">
<path d="M2.58798 8.57644V7.76382H1.294V6.46984H5.41209L7.2463 5.17586H9.50494L8.79908 3.2349H7.11691V1.94092H9.70486L10.4114 3.88189H12.9398V5.82285H11.1179L12.0599 8.4121C12.7747 8.43483 13.4561 8.71982 13.9742 9.21274C14.4923 9.70567 14.8109 10.372 14.8692 11.0848C14.9274 11.7975 14.7214 12.5068 14.2902 13.0774C13.8591 13.6479 13.233 14.0398 12.5315 14.1784C11.8299 14.3169 11.1018 14.1924 10.4862 13.8286C9.87051 13.4648 9.41029 12.8871 9.19326 12.2057C8.97622 11.5243 9.01757 10.7868 9.30941 10.134C9.60124 9.48108 10.1232 8.95845 10.7756 8.66572L9.97595 6.46984H9.36325L8.33972 10.2677L8.33842 10.267L8.33972 10.2709L6.44727 10.9593C6.51557 11.5042 6.42836 12.0573 6.1957 12.5548C5.96304 13.0523 5.59443 13.4738 5.13241 13.7707C4.6704 14.0676 4.13384 14.2278 3.58468 14.2327C3.03551 14.2377 2.49615 14.0872 2.02886 13.7987C1.56157 13.5102 1.18541 13.0954 0.94382 12.6022C0.702228 12.109 0.605055 11.5575 0.663519 11.0115C0.721984 10.4654 0.933702 9.94699 1.27423 9.51613C1.61476 9.08526 2.0702 8.75949 2.58798 8.57644V8.57644ZM3.88196 8.42828C4.3112 8.47633 4.72438 8.61929 5.09153 8.84679C5.45869 9.07429 5.77062 9.38063 6.00473 9.74361L7.27089 9.2823L8.02463 6.46984H7.67073L5.82293 7.76382H3.88196V8.42828V8.42828ZM3.55847 12.9397C3.98745 12.9397 4.39886 12.7693 4.70219 12.466C5.00553 12.1627 5.17594 11.7512 5.17594 11.3223C5.17594 10.8933 5.00553 10.4819 4.70219 10.1785C4.39886 9.8752 3.98745 9.70479 3.55847 9.70479C3.12949 9.70479 2.71807 9.8752 2.41474 10.1785C2.1114 10.4819 1.94099 10.8933 1.94099 11.3223C1.94099 11.7512 2.1114 12.1627 2.41474 12.466C2.71807 12.7693 3.12949 12.9397 3.55847 12.9397V12.9397ZM11.9693 12.9397C12.3983 12.9397 12.8097 12.7693 13.1131 12.466C13.4164 12.1627 13.5868 11.7512 13.5868 11.3223C13.5868 10.8933 13.4164 10.4819 13.1131 10.1785C12.8097 9.8752 12.3983 9.70479 11.9693 9.70479C11.5403 9.70479 11.1289 9.8752 10.8256 10.1785C10.5223 10.4819 10.3519 10.8933 10.3519 11.3223C10.3519 11.7512 10.5223 12.1627 10.8256 12.466C11.1289 12.7693 11.5403 12.9397 11.9693 12.9397Z" fill="#1EB1B3"/>
</svg>
