<svg width="43" height="43" viewBox="0 0 43 43" fill="none" xmlns="http://www.w3.org/2000/svg">
<path d="M21.089 30.6745C15.7947 30.6745 11.5032 26.383 11.5032 21.0887C11.5032 15.7945 15.7947 11.5029 21.089 11.5029C26.3832 11.5029 30.6748 15.7945 30.6748 21.0887C30.6748 26.383 26.3832 30.6745 21.089 30.6745ZM21.089 28.7574C23.1228 28.7574 25.0734 27.9494 26.5115 26.5113C27.9497 25.0731 28.7576 23.1226 28.7576 21.0887C28.7576 19.0549 27.9497 17.1043 26.5115 15.6662C25.0734 14.228 23.1228 13.4201 21.089 13.4201C19.0551 13.4201 17.1046 14.228 15.6664 15.6662C14.2283 17.1043 13.4203 19.0549 13.4203 21.0887C13.4203 23.1226 14.2283 25.0731 15.6664 26.5113C17.1046 27.9494 19.0551 28.7574 21.089 28.7574V28.7574ZM24.444 17.7337L22.5268 22.5266L17.7339 24.4438L19.6511 19.6509L24.444 17.7337Z" fill="#95AEAE"/>
</svg>
