<svg width="16" height="16" viewBox="0 0 16 16" fill="none" xmlns="http://www.w3.org/2000/svg">
<path d="M14.234 7.11683V13.5867C14.234 13.7583 14.1658 13.9229 14.0445 14.0442C13.9231 14.1655 13.7586 14.2337 13.587 14.2337H12.94C12.7684 14.2337 12.6038 14.1655 12.4825 14.0442C12.3612 13.9229 12.293 13.7583 12.293 13.5867V12.9397H3.23516V13.5867C3.23516 13.7583 3.16699 13.9229 3.04566 14.0442C2.92432 14.1655 2.75976 14.2337 2.58817 14.2337H1.94118C1.76959 14.2337 1.60502 14.1655 1.48369 14.0442C1.36235 13.9229 1.29419 13.7583 1.29419 13.5867V7.11683L2.87737 3.95047C2.98486 3.73536 3.15016 3.55447 3.35472 3.42807C3.55928 3.30168 3.79502 3.23478 4.03548 3.2349H5.82311V1.94092H9.70505V3.2349H11.4933C11.7337 3.2349 11.9693 3.30186 12.1737 3.42824C12.3782 3.55463 12.5434 3.73546 12.6508 3.95047L14.234 7.11683ZM12.94 8.41081H2.58817V11.6458H12.94V8.41081ZM2.74086 7.11683H12.7873L11.4933 4.52887H4.03484L2.74086 7.11683ZM4.20564 10.9988C3.94825 10.9988 3.70141 10.8965 3.5194 10.7145C3.3374 10.5325 3.23516 10.2857 3.23516 10.0283C3.23516 9.77089 3.3374 9.52405 3.5194 9.34205C3.70141 9.16005 3.94825 9.0578 4.20564 9.0578C4.46303 9.0578 4.70988 9.16005 4.89188 9.34205C5.07388 9.52405 5.17612 9.77089 5.17612 10.0283C5.17612 10.2857 5.07388 10.5325 4.89188 10.7145C4.70988 10.8965 4.46303 10.9988 4.20564 10.9988V10.9988ZM11.3225 10.9988C11.0651 10.9988 10.8183 10.8965 10.6363 10.7145C10.4543 10.5325 10.352 10.2857 10.352 10.0283C10.352 9.77089 10.4543 9.52405 10.6363 9.34205C10.8183 9.16005 11.0651 9.0578 11.3225 9.0578C11.5799 9.0578 11.8268 9.16005 12.0088 9.34205C12.1908 9.52405 12.293 9.77089 12.293 10.0283C12.293 10.2857 12.1908 10.5325 12.0088 10.7145C11.8268 10.8965 11.5799 10.9988 11.3225 10.9988V10.9988Z" fill="#1EB1B3"/>
</svg>
