<svg width="43" height="43" viewBox="0 0 43 43" fill="none" xmlns="http://www.w3.org/2000/svg">
<path d="M21.0888 23.006V24.9231C19.5634 24.9231 18.1005 25.5291 17.0219 26.6077C15.9433 27.6863 15.3373 29.1492 15.3373 30.6746H13.4202C13.4202 28.6408 14.2281 26.6902 15.6663 25.2521C17.1044 23.8139 19.055 23.006 21.0888 23.006V23.006ZM21.0888 22.0474C17.9111 22.0474 15.3373 19.4736 15.3373 16.2959C15.3373 13.1182 17.9111 10.5444 21.0888 10.5444C24.2665 10.5444 26.8403 13.1182 26.8403 16.2959C26.8403 19.4736 24.2665 22.0474 21.0888 22.0474ZM21.0888 20.1302C23.2073 20.1302 24.9231 18.4144 24.9231 16.2959C24.9231 14.1775 23.2073 12.4616 21.0888 12.4616C18.9703 12.4616 17.2545 14.1775 17.2545 16.2959C17.2545 18.4144 18.9703 20.1302 21.0888 20.1302ZM23.5763 27.6187C23.4548 27.1072 23.4548 26.5744 23.5763 26.0629L22.6254 25.5136L23.584 23.8534L24.5349 24.4026C24.9166 24.0411 25.3779 23.7745 25.8817 23.6243V22.5267H27.7989V23.6243C28.3088 23.7757 28.7689 24.046 29.1457 24.4026L30.0966 23.8534L31.0552 25.5136L30.1042 26.0629C30.2256 26.574 30.2256 27.1065 30.1042 27.6177L31.0552 28.167L30.0966 29.8272L29.1457 29.278C28.764 29.6395 28.3026 29.9061 27.7989 30.0563V31.1539H25.8817V30.0563C25.3779 29.9061 24.9166 29.6395 24.5349 29.278L23.584 29.8272L22.6254 28.167L23.5763 27.6187V27.6187ZM26.8403 28.2782C27.2216 28.2782 27.5874 28.1267 27.857 27.857C28.1267 27.5874 28.2782 27.2216 28.2782 26.8403C28.2782 26.4589 28.1267 26.0932 27.857 25.8236C27.5874 25.5539 27.2216 25.4024 26.8403 25.4024C26.4589 25.4024 26.0932 25.5539 25.8236 25.8236C25.5539 26.0932 25.4024 26.4589 25.4024 26.8403C25.4024 27.2216 25.5539 27.5874 25.8236 27.857C26.0932 28.1267 26.4589 28.2782 26.8403 28.2782Z" fill="#95AEAE"/>
</svg>
