<svg width="16" height="16" viewBox="0 0 16 16" fill="none" xmlns="http://www.w3.org/2000/svg">
<path d="M4.92807 5.63654L7.00167 4.13035C7.23444 3.96 7.51757 3.87254 7.80587 3.88191C8.15752 3.89068 8.49769 4.00879 8.77911 4.21982C9.06052 4.43085 9.26919 4.72432 9.37612 5.05943C9.49646 5.43663 9.60645 5.69154 9.70608 5.82417C10.0071 6.22582 10.3977 6.55178 10.8467 6.77617C11.2957 7.00056 11.7908 7.11721 12.2927 7.11686V8.41083C11.6246 8.41156 10.9646 8.26415 10.3603 7.97921C9.75591 7.69426 9.22226 7.27888 8.79771 6.76295L8.34676 9.3218L9.6802 10.4411L11.1185 14.3929L9.90212 14.8354L8.58226 11.2097L6.38897 9.36903C6.20898 9.22368 6.07124 9.03274 5.99011 8.81608C5.90898 8.59942 5.88741 8.36498 5.92766 8.13716L6.25698 6.27059L5.81897 6.58891L4.44282 8.4833L3.396 7.72244L4.91707 5.62878L4.92807 5.63654ZM8.7343 3.55842C8.39112 3.55842 8.06199 3.42209 7.81932 3.17942C7.57666 2.93675 7.44033 2.60762 7.44033 2.26444C7.44033 1.92125 7.57666 1.59212 7.81932 1.34946C8.06199 1.10679 8.39112 0.970459 8.7343 0.970459C9.07749 0.970459 9.40662 1.10679 9.64928 1.34946C9.89195 1.59212 10.0283 1.92125 10.0283 2.26444C10.0283 2.60762 9.89195 2.93675 9.64928 3.17942C9.40662 3.42209 9.07749 3.55842 8.7343 3.55842ZM6.81145 12.0864L4.73203 14.5643L3.74084 13.733L5.66628 11.4387L6.14893 10.0283L7.30769 10.9988L6.81145 12.0864Z" fill="#1EB1B3"/>
</svg>
