<svg width="168" height="55" viewBox="0 0 168 55" fill="none" xmlns="http://www.w3.org/2000/svg">
<g clip-path="url(#clip0_3_17660)">
<path fill-rule="evenodd" clip-rule="evenodd" d="M29.827 14.9135C29.827 16.9148 29.4328 18.824 28.7178 20.5677C28.3441 21.479 27.8828 22.3452 27.3444 23.1556L27.3266 23.1823L24.7897 21.6548L24.7914 21.6523L4.66177 9.5566L1.80795 7.79018C1.82724 7.75476 1.84667 7.71942 1.86625 7.68418C2.30534 6.8934 2.81425 6.14672 3.38463 5.45248C6.11977 2.12342 10.2687 0 14.9135 0C23.15 0 29.827 6.67699 29.827 14.9135ZM1.08071 9.32921C0.383738 11.054 0 12.9389 0 14.9135C0 18.9558 1.60827 22.6225 4.21985 25.3086C4.25704 25.3791 4.30044 25.4474 4.35015 25.513C5.75722 27.3691 7.75162 30.9995 9.52175 35.0452C11.2858 39.0769 12.7445 43.3339 13.1876 46.4548C13.202 46.5794 13.2323 46.7001 13.2764 46.8144C13.3488 47.0029 13.458 47.1711 13.5942 47.3115C13.7516 47.4742 13.947 47.6018 14.1688 47.6791C14.3236 47.7332 14.489 47.7622 14.6596 47.7616C14.8306 47.7615 14.9964 47.7316 15.1513 47.6765C15.3724 47.5982 15.5668 47.4699 15.7232 47.3067C15.8588 47.1656 15.9673 46.9969 16.0389 46.808C16.0825 46.6935 16.1121 46.5728 16.126 46.4482C16.5412 43.4316 18.0982 39.1441 19.9839 35.06C21.8738 30.9669 23.9903 27.2992 25.3909 25.541C25.4062 25.5219 25.4209 25.5024 25.4351 25.4827C25.7431 25.1761 26.0377 24.8561 26.3181 24.5237L23.7444 22.9742C21.558 25.3681 18.4111 26.87 14.9135 26.87C8.31009 26.87 2.95698 21.5169 2.95698 14.9135C2.95698 13.511 3.19845 12.165 3.64207 10.9146L1.08071 9.32921ZM9.88468 28.9579C10.6805 30.4774 11.4813 32.147 12.2308 33.8598C13.1419 35.9423 13.9984 38.1366 14.6867 40.2526C15.4171 38.1282 16.3323 35.9149 17.2993 33.8205C18.0691 32.1533 18.8883 30.5259 19.698 29.0429C18.1962 29.5513 16.587 29.827 14.9135 29.827C13.1489 29.827 11.4558 29.5205 9.88468 28.9579ZM26.1472 19.0171L6.01933 6.92259C8.20807 4.48804 11.382 2.95698 14.9135 2.95698C21.5169 2.95698 26.87 8.31009 26.87 14.9135C26.87 16.3552 26.6148 17.7373 26.1472 19.0171Z" fill="url(#paint0_linear_3_17660)"/>
</g>
<path d="M39.7957 47.9278C44.4965 48.0292 48.5886 43.9033 48.4872 39.2025V23.9839H45.1391V32.9121C43.8201 31.3903 41.9939 30.4772 39.7957 30.4772C35.0948 30.3757 30.9689 34.5016 31.0704 39.2025C30.9689 43.9033 35.0948 48.0292 39.7957 47.9278ZM34.3847 39.2025C34.3847 36.125 36.752 33.69 39.7957 33.69C42.8394 33.69 45.2067 36.125 45.2067 39.2025C45.2067 42.28 42.8394 44.715 39.7957 44.715C36.752 44.715 34.3847 42.28 34.3847 39.2025ZM53.5547 26.3851C53.5547 27.5011 54.4678 28.4142 55.5839 28.4142C56.6999 28.4142 57.5792 27.5011 57.5792 26.3851C57.5792 25.2691 56.6999 24.3559 55.5839 24.3559C54.4678 24.3559 53.5547 25.2014 53.5547 26.3851ZM53.9267 47.6572H57.241V30.7477H53.9267V47.6572ZM61.6277 42.5844C61.6277 45.9325 64.7052 47.9278 68.2562 47.9278C72.1792 47.9278 74.8847 46.1354 74.8847 42.8549C74.8847 40.4538 73.5658 39.1348 71.9425 38.5599C71.1308 38.2555 70.1163 37.985 68.865 37.7144C66.3285 37.1395 65.2125 36.7337 65.2125 35.4824C65.2125 34.2649 66.43 33.4194 68.0871 33.4194C69.8119 33.4194 71.1647 34.2987 71.1647 35.55H74.3436C74.3436 33.9605 73.7687 32.7431 72.585 31.8299C71.4352 30.9168 69.9472 30.4772 68.1548 30.4772C64.6714 30.4772 61.8982 32.4725 61.8982 35.2457C61.8982 37.5453 63.1834 38.8305 64.7052 39.4054C65.4831 39.6759 66.4638 39.9465 67.6813 40.217C70.353 40.792 71.5705 41.2316 71.5705 42.7197C71.5705 44.0724 70.3868 44.9517 68.3239 44.9517C66.2947 44.9517 64.8067 44.0386 64.8067 42.5844H61.6277ZM78.9309 47.6572H82.2451V41.2993L84.3081 39.3039L90.497 47.6572H94.1832L86.574 37.2072L93.0672 30.7477H88.8398L82.2451 37.1733V23.9839H78.9309V47.6572ZM112.847 39.2025C112.949 34.5016 108.823 30.3757 104.122 30.4772C99.4209 30.3757 95.295 34.5016 95.3965 39.2025C95.295 43.9033 99.4209 48.0292 104.122 47.9278C108.823 48.0292 112.949 43.9033 112.847 39.2025ZM98.7107 39.2025C98.7107 36.125 101.078 33.69 104.156 33.69C107.233 33.69 109.533 36.125 109.533 39.2025C109.533 42.28 107.199 44.715 104.156 44.715C101.112 44.715 98.7107 42.28 98.7107 39.2025ZM117.088 39.2025C116.987 43.9033 121.079 48.0292 125.78 47.9278C130.447 48.0292 134.573 43.9033 134.505 39.2025C134.573 34.5016 130.447 30.3757 125.78 30.4772C123.581 30.4772 121.755 31.3903 120.436 32.9121V23.9839H117.088V39.2025ZM120.369 39.2025C120.369 36.125 122.736 33.69 125.78 33.69C128.823 33.69 131.191 36.125 131.191 39.2025C131.191 42.28 128.823 44.715 125.78 44.715C122.736 44.715 120.369 42.28 120.369 39.2025ZM138.743 47.6572H142.057V38.8305C142.057 35.4824 143.41 33.8929 145.845 33.8929H146.183V30.6801H145.845C141.55 30.6801 138.743 33.4194 138.743 38.8305V47.6572ZM157.986 30.4772C153.285 30.3757 149.294 34.5355 149.396 39.2363C149.294 43.9371 153.319 48.0292 158.087 47.9278C161.469 47.9278 164.513 46.0001 166.001 43.0578L162.044 43.024C160.996 44.1401 159.643 44.715 157.986 44.715C155.28 44.715 153.217 42.9564 152.947 40.42H166.61C166.677 39.9803 166.711 39.473 166.711 38.8981C166.576 33.7914 162.382 30.4772 157.986 30.4772ZM152.947 37.7144C153.589 35.3133 155.517 33.69 158.087 33.69C160.489 33.69 162.518 35.3809 163.16 37.7144H152.947Z" fill="url(#paint1_linear_3_17660)"/>
<defs>
<linearGradient id="paint0_linear_3_17660" x1="14.9135" y1="0" x2="14.9135" y2="47.7616" gradientUnits="userSpaceOnUse">
<stop stop-color="#2BE6C6"/>
<stop offset="1" stop-color="#1095D4"/>
</linearGradient>
<linearGradient id="paint1_linear_3_17660" x1="98.8827" y1="17.6572" x2="98.8827" y2="54.9906" gradientUnits="userSpaceOnUse">
<stop stop-color="#33FFC2"/>
<stop offset="1" stop-color="#1095D4"/>
</linearGradient>
<clipPath id="clip0_3_17660">
<rect width="29.827" height="47.7619" fill="white"/>
</clipPath>
</defs>
</svg>
