<svg width="34" height="34" viewBox="0 0 34 34" fill="none" xmlns="http://www.w3.org/2000/svg">
<path d="M8 8H26C26.2652 8 26.5196 8.10536 26.7071 8.29289C26.8946 8.48043 27 8.73478 27 9V25C27 25.2652 26.8946 25.5196 26.7071 25.7071C26.5196 25.8946 26.2652 26 26 26H8C7.73478 26 7.48043 25.8946 7.29289 25.7071C7.10536 25.5196 7 25.2652 7 25V9C7 8.73478 7.10536 8.48043 7.29289 8.29289C7.48043 8.10536 7.73478 8 8 8V8ZM25 12.238L17.072 19.338L9 12.216V24H25V12.238ZM9.511 10L17.061 16.662L24.502 10H9.511Z" fill="#647671"/>
</svg>
