<svg width="11" height="11" viewBox="0 0 11 11" fill="none" xmlns="http://www.w3.org/2000/svg">
<g id="Iconly/Light-Outline/Star">
<path id="Star" fill-rule="evenodd" clip-rule="evenodd" d="M5.62628 1.94943C5.58728 1.94943 5.49129 1.96014 5.4403 2.06213L4.65781 3.62668C4.53396 3.87393 4.29528 4.04577 4.01931 4.0852L2.2675 4.3376C2.15179 4.35431 2.11237 4.44002 2.10037 4.47601C2.08966 4.51072 2.07252 4.599 2.15222 4.67528L3.41894 5.89229C3.62078 6.08641 3.71248 6.36624 3.66449 6.64006L3.36623 8.35845C3.34781 8.46601 3.41509 8.52857 3.44508 8.55C3.47679 8.574 3.56164 8.62156 3.66663 8.56671L5.23289 7.75466C5.47972 7.62739 5.77369 7.62739 6.01966 7.75466L7.58549 8.56628C7.69091 8.62071 7.77576 8.57314 7.8079 8.55C7.83789 8.52857 7.90517 8.46601 7.88674 8.35845L7.58763 6.64006C7.53964 6.36624 7.63134 6.08641 7.83318 5.89229L9.0999 4.67528C9.18003 4.599 9.16289 4.51029 9.15175 4.47601C9.14018 4.44002 9.10076 4.35431 8.98505 4.3376L7.23324 4.0852C6.9577 4.04577 6.71901 3.87393 6.59517 3.62625L5.81183 2.06213C5.76126 1.96014 5.66527 1.94943 5.62628 1.94943ZM3.56812 9.23435C3.39114 9.23435 3.21544 9.17865 3.06503 9.06894C2.80535 8.87868 2.67807 8.56457 2.73335 8.24832L3.03161 6.52993C3.04275 6.46608 3.02089 6.40138 2.97376 6.35595L1.70704 5.13894C1.47392 4.91568 1.39036 4.58571 1.48892 4.27932C1.58833 3.9695 1.85145 3.74795 2.17584 3.70167L3.92765 3.44927C3.99536 3.43984 4.05364 3.39827 4.08278 3.33913L4.86569 1.77416C5.01011 1.48576 5.3015 1.30664 5.62633 1.30664C5.95115 1.30664 6.24254 1.48576 6.38696 1.77416L7.1703 3.33871C7.19987 3.39827 7.25772 3.43984 7.325 3.44927L9.07681 3.70167C9.4012 3.74795 9.66432 3.9695 9.76374 4.27932C9.8623 4.58571 9.77831 4.91568 9.54519 5.13894L8.27847 6.35595C8.23133 6.40138 8.2099 6.46608 8.22105 6.5295L8.51973 8.24832C8.57458 8.565 8.44731 8.87911 8.18719 9.06894C7.92365 9.26221 7.5804 9.28835 7.28943 9.13665L5.72403 8.32545C5.66275 8.29374 5.58947 8.29374 5.52819 8.32545L3.96279 9.13708C3.83766 9.20222 3.70268 9.23435 3.56812 9.23435Z" fill="#423D3D"/>
</g>
</svg>
