<svg width="12" height="11" viewBox="0 0 12 11" fill="none" xmlns="http://www.w3.org/2000/svg">
<path d="M8.40318 6.1577C8.29219 6.26525 8.2412 6.42081 8.26648 6.57336L8.64744 8.68171C8.67958 8.8604 8.60416 9.04124 8.4546 9.14452C8.30805 9.25165 8.11307 9.2645 7.95323 9.1788L6.05529 8.1889C5.9893 8.15377 5.91602 8.13491 5.84103 8.13277H5.7249C5.68462 8.13877 5.64519 8.15162 5.6092 8.17133L3.71083 9.16594C3.61698 9.21308 3.51071 9.22979 3.40658 9.21308C3.15289 9.16508 2.98362 8.9234 3.02519 8.66842L3.40658 6.56008C3.43186 6.40624 3.38087 6.24983 3.26988 6.14055L1.72247 4.64072C1.59306 4.51516 1.54806 4.32661 1.6072 4.15648C1.66462 3.98679 1.81118 3.86294 1.98816 3.83509L4.11793 3.52612C4.27991 3.50941 4.42218 3.41085 4.49503 3.26515L5.4335 1.34107C5.45578 1.29822 5.4845 1.2588 5.51921 1.22537L5.55777 1.19538C5.57791 1.17309 5.60105 1.15467 5.62677 1.13967L5.67348 1.12253L5.74633 1.09253H5.92673C6.08786 1.10924 6.2297 1.20566 6.30384 1.34964L7.25473 3.26515C7.3233 3.40528 7.45657 3.50255 7.61041 3.52612L9.74018 3.83509C9.92016 3.8608 10.0706 3.98507 10.1301 4.15648C10.1863 4.32832 10.1378 4.51687 10.0059 4.64072L8.40318 6.1577Z" fill="#FFCB66"/>
</svg>
