<svg width="34" height="34" viewBox="0 0 34 34" fill="none" xmlns="http://www.w3.org/2000/svg">
<path d="M17 19V21C15.4087 21 13.8826 21.6321 12.7574 22.7574C11.6321 23.8826 11 25.4087 11 27H9C9 24.8783 9.84285 22.8434 11.3431 21.3431C12.8434 19.8429 14.8783 19 17 19ZM17 18C13.685 18 11 15.315 11 12C11 8.685 13.685 6 17 6C20.315 6 23 8.685 23 12C23 15.315 20.315 18 17 18ZM17 16C19.21 16 21 14.21 21 12C21 9.79 19.21 8 17 8C14.79 8 13 9.79 13 12C13 14.21 14.79 16 17 16ZM19.595 23.812C19.4682 23.2784 19.4682 22.7226 19.595 22.189L18.603 21.616L19.603 19.884L20.595 20.457C20.9932 20.0799 21.4745 19.8017 22 19.645V18.5H24V19.645C24.532 19.803 25.012 20.085 25.405 20.457L26.397 19.884L27.397 21.616L26.405 22.189C26.5316 22.7222 26.5316 23.2778 26.405 23.811L27.397 24.384L26.397 26.116L25.405 25.543C25.0068 25.9201 24.5255 26.1983 24 26.355V27.5H22V26.355C21.4745 26.1983 20.9932 25.9201 20.595 25.543L19.603 26.116L18.603 24.384L19.595 23.812ZM23 24.5C23.3978 24.5 23.7794 24.342 24.0607 24.0607C24.342 23.7794 24.5 23.3978 24.5 23C24.5 22.6022 24.342 22.2206 24.0607 21.9393C23.7794 21.658 23.3978 21.5 23 21.5C22.6022 21.5 22.2206 21.658 21.9393 21.9393C21.658 22.2206 21.5 22.6022 21.5 23C21.5 23.3978 21.658 23.7794 21.9393 24.0607C22.2206 24.342 22.6022 24.5 23 24.5Z" fill="#676767"/>
</svg>
