<svg width="34" height="31" viewBox="0 0 34 31" fill="none" xmlns="http://www.w3.org/2000/svg">
<g filter="url(#filter0_d_379_7439)">
<path d="M4.07047 22.7936V1.53629C4.07047 1.16044 4.21978 0.799982 4.48555 0.534215C4.75131 0.268447 5.11177 0.119141 5.48762 0.119141H18.242C18.6178 0.119141 18.9783 0.268447 19.2441 0.534215C19.5098 0.799982 19.6591 1.16044 19.6591 1.53629V12.8735H22.4934C23.2451 12.8735 23.9661 13.1721 24.4976 13.7037C25.0291 14.2352 25.3277 14.9561 25.3277 15.7078V21.3764C25.3277 21.7523 25.477 22.1127 25.7428 22.3785C26.0086 22.6443 26.369 22.7936 26.7449 22.7936C27.1207 22.7936 27.4812 22.6443 27.747 22.3785C28.0127 22.1127 28.162 21.7523 28.162 21.3764V11.4564H25.3277C24.9519 11.4564 24.5914 11.307 24.3257 11.0413C24.0599 10.7755 23.9106 10.4151 23.9106 10.0392V4.9573L21.5624 2.60908L23.5662 0.605223L30.5811 7.62012C30.7129 7.75155 30.8174 7.90772 30.8887 8.07966C30.96 8.2516 30.9965 8.43593 30.9963 8.62205V21.3764C30.9963 22.504 30.5484 23.5853 29.7511 24.3826C28.9538 25.1799 27.8725 25.6279 26.7449 25.6279C25.6173 25.6279 24.536 25.1799 23.7387 24.3826C22.9414 23.5853 22.4934 22.504 22.4934 21.3764V15.7078H19.6591V22.7936H21.0763V25.6279H2.65332V22.7936H4.07047ZM6.90477 2.95344V11.4564H16.8248V2.95344H6.90477Z" fill="#428EFF"/>
</g>
<defs>
<filter id="filter0_d_379_7439" x="0.0370409" y="0.119141" width="33.5753" height="30.7413" filterUnits="userSpaceOnUse" color-interpolation-filters="sRGB">
<feFlood flood-opacity="0" result="BackgroundImageFix"/>
<feColorMatrix in="SourceAlpha" type="matrix" values="0 0 0 0 0 0 0 0 0 0 0 0 0 0 0 0 0 0 127 0" result="hardAlpha"/>
<feOffset dy="2.61628"/>
<feGaussianBlur stdDeviation="1.30814"/>
<feComposite in2="hardAlpha" operator="out"/>
<feColorMatrix type="matrix" values="0 0 0 0 0.816903 0 0 0 0 0.816903 0 0 0 0 0.816903 0 0 0 1 0"/>
<feBlend mode="normal" in2="BackgroundImageFix" result="effect1_dropShadow_379_7439"/>
<feBlend mode="normal" in="SourceGraphic" in2="effect1_dropShadow_379_7439" result="shape"/>
</filter>
</defs>
</svg>
