<svg width="36" height="37" viewBox="0 0 36 37" fill="none" xmlns="http://www.w3.org/2000/svg">
<g filter="url(#filter0_d_379_7436)">
<path d="M7.59604 7.485L3 2.89037L5.00536 0.88501L9.59998 5.48105H31.2012C31.4221 5.48103 31.64 5.53266 31.8374 5.63179C32.0348 5.73093 32.2063 5.87484 32.3382 6.05204C32.4701 6.22924 32.5587 6.43481 32.597 6.65236C32.6354 6.86991 32.6223 7.0934 32.5589 7.30501L29.1576 18.6428C29.0701 18.9348 28.8907 19.1909 28.6461 19.3729C28.4016 19.5549 28.1048 19.6533 27.7999 19.6532H10.4305V22.4877H26.0199V25.3221H9.01326C8.63739 25.3221 8.27691 25.1728 8.01113 24.907C7.74535 24.6412 7.59604 24.2808 7.59604 23.9049V7.485ZM9.72186 30.991C9.15806 30.991 8.61735 30.767 8.21868 30.3683C7.82001 29.9697 7.59604 29.429 7.59604 28.8652C7.59604 28.3013 7.82001 27.7606 8.21868 27.362C8.61735 26.9633 9.15806 26.7393 9.72186 26.7393C10.2857 26.7393 10.8264 26.9633 11.2251 27.362C11.6237 27.7606 11.8477 28.3013 11.8477 28.8652C11.8477 29.429 11.6237 29.9697 11.2251 30.3683C10.8264 30.767 10.2857 30.991 9.72186 30.991ZM26.7285 30.991C26.1647 30.991 25.624 30.767 25.2253 30.3683C24.8266 29.9697 24.6027 29.429 24.6027 28.8652C24.6027 28.3013 24.8266 27.7606 25.2253 27.362C25.624 26.9633 26.1647 26.7393 26.7285 26.7393C27.2923 26.7393 27.833 26.9633 28.2317 27.362C28.6303 27.7606 28.8543 28.3013 28.8543 28.8652C28.8543 29.429 28.6303 29.9697 28.2317 30.3683C27.833 30.767 27.2923 30.991 26.7285 30.991Z" fill="#FCB0B3"/>
</g>
<defs>
<filter id="filter0_d_379_7436" x="0.383598" y="0.88501" width="34.851" height="35.3388" filterUnits="userSpaceOnUse" color-interpolation-filters="sRGB">
<feFlood flood-opacity="0" result="BackgroundImageFix"/>
<feColorMatrix in="SourceAlpha" type="matrix" values="0 0 0 0 0 0 0 0 0 0 0 0 0 0 0 0 0 0 127 0" result="hardAlpha"/>
<feOffset dy="2.6164"/>
<feGaussianBlur stdDeviation="1.3082"/>
<feComposite in2="hardAlpha" operator="out"/>
<feColorMatrix type="matrix" values="0 0 0 0 0.816903 0 0 0 0 0.816903 0 0 0 0 0.816903 0 0 0 1 0"/>
<feBlend mode="normal" in2="BackgroundImageFix" result="effect1_dropShadow_379_7436"/>
<feBlend mode="normal" in="SourceGraphic" in2="effect1_dropShadow_379_7436" result="shape"/>
</filter>
</defs>
</svg>
